<svg width="449" height="143" viewBox="0 0 449 143" fill="none" xmlns="http://www.w3.org/2000/svg">
<path fill-rule="evenodd" clip-rule="evenodd" d="M368.844 36.2774C368.641 19.4072 381.93 4.37575 401.628 1.57107C413.921 -0.185737 425.26 2.01415 435.011 9.34487C442.102 14.6618 446.38 21.5517 447.973 29.7951C449.729 38.8937 448.08 47.4252 442.607 55.2389C437.17 62.9928 429.462 68.0616 419.679 70.2681C406.933 73.1481 394.886 71.6173 384.122 64.4571C375.571 58.7702 370.79 50.9433 369.193 41.4636C368.932 39.7454 368.815 38.0117 368.844 36.2774ZM408.862 57.6359C415.477 57.6249 421.491 55.3098 425.448 50.93C431.809 43.8762 432.97 35.934 429.323 27.5687C423.506 14.2143 404.047 10.57 392.981 20.701C387.154 26.0378 385.369 32.6486 386.5 39.9571C388.113 50.2631 397.503 57.6537 408.862 57.6359ZM147.769 70.42H146.337C144.987 70.42 143.637 70.419 142.287 70.4179C138.069 70.4147 133.85 70.4114 129.632 70.4399C128.727 70.4399 128.168 70.2295 127.646 69.5228C125.259 66.2941 122.857 63.0744 120.454 59.8546L120.453 59.8526L120.451 59.8505L120.45 59.8485L120.448 59.8464L120.447 59.8443C117.931 56.4729 115.416 53.1013 112.917 49.7194C112.309 48.9019 111.683 48.543 110.566 48.5696C107.275 48.6427 103.98 48.6316 100.69 48.5696C99.6823 48.5541 99.3872 48.8089 99.3921 49.7371C99.4135 52.8972 99.414 56.0578 99.4146 59.2191V59.2192V59.2192V59.2193V59.2194V59.2195C99.4152 62.5562 99.4158 65.8938 99.4409 69.2325C99.4409 70.2272 99.1409 70.4554 98.0823 70.4444C93.3667 70.3912 88.6512 70.3912 83.9356 70.4444C82.999 70.4444 82.799 70.1962 82.8015 69.3876C82.8307 58.386 82.8307 47.3829 82.8015 36.3783C82.8015 35.4634 83.0454 35.2086 84.0747 35.213C90.7033 35.2335 97.332 35.2338 103.961 35.2341C108.103 35.2343 112.245 35.2345 116.388 35.2396C118.907 35.2396 121.327 34.8541 123.541 33.7376C127.312 31.8368 129.195 28.1814 128.588 24.0674C128 20.0908 125.344 17.4212 120.944 16.3866C119.286 16.0136 117.583 15.8357 115.875 15.8571C105.307 15.8571 94.7408 15.8571 84.1673 15.8793C83.1478 15.8793 82.7673 15.7154 82.7893 14.6852C82.8649 10.8482 82.8429 7.00666 82.7893 3.16518C82.7893 2.38757 83.0332 2.17933 83.8746 2.18154C88.086 2.1919 92.2974 2.18793 96.5088 2.18396C104.005 2.17689 111.501 2.16981 118.997 2.24357C125.234 2.30339 131.149 3.64592 136.327 7.01552C141.642 10.4693 144.361 15.2967 145.22 21.0722C145.883 25.534 145.505 29.9227 143.649 34.1253C141.305 39.4422 136.986 43.02 131.334 45.3661L131.27 45.3927C130.375 45.7639 129.935 45.9459 129.862 46.2242C129.792 46.4919 130.06 46.8486 130.586 47.5484L130.588 47.5505L146.949 69.2879C147.129 69.5246 147.298 69.7614 147.538 70.0978L147.63 70.2267L147.769 70.42ZM67.9523 11.4846C60.1351 4.46844 50.83 0.817479 40.0029 1.07225C36.2247 0.930542 32.4454 1.32748 28.8026 2.24862C14.6218 5.93282 5.49472 14.256 1.6556 27.1784C-0.378594 34.024 -0.112734 40.9271 2.34586 47.6796C6.32157 58.572 14.2527 65.9226 26.1391 69.7316C32.0807 71.6346 38.2248 71.8008 44.4322 71.3577C54.1837 70.6665 62.379 67.0754 69.0865 60.6197C69.6182 60.1146 69.6621 59.8177 69.1084 59.2905C67.1579 57.4265 65.2302 55.5429 63.3019 53.6586L63.3017 53.6584C62.4088 52.7859 61.5159 51.9134 60.6204 51.0426C59.1985 49.6602 59.1814 49.6513 57.6033 50.9163C52.5129 54.9904 46.825 57.6489 39.8297 57.6489C32.7612 57.6378 27.0172 55.2097 22.7415 50.1321C18.7072 45.3424 17.2779 39.8305 17.9218 33.8711C18.5438 28.1355 20.9853 23.1375 25.9342 19.4356C33.0832 14.0877 41.098 13.8063 49.447 16.7063C52.7129 17.8361 55.4008 19.8521 57.9765 21.9612C58.6472 22.5017 58.9326 22.422 59.479 21.8371C62.292 18.8316 65.1425 15.8519 68.0304 12.898C68.606 12.3087 68.5401 12.0118 67.9523 11.4846ZM234.309 53.4157C234.309 52.1048 234.311 50.7941 234.312 49.4835V49.479V49.4788V49.4785C234.317 45.5478 234.321 41.6177 234.285 37.6864C234.285 36.7714 234.529 36.5122 235.56 36.5167C244.658 36.5527 253.756 36.5441 262.854 36.5355L264.098 36.5344C266.737 36.5344 269.271 36.0669 271.578 34.8573C275.569 32.766 277.539 28.7872 276.825 24.3542C276.154 20.1914 273.32 17.42 268.705 16.3788C267.086 16.0232 265.424 15.8506 263.759 15.8648C261.824 15.8648 259.89 15.8642 257.956 15.8636C250.541 15.8615 243.126 15.8593 235.709 15.8891C234.602 15.8891 234.265 15.6366 234.285 14.6064C234.353 10.8048 234.331 7.001 234.285 3.19718C234.285 2.44173 234.485 2.18918 235.36 2.19139C239.056 2.20232 242.751 2.19455 246.446 2.18677C253.239 2.17248 260.032 2.15819 266.824 2.26007C274.086 2.36862 280.783 4.25392 286.225 8.87522C290.588 12.5771 292.889 17.2383 293.542 22.6106C294.059 26.78 293.769 30.8696 292.135 34.8174C289.371 41.4924 283.935 45.6441 276.71 48.0256C272.273 49.49 267.656 50.0195 262.954 50.0195C261.951 50.0195 260.947 50.0223 259.944 50.025H259.943H259.943H259.943C257.37 50.0322 254.796 50.0394 252.222 49.9995C251.19 49.984 250.844 50.1812 250.853 51.198C250.883 54.2065 250.883 57.215 250.883 60.2235C250.883 63.232 250.883 66.2405 250.912 69.249C250.912 70.2659 250.585 70.4564 249.548 70.4431C244.914 70.3922 240.28 70.3811 235.646 70.4431C234.473 70.4609 234.258 70.1042 234.268 69.1361C234.319 65.0131 234.315 60.8875 234.311 56.7612V56.7611V56.761V56.7608C234.31 55.6458 234.309 54.5307 234.309 53.4157ZM155.688 2.20274H149.89C149.988 2.35791 150.068 2.48664 150.137 2.59809C150.253 2.78577 150.338 2.92444 150.432 3.05788C159.612 16.2365 168.81 29.4129 178.025 42.5871C178.473 43.1963 178.708 43.9146 178.698 44.6474C178.688 48.2617 178.687 51.876 178.686 55.4903C178.685 60.1084 178.683 64.7265 178.664 69.3446C178.661 70.1864 178.876 70.4633 179.864 70.4523C184.581 70.3991 189.296 70.3925 194.011 70.4523C195.106 70.4656 195.35 70.1754 195.35 69.2161C195.329 64.2338 195.327 59.2492 195.325 54.2645C195.324 50.9419 195.322 47.6193 195.316 44.2974C195.294 43.6364 195.492 42.9849 195.884 42.4276C204.195 30.6255 212.509 18.8211 220.826 7.01456C221.909 5.47487 222.984 3.92409 224.17 2.20274H222.882C221.558 2.20274 220.234 2.20364 218.91 2.20454L218.91 2.20454C214.747 2.20738 210.582 2.21022 206.421 2.18501C205.594 2.17172 205.121 2.39326 204.682 3.05788C200.077 10.0083 195.463 16.9543 190.842 23.8958C190.047 25.0883 189.244 26.2769 188.423 27.4912L188.416 27.5016L188.415 27.5026C187.989 28.1323 187.559 28.7689 187.123 29.4166C187.021 29.2686 186.93 29.1385 186.847 29.0197C186.696 28.8025 186.57 28.6229 186.452 28.4396C180.914 20.0226 175.401 11.5916 169.915 3.14649C169.432 2.40434 168.92 2.1828 168.003 2.1828C164.992 2.21691 161.982 2.21172 158.972 2.20652C157.877 2.20463 156.782 2.20274 155.688 2.20274ZM331.705 2.20344C333.839 2.20344 335.973 2.20405 338.107 2.20466C345.932 2.2069 353.757 2.20914 361.584 2.18129C362.616 2.18129 362.852 2.44935 362.837 3.35101C362.781 7.26634 362.781 11.1802 362.837 15.0926C362.837 15.9189 362.594 16.1471 361.686 16.1427C358.444 16.1257 355.203 16.125 351.961 16.1242H351.96C348.414 16.1234 344.868 16.1226 341.322 16.1006C340.217 16.1006 339.908 16.3465 339.91 17.3722C339.928 25.9934 339.932 34.6146 339.936 43.2358C339.939 51.857 339.943 60.4782 339.961 69.0994C339.961 70.1362 339.734 70.4685 338.52 70.4507C333.969 70.3754 329.415 70.3821 324.861 70.4507C323.663 70.4685 323.307 70.2292 323.31 69.0772C323.357 51.9109 323.367 34.7431 323.339 17.5738C323.339 17.3803 323.342 17.2123 323.345 17.0665C323.354 16.6075 323.359 16.3691 323.242 16.2471C323.116 16.1153 322.848 16.1191 322.291 16.127C322.122 16.1294 321.926 16.1321 321.7 16.1316C319.923 16.1316 318.145 16.1298 316.368 16.1281C311.52 16.1233 306.671 16.1185 301.824 16.1493C300.797 16.1493 300.521 15.879 300.534 14.9663C300.586 11.0539 300.586 7.14007 300.534 3.22473C300.534 2.37846 300.816 2.18572 301.709 2.18793C311.708 2.21304 321.706 2.21821 331.705 2.20344ZM224.656 95.0434H446.722C446.858 95.0434 446.994 95.0454 447.13 95.0473C447.401 95.0513 447.672 95.0552 447.942 95.0434C448.466 95.0146 448.693 95.2184 448.654 95.6925C448.643 95.8402 448.646 95.9879 448.65 96.1356C448.652 96.1896 448.653 96.2435 448.654 96.2975C448.654 96.3174 448.654 96.3372 448.654 96.3571C448.654 111.197 448.664 126.04 448.683 140.886C448.683 141.979 448.349 142.216 447.193 142.216C298.742 142.191 150.291 142.191 1.83845 142.216C0.657934 142.216 0.375 141.945 0.375 140.886C0.414025 126.045 0.414025 111.202 0.375 96.3571C0.375 95.2627 0.711593 95.0279 1.86528 95.0279C76.1256 95.0486 150.389 95.0537 224.656 95.0434ZM399.348 117.589C398.909 117.589 398.47 117.593 398.031 117.597C397.007 117.605 395.982 117.613 394.958 117.576C393.941 117.536 393.967 118.19 394.148 118.659C394.262 118.954 394.174 119.311 394.087 119.666C393.924 120.331 393.764 120.985 394.938 121.192C395.722 121.328 396.545 121.296 397.367 121.265L397.368 121.264C397.779 121.249 398.19 121.233 398.597 121.238C398.671 121.238 398.751 121.23 398.833 121.222C399.094 121.196 399.369 121.169 399.499 121.393C399.656 121.665 399.451 121.898 399.263 122.112L399.263 122.113C399.218 122.164 399.174 122.215 399.136 122.264C397.797 124.023 395.806 124.364 393.648 124.258C390.916 124.123 388.633 122.601 388.001 120.543C387.194 117.906 388.021 115.418 390.177 113.992C392.28 112.603 395.619 112.401 397.575 113.992C399.007 115.15 399.963 114.785 401.163 114.007C401.33 113.902 401.503 113.806 401.682 113.719C402.353 113.368 402.688 113.192 402.722 112.971C402.756 112.749 402.488 112.482 401.953 111.947C398.648 108.681 392.987 107.875 388.643 110.05C384.228 112.266 382.172 116.745 383.494 121.285C384.906 126.141 390.44 129.123 396.37 128.219C401.541 127.432 404.826 123.345 404.419 118.276C404.375 117.762 404.214 117.563 403.633 117.572C402.552 117.598 401.482 117.595 400.414 117.592C400.058 117.591 399.703 117.589 399.348 117.589ZM330.032 118.083L330.344 118.017C330.907 118.731 331.474 119.442 332.04 120.152L332.045 120.158C333.687 122.216 335.327 124.271 336.856 126.396C337.778 127.674 338.783 128.168 340.427 128.031C341.361 127.955 341.647 127.78 341.647 126.905C341.603 121.446 341.578 115.985 341.647 110.527C341.664 109.361 341.281 109.049 340.098 109.186C339.73 109.229 339.32 109.189 338.919 109.15C338.234 109.084 337.571 109.019 337.171 109.368C336.725 109.757 336.813 110.461 336.901 111.162C336.938 111.459 336.975 111.755 336.971 112.027C336.95 113.606 336.957 115.186 336.964 116.792C336.967 117.605 336.971 118.425 336.971 119.255C336.494 119.03 336.276 118.721 336.073 118.432C336.018 118.354 335.965 118.278 335.907 118.205C335.41 117.574 334.907 116.946 334.404 116.317L334.403 116.316C332.949 114.498 331.494 112.679 330.166 110.795C329.259 109.501 328.244 109.04 326.61 109.162C325.661 109.233 325.39 109.43 325.407 110.288C325.438 114.095 325.434 117.904 325.43 121.713C325.428 123.032 325.427 124.35 325.427 125.669C325.427 126.798 325.427 127.379 325.717 127.678C326.025 127.995 326.66 127.995 327.968 127.995C329.044 127.995 329.562 127.995 329.812 127.736C330.044 127.495 330.044 127.031 330.044 126.134L330.032 118.083ZM124.329 118.671C124.349 113.181 119.714 108.894 113.685 108.825C111.55 108.801 109.456 109.353 107.667 110.412C105.879 111.47 104.476 112.988 103.638 114.771C102.8 116.554 102.564 118.524 102.96 120.429C103.355 122.334 104.365 124.09 105.861 125.474C107.357 126.857 109.271 127.806 111.361 128.2C113.452 128.594 115.624 128.415 117.602 127.687C119.58 126.958 121.276 125.712 122.473 124.107C123.671 122.502 124.317 120.61 124.329 118.671ZM218.697 118.502C218.697 119.259 218.699 120.017 218.7 120.774C218.704 122.858 218.708 124.943 218.683 127.027C218.683 127.709 218.831 128.022 219.68 128.006C220.879 127.986 222.078 127.992 223.277 127.998H223.278H223.279C224.64 128.004 226 128.01 227.359 127.98C232.481 127.864 236.603 124.182 236.976 119.461C237.378 114.393 233.951 110.175 228.732 109.392C226.899 109.12 225.054 109.156 223.208 109.191C222.049 109.214 220.89 109.236 219.734 109.182C218.827 109.14 218.67 109.466 218.68 110.199C218.71 112.218 218.706 114.238 218.701 116.258C218.699 117.006 218.697 117.754 218.697 118.502ZM61.412 116.473V116.473C61.4158 115.119 61.4196 113.765 61.4082 112.412C61.4045 112.101 61.448 111.757 61.4915 111.413C61.5914 110.624 61.6916 109.832 61.2228 109.424C60.715 108.978 59.8912 109.057 59.0482 109.138C58.5914 109.182 58.1289 109.227 57.7081 109.189C56.9373 109.12 56.7324 109.41 56.7568 110.075C56.7791 111.128 56.776 112.182 56.7728 113.237C56.7704 114.028 56.768 114.82 56.7764 115.613C56.7764 116.185 56.6593 116.499 55.9129 116.486C54.2495 116.449 52.5811 116.46 50.9152 116.486C50.3299 116.486 50.1347 116.282 50.1469 115.766C50.1738 114.658 50.1908 113.551 50.1469 112.443C50.1331 112.111 50.1803 111.744 50.2273 111.378C50.3295 110.584 50.4309 109.796 49.903 109.384C49.4763 109.05 48.7004 109.104 47.9024 109.16C47.4599 109.191 47.0105 109.223 46.6103 109.189C45.6639 109.109 45.4736 109.43 45.481 110.237C45.5027 112.765 45.5016 115.294 45.5006 117.822C45.4997 120.128 45.4988 122.433 45.5151 124.738C45.5151 125.041 45.4711 125.371 45.4269 125.703C45.3174 126.525 45.2064 127.358 45.759 127.811C46.2607 128.223 47.0574 128.143 47.871 128.063L47.8712 128.063C48.3154 128.019 48.7646 127.974 49.1737 128.008C50.0225 128.077 50.1884 127.734 50.1713 127.045C50.1501 126.154 50.1539 125.262 50.1578 124.369V124.369C50.1619 123.415 50.1661 122.461 50.1396 121.506C50.1201 120.775 50.2811 120.447 51.1884 120.487C52.6884 120.556 54.1958 120.549 55.6983 120.487C56.5568 120.454 56.8129 120.709 56.791 121.48C56.7629 122.402 56.7678 123.325 56.7727 124.248C56.7776 125.171 56.7825 126.094 56.7544 127.018C56.73 127.809 57.0398 128.064 57.8739 128.004C58.6041 127.942 59.339 127.942 60.0691 128.004C61.113 128.108 61.4789 127.818 61.4472 126.803C61.3794 124.782 61.3899 122.757 61.4004 120.732L61.4005 120.73C61.4043 119.988 61.4082 119.246 61.4082 118.504V118.502C61.4082 117.826 61.4101 117.149 61.412 116.473ZM165.788 120.866V120.867V120.868C165.799 122.792 165.81 124.717 165.752 126.642C165.723 127.672 165.967 128.064 167.199 128.017C168.93 127.951 170.662 127.964 172.394 127.978C173.101 127.983 173.808 127.988 174.516 127.988C177.979 127.988 177.979 127.988 177.874 124.901L177.872 124.829C177.848 124.12 177.565 123.961 176.855 123.976C176.146 123.992 175.436 123.986 174.725 123.98H174.725C173.769 123.972 172.813 123.964 171.86 124.007C170.777 124.056 170.396 123.804 170.396 122.74C170.474 119.273 170.447 115.802 170.413 112.328C170.413 112.037 170.455 111.719 170.498 111.399C170.604 110.601 170.711 109.792 170.169 109.375C169.755 109.055 169.014 109.104 168.253 109.155C167.823 109.183 167.387 109.212 166.999 109.175C165.923 109.073 165.733 109.477 165.752 110.358C165.8 112.355 165.792 114.347 165.785 116.337V116.338V116.339C165.782 117.078 165.779 117.818 165.779 118.558C165.779 119.327 165.783 120.097 165.788 120.866ZM283.06 118.613C283.06 117.84 283.056 117.066 283.053 116.293C283.043 114.298 283.034 112.302 283.087 110.31C283.114 109.353 282.765 109.093 281.782 109.182C280.97 109.238 280.155 109.238 279.343 109.182C278.694 109.151 278.404 109.291 278.409 109.962C278.433 115.722 278.433 121.482 278.409 127.242C278.409 127.825 278.635 128.028 279.262 128.002C280.074 127.949 280.889 127.949 281.701 128.002C282.74 128.095 283.116 127.822 283.084 126.801C283.029 124.867 283.04 122.926 283.051 120.986C283.055 120.196 283.06 119.405 283.06 118.615V118.613ZM119.74 118.635C119.759 115.338 117.257 112.983 113.715 112.968C110.084 112.95 107.486 115.287 107.471 118.586C107.452 121.814 110.045 124.249 113.537 124.275C117.159 124.304 119.72 121.978 119.74 118.635ZM223.349 117.288V117.289V117.289C223.344 117.713 223.339 118.137 223.339 118.56C223.339 119.052 223.341 119.544 223.342 120.036C223.346 121.09 223.35 122.144 223.336 123.199C223.327 123.748 223.502 124.02 224.158 123.996C224.596 123.979 225.037 123.982 225.477 123.984C226.174 123.989 226.87 123.993 227.556 123.919C230.422 123.604 232.046 122.235 232.478 119.65C233.034 116.313 231.166 113.225 226.71 113.24C226.497 113.241 226.285 113.245 226.072 113.249C225.553 113.259 225.034 113.269 224.514 113.229C223.646 113.163 223.268 113.378 223.317 114.251C223.372 115.258 223.36 116.274 223.349 117.288Z" fill="white"/>
</svg>
