<svg width="24" height="24" viewBox="0 0 24 24" fill="none" xmlns="http://www.w3.org/2000/svg">
<path fill-rule="evenodd" clip-rule="evenodd" d="M22.7989 0.662602C22.3112 1.12866 21.8258 1.59506 21.3429 2.06182C21.3034 2.10636 21.2552 2.14233 21.2013 2.16749C21.1474 2.19266 21.0888 2.20648 21.0293 2.20811H15.3035C15.6418 1.87566 15.9479 1.57703 16.2392 1.2929L16.2395 1.29259L16.2403 1.29181L16.2405 1.29166L16.241 1.29114C16.4737 1.06418 16.6968 0.846457 16.9194 0.628118C16.9666 0.590081 17.0211 0.562263 17.0796 0.546432C17.1381 0.530601 17.1992 0.527104 17.2591 0.536161H22.7247L22.7989 0.662602ZM5.31719 7.19475C5.31719 6.98985 5.31555 6.78477 5.31391 6.57954V6.57953V6.57952V6.57952V6.57951V6.57951V6.5795V6.5795V6.57949V6.57948V6.57948V6.57947V6.57947V6.57946C5.31 6.08868 5.30608 5.597 5.3245 5.10481C5.33705 4.77042 5.21998 4.69414 4.9064 4.70354C4.22908 4.72549 3.54758 4.71713 2.87235 4.70354C2.26401 4.69518 1.9818 4.41408 1.97448 3.80591C1.96507 3.041 1.96821 2.27608 1.97448 1.50698C1.97239 0.794311 2.24624 0.524709 2.99673 0.536203C6.41052 0.604126 9.46474 1.67313 12.1207 3.83831C12.3603 4.03043 12.5963 4.23079 12.8324 4.43121C12.9816 4.55783 13.1308 4.68448 13.2809 4.80908C13.6687 5.13093 13.7921 5.50608 13.5705 5.95855C13.3782 6.35459 12.9893 6.45596 12.4468 6.28145C12.024 6.14554 11.6009 6.01024 11.1779 5.87495C10.2478 5.57752 9.31775 5.28011 8.39022 4.97628C7.93449 4.82685 7.79547 4.94493 7.80906 5.44025C7.82903 6.16255 7.82656 6.88552 7.82408 7.60858V7.60862C7.82215 8.17221 7.82022 8.73586 7.82892 9.29932C7.82892 9.64729 7.7244 9.74552 7.38992 9.72985C6.83489 9.70477 6.27673 9.70686 5.71752 9.72985C5.40394 9.74238 5.29106 9.66088 5.29942 9.32858C5.32413 8.78904 5.32148 8.24586 5.31884 7.70227L5.31883 7.7021C5.31801 7.53299 5.31719 7.36384 5.31719 7.19475ZM11.6768 21.4281L11.6685 21.4281H11.6685H11.6685H11.6684H11.6684H11.6683H11.6683H11.6682H11.6682H11.6681H11.6681H11.668H11.668H11.668C9.43993 21.4297 7.21205 21.4312 4.98476 21.4178C4.57503 21.4178 4.43078 21.5222 4.4705 21.9329C4.49581 22.3156 4.49755 22.6995 4.47573 23.0824C4.45796 23.6258 4.14125 23.9382 3.6343 23.934C3.12736 23.9299 2.80855 23.6132 2.80855 23.0646C2.80368 21.5678 2.8053 20.0692 2.80693 18.5721C2.80774 17.8241 2.80855 17.0766 2.80855 16.3298C2.80855 15.7889 2.80703 15.2481 2.8055 14.7072C2.80138 13.247 2.79725 11.787 2.82319 10.3275C2.83259 9.80501 2.67163 9.66394 2.18559 9.72037C1.83766 9.74661 1.48826 9.74661 1.14034 9.72037C0.603078 9.70051 0.290548 9.37553 0.304136 8.86663C0.309363 8.38594 0.61353 8.07036 1.12884 8.05991C1.96504 8.04528 2.80124 8.04528 3.63744 8.05991C4.18097 8.06827 4.46318 8.36191 4.47886 8.90947C4.49141 9.3609 4.49036 9.81441 4.47886 10.2679C4.47259 10.4957 4.55517 10.5866 4.77989 10.5647C4.86069 10.5577 4.94195 10.5601 5.02336 10.5624L5.02344 10.5624C5.06418 10.5635 5.10496 10.5647 5.14573 10.5647H22.5794C23.4658 10.5647 23.6989 10.7935 23.6989 11.664V20.3299C23.6989 21.1994 23.4648 21.4282 22.5784 21.4282C19.6552 21.4289 16.7316 21.4286 13.8077 21.4272C13.0974 21.4272 12.3871 21.4276 11.6768 21.4281ZM9.0905 19.7552C9.83393 19.7531 10.5601 19.531 11.1773 19.1167C11.7946 18.7025 12.2753 18.1147 12.5587 17.4276C12.8422 16.7405 12.9157 15.9849 12.77 15.2561C12.6243 14.5273 12.2659 13.8579 11.7401 13.3325C11.2142 12.8071 10.5445 12.4492 9.81543 12.304C9.08634 12.1587 8.33055 12.2326 7.64343 12.5164C6.95632 12.8001 6.36867 13.281 5.95466 13.8983C5.54064 14.5156 5.31881 15.2417 5.31715 15.985C5.31605 16.4806 5.41291 16.9715 5.60218 17.4296C5.79144 17.8876 6.06937 18.3038 6.42001 18.6541C6.77064 19.0045 7.18707 19.2821 7.64536 19.4711C8.10365 19.66 8.59477 19.7566 9.0905 19.7552ZM18.2615 12.2314C17.518 12.2314 16.7912 12.4516 16.1728 12.8642C15.5544 13.2768 15.0721 13.8633 14.7868 14.5496C14.5015 15.236 14.4259 15.9915 14.5697 16.7207C14.7134 17.45 15.0701 18.1203 15.5945 18.6471C16.119 19.1739 16.7878 19.5336 17.5166 19.6807C18.2453 19.8279 19.0014 19.7559 19.6893 19.4739C20.3771 19.1919 20.966 18.7125 21.3816 18.0962C21.7972 17.4799 22.0209 16.7543 22.0244 16.0111C22.0257 15.5163 21.9292 15.0261 21.7407 14.5686C21.5521 14.1111 21.2752 13.6953 20.9256 13.3449C20.5761 12.9946 20.1608 12.7167 19.7037 12.527C19.2465 12.3374 18.7565 12.2398 18.2615 12.2398V12.2314ZM18.8572 3.04573L18.857 3.04573C18.6059 3.04492 18.3548 3.04412 18.1037 3.04412C17.8727 3.04412 17.6417 3.04369 17.4107 3.04326H17.4106H17.4106H17.4105H17.4105H17.4104H17.4104H17.4103H17.4102H17.4102H17.4101H17.4101H17.41C16.7548 3.04205 16.0994 3.04085 15.4435 3.04934C14.7986 3.05457 14.508 3.33462 14.508 3.9616C14.5024 5.57782 14.5024 7.19404 14.508 8.81026C14.5111 9.44665 14.7944 9.73192 15.4341 9.73192C17.0514 9.73192 18.6677 9.73018 20.283 9.7267C20.8945 9.72461 21.1892 9.44038 21.1892 8.83847C21.1936 7.99517 21.1932 7.15209 21.1928 6.30903V6.30802C21.1924 5.34414 21.192 4.38028 21.1986 3.41613C21.2007 3.11726 21.1077 3.03262 20.815 3.03785C20.1628 3.04992 19.5101 3.04783 18.8572 3.04573H18.8572ZM23.7 3.60841V1.35232C23.5351 1.51881 23.3812 1.676 23.234 1.82635L23.234 1.82636L23.2339 1.82644L23.2339 1.82646L23.2337 1.8266L23.2337 1.82666C22.9153 2.15178 22.6283 2.44487 22.3296 2.73063C22.2268 2.8203 22.1456 2.93219 22.0924 3.05784C22.0392 3.18348 22.0152 3.31958 22.0223 3.45584C22.0283 4.39809 22.0288 5.34067 22.0293 6.28321C22.0297 6.99015 22.0301 7.69706 22.0328 8.40377C22.0328 8.42802 22.0301 8.45335 22.0273 8.47955C22.0163 8.58435 22.0037 8.70305 22.1551 8.82176C22.2776 8.69457 22.3999 8.56695 22.5222 8.43928L22.5223 8.43923C22.8663 8.0802 23.2107 7.72075 23.563 7.36925C23.705 7.22636 23.7028 7.06533 23.7005 6.90008L23.7001 6.86289L23.7 6.83736V3.60841ZM13.1207 22.2647L13.1223 22.2647C13.7368 22.2668 14.3513 22.2689 14.9658 22.2568C15.2585 22.2506 15.3453 22.3362 15.3505 22.6341C15.3683 23.7104 15.1697 23.934 14.114 23.934H10.4671C10.2837 23.9346 10.1033 23.8884 9.94277 23.7997C9.78228 23.7111 9.6471 23.5829 9.55005 23.4274C9.453 23.2718 9.39729 23.0941 9.38821 22.911C9.37913 22.7279 9.41697 22.5456 9.49815 22.3812C9.56333 22.2401 9.6715 22.2508 9.77535 22.261C9.80307 22.2638 9.83047 22.2665 9.85667 22.2662C10.498 22.2615 11.1369 22.2621 11.7753 22.2627H11.7755H11.7757H11.7759H11.776C11.9885 22.2629 12.2009 22.2631 12.4133 22.2631C12.6491 22.2631 12.8849 22.2639 13.1207 22.2647ZM19.8069 22.2648H19.8069H19.8068H19.8068H19.8067H19.8067H19.8066H19.8066H19.8065C19.5702 22.264 19.3339 22.2632 19.0977 22.2632C18.885 22.2632 18.6722 22.263 18.4595 22.2628C17.8214 22.2622 17.1833 22.2616 16.5452 22.2663C16.5194 22.2665 16.4923 22.2639 16.4648 22.2612C16.3611 22.2509 16.2522 22.2402 16.1877 22.3823C16.1066 22.5464 16.0687 22.7284 16.0776 22.9112C16.0866 23.094 16.142 23.2715 16.2387 23.4269C16.3354 23.5823 16.4702 23.7104 16.6303 23.7992C16.7904 23.8879 16.9705 23.9344 17.1536 23.9341H20.8004C21.8551 23.9341 22.0547 23.7094 22.0359 22.6331C22.0307 22.3332 21.9418 22.2506 21.6502 22.2569C21.0365 22.269 20.4216 22.2669 19.8069 22.2648ZM7.79752 13.3789C8.92325 12.8564 10.2413 13.0727 11.0378 13.8365C11.2134 14.0058 11.2301 14.1208 11.0462 14.2932C10.7865 14.5378 10.5352 14.7912 10.2841 15.0443L10.284 15.0444C10.1693 15.1601 10.0546 15.2757 9.93923 15.3904C9.92661 15.403 9.9141 15.4162 9.90153 15.4294L9.90152 15.4294C9.81725 15.5179 9.73033 15.6092 9.59116 15.5628C9.4681 15.5218 9.48059 15.4202 9.49193 15.3279C9.49533 15.3002 9.49862 15.2734 9.49814 15.2493C9.49187 14.9975 9.34135 14.8366 9.1762 14.6798C8.79486 14.3216 8.41502 13.9625 8.0184 13.5876L8.01753 13.5868L7.79752 13.3789ZM6.83384 14.1323C6.12934 15.0582 5.94747 16.0572 6.41574 17.2673C6.90701 16.7678 7.34183 16.3257 7.77247 15.8921C7.92926 15.7238 8.09546 15.5786 8.34736 15.5786C8.36988 15.5784 8.39469 15.5814 8.42013 15.5846C8.51277 15.5961 8.61387 15.6086 8.64421 15.4668C8.67281 15.3343 8.59189 15.254 8.51321 15.1759L8.49056 15.1533C8.38554 15.0486 8.27878 14.9453 8.17198 14.8419L8.17196 14.8419C7.91739 14.5955 7.66262 14.349 7.43068 14.0832C7.17773 13.7948 7.02512 13.8816 6.83384 14.1323ZM10.3458 18.6141C9.21802 19.1366 7.90937 18.914 7.11394 18.1502C6.93624 17.9788 6.92579 17.8639 7.10767 17.6925C7.37267 17.4422 7.62995 17.1827 7.88673 16.9236C7.99557 16.8138 8.10432 16.7041 8.21354 16.5953C8.22536 16.5834 8.23711 16.5712 8.24892 16.5589C8.33413 16.47 8.42218 16.3781 8.56265 16.4249C8.68437 16.4655 8.67167 16.5654 8.66004 16.6569C8.65639 16.6856 8.65284 16.7135 8.65359 16.7384C8.66091 16.9903 8.81456 17.1491 8.97762 17.3058L10.3458 18.6141ZM11.2438 17.9349C12.012 16.9976 12.2169 15.9704 11.7382 14.7478C11.6155 14.877 11.4968 15.0017 11.3813 15.1232L11.3804 15.1241C11.0599 15.4608 10.7633 15.7725 10.4724 16.0864C10.2894 16.287 10.1044 16.4438 9.80549 16.4114C9.7892 16.4098 9.77142 16.407 9.75288 16.404L9.75286 16.404C9.65718 16.3885 9.54106 16.3697 9.50341 16.5159C9.46954 16.6484 9.55307 16.7308 9.63367 16.8103L9.65288 16.8294C9.78182 16.9597 9.91184 17.0886 10.0417 17.2173L10.0418 17.2174L10.0418 17.2174L10.0419 17.2174L10.0419 17.2175C10.2952 17.4686 10.548 17.7191 10.7912 17.9788C10.9845 18.1868 11.1047 18.1042 11.2438 17.9349ZM16.9592 13.3526C18.2197 12.8615 19.2294 13.0559 20.1639 13.7852C20.4169 13.9827 20.4294 14.1259 20.1827 14.3474C19.9235 14.5797 19.68 14.8296 19.4363 15.0797L19.4362 15.0797L19.4361 15.0799L19.436 15.0799L19.436 15.08C19.3289 15.1898 19.2219 15.2997 19.1134 15.4081C19.1049 15.4167 19.0963 15.4254 19.0878 15.4342C19.0119 15.512 18.9341 15.5917 18.8082 15.5701C18.6575 15.5448 18.6709 15.4395 18.6829 15.3454L18.6829 15.3454C18.6858 15.3227 18.6886 15.3007 18.6891 15.2806C18.6891 15.0047 18.527 14.8334 18.3504 14.6651C17.9381 14.2736 17.5249 13.8848 17.0488 13.437L16.9592 13.3526ZM16.1366 14.0101C15.3484 14.7593 15.108 16.1878 15.6453 17.2254L15.9958 16.8705C16.3225 16.5399 16.6438 16.2148 16.9623 15.8879C17.1369 15.7081 17.3177 15.5681 17.5895 15.5744C17.9699 15.5817 17.902 15.3842 17.7243 15.1993C17.5179 14.9842 17.3064 14.7745 17.0949 14.5649L17.0948 14.5648L17.0947 14.5647C16.9004 14.3721 16.7062 14.1795 16.516 13.9829C16.3613 13.822 16.2672 13.8868 16.1366 14.0101ZM19.5095 18.633C18.4037 19.1356 17.0971 18.9151 16.3059 18.1523C16.1271 17.9799 16.1208 17.8649 16.3059 17.6946C16.5709 17.4444 16.8281 17.1848 17.0849 16.9258L17.0851 16.9256C17.1939 16.8159 17.3026 16.7062 17.4117 16.5974C17.4188 16.5903 17.4259 16.583 17.433 16.5757C17.4374 16.5711 17.4418 16.5666 17.4462 16.562C17.5319 16.4728 17.6208 16.3803 17.7608 16.4291C17.8816 16.4712 17.8689 16.5701 17.8572 16.661C17.8536 16.6897 17.85 16.7176 17.8507 16.7426C17.8581 16.9945 18.0148 17.1512 18.1758 17.3101C18.6023 17.7354 19.0319 18.1607 19.5095 18.633ZM20.466 17.9025C21.207 16.9704 21.4004 15.9578 20.9311 14.7414C20.7902 14.8919 20.6542 15.0361 20.5221 15.1762C20.2377 15.4778 19.9711 15.7605 19.7113 16.0466C19.5064 16.2734 19.2995 16.4646 18.9587 16.4144C18.9481 16.4133 18.9368 16.4117 18.9252 16.4101C18.8406 16.3983 18.7355 16.3837 18.7005 16.5095C18.6899 16.5605 18.6941 16.6135 18.7126 16.6622C18.7311 16.7109 18.7632 16.7533 18.8051 16.7843C18.9195 16.899 19.0347 17.0124 19.1498 17.1257C19.4196 17.391 19.6884 17.6555 19.9433 17.9338C20.1524 18.1679 20.2862 18.1271 20.466 17.9025Z" fill="#F8F8F8"/>
</svg>
