<svg width="26" height="26" viewBox="0 0 26 26" fill="none" xmlns="http://www.w3.org/2000/svg">
<g clip-path="url(#clip0_213_5738)">
<path d="M12.8657 19.5377H1.02482C0.191577 19.5354 0 19.3513 0 18.5112C0 12.9312 0 7.35032 0 1.76868C0 0.916809 0.186961 0.728027 1.01097 0.728027H24.7481C25.5513 0.728027 25.7614 0.945126 25.7614 1.78284C25.7614 7.3456 25.7614 12.9068 25.7614 18.4664C25.7614 19.3301 25.5536 19.5354 24.7065 19.5354L12.8657 19.5377ZM12.9188 18.5938H24.0164C24.7088 18.5938 24.8266 18.4829 24.8289 17.7844C24.8289 12.692 24.8289 7.59888 24.8289 2.50493C24.8289 1.797 24.7227 1.67665 24.0372 1.67665H1.72881C1.00636 1.67193 0.923264 1.74981 0.923264 2.48133V17.7608C0.923264 18.523 0.994816 18.5915 1.75882 18.5915L12.9188 18.5938Z" fill="#F8F8F8"/>
<path d="M12.861 25.1772C11.3861 25.1772 9.91352 25.1772 8.4386 25.1772C8.28165 25.1772 7.92388 25.3424 8.00698 24.953C8.06468 24.6817 7.95851 24.2451 8.48477 24.2451C11.4138 24.2451 14.3429 24.2451 17.2696 24.2451C17.789 24.2451 17.6851 24.6982 17.7312 24.9672C17.789 25.333 17.4473 25.1819 17.2835 25.1843C15.8086 25.1843 14.3336 25.1772 12.861 25.1772Z" fill="#F8F8F8"/>
<path d="M12.8751 23.2971C12.2634 23.2971 11.6495 23.2735 11.0286 23.2971C10.627 23.3206 10.5462 23.1507 10.5669 22.7897C10.59 22.1832 10.5669 21.5768 10.5669 20.9727C10.5669 20.6895 10.53 20.4323 10.9616 20.4512C11.3194 20.4512 11.511 20.496 11.5133 20.9467C11.5029 21.2729 11.6088 21.5918 11.8114 21.8441C12.014 22.0963 12.2993 22.2647 12.6143 22.3177C12.8979 22.3684 13.1899 22.3275 13.4497 22.2006C13.7095 22.0737 13.9242 21.8672 14.0638 21.6098C14.1917 21.3892 14.2513 21.1342 14.2346 20.8783C14.1908 20.3875 14.5116 20.4913 14.7886 20.4653C15.1556 20.4299 15.1856 20.6423 15.181 20.9373C15.181 21.5839 15.1648 22.2281 15.181 22.8723C15.181 23.2003 15.0886 23.3206 14.7563 23.3088C14.1354 23.2805 13.5052 23.2971 12.8751 23.2971Z" fill="#F8F8F8"/>
<path d="M12.9074 2.6156C16.3881 2.6156 19.8503 2.6156 23.3126 2.59908C23.7742 2.59908 23.9381 2.68403 23.9358 3.19846C23.9142 7.82203 23.9142 12.4448 23.9358 17.0668C23.9358 17.5034 23.8573 17.6685 23.3749 17.6685C16.3812 17.6512 9.38667 17.6512 2.39141 17.6685C1.91131 17.6685 1.83514 17.4986 1.83745 17.0668C1.84976 12.4448 1.84976 7.82203 1.83745 3.19846C1.83745 2.69111 1.99441 2.59436 2.45373 2.59672C5.93213 2.6156 9.41975 2.6156 12.9074 2.6156ZM15.8295 10.712C16.0603 10.8984 16.2496 11.0659 16.4504 11.2122C17.2643 11.8035 18.2601 12.0737 19.2537 11.9728C20.2473 11.8718 21.1716 11.4066 21.8558 10.6631C22.54 9.91964 22.9379 8.94809 22.9759 7.92801C23.0139 6.90792 22.6895 5.90824 22.0626 5.11369C21.4357 4.31913 20.5487 3.78339 19.5655 3.60547C18.5823 3.42755 17.5693 3.61946 16.7137 4.14575C15.8581 4.67204 15.2178 5.49714 14.911 6.46859C14.6042 7.44003 14.6517 8.49218 15.0447 9.4306C15.1394 9.66658 15.294 9.85536 15.1071 10.1385C14.8047 10.5822 14.5416 11.0636 14.2484 11.5827C14.0581 11.2781 13.8376 10.9942 13.5906 10.7356C13.1659 10.3698 12.9836 10.896 12.7135 11.0801C12.6246 10.9688 12.5757 10.8297 12.575 10.686C12.3796 9.44948 12.1811 8.21375 11.9795 6.97881C11.9333 6.69563 11.8479 6.42426 11.5179 6.3983C11.1878 6.37235 11.0955 6.62248 10.9985 6.87026C10.8485 7.21478 10.7077 7.57111 10.5738 7.94395C10.4792 8.20824 10.4076 8.35455 10.1122 8.08318C9.60671 7.61122 9.35513 7.69853 9.13123 8.35691C8.93273 8.94449 8.74346 9.53679 8.54496 10.1433C7.70248 9.48724 7.6794 9.4896 7.14622 10.3061C7.14622 10.3226 7.12314 10.3368 7.1139 10.3556C6.90386 10.8653 6.6038 10.896 6.22295 10.5303C6.16502 10.4794 6.10241 10.4343 6.03599 10.3957C5.44972 10.004 5.32508 10.0323 4.94654 10.6435C4.568 11.2547 4.18023 11.8871 3.79246 12.5077L3.67013 12.4794V4.28395C3.67013 3.92999 3.62166 3.56187 3.1808 3.57602C2.73994 3.59018 2.76995 3.94651 2.76995 4.26744C2.76995 8.16577 2.76995 12.0641 2.76995 15.9624C2.76995 16.4344 2.88536 16.7058 3.40931 16.7058C8.02563 16.7058 12.6419 16.7058 17.2583 16.7058C17.5976 16.7058 17.9069 16.6326 17.893 16.2173C17.8792 15.802 17.5514 15.7642 17.2236 15.7666C16.5312 15.7666 15.8387 15.7501 15.1463 15.7666C14.7839 15.7807 14.6847 15.6439 14.6985 15.2946C14.7218 14.9804 14.7218 14.6649 14.6985 14.3507C14.6754 14.0628 14.5208 13.8622 14.2138 13.8788C14.1567 13.8817 14.1009 13.8964 14.0495 13.9219C13.9981 13.9475 13.9523 13.9833 13.9148 14.0274C13.8773 14.0715 13.8489 14.1228 13.8313 14.1784C13.8136 14.2339 13.8071 14.2925 13.8122 14.3507C13.8122 14.6457 13.7891 14.9407 13.8122 15.2333C13.8376 15.5943 13.7452 15.7666 13.3505 15.743C12.7355 15.7073 12.119 15.7073 11.504 15.743C11.1001 15.7666 11.0262 15.5919 11.0424 15.2309C11.0609 14.3908 11.0424 13.5484 11.0424 12.706C11.0424 12.3544 11.0078 11.9815 10.56 11.998C10.1122 12.0145 10.133 12.3638 10.133 12.6918C10.133 13.5744 10.133 14.4569 10.133 15.3371C10.133 15.6391 10.043 15.7595 9.73597 15.7453C9.31589 15.7241 8.89349 15.7453 8.47341 15.7453C7.38627 15.7453 7.38627 15.7453 7.35626 14.6174C7.35856 14.5196 7.35393 14.4218 7.34241 14.3248C7.30086 14.0675 7.17161 13.874 6.89463 13.8788C6.61765 13.8835 6.48378 14.0888 6.44685 14.379C6.39145 14.8274 6.67766 15.4409 6.28297 15.684C5.94136 15.8916 5.38971 15.7383 4.93039 15.7453H4.64187C3.64012 15.7453 3.48779 15.5448 3.69783 14.5253C3.75417 14.3393 3.83994 14.1639 3.95173 14.0062C4.41336 13.2558 4.88653 12.5243 5.31123 11.7597C5.54205 11.3326 5.72439 11.2217 6.16063 11.552C6.99157 12.1797 7.03081 12.1609 7.5663 11.2972C7.79712 10.9243 7.94022 10.8465 8.25875 11.2075C8.70653 11.696 9.0089 11.5921 9.2351 10.9361C9.4336 10.3509 9.62518 9.75625 9.82599 9.16395C10.6662 9.78457 10.6662 9.78457 11.3194 8.692C11.5109 9.83412 11.6864 10.9078 11.8687 11.9815C11.9287 12.3355 11.8687 12.798 12.3303 12.8924C12.792 12.9868 12.8612 12.5243 13.069 12.2647C13.092 12.234 13.1128 12.201 13.1336 12.1679C13.249 11.9697 13.3644 11.9131 13.4983 12.1538C13.5352 12.2198 13.5837 12.2836 13.6252 12.3473C14.1584 13.1402 14.3684 13.1307 14.867 12.2883C15.1902 11.7856 15.5064 11.2571 15.8295 10.712ZM20.6974 13.8953C20.2773 13.8953 19.8549 13.8953 19.4349 13.8953C19.3588 13.8818 19.2807 13.887 19.2069 13.9103C19.1331 13.9336 19.0658 13.9744 19.0104 14.0294C18.9551 14.0844 18.9132 14.152 18.8883 14.2267C18.8634 14.3015 18.8561 14.3811 18.867 14.4593C18.867 15.0067 18.867 15.5542 18.867 16.1111C18.867 16.5217 19.0471 16.7246 19.4556 16.7223C20.2773 16.7223 21.099 16.7223 21.9207 16.7223C22.0024 16.7357 22.086 16.7293 22.1648 16.7036C22.2437 16.6779 22.3155 16.6337 22.3745 16.5745C22.4336 16.5152 22.4782 16.4427 22.5048 16.3626C22.5314 16.2825 22.5393 16.1972 22.5278 16.1135C22.5278 15.5849 22.5278 15.0586 22.5278 14.5301C22.5278 14.1006 22.3385 13.8788 21.8977 13.8929C21.5007 13.9071 21.099 13.8953 20.6974 13.8953ZM5.48665 7.30917H5.88827C6.20218 7.30917 6.41453 7.16051 6.40761 6.83722C6.40068 6.51393 6.20218 6.39358 5.91366 6.3865C5.62514 6.37943 5.38048 6.3865 5.11273 6.3865C4.84498 6.3865 4.63263 6.52809 4.6234 6.83958C4.61417 7.15107 4.79882 7.29501 5.08503 7.31153C5.22121 7.31389 5.35509 7.30681 5.48665 7.30917ZM8.27722 6.36527H7.93561C7.63324 6.36527 7.39319 6.4691 7.38627 6.81598C7.37473 7.19826 7.63093 7.30445 7.95638 7.29973C8.1872 7.29973 8.41801 7.29973 8.64883 7.29973C8.96274 7.29973 9.18201 7.15579 9.17278 6.82778C9.16355 6.49977 8.94197 6.36763 8.62806 6.36999C8.50572 6.37707 8.39262 6.37471 8.27722 6.37471V6.36527ZM21.1891 12.024H20.7897C20.4828 12.024 20.2589 12.1467 20.2612 12.4959C20.2635 12.8452 20.492 12.9679 20.7967 12.9679C21.0814 12.9797 21.3665 12.975 21.6507 12.9537C21.759 12.9399 21.8586 12.8861 21.9308 12.8024C22.003 12.7188 22.0429 12.6111 22.0429 12.4995C22.0429 12.3879 22.003 12.2802 21.9308 12.1965C21.8586 12.1129 21.759 12.0591 21.6507 12.0452C21.4974 12.0284 21.3432 12.0213 21.1891 12.024Z" fill="#F8F8F8"/>
<path d="M15.6399 7.75526C15.6417 7.32371 15.7268 6.89677 15.8902 6.49891C16.0537 6.10104 16.2924 5.74007 16.5926 5.43668C16.8928 5.13329 17.2486 4.89344 17.6396 4.73087C18.0306 4.56831 18.4492 4.48623 18.8713 4.48934C19.512 4.48939 20.1382 4.68413 20.6703 5.04884C21.2025 5.41355 21.6166 5.93176 21.8601 6.53763C22.1036 7.1435 22.1654 7.80968 22.0376 8.45154C21.9099 9.0934 21.5985 9.68196 21.1429 10.1425C20.6872 10.6029 20.108 10.9146 19.4788 11.0377C18.8495 11.1609 18.1986 11.0901 17.6089 10.8342C17.0191 10.5784 16.517 10.1491 16.1664 9.60085C15.8158 9.05262 15.6325 8.41022 15.6399 7.75526ZM18.5435 9.65959C18.7351 9.65959 18.9267 9.65959 19.1159 9.65959C19.2887 9.65781 19.4585 9.61468 19.612 9.53367C19.7655 9.45266 19.8983 9.33602 19.9997 9.1931C20.1011 9.05018 20.1684 8.88494 20.1961 8.71065C20.2238 8.53636 20.2112 8.35786 20.1592 8.18946C20.0775 7.91807 20.0775 7.62784 20.1592 7.35646C20.2028 7.20082 20.2128 7.03736 20.1884 6.8774C20.164 6.71745 20.1059 6.56483 20.018 6.43013C19.9302 6.29543 19.8148 6.18188 19.6797 6.09735C19.5447 6.01282 19.3933 5.95933 19.236 5.9406C18.806 5.89109 18.3724 5.88397 17.9411 5.91936C17.5533 5.94768 17.3156 6.3394 17.5602 6.55886C18.1396 7.07329 17.8765 7.69155 17.9411 8.26969C17.9665 8.48443 17.9596 8.68737 17.7103 8.80771C17.6623 8.83119 17.6194 8.86411 17.5839 8.90459C17.5484 8.94508 17.5211 8.99232 17.5035 9.04363C17.4859 9.09493 17.4784 9.14927 17.4814 9.20355C17.4844 9.25782 17.4979 9.31096 17.521 9.3599C17.558 9.46178 17.6283 9.54748 17.72 9.60251C17.8117 9.65754 17.9191 9.67854 18.0242 9.66195L18.5435 9.65959Z" fill="#F8F8F8"/>
<path d="M20.7017 15.7761C20.5479 15.7663 20.3938 15.7663 20.24 15.7761C19.8638 15.828 19.7576 15.6699 19.753 15.2899C19.7484 14.91 19.9146 14.7944 20.2585 14.818C20.4893 14.8369 20.7201 14.818 20.951 14.818C21.2533 14.8369 21.6434 14.6504 21.6434 15.2687C21.6434 15.887 21.2626 15.7407 20.9302 15.7595L20.7017 15.7761Z" fill="#F8F8F8"/>
<rect x="17.3906" y="5.88086" width="3.22046" height="3.86455" fill="#F8F8F8"/>
</g>
<defs>
<clipPath id="clip0_213_5738">
<rect width="25.7637" height="24.4755" fill="white" transform="translate(0 0.728027)"/>
</clipPath>
</defs>
</svg>
