<svg width="16" height="26" viewBox="0 0 16 26" fill="none" xmlns="http://www.w3.org/2000/svg">
<path d="M15.7926 18.5007C15.7926 20.1536 15.7926 21.8065 15.7926 23.4405C15.7926 23.8537 15.6875 23.96 15.2673 23.816C14.6589 23.6058 14.0335 23.4287 13.408 23.2705C12.978 23.1595 12.8363 23.0934 13.2003 22.6637C14.2483 21.4459 14.7928 19.8963 14.7287 18.3136C14.6647 16.7309 13.9966 15.2271 12.8534 14.0922C11.8581 13.0685 10.5321 12.4024 9.09327 12.2032C8.62906 12.1395 8.46048 11.9907 8.48002 11.509C8.524 10.5149 8.48002 10.5149 9.5184 10.5149C11.1187 10.5149 12.7215 10.5385 14.3242 10.5007C14.8691 10.4866 15.1109 10.6778 15.2844 11.1524C15.6105 12.0638 15.7757 13.0217 15.7731 13.986C15.7975 15.483 15.7926 17.0013 15.7926 18.5007Z" fill="#F8F8F8"/>
<path d="M0.212388 18.2903C0.212388 16.8026 0.212388 15.3127 0.212388 13.8227C0.204565 12.8422 0.396332 11.8698 0.776774 10.9609C0.812053 10.8197 0.899095 10.6958 1.02175 10.612C1.14441 10.5282 1.29436 10.4902 1.44377 10.5051C3.30877 10.524 5.17295 10.524 7.03632 10.5051C7.44189 10.5051 7.54695 10.6374 7.54695 11.0152C7.54695 12.0352 7.56161 12.0352 6.53546 12.2548C1.75406 13.2796 -0.288473 18.8192 2.7167 22.5571C3.1467 23.0907 3.1467 23.0907 2.47237 23.2891C1.93242 23.4496 1.37292 23.5701 0.852514 23.7779C0.266139 24.014 0.192842 23.8038 0.200172 23.2867C0.229491 21.622 0.212388 19.955 0.212388 18.2903Z" fill="#F8F8F8"/>
<path d="M7.98184 25.9977C6.05657 25.9977 4.13375 25.9977 2.20849 25.9977C1.88329 26.0063 1.56102 25.9362 1.27091 25.794C0.980792 25.6517 0.732002 25.4417 0.547098 25.1831C0.424936 25.0201 0.356526 24.8808 0.649713 24.8005C3.13203 24.1228 5.53617 23.1028 8.18951 23.1712C9.70756 23.2366 11.2078 23.5142 12.6435 23.9953C13.4889 24.2598 14.3367 24.5219 15.1942 24.7486C15.6267 24.8643 15.59 25.0248 15.3506 25.294C15.158 25.5223 14.9138 25.7048 14.6368 25.8276C14.3598 25.9504 14.0574 26.0102 13.7527 26.0024C11.8299 25.993 9.90465 25.9977 7.98184 25.9977Z" fill="#F8F8F8"/>
<path d="M7.90865 22.2431C5.63156 22.255 4.03125 20.7792 4.03125 18.654C4.03125 17.6558 4.44156 16.6984 5.17192 15.9926C5.90228 15.2867 6.89287 14.8901 7.92575 14.8901C8.95864 14.8901 9.94922 15.2867 10.6796 15.9926C11.4099 16.6984 11.8203 17.6558 11.8203 18.654C11.8276 20.7933 10.2688 22.229 7.90865 22.2431ZM6.63329 18.6776V19.7355C6.63329 19.9173 6.63329 20.0755 6.3743 20.1251C6.26412 20.1441 6.16614 20.2044 6.10165 20.2928C6.03715 20.3812 6.01134 20.4906 6.02981 20.5973C6.03411 20.6573 6.05075 20.7158 6.07876 20.7694C6.10677 20.823 6.14558 20.8707 6.19292 20.9096C6.24026 20.9486 6.29517 20.978 6.35443 20.9961C6.41369 21.0143 6.4761 21.0208 6.538 21.0153C6.59547 21.0044 6.65467 21.0055 6.71165 21.0186C6.76862 21.0317 6.82205 21.0564 6.86833 21.091C6.91461 21.1257 6.95269 21.1695 6.97999 21.2196C7.0073 21.2697 7.02321 21.3248 7.02665 21.3813C7.05166 21.4682 7.10803 21.5436 7.18555 21.5938C7.26307 21.644 7.35664 21.6658 7.44932 21.6552C7.55145 21.6607 7.65241 21.632 7.73519 21.5739C7.81797 21.5158 7.87751 21.432 7.90376 21.3364C7.9453 21.2184 7.90376 21.0295 8.11388 21.0483C8.28002 21.0625 8.24826 21.2136 8.28002 21.3199C8.30276 21.4295 8.36619 21.5273 8.45837 21.5949C8.55055 21.6624 8.6651 21.6951 8.78045 21.6866C8.8958 21.6782 9.00399 21.6293 9.08462 21.5491C9.16526 21.469 9.21277 21.3631 9.21822 21.2514C9.22212 21.1468 9.24949 21.0443 9.29842 20.9509C9.34735 20.8576 9.41669 20.7756 9.50163 20.7107C10.0929 20.2148 10.2077 19.6575 9.86812 18.9704C9.81472 18.881 9.78661 18.7796 9.78661 18.6764C9.78661 18.5732 9.81472 18.4718 9.86812 18.3825C10.0348 18.1082 10.0931 17.7848 10.032 17.4722C9.97086 17.1596 9.7946 16.879 9.53584 16.6823C9.44085 16.6135 9.36256 16.5254 9.30644 16.4242C9.25031 16.3231 9.2177 16.2113 9.21089 16.0967C9.2048 15.9875 9.15802 15.884 9.07918 15.8055C9.00034 15.7269 8.89477 15.6786 8.78194 15.6694C8.6691 15.6602 8.55664 15.6907 8.46528 15.7554C8.37393 15.82 8.30987 15.9144 8.28491 16.0212C8.24582 16.144 8.28491 16.3305 8.07479 16.314C7.91354 16.3022 7.94041 16.1463 7.91354 16.0377C7.8952 15.9402 7.84362 15.8514 7.76702 15.7855C7.69042 15.7196 7.5932 15.6804 7.49086 15.6741C7.39253 15.6587 7.29183 15.6796 7.20861 15.7325C7.12539 15.7854 7.0657 15.8665 7.0413 15.9598C6.97778 16.2904 6.78477 16.3518 6.48914 16.3352C6.38569 16.3299 6.28383 16.3616 6.20312 16.4243C6.1224 16.4871 6.06851 16.5765 6.0518 16.6753C6.01807 16.7676 6.02355 16.8692 6.06705 16.9577C6.11054 17.0462 6.1885 17.1144 6.2839 17.1475C6.65039 17.2538 6.65527 17.4993 6.64795 17.7851C6.64062 18.0708 6.63573 18.3848 6.63329 18.6776Z" fill="#F8F8F8"/>
<path d="M10.8379 22.5054C10.8379 22.3354 11.0016 22.2953 11.0993 22.2079C12.5506 20.9163 13.1223 19.3295 12.6239 17.4854C12.1353 15.6979 10.8966 14.5692 9.03238 14.0993C8.8247 14.0473 8.54373 14.0993 8.49975 13.7475C8.4289 13.1217 8.51441 13.0249 9.15454 13.15C10.1215 13.3351 11.0226 13.7583 11.7707 14.3786C12.5188 14.9988 13.0886 15.7952 13.425 16.6907C13.7614 17.5861 13.8529 18.5503 13.6907 19.49C13.5285 20.4296 13.1182 21.3129 12.4993 22.0544C11.8616 22.8289 11.8616 22.8289 10.8379 22.5054Z" fill="#F8F8F8"/>
<path d="M5.08654 22.4912C4.42442 22.8879 4.00663 22.6471 3.60105 22.1536C2.24751 20.5007 1.87125 18.6589 2.62376 16.6872C3.37628 14.7156 4.9204 13.5137 7.07777 13.1052C7.25612 13.0721 7.53709 12.9564 7.53221 13.2823C7.53221 13.5609 7.75943 13.9482 7.17061 14.0379C6.5261 14.1287 5.90806 14.3477 5.3555 14.6809C4.80294 15.0142 4.32785 15.4545 3.96021 15.9741C3.28014 16.9033 2.97594 18.0411 3.10515 19.1724C3.23436 20.3037 3.78802 21.35 4.66141 22.1134C4.78602 22.2339 4.92284 22.3472 5.08654 22.4912Z" fill="#F8F8F8"/>
<path d="M2.1084 2.34229C4.92055 2.5973 6.13972 3.18998 7.05349 5.68349C4.5785 5.74252 2.93177 5.05067 2.1084 2.34229Z" fill="#F8F8F8"/>
<path d="M13.8528 0C13.3935 2.22904 11.5 3.52066 8.92969 3.35301C9.8459 0.791027 11.1213 0.257379 13.8528 0Z" fill="#F8F8F8"/>
<path d="M3.96275 8.6543C4.99624 8.6543 6.02972 8.66846 7.06565 8.6543C7.44679 8.6543 7.55429 8.78889 7.55429 9.13836C7.55429 9.48783 7.45412 9.61061 7.06565 9.61061C5.01822 9.59645 2.9708 9.61061 0.920934 9.61061C0.57644 9.61061 0.236831 9.56103 0.234388 9.13836C0.231945 8.71569 0.578883 8.6661 0.920934 8.6661L3.96275 8.6543Z" fill="#F8F8F8"/>
<path d="M12.0643 8.65439C13.0758 8.65439 14.0898 8.65439 15.1013 8.65439C15.436 8.65439 15.7487 8.7205 15.7609 9.09594C15.7732 9.47139 15.4555 9.60362 15.1037 9.60362C13.0587 9.60362 11.0138 9.60362 8.96878 9.60362C8.57053 9.60362 8.50212 9.45013 8.49723 9.11483C8.49235 8.77953 8.59496 8.64258 8.97366 8.64258C9.99738 8.66855 11.0309 8.65439 12.0643 8.65439Z" fill="#F8F8F8"/>
<path d="M8.50702 5.46392C8.50702 6.12744 8.48747 6.79096 8.50702 7.45448C8.52656 7.85826 8.31156 7.88187 7.98661 7.88423C7.66166 7.88659 7.49796 7.83228 7.51262 7.47337C7.53217 6.12744 7.51262 4.78151 7.51262 3.43559C7.51262 3.11681 7.63967 2.87833 7.98172 2.8736C8.32377 2.86888 8.48258 3.10973 8.48747 3.4167C8.48747 4.09911 8.48747 4.78151 8.48747 5.46392H8.50702Z" fill="#F8F8F8"/>
<path d="M8.22609 19.1522C8.66098 19.1356 9.09099 19.1309 9.06656 19.6244C9.04213 20.1179 8.57791 20.0754 8.18944 20.0967C7.80097 20.1179 7.57619 20.04 7.57863 19.5654C7.57863 18.9892 7.98176 19.1852 8.22609 19.1522Z" fill="#F8F8F8"/>
<path d="M8.11857 17.2537C8.60721 17.2537 9.09586 17.1947 9.06409 17.7378C9.03233 18.2809 8.57545 18.21 8.18698 18.21C7.83271 18.21 7.57861 18.2242 7.57861 17.7378C7.57861 17.2513 7.81316 17.1876 8.11857 17.2537Z" fill="#F8F8F8"/>
</svg>
