<svg width="22" height="26" viewBox="0 0 22 26" fill="none" xmlns="http://www.w3.org/2000/svg">
<path d="M-0.106816 9.07812C0.555638 9.49858 1.19828 9.47609 1.83433 9.47609C6.25656 9.47609 10.6781 9.47609 15.0988 9.47609C17.3877 9.48958 19.0251 11.0725 19.1902 13.3658C19.2188 13.7818 19.1418 13.9707 18.673 13.9504C17.8147 13.9122 16.9541 13.9122 16.098 13.9504C14.4408 14.0246 13.1819 15.2163 13.0696 16.7654C12.953 18.4068 13.9412 19.8255 15.5038 20.111C16.5096 20.2954 17.5462 20.1807 18.5673 20.1605C19.0691 20.1605 19.2496 20.2887 19.2012 20.8103C19.1506 21.3657 19.2144 21.9345 19.1418 22.4854C19.0257 23.4489 18.57 24.3362 17.8599 24.9814C17.1498 25.6265 16.234 25.9853 15.2837 25.9906C11.4454 26.0011 7.60861 26.0011 3.77327 25.9906C2.7644 25.9859 1.79673 25.5812 1.07417 24.8619C0.351606 24.1426 -0.0694277 23.1648 -0.100214 22.1346C-0.124423 21.4601 -0.100214 20.7856 -0.113419 20.111C-0.113419 19.785 0.00102513 19.6996 0.302541 19.7041C1.34354 19.7198 2.38674 19.7243 3.42774 19.7041C3.77987 19.7041 3.86791 19.839 3.8503 20.1538C3.8327 20.4685 3.86571 20.8643 3.8503 21.2173C3.81729 21.7389 4.01316 21.9615 4.54577 21.9457C5.49653 21.9165 6.4473 21.9457 7.39586 21.9322C7.51844 21.9119 7.64412 21.9358 7.75133 21.9998C7.85855 22.0638 7.94063 22.1639 7.98349 22.283C8.14854 22.652 8.43384 22.9509 8.79068 23.1289C9.14752 23.3069 9.55376 23.3528 9.94004 23.2588C10.3164 23.1644 10.6517 22.9457 10.894 22.6368C11.1364 22.3278 11.2722 21.9458 11.2804 21.55C11.2849 21.1551 11.1603 20.7698 10.9263 20.4554C10.6923 20.141 10.3622 19.9153 9.98846 19.8143C9.59929 19.6953 9.18121 19.7238 8.81091 19.8943C8.4406 20.0649 8.14293 20.3662 7.97248 20.7428C7.9318 20.8528 7.85599 20.9454 7.75733 21.0058C7.65866 21.0662 7.54293 21.0908 7.42887 21.0756C6.67839 21.0621 5.9301 21.0486 5.18181 21.0756C4.77466 21.0936 4.68222 20.9272 4.70863 20.5562C4.73504 20.1852 4.70863 19.848 4.70863 19.4927C4.70863 19.0206 4.48855 18.8182 4.03517 18.8182C2.8115 18.8182 1.58783 18.8182 0.364165 18.8182C0.0406404 18.8182 -0.133226 18.7755 -0.128825 18.3685C-0.124423 17.9616 0.00102517 17.9009 0.348759 17.9009C2.70513 17.9143 5.06223 17.9143 7.42007 17.9009C7.53424 17.8872 7.64958 17.9133 7.74743 17.9749C7.84529 18.0365 7.91993 18.13 7.95928 18.2404C8.13002 18.617 8.42549 18.9198 8.79355 19.0955C9.1616 19.2711 9.57857 19.3083 9.97085 19.2004C10.3285 19.0926 10.6429 18.8702 10.8675 18.5661C11.0922 18.262 11.2153 17.8922 11.2188 17.5112C11.2222 17.1302 11.1058 16.7581 10.8867 16.4498C10.6676 16.1415 10.3573 15.9132 10.0017 15.7986C9.61284 15.6777 9.19445 15.7037 8.82277 15.8716C8.45109 16.0396 8.15089 16.3385 7.97688 16.7137C7.92984 16.8312 7.84538 16.9291 7.73716 16.9915C7.62893 17.054 7.50326 17.0773 7.38046 17.0577C5.04316 17.0577 2.7044 17.0577 0.364165 17.0577C0.0406404 17.0577 -0.128825 17.0105 -0.126624 16.608C-0.124423 16.2056 0.0076277 16.1381 0.355361 16.1426C1.57903 16.1583 2.8027 16.1426 4.02637 16.1561C4.52816 16.1561 4.72624 15.9582 4.71303 15.4613C4.69983 14.9644 4.73064 14.49 4.71303 14.0066C4.68882 13.6042 4.79667 13.4378 5.22583 13.4603C5.9367 13.4962 6.64978 13.4805 7.36285 13.4603C7.49404 13.4392 7.62833 13.4651 7.74301 13.5335C7.85769 13.6019 7.94574 13.7087 7.99229 13.8357C8.16523 14.2016 8.45773 14.4943 8.81933 14.6634C9.18093 14.8325 9.58896 14.8674 9.97305 14.7621C10.3381 14.6606 10.6608 14.4403 10.8923 14.1347C11.1239 13.8291 11.2517 13.4547 11.2564 13.0683C11.2612 12.6818 11.1425 12.3043 10.9185 11.9929C10.6945 11.6815 10.3773 11.4531 10.0149 11.3423C9.62686 11.2222 9.20974 11.2467 8.83776 11.4114C8.46578 11.5761 8.16306 11.8703 7.98349 12.2416C7.93824 12.3603 7.8553 12.4601 7.74795 12.5249C7.64061 12.5897 7.51507 12.6159 7.39146 12.5991C6.4407 12.5991 5.48993 12.6104 4.54137 12.5991C4.02197 12.5991 3.81069 12.797 3.8415 13.3299C3.87231 13.8627 3.8415 14.3371 3.8415 14.8408C3.8525 15.1398 3.77767 15.2905 3.44975 15.277C2.39114 15.2612 1.33034 15.277 0.271729 15.277C0.0516445 15.277 -0.120021 15.277 -0.120021 14.9644C-0.102415 13.0376 -0.106816 11.1174 -0.106816 9.07812Z" fill="#F8F8F8"/>
<path d="M18.3646 14.8545C19.586 14.7308 20.5962 14.9556 21.5866 14.6903C21.8199 14.6296 21.8067 14.8095 21.8067 14.9579C21.8067 15.8572 21.8419 16.7566 21.7803 17.6425C21.7715 17.8674 21.7194 18.0884 21.6268 18.2927C21.5343 18.4971 21.4032 18.6807 21.2411 18.8332C21.079 18.9857 20.889 19.104 20.682 19.1813C20.475 19.2586 20.2552 19.2935 20.035 19.2838C18.7145 19.2973 17.3999 19.2973 16.0911 19.2838C15.5469 19.2925 15.0199 19.0894 14.6169 18.7157C14.2139 18.342 13.9651 17.8257 13.9211 17.2715C13.8264 16.0416 14.5813 15.0029 15.794 14.8724C16.6499 14.8184 17.508 14.8124 18.3646 14.8545ZM16.1043 18.0404C16.2922 18.0417 16.4762 17.9863 16.6334 17.8812C16.7906 17.7761 16.914 17.626 16.9881 17.4497C17.0622 17.2733 17.0838 17.0785 17.0501 16.8897C17.0164 16.7009 16.929 16.5264 16.7987 16.3881C16.6685 16.2498 16.5012 16.1538 16.3178 16.1121C16.1345 16.0705 15.9431 16.085 15.7678 16.1538C15.5924 16.2226 15.4408 16.3428 15.332 16.4992C15.2231 16.6556 15.1618 16.8413 15.1557 17.0332C15.1494 17.1639 15.1694 17.2946 15.2143 17.4172C15.2593 17.5398 15.3283 17.6517 15.4171 17.7461C15.506 17.8404 15.6128 17.9152 15.7309 17.9658C15.8491 18.0164 15.9762 18.0418 16.1043 18.0404Z" fill="#F8F8F8"/>
<path d="M6.31507 8.59946C6.04183 8.57806 5.76739 8.57806 5.49416 8.59946C4.94835 8.68714 4.80969 8.38811 4.75027 7.92493C4.42455 5.36175 6.18522 3.02342 8.60835 2.79857C11.2164 2.57373 13.3446 4.44441 13.4832 7.09752C13.5536 8.44657 13.4106 8.56798 12.1297 8.6062C11.5729 8.62194 11.3 8.55674 11.1547 7.88222C11.0491 7.39656 10.9809 7.05031 11.1877 6.57814C11.4672 5.94184 11.1723 5.21561 10.5803 4.82663C10.3602 4.68723 10.2062 4.57706 10.215 4.28027C10.2094 4.17422 10.1658 4.07397 10.0924 3.99871C10.0191 3.92344 9.92115 3.87845 9.81737 3.87233C9.71358 3.8662 9.61122 3.89938 9.52988 3.96552C9.44853 4.03166 9.3939 4.12611 9.37644 4.23081C9.35003 4.43316 9.33463 4.59055 9.06833 4.57706C8.80202 4.56357 8.82403 4.41743 8.80863 4.24205C8.80293 4.13728 8.75741 4.03893 8.68177 3.96795C8.60613 3.89697 8.50634 3.85898 8.40367 3.86207C8.35294 3.85584 8.30151 3.86011 8.25243 3.87462C8.20335 3.88913 8.15763 3.91358 8.118 3.94652C8.07836 3.97946 8.04562 4.02021 8.02173 4.06635C7.99783 4.11249 7.98327 4.16306 7.97891 4.21507C7.9591 4.56357 7.77643 4.59505 7.51013 4.57706C7.24383 4.55907 6.94011 4.61753 6.93131 4.99976C6.93131 5.33702 7.15139 5.46068 7.4375 5.44944C7.72361 5.4382 7.80064 5.59559 7.80064 5.8654C7.80064 6.64784 7.78744 7.43928 7.80064 8.21498C7.80064 8.51177 7.695 8.61295 7.41549 8.60171C7.04575 8.58597 6.68041 8.59946 6.31507 8.59946Z" fill="#F8F8F8"/>
<path d="M2.94141 7.21641C2.94374 5.55031 3.59384 3.9534 4.74868 2.77697C5.90352 1.60055 7.46851 0.940981 9.09937 0.943366C10.7302 0.945751 12.2934 1.60989 13.4449 2.78969C14.5964 3.96949 15.2421 5.5683 15.2397 7.2344C15.2397 7.55142 15.1847 7.8662 15.1693 8.18323C15.1539 8.50025 15.0328 8.59918 14.7291 8.60817C14.3418 8.62166 14.2075 8.56995 14.2714 8.10003C14.6631 5.17711 12.9288 2.60494 10.2306 2.02934C8.93572 1.73453 7.57959 1.95136 6.43479 2.63623C5.28998 3.32111 4.44134 4.42328 4.05944 5.72122C3.84545 6.51522 3.79598 7.3461 3.91418 8.16074C3.93399 8.32038 4.10565 8.5722 3.77993 8.57445C3.52683 8.57445 3.14608 8.77231 3.05805 8.31813C3.00064 7.95318 2.96171 7.58546 2.94141 7.21641Z" fill="#F8F8F8"/>
<path d="M19.1769 10.632C18.3317 9.59998 17.4162 8.94345 16.2343 8.70287C16.0142 8.6579 15.9988 8.52524 16.0253 8.32963C16.121 7.6451 16.121 6.95013 16.0253 6.2656C15.9746 5.92159 16.1485 5.89461 16.4016 5.92384C16.9519 5.9697 17.4788 6.17107 17.9234 6.50541C18.3681 6.83975 18.7129 7.29388 18.9194 7.817C19.3045 8.68038 19.1857 9.59099 19.1769 10.632Z" fill="#F8F8F8"/>
<path d="M1.4776 5.91016C2.15546 5.91016 2.13785 5.91016 2.12025 6.60716C2.10484 7.14678 2.13125 7.68415 2.14005 8.22376C2.14005 8.36092 2.23909 8.50706 2.02781 8.5925C0.951598 9.02644 -0.241259 8.15181 -0.0894011 7.03211C0.00963687 6.29913 0.537839 5.91465 1.4776 5.91016Z" fill="#F8F8F8"/>
<path d="M20.0529 13.0239C20.1343 12.6754 19.791 12.0661 20.6295 12.1245C21.38 12.183 21.8246 12.4775 21.8136 13.0509C21.8026 13.6242 21.3866 13.8693 20.6559 13.9367C19.8504 14.0199 20.0925 13.4623 20.0529 13.0239Z" fill="#F8F8F8"/>
<path d="M9.54825 20.626C9.77606 20.6392 9.99087 20.7387 10.1508 20.905C10.3107 21.0712 10.4042 21.2924 10.4132 21.5253C10.4113 21.646 10.3856 21.765 10.3377 21.8753C10.2898 21.9856 10.2207 22.085 10.1344 22.1674C10.0482 22.2499 9.94659 22.3138 9.83567 22.3553C9.72476 22.3967 9.6068 22.415 9.48883 22.409C9.3755 22.4049 9.2641 22.3779 9.16111 22.3294C9.05813 22.2809 8.96562 22.212 8.889 22.1266C8.81238 22.0412 8.75317 21.9411 8.71484 21.8321C8.6765 21.723 8.6598 21.6073 8.66571 21.4916C8.67427 21.2586 8.77109 21.0381 8.93574 20.8766C9.10039 20.7151 9.32 20.6252 9.54825 20.626Z" fill="#F8F8F8"/>
<path d="M10.4153 13.0512C10.409 13.2854 10.3134 13.5079 10.149 13.6712C9.98459 13.8346 9.76427 13.9259 9.53492 13.9259C9.4198 13.9275 9.30555 13.9051 9.19913 13.8602C9.09271 13.8154 8.99633 13.7488 8.91585 13.6647C8.83537 13.5806 8.77247 13.4807 8.73096 13.3709C8.68945 13.2612 8.6702 13.144 8.67439 13.0265C8.67786 12.7903 8.77214 12.565 8.93686 12.3993C9.10158 12.2335 9.32352 12.1406 9.55473 12.1406C9.78429 12.1531 10.0007 12.254 10.1604 12.4229C10.3201 12.5919 10.4111 12.8164 10.4153 13.0512Z" fill="#F8F8F8"/>
<path d="M10.4154 17.5098C10.4108 17.7452 10.316 17.9694 10.1514 18.1342C9.98678 18.299 9.76549 18.3912 9.53503 18.3912C9.42157 18.3957 9.30837 18.3769 9.20216 18.3358C9.09596 18.2948 8.99891 18.2324 8.91679 18.1522C8.83467 18.0721 8.76916 17.9759 8.72413 17.8695C8.6791 17.763 8.65549 17.6483 8.65469 17.5323C8.65116 17.4119 8.67131 17.2921 8.71397 17.1798C8.75663 17.0676 8.82091 16.9652 8.90301 16.8788C8.98511 16.7924 9.08336 16.7238 9.19193 16.6769C9.30049 16.63 9.41717 16.6059 9.53503 16.606C9.76595 16.6165 9.98458 16.7152 10.1476 16.8826C10.3107 17.05 10.4062 17.2739 10.4154 17.5098Z" fill="#F8F8F8"/>
<path d="M9.39401 5.47421C9.53927 5.47421 9.68673 5.47421 9.83418 5.47421C9.98282 5.48147 10.1233 5.54566 10.2277 5.65399C10.3321 5.76232 10.3928 5.90684 10.3976 6.05879C10.4221 6.20925 10.3905 6.36363 10.309 6.49143C10.2275 6.61923 10.1021 6.71116 9.95743 6.74905C9.60309 6.87047 9.23335 6.79627 8.87241 6.80301C8.73816 6.80301 8.67434 6.71982 8.66553 6.59391C8.65673 6.468 8.66553 6.3331 8.66553 6.20269C8.65453 5.46072 8.65453 5.46072 9.39401 5.47421Z" fill="#F8F8F8"/>
<path d="M9.54845 8.59937C9.40186 8.59029 9.25487 8.59029 9.10828 8.59937C8.74074 8.64659 8.6505 8.47346 8.6461 8.12046C8.6417 7.76746 8.77595 7.67078 9.08627 7.69102C9.32176 7.71125 9.56165 7.69102 9.79714 7.70451C9.87569 7.70355 9.95362 7.71888 10.0262 7.74956C10.0988 7.78024 10.1645 7.82564 10.2195 7.88301C10.2744 7.94039 10.3174 8.00854 10.3458 8.08337C10.3742 8.15819 10.3875 8.23812 10.3848 8.31832C10.3848 8.768 10.0216 8.54316 9.80815 8.59263C9.72205 8.60422 9.635 8.60648 9.54845 8.59937Z" fill="#F8F8F8"/>
</svg>
