<svg width="25" height="25" viewBox="0 0 25 25" fill="none" xmlns="http://www.w3.org/2000/svg">
<path d="M4.35492 20.1914C3.96704 20.2056 3.58264 20.1128 3.24284 19.9229C2.90304 19.733 2.62061 19.4531 2.42574 19.1133C1.69845 17.8749 0.967288 16.6327 0.286289 15.369C0.00196218 14.8511 -0.0683578 14.2404 0.090693 13.6702C0.249744 13.1 0.625235 12.6167 1.13513 12.3259C2.20775 11.6755 3.30352 11.0661 4.37807 10.4235C4.76391 10.195 4.98962 10.3005 5.19604 10.6677C5.98314 12.0583 6.77989 13.4451 7.57471 14.8338C7.64226 14.963 7.72102 15.0859 7.81007 15.201C7.87028 15.2794 7.95871 15.3304 8.05599 15.3428C8.15327 15.3553 8.25145 15.3282 8.32902 15.2674C8.40758 15.2232 8.46649 15.1502 8.49373 15.0634C8.52098 14.9767 8.51451 14.8827 8.47564 14.8006C8.42029 14.6661 8.35583 14.5355 8.28272 14.41C7.49755 13.0427 6.72202 11.6521 5.91755 10.2868C5.67255 9.87075 5.70148 9.60511 6.11047 9.31018C8.77457 7.41006 11.0487 5.00409 12.8066 2.22594C13.6227 0.948548 15.1332 0.9798 15.8837 2.28844C17.746 5.52684 19.598 8.76915 21.4397 12.0154C22.1863 13.3299 21.4532 14.66 19.9581 14.7498C15.8219 14.9745 11.9424 16.037 8.37532 18.207C7.45703 18.7715 6.51753 19.293 5.59731 19.836C5.22648 20.075 4.79449 20.1986 4.35492 20.1914Z" fill="white"/>
<path d="M11.5163 23.1368C11.5375 23.9357 10.951 24.2502 10.3742 24.5959C9.79738 24.9416 9.26107 25.1818 8.62251 24.8185C8.40392 24.6842 8.22528 24.4926 8.10549 24.2638C7.4978 23.1974 6.89397 22.129 6.2747 21.0704C6.06828 20.7168 6.12037 20.4707 6.46762 20.2695C7.21807 19.8379 7.97045 19.4062 8.71125 18.959C9.07394 18.7402 9.29001 18.8437 9.4945 19.1894C10.1041 20.2715 10.7189 21.3516 11.3388 22.4298C11.4636 22.6434 11.5252 22.8888 11.5163 23.1368Z" fill="white"/>
<path d="M20.8495 7.38639C20.8495 7.45085 20.8495 7.59734 20.8263 7.73992C20.8255 7.83119 20.7941 7.91947 20.7373 7.99039C20.6806 8.06132 20.6018 8.11072 20.5138 8.13056C20.4287 8.15741 20.337 8.15361 20.2544 8.11978C20.1718 8.08595 20.1032 8.0242 20.0605 7.945C19.6013 7.15005 19.1499 6.35315 18.6946 5.55625C18.6458 5.48135 18.624 5.39173 18.6328 5.30245C18.6415 5.21317 18.6804 5.12968 18.7428 5.06599C18.8073 4.99372 18.8938 4.94541 18.9886 4.92877C19.0834 4.91213 19.1809 4.92812 19.2656 4.97419C20.1511 5.29452 20.8379 6.27112 20.8495 7.38639Z" fill="white"/>
<path d="M24.0073 4.3181C23.9919 4.68726 22.6318 5.46853 22.3405 5.2615C22.08 5.0779 22.055 4.79273 22.3 4.60913C22.6631 4.34506 23.0508 4.11741 23.4575 3.92942C23.519 3.89981 23.5872 3.88723 23.6551 3.89295C23.7229 3.89866 23.7881 3.92247 23.844 3.96195C23.8998 4.00144 23.9444 4.05519 23.973 4.11774C24.0017 4.1803 24.0135 4.24943 24.0073 4.3181Z" fill="white"/>
<path d="M24.1039 9.37269C23.8125 9.28675 23.4383 9.1969 23.0814 9.06603C23.035 9.05034 22.9924 9.02508 22.9562 8.99184C22.92 8.95861 22.891 8.91813 22.8711 8.87296C22.8511 8.8278 22.8407 8.77893 22.8403 8.72946C22.84 8.67998 22.8498 8.63098 22.8692 8.58555C22.8797 8.53745 22.8994 8.49192 22.9273 8.45155C22.9552 8.41119 22.9907 8.37678 23.0317 8.3503C23.0727 8.32382 23.1185 8.30578 23.1664 8.29722C23.2143 8.28865 23.2635 8.28973 23.311 8.30038C23.6689 8.37789 24.0225 8.47504 24.3701 8.59141C24.4164 8.60577 24.4595 8.62944 24.4966 8.66101C24.5337 8.69258 24.5642 8.73141 24.5861 8.77516C24.6081 8.81892 24.6211 8.86671 24.6244 8.91568C24.6278 8.96465 24.6213 9.01379 24.6054 9.06017C24.5572 9.28284 24.4029 9.37659 24.1039 9.37269Z" fill="white"/>
<path d="M20.3151 1.50148C20.2225 1.83548 20.1396 2.19877 20.018 2.54644C20.003 2.59322 19.9789 2.63652 19.9473 2.67385C19.9156 2.71118 19.877 2.74179 19.8336 2.76394C19.7902 2.78609 19.7429 2.79933 19.6944 2.8029C19.646 2.80647 19.5973 2.80029 19.5512 2.78473C19.503 2.77787 19.4568 2.76094 19.4154 2.73502C19.374 2.7091 19.3384 2.67476 19.3108 2.63417C19.2833 2.59358 19.2643 2.54764 19.2552 2.49925C19.2461 2.45086 19.247 2.40108 19.2579 2.35308C19.3318 1.9749 19.4311 1.60228 19.555 1.2378C19.5698 1.19083 19.5942 1.14755 19.6266 1.11079C19.6591 1.07404 19.6988 1.04465 19.7433 1.02454C19.7877 1.00444 19.8359 0.994079 19.8846 0.994141C19.9332 0.994203 19.9814 1.00469 20.0258 1.0249C20.1209 1.05827 20.2018 1.12398 20.2545 1.21086C20.3073 1.29773 20.3287 1.40043 20.3151 1.50148Z" fill="white"/>
</svg>
