<svg width="25" height="25" viewBox="0 0 25 25" fill="none" xmlns="http://www.w3.org/2000/svg">
<path d="M14.7096 15.1686C17.0772 13.0218 17.444 10.3168 17.3998 7.47954C17.3867 7.23397 17.317 6.9947 17.196 6.78032C17.075 6.56595 16.9059 6.38224 16.7019 6.24349C15.2261 5.0746 13.5121 4.80599 11.699 4.95708C10.4855 5.03334 9.32227 5.46726 8.35734 6.20362C8.11029 6.38437 7.91127 6.62239 7.77754 6.89702C7.64381 7.17166 7.57941 7.47462 7.58992 7.77963C7.57458 8.93068 7.69559 10.0795 7.95044 11.2024C8.31517 12.7196 9.00247 14.0606 10.3307 15.1686H6.6412C5.27925 15.1686 4.76061 15.7982 4.99041 17.114C5.32141 19.0362 5.63555 20.9606 5.95811 22.885C5.98341 23.034 6.06563 23.1977 5.86746 23.3047C5.37201 23.5544 5.32774 23.9993 5.3699 24.4694C5.40574 24.8555 5.30876 25.0234 4.86391 25.0087C3.88567 24.973 2.90321 25.0087 1.92286 24.9961C0.447065 24.9835 -0.383598 23.7622 0.175097 22.4128C0.970621 20.4933 1.77669 18.5809 2.5933 16.6754C3.19056 15.2644 4.25428 14.099 5.60814 13.3723C6.24062 13.0134 6.2617 12.94 5.93703 12.2621C5.32031 11.0327 5.18577 9.61869 5.55965 8.29587C5.92649 6.96959 6.28911 5.64121 6.69179 4.32752C7.06038 3.0796 7.82467 1.98387 8.8705 1.20398C9.91633 0.424091 11.1876 0.00190852 12.4943 0.000491858C13.8011 -0.000924803 15.0732 0.418501 16.1208 1.19612C17.1683 1.97374 17.935 3.06781 18.3063 4.31493C18.7617 5.81329 19.2466 7.30746 19.5713 8.8415C19.8131 10.0335 19.6202 11.2723 19.0273 12.3356C18.7912 12.7826 18.8165 13.0617 19.2909 13.3051C20.8974 14.1445 21.9536 15.4561 22.622 17.1245C23.3135 18.8558 24.0682 20.5619 24.7914 22.2785C25.4239 23.7811 24.6101 24.9856 22.9656 24.9877C22.019 24.9877 21.0682 24.973 20.1279 24.9877C19.7695 24.9877 19.6177 24.9059 19.6535 24.526C19.6999 24.0245 19.6535 23.546 19.1264 23.2669C18.9409 23.1683 19.0337 22.9836 19.059 22.8472C19.378 20.9067 19.7013 18.9663 20.0288 17.0258C20.2396 15.836 19.6957 15.1728 18.4897 15.1686C17.2838 15.1644 16.0483 15.1686 14.7096 15.1686Z" fill="white"/>
<path d="M12.494 16.0688C14.4913 16.0688 16.4871 16.0688 18.4815 16.0688C19.1478 16.0688 19.2595 16.1948 19.1541 16.8411C18.8357 18.7823 18.5089 20.7234 18.1927 22.6646C18.1903 22.7427 18.1716 22.8196 18.1378 22.8902C18.1041 22.9607 18.0559 23.0236 17.9964 23.0747C17.937 23.1258 17.8675 23.164 17.7924 23.187C17.7173 23.21 17.6382 23.2172 17.5602 23.2081C14.1996 23.2081 10.8383 23.2081 7.47631 23.2081C7.07152 23.2081 6.87966 23.0381 6.81431 22.6373C6.49385 20.6605 6.15231 18.6878 5.82552 16.711C5.74752 16.2451 5.91829 16.0814 6.45801 16.0814C8.4672 16.0667 10.4806 16.0709 12.494 16.0688ZM14.5644 19.7266C14.5549 19.654 14.5343 19.5832 14.5032 19.5168C13.9993 18.7445 13.5144 17.9617 12.9747 17.2084C12.7006 16.8306 12.222 16.9062 11.9206 17.3364C11.4694 17.9953 11.0435 18.6731 10.5945 19.3342C10.487 19.4729 10.4332 19.6454 10.4429 19.8203C10.4525 19.9952 10.5251 20.1608 10.6472 20.2869C11.0688 20.8326 11.4905 21.395 11.9248 21.9385C12.3127 22.4233 12.6901 22.4212 13.0759 21.9385C13.4976 21.3929 13.9192 20.8347 14.3409 20.2848C14.4803 20.1315 14.5597 19.9334 14.5644 19.7266Z" fill="white"/>
<path d="M12.2767 5.81107C13.801 5.81107 14.9732 6.07129 16.0126 6.81837C16.2067 6.93744 16.3586 7.1139 16.447 7.3231C16.5355 7.53229 16.5561 7.76376 16.5059 7.98516C16.4743 8.35162 16.3495 8.70404 16.1433 9.00925C15.2498 10.1196 13.9908 10.88 12.5887 11.1561C12.3258 11.1825 12.0608 11.1353 11.8234 11.0197C10.8643 10.6825 9.98521 10.1525 9.24077 9.46254C9.13221 9.37437 9.03768 9.27037 8.96037 9.15405C8.24566 7.87814 8.22247 7.17512 9.46847 6.50569C10.3324 6.04657 11.2973 5.80791 12.2767 5.81107Z" fill="white"/>
<path d="M12.5024 24.9875C10.5776 24.9875 8.6527 24.9875 6.72574 24.9875C6.39895 24.9875 6.22186 24.9539 6.21975 24.5489C6.21764 24.1439 6.36733 24.06 6.74049 24.062C10.5733 24.0746 14.4062 24.0746 18.2391 24.062C18.5996 24.062 18.7703 24.1166 18.7767 24.5384C18.7767 24.9938 18.5532 24.9875 18.2264 24.9854C16.3184 24.9833 14.4104 24.9875 12.5024 24.9875Z" fill="white"/>
<path d="M12.5127 15.1684C12.0058 15.0777 11.5242 14.8802 11.1001 14.5892C10.3728 14.1013 9.79037 13.428 9.41352 12.6397C9.35448 12.52 9.07408 12.327 9.43249 12.2011C9.68759 12.1108 9.85415 12.1066 9.98064 12.4361C10.4866 13.775 11.6293 14.4507 12.9765 14.2199C13.4469 14.1503 13.888 13.9502 14.2494 13.6425C14.6107 13.3348 14.8776 12.932 15.0194 12.4802C15.1248 12.1927 15.2303 12.0793 15.536 12.178C15.7299 12.2409 15.7932 12.2913 15.6941 12.4928C15.0848 13.7288 14.2183 14.6794 12.8521 15.0929C12.7341 15.1264 12.6118 15.1474 12.5127 15.1684Z" fill="white"/>
<path d="M10.7801 11.6011C11.1279 11.7123 11.4758 11.8256 11.8237 11.9305C12.5742 12.1719 13.2826 11.962 13.9657 11.6787C14.1343 11.6116 14.3051 11.494 14.2861 11.8319C14.2419 12.6965 13.3163 13.4457 12.3613 13.3827C11.4062 13.3198 10.681 12.4909 10.7801 11.6011Z" fill="white"/>
<path d="M8.7011 10.2095C9.0342 10.455 9.35677 10.6816 9.6688 10.9209C9.86698 11.072 9.85433 11.1937 9.59922 11.2734C9.00258 11.4623 8.87608 11.4014 8.75591 10.7908C8.68014 10.6067 8.66106 10.4044 8.7011 10.2095Z" fill="white"/>
<path d="M16.2952 10.2178C16.3627 10.5745 16.2256 10.8473 16.1729 11.1369C16.1476 11.2838 16.0696 11.4097 15.8862 11.3468C15.6606 11.2629 15.3676 11.3762 15.2052 11.1369C15.1399 11.0446 15.2811 10.9607 15.3634 10.8998C15.6543 10.6857 15.9495 10.4717 16.2952 10.2178Z" fill="white"/>
<path d="M12.5381 18.1715C12.6625 18.1862 13.6344 19.7433 13.5501 19.8503C13.2465 20.27 12.9176 20.6898 12.5992 21.0969C12.536 21.1745 12.4453 21.1556 12.3884 21.0675C12.3589 21.0234 12.323 20.9857 12.2914 20.9437C12.0047 20.5513 11.4734 20.1525 11.4861 19.7706C11.5071 19.2208 12.0595 18.7717 12.3715 18.2701C12.3989 18.2261 12.439 18.1526 12.5381 18.1715Z" fill="white"/>
</svg>
