<svg width="26" height="24" viewBox="0 0 26 24" fill="none" xmlns="http://www.w3.org/2000/svg">
<g clip-path="url(#clip0_213_5879)">
<path d="M0.748046 8.49921C0.888278 8.49921 1.02664 8.49921 1.16687 8.49921H22.6878C22.8755 8.5073 23.0634 8.49588 23.2488 8.46515C23.38 8.43987 23.5005 8.37502 23.5946 8.27911C23.6887 8.18321 23.752 8.06073 23.776 7.92778C23.8056 7.80484 23.7995 7.67585 23.7584 7.55634C23.7172 7.43684 23.6429 7.33191 23.5442 7.25418C23.4496 7.17314 23.3476 7.10154 23.2394 7.04037C19.6869 4.76979 16.1175 2.51057 12.5706 0.228635C12.0751 -0.0892462 11.6918 -0.0684326 11.2187 0.24188C8.35798 2.08105 5.48976 3.89751 2.62716 5.72154L0.374094 7.1539C0.227962 7.23093 0.113998 7.35847 0.0529221 7.51334C-0.00815379 7.6682 -0.0122862 7.84011 0.0412763 7.99779C0.0857771 8.14989 0.179866 8.28224 0.30821 8.3733C0.436554 8.46435 0.591587 8.50873 0.748046 8.49921ZM11.9124 2.82277C12.4606 2.82776 12.9845 3.05203 13.3699 3.44659C13.7552 3.84116 13.9706 4.37398 13.9691 4.92873C13.9747 5.21007 13.9245 5.4897 13.8215 5.75106C13.7184 6.01242 13.5646 6.2502 13.3691 6.45034C13.1736 6.65047 12.9405 6.80889 12.6834 6.91623C12.4264 7.02356 12.1507 7.07762 11.8726 7.07522C11.5946 7.07281 11.3198 7.01399 11.0646 6.90222C10.8094 6.79046 10.5789 6.62803 10.3869 6.42454C10.1948 6.22105 10.045 5.98064 9.94639 5.71754C9.84776 5.45444 9.80228 5.17398 9.81265 4.89278C9.81457 4.61686 9.87068 4.34409 9.97772 4.09032C10.0848 3.83655 10.2406 3.60685 10.4362 3.41458C10.6317 3.22231 10.8631 3.07131 11.1169 2.97036C11.3706 2.86941 11.6417 2.82053 11.9143 2.82655L11.9124 2.82277Z" fill="#F8F8F8"/>
<path d="M13.2304 21.1714H2.49047C2.35099 21.1629 2.21113 21.1629 2.07164 21.1714C1.68273 21.215 1.38357 21.4382 1.40788 21.828C1.4434 22.4335 1.24147 22.6341 0.643146 22.6C0.551733 22.599 0.461173 22.6179 0.377536 22.6552C0.293899 22.6926 0.219119 22.7476 0.158209 22.8166C0.0972988 22.8855 0.0516664 22.9669 0.0243712 23.0552C-0.00292402 23.1435 -0.0112513 23.2367 -5.23194e-05 23.3285C0.0072536 23.5113 0.0855993 23.6839 0.21795 23.8086C0.3503 23.9333 0.525954 24.0002 0.706718 23.9945C0.84508 23.9945 0.985312 23.9945 1.12554 23.9945H15.6255C14.5919 23.2874 13.7647 22.3124 13.2304 21.1714Z" fill="#F8F8F8"/>
<path d="M22.4071 11.7991C22.4071 11.3412 22.3866 10.8814 22.4184 10.4254C22.4464 10.0205 22.338 9.89559 21.9135 9.89748C18.5779 9.9164 15.2403 9.90883 11.9028 9.90883H10.9679C7.92397 9.90883 4.88186 9.90883 1.83976 9.90883C1.48264 9.90883 1.33867 9.99398 1.36858 10.3762C1.40037 10.7963 1.36858 11.222 1.36858 11.6458C1.36858 12.5503 1.55556 12.7433 2.47174 12.7433H15.1113C16.117 11.9098 17.334 11.3792 18.6233 11.2119C19.9126 11.0446 21.2225 11.2474 22.4034 11.7972L22.4071 11.7991Z" fill="#F8F8F8"/>
<path d="M3.12419 19.786C3.82161 19.7747 4.51903 19.7671 5.21645 19.786C5.53431 19.786 5.64837 19.7047 5.63902 19.3679C5.61658 18.5694 5.63902 17.769 5.63902 16.9686C5.63902 16.1683 5.62967 15.3395 5.63902 14.524C5.63902 14.2572 5.59788 14.1228 5.28937 14.1323C4.56204 14.1512 3.83283 14.1437 3.10549 14.1323C2.87551 14.1323 2.7708 14.1966 2.77267 14.4521C2.78015 16.1134 2.78015 17.7747 2.77267 19.436C2.76706 19.7141 2.87177 19.7898 3.12419 19.786Z" fill="#F8F8F8"/>
<path d="M13.2919 15.0562C13.2919 14.867 13.2919 14.6777 13.2919 14.4885C13.2919 14.1839 13.1798 14.1215 12.918 14.1271C12.2355 14.1423 11.5512 14.1479 10.8613 14.1271C10.5378 14.1158 10.4873 14.2501 10.4873 14.5415C10.5023 15.357 10.4873 16.1744 10.4873 17.0013C10.4873 17.8282 10.4967 18.6021 10.4873 19.4043C10.4873 19.6806 10.549 19.7998 10.8463 19.7828C11.482 19.7657 12.1177 19.7695 12.7535 19.7828C12.3813 18.1907 12.5718 16.5171 13.2919 15.0524V15.0562Z" fill="#F8F8F8"/>
<path d="M11.9198 5.62347C12.0998 5.61445 12.2698 5.53689 12.3957 5.40635C12.5216 5.27581 12.594 5.10193 12.5985 4.91959C12.5973 4.82559 12.5777 4.73278 12.5407 4.64653C12.5038 4.56029 12.4502 4.48233 12.3833 4.4172C12.3163 4.35206 12.2372 4.30104 12.1506 4.2671C12.0639 4.23316 11.9715 4.21698 11.8787 4.21949C11.6957 4.22501 11.5224 4.30387 11.3968 4.43871C11.2713 4.57355 11.2038 4.75333 11.2093 4.93851C11.2147 5.12368 11.2927 5.29908 11.4259 5.42612C11.5592 5.55315 11.7368 5.62142 11.9198 5.6159V5.62347Z" fill="#F8F8F8"/>
<path d="M19.6099 23.5648C16.3771 23.5856 14.1016 21.3813 14.1016 18.2346C14.0999 17.4991 14.2413 16.7705 14.5179 16.0903C14.7944 15.4101 15.2006 14.7917 15.7133 14.2704C16.226 13.7491 16.8352 13.3351 17.506 13.052C18.1768 12.769 18.8962 12.6224 19.623 12.6206C21.0908 12.6171 22.4999 13.2038 23.5403 14.2517C24.5807 15.2995 25.1671 16.7227 25.1706 18.2081C25.178 21.4115 22.9642 23.5459 19.6099 23.5648ZM17.8 18.2668V19.8429C17.8 20.1135 17.7887 20.3482 17.426 20.4219C17.3467 20.4355 17.271 20.4651 17.2032 20.5089C17.1355 20.5527 17.0771 20.6098 17.0316 20.6769C16.9861 20.744 16.9543 20.8196 16.9383 20.8993C16.9222 20.979 16.9221 21.0612 16.938 21.141C16.9441 21.2303 16.9678 21.3175 17.0079 21.3974C17.0479 21.4773 17.1035 21.5482 17.1711 21.606C17.2388 21.6637 17.3173 21.707 17.4019 21.7334C17.4864 21.7599 17.5754 21.7688 17.6635 21.7597C18.0786 21.7427 18.2824 21.8846 18.3702 22.3046C18.4282 22.5809 18.6788 22.7114 18.9686 22.7114C19.1139 22.7195 19.2575 22.6767 19.3753 22.5902C19.4931 22.5037 19.5779 22.3788 19.6155 22.2365C19.6735 22.0624 19.5987 21.7805 19.9128 21.8089C20.1484 21.8297 20.0998 22.053 20.1503 22.2119C20.1935 22.3658 20.2887 22.4994 20.4194 22.5895C20.55 22.6796 20.7077 22.7204 20.8651 22.7049C21.0224 22.6894 21.1693 22.6184 21.2803 22.5045C21.3912 22.3905 21.4591 22.2408 21.4722 22.0814C21.4769 21.9242 21.5155 21.7699 21.5853 21.6294C21.655 21.4889 21.7543 21.3654 21.876 21.2677C22.7156 20.5336 22.882 19.7029 22.3977 18.6812C22.3215 18.5481 22.2814 18.397 22.2814 18.2431C22.2814 18.0893 22.3215 17.9382 22.3977 17.8051C22.8627 16.825 22.7056 15.9817 21.9265 15.2753C21.7917 15.1729 21.6806 15.0419 21.6008 14.8916C21.5211 14.7413 21.4746 14.5752 21.4647 14.4049C21.4498 14.2474 21.3807 14.1003 21.2695 13.9891C21.1583 13.8779 21.0121 13.8097 20.8563 13.7964C20.7005 13.7831 20.5451 13.8256 20.4171 13.9164C20.2891 14.0072 20.1967 14.1406 20.1559 14.2933C20.1016 14.473 20.1559 14.7512 19.8586 14.7266C19.6305 14.7077 19.6716 14.4768 19.6286 14.316C19.6032 14.1706 19.5302 14.0382 19.4213 13.94C19.3124 13.8418 19.174 13.7836 19.0284 13.7748C18.9562 13.7599 18.8818 13.7595 18.8095 13.7737C18.7371 13.7879 18.6683 13.8163 18.6068 13.8574C18.5453 13.8986 18.4925 13.9515 18.4513 14.0133C18.41 14.0751 18.3812 14.1445 18.3665 14.2176C18.2805 14.7096 18.0056 14.8004 17.5831 14.7852C17.4361 14.7763 17.2911 14.8227 17.1761 14.9157C17.0611 15.0087 16.9842 15.1415 16.9604 15.2886C16.9346 15.3578 16.9227 15.4316 16.9254 15.5056C16.9281 15.5796 16.9454 15.6523 16.9762 15.7194C17.007 15.7865 17.0508 15.8468 17.1049 15.8966C17.159 15.9464 17.2224 15.9848 17.2914 16.0095C17.8131 16.1665 17.8224 16.5317 17.8074 16.9555C17.7925 17.3794 17.8018 17.824 17.8 18.2611V18.2668Z" fill="#F8F8F8"/>
<path d="M20.0624 18.9686C20.6794 18.9421 21.2927 18.9364 21.2553 19.6782C21.2179 20.4199 20.5579 20.348 20.0101 20.3896C19.4117 20.4331 19.1406 20.3045 19.1406 19.6006C19.1444 18.7321 19.7146 19.0178 20.0624 18.9686Z" fill="#F8F8F8"/>
<path d="M19.9092 16.142C20.5935 16.142 21.2797 16.0549 21.2535 16.8648C21.2274 17.6216 20.5636 17.563 20.0083 17.5819C19.5053 17.5989 19.1407 17.6008 19.1426 16.8818C19.1445 16.1628 19.4754 16.0455 19.9092 16.142Z" fill="#F8F8F8"/>
</g>
<defs>
<clipPath id="clip0_213_5879">
<rect width="25.1707" height="24" fill="white"/>
</clipPath>
</defs>
</svg>
