<svg width="26" height="25" viewBox="0 0 26 25" fill="none" xmlns="http://www.w3.org/2000/svg">
<path d="M13.0109 19.2681H24.1896C24.3391 19.2681 24.4886 19.2681 24.6362 19.2681C24.7316 19.2696 24.8259 19.2899 24.9135 19.3278C25.001 19.3656 25.0803 19.4203 25.1466 19.4887C25.2129 19.557 25.265 19.6378 25.2999 19.7262C25.3348 19.8147 25.3518 19.9091 25.3499 20.0041C25.3521 20.1961 25.2786 20.3813 25.1452 20.52C25.0118 20.6587 24.829 20.7398 24.6362 20.746C24.4707 20.7619 24.3032 20.746 24.1397 20.756C24.064 20.756 23.9264 20.7976 23.9244 20.8254C23.8845 21.4622 23.3981 21.238 23.0771 21.238C16.7663 21.2486 10.4569 21.2486 4.14883 21.238C3.36929 21.238 3.00842 21.4602 2.99247 21.9443C2.97653 22.4283 3.36929 22.71 4.15082 22.71H23.2765C23.5536 22.71 23.8985 22.595 23.9085 23.083C23.9085 23.2179 24.0859 23.1961 24.1995 23.2C24.365 23.2 24.5325 23.2 24.696 23.2C24.8678 23.2076 25.0301 23.2802 25.1498 23.4031C25.2696 23.5259 25.3376 23.6896 25.34 23.8607C25.3733 24.0345 25.3374 24.2144 25.24 24.3625C25.1425 24.5105 24.9911 24.6151 24.8176 24.6542C24.6408 24.6961 24.4588 24.7121 24.2773 24.7018H1.82217C0.566132 24.7018 0.00589996 24.1424 0.00390625 22.8886C0.00390625 22.2141 0.00390625 21.5376 0.00390625 20.8631C0.0218496 19.8712 0.619962 19.276 1.63277 19.276C5.42613 19.2681 9.21883 19.2654 13.0109 19.2681Z" fill="white"/>
<path d="M13.0068 17.8043H3.766C2.61961 17.8043 2.05141 17.2448 2.04742 16.116C2.04742 15.3741 2.04742 14.6321 2.04742 13.8922C2.04212 13.6978 2.07553 13.5042 2.14573 13.3228C2.21594 13.1413 2.32154 12.9754 2.45645 12.8347C2.59137 12.694 2.75293 12.5812 2.93183 12.5029C3.11073 12.4247 3.30344 12.3824 3.49884 12.3785C3.61447 12.3785 3.7321 12.3785 3.84774 12.3785H22.2277C22.4287 12.3576 22.6318 12.3758 22.8258 12.4321C22.987 12.479 23.1259 12.5818 23.2174 12.722C23.3088 12.8621 23.3468 13.0303 23.3243 13.1958C23.3166 13.3633 23.2477 13.5222 23.1306 13.6428C23.0135 13.7633 22.8562 13.8372 22.6883 13.8505C22.5088 13.8743 22.3254 13.8505 22.142 13.8664C22.0324 13.8664 21.8609 13.8426 21.8669 13.9973C21.8888 14.4794 21.5439 14.3524 21.2927 14.3544H6.18038C5.38289 14.3544 5.01804 14.5964 5.03001 15.1142C5.04197 15.632 5.38289 15.8244 6.18038 15.8244H21.3326C21.5798 15.8244 21.8988 15.7292 21.8629 16.1736C21.8629 16.2728 21.9446 16.3065 22.0324 16.3105C22.1201 16.3144 22.2317 16.3105 22.3294 16.3105C22.9913 16.3105 23.3442 16.5882 23.3263 17.0703C23.3083 17.5523 22.9694 17.7964 22.2955 17.7964L13.0068 17.8043Z" fill="white"/>
<path d="M1.05664 5.68694C1.05664 4.96284 1.05664 4.23875 1.05664 3.50473C1.05664 2.81832 1.21614 2.612 1.87406 2.49297C5.02811 1.92956 8.1981 1.4217 11.3342 0.765055C12.7358 0.473432 14.0237 0.800764 15.3515 1.02891C18.0231 1.49114 20.6867 1.98908 23.3543 2.47512C23.5344 2.49747 23.7116 2.53938 23.8826 2.6001C24.0243 2.65319 24.1444 2.75146 24.2241 2.87957C24.3038 3.00768 24.3386 3.15844 24.3232 3.30833C24.3198 3.48417 24.2517 3.65267 24.132 3.78204C24.0123 3.91141 23.8491 3.99271 23.6733 4.01061C22.7003 4.19312 21.7234 4.36968 20.7465 4.54624C18.2843 4.98863 15.824 5.41119 13.3738 5.88533C12.347 6.08371 11.406 5.74051 10.439 5.57783C7.9788 5.1652 5.52454 4.70693 3.06231 4.24866C2.66357 4.17526 2.51604 4.21296 2.53398 4.67122C2.56987 5.72464 2.54594 6.77805 2.54395 7.83147C2.54395 8.57739 2.29473 8.93448 1.78235 8.92654C1.26997 8.91861 1.05664 8.58532 1.05664 7.85924C1.05664 7.13316 1.05664 6.40311 1.05664 5.68694Z" fill="white"/>
<path d="M12.642 10.9026C10.425 10.9026 8.20801 10.9026 5.99101 10.9026C5.63613 10.9026 5.50056 10.8272 5.50654 10.4423C5.53046 9.17663 5.52448 7.90897 5.50654 6.6413C5.50654 6.29809 5.57432 6.18105 5.95313 6.24453C8.00266 6.64923 10.0542 6.99839 12.0997 7.39515C12.9112 7.54592 13.6787 7.31183 14.4543 7.17693C16.133 6.88729 17.8077 6.58178 19.4784 6.2604C19.8114 6.19692 19.8772 6.31 19.8652 6.60559C19.8533 7.88913 19.8453 9.18457 19.8652 10.4562C19.8652 10.8391 19.7476 10.9204 19.3887 10.9165C17.1458 10.8966 14.8929 10.9026 12.642 10.9026Z" fill="white"/>
</svg>
