<svg width="823" height="717" viewBox="0 0 823 717" fill="none" xmlns="http://www.w3.org/2000/svg">
<g opacity="0.06">
<path opacity="0.0344828" d="M129.929 473.637C134.837 479.485 142.235 483.111 151.96 484.57C161.695 486.03 173.698 485.307 187.696 482.51C215.69 476.914 251.455 463.061 292.573 442.143C374.795 400.314 478.223 330.342 583.348 242.132C688.473 153.921 775.342 64.2156 830.813 -9.49375C858.553 -46.355 878.407 -79.1708 888.778 -105.769C893.964 -119.068 896.76 -130.763 897.012 -140.603C897.265 -150.435 894.979 -158.35 890.072 -164.198C885.164 -170.046 877.766 -173.672 868.041 -175.13C858.306 -176.59 846.303 -175.868 832.305 -173.07C804.311 -167.475 768.546 -153.621 727.428 -132.703C645.206 -90.8751 541.778 -20.9024 436.653 67.3079C331.528 155.518 244.659 245.224 189.188 318.933C161.448 355.794 141.594 388.61 131.223 415.208C126.037 428.507 123.241 440.203 122.989 450.043C122.736 459.874 125.022 467.789 129.929 473.637Z" stroke="#2B2C3B" stroke-width="2"/>
<path opacity="0.0689655" d="M159.17 509.517C164.569 514.915 172.254 517.882 182.07 518.488C191.895 519.094 203.789 517.328 217.49 513.321C244.891 505.307 279.312 488.389 318.451 463.967C396.714 415.132 493.649 336.411 590.686 239.374C687.723 142.337 766.444 45.4018 815.279 -32.8617C839.701 -72.0004 856.619 -106.422 864.633 -133.822C868.64 -147.523 870.406 -159.417 869.8 -169.242C869.194 -179.058 866.227 -186.744 860.829 -192.142C855.431 -197.54 847.745 -200.507 837.929 -201.113C828.105 -201.719 816.21 -199.953 802.509 -195.946C775.109 -187.932 740.688 -171.014 701.549 -146.592C623.285 -97.7566 526.35 -19.0359 429.313 78.0009C332.276 175.038 253.556 271.973 204.72 350.237C180.298 389.375 163.38 423.797 155.366 451.197C151.359 464.898 149.594 476.792 150.2 486.617C150.805 496.433 153.772 504.119 159.17 509.517Z" stroke="#2B2C3B" stroke-width="2"/>
<path opacity="0.103448" d="M191.083 542.728C196.931 547.635 204.846 549.921 214.678 549.669C224.517 549.416 236.213 546.621 249.512 541.435C276.11 531.063 308.926 511.21 345.787 483.469C419.496 427.999 509.202 341.129 597.412 236.004C685.622 130.879 755.595 27.4518 797.424 -54.7701C818.341 -95.8884 832.195 -131.653 837.79 -159.648C840.588 -173.646 841.31 -185.649 839.85 -195.383C838.392 -205.109 834.766 -212.507 828.918 -217.414C823.07 -222.321 815.155 -224.607 805.323 -224.355C795.483 -224.102 783.788 -221.307 770.489 -216.121C743.891 -205.749 711.075 -185.896 674.214 -158.155C600.504 -102.685 510.799 -15.8151 422.588 89.3098C334.378 194.435 264.406 297.862 222.577 380.084C201.659 421.203 187.806 456.967 182.21 484.962C179.413 498.96 178.69 510.963 180.15 520.697C181.609 530.423 185.235 537.821 191.083 542.728Z" stroke="#2B2C3B" stroke-width="2"/>
<path opacity="0.137931" d="M225.422 573.047C231.675 577.426 239.759 579.013 249.531 577.905C259.312 576.796 270.719 572.991 283.516 566.666C309.108 554.016 340.069 531.378 374.372 500.53C442.966 438.847 524.76 344.489 603.472 232.076C682.184 119.663 742.876 10.5308 777.38 -75.0238C794.634 -117.809 805.318 -154.645 808.452 -183.021C810.019 -197.209 809.693 -209.229 807.39 -218.799C805.089 -228.361 800.832 -235.415 794.579 -239.794C788.325 -244.173 780.241 -245.76 770.469 -244.652C760.688 -243.543 749.281 -239.738 736.484 -233.413C710.892 -220.763 679.931 -198.125 645.628 -167.277C577.034 -105.593 495.241 -11.236 416.528 101.177C337.816 213.59 277.124 322.722 242.621 408.277C225.366 451.062 214.682 487.898 211.548 516.274C209.981 530.462 210.308 542.483 212.611 552.053C214.911 561.614 219.168 568.668 225.422 573.047Z" stroke="#2B2C3B" stroke-width="2"/>
<path opacity="0.172414" d="M261.926 600.272C268.537 604.089 276.729 604.965 286.367 603.01C296.014 601.053 307.046 596.268 319.243 588.852C343.635 574.019 372.505 548.769 403.989 515.049C466.946 447.622 540.204 346.495 608.82 227.649C677.435 108.804 728.385 -5.20293 755.3 -93.4391C768.76 -137.565 776.193 -175.192 776.842 -203.733C777.166 -218.004 775.793 -229.95 772.665 -239.283C769.54 -248.608 764.685 -255.264 758.073 -259.081C751.462 -262.898 743.27 -263.775 733.632 -261.819C723.985 -259.862 712.953 -255.078 700.756 -247.661C676.364 -232.829 647.494 -207.578 616.01 -173.859C553.052 -106.431 479.794 -5.30407 411.179 113.541C342.564 232.387 291.614 346.394 264.699 434.63C251.239 478.756 243.806 516.383 243.157 544.924C242.832 559.195 244.205 571.141 247.334 580.474C250.459 589.799 255.314 596.455 261.926 600.272Z" stroke="#2B2C3B" stroke-width="2"/>
<path opacity="0.206897" d="M300.32 624.227C307.239 627.454 315.476 627.613 324.907 624.825C334.346 622.034 344.92 616.307 356.423 607.855C379.431 590.953 405.99 563.283 434.415 526.947C491.256 454.289 555.422 347.162 613.418 222.789C671.414 98.4155 712.234 -19.5981 731.356 -109.844C740.919 -154.976 745.044 -193.107 743.203 -221.596C742.283 -235.841 739.874 -247.622 735.944 -256.647C732.018 -265.664 726.601 -271.871 719.682 -275.098C712.763 -278.324 704.526 -278.483 695.095 -275.695C685.656 -272.905 675.082 -267.177 663.578 -258.726C640.571 -241.824 614.012 -214.153 585.587 -177.818C528.746 -105.16 464.58 1.96721 406.584 126.341C348.588 250.714 307.768 368.728 288.646 458.974C279.083 504.105 274.958 542.237 276.799 570.726C277.719 584.971 280.128 596.752 284.058 605.776C287.984 614.793 293.401 621.001 300.32 624.227Z" stroke="#2B2C3B" stroke-width="2"/>
<path opacity="0.241379" d="M340.308 644.762C347.482 647.373 355.702 646.813 364.854 643.214C374.014 639.611 384.048 632.984 394.772 623.562C416.218 604.719 440.264 574.839 465.415 536.165C515.707 458.829 570.292 346.517 617.227 217.563C664.163 88.6077 694.541 -32.5144 705.726 -124.084C711.319 -169.877 712.105 -208.223 707.788 -236.443C705.629 -250.554 702.203 -262.08 697.502 -270.728C692.804 -279.368 686.867 -285.08 679.693 -287.691C672.519 -290.302 664.3 -289.743 655.148 -286.143C645.988 -282.541 635.954 -275.913 625.23 -266.492C603.784 -247.648 579.737 -217.769 554.587 -179.094C504.295 -101.759 449.71 10.5532 402.774 139.508C355.839 268.463 325.46 389.585 314.276 481.154C308.683 526.947 307.897 565.293 312.214 593.514C314.372 607.624 317.799 619.15 322.5 627.798C327.197 636.439 333.134 642.15 340.308 644.762Z" stroke="#2B2C3B" stroke-width="2"/>
<path opacity="0.275862" d="M381.586 661.744C388.961 663.72 397.1 662.446 405.904 658.063C414.715 653.675 424.133 646.199 433.995 635.878C453.717 615.238 475.068 583.376 496.752 542.656C540.113 461.232 584.701 344.59 620.219 212.035C655.737 79.4805 675.443 -43.8285 678.604 -136.024C680.185 -182.13 677.625 -220.399 670.866 -248.136C667.486 -262.004 663.067 -273.188 657.63 -281.393C652.198 -289.591 645.786 -294.764 638.411 -296.74C631.037 -298.716 622.898 -297.442 614.094 -293.059C605.283 -288.671 595.865 -281.195 586.003 -270.874C566.281 -250.234 544.93 -218.372 523.246 -177.652C479.885 -96.2281 435.297 20.4138 399.779 152.969C364.261 285.523 344.555 408.832 341.394 501.028C339.813 547.134 342.372 585.403 349.132 613.139C352.512 627.008 356.93 638.192 362.368 646.397C367.8 654.595 374.212 659.768 381.586 661.744Z" stroke="#2B2C3B" stroke-width="2"/>
<path opacity="0.310345" d="M423.844 675.081C431.362 676.407 439.36 674.429 447.748 669.295C456.143 664.156 464.874 655.887 473.799 644.746C491.647 622.465 510.14 588.864 528.192 546.41C564.291 461.516 598.544 341.432 622.374 206.286C646.204 71.1398 655.088 -53.4174 650.201 -145.538C647.758 -191.606 641.873 -229.506 632.721 -256.548C628.145 -270.069 622.769 -280.826 616.638 -288.526C610.511 -296.219 603.673 -300.813 596.154 -302.139C588.636 -303.465 580.638 -301.487 572.25 -296.352C563.855 -291.214 555.124 -282.945 546.2 -271.804C528.351 -249.523 509.859 -215.922 491.806 -173.467C455.707 -88.5736 421.455 31.5105 397.625 166.656C373.795 301.802 364.911 426.36 369.797 518.48C372.241 564.549 378.126 602.449 387.277 629.49C391.853 643.012 397.229 653.768 403.361 661.468C409.487 669.161 416.326 673.756 423.844 675.081Z" stroke="#2B2C3B" stroke-width="2"/>
<path opacity="0.344828" d="M466.759 684.7C474.364 685.365 482.159 682.698 490.068 676.852C497.983 671.001 505.96 662.003 513.879 650.127C529.718 626.375 545.212 591.29 559.496 547.423C588.058 459.707 611.714 337.094 623.675 200.385C635.635 63.6769 633.63 -61.1807 620.733 -152.525C614.284 -198.205 605.118 -235.448 593.644 -261.589C587.907 -274.66 581.614 -284.907 574.835 -292.043C568.061 -299.173 560.848 -303.154 553.243 -303.819C545.638 -304.485 537.843 -301.817 529.934 -295.971C522.019 -290.121 514.042 -281.122 506.122 -269.246C490.284 -245.494 474.79 -210.409 460.506 -166.543C431.944 -78.8259 408.288 43.7865 396.327 180.495C384.367 317.204 386.372 442.061 399.269 533.405C405.718 579.086 414.884 616.328 426.358 642.47C432.095 655.541 438.388 665.787 445.167 672.924C451.94 680.054 459.154 684.035 466.759 684.7Z" stroke="#2B2C3B" stroke-width="2"/>
<path opacity="0.37931" d="M510.001 690.559C517.635 690.559 525.168 687.222 532.537 680.709C539.912 674.191 547.074 664.531 553.929 652.01C567.637 626.968 580.014 590.666 590.42 545.722C611.229 455.849 624.109 331.642 624.109 194.411C624.109 57.1801 611.229 -67.0276 590.42 -156.9C580.014 -201.844 567.637 -238.146 553.929 -263.188C547.074 -275.71 539.912 -285.369 532.537 -291.887C525.168 -298.4 517.635 -301.737 510.001 -301.737C502.366 -301.737 494.834 -298.4 487.465 -291.887C480.089 -285.369 472.927 -275.71 466.073 -263.188C452.364 -238.146 439.987 -201.844 429.581 -156.9C408.772 -67.0276 395.893 57.1801 395.893 194.411C395.893 331.642 408.772 455.849 429.581 545.722C439.987 590.666 452.364 626.968 466.073 652.01C472.927 664.531 480.089 674.191 487.465 680.709C494.834 687.222 502.366 690.559 510.001 690.559Z" stroke="#2B2C3B" stroke-width="2"/>
<path opacity="0.413793" d="M553.241 692.641C560.847 691.976 568.06 687.995 574.833 680.865C581.613 673.728 587.906 663.482 593.643 650.411C605.116 624.269 614.282 587.027 620.732 541.346C633.628 450.002 635.634 325.145 623.673 188.436C611.713 51.7275 588.056 -70.885 559.494 -158.602C545.21 -202.468 529.716 -237.553 513.878 -261.305C505.958 -273.182 497.981 -282.18 490.066 -288.03C482.157 -293.876 474.362 -296.544 466.757 -295.878C459.152 -295.213 451.939 -291.232 445.165 -284.102C438.386 -276.966 432.093 -266.719 426.356 -253.648C414.882 -227.507 405.717 -190.264 399.267 -144.584C386.37 -53.2397 384.365 71.6178 396.325 208.326C408.286 345.035 431.942 467.648 460.505 555.364C474.788 599.231 490.282 634.316 506.121 658.068C514.04 669.944 522.017 678.942 529.933 684.793C537.841 690.639 545.636 693.306 553.241 692.641Z" stroke="#2B2C3B" stroke-width="2"/>
<path opacity="0.448276" d="M596.156 690.961C603.674 689.635 610.513 685.041 616.639 677.348C622.771 669.648 628.147 658.891 632.723 645.37C641.874 618.328 647.759 580.428 650.203 534.36C655.089 442.239 646.205 317.682 622.375 182.536C598.545 47.3901 564.293 -72.694 528.194 -157.588C510.141 -200.042 491.649 -233.644 473.8 -255.925C464.875 -267.065 456.145 -275.334 447.749 -280.473C439.361 -285.607 431.364 -287.585 423.845 -286.259C416.327 -284.934 409.488 -280.34 403.362 -272.646C397.231 -264.946 391.855 -254.19 387.279 -240.668C378.127 -213.627 372.242 -175.727 369.798 -129.658C364.912 -37.5378 373.796 87.0194 397.626 222.165C421.456 357.311 455.709 477.396 491.807 562.289C509.86 604.744 528.353 638.345 546.201 660.626C555.126 671.767 563.856 680.036 572.252 685.174C580.64 690.308 588.637 692.287 596.156 690.961Z" stroke="#2B2C3B" stroke-width="2"/>
<path opacity="0.482759" d="M638.412 685.56C645.786 683.584 652.199 678.412 657.631 670.213C663.068 662.008 667.486 650.824 670.866 636.956C677.626 609.219 680.186 570.951 678.605 524.844C675.444 432.649 655.738 309.34 620.22 176.785C584.702 44.2301 540.113 -72.4118 496.753 -153.836C475.069 -194.556 453.718 -226.417 433.996 -247.058C424.134 -257.379 414.716 -264.855 405.905 -269.242C397.101 -273.626 388.961 -274.9 381.587 -272.924C374.213 -270.948 367.801 -265.775 362.368 -257.577C356.931 -249.372 352.513 -238.188 349.133 -224.319C342.373 -196.583 339.814 -158.314 341.395 -112.208C344.555 -20.0122 364.262 103.297 399.78 235.852C435.298 368.406 479.886 485.048 523.246 566.473C544.931 607.192 566.281 639.054 586.004 659.695C595.865 670.015 605.284 677.492 614.095 681.879C622.898 686.262 631.038 687.536 638.412 685.56Z" stroke="#2B2C3B" stroke-width="2"/>
<path opacity="0.517241" d="M679.692 676.514C686.866 673.903 692.803 668.192 697.5 659.551C702.201 650.903 705.628 639.377 707.787 625.266C712.103 597.046 711.318 558.7 705.725 512.907C694.54 421.338 664.162 300.216 617.226 171.261C570.29 42.3062 515.706 -70.0057 465.414 -147.341C440.263 -186.016 416.217 -215.896 394.77 -234.739C384.047 -244.161 374.013 -250.788 364.853 -254.39C355.701 -257.99 347.481 -258.549 340.307 -255.938C333.133 -253.327 327.196 -247.615 322.499 -238.975C317.798 -230.327 314.371 -218.801 312.213 -204.69C307.896 -176.47 308.681 -138.124 314.275 -92.331C325.459 -0.761524 355.837 120.361 402.773 249.315C449.709 378.27 504.293 490.582 554.585 567.918C579.736 606.592 603.782 636.472 625.229 655.315C635.952 664.737 645.986 671.364 655.146 674.967C664.299 678.566 672.518 679.126 679.692 676.514Z" stroke="#2B2C3B" stroke-width="2"/>
<path opacity="0.551724" d="M719.68 663.919C726.599 660.693 732.016 654.485 735.942 645.468C739.872 636.444 742.281 624.662 743.201 610.417C745.042 581.928 740.917 543.797 731.354 498.666C712.232 408.419 671.413 290.406 613.416 166.032C555.42 41.659 491.255 -65.4681 434.414 -138.126C405.988 -174.461 379.429 -202.132 356.422 -219.034C344.918 -227.485 334.345 -233.213 324.905 -236.003C315.474 -238.792 307.237 -238.632 300.318 -235.406C293.399 -232.18 287.983 -225.972 284.056 -216.955C280.127 -207.93 277.718 -196.149 276.797 -181.904C274.956 -153.415 279.081 -115.284 288.644 -70.1526C307.767 20.0937 348.586 138.107 406.582 262.481C464.579 386.854 528.744 493.981 585.585 566.639C614.01 602.975 640.57 630.645 663.577 647.547C675.081 655.998 685.654 661.726 695.093 664.516C704.524 667.305 712.761 667.145 719.68 663.919Z" stroke="#2B2C3B" stroke-width="2"/>
<path opacity="0.586207" d="M758.074 647.903C764.686 644.086 769.541 637.43 772.666 628.105C775.795 618.772 777.168 606.826 776.843 592.555C776.194 564.014 768.761 526.387 755.301 482.261C728.386 394.025 677.436 280.018 608.821 161.172C540.206 42.3269 466.948 -58.8002 403.99 -126.228C372.506 -159.947 343.636 -185.198 319.244 -200.03C307.047 -207.447 296.015 -212.231 286.368 -214.188C276.73 -216.144 268.538 -215.267 261.927 -211.45C255.315 -207.633 250.46 -200.977 247.335 -191.652C244.207 -182.319 242.834 -170.373 243.158 -156.102C243.807 -127.561 251.24 -89.9341 264.7 -45.8082C291.615 42.428 342.565 156.435 411.18 275.28C479.795 394.126 553.054 495.253 616.011 562.68C647.495 596.4 676.365 621.65 700.757 636.483C712.954 643.899 723.986 648.683 733.633 650.641C743.271 652.596 751.463 651.72 758.074 647.903Z" stroke="#2B2C3B" stroke-width="2"/>
<path opacity="0.62069" d="M794.578 628.615C800.832 624.236 805.089 617.182 807.389 607.621C809.692 598.051 810.019 586.03 808.452 571.842C805.317 543.466 794.634 506.63 777.379 463.845C742.876 378.29 682.184 269.158 603.472 156.745C524.759 44.3321 442.966 -50.0253 374.372 -111.709C340.069 -142.556 309.108 -165.194 283.515 -177.845C270.719 -184.17 259.312 -187.974 249.531 -189.084C239.759 -190.192 231.675 -188.605 225.421 -184.226C219.168 -179.847 214.911 -172.793 212.61 -163.231C210.307 -153.661 209.981 -141.641 211.548 -127.453C214.682 -99.0767 225.366 -62.2406 242.62 -19.4557C277.124 66.0989 337.816 175.231 416.528 287.644C495.24 400.057 577.033 494.415 645.628 556.098C679.931 586.946 710.892 609.584 736.484 622.234C749.281 628.559 760.688 632.364 770.469 633.473C780.241 634.581 788.325 632.994 794.578 628.615Z" stroke="#2B2C3B" stroke-width="2"/>
<path opacity="0.655172" d="M828.918 606.236C834.766 601.329 838.391 593.931 839.85 584.205C841.31 574.471 840.588 562.468 837.79 548.47C832.194 520.475 818.341 484.711 797.423 443.592C755.595 361.37 685.622 257.943 597.412 152.818C509.202 47.693 419.496 -39.1766 345.787 -94.6472C308.925 -122.387 276.109 -142.241 249.512 -152.613C236.212 -157.799 224.517 -160.594 214.677 -160.847C204.846 -161.099 196.931 -158.813 191.082 -153.906C185.234 -148.999 181.609 -141.601 180.15 -131.875C178.69 -122.141 179.412 -110.138 182.21 -96.1397C187.805 -68.1451 201.659 -32.3803 222.577 8.73802C264.405 90.9599 334.378 194.388 422.588 299.512C510.798 404.637 600.504 491.507 674.213 546.978C711.075 574.718 743.89 594.571 770.488 604.943C783.788 610.129 795.483 612.925 805.323 613.177C815.154 613.429 823.069 611.144 828.918 606.236Z" stroke="#2B2C3B" stroke-width="2"/>
<path opacity="0.689655" d="M860.83 580.963C866.228 575.565 869.195 567.879 869.801 558.063C870.407 548.239 868.641 536.344 864.634 522.644C856.62 495.243 839.702 460.822 815.28 421.683C766.445 343.42 687.724 246.484 590.687 149.447C493.65 52.4105 396.715 -26.3102 318.451 -75.1456C279.313 -99.5676 244.891 -116.485 217.491 -124.499C203.79 -128.507 191.896 -130.272 182.071 -129.666C172.255 -129.061 164.569 -126.094 159.171 -120.695C153.773 -115.297 150.806 -107.611 150.2 -97.7954C149.594 -87.971 151.36 -76.0765 155.367 -62.3757C163.381 -34.9753 180.299 -0.553988 204.721 38.5847C253.556 116.848 332.277 213.784 429.314 310.82C526.351 407.857 623.286 486.578 701.55 535.413C740.688 559.835 775.11 576.753 802.51 584.767C816.211 588.774 828.105 590.54 837.93 589.934C847.746 589.328 855.432 586.362 860.83 580.963Z" stroke="#2B2C3B" stroke-width="2"/>
<path opacity="0.724138" d="M890.072 553.021C894.979 547.172 897.265 539.257 897.013 529.426C896.76 519.586 893.965 507.891 888.779 494.591C878.407 467.994 858.554 435.178 830.813 398.317C775.343 324.607 688.473 234.902 583.348 146.691C478.223 58.481 374.796 -11.4917 292.574 -53.3201C251.456 -74.2381 215.691 -88.0914 187.696 -93.6869C173.698 -96.4847 161.695 -97.207 151.961 -95.7469C142.235 -94.2882 134.837 -90.6627 129.93 -84.8145C125.023 -78.9663 122.737 -71.0511 122.989 -61.2197C123.242 -51.3799 126.037 -39.6845 131.223 -26.3851C141.595 0.212551 161.448 33.0284 189.189 69.8896C244.659 143.599 331.529 233.305 436.654 321.515C541.779 409.725 645.206 479.698 727.428 521.526C768.547 542.444 804.311 556.298 832.306 561.893C846.304 564.691 858.307 565.413 868.041 563.953C877.767 562.494 885.165 558.869 890.072 553.021Z" stroke="#2B2C3B" stroke-width="2"/>
<path opacity="0.758621" d="M916.42 522.651C920.798 516.398 922.386 508.314 921.277 498.542C920.168 488.761 916.364 477.354 910.039 464.557C897.388 438.965 874.75 408.004 843.903 373.701C782.219 305.107 687.862 223.313 575.449 144.601C463.036 65.8887 353.903 5.1966 268.349 -29.3066C225.564 -46.5612 188.728 -57.2448 160.352 -60.379C146.164 -61.9462 134.143 -61.6196 124.573 -59.3167C115.011 -57.0158 107.958 -52.7594 103.579 -46.5057C99.1999 -40.2521 97.6127 -32.1678 98.7209 -22.3958C99.83 -12.6154 103.634 -1.2082 109.96 11.5885C122.61 37.1811 145.248 68.1417 176.095 102.445C237.779 171.039 332.137 252.832 444.549 331.545C556.962 410.257 666.095 470.949 751.65 505.452C794.434 522.707 831.271 533.391 859.646 536.525C873.835 538.092 885.855 537.765 895.425 535.462C904.987 533.162 912.041 528.905 916.42 522.651Z" stroke="#2B2C3B" stroke-width="2"/>
<path opacity="0.793103" d="M939.677 490.116C943.494 483.504 944.371 475.312 942.415 465.674C940.458 456.028 935.674 444.995 928.257 432.799C913.425 408.406 888.174 379.536 854.455 348.052C787.027 285.095 685.9 211.837 567.055 143.221C448.209 74.606 334.203 23.6564 245.966 -3.25886C201.84 -16.7189 164.213 -24.1513 135.672 -24.8005C121.401 -25.1251 109.455 -23.7521 100.122 -20.624C90.7976 -17.4985 84.1415 -12.6434 80.3243 -6.03195C76.5072 0.579534 75.6307 8.77138 77.5863 18.4096C79.5436 28.0561 84.3277 39.0884 91.7443 51.2851C106.577 75.6777 131.827 104.548 165.547 136.032C232.974 198.989 334.101 272.247 452.947 340.862C571.792 409.478 685.799 460.427 774.035 487.343C818.161 500.803 855.788 508.235 884.329 508.884C898.6 509.209 910.547 507.836 919.879 504.708C929.204 501.582 935.86 496.727 939.677 490.116Z" stroke="#2B2C3B" stroke-width="2"/>
<path opacity="0.827586" d="M959.663 455.693C962.89 448.774 963.049 440.537 960.261 431.105C957.47 421.666 951.743 411.093 943.291 399.589C926.389 376.582 898.719 350.023 862.383 321.597C789.725 264.756 682.598 200.591 558.225 142.595C433.852 84.5983 315.838 43.7789 225.592 24.6564C180.46 15.0934 142.329 10.9687 113.84 12.8094C99.5949 13.7299 87.8137 16.1388 78.7891 20.0685C69.7722 23.9948 63.5646 29.4115 60.3382 36.3305C57.1118 43.2495 56.9526 51.4866 59.7408 60.9177C62.5314 70.3569 68.2588 80.9302 76.7102 92.4342C93.6125 115.441 121.283 142 157.618 170.426C230.276 227.267 337.403 291.432 461.777 349.429C586.15 407.425 704.164 448.244 794.41 467.367C839.541 476.93 877.673 481.054 906.162 479.214C920.407 478.293 932.188 475.884 941.212 471.955C950.229 468.028 956.437 462.612 959.663 455.693Z" stroke="#2B2C3B" stroke-width="2"/>
<path opacity="0.862069" d="M976.226 419.673C978.838 412.499 978.278 404.279 974.679 395.127C971.076 385.967 964.449 375.933 955.027 365.21C936.184 343.763 906.304 319.717 867.629 294.566C790.294 244.274 677.982 189.69 549.027 142.754C420.073 95.8182 298.95 65.4397 207.381 54.2554C161.588 48.6623 123.242 47.8766 95.0218 52.1934C80.9113 54.3518 69.3849 57.7784 60.7372 62.4797C52.0968 67.1769 46.3849 73.114 43.7738 80.2879C41.1627 87.4618 41.722 95.6814 45.3216 104.834C48.9243 113.994 55.5514 124.028 64.9733 134.751C83.8164 156.198 113.696 180.244 152.371 205.395C229.706 255.687 342.018 310.271 470.973 357.207C599.928 404.143 721.05 434.521 812.619 445.705C858.412 451.299 896.758 452.084 924.978 447.767C939.089 445.609 950.615 442.182 959.263 437.481C967.903 432.784 973.615 426.847 976.226 419.673Z" stroke="#2B2C3B" stroke-width="2"/>
<path opacity="0.896552" d="M989.242 382.362C991.218 374.988 989.944 366.848 985.561 358.045C981.173 349.233 973.697 339.815 963.376 329.954C942.736 310.231 910.874 288.88 870.154 267.196C788.73 223.836 672.088 179.247 539.533 143.73C406.979 108.212 283.67 88.5052 191.474 85.3443C145.368 83.7635 107.099 86.3229 79.3625 93.0828C65.4938 96.4628 54.3099 100.881 46.1048 106.318C37.9067 111.75 32.734 118.163 30.7581 125.537C28.7822 132.911 30.0557 141.051 34.4393 149.854C38.8266 158.666 46.303 168.084 56.6237 177.945C77.2642 197.668 109.126 219.019 149.846 240.703C231.27 284.063 347.912 328.651 480.467 364.169C613.021 399.687 736.33 419.394 828.526 422.555C874.632 424.135 912.901 421.576 940.637 414.816C954.506 411.436 965.69 407.018 973.895 401.581C982.093 396.148 987.266 389.736 989.242 382.362Z" stroke="#2B2C3B" stroke-width="2"/>
<path opacity="0.931035" d="M998.609 344.074C999.935 336.556 997.957 328.558 992.823 320.17C987.684 311.775 979.415 303.044 968.274 294.12C945.994 276.271 912.392 257.779 869.938 239.726C785.044 203.627 664.96 169.374 529.814 145.545C394.668 121.715 270.111 112.83 177.99 117.717C131.922 120.161 94.0218 126.046 66.98 135.197C53.4586 139.773 42.7024 145.149 35.0024 151.281C27.3089 157.407 22.7148 164.246 21.3891 171.764C20.0634 179.282 22.0415 187.28 27.1757 195.668C32.3143 204.063 40.5831 212.794 51.724 221.719C74.0049 239.567 107.606 258.06 150.061 276.112C234.954 312.211 355.039 346.464 490.185 370.294C625.331 394.123 749.888 403.008 842.008 398.121C888.077 395.678 925.977 389.793 953.018 380.641C966.54 376.065 977.296 370.689 984.996 364.558C992.69 358.431 997.284 351.593 998.609 344.074Z" stroke="#2B2C3B" stroke-width="2"/>
<path opacity="0.965517" d="M1004.26 305.129C1004.92 297.524 1002.26 289.729 996.411 281.82C990.56 273.905 981.562 265.928 969.686 258.009C945.934 242.17 910.849 226.676 866.982 212.392C779.265 183.83 656.653 160.174 519.944 148.213C383.236 136.253 258.378 138.258 167.034 151.155C121.354 157.604 84.1111 166.77 57.9699 178.244C44.8987 183.981 34.652 190.274 27.5157 197.053C20.3855 203.827 16.4048 211.04 15.7395 218.645C15.0741 226.25 17.7417 234.045 23.5874 241.954C29.4381 249.869 38.4364 257.846 50.3127 265.766C74.0645 281.604 109.15 297.098 153.016 311.382C240.733 339.944 363.345 363.6 500.054 375.561C636.763 387.521 761.62 385.516 852.964 372.619C898.644 366.17 935.887 357.004 962.028 345.53C975.1 339.793 985.346 333.5 992.483 326.721C999.613 319.948 1003.59 312.734 1004.26 305.129Z" stroke="#2B2C3B" stroke-width="2"/>
<path d="M1006.15 265.857C1006.15 258.223 1002.81 250.69 996.299 243.321C989.781 235.946 980.122 228.783 967.6 221.929C942.559 208.221 906.256 195.844 861.312 185.438C771.44 164.629 647.232 151.749 510.001 151.749C372.77 151.749 248.563 164.629 158.69 185.438C113.746 195.844 77.4438 208.221 52.402 221.929C39.8807 228.783 30.2214 235.946 23.7031 243.321C17.1903 250.69 13.8535 258.223 13.8535 265.857C13.8535 273.491 17.1903 281.024 23.7031 288.393C30.2214 295.769 39.8807 302.931 52.402 309.785C77.4438 323.493 113.746 335.87 158.69 346.276C248.563 367.085 372.77 379.965 510.001 379.965C647.232 379.965 771.44 367.085 861.312 346.276C906.256 335.87 942.559 323.493 967.6 309.785C980.122 302.931 989.781 295.769 996.299 288.393C1002.81 281.024 1006.15 273.491 1006.15 265.857Z" stroke="#2B2C3B" stroke-width="2"/>
</g>
</svg>
