<svg width="14" height="15" viewBox="0 0 14 15" fill="none" xmlns="http://www.w3.org/2000/svg">
<path d="M6.99146 14.4989H11.9296C13.2028 14.4967 14 13.7247 14 12.4948C14 9.51228 14 6.52941 14 3.54617C14 2.30089 13.2028 1.5366 11.9091 1.5344C11.3396 1.5344 11.3396 1.5344 11.3009 1.00401C11.3002 0.874646 11.2483 0.750421 11.1558 0.656731C11.0633 0.563041 10.9372 0.506964 10.8032 0.499966C10.6652 0.490943 10.529 0.533653 10.4229 0.619181C10.3168 0.704709 10.249 0.826446 10.2338 0.958982C10.2321 0.986043 10.2321 1.01318 10.2338 1.04024C10.203 1.5333 10.203 1.5333 9.70194 1.5333C7.82852 1.5333 5.9551 1.5333 4.08281 1.5333C3.85504 1.5333 3.75027 1.48169 3.77874 1.24779C3.78752 1.13103 3.77792 1.01367 3.75027 0.899683C3.72717 0.78168 3.66011 0.675896 3.56173 0.602268C3.46334 0.528641 3.34042 0.492254 3.21614 0.499966C3.09215 0.50133 2.97274 0.545332 2.87941 0.624048C2.78609 0.702765 2.72497 0.811024 2.70707 0.929333C2.70707 0.965571 2.6991 1.00181 2.69682 1.03915C2.66835 1.5344 2.66835 1.5344 2.1365 1.5344C1.08192 1.5344 0.357603 2.0022 0.0865545 2.85215C0.0221672 3.07171 -0.00739765 3.29941 -0.00113869 3.5275C-0.00113869 6.52026 -0.00113869 9.51265 -0.00113869 12.5047C-0.00113869 13.7126 0.796063 14.4956 2.04881 14.4967C3.69788 14.5011 5.34543 14.5018 6.99146 14.4989ZM7.01196 13.4578C5.36669 13.4578 3.72065 13.4578 2.07386 13.4578C1.40308 13.4578 1.07964 13.146 1.07964 12.5036C1.07964 10.4171 1.07964 8.3307 1.07281 6.23767C1.07281 6.00048 1.12861 5.93239 1.38371 5.93239C5.12904 5.94118 8.87475 5.94118 12.6208 5.93239C12.8862 5.93239 12.9283 6.01256 12.9272 6.24206C12.9181 8.31203 12.9272 10.3831 12.9215 12.4531C12.9215 13.1668 12.6151 13.4578 11.8646 13.4578H7.01196ZM7.01196 4.89796H4.11926C3.19222 4.89796 2.26633 4.89137 1.3393 4.90345C1.12064 4.90345 1.06256 4.83976 1.07508 4.6399C1.09217 4.36671 1.09217 4.09278 1.07508 3.8196C1.01131 2.85984 1.3598 2.50954 2.39047 2.56115C2.64557 2.57432 2.70821 2.63911 2.70024 2.87411C2.68543 3.35839 2.86765 3.59338 3.22069 3.59997C3.57374 3.60656 3.78329 3.36278 3.76507 2.86752C3.7571 2.62484 3.83112 2.56334 4.08053 2.56444C5.96193 2.57432 7.83877 2.56993 9.72472 2.56993C10.2008 2.56993 10.2008 2.56993 10.2235 3.03883C10.226 3.08569 10.2321 3.1323 10.2418 3.17829C10.2658 3.30246 10.336 3.41389 10.4392 3.49165C10.5425 3.56941 10.6716 3.60816 10.8023 3.60061C10.9331 3.59306 11.0565 3.53973 11.1493 3.45064C11.2422 3.36155 11.2981 3.24284 11.3066 3.1168C11.3282 2.9422 11.2109 2.705 11.3738 2.60727C11.5139 2.52491 11.7405 2.57981 11.9284 2.57323H11.9501C12.5855 2.57981 12.9135 2.89168 12.9192 3.49785C12.9192 3.87231 12.9056 4.24677 12.9249 4.61903C12.9374 4.84964 12.8589 4.90784 12.6254 4.90674C10.7565 4.89796 8.88424 4.90125 7.01196 4.90125V4.89796Z" fill="#717171"/>
</svg>
