<svg width="597" height="1043" viewBox="0 0 597 1043" fill="none" xmlns="http://www.w3.org/2000/svg">
<g opacity="0.06">
<path opacity="0.0344828" d="M-293.071 801.637C-288.163 807.485 -280.765 811.111 -271.04 812.57C-261.305 814.03 -249.302 813.307 -235.304 810.51C-207.31 804.914 -171.545 791.061 -130.427 770.143C-48.2048 728.314 55.2228 658.342 160.348 570.132C265.473 481.921 352.342 392.216 407.813 318.506C435.553 281.645 455.407 248.829 465.778 222.231C470.964 208.932 473.76 197.237 474.012 187.397C474.265 177.565 471.979 169.65 467.072 163.802C462.164 157.954 454.766 154.328 445.041 152.87C435.306 151.41 423.303 152.132 409.305 154.93C381.311 160.525 345.546 174.379 304.428 195.297C222.206 237.125 118.778 307.098 13.6532 395.308C-91.4717 483.518 -178.341 573.224 -233.812 646.933C-261.552 683.794 -281.406 716.61 -291.777 743.208C-296.963 756.507 -299.759 768.203 -300.011 778.043C-300.264 787.874 -297.978 795.789 -293.071 801.637Z" stroke="#2B2C3B" stroke-width="2"/>
<path opacity="0.0689655" d="M-263.83 837.516C-258.431 842.915 -250.746 845.882 -240.93 846.487C-231.105 847.093 -219.211 845.328 -205.51 841.32C-178.109 833.306 -143.688 816.389 -104.549 791.967C-26.286 743.131 70.6495 664.41 167.686 567.374C264.723 470.337 343.444 373.401 392.279 295.138C416.701 255.999 433.619 221.578 441.633 194.177C445.64 180.477 447.406 168.582 446.8 158.758C446.194 148.942 443.227 141.256 437.829 135.858C432.431 130.459 424.745 127.492 414.929 126.887C405.105 126.281 393.21 128.047 379.509 132.054C352.109 140.068 317.688 156.985 278.549 181.408C200.285 230.243 103.35 308.964 6.31317 406C-90.7237 503.037 -169.444 599.973 -218.28 678.236C-242.702 717.375 -259.62 751.796 -267.634 779.197C-271.641 792.897 -273.406 804.792 -272.8 814.616C-272.195 824.432 -269.228 832.118 -263.83 837.516Z" stroke="#2B2C3B" stroke-width="2"/>
<path opacity="0.103448" d="M-231.917 870.728C-226.069 875.635 -218.154 877.921 -208.322 877.669C-198.483 877.416 -186.787 874.621 -173.488 869.435C-146.89 859.063 -114.074 839.21 -77.2131 811.469C-3.50379 755.999 86.2019 669.129 174.412 564.004C262.622 458.879 332.595 355.452 374.424 273.23C395.341 232.111 409.195 196.347 414.79 168.352C417.588 154.354 418.31 142.351 416.85 132.617C415.392 122.891 411.766 115.493 405.918 110.586C400.07 105.678 392.155 103.393 382.323 103.645C372.483 103.897 360.788 106.693 347.489 111.879C320.891 122.251 288.075 142.104 251.214 169.844C177.504 225.315 87.7987 312.185 -0.411521 417.31C-88.6218 522.434 -158.594 625.862 -200.423 708.084C-221.341 749.202 -235.194 784.967 -240.79 812.962C-243.587 826.96 -244.31 838.963 -242.85 848.697C-241.391 858.423 -237.765 865.821 -231.917 870.728Z" stroke="#2B2C3B" stroke-width="2"/>
<path opacity="0.137931" d="M-197.578 901.046C-191.325 905.425 -183.241 907.013 -173.469 905.904C-163.688 904.795 -152.281 900.991 -139.484 894.665C-113.892 882.015 -82.931 859.377 -48.6278 828.53C19.9665 766.846 101.76 672.489 180.472 560.076C259.184 447.663 319.876 338.53 354.38 252.976C371.634 210.191 382.318 173.355 385.452 144.979C387.019 130.79 386.693 118.77 384.39 109.2C382.089 99.6384 377.832 92.5845 371.579 88.2057C365.325 83.8269 357.241 82.2397 347.469 83.3478C337.688 84.457 326.281 88.2613 313.484 94.5867C287.892 107.237 256.931 129.875 222.628 160.722C154.034 222.406 72.2406 316.764 -6.47172 429.176C-85.1841 541.589 -145.876 650.722 -180.379 736.276C-197.634 779.061 -208.318 815.897 -211.452 844.273C-213.019 858.462 -212.692 870.482 -210.389 880.052C-208.089 889.614 -203.832 896.668 -197.578 901.046Z" stroke="#2B2C3B" stroke-width="2"/>
<path opacity="0.172414" d="M-161.074 928.272C-154.462 932.089 -146.271 932.965 -136.632 931.01C-126.986 929.052 -115.954 924.268 -103.757 916.852C-79.3643 902.019 -50.4945 876.769 -19.0103 843.049C43.9468 775.622 117.205 674.494 185.82 555.649C254.436 436.804 305.385 322.797 332.301 234.561C345.761 190.435 353.193 152.808 353.842 124.267C354.167 109.996 352.794 98.0494 349.666 88.7166C346.54 79.3918 341.685 72.7357 335.074 68.9186C328.462 65.1014 320.27 64.2249 310.632 66.1805C300.986 68.1379 289.953 72.9219 277.757 80.3385C253.364 95.1712 224.494 120.421 193.01 154.141C130.053 221.569 56.7948 322.696 -11.8206 441.541C-80.436 560.386 -131.386 674.393 -158.301 762.63C-171.761 806.755 -179.193 844.383 -179.843 872.924C-180.167 887.195 -178.794 899.141 -175.666 908.474C-172.541 917.798 -167.685 924.454 -161.074 928.272Z" stroke="#2B2C3B" stroke-width="2"/>
<path opacity="0.206897" d="M-122.681 952.227C-115.762 955.453 -107.525 955.612 -98.094 952.824C-88.6548 950.034 -78.0814 944.306 -66.5775 935.855C-43.5705 918.952 -17.0113 891.282 11.4143 854.947C68.2552 782.289 132.421 675.162 190.417 550.788C248.413 426.415 289.233 308.401 308.355 218.155C317.918 173.024 322.043 134.892 320.202 106.403C319.282 92.1583 316.873 80.3772 312.943 71.3526C309.017 62.3357 303.6 56.1281 296.681 52.9017C289.762 49.6753 281.525 49.5161 272.094 52.3043C262.655 55.0949 252.081 60.8223 240.577 69.2737C217.57 86.1759 191.011 113.846 162.586 150.182C105.745 222.84 41.5791 329.967 -16.4171 454.34C-74.4134 578.713 -115.233 696.727 -134.355 786.973C-143.918 832.105 -148.043 870.236 -146.202 898.725C-145.282 912.97 -142.873 924.751 -138.943 933.776C-135.017 942.793 -129.6 949 -122.681 952.227Z" stroke="#2B2C3B" stroke-width="2"/>
<path opacity="0.241379" d="M-82.6927 972.762C-75.5188 975.373 -67.2992 974.813 -58.147 971.214C-48.9869 967.611 -38.953 960.984 -28.2294 951.562C-6.78307 932.719 17.2635 902.839 42.414 864.165C92.706 786.829 147.291 674.517 194.226 545.563C241.162 416.608 271.54 295.486 282.725 203.916C288.318 158.123 289.104 119.777 284.787 91.557C282.628 77.4464 279.202 65.9201 274.501 57.2723C269.803 48.6319 263.866 42.92 256.692 40.309C249.518 37.6979 241.299 38.2571 232.147 41.8568C222.987 45.4594 212.953 52.0865 202.229 61.5084C180.783 80.3515 156.736 110.231 131.586 148.906C81.2936 226.241 26.709 338.553 -20.2267 467.508C-67.1624 596.463 -97.5409 717.585 -108.725 809.154C-114.318 854.947 -115.104 893.293 -110.787 921.514C-108.629 935.624 -105.202 947.15 -100.501 955.798C-95.8037 964.439 -89.8666 970.15 -82.6927 972.762Z" stroke="#2B2C3B" stroke-width="2"/>
<path opacity="0.275862" d="M-41.4126 989.744C-34.0384 991.72 -25.8989 990.446 -17.0952 986.063C-8.28397 981.675 1.13418 974.199 10.9958 963.878C30.7182 943.238 52.0691 911.376 73.7531 870.656C117.114 789.232 161.702 672.59 197.22 540.035C232.738 407.48 252.444 284.172 255.605 191.976C257.186 145.87 254.626 107.601 247.867 79.8645C244.486 65.9957 240.068 54.8119 234.631 46.6068C229.199 38.4086 222.787 33.2359 215.412 31.26C208.038 29.2841 199.899 30.5577 191.095 34.9412C182.284 39.3286 172.866 46.8049 163.004 57.1256C143.282 77.7662 121.931 109.628 100.247 150.348C56.8862 231.772 12.2979 348.414 -23.22 480.969C-58.738 613.523 -78.4444 736.832 -81.6053 829.028C-83.1861 875.134 -80.6266 913.403 -73.8668 941.139C-70.4867 955.008 -66.0686 966.192 -60.6315 974.397C-55.1991 982.595 -48.7867 987.768 -41.4126 989.744Z" stroke="#2B2C3B" stroke-width="2"/>
<path opacity="0.310345" d="M0.844597 1003.08C8.3629 1004.41 16.3605 1002.43 24.7486 997.294C33.1439 992.156 41.8746 983.887 50.7992 972.746C68.6477 950.465 87.1403 916.864 105.193 874.409C141.292 789.516 175.544 669.432 199.374 534.286C223.204 399.14 232.088 274.582 227.202 182.462C224.758 136.393 218.873 98.4935 209.722 71.4517C205.146 57.9303 199.77 47.1741 193.638 39.4741C187.512 31.7806 180.673 27.1865 173.155 25.8608C165.637 24.5351 157.639 26.5132 149.251 31.6474C140.856 36.786 132.125 45.0548 123.2 56.1956C105.352 78.4766 86.8592 112.078 68.8065 154.532C32.7077 239.426 -1.54487 359.51 -25.3747 494.656C-49.2046 629.802 -58.0889 754.359 -53.2025 846.48C-50.7588 892.548 -44.8738 930.448 -35.7222 957.49C-31.1463 971.011 -25.7702 981.768 -19.6387 989.468C-13.5125 997.161 -6.67371 1001.76 0.844597 1003.08Z" stroke="#2B2C3B" stroke-width="2"/>
<path opacity="0.344828" d="M43.7583 1012.7C51.3635 1013.37 59.1583 1010.7 67.067 1004.85C74.9825 999.001 82.9593 990.003 90.8789 978.127C106.718 954.375 122.211 919.289 136.495 875.423C165.058 787.706 188.714 665.094 200.674 528.385C212.635 391.677 210.629 266.819 197.733 175.475C191.283 129.795 182.117 92.5521 170.644 66.4108C164.907 53.3397 158.614 43.093 151.834 35.9566C145.061 28.8264 137.848 24.8457 130.243 24.1804C122.637 23.515 114.843 26.1826 106.934 32.0283C99.0183 37.879 91.0415 46.8773 83.1219 58.7536C67.2833 82.5054 51.7895 117.591 37.5058 161.457C8.94324 249.174 -14.713 371.786 -26.6734 508.495C-38.6339 645.204 -36.6285 770.061 -23.7318 861.405C-17.2823 907.085 -8.11645 944.328 3.35711 970.469C9.0941 983.54 15.3872 993.787 22.1664 1000.92C28.9399 1008.05 36.1531 1012.03 43.7583 1012.7Z" stroke="#2B2C3B" stroke-width="2"/>
<path opacity="0.37931" d="M87.0001 1018.56C94.6344 1018.56 102.167 1015.22 109.536 1008.71C116.912 1002.19 124.074 992.531 130.928 980.01C144.636 954.968 157.013 918.666 167.42 873.722C188.228 783.849 201.108 659.642 201.108 522.411C201.108 385.18 188.228 260.972 167.42 171.1C157.013 126.156 144.636 89.8535 130.928 64.8117C124.074 52.2903 116.912 42.6311 109.536 36.1128C102.167 29.6 94.6344 26.2632 87.0001 26.2632C79.3659 26.2632 71.8332 29.6 64.4641 36.1128C57.0886 42.6311 49.9264 52.2903 43.0721 64.8117C29.3638 89.8535 16.9869 126.156 6.58068 171.1C-14.2281 260.972 -27.1079 385.18 -27.1079 522.411C-27.1079 659.642 -14.2281 783.849 6.58068 873.722C16.9869 918.666 29.3638 954.968 43.0721 980.01C49.9264 992.531 57.0886 1002.19 64.4641 1008.71C71.8332 1015.22 79.3659 1018.56 87.0001 1018.56Z" stroke="#2B2C3B" stroke-width="2"/>
<path opacity="0.413793" d="M130.242 1020.64C137.848 1019.98 145.061 1015.99 151.834 1008.86C158.614 1001.73 164.907 991.481 170.644 978.41C182.117 952.269 191.283 915.026 197.732 869.346C210.629 778.002 212.635 653.144 200.674 516.436C188.714 379.727 165.057 257.115 136.495 169.398C122.211 125.531 106.717 90.4461 90.8788 66.6943C82.9592 54.818 74.9824 45.8198 67.0669 39.969C59.1582 34.1233 51.3634 31.4557 43.7582 32.1211C36.1529 32.7865 28.9398 36.7671 22.1663 43.8973C15.387 51.0337 9.09396 61.2804 3.35697 74.3515C-8.11659 100.493 -17.2824 137.736 -23.7319 183.416C-36.6286 274.76 -38.634 399.617 -26.6736 536.326C-14.7131 673.035 8.94311 795.647 37.5056 883.364C51.7894 927.23 67.2831 962.315 83.1218 986.067C91.0414 997.944 99.0182 1006.94 106.934 1012.79C114.842 1018.64 122.637 1021.31 130.242 1020.64Z" stroke="#2B2C3B" stroke-width="2"/>
<path opacity="0.448276" d="M173.155 1018.96C180.674 1017.64 187.512 1013.04 193.639 1005.35C199.77 997.648 205.146 986.891 209.722 973.37C218.874 946.328 224.759 908.428 227.202 862.36C232.089 770.239 223.204 645.682 199.375 510.536C175.545 375.39 141.292 255.306 105.193 170.412C87.1407 127.958 68.648 94.3564 50.7995 72.0755C41.875 60.9346 33.1443 52.6658 24.749 47.5272C16.3609 42.3931 8.36326 40.415 0.844962 41.7406C-6.67334 43.0663 -13.5121 47.6605 -19.6384 55.3539C-25.7699 63.054 -31.1459 73.8102 -35.7219 87.3315C-44.8734 114.373 -50.7584 152.273 -53.2021 198.342C-58.0886 290.462 -49.2043 415.019 -25.3744 550.165C-1.5445 685.311 32.7081 805.396 68.8069 890.289C86.8596 932.744 105.352 966.345 123.201 988.626C132.125 999.767 140.856 1008.04 149.251 1013.17C157.639 1018.31 165.637 1020.29 173.155 1018.96Z" stroke="#2B2C3B" stroke-width="2"/>
<path opacity="0.482759" d="M215.413 1013.56C222.787 1011.58 229.199 1006.41 234.632 998.213C240.069 990.008 244.487 978.824 247.867 964.955C254.627 937.219 257.186 898.95 255.605 852.844C252.444 760.648 232.738 637.339 197.22 504.785C161.702 372.23 117.114 255.588 73.7535 174.164C52.0694 133.444 30.7185 101.582 10.9961 80.9417C1.13449 70.621 -8.28366 63.1446 -17.0949 58.7573C-25.8985 54.3737 -34.0381 53.1002 -41.4123 55.0761C-48.7864 57.052 -55.1988 62.2247 -60.6312 70.4228C-66.0682 78.628 -70.4864 89.8118 -73.8665 103.681C-80.6263 131.417 -83.1858 169.686 -81.605 215.792C-78.444 307.988 -58.7377 431.297 -23.2197 563.851C12.2982 696.406 56.8865 813.048 100.247 894.472C121.931 935.192 143.282 967.054 163.004 987.694C172.866 998.015 182.284 1005.49 191.095 1009.88C199.899 1014.26 208.039 1015.54 215.413 1013.56Z" stroke="#2B2C3B" stroke-width="2"/>
<path opacity="0.517241" d="M256.693 1004.51C263.866 1001.9 269.804 996.191 274.501 987.551C279.202 978.903 282.629 967.377 284.787 953.266C289.104 925.046 288.318 886.7 282.725 840.907C271.541 749.338 241.162 628.215 194.227 499.261C147.291 370.306 92.7062 257.994 42.4142 180.659C17.2637 141.984 -6.78287 112.104 -28.2292 93.2611C-38.9528 83.8392 -48.9867 77.2121 -58.1468 73.6094C-67.299 70.0098 -75.5186 69.4506 -82.6925 72.0616C-89.8664 74.6727 -95.8035 80.3846 -100.501 89.025C-105.202 97.6728 -108.629 109.199 -110.787 123.31C-115.104 151.53 -114.318 189.876 -108.725 235.669C-97.5406 327.238 -67.1622 448.36 -20.2265 577.315C26.7092 706.27 81.2938 818.582 131.586 895.917C156.736 934.592 180.783 964.472 202.229 983.315C212.953 992.737 222.987 999.364 232.147 1002.97C241.299 1006.57 249.519 1007.13 256.693 1004.51Z" stroke="#2B2C3B" stroke-width="2"/>
<path opacity="0.551724" d="M296.681 991.919C303.6 988.692 309.017 982.485 312.943 973.468C316.872 964.443 319.281 952.662 320.202 938.417C322.043 909.928 317.918 871.796 308.355 826.665C289.232 736.419 248.413 618.405 190.417 494.032C132.421 369.659 68.255 262.531 11.4141 189.873C-17.0114 153.538 -43.5706 125.868 -66.5776 108.966C-78.0816 100.514 -88.6549 94.7867 -98.0941 91.9961C-107.525 89.2079 -115.762 89.3671 -122.681 92.5935C-129.6 95.8199 -135.017 102.028 -138.943 111.044C-142.873 120.069 -145.282 131.85 -146.202 146.095C-148.043 174.584 -143.918 212.716 -134.355 257.847C-115.233 348.093 -74.4135 466.107 -16.4172 590.48C41.579 714.854 105.745 821.981 162.585 894.639C191.011 930.974 217.57 958.644 240.577 975.547C252.081 983.998 262.654 989.725 272.094 992.516C281.525 995.304 289.762 995.145 296.681 991.919Z" stroke="#2B2C3B" stroke-width="2"/>
<path opacity="0.586207" d="M335.074 975.902C341.685 972.085 346.54 965.429 349.666 956.104C352.794 946.771 354.167 934.825 353.842 920.554C353.193 892.013 345.761 854.386 332.301 810.26C305.386 722.024 254.436 608.017 185.821 489.172C117.205 370.326 43.9471 269.199 -19.0101 201.772C-50.4943 168.052 -79.3641 142.802 -103.757 127.969C-115.953 120.553 -126.986 115.769 -136.632 113.811C-146.27 111.856 -154.462 112.732 -161.074 116.549C-167.685 120.366 -172.54 127.023 -175.666 136.347C-178.794 145.68 -180.167 157.626 -179.842 171.897C-179.193 200.438 -171.761 238.065 -158.301 282.191C-131.385 370.428 -80.4358 484.434 -11.8204 603.28C56.795 722.125 130.053 823.252 193.01 890.68C224.494 924.399 253.364 949.65 277.757 964.482C289.954 971.899 300.986 976.683 310.632 978.64C320.271 980.596 328.462 979.719 335.074 975.902Z" stroke="#2B2C3B" stroke-width="2"/>
<path opacity="0.62069" d="M371.578 956.615C377.832 952.236 382.089 945.182 384.389 935.62C386.692 926.05 387.019 914.03 385.452 899.841C382.317 871.466 371.634 834.63 354.379 791.845C319.876 706.29 259.184 597.158 180.472 484.745C101.759 372.332 19.9662 277.974 -48.6281 216.291C-82.9313 185.443 -113.892 162.805 -139.485 150.155C-152.281 143.829 -163.688 140.025 -173.469 138.916C-183.241 137.808 -191.325 139.395 -197.579 143.774C-203.832 148.153 -208.089 155.207 -210.39 164.768C-212.693 174.338 -213.019 186.359 -211.452 200.547C-208.318 228.923 -197.634 265.759 -180.38 308.544C-145.876 394.099 -85.1844 503.231 -6.47201 615.644C72.2403 728.057 154.033 822.414 222.628 884.098C256.931 914.945 287.892 937.583 313.484 950.234C326.281 956.559 337.688 960.363 347.469 961.473C357.241 962.581 365.325 960.994 371.578 956.615Z" stroke="#2B2C3B" stroke-width="2"/>
<path opacity="0.655172" d="M405.918 934.236C411.766 929.329 415.391 921.931 416.85 912.205C418.31 902.471 417.588 890.468 414.79 876.47C409.194 848.475 395.341 812.71 374.423 771.592C332.595 689.37 262.622 585.943 174.412 480.818C86.2015 375.693 -3.50411 288.823 -77.2135 233.353C-114.075 205.612 -146.891 185.759 -173.488 175.387C-186.788 170.201 -198.483 167.406 -208.323 167.153C-218.154 166.901 -226.069 169.187 -231.918 174.094C-237.766 179.001 -241.391 186.399 -242.85 196.125C-244.31 205.859 -243.588 217.862 -240.79 231.86C-235.195 259.855 -221.341 295.62 -200.423 336.738C-158.595 418.96 -88.6221 522.387 -0.411859 627.512C87.7984 732.637 177.504 819.507 251.213 874.977C288.075 902.718 320.89 922.571 347.488 932.943C360.788 938.129 372.483 940.924 382.323 941.177C392.154 941.429 400.069 939.143 405.918 934.236Z" stroke="#2B2C3B" stroke-width="2"/>
<path opacity="0.689655" d="M437.829 908.963C443.228 903.565 446.195 895.879 446.8 886.063C447.406 876.238 445.641 864.344 441.633 850.643C433.619 823.243 416.702 788.821 392.28 749.683C343.444 671.419 264.723 574.484 167.687 477.447C70.6498 380.41 -26.2857 301.689 -104.549 252.854C-143.688 228.432 -178.109 211.514 -205.51 203.5C-219.21 199.493 -231.105 197.727 -240.929 198.333C-250.745 198.939 -258.431 201.906 -263.829 207.304C-269.228 212.702 -272.195 220.388 -272.8 230.204C-273.406 240.029 -271.64 251.923 -267.633 265.624C-259.619 293.024 -242.702 327.446 -218.279 366.584C-169.444 444.848 -90.7234 541.783 6.31345 638.82C103.35 735.857 200.286 814.578 278.549 863.413C317.688 887.835 352.109 904.753 379.51 912.767C393.21 916.774 405.105 918.54 414.929 917.934C424.745 917.328 432.431 914.361 437.829 908.963Z" stroke="#2B2C3B" stroke-width="2"/>
<path opacity="0.724138" d="M467.072 881.02C471.979 875.172 474.264 867.257 474.012 857.426C473.76 847.586 470.964 835.89 465.778 822.591C455.406 795.993 435.553 763.177 407.813 726.316C352.342 652.607 265.472 562.901 160.348 474.691C55.2227 386.481 -48.2049 316.508 -130.427 274.68C-171.545 253.762 -207.31 239.908 -235.305 234.313C-249.302 231.515 -261.306 230.793 -271.04 232.253C-280.766 233.711 -288.164 237.337 -293.071 243.185C-297.978 249.033 -300.264 256.949 -300.012 266.78C-299.759 276.62 -296.963 288.315 -291.777 301.614C-281.406 328.212 -261.552 361.028 -233.812 397.889C-178.341 471.599 -91.4718 561.304 13.6531 649.515C118.778 737.725 222.206 807.697 304.428 849.526C345.546 870.444 381.311 884.297 409.305 889.893C423.303 892.69 435.306 893.413 445.04 891.953C454.766 890.494 462.164 886.869 467.072 881.02Z" stroke="#2B2C3B" stroke-width="2"/>
<path opacity="0.758621" d="M493.42 850.651C497.799 844.398 499.387 836.313 498.278 826.541C497.169 816.761 493.365 805.354 487.04 792.557C474.389 766.964 451.751 736.004 420.904 701.701C359.22 633.106 264.863 551.313 152.45 472.601C40.0369 393.888 -69.0956 333.196 -154.65 298.693C-197.435 281.439 -234.271 270.755 -262.647 267.621C-276.835 266.054 -288.856 266.38 -298.426 268.683C-307.988 270.984 -315.041 275.24 -319.42 281.494C-323.799 287.748 -325.386 295.832 -324.278 305.604C-323.169 315.384 -319.365 326.792 -313.039 339.588C-300.389 365.181 -277.751 396.141 -246.904 430.445C-185.22 499.039 -90.8625 580.832 21.5504 659.544C133.963 738.257 243.096 798.949 328.65 833.452C371.435 850.707 408.272 861.39 436.647 864.525C450.836 866.092 462.856 865.765 472.426 863.462C481.988 861.161 489.042 856.905 493.42 850.651Z" stroke="#2B2C3B" stroke-width="2"/>
<path opacity="0.793103" d="M516.677 818.115C520.494 811.504 521.37 803.312 519.415 793.674C517.457 784.027 512.673 772.995 505.257 760.798C490.424 736.406 465.174 707.536 431.454 676.052C364.027 613.095 262.899 539.837 144.054 471.221C25.2088 402.606 -88.7981 351.656 -177.034 324.741C-221.16 311.281 -258.787 303.848 -287.328 303.199C-301.599 302.875 -313.546 304.248 -322.878 307.376C-332.203 310.501 -338.859 315.356 -342.676 321.968C-346.494 328.579 -347.37 336.771 -345.414 346.409C-343.457 356.056 -338.673 367.088 -331.256 379.285C-316.424 403.677 -291.174 432.547 -257.454 464.031C-190.026 526.989 -88.8993 600.247 29.9461 668.862C148.791 737.478 262.798 788.427 351.035 815.342C395.161 828.802 432.788 836.235 461.329 836.884C475.6 837.209 487.546 835.836 496.879 832.708C506.203 829.582 512.859 824.727 516.677 818.115Z" stroke="#2B2C3B" stroke-width="2"/>
<path opacity="0.827586" d="M536.663 783.692C539.889 776.773 540.048 768.536 537.26 759.105C534.47 749.666 528.742 739.093 520.291 727.589C503.389 704.582 475.718 678.022 439.383 649.597C366.725 592.756 259.598 528.591 135.224 470.594C10.8511 412.598 -107.163 371.779 -197.409 352.656C-242.54 343.093 -280.672 338.968 -309.161 340.809C-323.406 341.73 -335.187 344.139 -344.211 348.068C-353.228 351.995 -359.436 357.411 -362.662 364.33C-365.889 371.249 -366.048 379.486 -363.26 388.917C-360.469 398.357 -354.742 408.93 -346.29 420.434C-329.388 443.441 -301.718 470 -265.382 498.426C-192.724 555.267 -85.5972 619.432 38.7761 677.428C163.149 735.425 281.163 776.244 371.409 795.367C416.541 804.93 454.672 809.054 483.161 807.213C497.406 806.293 509.187 803.884 518.212 799.954C527.229 796.028 533.436 790.611 536.663 783.692Z" stroke="#2B2C3B" stroke-width="2"/>
<path opacity="0.862069" d="M553.226 747.673C555.837 740.499 555.278 732.279 551.678 723.127C548.075 713.967 541.448 703.933 532.026 693.209C513.183 671.763 483.304 647.717 444.629 622.566C367.294 572.274 254.982 517.689 126.027 470.754C-2.9279 423.818 -124.05 393.439 -215.62 382.255C-261.412 376.662 -299.759 375.876 -327.979 380.193C-342.089 382.352 -353.616 385.778 -362.263 390.479C-370.904 395.177 -376.616 401.114 -379.227 408.288C-381.838 415.462 -381.278 423.681 -377.679 432.833C-374.076 441.993 -367.449 452.027 -358.027 462.751C-339.184 484.197 -309.304 508.244 -270.63 533.394C-193.294 583.686 -80.9824 638.271 47.9724 685.207C176.927 732.142 298.049 762.521 389.619 773.705C435.412 779.298 473.758 780.084 501.978 775.767C516.088 773.609 527.615 770.182 536.263 765.481C544.903 760.784 550.615 754.847 553.226 747.673Z" stroke="#2B2C3B" stroke-width="2"/>
<path opacity="0.896552" d="M566.242 710.362C568.218 702.988 566.944 694.848 562.561 686.044C558.173 677.233 550.697 667.815 540.376 657.953C519.736 638.231 487.874 616.88 447.154 595.196C365.73 551.836 249.088 507.247 116.533 471.729C-16.0215 436.211 -139.33 416.505 -231.526 413.344C-277.632 411.763 -315.901 414.323 -343.637 421.083C-357.506 424.463 -368.69 428.881 -376.895 434.318C-385.093 439.75 -390.266 446.163 -392.242 453.537C-394.218 460.911 -392.944 469.051 -388.561 477.854C-384.173 486.665 -376.697 496.084 -366.376 505.945C-345.736 525.668 -313.874 547.019 -273.154 568.703C-191.73 612.063 -75.0882 656.651 57.4666 692.169C190.021 727.687 313.33 747.394 405.526 750.555C451.632 752.135 489.901 749.576 517.637 742.816C531.506 739.436 542.69 735.018 550.895 729.581C559.093 724.148 564.266 717.736 566.242 710.362Z" stroke="#2B2C3B" stroke-width="2"/>
<path opacity="0.931035" d="M575.61 672.074C576.936 664.556 574.958 656.558 569.823 648.17C564.685 639.775 556.416 631.044 545.275 622.119C522.994 604.271 489.393 585.778 446.938 567.726C362.045 531.627 241.961 497.374 106.815 473.544C-28.3314 449.714 -152.889 440.83 -245.009 445.717C-291.078 448.16 -328.977 454.045 -356.019 463.197C-369.541 467.773 -380.297 473.149 -387.997 479.28C-395.69 485.407 -400.284 492.245 -401.61 499.764C-402.936 507.282 -400.958 515.279 -395.824 523.668C-390.685 532.063 -382.416 540.794 -371.275 549.718C-348.994 567.567 -315.393 586.059 -272.938 604.112C-188.045 640.211 -67.9607 674.463 67.1853 698.293C202.331 722.123 326.889 731.007 419.009 726.121C465.077 723.677 502.977 717.792 530.019 708.641C543.541 704.065 554.297 698.689 561.997 692.557C569.69 686.431 574.284 679.592 575.61 672.074Z" stroke="#2B2C3B" stroke-width="2"/>
<path opacity="0.965517" d="M581.259 633.129C581.925 625.524 579.257 617.729 573.411 609.82C567.561 601.905 558.562 593.928 546.686 586.008C522.934 570.17 487.849 554.676 443.983 540.392C356.266 511.83 233.653 488.173 96.9448 476.213C-39.7638 464.252 -164.621 466.258 -255.965 479.155C-301.646 485.604 -338.888 494.77 -365.03 506.243C-378.101 511.98 -388.347 518.274 -395.484 525.053C-402.614 531.826 -406.595 539.039 -407.26 546.645C-407.925 554.25 -405.258 562.045 -399.412 569.953C-393.561 577.869 -384.563 585.846 -372.687 593.765C-348.935 609.604 -313.85 625.098 -269.983 639.381C-182.267 667.944 -59.6541 691.6 77.0545 703.561C213.763 715.521 338.621 713.516 429.965 700.619C475.645 694.169 512.888 685.004 539.029 673.53C552.1 667.793 562.347 661.5 569.483 654.721C576.613 647.947 580.594 640.734 581.259 633.129Z" stroke="#2B2C3B" stroke-width="2"/>
<path d="M583.148 593.857C583.148 586.223 579.811 578.69 573.298 571.321C566.78 563.945 557.121 556.783 544.599 549.929C519.558 536.22 483.255 523.844 438.311 513.437C348.439 492.629 224.231 479.749 87.0002 479.749C-50.2306 479.749 -174.438 492.629 -264.311 513.437C-309.255 523.844 -345.557 536.22 -370.599 549.929C-383.12 556.783 -392.78 563.945 -399.298 571.321C-405.811 578.69 -409.147 586.223 -409.147 593.857C-409.147 601.491 -405.811 609.024 -399.298 616.393C-392.78 623.768 -383.12 630.93 -370.599 637.785C-345.557 651.493 -309.255 663.87 -264.311 674.276C-174.438 695.085 -50.2306 707.965 87.0002 707.965C224.231 707.965 348.439 695.085 438.311 674.276C483.255 663.87 519.558 651.493 544.599 637.785C557.121 630.93 566.78 623.768 573.298 616.393C579.811 609.024 583.148 601.491 583.148 593.857Z" stroke="#2B2C3B" stroke-width="2"/>
</g>
</svg>
