<svg width="823" height="784" viewBox="0 0 823 784" fill="none" xmlns="http://www.w3.org/2000/svg">
<g opacity="0.06">
<path opacity="0.0344828" d="M129.929 540.637C134.837 546.485 142.235 550.111 151.96 551.57C161.695 553.029 173.698 552.307 187.696 549.509C215.69 543.914 251.455 530.061 292.573 509.143C374.795 467.314 478.223 397.342 583.348 309.131C688.473 220.921 775.342 131.215 830.813 57.506C858.553 20.6448 878.407 -12.1711 888.778 -38.7688C893.964 -52.0681 896.76 -63.7635 897.012 -73.6033C897.265 -83.4348 894.979 -91.3499 890.072 -97.1981C885.164 -103.046 877.766 -106.672 868.041 -108.131C858.306 -109.591 846.303 -108.868 832.305 -106.07C804.311 -100.475 768.546 -86.6217 727.428 -65.7037C645.206 -23.8753 541.778 46.0974 436.653 134.308C331.528 222.518 244.659 312.224 189.188 385.933C161.448 422.794 141.594 455.61 131.223 482.208C126.037 495.507 123.241 507.202 122.989 517.042C122.736 526.874 125.022 534.789 129.929 540.637Z" stroke="#2B2C3B" stroke-width="2"/>
<path opacity="0.0689655" d="M159.17 576.517C164.569 581.915 172.254 584.882 182.07 585.487C191.895 586.093 203.789 584.328 217.49 580.321C244.891 572.307 279.312 555.389 318.451 530.967C396.714 482.131 493.649 403.411 590.686 306.374C687.723 209.337 766.444 112.402 815.279 34.1381C839.701 -5.00063 856.619 -39.4219 864.633 -66.8224C868.64 -80.5231 870.406 -92.4176 869.8 -102.242C869.194 -112.058 866.227 -119.744 860.829 -125.142C855.431 -130.54 847.745 -133.507 837.929 -134.113C828.105 -134.719 816.21 -132.953 802.509 -128.946C775.109 -120.932 740.688 -104.014 701.549 -79.5922C623.285 -30.7568 526.35 47.9639 429.313 145.001C332.276 242.038 253.556 338.973 204.72 417.237C180.298 456.375 163.38 490.796 155.366 518.197C151.359 531.898 149.594 543.792 150.2 553.617C150.805 563.433 153.772 571.118 159.17 576.517Z" stroke="#2B2C3B" stroke-width="2"/>
<path opacity="0.103448" d="M191.083 609.728C196.931 614.635 204.846 616.921 214.678 616.669C224.517 616.416 236.213 613.621 249.512 608.435C276.11 598.063 308.926 578.21 345.787 550.469C419.496 494.999 509.202 408.129 597.412 303.004C685.622 197.879 755.595 94.4516 797.424 12.2297C818.341 -28.8886 832.195 -64.6534 837.79 -92.648C840.588 -106.646 841.31 -118.649 839.85 -128.383C838.392 -138.109 834.766 -145.507 828.918 -150.414C823.07 -155.322 815.155 -157.607 805.323 -157.355C795.483 -157.103 783.788 -154.307 770.489 -149.121C743.891 -138.749 711.075 -118.896 674.214 -91.1556C600.504 -35.6849 510.799 51.1847 422.588 156.31C334.378 261.434 264.406 364.862 222.577 447.084C201.659 488.202 187.806 523.967 182.21 551.962C179.413 565.96 178.69 577.963 180.15 587.697C181.609 597.423 185.235 604.821 191.083 609.728Z" stroke="#2B2C3B" stroke-width="2"/>
<path opacity="0.137931" d="M225.422 640.047C231.675 644.426 239.759 646.013 249.531 644.905C259.312 643.795 270.719 639.991 283.516 633.666C309.108 621.015 340.069 598.377 374.372 567.53C442.966 505.846 524.76 411.489 603.472 299.076C682.184 186.663 742.876 77.5306 777.38 -8.02404C794.634 -50.809 805.318 -87.6451 808.452 -116.021C810.019 -130.209 809.693 -142.23 807.39 -151.8C805.089 -161.361 800.832 -168.415 794.579 -172.794C788.325 -177.173 780.241 -178.76 770.469 -177.652C760.688 -176.543 749.281 -172.738 736.484 -166.413C710.892 -153.763 679.931 -131.125 645.628 -100.277C577.034 -38.5937 495.241 55.7637 416.528 168.177C337.816 280.59 277.124 389.722 242.621 475.277C225.366 518.062 214.682 554.898 211.548 583.274C209.981 597.462 210.308 609.482 212.611 619.052C214.911 628.614 219.168 635.668 225.422 640.047Z" stroke="#2B2C3B" stroke-width="2"/>
<path opacity="0.172414" d="M261.926 667.272C268.538 671.089 276.729 671.965 286.368 670.01C296.014 668.052 307.046 663.268 319.243 655.852C343.636 641.019 372.505 615.769 403.99 582.049C466.947 514.622 540.205 413.494 608.82 294.649C677.436 175.804 728.385 61.7968 755.301 -26.4394C768.761 -70.5654 776.193 -108.192 776.842 -136.733C777.167 -151.004 775.794 -162.951 772.666 -172.283C769.54 -181.608 764.685 -188.264 758.074 -192.081C751.462 -195.899 743.27 -196.775 733.632 -194.819C723.986 -192.862 712.953 -188.078 700.757 -180.661C676.364 -165.829 647.494 -140.579 616.01 -106.859C553.053 -39.4314 479.795 61.6957 411.179 180.541C342.564 299.386 291.614 413.393 264.699 501.63C251.239 545.755 243.807 583.383 243.157 611.924C242.833 626.195 244.206 638.141 247.334 647.474C250.459 656.798 255.315 663.454 261.926 667.272Z" stroke="#2B2C3B" stroke-width="2"/>
<path opacity="0.206897" d="M300.319 691.227C307.238 694.453 315.475 694.613 324.906 691.824C334.345 689.034 344.919 683.306 356.422 674.855C379.43 657.953 405.989 630.282 434.414 593.947C491.255 521.289 555.421 414.162 613.417 289.789C671.413 165.415 712.233 47.4016 731.355 -42.8446C740.918 -87.9758 745.043 -126.107 743.202 -154.596C742.282 -168.841 739.873 -180.623 735.943 -189.647C732.017 -198.664 726.6 -204.872 719.681 -208.098C712.762 -211.324 704.525 -211.484 695.094 -208.695C685.655 -205.905 675.081 -200.177 663.577 -191.726C640.57 -174.824 614.011 -147.154 585.586 -110.818C528.745 -38.1602 464.579 68.967 406.583 193.34C348.587 317.714 307.767 435.727 288.645 525.974C279.082 571.105 274.957 609.236 276.798 637.725C277.718 651.97 280.127 663.751 284.057 672.776C287.983 681.793 293.4 688.001 300.319 691.227Z" stroke="#2B2C3B" stroke-width="2"/>
<path opacity="0.241379" d="M340.307 711.761C347.481 714.372 355.701 713.813 364.853 710.214C374.013 706.611 384.047 699.984 394.771 690.562C416.217 671.719 440.263 641.839 465.414 603.164C515.706 525.829 570.291 413.517 617.226 284.562C664.162 155.608 694.54 34.4853 705.725 -57.0842C711.318 -102.877 712.104 -141.223 707.787 -169.443C705.628 -183.554 702.202 -195.08 697.501 -203.728C692.803 -212.368 686.866 -218.08 679.692 -220.691C672.518 -223.302 664.299 -222.743 655.147 -219.143C645.987 -215.541 635.953 -208.914 625.229 -199.492C603.783 -180.649 579.736 -150.769 554.586 -112.094C504.294 -34.7589 449.709 77.553 402.773 206.508C355.838 335.463 325.459 456.585 314.275 548.154C308.682 593.947 307.896 632.293 312.213 660.513C314.371 674.624 317.798 686.15 322.499 694.798C327.196 703.438 333.133 709.15 340.307 711.761Z" stroke="#2B2C3B" stroke-width="2"/>
<path opacity="0.275862" d="M381.587 728.744C388.962 730.72 397.101 729.446 405.905 725.063C414.716 720.675 424.134 713.199 433.996 702.878C453.718 682.238 475.069 650.376 496.753 609.656C540.114 528.232 584.702 411.59 620.22 279.035C655.738 146.48 675.444 23.1715 678.605 -69.0243C680.186 -115.13 677.626 -153.399 670.867 -181.136C667.486 -195.004 663.068 -206.188 657.631 -214.393C652.199 -222.591 645.787 -227.764 638.412 -229.74C631.038 -231.716 622.899 -230.442 614.095 -226.059C605.284 -221.671 595.866 -214.195 586.004 -203.874C566.282 -183.234 544.931 -151.372 523.247 -110.652C479.886 -29.2281 435.298 87.4138 399.78 219.969C364.262 352.523 344.556 475.832 341.395 568.028C339.814 614.134 342.373 652.403 349.133 680.139C352.513 694.008 356.931 705.192 362.369 713.397C367.801 721.595 374.213 726.768 381.587 728.744Z" stroke="#2B2C3B" stroke-width="2"/>
<path opacity="0.310345" d="M423.845 742.081C431.363 743.407 439.361 741.429 447.749 736.294C456.144 731.156 464.875 722.887 473.799 711.746C491.648 689.465 510.14 655.864 528.193 613.409C564.292 528.516 598.544 408.432 622.374 273.286C646.204 138.14 655.088 13.5824 650.202 -78.5381C647.758 -124.607 641.873 -162.507 632.722 -189.548C628.146 -203.07 622.77 -213.826 616.638 -221.526C610.512 -229.219 603.673 -233.814 596.155 -235.139C588.637 -236.465 580.639 -234.487 572.251 -229.353C563.856 -224.214 555.125 -215.945 546.2 -204.804C528.352 -182.523 509.859 -148.922 491.807 -106.468C455.708 -21.5738 421.455 98.5103 397.625 233.656C373.795 368.802 364.911 493.359 369.798 585.48C372.241 631.548 378.126 669.448 387.278 696.49C391.854 710.011 397.23 720.768 403.361 728.468C409.488 736.161 416.326 740.755 423.845 742.081Z" stroke="#2B2C3B" stroke-width="2"/>
<path opacity="0.344828" d="M466.758 751.7C474.364 752.365 482.158 749.698 490.067 743.852C497.983 738.001 505.959 729.003 513.879 717.127C529.718 693.375 545.211 658.289 559.495 614.423C588.058 526.706 611.714 404.094 623.674 267.385C635.635 130.677 633.629 5.81906 620.733 -85.525C614.283 -131.205 605.117 -168.448 593.644 -194.589C587.907 -207.66 581.614 -217.907 574.834 -225.043C568.061 -232.174 560.848 -236.154 553.243 -236.82C545.637 -237.485 537.843 -234.817 529.934 -228.972C522.018 -223.121 514.042 -214.123 506.122 -202.246C490.283 -178.495 474.79 -143.409 460.506 -99.543C431.943 -11.8262 408.287 110.786 396.327 247.495C384.366 384.204 386.372 509.061 399.268 600.405C405.718 646.085 414.884 683.328 426.357 709.469C432.094 722.54 438.387 732.787 445.166 739.924C451.94 747.054 459.153 751.034 466.758 751.7Z" stroke="#2B2C3B" stroke-width="2"/>
<path opacity="0.37931" d="M510 757.558C517.634 757.558 525.167 754.221 532.536 747.709C539.912 741.19 547.074 731.531 553.928 719.01C567.636 693.968 580.013 657.666 590.42 612.722C611.228 522.849 624.108 398.641 624.108 261.411C624.108 124.18 611.228 -0.0278625 590.42 -89.9003C580.013 -134.845 567.636 -171.147 553.928 -196.189C547.074 -208.71 539.912 -218.369 532.536 -224.887C525.167 -231.4 517.634 -234.737 510 -234.737C502.366 -234.737 494.833 -231.4 487.464 -224.887C480.089 -218.369 472.926 -208.71 466.072 -196.189C452.364 -171.147 439.987 -134.845 429.581 -89.9003C408.772 -0.0278625 395.892 124.18 395.892 261.411C395.892 398.641 408.772 522.849 429.581 612.722C439.987 657.666 452.364 693.968 466.072 719.01C472.926 731.531 480.089 741.19 487.464 747.709C494.833 754.221 502.366 757.558 510 757.558Z" stroke="#2B2C3B" stroke-width="2"/>
<path opacity="0.413793" d="M553.242 759.641C560.848 758.975 568.061 754.995 574.834 747.865C581.614 740.728 587.907 730.481 593.644 717.41C605.117 691.269 614.283 654.026 620.732 608.346C633.629 517.002 635.635 392.144 623.674 255.436C611.714 118.727 588.057 -3.88522 559.495 -91.6021C545.211 -135.468 529.717 -170.554 513.879 -194.305C505.959 -206.182 497.982 -215.18 490.067 -221.031C482.158 -226.876 474.363 -229.544 466.758 -228.879C459.153 -228.213 451.94 -224.233 445.166 -217.102C438.387 -209.966 432.094 -199.719 426.357 -186.648C414.883 -160.507 405.718 -123.264 399.268 -77.584C386.371 13.76 384.366 138.618 396.326 275.326C408.287 412.035 431.943 534.647 460.506 622.364C474.789 666.23 490.283 701.316 506.122 725.067C514.041 736.944 522.018 745.942 529.934 751.793C537.842 757.639 545.637 760.306 553.242 759.641Z" stroke="#2B2C3B" stroke-width="2"/>
<path opacity="0.448276" d="M596.155 757.961C603.674 756.635 610.512 752.041 616.639 744.347C622.77 736.647 628.146 725.891 632.722 712.37C641.874 685.328 647.759 647.428 650.202 601.36C655.089 509.239 646.204 384.682 622.375 249.536C598.545 114.39 564.292 -5.69425 528.193 -90.5879C510.141 -133.042 491.648 -166.644 473.8 -188.925C464.875 -200.066 456.144 -208.334 447.749 -213.473C439.361 -218.607 431.363 -220.585 423.845 -219.26C416.327 -217.934 409.488 -213.34 403.362 -205.646C397.23 -197.946 391.854 -187.19 387.278 -173.669C378.127 -146.627 372.242 -108.727 369.798 -62.6586C364.911 29.4619 373.796 154.019 397.626 289.165C421.455 424.311 455.708 544.395 491.807 629.289C509.86 671.743 528.352 705.345 546.201 727.626C555.125 738.767 563.856 747.035 572.251 752.174C580.639 757.308 588.637 759.286 596.155 757.961Z" stroke="#2B2C3B" stroke-width="2"/>
<path opacity="0.482759" d="M638.413 752.56C645.787 750.584 652.199 745.411 657.632 737.213C663.069 729.008 667.487 717.824 670.867 703.955C677.627 676.219 680.186 637.95 678.605 591.844C675.444 499.648 655.738 376.339 620.22 243.785C584.702 111.23 540.114 -5.412 496.753 -86.8364C475.069 -127.556 453.719 -159.418 433.996 -180.058C424.134 -190.379 414.716 -197.855 405.905 -202.243C397.101 -206.626 388.962 -207.9 381.588 -205.924C374.214 -203.948 367.801 -198.775 362.369 -190.577C356.932 -182.372 352.514 -171.188 349.134 -157.319C342.374 -129.583 339.814 -91.3144 341.395 -45.2082C344.556 46.9876 364.262 170.297 399.78 302.851C435.298 435.406 479.886 552.048 523.247 633.472C544.931 674.192 566.282 706.054 586.004 726.694C595.866 737.015 605.284 744.491 614.095 748.879C622.899 753.262 631.039 754.536 638.413 752.56Z" stroke="#2B2C3B" stroke-width="2"/>
<path opacity="0.517241" d="M679.693 743.514C686.866 740.903 692.804 735.191 697.501 726.551C702.202 717.903 705.629 706.377 707.787 692.266C712.104 664.046 711.318 625.7 705.725 579.907C694.541 488.338 664.162 367.215 617.227 238.261C570.291 109.306 515.706 -3.00597 465.414 -80.3414C440.264 -119.016 416.217 -148.896 394.771 -167.739C384.047 -177.161 374.013 -183.788 364.853 -187.391C355.701 -190.99 347.481 -191.549 340.308 -188.938C333.134 -186.327 327.197 -180.615 322.499 -171.975C317.798 -163.327 314.371 -151.801 312.213 -137.69C307.896 -109.47 308.682 -71.1242 314.275 -25.3313C325.459 66.2382 355.838 187.36 402.774 316.315C449.709 445.27 504.294 557.582 554.586 634.917C579.736 673.592 603.783 703.472 625.229 722.315C635.953 731.737 645.987 738.364 655.147 741.966C664.299 745.566 672.519 746.125 679.693 743.514Z" stroke="#2B2C3B" stroke-width="2"/>
<path opacity="0.551724" d="M719.681 730.919C726.6 727.692 732.017 721.485 735.943 712.468C739.872 703.443 742.281 691.662 743.202 677.417C745.043 648.928 740.918 610.797 731.355 565.665C712.232 475.419 671.413 357.405 613.417 233.032C555.421 108.659 491.255 1.53165 434.414 -71.1263C405.989 -107.462 379.429 -135.132 356.422 -152.034C344.918 -160.486 334.345 -166.213 324.906 -169.004C315.475 -171.792 307.238 -171.633 300.319 -168.406C293.4 -165.18 287.983 -158.972 284.057 -149.955C280.127 -140.931 277.718 -129.15 276.798 -114.905C274.957 -86.4157 279.082 -48.284 288.645 -3.15282C307.767 87.0935 348.587 205.107 406.583 329.48C464.579 453.854 528.745 560.981 585.585 633.639C614.011 669.974 640.57 697.645 663.577 714.547C675.081 722.998 685.654 728.726 695.094 731.516C704.525 734.304 712.762 734.145 719.681 730.919Z" stroke="#2B2C3B" stroke-width="2"/>
<path opacity="0.586207" d="M758.074 714.903C764.685 711.085 769.54 704.429 772.666 695.105C775.794 685.772 777.167 673.825 776.842 659.554C776.193 631.014 768.761 593.386 755.301 549.261C728.386 461.024 677.436 347.017 608.821 228.172C540.205 109.327 466.947 8.19955 403.99 -59.2279C372.506 -92.9476 343.636 -118.198 319.243 -133.031C307.047 -140.447 296.014 -145.231 286.368 -147.188C276.73 -149.144 268.538 -148.268 261.926 -144.45C255.315 -140.633 250.46 -133.977 247.334 -124.652C244.206 -115.32 242.833 -103.373 243.158 -89.1024C243.807 -60.5615 251.239 -22.9344 264.699 21.1916C291.615 109.428 342.564 223.435 411.18 342.28C479.795 461.125 553.053 562.253 616.01 629.68C647.494 663.4 676.364 688.65 700.757 703.483C712.954 710.899 723.986 715.683 733.632 717.641C743.271 719.596 751.462 718.72 758.074 714.903Z" stroke="#2B2C3B" stroke-width="2"/>
<path opacity="0.62069" d="M794.578 695.615C800.832 691.236 805.089 684.182 807.389 674.62C809.692 665.05 810.019 653.03 808.452 638.841C805.317 610.466 794.634 573.63 777.379 530.845C742.876 445.29 682.184 336.158 603.472 223.745C524.759 111.332 442.966 16.9743 374.372 -44.7095C340.069 -75.5568 309.108 -98.1948 283.515 -110.845C270.719 -117.171 259.312 -120.975 249.531 -122.084C239.759 -123.192 231.675 -121.605 225.421 -117.226C219.168 -112.847 214.911 -105.793 212.61 -96.2316C210.307 -86.6617 209.981 -74.6413 211.548 -60.4529C214.682 -32.0771 225.366 4.75901 242.62 47.5439C277.124 133.099 337.816 242.231 416.528 354.644C495.24 467.057 577.033 561.414 645.628 623.098C679.931 653.945 710.892 676.583 736.484 689.234C749.281 695.559 760.688 699.363 770.469 700.473C780.241 701.581 788.325 699.994 794.578 695.615Z" stroke="#2B2C3B" stroke-width="2"/>
<path opacity="0.655172" d="M828.918 673.236C834.766 668.329 838.391 660.931 839.85 651.205C841.31 641.471 840.588 629.468 837.79 615.47C832.194 587.475 818.341 551.71 797.423 510.592C755.595 428.37 685.622 324.943 597.412 219.818C509.202 114.693 419.496 27.8233 345.787 -27.6474C308.925 -55.3876 276.109 -75.241 249.512 -85.6127C236.212 -90.7987 224.517 -93.5943 214.677 -93.8468C204.846 -94.0991 196.931 -91.8133 191.082 -86.9061C185.234 -81.9989 181.609 -74.6009 180.15 -64.875C178.69 -55.1408 179.412 -43.1377 182.21 -29.1398C187.805 -1.14518 201.659 34.6196 222.577 75.7379C264.405 157.96 334.378 261.387 422.588 366.512C510.798 471.637 600.504 558.507 674.213 613.977C711.075 641.718 743.89 661.571 770.488 671.943C783.788 677.129 795.483 679.924 805.323 680.177C815.154 680.429 823.069 678.143 828.918 673.236Z" stroke="#2B2C3B" stroke-width="2"/>
<path opacity="0.689655" d="M860.829 647.963C866.228 642.565 869.195 634.879 869.8 625.063C870.406 615.238 868.641 603.344 864.633 589.643C856.619 562.243 839.702 527.821 815.28 488.683C766.444 410.419 687.723 313.484 590.687 216.447C493.65 119.41 396.714 40.6894 318.451 -8.14595C279.312 -32.568 244.891 -49.4858 217.49 -57.4998C203.79 -61.507 191.895 -63.2726 182.071 -62.6666C172.255 -62.061 164.569 -59.0941 159.171 -53.6959C153.772 -48.2976 150.805 -40.6118 150.2 -30.7958C149.594 -20.9714 151.36 -9.07683 155.367 4.6239C163.381 32.0243 180.298 66.4456 204.721 105.584C253.556 183.848 332.277 280.783 429.313 377.82C526.35 474.857 623.286 553.578 701.549 602.413C740.688 626.835 775.109 643.753 802.51 651.767C816.21 655.774 828.105 657.54 837.929 656.934C847.745 656.328 855.431 653.361 860.829 647.963Z" stroke="#2B2C3B" stroke-width="2"/>
<path opacity="0.724138" d="M890.071 620.02C894.978 614.172 897.264 606.257 897.012 596.426C896.759 586.586 893.964 574.89 888.778 561.591C878.406 534.993 858.553 502.177 830.813 465.316C775.342 391.607 688.472 301.901 583.347 213.691C478.222 125.481 374.795 55.508 292.573 13.6795C251.455 -7.23842 215.69 -21.0918 187.695 -26.6872C173.697 -29.4851 161.694 -30.2073 151.96 -28.7473C142.234 -27.2885 134.836 -23.6631 129.929 -17.8149C125.022 -11.9667 122.736 -4.05149 122.988 5.77993C123.241 15.6198 126.036 27.3151 131.222 40.6145C141.594 67.2122 161.447 100.028 189.188 136.889C244.658 210.599 331.528 300.304 436.653 388.515C541.778 476.725 645.205 546.697 727.427 588.526C768.546 609.444 804.31 623.297 832.305 628.893C846.303 631.69 858.306 632.413 868.04 630.953C877.766 629.494 885.164 625.869 890.071 620.02Z" stroke="#2B2C3B" stroke-width="2"/>
<path opacity="0.758621" d="M916.42 589.651C920.799 583.398 922.387 575.313 921.278 565.541C920.169 555.761 916.365 544.354 910.04 531.557C897.389 505.964 874.751 475.004 843.904 440.701C782.22 372.106 687.863 290.313 575.45 211.601C463.037 132.888 353.904 72.1964 268.35 37.6932C225.565 20.4386 188.729 9.75499 160.353 6.62075C146.165 5.05357 134.144 5.38019 124.574 7.68304C115.012 9.98392 107.959 14.2404 103.58 20.494C99.2009 26.7476 97.6137 34.8319 98.7219 44.604C99.831 54.3843 103.635 65.7916 109.961 78.5883C122.611 104.181 145.249 135.141 176.096 169.445C237.78 238.039 332.138 319.832 444.55 398.544C556.963 477.257 666.096 537.949 751.65 572.452C794.435 589.707 831.272 600.39 859.647 603.525C873.836 605.092 885.856 604.765 895.426 602.462C904.988 600.161 912.042 595.905 916.42 589.651Z" stroke="#2B2C3B" stroke-width="2"/>
<path opacity="0.793103" d="M939.676 557.115C943.493 550.504 944.37 542.312 942.414 532.674C940.457 523.027 935.673 511.995 928.256 499.798C913.424 475.406 888.173 446.536 854.454 415.052C787.026 352.095 685.899 278.837 567.054 210.221C448.209 141.606 334.202 90.6562 245.965 63.7409C201.839 50.2809 164.212 42.8484 135.671 42.1992C121.4 41.8746 109.454 43.2476 100.121 46.3758C90.7966 49.5013 84.1405 54.3563 80.3234 60.9678C76.5062 67.5793 75.6297 75.7711 77.5853 85.4094C79.5426 95.0559 84.3267 106.088 91.7433 118.285C106.576 142.677 131.826 171.547 165.546 203.031C232.973 265.989 334.1 339.247 452.946 407.862C571.791 476.478 685.798 527.427 774.034 554.342C818.16 567.802 855.787 575.235 884.328 575.884C898.599 576.209 910.546 574.836 919.878 571.708C929.203 568.582 935.859 563.727 939.676 557.115Z" stroke="#2B2C3B" stroke-width="2"/>
<path opacity="0.827586" d="M959.663 522.692C962.889 515.773 963.048 507.536 960.26 498.105C957.47 488.666 951.742 478.093 943.291 466.589C926.389 443.582 898.718 417.022 862.383 388.597C789.725 331.756 682.598 267.591 558.224 209.594C433.851 151.598 315.837 110.779 225.591 91.6561C180.46 82.0931 142.328 77.9684 113.839 79.8092C99.5944 80.7296 87.8132 83.1386 78.7886 87.0683C69.7717 90.9946 63.5641 96.4112 60.3377 103.33C57.1114 110.249 56.9521 118.486 59.7403 127.917C62.531 137.357 68.2583 147.93 76.7097 159.434C93.612 182.441 121.282 209 157.618 237.426C230.276 294.267 337.403 358.432 461.776 416.428C586.149 474.425 704.163 515.244 794.409 534.367C839.541 543.93 877.672 548.054 906.161 546.213C920.406 545.293 932.187 542.884 941.212 538.954C950.229 535.028 956.436 529.611 959.663 522.692Z" stroke="#2B2C3B" stroke-width="2"/>
<path opacity="0.862069" d="M976.226 486.673C978.837 479.499 978.278 471.279 974.678 462.127C971.075 452.967 964.448 442.933 955.026 432.209C936.183 410.763 906.304 386.717 867.629 361.566C790.294 311.274 677.982 256.689 549.027 209.754C420.072 162.818 298.95 132.439 207.38 121.255C161.588 115.662 123.241 114.876 95.0213 119.193C80.9108 121.352 69.3845 124.778 60.7367 129.479C52.0963 134.177 46.3844 140.114 43.7733 147.288C41.1622 154.462 41.7215 162.681 45.3211 171.833C48.9238 180.993 55.5509 191.027 64.9728 201.751C83.8159 223.197 113.696 247.244 152.37 272.394C229.706 322.686 342.018 377.271 470.972 424.207C599.927 471.142 721.049 501.521 812.619 512.705C858.412 518.298 896.758 519.084 924.978 514.767C939.088 512.609 950.615 509.182 959.263 504.481C967.903 499.784 973.615 493.847 976.226 486.673Z" stroke="#2B2C3B" stroke-width="2"/>
<path opacity="0.896552" d="M989.242 449.362C991.218 441.987 989.944 433.848 985.561 425.044C981.173 416.233 973.697 406.815 963.376 396.953C942.736 377.231 910.874 355.88 870.154 334.196C788.73 290.835 672.088 246.247 539.533 210.729C406.979 175.211 283.67 155.505 191.474 152.344C145.368 150.763 107.099 153.323 79.3625 160.082C65.4938 163.462 54.3099 167.881 46.1048 173.318C37.9067 178.75 32.734 185.162 30.7581 192.537C28.7822 199.911 30.0557 208.05 34.4393 216.854C38.8266 225.665 46.303 235.083 56.6237 244.945C77.2642 264.667 109.126 286.018 149.846 307.702C231.27 351.063 347.912 395.651 480.467 431.169C613.021 466.687 736.33 486.393 828.526 489.554C874.632 491.135 912.901 488.576 940.637 481.816C954.506 478.436 965.69 474.018 973.895 468.58C982.093 463.148 987.266 456.736 989.242 449.362Z" stroke="#2B2C3B" stroke-width="2"/>
<path opacity="0.931035" d="M998.61 411.074C999.935 403.556 997.957 395.558 992.823 387.17C987.685 378.775 979.416 370.044 968.275 361.119C945.994 343.271 912.393 324.778 869.938 306.726C785.044 270.627 664.96 236.374 529.814 212.544C394.668 188.714 270.111 179.83 177.991 184.717C131.922 187.16 94.0223 193.045 66.9805 202.197C53.4591 206.773 42.7029 212.149 35.0029 218.28C27.3094 224.407 22.7153 231.245 21.3896 238.764C20.0639 246.282 22.042 254.279 27.1762 262.668C32.3148 271.063 40.5836 279.794 51.7245 288.718C74.0054 306.567 107.607 325.059 150.061 343.112C234.955 379.211 355.039 413.463 490.185 437.293C625.331 461.123 749.888 470.007 842.009 465.121C888.077 462.677 925.977 456.792 953.019 447.641C966.54 443.065 977.296 437.689 984.997 431.557C992.69 425.431 997.284 418.592 998.61 411.074Z" stroke="#2B2C3B" stroke-width="2"/>
<path opacity="0.965517" d="M1004.26 372.129C1004.92 364.524 1002.26 356.729 996.411 348.82C990.561 340.905 981.562 332.928 969.686 325.008C945.934 309.17 910.849 293.676 866.983 279.392C779.266 250.83 656.653 227.173 519.945 215.213C383.236 203.252 258.379 205.258 167.035 218.155C121.354 224.604 84.1116 233.77 57.9703 245.243C44.8992 250.98 34.6525 257.274 27.5162 264.053C20.3859 270.826 16.4053 278.039 15.7399 285.645C15.0746 293.25 17.7422 301.045 23.5879 308.953C29.4386 316.869 38.4369 324.846 50.3132 332.765C74.0649 348.604 109.15 364.098 153.017 378.381C240.733 406.944 363.346 430.6 500.054 442.561C636.763 454.521 761.621 452.516 852.965 439.619C898.645 433.169 935.888 424.004 962.029 412.53C975.1 406.793 985.347 400.5 992.483 393.721C999.613 386.947 1003.59 379.734 1004.26 372.129Z" stroke="#2B2C3B" stroke-width="2"/>
<path d="M1006.15 332.857C1006.15 325.223 1002.81 317.69 996.298 310.321C989.78 302.945 980.121 295.783 967.599 288.929C942.558 275.22 906.255 262.844 861.311 252.437C771.439 231.629 647.231 218.749 510 218.749C372.769 218.749 248.562 231.629 158.689 252.437C113.745 262.844 77.4429 275.22 52.401 288.929C39.8797 295.783 30.2204 302.945 23.7021 310.321C17.1893 317.69 13.8525 325.223 13.8525 332.857C13.8525 340.491 17.1893 348.024 23.7021 355.393C30.2204 362.768 39.8797 369.93 52.401 376.785C77.4429 390.493 113.745 402.87 158.689 413.276C248.562 434.085 372.769 446.965 510 446.965C647.231 446.965 771.439 434.085 861.311 413.276C906.255 402.87 942.558 390.493 967.599 376.785C980.121 369.93 989.78 362.768 996.298 355.393C1002.81 348.024 1006.15 340.491 1006.15 332.857Z" stroke="#2B2C3B" stroke-width="2"/>
</g>
</svg>
