<svg width="25" height="13" viewBox="0 0 25 13" fill="none" xmlns="http://www.w3.org/2000/svg">
<path d="M19.9363 7.81659C16.4843 7.74052 13.1264 7.58307 9.75419 7.72542C7.0759 7.84154 4.38362 7.75481 1.69793 7.72431C0.837141 7.71384 0.329197 7.19476 0.349637 6.49151C0.370077 5.78825 0.899862 5.35384 1.7653 5.34006C2.73769 5.32429 3.7104 5.34379 4.68296 5.34565C9.6167 5.3169 14.5517 5.28851 19.4879 5.26049C19.6277 5.25966 19.7661 5.24669 20.1137 5.22972C19.0413 4.26311 18.0949 3.37942 17.1087 2.53644C16.6493 2.14203 16.5325 1.72842 16.7285 1.2118C16.9244 0.695172 17.3772 0.48439 17.9563 0.398414C18.3715 0.335274 18.6163 0.518733 18.8564 0.733048C20.6347 2.32494 22.4153 3.91463 24.173 5.52521C24.8423 6.1394 24.8551 6.76115 24.1945 7.3772C22.4729 8.98479 20.7297 10.5751 18.9649 12.148C18.3486 12.6991 17.4695 12.6809 16.9715 12.1883C16.4736 11.6957 16.5204 10.9528 17.14 10.372C18.0575 9.51501 19.0006 8.67021 19.9363 7.81659Z" fill="#494B5B"/>
</svg>
