<svg width="11" height="10" viewBox="0 0 11 10" fill="none" xmlns="http://www.w3.org/2000/svg">
<path d="M9.18453 2.66281C7.81892 3.9764 6.45519 5.21807 5.21287 6.59506C4.22749 7.69004 3.15081 8.70267 2.10049 9.73708C1.76355 10.0683 1.34757 10.0418 1.05769 9.72951C0.767818 9.4172 0.788523 9.02255 1.11698 8.67901C1.48592 8.29289 1.8699 7.9219 2.24636 7.54335C4.13996 5.6064 6.03418 3.66914 7.92903 1.73157C7.98268 1.67667 8.03068 1.61705 8.15773 1.47415C7.33422 1.47415 6.59448 1.4609 5.85662 1.48077C5.51216 1.48929 5.29193 1.35585 5.14887 1.05584C5.00582 0.755837 5.09146 0.488009 5.27875 0.224913C5.4124 0.0356348 5.58463 0.0195461 5.76815 0.0185997C7.12905 0.0138678 8.48996 0.00724303 9.85086 0.0185997C10.3694 0.0233317 10.6377 0.287375 10.6433 0.811674C10.659 2.17889 10.659 3.54706 10.6433 4.91617C10.6386 5.39504 10.2913 5.73006 9.89039 5.71113C9.48946 5.69221 9.193 5.35245 9.18641 4.85938C9.17794 4.13066 9.18453 3.39721 9.18453 2.66281Z" fill="#494B5B"/>
</svg>
