<svg width="25" height="13" viewBox="0 0 25 13" fill="none" xmlns="http://www.w3.org/2000/svg">
<path d="M5.05338 5.24836C8.50589 5.2943 11.865 5.42245 15.2359 5.25067C17.913 5.11118 20.606 5.17442 23.2918 5.18148C24.1527 5.18444 24.6651 5.69906 24.6508 6.40247C24.6365 7.10588 24.1105 7.5449 23.2453 7.56622C22.273 7.59048 21.3002 7.57947 20.3277 7.58609C15.3944 7.6579 10.4598 7.72936 5.52407 7.80045C5.38429 7.8025 5.24594 7.81667 4.89857 7.83668C5.97934 8.79389 6.93344 9.66929 7.92693 10.5036C8.38977 10.894 8.51014 11.3066 8.3187 11.8249C8.12726 12.3432 7.67635 12.5579 7.09802 12.649C6.68339 12.7157 6.43702 12.5344 6.19497 12.3222C4.40293 10.7459 2.6085 9.17181 0.836802 7.57662C0.162204 6.9683 0.143911 6.34669 0.799174 5.7249C2.50664 4.10234 4.2359 2.49691 5.98693 0.908593C6.59837 0.352142 7.47759 0.36269 7.97985 0.850927C8.4821 1.33916 8.44176 2.08243 7.8272 2.66867C6.91728 3.53361 5.9816 4.3866 5.05338 5.24836Z" fill="#494B5B"/>
</svg>
