<svg width="26" height="13" viewBox="0 0 26 13" fill="none" xmlns="http://www.w3.org/2000/svg">
<path d="M5.56809 5.05344C9.01982 5.13984 12.3772 5.30735 15.7498 5.17509C18.4285 5.06699 21.1205 5.16178 23.8061 5.20032C24.6668 5.21337 25.1732 5.73396 25.1507 6.43715C25.1281 7.14035 24.597 7.57317 23.7316 7.58435C22.7591 7.59722 21.7865 7.5748 20.8139 7.57003C15.8801 7.58401 10.9451 7.59763 6.00884 7.61087C5.86904 7.61128 5.73053 7.62383 5.38295 7.63976C6.45243 8.60958 7.39621 9.4961 8.37985 10.342C8.83808 10.7378 8.95361 11.1518 8.75611 11.6678C8.55861 12.1838 8.10521 12.3933 7.52585 12.4775C7.11047 12.5394 6.86624 12.3552 6.62669 12.1402C4.85325 10.543 3.0774 8.94796 1.32451 7.33212C0.657091 6.71593 0.646083 6.09415 1.30859 5.48008C3.03496 3.87765 4.78291 2.29259 6.55244 0.724909C7.17035 0.175662 8.04939 0.196513 8.54589 0.690604C9.04239 1.18469 8.99334 1.92744 8.37196 2.50643C7.45195 3.36065 6.50635 4.20262 5.56809 5.05344Z" fill="white"/>
</svg>
