<svg width="26" height="13" viewBox="0 0 26 13" fill="none" xmlns="http://www.w3.org/2000/svg">
<path d="M20.4182 7.80888C16.9675 7.68647 13.6121 7.48393 10.2382 7.58098C7.55863 7.66112 4.86776 7.53824 2.18273 7.47167C1.32215 7.44964 0.821228 6.92379 0.851111 6.22087C0.880993 5.51795 1.41656 5.09069 2.28211 5.08854C3.25463 5.08583 4.22699 5.11839 5.19943 5.13332C10.1331 5.17083 15.068 5.20872 20.0041 5.247C20.1439 5.24804 20.2826 5.23694 20.6303 5.22463C19.571 4.24371 18.6365 3.34739 17.6618 2.49124C17.2077 2.09069 17.0965 1.67555 17.2994 1.16161C17.5022 0.647662 17.9578 0.442979 18.538 0.364789C18.954 0.30723 19.1963 0.49396 19.4336 0.711482C21.1903 2.32711 22.9494 3.94057 24.6853 5.57462C25.3463 6.19774 25.3508 6.8196 24.6819 7.42672C22.9389 9.01105 21.1745 10.5778 19.3887 12.1269C18.7651 12.6697 17.8863 12.6396 17.395 12.1404C16.9037 11.6412 16.9605 10.899 17.5879 10.3265C18.5167 9.48192 19.4711 8.64987 20.4182 7.80888Z" fill="white"/>
</svg>
