<svg width="22" height="30" viewBox="0 0 22 30" fill="none" xmlns="http://www.w3.org/2000/svg">
<path d="M0.0231076 15.5993C0.0231076 13.4982 -0.00646781 11.9866 0.0231076 10.4763C0.151696 5.25739 4.27811 0.541079 9.92443 0.0461728C16.3539 -0.516511 21.0075 4.15376 21.7674 9.13735C21.8512 9.6842 21.8942 10.2365 21.896 10.7896C21.9037 13.603 21.9385 16.4088 21.896 19.2171C21.8086 24.3925 18.3598 28.573 13.2806 29.7354C7.26136 31.1114 1.11225 26.9616 0.159412 20.8719C-0.145344 18.9242 0.0938313 16.9612 0.0231076 15.5993ZM19.1828 15.3512C19.1828 13.6542 19.1828 12.2909 19.1828 10.929C19.186 10.3541 19.1248 9.78061 19.0002 9.2192C18.1091 5.14869 14.2964 2.33272 10.2562 2.74322C5.93561 3.17802 2.76205 6.63597 2.74404 10.9354C2.73376 13.5314 2.74404 16.1274 2.74404 18.7247C2.74195 19.2774 2.77977 19.8296 2.8572 20.377C3.41656 24.2582 6.94375 27.2558 10.9686 27.2532C14.9934 27.2507 18.5167 24.2556 19.0697 20.368C19.3153 18.5879 19.1005 16.7975 19.1802 15.3435L19.1828 15.3512Z" fill="white"/>
<path d="M12.3439 10.9275C12.3439 11.7549 12.3542 12.59 12.3439 13.411C12.3297 14.3778 11.7858 14.9839 10.9564 14.9852C10.127 14.9865 9.57664 14.3765 9.5715 13.4123C9.5595 11.7344 9.5595 10.0571 9.5715 8.38009C9.5715 7.41457 10.127 6.80713 10.9564 6.80713C11.7858 6.80713 12.3336 7.41457 12.3439 8.37881C12.3593 9.22795 12.3439 10.0784 12.3439 10.9275Z" fill="white"/>
</svg>
