<svg width="14" height="8" viewBox="0 0 14 8" fill="none" xmlns="http://www.w3.org/2000/svg">
<path d="M10.8282 4.77172C8.93367 4.73494 7.09138 4.64863 5.23925 4.74386C3.76821 4.82135 2.29085 4.77607 0.816719 4.76481C0.344254 4.76078 0.0688422 4.4479 0.0847055 4.02209C0.100569 3.59628 0.394266 3.33187 0.869442 3.32121C1.40335 3.30905 1.9372 3.31824 2.47107 3.31676C5.17967 3.28611 7.88894 3.25567 10.5989 3.22546C10.6756 3.22458 10.7517 3.21636 10.9426 3.20516C10.3603 2.62285 9.8466 2.0904 9.31079 1.58271C9.0612 1.34516 8.99983 1.09508 9.11081 0.781786C9.22179 0.468494 9.47174 0.339671 9.79021 0.286067C10.0185 0.246728 10.1517 0.357137 10.2821 0.486239C11.2478 1.4452 12.2148 2.40282 13.1691 3.37315C13.5324 3.74318 13.5354 4.11956 13.1686 4.49429C12.2129 5.47215 11.2455 6.43958 10.2663 7.3966C9.92436 7.73189 9.4419 7.72322 9.17178 7.42633C8.90167 7.12945 8.93228 6.67957 9.27627 6.32626C9.78557 5.80499 10.3089 5.29102 10.8282 4.77172Z" fill="white"/>
</svg>
