<svg width="11" height="10" viewBox="0 0 11 10" fill="none" xmlns="http://www.w3.org/2000/svg">
<path d="M9.18468 2.66367C7.81907 3.97726 6.45535 5.21892 5.21303 6.59592C4.22764 7.69089 3.15097 8.70353 2.10064 9.73793C1.76371 10.0692 1.34772 10.0427 1.05785 9.73036C0.767976 9.41805 0.788681 9.02341 1.11714 8.67987C1.48607 8.29374 1.87006 7.92276 2.24652 7.5442C4.14012 5.60726 6.03434 3.67 7.92919 1.73242C7.98284 1.67753 8.03083 1.61791 8.15789 1.475C7.33438 1.475 6.59464 1.46175 5.85678 1.48163C5.51232 1.49014 5.29209 1.3567 5.14903 1.0567C5.00598 0.756692 5.09162 0.488864 5.27891 0.225767C5.41255 0.0364892 5.58478 0.0204006 5.76831 0.0194542C7.12921 0.0147223 8.49012 0.00809753 9.85102 0.0194542C10.3696 0.0241862 10.6378 0.288229 10.6435 0.812529C10.6592 2.17975 10.6592 3.54791 10.6435 4.91702C10.6388 5.39589 10.2915 5.73092 9.89055 5.71199C9.48962 5.69306 9.19315 5.35331 9.18657 4.86024C9.1781 4.13152 9.18468 3.39807 9.18468 2.66367Z" fill="#494B5B"/>
</svg>
