<svg width="225" height="890" viewBox="0 0 225 890" fill="none" xmlns="http://www.w3.org/2000/svg">
<g clip-path="url(#clip0_216_7139)">
<g opacity="0.06">
<path opacity="0.0344828" d="M243.863 130.429C238.014 135.336 234.389 142.734 232.93 152.46C231.47 162.194 232.192 174.198 234.99 188.195C240.586 216.19 254.439 251.955 275.357 293.073C317.185 375.295 387.158 478.723 475.368 583.847C563.579 688.972 653.284 775.842 726.994 831.313C763.855 859.053 796.671 878.906 823.268 889.278C836.568 894.464 848.263 897.26 858.103 897.512C867.934 897.764 875.85 895.479 881.698 890.571C887.546 885.664 891.171 878.266 892.63 868.54C894.09 858.806 893.368 846.803 890.57 832.805C884.975 804.81 871.121 769.046 850.203 727.927C808.375 645.705 738.402 542.278 650.192 437.153C561.982 332.028 472.276 245.158 398.567 189.688C361.706 161.948 328.89 142.094 302.292 131.723C288.993 126.537 277.297 123.741 267.457 123.488C257.626 123.236 249.711 125.522 243.863 130.429Z" stroke="#1F1F1F" stroke-width="2"/>
<path opacity="0.0689655" d="M207.983 159.671C202.585 165.069 199.618 172.755 199.012 182.571C198.406 192.395 200.172 204.29 204.179 217.99C212.193 245.391 229.111 279.812 253.533 318.951C302.368 397.214 381.089 494.15 478.126 591.187C575.163 688.223 672.098 766.944 750.362 815.779C789.5 840.202 823.922 857.119 851.322 865.133C865.023 869.14 876.917 870.906 886.742 870.3C896.558 869.695 904.244 866.728 909.642 861.329C915.04 855.931 918.007 848.245 918.613 838.429C919.219 828.605 917.453 816.71 913.446 803.01C905.432 775.609 888.514 741.188 864.092 702.049C815.257 623.786 736.536 526.85 639.499 429.813C542.462 332.777 445.527 254.056 367.263 205.22C328.125 180.798 293.703 163.881 266.303 155.867C252.602 151.859 240.708 150.094 230.883 150.7C221.067 151.305 213.381 154.272 207.983 159.671Z" stroke="#1F1F1F" stroke-width="2"/>
<path opacity="0.103448" d="M174.772 191.582C169.865 197.431 167.579 205.346 167.831 215.177C168.084 225.017 170.879 236.712 176.065 250.012C186.437 276.609 206.29 309.425 234.03 346.287C289.501 419.996 376.371 509.702 481.496 597.912C586.621 686.122 690.048 756.095 772.27 797.923C813.388 818.841 849.153 832.695 877.148 838.29C891.146 841.088 903.149 841.81 912.883 840.35C922.609 838.891 930.007 835.266 934.914 829.418C939.821 823.569 942.107 815.654 941.855 805.823C941.602 795.983 938.807 784.288 933.621 770.988C923.249 744.391 903.396 711.575 875.655 674.714C820.185 601.004 733.315 511.298 628.19 423.088C523.065 334.878 419.638 264.905 337.416 223.077C296.297 202.159 260.533 188.306 232.538 182.71C218.54 179.912 206.537 179.19 196.803 180.65C187.077 182.109 179.679 185.734 174.772 191.582Z" stroke="#1F1F1F" stroke-width="2"/>
<path opacity="0.137931" d="M144.453 225.921C140.074 232.175 138.487 240.259 139.595 250.031C140.704 259.812 144.509 271.219 150.834 284.015C163.484 309.608 186.122 340.569 216.97 374.872C278.653 443.466 373.011 525.259 485.424 603.972C597.837 682.684 706.969 743.376 792.524 777.879C835.309 795.134 872.145 805.818 900.521 808.952C914.709 810.519 926.729 810.192 936.299 807.889C945.861 805.589 952.915 801.332 957.294 795.079C961.673 788.825 963.26 780.741 962.152 770.969C961.043 761.188 957.238 749.781 950.913 736.984C938.263 711.392 915.625 680.431 884.777 646.128C823.093 577.533 728.736 495.74 616.323 417.028C503.91 338.316 394.778 277.624 309.223 243.12C266.438 225.866 229.602 215.182 201.226 212.048C187.038 210.481 175.017 210.807 165.447 213.11C155.886 215.411 148.832 219.668 144.453 225.921Z" stroke="#1F1F1F" stroke-width="2"/>
<path opacity="0.172414" d="M117.228 262.426C113.411 269.038 112.534 277.23 114.49 286.868C116.447 296.514 121.232 307.547 128.648 319.743C143.481 344.136 168.731 373.006 202.451 404.49C269.878 467.447 371.005 540.705 489.851 609.321C608.696 677.936 722.703 728.886 810.939 755.801C855.065 769.261 892.692 776.693 921.233 777.343C935.504 777.667 947.45 776.294 956.783 773.166C966.108 770.04 972.764 765.185 976.581 758.574C980.398 751.962 981.275 743.771 979.319 734.132C977.362 724.486 972.578 713.454 965.161 701.257C950.329 676.864 925.078 647.994 891.359 616.51C823.931 553.553 722.804 480.295 603.959 411.68C485.113 343.064 371.106 292.115 282.87 265.199C238.744 251.739 201.117 244.307 172.576 243.658C158.305 243.333 146.359 244.706 137.026 247.834C127.701 250.96 121.045 255.815 117.228 262.426Z" stroke="#1F1F1F" stroke-width="2"/>
<path opacity="0.206897" d="M93.2728 300.819C90.0464 307.738 89.8871 315.975 92.6753 325.406C95.466 334.845 101.193 345.419 109.645 356.923C126.547 379.93 154.217 406.489 190.553 434.914C263.211 491.755 370.338 555.921 494.711 613.917C619.084 671.913 737.098 712.733 827.344 731.855C872.476 741.418 910.607 745.543 939.096 743.702C953.341 742.782 965.122 740.373 974.147 736.443C983.164 732.517 989.371 727.1 992.598 720.181C995.824 713.262 995.983 705.025 993.195 695.594C990.405 686.155 984.677 675.581 976.226 664.078C959.324 641.071 931.653 614.511 895.318 586.086C822.66 529.245 715.533 465.079 591.159 407.083C466.786 349.087 348.772 308.267 258.526 289.145C213.395 279.582 175.263 275.457 146.774 277.298C132.529 278.218 120.748 280.627 111.724 284.557C102.707 288.483 96.4992 293.9 93.2728 300.819Z" stroke="#1F1F1F" stroke-width="2"/>
<path opacity="0.241379" d="M72.7384 340.807C70.1273 347.981 70.6866 356.201 74.2862 365.353C77.8889 374.513 84.516 384.547 93.9379 395.271C112.781 416.717 142.661 440.763 181.335 465.914C258.671 516.206 370.983 570.791 499.937 617.726C628.892 664.662 750.014 695.04 841.584 706.225C887.377 711.818 925.723 712.604 953.943 708.287C968.054 706.128 979.58 702.702 988.228 698.001C996.868 693.303 1002.58 687.366 1005.19 680.192C1007.8 673.018 1007.24 664.799 1003.64 655.647C1000.04 646.487 993.413 636.453 983.992 625.729C965.148 604.283 935.269 580.236 896.594 555.086C819.259 504.794 706.947 450.209 577.992 403.273C449.037 356.338 327.915 325.959 236.346 314.775C190.553 309.182 152.207 308.396 123.986 312.713C109.876 314.871 98.3496 318.298 89.7018 322.999C81.0614 327.696 75.3495 333.633 72.7384 340.807Z" stroke="#1F1F1F" stroke-width="2"/>
<path opacity="0.275862" d="M55.7561 382.087C53.7802 389.462 55.0537 397.601 59.4373 406.405C63.8246 415.216 71.301 424.634 81.6217 434.496C102.262 454.218 134.124 475.569 174.844 497.253C256.268 540.614 372.91 585.202 505.465 620.72C638.019 656.238 761.328 675.944 853.524 679.105C899.63 680.686 937.899 678.126 965.635 671.367C979.504 667.986 990.688 663.568 998.893 658.131C1007.09 652.699 1012.26 646.287 1014.24 638.912C1016.22 631.538 1014.94 623.399 1010.56 614.595C1006.17 605.784 998.695 596.366 988.374 586.504C967.734 566.782 935.872 545.431 895.152 523.747C813.728 480.386 697.086 435.798 564.531 400.28C431.977 364.762 308.668 345.056 216.472 341.895C170.366 340.314 132.097 342.873 104.361 349.633C90.4918 353.013 79.308 357.431 71.1028 362.868C62.9047 368.301 57.732 374.713 55.7561 382.087Z" stroke="#1F1F1F" stroke-width="2"/>
<path opacity="0.310345" d="M42.4188 424.345C41.0931 431.863 43.0711 439.861 48.2053 448.249C53.3439 456.644 61.6127 465.375 72.7536 474.299C95.0346 492.148 128.636 510.641 171.09 528.693C255.984 564.792 376.068 599.045 511.214 622.874C646.36 646.704 770.917 655.589 863.038 650.702C909.106 648.259 947.006 642.374 974.048 633.222C987.569 628.646 998.326 623.27 1006.03 617.138C1013.72 611.012 1018.31 604.173 1019.64 596.655C1020.96 589.137 1018.99 581.139 1013.85 572.751C1008.71 564.356 1000.44 555.625 989.304 546.701C967.023 528.852 933.422 510.359 890.967 492.307C806.074 456.208 685.989 421.955 550.844 398.125C415.698 374.296 291.14 365.411 199.02 370.298C152.951 372.741 115.051 378.626 88.0097 387.778C74.4883 392.354 63.7321 397.73 56.032 403.861C48.3386 409.988 43.7444 416.826 42.4188 424.345Z" stroke="#1F1F1F" stroke-width="2"/>
<path opacity="0.344828" d="M32.8 467.258C32.1346 474.863 34.8022 482.658 40.6479 490.567C46.4987 498.482 55.4969 506.459 67.3732 514.379C91.125 530.217 126.21 545.711 170.077 559.995C257.793 588.557 380.406 612.214 517.115 624.174C653.823 636.134 778.681 634.129 870.025 621.232C915.705 614.783 952.948 605.617 979.089 594.143C992.16 588.407 1002.41 582.113 1009.54 575.334C1016.67 568.561 1020.65 561.348 1021.32 553.742C1021.98 546.137 1019.32 538.342 1013.47 530.434C1007.62 522.518 998.622 514.541 986.746 506.622C962.994 490.783 927.909 475.289 884.043 461.006C796.326 432.443 673.713 408.787 537.005 396.826C400.296 384.866 275.439 386.871 184.095 399.768C138.414 406.217 101.172 415.383 75.0304 426.857C61.9593 432.594 51.7126 438.887 44.5762 445.666C37.446 452.44 33.4654 459.653 32.8 467.258Z" stroke="#1F1F1F" stroke-width="2"/>
<path opacity="0.37931" d="M26.9413 510.5C26.9413 518.135 30.2781 525.667 36.7909 533.036C43.3093 540.412 52.9685 547.574 65.4899 554.428C90.5317 568.137 126.834 580.514 171.778 590.92C261.651 611.729 385.858 624.608 523.089 624.608C660.32 624.608 784.527 611.729 874.4 590.92C919.344 580.514 955.646 568.137 980.688 554.428C993.21 547.574 1002.87 540.412 1009.39 533.036C1015.9 525.667 1019.24 518.135 1019.24 510.5C1019.24 502.866 1015.9 495.333 1009.39 487.964C1002.87 480.589 993.21 473.427 980.688 466.572C955.646 452.864 919.344 440.487 874.4 430.081C784.527 409.272 660.32 396.392 523.089 396.392C385.858 396.392 261.651 409.272 171.778 430.081C126.834 440.487 90.5317 452.864 65.4899 466.572C52.9685 473.427 43.3093 480.589 36.7909 487.964C30.2781 495.333 26.9413 502.866 26.9413 510.5Z" stroke="#1F1F1F" stroke-width="2"/>
<path opacity="0.413793" d="M24.859 553.742C25.5244 561.348 29.505 568.561 36.6352 575.334C43.7716 582.113 54.0183 588.407 67.0894 594.144C93.2307 605.617 130.473 614.783 176.154 621.232C267.498 634.129 392.355 636.135 529.064 624.174C665.772 612.214 788.385 588.557 876.102 559.995C919.968 545.711 955.053 530.217 978.805 514.379C990.681 506.459 999.68 498.482 1005.53 490.567C1011.38 482.658 1014.04 474.863 1013.38 467.258C1012.71 459.653 1008.73 452.44 1001.6 445.666C994.466 438.887 984.219 432.594 971.148 426.857C945.007 415.383 907.764 406.218 862.084 399.768C770.74 386.871 645.882 384.866 509.174 396.826C372.465 408.787 249.852 432.443 162.136 461.006C118.269 475.289 83.184 490.783 59.4323 506.622C47.556 514.541 38.5577 522.518 32.7069 530.434C26.8612 538.342 24.1937 546.137 24.859 553.742Z" stroke="#1F1F1F" stroke-width="2"/>
<path opacity="0.448276" d="M26.539 596.655C27.8647 604.174 32.4588 611.013 40.1523 617.139C47.8524 623.27 58.6086 628.646 72.13 633.222C99.1717 642.374 137.072 648.259 183.14 650.703C275.261 655.589 399.818 646.705 534.964 622.875C670.11 599.045 790.194 564.792 875.088 528.694C917.542 510.641 951.143 492.148 973.424 474.3C984.565 465.375 992.834 456.645 997.973 448.249C1003.11 439.861 1005.08 431.864 1003.76 424.345C1002.43 416.827 997.839 409.988 990.146 403.862C982.446 397.73 971.69 392.354 958.168 387.778C931.127 378.627 893.227 372.742 847.158 370.298C755.038 365.412 630.48 374.296 495.334 398.126C360.189 421.956 240.104 456.208 155.211 492.307C112.756 510.36 79.1549 528.852 56.8739 546.701C45.733 555.625 37.4642 564.356 32.3256 572.751C27.1914 581.14 25.2134 589.137 26.539 596.655Z" stroke="#1F1F1F" stroke-width="2"/>
<path opacity="0.482759" d="M31.9398 638.913C33.9157 646.287 39.0883 652.699 47.2865 658.132C55.4916 663.569 66.6755 667.987 80.5442 671.367C108.281 678.127 146.549 680.686 192.655 679.105C284.851 675.944 408.16 656.238 540.715 620.72C673.27 585.202 789.912 540.614 871.336 497.253C912.055 475.569 943.917 454.219 964.558 434.496C974.879 424.634 982.355 415.216 986.742 406.405C991.126 397.601 992.399 389.462 990.424 382.088C988.448 374.714 983.275 368.301 975.077 362.869C966.872 357.432 955.688 353.014 941.819 349.634C914.083 342.874 875.814 340.314 829.708 341.895C737.512 345.056 614.203 364.762 481.648 400.28C349.094 435.798 232.452 480.386 151.027 523.747C110.308 545.431 78.4459 566.782 57.8054 586.504C47.4847 596.366 40.0083 605.784 35.6209 614.595C31.2374 623.399 29.9639 631.539 31.9398 638.913Z" stroke="#1F1F1F" stroke-width="2"/>
<path opacity="0.517241" d="M40.9854 680.193C43.5965 687.367 49.3083 693.304 57.9487 698.001C66.5965 702.702 78.1229 706.129 92.2334 708.287C120.454 712.604 158.8 711.818 204.592 706.225C296.162 695.041 417.284 664.662 546.239 617.727C675.194 570.791 787.506 516.206 864.841 465.914C903.516 440.764 933.395 416.717 952.239 395.271C961.66 384.547 968.288 374.514 971.89 365.353C975.49 356.201 976.049 347.982 973.438 340.808C970.827 333.634 965.115 327.697 956.475 323C947.827 318.298 936.301 314.872 922.19 312.713C893.97 308.396 855.624 309.182 809.831 314.775C718.261 325.96 597.139 356.338 468.184 403.274C339.23 450.209 226.918 504.794 149.582 555.086C110.908 580.237 81.028 604.283 62.1849 625.729C52.763 636.453 46.1359 646.487 42.5331 655.647C38.9336 664.799 38.3743 673.019 40.9854 680.193Z" stroke="#1F1F1F" stroke-width="2"/>
<path opacity="0.551724" d="M53.5809 720.181C56.8073 727.1 63.0149 732.517 72.0318 736.443C81.0565 740.373 92.8376 742.782 107.083 743.702C135.572 745.543 173.703 741.418 218.834 731.855C309.081 712.733 427.094 671.913 551.468 613.917C675.841 555.921 782.968 491.755 855.626 434.914C891.961 406.489 919.632 379.93 936.534 356.923C944.985 345.419 950.713 334.845 953.503 325.406C956.292 315.975 956.132 307.738 952.906 300.819C949.68 293.9 943.472 288.483 934.455 284.557C925.43 280.627 913.649 278.218 899.404 277.298C870.915 275.457 832.784 279.582 787.653 289.145C697.406 308.267 579.393 349.087 455.019 407.083C330.646 465.079 223.519 529.245 150.861 586.086C114.525 614.511 86.8552 641.07 69.953 664.077C61.5015 675.581 55.7742 686.155 52.9835 695.594C50.1953 705.025 50.3546 713.262 53.5809 720.181Z" stroke="#1F1F1F" stroke-width="2"/>
<path opacity="0.586207" d="M69.5972 758.574C73.4144 765.186 80.0704 770.041 89.3952 773.166C98.728 776.294 110.674 777.667 124.945 777.343C153.486 776.693 191.113 769.261 235.239 755.801C323.475 728.886 437.482 677.936 556.328 609.321C675.173 540.705 776.3 467.447 843.728 404.49C877.447 373.006 902.698 344.136 917.53 319.744C924.947 307.547 929.731 296.515 931.688 286.868C933.644 277.23 932.767 269.038 928.95 262.426C925.133 255.815 918.477 250.96 909.152 247.834C899.819 244.706 887.873 243.333 873.602 243.658C845.061 244.307 807.434 251.74 763.308 265.2C675.072 292.115 561.065 343.064 442.22 411.68C323.374 480.295 222.247 553.553 154.82 616.51C121.1 647.995 95.8499 676.864 81.0172 701.257C73.6006 713.454 68.8165 724.486 66.8592 734.133C64.9035 743.771 65.7801 751.963 69.5972 758.574Z" stroke="#1F1F1F" stroke-width="2"/>
<path opacity="0.62069" d="M88.8849 795.078C93.2638 801.332 100.318 805.588 109.879 807.889C119.449 810.192 131.47 810.519 145.658 808.952C174.034 805.817 210.87 795.134 253.655 777.879C339.21 743.376 448.342 682.684 560.755 603.972C673.168 525.259 767.525 443.466 829.209 374.872C860.056 340.569 882.694 309.608 895.345 284.015C901.67 271.219 905.474 259.812 906.584 250.031C907.692 240.259 906.105 232.175 901.726 225.921C897.347 219.668 890.293 215.411 880.731 213.11C871.161 210.807 859.141 210.481 844.953 212.048C816.577 215.182 779.741 225.866 736.956 243.12C651.401 277.624 542.269 338.316 429.856 417.028C317.443 495.74 223.085 577.533 161.402 646.128C130.554 680.431 107.916 711.392 95.2659 736.984C88.9405 749.781 85.1362 761.188 84.0271 770.968C82.9189 780.74 84.5061 788.825 88.8849 795.078Z" stroke="#1F1F1F" stroke-width="2"/>
<path opacity="0.655172" d="M111.264 829.418C116.171 835.266 123.569 838.891 133.295 840.35C143.029 841.81 155.032 841.088 169.03 838.29C197.025 832.694 232.789 818.841 273.908 797.923C356.13 756.095 459.557 686.122 564.682 597.912C669.807 509.702 756.677 419.996 812.147 346.287C839.887 309.425 859.741 276.609 870.113 250.012C875.299 236.712 878.094 225.017 878.347 215.177C878.599 205.346 876.313 197.431 871.406 191.582C866.499 185.734 859.101 182.109 849.375 180.65C839.641 179.19 827.638 179.912 813.64 182.71C785.645 188.305 749.88 202.159 708.762 223.077C626.54 264.905 523.112 334.878 417.988 423.088C312.863 511.298 225.993 601.004 170.522 674.713C142.782 711.575 122.929 744.39 112.557 770.988C107.371 784.287 104.575 795.983 104.323 805.823C104.071 815.654 106.356 823.569 111.264 829.418Z" stroke="#1F1F1F" stroke-width="2"/>
<path opacity="0.689655" d="M136.537 861.329C141.935 866.728 149.621 869.695 159.437 870.3C169.261 870.906 181.156 869.14 194.856 865.133C222.257 857.119 256.678 840.202 295.817 815.779C374.08 766.944 471.016 688.223 568.053 591.187C665.089 494.15 743.81 397.214 792.646 318.951C817.068 279.812 833.985 245.391 841.999 217.99C846.007 204.29 847.772 192.395 847.166 182.571C846.561 172.755 843.594 165.069 838.195 159.671C832.797 154.272 825.111 151.305 815.295 150.7C805.471 150.094 793.576 151.86 779.876 155.867C752.475 163.881 718.054 180.798 678.915 205.221C600.652 254.056 503.716 332.777 406.679 429.813C309.643 526.85 230.922 623.786 182.087 702.049C157.664 741.188 140.747 775.609 132.733 803.01C128.726 816.71 126.96 828.605 127.566 838.429C128.171 848.245 131.138 855.931 136.537 861.329Z" stroke="#1F1F1F" stroke-width="2"/>
<path opacity="0.724138" d="M164.479 890.572C170.327 895.479 178.243 897.764 188.074 897.512C197.914 897.26 209.609 894.464 222.909 889.278C249.506 878.906 282.322 859.053 319.183 831.313C392.893 775.842 482.598 688.972 570.809 583.848C659.019 478.723 728.992 375.295 770.82 293.073C791.738 251.955 805.591 216.19 811.187 188.195C813.985 174.198 814.707 162.194 813.247 152.46C811.788 142.734 808.163 135.336 802.315 130.429C796.466 125.522 788.551 123.236 778.72 123.488C768.88 123.741 757.184 126.537 743.885 131.723C717.287 142.094 684.472 161.948 647.61 189.688C573.901 245.159 484.195 332.028 395.985 437.153C307.775 542.278 237.802 645.706 195.974 727.928C175.056 769.046 161.202 804.811 155.607 832.805C152.809 846.803 152.087 858.806 153.547 868.54C155.006 878.266 158.631 885.664 164.479 890.572Z" stroke="#1F1F1F" stroke-width="2"/>
<path opacity="0.758621" d="M194.848 916.921C201.102 921.299 209.186 922.887 218.958 921.778C228.739 920.669 240.146 916.865 252.943 910.54C278.535 897.889 309.496 875.251 343.799 844.404C412.393 782.72 494.186 688.363 572.899 575.95C651.611 463.537 712.303 354.404 746.806 268.85C764.061 226.065 774.745 189.229 777.879 160.853C779.446 146.665 779.119 134.644 776.817 125.074C774.516 115.512 770.259 108.459 764.006 104.08C757.752 99.7009 749.668 98.1137 739.896 99.2219C730.115 100.331 718.708 104.135 705.911 110.461C680.319 123.111 649.358 145.749 615.055 176.596C546.461 238.28 464.667 332.638 385.955 445.05C307.243 557.463 246.551 666.596 212.048 752.15C194.793 794.935 184.109 831.772 180.975 860.147C179.408 874.336 179.735 886.356 182.037 895.926C184.338 905.488 188.595 912.542 194.848 916.921Z" stroke="#1F1F1F" stroke-width="2"/>
<path opacity="0.793103" d="M227.384 940.177C233.996 943.994 242.188 944.87 251.826 942.915C261.472 940.957 272.505 936.173 284.701 928.757C309.094 913.924 337.964 888.674 369.448 854.954C432.405 787.527 505.663 686.399 574.279 567.554C642.894 448.709 693.844 334.702 720.759 246.466C734.219 202.34 741.651 164.713 742.301 136.172C742.625 121.901 741.252 109.954 738.124 100.622C734.998 91.2968 730.143 84.6408 723.532 80.8236C716.92 77.0065 708.729 76.1299 699.09 78.0856C689.444 80.0429 678.412 84.8269 666.215 92.2436C641.822 107.076 612.952 132.326 581.468 166.046C518.511 233.474 445.253 334.601 376.638 453.446C308.022 572.291 257.073 686.298 230.157 774.535C216.697 818.661 209.265 856.288 208.616 884.829C208.291 899.1 209.664 911.046 212.792 920.379C215.918 929.703 220.773 936.359 227.384 940.177Z" stroke="#1F1F1F" stroke-width="2"/>
<path opacity="0.827586" d="M261.807 960.163C268.726 963.389 276.963 963.548 286.395 960.76C295.834 957.97 306.407 952.242 317.911 943.791C340.918 926.889 367.477 899.218 395.903 862.883C452.744 790.225 516.909 683.098 574.905 558.724C632.902 434.351 673.721 316.337 692.844 226.091C702.407 180.96 706.531 142.828 704.691 114.339C703.77 100.094 701.361 88.3133 697.431 79.2886C693.505 70.2717 688.089 64.0641 681.17 60.8377C674.25 57.6114 666.013 57.4521 656.582 60.2403C647.143 63.031 636.57 68.7583 625.066 77.2097C602.059 94.112 575.5 121.782 547.074 158.118C490.233 230.776 426.068 337.903 368.071 462.276C310.075 586.649 269.256 704.663 250.133 794.909C240.57 840.041 236.446 878.172 238.286 906.661C239.207 920.906 241.616 932.687 245.545 941.712C249.472 950.729 254.888 956.936 261.807 960.163Z" stroke="#1F1F1F" stroke-width="2"/>
<path opacity="0.862069" d="M297.827 976.726C305.001 979.337 313.22 978.778 322.373 975.178C331.533 971.575 341.567 964.948 352.29 955.526C373.737 936.683 397.783 906.804 422.934 868.129C473.226 790.794 527.81 678.482 574.746 549.527C621.682 420.572 652.06 299.45 663.244 207.88C668.838 162.088 669.623 123.741 665.306 95.5214C663.148 81.4108 659.721 69.8845 655.02 61.2367C650.323 52.5963 644.386 46.8844 637.212 44.2733C630.038 41.6622 621.818 42.2215 612.666 45.8211C603.506 49.4238 593.472 56.0509 582.749 65.4728C561.302 84.3159 537.256 114.196 512.105 152.87C461.813 230.206 407.229 342.518 360.293 471.472C313.357 600.427 282.979 721.549 271.794 813.119C266.201 858.912 265.416 897.258 269.732 925.478C271.891 939.588 275.317 951.115 280.019 959.763C284.716 968.403 290.653 974.115 297.827 976.726Z" stroke="#1F1F1F" stroke-width="2"/>
<path opacity="0.896552" d="M335.138 989.742C342.512 991.718 350.652 990.444 359.455 986.061C368.267 981.673 377.685 974.197 387.546 963.876C407.269 943.236 428.62 911.374 450.304 870.654C493.664 789.23 538.252 672.588 573.77 540.033C609.288 407.479 628.995 284.17 632.156 191.974C633.736 145.868 631.177 107.599 624.417 79.8625C621.037 65.9938 616.619 54.8099 611.182 46.6048C605.75 38.4067 599.337 33.234 591.963 31.2581C584.589 29.2822 576.449 30.5557 567.646 34.9393C558.834 39.3266 549.416 46.803 539.555 57.1237C519.832 77.7642 498.481 109.626 476.797 150.346C433.437 231.77 388.849 348.412 353.331 480.967C317.813 613.521 298.106 736.83 294.945 829.026C293.365 875.132 295.924 913.401 302.684 941.137C306.064 955.006 310.482 966.19 315.919 974.395C321.352 982.593 327.764 987.766 335.138 989.742Z" stroke="#1F1F1F" stroke-width="2"/>
</g>
</g>
<defs>
<clipPath id="clip0_216_7139">
<rect width="889" height="470" fill="white" transform="translate(470.5 0.5) rotate(90)"/>
</clipPath>
</defs>
</svg>
