<svg width="11" height="19" viewBox="0 0 11 19" fill="none" xmlns="http://www.w3.org/2000/svg">
<path d="M4.50555 15.079C4.55593 12.4843 4.67414 9.96111 4.54371 7.42443C4.43758 5.40971 4.4996 3.38631 4.51502 1.36735C4.52053 0.720263 4.94906 0.34306 5.53224 0.364786C6.11543 0.386513 6.47757 0.78876 6.49217 1.43956C6.50883 2.1708 6.49623 2.90195 6.49826 3.63315C6.54024 7.34284 6.58192 11.0534 6.6233 14.765C6.62451 14.8701 6.63577 14.9743 6.65111 15.2357C7.44864 14.4382 8.17788 13.7346 8.87321 13.0008C9.19856 12.659 9.54107 12.5749 9.97016 12.7269C10.3992 12.8789 10.5757 13.2212 10.6491 13.6574C10.703 13.9702 10.5518 14.1525 10.3749 14.3312C9.06155 15.6537 7.75 16.9781 6.42103 18.2851C5.91423 18.7827 5.39875 18.7868 4.88553 18.2845C3.54625 16.9756 2.22125 15.6506 0.910523 14.3095C0.451315 13.8412 0.46319 13.1804 0.869803 12.8104C1.27641 12.4405 1.89256 12.4824 2.37645 12.9535C3.09039 13.6511 3.79432 14.3678 4.50555 15.079Z" fill="white"/>
</svg>
