<svg width="13" height="12" viewBox="0 0 13 12" fill="none" xmlns="http://www.w3.org/2000/svg">
<g clip-path="url(#clip0_213_7905)">
<path d="M10.8166 5.03478C10.8166 8.4122 6.47423 11.3071 6.47423 11.3071C6.47423 11.3071 2.13184 8.4122 2.13184 5.03478C2.13184 3.88311 2.58934 2.7786 3.40369 1.96424C4.21805 1.14988 5.32256 0.692383 6.47423 0.692383C7.62591 0.692383 8.73042 1.14988 9.54477 1.96424C10.3591 2.7786 10.8166 3.88311 10.8166 5.03478Z" stroke="#353535" stroke-width="0.964977" stroke-linecap="round" stroke-linejoin="round"/>
<path d="M6.47335 6.48185C7.27276 6.48185 7.92081 5.83379 7.92081 5.03438C7.92081 4.23497 7.27276 3.58691 6.47335 3.58691C5.67393 3.58691 5.02588 4.23497 5.02588 5.03438C5.02588 5.83379 5.67393 6.48185 6.47335 6.48185Z" stroke="#353535" stroke-width="0.964977" stroke-linecap="round" stroke-linejoin="round"/>
</g>
<defs>
<clipPath id="clip0_213_7905">
<rect width="11.5797" height="11.5797" fill="white" transform="translate(0.684082 0.209961)"/>
</clipPath>
</defs>
</svg>
