<svg width="11" height="10" viewBox="0 0 11 10" fill="none" xmlns="http://www.w3.org/2000/svg">
<path d="M9.18463 2.66269C7.81902 3.97628 6.45529 5.21794 5.21298 6.59494C4.22759 7.68991 3.15092 8.70255 2.10059 9.73695C1.76366 10.0682 1.34767 10.0417 1.0578 9.72938C0.767923 9.41708 0.788628 9.02243 1.11709 8.67889C1.48602 8.29276 1.87001 7.92178 2.24647 7.54322C4.14006 5.60628 6.03429 3.66902 7.92914 1.73144C7.98278 1.67655 8.03078 1.61693 8.15784 1.47403C7.33433 1.47403 6.59459 1.46078 5.85672 1.48065C5.51226 1.48917 5.29203 1.35573 5.14898 1.05572C5.00592 0.755715 5.09157 0.487887 5.27886 0.224791C5.4125 0.0355127 5.58473 0.019424 5.76825 0.0184776C7.12916 0.0137457 8.49006 0.00712096 9.85097 0.0184776C10.3695 0.0232096 10.6378 0.287252 10.6434 0.811552C10.6591 2.17877 10.6591 3.54693 10.6434 4.91604C10.6387 5.39492 10.2914 5.72994 9.89049 5.71101C9.48956 5.69208 9.1931 5.35233 9.18651 4.85926C9.17804 4.13054 9.18463 3.39709 9.18463 2.66269Z" fill="#494B5B"/>
</svg>
