<svg width="14" height="8" viewBox="0 0 14 8" fill="none" xmlns="http://www.w3.org/2000/svg">
<path d="M10.8282 4.7705C8.93376 4.73372 7.09147 4.64741 5.23934 4.74264C3.7683 4.82013 2.29094 4.77485 0.816811 4.76359C0.344345 4.75956 0.0689338 4.44668 0.084797 4.02087C0.10066 3.59506 0.394358 3.33065 0.869534 3.31998C1.40344 3.30783 1.93729 3.31702 2.47116 3.31554C5.17976 3.28489 7.88903 3.25445 10.599 3.22424C10.6757 3.22336 10.7518 3.21514 10.9427 3.20393C10.3604 2.62163 9.84669 2.08918 9.31089 1.58149C9.06129 1.34394 8.99992 1.09386 9.1109 0.780565C9.22189 0.467274 9.47183 0.338451 9.7903 0.284846C10.0186 0.245507 10.1518 0.355916 10.2822 0.485018C11.2479 1.44398 12.2149 2.4016 13.1692 3.37193C13.5325 3.74196 13.5355 4.11834 13.1687 4.49306C12.213 5.47093 11.2456 6.43836 10.2664 7.39538C9.92445 7.73067 9.44199 7.722 9.17187 7.42511C8.90176 7.12823 8.93237 6.67835 9.27636 6.32504C9.78566 5.80377 10.3089 5.2898 10.8282 4.7705Z" fill="white"/>
</svg>
