<svg width="807" height="470" viewBox="0 0 807 470" fill="none" xmlns="http://www.w3.org/2000/svg">
<g clip-path="url(#clip0_216_7011)">
<g opacity="0.06">
<path opacity="0.0344828" d="M677.071 243.363C672.164 237.514 664.766 233.889 655.04 232.43C645.306 230.97 633.303 231.692 619.305 234.49C591.31 240.086 555.545 253.939 514.427 274.857C432.205 316.685 328.777 386.658 223.653 474.868C118.528 563.078 31.658 652.784 -23.8126 726.493C-51.5529 763.355 -71.4063 796.171 -81.7779 822.768C-86.964 836.068 -89.7596 847.763 -90.0121 857.603C-90.2643 867.434 -87.9786 875.349 -83.0714 881.198C-78.1642 887.046 -70.7661 890.671 -61.0403 892.13C-51.3061 893.59 -39.3029 892.868 -25.3051 890.07C2.68954 884.475 38.4543 870.621 79.5726 849.703C161.795 807.875 265.222 737.902 370.347 649.692C475.472 561.482 562.342 471.776 617.812 398.067C645.553 361.205 665.406 328.39 675.778 301.792C680.964 288.493 683.759 276.797 684.012 266.957C684.264 257.126 681.978 249.211 677.071 243.363Z" stroke="#1F1F1F" stroke-width="2"/>
<path opacity="0.0689655" d="M647.829 207.483C642.431 202.085 634.745 199.118 624.929 198.512C615.105 197.906 603.21 199.672 589.51 203.679C562.109 211.693 527.688 228.611 488.549 253.033C410.286 301.868 313.35 380.589 216.313 477.626C119.277 574.663 40.5559 671.598 -8.27947 749.862C-32.7015 789 -49.6193 823.422 -57.6333 850.822C-61.6405 864.523 -63.4062 876.417 -62.8001 886.242C-62.1945 896.058 -59.2276 903.744 -53.8294 909.142C-48.4311 914.54 -40.7453 917.507 -30.9293 918.113C-21.1049 918.719 -9.21037 916.953 4.49036 912.946C31.8908 904.932 66.3121 888.014 105.451 863.592C183.714 814.757 280.65 736.036 377.687 638.999C474.723 541.962 553.444 445.027 602.28 366.763C626.702 327.625 643.619 293.203 651.633 265.803C655.641 252.102 657.406 240.208 656.8 230.383C656.195 220.567 653.228 212.881 647.829 207.483Z" stroke="#1F1F1F" stroke-width="2"/>
<path opacity="0.103448" d="M615.918 174.272C610.069 169.365 602.154 167.079 592.323 167.331C582.483 167.584 570.788 170.379 557.488 175.565C530.891 185.937 498.075 205.79 461.213 233.531C387.504 289.001 297.798 375.871 209.588 480.996C121.378 586.121 51.4052 689.548 9.57676 771.77C-11.3412 812.888 -25.1946 848.653 -30.79 876.648C-33.5878 890.646 -34.3101 902.649 -32.8501 912.383C-31.3913 922.109 -27.7659 929.507 -21.9177 934.414C-16.0695 939.321 -8.15427 941.607 1.67716 941.355C11.517 941.102 23.2124 938.307 36.5117 933.121C63.1094 922.749 95.9253 902.896 132.786 875.155C206.496 819.685 296.202 732.815 384.412 627.69C472.622 522.565 542.595 419.138 584.423 336.916C605.341 295.798 619.194 260.033 624.79 232.038C627.588 218.04 628.31 206.037 626.85 196.303C625.391 186.577 621.766 179.179 615.918 174.272Z" stroke="#1F1F1F" stroke-width="2"/>
<path opacity="0.137931" d="M581.579 143.953C575.325 139.574 567.241 137.987 557.469 139.095C547.688 140.204 536.281 144.009 523.484 150.334C497.892 162.984 466.931 185.622 432.628 216.47C364.034 278.153 282.241 372.511 203.528 484.924C124.816 597.337 64.1238 706.469 29.6206 792.024C12.3659 834.809 1.68237 871.645 -1.45187 900.021C-3.01905 914.209 -2.69243 926.229 -0.389586 935.799C1.9113 945.361 6.16774 952.415 12.4214 956.794C18.675 961.173 26.7593 962.76 36.5313 961.652C46.3117 960.543 57.7189 956.738 70.5157 950.413C96.1082 937.763 127.069 915.125 161.372 884.277C229.966 822.593 311.76 728.236 390.472 615.823C469.184 503.41 529.876 394.278 564.379 308.723C581.634 265.938 592.318 229.102 595.452 200.726C597.019 186.538 596.693 174.517 594.39 164.948C592.089 155.386 587.832 148.332 581.579 143.953Z" stroke="#1F1F1F" stroke-width="2"/>
<path opacity="0.172414" d="M545.074 116.728C538.462 112.911 530.271 112.035 520.632 113.99C510.986 115.948 499.954 120.732 487.757 128.148C463.364 142.981 434.494 168.231 403.01 201.951C340.053 269.378 266.795 370.505 198.18 489.351C129.564 608.196 78.6145 722.203 51.6992 810.439C38.2392 854.565 30.8068 892.192 30.1576 920.733C29.8329 935.004 31.206 946.95 34.3341 956.283C37.4596 965.608 42.3146 972.264 48.9261 976.081C55.5376 979.898 63.7295 980.775 73.3677 978.819C83.0142 976.862 94.0465 972.078 106.243 964.661C130.636 949.829 159.506 924.578 190.99 890.859C253.947 823.431 327.205 722.304 395.82 603.459C464.436 484.613 515.385 370.607 542.301 282.37C555.761 238.244 563.193 200.617 563.842 172.076C564.167 157.805 562.794 145.859 559.666 136.526C556.54 127.201 551.685 120.545 545.074 116.728Z" stroke="#1F1F1F" stroke-width="2"/>
<path opacity="0.206897" d="M506.681 92.7728C499.762 89.5464 491.525 89.3872 482.094 92.1754C472.655 94.966 462.081 100.693 450.577 109.145C427.57 126.047 401.011 153.717 372.586 190.053C315.745 262.711 251.579 369.838 193.583 494.211C135.587 618.584 94.7673 736.598 75.6447 826.844C66.0818 871.976 61.957 910.107 63.7978 938.596C64.7182 952.841 67.1272 964.622 71.0569 973.647C74.9832 982.664 80.3998 988.871 87.3188 992.098C94.2379 995.324 102.475 995.483 111.906 992.695C121.345 989.905 131.919 984.177 143.423 975.726C166.43 958.824 192.989 931.153 221.414 894.818C278.255 822.16 342.421 715.033 400.417 590.659C458.413 466.286 499.233 348.273 518.355 258.026C527.918 212.895 532.043 174.763 530.202 146.274C529.282 132.029 526.873 120.248 522.943 111.224C519.017 102.207 513.6 95.9992 506.681 92.7728Z" stroke="#1F1F1F" stroke-width="2"/>
<path opacity="0.241379" d="M466.693 72.2385C459.519 69.6274 451.299 70.1866 442.147 73.7862C432.987 77.3889 422.953 84.016 412.229 93.4379C390.783 112.281 366.737 142.161 341.586 180.835C291.294 258.171 236.709 370.483 189.774 499.437C142.838 628.392 112.459 749.514 101.275 841.084C95.6819 886.877 94.8963 925.223 99.213 953.443C101.371 967.554 104.798 979.08 109.499 987.728C114.197 996.368 120.134 1002.08 127.308 1004.69C134.481 1007.3 142.701 1006.74 151.853 1003.14C161.013 999.541 171.047 992.913 181.771 983.492C203.217 964.648 227.264 934.769 252.414 896.094C302.706 818.759 357.291 706.447 404.227 577.492C451.162 448.537 481.541 327.415 492.725 235.846C498.318 190.053 499.104 151.707 494.787 123.487C492.629 109.376 489.202 97.8496 484.501 89.2018C479.804 80.5614 473.867 74.8496 466.693 72.2385Z" stroke="#1F1F1F" stroke-width="2"/>
<path opacity="0.275862" d="M425.413 55.256C418.038 53.2801 409.899 54.5536 401.095 58.9371C392.284 63.3245 382.866 70.8009 373.004 81.1215C353.282 101.762 331.931 133.624 310.247 174.343C266.886 255.768 222.298 372.41 186.78 504.964C151.262 637.519 131.556 760.828 128.395 853.024C126.814 899.13 129.374 937.399 136.133 965.135C139.513 979.004 143.932 990.188 149.369 998.393C154.801 1006.59 161.213 1011.76 168.588 1013.74C175.962 1015.72 184.101 1014.44 192.905 1010.06C201.716 1005.67 211.134 998.195 220.996 987.874C240.718 967.234 262.069 935.372 283.753 894.652C327.114 813.228 371.702 696.586 407.22 564.031C442.738 431.476 462.444 308.167 465.605 215.972C467.186 169.865 464.627 131.597 457.867 103.86C454.487 89.9916 450.069 78.8078 444.632 70.6027C439.199 62.4045 432.787 57.2319 425.413 55.256Z" stroke="#1F1F1F" stroke-width="2"/>
<path opacity="0.310345" d="M383.155 41.9187C375.637 40.5931 367.639 42.5711 359.251 47.7053C350.856 52.8439 342.125 61.1127 333.201 72.2536C315.352 94.5346 296.86 128.136 278.807 170.59C242.708 255.484 208.455 375.568 184.626 510.714C160.796 645.86 151.911 770.417 156.798 862.538C159.241 908.606 165.126 946.506 174.278 973.548C178.854 987.069 184.23 997.826 190.362 1005.53C196.488 1013.22 203.327 1017.81 210.845 1019.14C218.363 1020.46 226.361 1018.49 234.749 1013.35C243.144 1008.21 251.875 999.945 260.799 988.804C278.648 966.523 297.141 932.922 315.193 890.467C351.292 805.574 385.545 685.489 409.375 550.344C433.204 415.198 442.089 290.64 437.202 198.52C434.759 152.451 428.874 114.551 419.722 87.5097C415.146 73.9883 409.77 63.2321 403.639 55.532C397.512 47.8386 390.674 43.2444 383.155 41.9187Z" stroke="#1F1F1F" stroke-width="2"/>
<path opacity="0.344828" d="M340.242 32.3C332.637 31.6346 324.842 34.3022 316.933 40.1479C309.018 45.9987 301.041 54.9969 293.121 66.8732C277.283 90.625 261.789 125.71 247.505 169.577C218.943 257.293 195.286 379.906 183.326 516.614C171.365 653.323 173.371 778.181 186.268 869.525C192.717 915.205 201.883 952.448 213.356 978.589C219.093 991.66 225.386 1001.91 232.166 1009.04C238.939 1016.17 246.152 1020.15 253.758 1020.82C261.363 1021.48 269.158 1018.82 277.066 1012.97C284.982 1007.12 292.959 998.122 300.878 986.246C316.717 962.494 332.211 927.409 346.494 883.543C375.057 795.826 398.713 673.213 410.674 536.505C422.634 399.796 420.629 274.939 407.732 183.595C401.282 137.914 392.117 100.672 380.643 74.5304C374.906 61.4593 368.613 51.2126 361.834 44.0762C355.06 36.946 347.847 32.9654 340.242 32.3Z" stroke="#1F1F1F" stroke-width="2"/>
<path opacity="0.37931" d="M297 26.4415C289.366 26.4415 281.833 29.7782 274.464 36.291C267.088 42.8094 259.926 52.4686 253.072 64.99C239.363 90.0318 226.987 126.334 216.58 171.278C195.772 261.151 182.892 385.358 182.892 522.589C182.892 659.82 195.772 784.028 216.58 873.9C226.987 918.844 239.363 955.146 253.072 980.188C259.926 992.71 267.088 1002.37 274.464 1008.89C281.833 1015.4 289.365 1018.74 297 1018.74C304.634 1018.74 312.167 1015.4 319.536 1008.89C326.911 1002.37 334.073 992.71 340.928 980.188C354.636 955.146 367.013 918.844 377.419 873.9C398.228 784.028 411.108 659.82 411.108 522.589C411.108 385.358 398.228 261.151 377.419 171.278C367.013 126.334 354.636 90.0318 340.928 64.99C334.074 52.4686 326.911 42.8094 319.536 36.291C312.167 29.7783 304.634 26.4415 297 26.4415Z" stroke="#1F1F1F" stroke-width="2"/>
<path opacity="0.413793" d="M253.758 24.359C246.152 25.0244 238.939 29.005 232.166 36.1352C225.387 43.2716 219.093 53.5183 213.356 66.5894C201.883 92.7307 192.717 129.973 186.268 175.654C173.371 266.998 171.365 391.855 183.326 528.564C195.286 665.272 218.943 787.885 247.505 875.602C261.789 919.468 277.283 954.553 293.121 978.305C301.041 990.181 309.018 999.18 316.933 1005.03C324.842 1010.88 332.637 1013.54 340.242 1012.88C347.847 1012.21 355.06 1008.23 361.834 1001.1C368.613 993.966 374.906 983.719 380.643 970.648C392.117 944.507 401.282 907.264 407.732 861.584C420.629 770.24 422.634 645.382 410.674 508.674C398.713 371.965 375.057 249.353 346.494 161.636C332.211 117.769 316.717 82.684 300.878 58.9323C292.959 47.056 284.982 38.0577 277.066 32.2069C269.158 26.3612 261.363 23.6936 253.758 24.359Z" stroke="#1F1F1F" stroke-width="2"/>
<path opacity="0.448276" d="M210.845 26.0392C203.326 27.3648 196.488 31.959 190.361 39.6524C184.23 47.3525 178.854 58.1087 174.278 71.6301C165.126 98.6719 159.241 136.572 156.798 182.64C151.911 274.761 160.795 399.318 184.625 534.464C208.455 669.61 242.708 789.694 278.806 874.588C296.859 917.042 315.352 950.644 333.2 972.925C342.125 984.065 350.855 992.334 359.251 997.473C367.639 1002.61 375.636 1004.59 383.155 1003.26C390.673 1001.93 397.512 997.34 403.638 989.646C409.77 981.946 415.146 971.19 419.722 957.668C428.873 930.627 434.758 892.727 437.202 846.658C442.088 754.538 433.204 629.981 409.374 494.835C385.544 359.689 351.292 239.605 315.193 154.711C297.14 112.256 278.648 78.655 260.799 56.374C251.875 45.2331 243.144 36.9643 234.749 31.8257C226.361 26.6916 218.363 24.7135 210.845 26.0392Z" stroke="#1F1F1F" stroke-width="2"/>
<path opacity="0.482759" d="M168.587 31.4399C161.213 33.4158 154.801 38.5885 149.368 46.7866C143.931 54.9917 139.513 66.1756 136.133 80.0443C129.373 107.781 126.814 146.049 128.395 192.156C131.556 284.351 151.262 407.66 186.78 540.215C222.298 672.77 266.886 789.412 310.247 870.836C331.931 911.556 353.281 943.417 373.004 964.058C382.866 974.379 392.284 981.855 401.095 986.242C409.899 990.626 418.038 991.9 425.412 989.924C432.786 987.948 439.199 982.775 444.631 974.577C450.068 966.372 454.486 955.188 457.866 941.319C464.626 913.583 467.186 875.314 465.605 829.208C462.444 737.012 442.738 613.703 407.22 481.148C371.702 348.594 327.114 231.952 283.753 150.527C262.069 109.808 240.718 77.9461 220.996 57.3055C211.134 46.9848 201.716 39.5084 192.905 35.1211C184.101 30.7375 175.962 29.464 168.587 31.4399Z" stroke="#1F1F1F" stroke-width="2"/>
<path opacity="0.517241" d="M127.307 40.4854C120.133 43.0965 114.196 48.8084 109.499 57.4488C104.798 66.0966 101.371 77.6229 99.2128 91.7335C94.896 119.954 95.6817 158.3 101.275 204.093C112.459 295.662 142.838 416.784 189.773 545.739C236.709 674.694 291.294 787.006 341.586 864.341C366.736 903.016 390.783 932.896 412.229 951.739C422.953 961.161 432.986 967.788 442.147 971.39C451.299 974.99 459.518 975.549 466.692 972.938C473.866 970.327 479.803 964.615 484.5 955.975C489.202 947.327 492.628 935.801 494.787 921.69C499.104 893.47 498.318 855.124 492.725 809.331C481.54 717.762 451.162 596.639 404.226 467.685C357.291 338.73 302.706 226.418 252.414 149.082C227.263 110.408 203.217 80.528 181.771 61.6849C171.047 52.263 161.013 45.6359 151.853 42.0332C142.701 38.4336 134.481 37.8744 127.307 40.4854Z" stroke="#1F1F1F" stroke-width="2"/>
<path opacity="0.551724" d="M87.319 53.0809C80.4 56.3073 74.9833 62.5149 71.057 71.5318C67.1274 80.5564 64.7184 92.3375 63.7979 106.583C61.9572 135.071 66.0819 173.203 75.6449 218.334C94.7674 308.581 135.587 426.594 193.583 550.968C251.579 675.341 315.745 782.468 372.586 855.126C401.011 891.461 427.57 919.132 450.577 936.034C462.081 944.485 472.655 950.213 482.094 953.003C491.525 955.792 499.762 955.632 506.681 952.406C513.6 949.18 519.017 942.972 522.943 933.955C526.873 924.93 529.282 913.149 530.202 898.904C532.043 870.415 527.918 832.284 518.355 787.153C499.233 696.906 458.413 578.893 400.417 454.519C342.421 330.146 278.255 223.019 221.414 150.361C192.989 114.025 166.43 86.3551 143.423 69.4529C131.919 61.0015 121.345 55.2741 111.906 52.4835C102.475 49.6952 94.238 49.8545 87.319 53.0809Z" stroke="#1F1F1F" stroke-width="2"/>
<path opacity="0.586207" d="M48.926 69.0972C42.3145 72.9143 37.4595 79.5704 34.334 88.8952C31.2059 98.228 29.8328 110.174 30.1574 124.445C30.8066 152.986 38.2391 190.613 51.6991 234.739C78.6144 322.975 129.564 436.982 198.179 555.828C266.795 674.673 340.053 775.8 403.01 843.228C434.494 876.947 463.364 902.198 487.757 917.03C499.953 924.447 510.986 929.231 520.632 931.188C530.27 933.144 538.462 932.267 545.074 928.45C551.685 924.633 556.54 917.977 559.666 908.652C562.794 899.319 564.167 887.373 563.842 873.102C563.193 844.561 555.761 806.934 542.301 762.808C515.385 674.572 464.436 560.565 395.82 441.72C327.205 322.874 253.947 221.747 190.99 154.32C159.505 120.6 130.636 95.3499 106.243 80.5171C94.0464 73.1005 83.0141 68.3165 73.3676 66.3591C63.7293 64.4035 55.5375 65.28 48.926 69.0972Z" stroke="#1F1F1F" stroke-width="2"/>
<path opacity="0.62069" d="M12.4215 88.3848C6.16787 92.7636 1.91141 99.8175 -0.389484 109.379C-2.69231 118.949 -3.01893 130.97 -1.45174 145.158C1.68249 173.534 12.366 210.37 29.6207 253.155C64.1239 338.709 124.816 447.842 203.528 560.255C282.241 672.668 364.034 767.025 432.628 828.709C466.931 859.556 497.892 882.194 523.484 894.845C536.281 901.17 547.688 904.974 557.469 906.083C567.241 907.192 575.325 905.604 581.579 901.226C587.832 896.847 592.089 889.793 594.39 880.231C596.693 870.661 597.019 858.641 595.452 844.452C592.318 816.077 581.634 779.24 564.38 736.456C529.876 650.901 469.184 541.768 390.472 429.355C311.76 316.943 229.967 222.585 161.372 160.901C127.069 130.054 96.1083 107.416 70.5158 94.7658C57.7191 88.4404 46.3118 84.636 36.5314 83.5269C26.7594 82.4187 18.6751 84.0059 12.4215 88.3848Z" stroke="#1F1F1F" stroke-width="2"/>
<path opacity="0.655172" d="M-21.9176 110.763C-27.7658 115.671 -31.3913 123.069 -32.8501 132.795C-34.3101 142.529 -33.5878 154.532 -30.79 168.53C-25.1946 196.524 -11.3412 232.289 9.57674 273.407C51.4052 355.629 121.378 459.057 209.588 564.182C297.798 669.307 387.504 756.176 461.213 811.647C498.075 839.387 530.89 859.241 557.488 869.612C570.787 874.798 582.483 877.594 592.323 877.847C602.154 878.099 610.069 875.813 615.917 870.906C621.766 865.999 625.391 858.601 626.85 848.875C628.31 839.141 627.588 827.137 624.79 813.14C619.194 785.145 605.341 749.38 584.423 708.262C542.595 626.04 472.622 522.612 384.412 417.487C296.202 312.363 206.496 225.493 132.786 170.022C95.9253 142.282 63.1094 122.429 36.5117 112.057C23.2124 106.871 11.517 104.075 1.67716 103.823C-8.15426 103.571 -16.0694 105.856 -21.9176 110.763Z" stroke="#1F1F1F" stroke-width="2"/>
<path opacity="0.689655" d="M-53.8294 136.036C-59.2276 141.435 -62.1945 149.121 -62.8001 158.937C-63.4061 168.761 -61.6405 180.656 -57.6333 194.356C-49.6193 221.757 -32.7015 256.178 -8.2795 295.317C40.5559 373.58 119.277 470.516 216.313 567.552C313.35 664.589 410.286 743.31 488.549 792.145C527.688 816.567 562.109 833.485 589.51 841.499C603.21 845.506 615.105 847.272 624.929 846.666C634.745 846.061 642.431 843.094 647.829 837.695C653.228 832.297 656.195 824.611 656.8 814.795C657.406 804.971 655.64 793.076 651.633 779.376C643.619 751.975 626.702 717.554 602.279 678.415C553.444 600.152 474.723 503.216 377.687 406.179C280.65 309.143 183.714 230.422 105.451 181.586C66.3121 157.164 31.8908 140.247 4.49039 132.233C-9.21034 128.225 -21.1049 126.46 -30.9293 127.066C-40.7453 127.671 -48.4311 130.638 -53.8294 136.036Z" stroke="#1F1F1F" stroke-width="2"/>
<path opacity="0.724138" d="M-83.0715 163.979C-87.9787 169.827 -90.2644 177.743 -90.0122 187.574C-89.7596 197.414 -86.964 209.109 -81.778 222.409C-71.4064 249.006 -51.553 281.822 -23.8127 318.683C31.658 392.393 118.528 482.098 223.652 570.309C328.777 658.519 432.205 728.492 514.427 770.32C555.545 791.238 591.31 805.091 619.305 810.687C633.302 813.485 645.306 814.207 655.04 812.747C664.766 811.288 672.164 807.663 677.071 801.814C681.978 795.966 684.264 788.051 684.012 778.22C683.759 768.38 680.963 756.684 675.777 743.385C665.406 716.787 645.552 683.971 617.812 647.11C562.341 573.401 475.472 483.695 370.347 395.485C265.222 307.275 161.795 237.302 79.5725 195.474C38.4543 174.556 2.68949 160.702 -25.3051 155.107C-39.303 152.309 -51.3061 151.587 -61.0404 153.047C-70.7662 154.505 -78.1642 158.131 -83.0715 163.979Z" stroke="#1F1F1F" stroke-width="2"/>
<path opacity="0.758621" d="M-109.42 194.348C-113.799 200.602 -115.387 208.686 -114.278 218.458C-113.169 228.239 -109.365 239.646 -103.039 252.443C-90.3892 278.035 -67.7512 308.996 -36.9039 343.299C24.7799 411.893 119.137 493.687 231.55 572.399C343.963 651.111 453.096 711.803 538.65 746.307C581.435 763.561 618.271 774.245 646.647 777.379C660.835 778.946 672.856 778.62 682.426 776.317C691.988 774.016 699.041 769.759 703.42 763.506C707.799 757.252 709.386 749.168 708.278 739.396C707.169 729.615 703.365 718.208 697.039 705.411C684.389 679.819 661.751 648.858 630.904 614.555C569.22 545.961 474.862 464.168 362.45 385.455C250.037 306.743 140.904 246.051 55.3495 211.548C12.5646 194.293 -24.2715 183.609 -52.6473 180.475C-66.8357 178.908 -78.8561 179.235 -88.426 181.537C-97.9878 183.838 -105.042 188.095 -109.42 194.348Z" stroke="#1F1F1F" stroke-width="2"/>
<path opacity="0.793103" d="M-132.676 226.884C-136.494 233.496 -137.37 241.688 -135.415 251.326C-133.457 260.972 -128.673 272.005 -121.257 284.201C-106.424 308.594 -81.1736 337.464 -47.4539 368.948C19.9735 431.905 121.101 505.163 239.946 573.779C358.791 642.394 472.798 693.344 561.034 720.259C605.16 733.719 642.787 741.151 671.328 741.801C685.599 742.125 697.546 740.752 706.878 737.624C716.203 734.498 722.859 729.643 726.676 723.032C730.494 716.42 731.37 708.229 729.414 698.59C727.457 688.944 722.673 677.912 715.256 665.715C700.424 641.322 675.174 612.452 641.454 580.968C574.026 518.011 472.899 444.753 354.054 376.138C235.209 307.522 121.202 256.573 32.9655 229.657C-11.1604 216.197 -48.7875 208.765 -77.3285 208.116C-91.5995 207.791 -103.546 209.164 -112.879 212.292C-122.203 215.418 -128.859 220.273 -132.676 226.884Z" stroke="#1F1F1F" stroke-width="2"/>
<path opacity="0.827586" d="M-152.663 261.307C-155.889 268.226 -156.048 276.463 -153.26 285.894C-150.469 295.334 -144.742 305.907 -136.291 317.411C-119.388 340.418 -91.7182 366.977 -55.3827 395.403C17.2752 452.244 124.402 516.409 248.776 574.405C373.149 632.402 491.163 673.221 581.409 692.344C626.54 701.907 664.672 706.031 693.161 704.191C707.406 703.27 719.187 700.861 728.211 696.931C737.228 693.005 743.436 687.589 746.662 680.669C749.889 673.75 750.048 665.513 747.26 656.082C744.469 646.643 738.742 636.07 730.29 624.566C713.388 601.559 685.718 575 649.382 546.574C576.724 489.733 469.597 425.568 345.224 367.571C220.851 309.575 102.837 268.756 12.5907 249.633C-32.5404 240.07 -70.6721 235.945 -99.161 237.786C-113.406 238.707 -125.187 241.116 -134.212 245.045C-143.229 248.972 -149.436 254.388 -152.663 261.307Z" stroke="#1F1F1F" stroke-width="2"/>
<path opacity="0.862069" d="M-169.226 297.327C-171.837 304.501 -171.278 312.72 -167.678 321.873C-164.075 331.033 -157.448 341.067 -148.026 351.79C-129.183 373.237 -99.3036 397.283 -60.629 422.434C16.7065 472.726 129.018 527.31 257.973 574.246C386.928 621.182 508.05 651.56 599.62 662.745C645.412 668.338 683.758 669.123 711.979 664.807C726.089 662.648 737.615 659.222 746.263 654.52C754.904 649.823 760.616 643.886 763.227 636.712C765.838 629.538 765.278 621.319 761.679 612.166C758.076 603.006 751.449 592.972 742.027 582.249C723.184 560.802 693.304 536.756 654.63 511.605C577.294 461.313 464.982 406.729 336.028 359.793C207.073 312.857 85.9507 282.479 -5.61884 271.295C-51.4117 265.701 -89.7578 264.916 -117.978 269.232C-132.088 271.391 -143.615 274.818 -152.263 279.519C-160.903 284.216 -166.615 290.153 -169.226 297.327Z" stroke="#1F1F1F" stroke-width="2"/>
<path opacity="0.896552" d="M-182.242 334.638C-184.218 342.012 -182.944 350.152 -178.561 358.956C-174.173 367.767 -166.697 377.185 -156.376 387.046C-135.736 406.769 -103.874 428.12 -63.1544 449.804C18.2701 493.164 134.912 537.753 267.467 573.271C400.021 608.789 523.33 628.495 615.526 631.656C661.632 633.237 699.901 630.677 727.637 623.917C741.506 620.537 752.69 616.119 760.895 610.682C769.093 605.25 774.266 598.837 776.242 591.463C778.218 584.089 776.944 575.949 772.561 567.146C768.173 558.335 760.697 548.916 750.376 539.055C729.736 519.332 697.874 497.981 657.154 476.297C575.73 432.937 459.088 388.349 326.533 352.831C193.979 317.313 70.6697 297.606 -21.5262 294.445C-67.6323 292.865 -105.901 295.424 -133.637 302.184C-147.506 305.564 -158.69 309.982 -166.895 315.419C-175.093 320.852 -180.266 327.264 -182.242 334.638Z" stroke="#1F1F1F" stroke-width="2"/>
<path opacity="0.931035" d="M-191.61 372.926C-192.936 380.444 -190.958 388.441 -185.823 396.83C-180.685 405.225 -172.416 413.956 -161.275 422.88C-138.994 440.729 -105.393 459.221 -62.9384 477.274C21.9554 513.373 142.039 547.625 277.185 571.455C412.331 595.285 536.889 604.169 629.009 599.283C675.078 596.839 712.978 590.954 740.019 581.803C753.541 577.227 764.297 571.851 771.997 565.719C779.69 559.593 784.285 552.754 785.61 545.236C786.936 537.718 784.958 529.72 779.824 521.332C774.685 512.937 766.416 504.206 755.275 495.281C732.994 477.433 699.393 458.94 656.939 440.888C572.045 404.789 451.961 370.536 316.815 346.706C181.669 322.876 57.1116 313.992 -35.009 318.879C-81.0774 321.322 -118.977 327.207 -146.019 336.359C-159.54 340.935 -170.297 346.311 -177.997 352.442C-185.69 358.569 -190.284 365.407 -191.61 372.926Z" stroke="#1F1F1F" stroke-width="2"/>
<path opacity="0.965517" d="M-197.259 411.871C-197.925 419.476 -195.257 427.271 -189.412 435.18C-183.561 443.095 -174.563 451.072 -162.686 458.991C-138.934 474.83 -103.849 490.324 -59.9829 504.608C27.734 533.17 150.346 556.826 287.055 568.787C423.764 580.747 548.621 578.742 639.965 565.845C685.645 559.396 722.888 550.23 749.03 538.756C762.101 533.019 772.347 526.726 779.484 519.947C786.614 513.173 790.595 505.96 791.26 498.355C791.925 490.75 789.258 482.955 783.412 475.046C777.561 467.131 768.563 459.154 756.687 451.234C732.935 435.396 697.85 419.902 653.983 405.618C566.266 377.056 443.654 353.4 306.945 341.439C170.237 329.479 45.3793 331.484 -45.9649 344.381C-91.645 350.83 -128.888 359.996 -155.029 371.47C-168.1 377.207 -178.347 383.5 -185.483 390.279C-192.613 397.052 -196.594 404.266 -197.259 411.871Z" stroke="#1F1F1F" stroke-width="2"/>
<path d="M-199.148 451.143C-199.148 458.777 -195.811 466.31 -189.298 473.679C-182.78 481.054 -173.121 488.217 -160.599 495.071C-135.558 508.779 -99.2554 521.156 -54.3112 531.562C35.5613 552.371 159.769 565.251 297 565.251C434.231 565.251 558.438 552.371 648.311 531.562C693.255 521.156 729.557 508.779 754.599 495.071C767.12 488.217 776.78 481.054 783.298 473.679C789.811 466.31 793.147 458.777 793.147 451.143C793.147 443.509 789.811 435.976 783.298 428.607C776.78 421.231 767.12 414.069 754.599 407.215C729.557 393.507 693.255 381.13 648.311 370.723C558.438 349.915 434.231 337.035 297 337.035C159.769 337.035 35.5613 349.915 -54.3112 370.723C-99.2554 381.13 -135.558 393.507 -160.599 407.215C-173.121 414.069 -182.78 421.231 -189.298 428.607C-195.811 435.976 -199.148 443.509 -199.148 451.143Z" stroke="#1F1F1F" stroke-width="2"/>
</g>
</g>
<defs>
<clipPath id="clip0_216_7011">
<rect width="889" height="470" fill="white" transform="translate(807 470) rotate(-180)"/>
</clipPath>
</defs>
</svg>
