<svg width="12" height="13" viewBox="0 0 12 13" fill="none" xmlns="http://www.w3.org/2000/svg">
<g opacity="0.6">
<path d="M9.57235 12.2935H2.01709C0.973056 12.2935 0.120117 11.4406 0.120117 10.3966V2.84131C0.120117 1.79727 0.973056 0.944336 2.01709 0.944336H9.57235C10.6164 0.944336 11.4693 1.79727 11.4693 2.84131V10.3966C11.4693 11.4453 10.621 12.2935 9.57235 12.2935Z" fill="#5C6EFF"/>
<path d="M5.79683 9.53458C5.01846 9.53458 4.28671 9.23162 3.73673 8.68164C3.18674 8.13166 2.88379 7.3999 2.88379 6.62154C2.88379 5.84317 3.18674 5.11142 3.73673 4.56143C4.28671 4.01145 5.01846 3.7085 5.79683 3.7085C6.57519 3.7085 7.30695 4.01145 7.85693 4.56143C8.40691 5.11142 8.70987 5.84317 8.70987 6.62154C8.70987 7.3999 8.40691 8.13166 7.85693 8.68164C7.30229 9.23162 6.57519 9.53458 5.79683 9.53458ZM5.79683 4.32839C4.53373 4.32839 3.50368 5.35378 3.50368 6.62154C3.50368 7.88463 4.52907 8.91468 5.79683 8.91468C7.05992 8.91468 8.08997 7.88929 8.08997 6.62154C8.08531 5.35844 7.05992 4.32839 5.79683 4.32839Z" fill="white"/>
<path d="M9.27709 3.61229C9.58599 3.61229 9.83641 3.36187 9.83641 3.05297C9.83641 2.74407 9.58599 2.49365 9.27709 2.49365C8.96819 2.49365 8.71777 2.74407 8.71777 3.05297C8.71777 3.36187 8.96819 3.61229 9.27709 3.61229Z" fill="white"/>
</g>
</svg>
