<svg width="14" height="14" viewBox="0 0 14 14" fill="none" xmlns="http://www.w3.org/2000/svg">
<g opacity="0.7">
<path d="M12.7645 4.40119C12.4473 3.70024 11.992 3.07092 11.4138 2.52857C10.8357 1.99135 10.1654 1.56668 9.4184 1.26993C8.64582 0.962942 7.82718 0.809448 6.98297 0.809448C6.13875 0.809448 5.32012 0.962942 4.54753 1.26993C3.80053 1.56668 3.13028 1.98623 2.55212 2.52857C1.97396 3.07092 1.5186 3.70024 1.20138 4.40119C0.873931 5.12773 0.705078 5.90543 0.705078 6.70359C0.705078 8.10038 1.22695 9.44089 2.18373 10.5051L1.67208 13.2936L4.39404 12.081C5.20755 12.4289 6.07223 12.6029 6.97784 12.6029C7.82206 12.6029 8.64069 12.4494 9.41328 12.1424C10.1603 11.8456 10.8305 11.4261 11.4087 10.8837C11.9868 10.3414 12.4422 9.71206 12.7594 9.01111C13.0869 8.28457 13.2557 7.50688 13.2557 6.70871C13.2608 5.90543 13.092 5.13284 12.7645 4.40119Z" fill="#5C6EFF"/>
<path d="M9.53086 7.88011C9.2648 7.74708 9.07039 7.66522 8.93225 7.61405C8.84527 7.58335 8.64061 7.49126 8.56898 7.54754C8.34385 7.73173 8.10337 8.25361 7.84755 8.35082C7.21311 8.22803 6.62473 7.79313 6.16425 7.348C5.95959 7.15357 5.58097 6.601 5.49911 6.45262C5.48376 6.29913 5.76004 6.09447 5.82144 5.97679C6.13865 5.61864 5.89819 5.39351 5.85726 5.24514C5.78563 5.09164 5.66284 4.81536 5.5554 4.59023C5.4633 4.44186 5.44281 4.22185 5.27909 4.13999C4.58325 3.78183 4.18419 4.49814 4.02046 4.87164C3.03299 7.25078 8.96805 11.7788 10.1755 8.65781C10.2369 8.38664 10.2113 8.28431 10.1192 8.16151C9.93506 8.0336 9.72017 7.97732 9.53086 7.88011Z" fill="#5C6EFF"/>
</g>
</svg>
