<svg width="11" height="10" viewBox="0 0 11 10" fill="none" xmlns="http://www.w3.org/2000/svg">
<path d="M9.18453 2.6633C7.81892 3.97689 6.45519 5.21855 5.21287 6.59555C4.22749 7.69052 3.15081 8.70316 2.10049 9.73756C1.76355 10.0688 1.34757 10.0423 1.05769 9.72999C0.767818 9.41769 0.788523 9.02304 1.11698 8.6795C1.48592 8.29337 1.8699 7.92239 2.24636 7.54383C4.13996 5.60689 6.03418 3.66963 7.92903 1.73205C7.98268 1.67716 8.03068 1.61754 8.15773 1.47464C7.33422 1.47464 6.59448 1.46139 5.85662 1.48126C5.51216 1.48978 5.29193 1.35634 5.14887 1.05633C5.00582 0.756326 5.09146 0.488497 5.27875 0.225401C5.41239 0.036123 5.58463 0.0200344 5.76815 0.019088C7.12905 0.014356 8.48996 0.00773131 9.85086 0.019088C10.3694 0.0238199 10.6377 0.287863 10.6433 0.812163C10.659 2.17938 10.659 3.54754 10.6433 4.91666C10.6386 5.39553 10.2913 5.73055 9.89039 5.71162C9.48946 5.69269 9.193 5.35294 9.18641 4.85987C9.17794 4.13115 9.18453 3.3977 9.18453 2.6633Z" fill="#494B5B" fill-opacity="0.5"/>
</svg>
