<svg width="14" height="8" viewBox="0 0 14 8" fill="none" xmlns="http://www.w3.org/2000/svg">
<path d="M10.8281 4.7644C8.93358 4.72761 7.09129 4.6413 5.23916 4.73653C3.76812 4.81403 2.29075 4.76874 0.816628 4.75749C0.344162 4.75346 0.0687507 4.44057 0.0846139 4.01477C0.100477 3.58896 0.394174 3.32454 0.869351 3.31388C1.40326 3.30172 1.9371 3.31092 2.47098 3.30944C5.17958 3.27878 7.88885 3.24835 10.5988 3.21814C10.6755 3.21726 10.7516 3.20904 10.9425 3.19783C10.3602 2.61552 9.8465 2.08308 9.3107 1.57538C9.06111 1.33784 8.99974 1.08775 9.11072 0.774461C9.2217 0.46117 9.47165 0.332347 9.79012 0.278743C10.0185 0.239404 10.1516 0.349813 10.2821 0.478915C11.2477 1.43787 12.2147 2.39549 13.169 3.36583C13.5323 3.73586 13.5353 4.11223 13.1685 4.48696C12.2129 5.46482 11.2454 6.43226 10.2662 7.38928C9.92427 7.72456 9.44181 7.71589 9.17169 7.41901C8.90157 7.12212 8.93219 6.67225 9.27618 6.31894C9.78547 5.79767 10.3088 5.2837 10.8281 4.7644Z" fill="#494B5B"/>
</svg>
