<svg width="492" height="1372" viewBox="0 0 492 1372" fill="none" xmlns="http://www.w3.org/2000/svg">
<g opacity="0.06">
<path opacity="0.0344828" d="M129.797 1017.75C139.724 1034.95 159.699 1038.93 187.779 1030.77C215.793 1022.63 251.571 1002.48 292.693 972.061C374.926 911.234 478.361 809.485 583.491 681.221C688.62 552.957 775.497 422.515 830.975 315.328C858.718 261.726 878.58 213.995 888.959 175.294C899.362 136.503 900.13 107.208 890.204 90.0074C880.277 72.8066 860.302 68.8195 832.222 76.9801C804.208 85.1215 768.43 105.274 727.308 135.692C645.075 196.518 541.64 298.267 436.51 426.531C331.381 554.795 244.504 685.237 189.026 792.425C161.283 846.027 141.421 893.758 131.042 932.458C120.639 971.249 119.871 1000.54 129.797 1017.75Z" stroke="#2B2C3B" stroke-width="2"/>
<path opacity="0.0689655" d="M159.03 1069.96C164.472 1077.87 172.209 1082.2 182.058 1083.08C191.914 1083.97 203.833 1081.39 217.546 1075.56C244.971 1063.9 279.41 1039.28 318.556 1003.77C396.835 932.747 493.782 818.271 590.827 677.168C687.871 536.066 766.602 395.104 815.448 281.285C839.874 224.367 856.802 174.293 864.824 134.416C868.835 114.477 870.606 97.147 869.998 82.817C869.391 68.4967 866.412 57.2466 860.97 49.3337C855.527 41.4209 847.79 37.0897 837.941 36.2062C828.086 35.3222 816.167 37.8981 802.454 43.7298C775.028 55.3929 740.589 80.0068 701.444 115.523C623.164 186.544 526.217 301.02 429.173 442.123C332.128 583.225 253.397 724.187 204.552 838.006C180.125 894.924 163.197 944.998 155.176 984.875C151.165 1004.81 149.393 1022.14 150.001 1036.47C150.609 1050.79 153.588 1062.04 159.03 1069.96Z" stroke="#2B2C3B" stroke-width="2"/>
<path opacity="0.103448" d="M190.94 1118.29C196.816 1125.46 204.767 1128.79 214.633 1128.43C224.504 1128.06 236.225 1123.98 249.54 1116.43C276.168 1101.34 309.005 1072.45 345.875 1032.1C419.605 951.425 509.325 825.094 597.544 672.226C685.764 519.358 755.749 368.949 797.589 249.365C818.512 189.564 832.377 137.528 837.979 96.7779C840.78 76.4012 841.506 58.9091 840.041 44.7107C838.577 30.5199 834.937 19.7135 829.061 12.5443C823.185 5.37507 815.233 2.03937 805.368 2.40745C795.497 2.77573 783.775 6.85264 770.46 14.4019C743.833 29.4993 710.996 58.3885 674.126 98.7326C600.396 179.409 510.676 305.741 422.456 458.609C334.237 611.477 264.251 761.886 222.412 881.469C201.489 941.27 187.624 993.306 182.022 1034.06C179.221 1054.43 178.495 1071.93 179.96 1086.12C181.424 1100.31 185.064 1111.12 190.94 1118.29Z" stroke="#2B2C3B" stroke-width="2"/>
<path opacity="0.137931" d="M225.282 1162.42C231.542 1168.79 239.647 1171.11 249.456 1169.49C259.267 1167.87 270.702 1162.33 283.517 1153.12C309.144 1134.7 340.128 1101.75 374.441 1056.89C443.059 967.169 524.868 829.943 603.59 666.473C682.313 503.004 743.019 344.292 777.533 219.854C794.793 157.626 805.488 104.023 808.626 62.7102C810.196 42.051 809.87 24.5299 807.56 10.5705C805.25 -3.38473 800.979 -13.6644 794.718 -20.0384C788.458 -26.4124 780.353 -28.7322 770.545 -27.1148C760.733 -25.497 749.298 -19.9493 736.483 -10.7391C710.857 7.6788 679.872 40.6241 645.559 85.4897C576.941 175.208 495.132 312.434 416.41 475.904C337.687 639.374 276.982 798.085 242.467 922.524C225.207 984.752 214.512 1038.35 211.374 1079.67C209.805 1100.33 210.13 1117.85 212.441 1131.81C214.75 1145.76 219.021 1156.04 225.282 1162.42Z" stroke="#2B2C3B" stroke-width="2"/>
<path opacity="0.172414" d="M261.795 1202.04C268.388 1207.58 276.584 1208.87 286.262 1206.01C295.941 1203.16 307.002 1196.18 319.219 1185.38C343.648 1163.78 372.543 1127.03 404.038 1077.98C467.02 979.904 540.294 832.828 608.92 660C677.546 487.173 728.509 321.367 755.435 193.021C768.899 128.84 776.341 74.0797 776.992 32.5187C777.317 11.7345 775.942 -5.68229 772.803 -19.2971C769.665 -32.912 764.798 -42.5869 758.204 -48.1219C751.611 -53.6568 743.415 -54.948 733.736 -52.0926C724.058 -49.2372 712.997 -42.2603 700.78 -31.4587C676.351 -9.85955 647.456 26.8917 615.961 75.9372C552.979 174.015 479.704 321.091 411.079 493.919C342.453 666.746 291.49 832.552 264.564 960.898C251.099 1025.08 243.657 1079.84 243.007 1121.4C242.682 1142.18 244.057 1159.6 247.196 1173.22C250.334 1186.83 255.201 1196.51 261.795 1202.04Z" stroke="#2B2C3B" stroke-width="2"/>
<path opacity="0.206897" d="M300.203 1236.91C307.076 1241.57 315.302 1241.83 324.778 1237.75C334.249 1233.68 344.852 1225.33 356.377 1213.02C379.423 1188.4 406.007 1148.12 434.444 1095.27C491.309 989.578 555.491 833.772 613.497 652.902C671.502 472.033 712.334 300.395 731.465 169.12C741.032 103.473 745.164 47.9727 743.32 6.4809C742.398 -14.2695 739.984 -31.4493 736.04 -44.6162C732.096 -57.7882 726.672 -66.7861 719.799 -71.446C712.926 -76.1059 704.699 -76.3633 695.224 -72.2902C685.753 -68.2187 675.149 -59.8649 663.624 -47.5539C640.579 -22.9371 613.995 17.3404 585.558 70.1927C528.692 175.883 464.511 331.69 406.505 512.559C348.499 693.429 307.667 865.067 288.537 996.342C278.97 1061.99 274.838 1117.49 276.682 1158.98C277.604 1179.73 280.018 1196.91 283.961 1210.08C287.906 1223.25 293.33 1232.25 300.203 1236.91Z" stroke="#2B2C3B" stroke-width="2"/>
<path opacity="0.241379" d="M340.209 1266.8C347.308 1270.55 355.505 1269.78 364.706 1264.52C373.898 1259.26 383.962 1249.59 394.707 1235.86C416.192 1208.42 440.263 1164.92 465.424 1108.66C515.74 996.165 570.339 832.814 617.283 645.279C664.227 457.745 694.616 281.582 705.806 148.377C711.401 81.7659 712.191 25.948 707.867 -15.1579C705.704 -35.7159 702.268 -52.5276 697.55 -65.1464C692.828 -77.7754 686.891 -86.0304 679.792 -89.7873C672.694 -93.5442 664.496 -92.7693 655.296 -87.508C646.103 -82.251 636.039 -72.5835 625.294 -58.8565C603.809 -31.4093 579.738 12.0878 554.577 68.3445C504.262 180.843 449.663 344.194 402.718 531.729C355.774 719.263 325.385 895.426 314.196 1028.63C308.6 1095.24 307.81 1151.06 312.135 1192.17C314.298 1212.72 317.733 1229.54 322.451 1242.15C327.173 1254.78 333.11 1263.04 340.209 1266.8Z" stroke="#2B2C3B" stroke-width="2"/>
<path opacity="0.275862" d="M381.509 1291.51C388.781 1294.35 396.89 1292.55 405.745 1286.14C414.588 1279.73 424.036 1268.83 433.919 1253.79C453.679 1223.72 475.052 1177.33 496.746 1118.1C540.128 999.65 584.728 829.999 620.253 637.227C655.778 444.455 675.492 265.108 678.655 130.988C680.236 63.9197 677.677 8.21026 670.904 -32.1956C667.517 -52.4039 663.086 -68.719 657.629 -80.6934C652.165 -92.6826 645.761 -100.136 638.489 -102.969C631.217 -105.802 623.108 -104.003 614.253 -97.5925C605.409 -91.1897 595.962 -80.2818 586.079 -65.2434C566.319 -35.1747 544.946 11.2106 523.252 70.4432C479.87 188.894 435.27 358.545 399.745 551.317C364.22 744.089 344.506 923.436 341.343 1057.56C339.762 1124.62 342.321 1180.33 349.094 1220.74C352.481 1240.95 356.912 1257.26 362.369 1269.24C367.833 1281.23 374.237 1288.68 381.509 1291.51Z" stroke="#2B2C3B" stroke-width="2"/>
<path opacity="0.310345" d="M423.791 1310.92C431.185 1312.82 439.147 1310.01 447.588 1302.5C456.015 1295 464.774 1282.93 473.719 1266.7C491.603 1234.24 510.115 1185.32 528.176 1123.56C564.294 1000.06 598.555 825.4 622.39 628.858C646.225 432.316 655.114 251.151 650.225 117.138C647.78 50.1234 641.891 -5.05247 632.721 -44.4494C628.135 -64.1535 622.742 -79.8469 616.588 -91.0855C610.423 -102.342 603.602 -108.942 596.208 -110.837C588.814 -112.733 580.851 -109.923 572.411 -102.412C563.983 -94.9116 555.224 -82.8464 546.28 -66.6113C528.396 -34.1504 509.883 14.7695 491.822 76.5269C455.705 200.027 421.443 374.686 397.609 571.228C373.774 767.77 364.885 948.935 369.774 1082.95C372.219 1149.96 378.107 1205.14 387.277 1244.54C391.863 1264.24 397.256 1279.93 403.411 1291.17C409.576 1302.43 416.397 1309.03 423.791 1310.92Z" stroke="#2B2C3B" stroke-width="2"/>
<path opacity="0.344828" d="M466.732 1324.92C474.198 1325.87 481.957 1322.07 489.918 1313.51C497.864 1304.97 505.867 1291.84 513.805 1274.54C529.676 1239.93 545.186 1188.85 559.476 1125.04C588.054 997.429 611.716 819.09 623.679 620.275C635.642 421.46 633.638 239.856 620.734 106.971C614.282 40.5209 605.108 -13.7004 593.611 -51.7872C587.861 -70.8363 581.547 -85.7878 574.742 -96.2043C567.924 -106.64 560.736 -112.342 553.27 -113.292C545.804 -114.242 538.045 -110.441 530.084 -101.885C522.138 -93.3452 514.135 -80.2149 506.197 -62.9071C490.326 -28.3017 474.816 22.7796 460.525 86.5915C431.948 214.2 408.286 392.538 396.323 591.353C384.36 790.169 386.364 971.772 399.268 1104.66C405.72 1171.11 414.894 1225.33 426.391 1263.42C432.141 1282.46 438.454 1297.42 445.26 1307.83C452.078 1318.27 459.265 1323.97 466.732 1324.92Z" stroke="#2B2C3B" stroke-width="2"/>
<path opacity="0.37931" d="M510.001 1333.44C517.491 1333.44 524.991 1328.68 532.41 1319.14C539.814 1309.63 547 1295.53 553.87 1277.28C567.606 1240.8 579.996 1187.95 590.407 1122.57C611.227 991.821 624.109 811.162 624.109 611.587C624.109 412.012 611.227 231.354 590.407 100.609C579.996 35.2288 567.606 -17.6242 553.87 -54.1097C547 -72.358 539.814 -86.4529 532.41 -95.9676C524.991 -105.501 517.491 -110.268 510.001 -110.268C502.511 -110.268 495.01 -105.501 487.592 -95.9676C480.187 -86.4529 473.001 -72.358 466.131 -54.1097C452.395 -17.6242 440.006 35.2288 429.595 100.609C408.775 231.354 395.893 412.012 395.893 611.587C395.893 811.162 408.775 991.821 429.595 1122.57C440.006 1187.95 452.395 1240.8 466.131 1277.28C473.001 1295.53 480.187 1309.63 487.592 1319.14C495.01 1328.68 502.511 1333.44 510.001 1333.44Z" stroke="#2B2C3B" stroke-width="2"/>
<path opacity="0.413793" d="M553.269 1336.47C560.735 1335.52 567.922 1329.81 574.74 1319.38C581.546 1308.96 587.859 1294.01 593.609 1274.96C605.106 1236.88 614.28 1182.65 620.733 1116.2C633.636 983.318 635.64 801.715 623.677 602.9C611.714 404.084 588.052 225.746 559.475 98.1377C545.184 34.3258 529.674 -16.7555 513.803 -51.3608C505.866 -68.6687 497.863 -81.799 489.916 -90.339C481.956 -98.8946 474.196 -102.695 466.73 -101.746C459.264 -100.796 452.076 -95.0937 445.258 -84.6581C438.453 -74.2416 432.139 -59.2901 426.389 -40.241C414.892 -2.15419 405.718 52.0671 399.266 118.518C386.362 251.403 384.358 433.006 396.321 631.821C408.284 830.637 431.946 1008.97 460.524 1136.58C474.814 1200.4 490.324 1251.48 506.195 1286.08C514.133 1303.39 522.136 1316.52 530.082 1325.06C538.043 1333.62 545.802 1337.42 553.269 1336.47Z" stroke="#2B2C3B" stroke-width="2"/>
<path opacity="0.448276" d="M596.209 1334.01C603.603 1332.12 610.424 1325.52 616.589 1314.26C622.744 1303.02 628.137 1287.33 632.723 1267.62C641.892 1228.23 647.781 1173.05 650.226 1106.04C655.115 972.024 646.226 790.859 622.391 594.317C598.557 397.775 564.295 223.116 528.177 99.616C510.116 37.8585 491.604 -11.0614 473.72 -43.5223C464.776 -59.7574 456.017 -71.8226 447.589 -79.3225C439.149 -86.8344 431.186 -89.6441 423.792 -87.7485C416.398 -85.8528 409.577 -79.2528 403.412 -67.9964C397.257 -56.7579 391.865 -41.0645 387.278 -21.3603C378.109 18.0366 372.22 73.2124 369.775 140.227C364.886 274.24 373.775 455.405 397.61 651.947C421.445 848.489 455.706 1023.15 491.824 1146.65C509.885 1208.41 528.397 1257.33 546.281 1289.79C555.226 1306.02 563.985 1318.09 572.412 1325.59C580.853 1333.1 588.815 1335.91 596.209 1334.01Z" stroke="#2B2C3B" stroke-width="2"/>
<path opacity="0.482759" d="M638.49 1326.14C645.762 1323.31 652.166 1315.86 657.63 1303.87C663.087 1291.89 667.518 1275.58 670.905 1255.37C677.678 1214.96 680.237 1159.25 678.655 1092.18C675.493 958.065 655.779 778.718 620.254 585.946C584.729 393.174 540.129 223.523 496.747 105.072C475.053 45.8396 453.68 -0.545723 433.92 -30.6144C424.037 -45.6528 414.589 -56.5607 405.745 -62.9635C396.891 -69.3741 388.782 -71.1733 381.51 -68.3401C374.237 -65.5069 367.834 -58.0535 362.37 -46.0644C356.913 -34.0899 352.482 -17.7749 349.094 2.43347C342.322 42.8393 339.763 98.5487 341.344 165.617C344.507 299.737 364.221 479.084 399.746 671.856C435.27 864.628 479.871 1034.28 523.253 1152.73C544.946 1211.96 566.32 1258.35 586.08 1288.42C595.963 1303.45 605.41 1314.36 614.254 1320.77C623.109 1327.18 631.218 1328.97 638.49 1326.14Z" stroke="#2B2C3B" stroke-width="2"/>
<path opacity="0.517241" d="M679.791 1312.96C686.89 1309.21 692.827 1300.95 697.549 1288.32C702.267 1275.7 705.703 1258.89 707.865 1238.34C712.19 1197.23 711.4 1141.41 705.805 1074.8C694.615 941.595 664.226 765.432 617.282 577.898C570.338 390.363 515.739 227.012 465.423 114.513C440.262 58.2568 416.191 14.7596 394.706 -12.6875C383.961 -26.4145 373.897 -36.082 364.704 -41.339C355.504 -46.6003 347.307 -47.3752 340.208 -43.6184C333.109 -39.8615 327.172 -31.6065 322.45 -18.9774C317.732 -6.35866 314.296 10.453 312.134 31.0111C307.809 72.1169 308.599 127.935 314.194 194.546C325.384 327.751 355.773 503.914 402.717 691.448C449.661 878.983 504.26 1042.33 554.576 1154.83C579.737 1211.09 603.808 1254.59 625.293 1282.03C636.038 1295.76 646.102 1305.43 655.295 1310.69C664.495 1315.95 672.692 1316.72 679.791 1312.96Z" stroke="#2B2C3B" stroke-width="2"/>
<path opacity="0.551724" d="M719.798 1294.62C726.67 1289.96 732.094 1280.96 736.039 1267.79C739.982 1254.62 742.396 1237.44 743.318 1216.69C745.162 1175.2 741.03 1119.7 731.464 1054.05C712.333 922.779 671.501 751.141 613.495 570.272C555.489 389.402 491.308 233.596 434.442 127.905C406.006 75.0525 379.421 34.775 356.376 10.1583C344.851 -2.15276 334.248 -10.5065 324.776 -14.578C315.301 -18.6511 307.074 -18.3938 300.201 -13.7339C293.328 -9.07395 287.904 -0.0760794 283.96 13.0959C280.017 26.2628 277.602 43.4426 276.68 64.193C274.836 105.685 278.968 161.186 288.535 226.832C307.666 358.107 348.498 529.745 406.504 710.614C464.51 891.484 528.691 1047.29 585.556 1152.98C613.993 1205.83 640.577 1246.11 663.623 1270.73C675.148 1283.04 685.751 1291.39 695.223 1295.46C704.698 1299.54 712.925 1299.28 719.798 1294.62Z" stroke="#2B2C3B" stroke-width="2"/>
<path opacity="0.586207" d="M758.205 1271.3C764.799 1265.76 769.666 1256.09 772.804 1242.47C775.943 1228.86 777.318 1211.44 776.993 1190.66C776.343 1149.09 768.9 1094.33 755.436 1030.15C728.51 901.807 677.547 736.002 608.921 563.174C540.296 390.347 467.021 243.271 404.039 145.193C372.544 96.1473 343.649 59.3961 319.22 37.7969C307.003 26.9954 295.942 20.0184 286.264 17.163C276.585 14.3076 268.389 15.5988 261.796 21.1338C255.202 26.6687 250.335 36.3436 247.197 49.9585C244.058 63.5734 242.683 80.9901 243.008 101.774C243.659 143.335 251.101 198.096 264.565 262.277C291.491 390.623 342.454 556.429 411.08 729.256C479.706 902.083 552.98 1049.16 615.962 1147.24C647.457 1196.28 676.352 1233.03 700.781 1254.63C712.998 1265.43 724.059 1272.41 733.737 1275.27C743.416 1278.12 751.612 1276.83 758.205 1271.3Z" stroke="#2B2C3B" stroke-width="2"/>
<path opacity="0.62069" d="M794.718 1243.21C800.979 1236.84 805.25 1226.56 807.559 1212.6C809.87 1198.64 810.195 1181.12 808.626 1160.46C805.487 1119.15 794.793 1065.55 777.533 1003.32C743.018 878.882 682.313 720.17 603.59 556.7C524.868 393.231 443.058 256.005 374.441 166.286C340.128 121.42 309.143 88.4751 283.517 70.0572C270.702 60.8471 259.267 55.2994 249.455 53.6815C239.646 52.0642 231.542 54.3839 225.282 60.7579C219.021 67.132 214.75 77.4116 212.44 91.3668C210.13 105.326 209.804 122.847 211.374 143.507C214.512 184.82 225.207 238.422 242.467 300.65C276.981 425.089 337.687 583.8 416.41 747.27C495.132 910.74 576.941 1047.97 645.559 1137.68C679.872 1182.55 710.856 1215.5 736.483 1233.91C749.298 1243.12 760.732 1248.67 770.544 1250.29C780.353 1251.91 788.457 1249.59 794.718 1243.21Z" stroke="#2B2C3B" stroke-width="2"/>
<path opacity="0.655172" d="M829.061 1210.63C834.937 1203.46 838.577 1192.66 840.041 1178.46C841.505 1164.27 840.779 1146.77 837.978 1126.4C832.376 1085.65 818.512 1033.61 797.589 973.811C755.749 854.227 685.763 703.818 597.544 550.95C509.324 398.082 419.604 271.75 345.875 191.074C309.005 150.73 276.168 121.84 249.54 106.743C236.225 99.1937 224.504 95.1168 214.633 94.7485C204.767 94.3804 196.816 97.7161 190.939 104.885C185.063 112.055 181.423 122.861 179.959 137.052C178.495 151.25 179.221 168.742 182.022 189.119C187.623 229.869 201.488 281.905 222.411 341.706C264.251 461.29 334.237 611.699 422.456 764.567C510.675 917.435 600.396 1043.77 674.125 1124.44C710.995 1164.79 743.832 1193.68 770.46 1208.77C783.775 1216.32 795.496 1220.4 805.367 1220.77C815.233 1221.14 823.184 1217.8 829.061 1210.63Z" stroke="#2B2C3B" stroke-width="2"/>
<path opacity="0.689655" d="M860.97 1173.84C866.413 1165.93 869.391 1154.68 869.999 1140.36C870.607 1126.03 868.835 1108.7 864.825 1088.76C856.803 1048.88 839.875 998.807 815.449 941.889C766.603 828.071 687.872 687.109 590.828 546.006C493.783 404.903 396.836 290.428 318.556 219.406C279.411 183.89 244.972 159.276 217.547 147.613C203.833 141.782 191.915 139.206 182.059 140.09C172.21 140.973 164.473 145.304 159.031 153.217C153.589 161.13 150.61 172.38 150.002 186.7C149.394 201.03 151.166 218.361 155.177 238.3C163.198 278.176 180.126 328.251 204.553 385.168C253.398 498.987 332.129 639.949 429.174 781.052C526.218 922.155 623.165 1036.63 701.445 1107.65C740.59 1143.17 775.029 1167.78 802.454 1179.44C816.168 1185.28 828.087 1187.85 837.942 1186.97C847.791 1186.08 855.528 1181.75 860.97 1173.84Z" stroke="#2B2C3B" stroke-width="2"/>
<path opacity="0.724138" d="M890.204 1133.17C900.131 1115.97 899.363 1086.67 888.959 1047.88C878.581 1009.18 858.718 961.45 830.975 907.849C775.498 800.661 688.621 670.219 583.491 541.955C478.362 413.691 374.926 311.942 292.694 251.115C251.571 220.698 215.794 200.545 187.779 192.404C159.699 184.243 139.724 188.23 129.798 205.431C119.871 222.632 120.639 251.927 131.043 290.718C141.422 329.418 161.284 377.15 189.027 430.751C244.505 537.939 331.381 668.381 436.511 796.645C541.641 924.909 645.076 1026.66 727.308 1087.48C768.431 1117.9 804.209 1138.05 832.223 1146.2C860.303 1154.36 880.278 1150.37 890.204 1133.17Z" stroke="#2B2C3B" stroke-width="2"/>
<path opacity="0.758621" d="M916.538 1088.97C925.416 1070.54 922.877 1041.43 910.197 1004.13C897.541 966.898 874.897 921.872 844.049 871.994C782.362 772.253 688.003 653.323 575.589 538.874C463.174 424.424 354.039 336.175 268.481 286.005C225.695 260.916 188.851 245.378 160.462 240.818C132.019 236.25 112.338 242.738 103.46 261.173C94.5827 279.608 97.121 308.718 109.801 346.017C122.457 383.246 145.101 428.272 175.949 478.15C237.636 577.891 331.996 696.821 444.41 811.271C556.824 925.72 665.959 1013.97 751.518 1064.14C794.303 1089.23 831.147 1104.77 859.537 1109.33C887.979 1113.89 907.66 1107.41 916.538 1088.97Z" stroke="#2B2C3B" stroke-width="2"/>
<path opacity="0.793103" d="M939.777 1041.63C947.532 1022.1 943.241 993.402 928.383 957.873C913.546 922.397 888.294 880.418 854.577 834.643C787.152 743.107 686.028 636.592 567.186 536.828C448.344 437.063 334.34 362.985 246.107 323.851C201.985 304.282 164.356 293.473 135.807 292.529C107.216 291.584 87.9784 300.531 80.2242 320.059C72.4701 339.587 76.7602 368.285 91.6185 403.813C106.455 439.29 131.708 481.268 165.425 527.043C232.85 618.58 333.974 725.094 452.816 824.858C571.658 924.623 685.661 998.701 773.894 1037.83C818.017 1057.4 855.646 1068.21 884.195 1069.16C912.785 1070.1 932.023 1061.16 939.777 1041.63Z" stroke="#2B2C3B" stroke-width="2"/>
<path opacity="0.827586" d="M959.742 991.545C966.307 971.075 960.297 943.012 943.375 909.52C926.471 876.065 898.803 837.452 862.474 796.128C789.825 713.491 682.707 620.202 558.342 535.881C433.977 451.559 315.974 392.214 225.738 364.413C180.615 350.51 142.487 344.513 113.995 347.189C85.4722 349.869 66.8248 361.213 60.2596 381.684C53.6945 402.155 59.704 430.217 76.6264 463.71C93.5301 497.165 121.198 535.778 157.528 577.102C230.177 659.739 337.294 753.028 461.659 837.349C586.025 921.671 704.028 981.016 794.263 1008.82C839.387 1022.72 877.515 1028.72 906.006 1026.04C934.529 1023.36 953.177 1012.02 959.742 991.545Z" stroke="#2B2C3B" stroke-width="2"/>
<path opacity="0.862069" d="M976.282 939.149C981.603 917.894 973.92 890.687 955.063 859.481C936.221 828.3 906.348 793.345 867.683 756.785C790.363 683.675 678.068 604.32 549.127 536.082C420.185 467.844 299.08 423.681 207.529 407.422C161.748 399.292 123.411 398.149 95.1929 404.425C66.9514 410.707 49.0385 424.368 43.718 445.623C38.3975 466.877 46.0801 494.084 64.9375 525.291C83.7791 556.472 113.652 591.427 152.317 627.986C229.637 701.097 341.932 780.452 470.874 848.69C599.815 916.928 720.92 961.091 812.471 977.35C858.252 985.48 896.589 986.623 924.807 980.346C953.049 974.065 970.962 960.404 976.282 939.149Z" stroke="#2B2C3B" stroke-width="2"/>
<path opacity="0.896552" d="M989.276 884.882C993.307 863.011 984.011 836.871 963.361 808.182C942.725 779.512 910.875 748.479 870.169 716.961C788.767 653.932 672.148 589.112 539.611 537.475C407.074 485.839 283.789 457.193 191.619 452.598C145.528 450.3 107.273 454.02 79.5421 463.847C51.7937 473.68 34.7545 489.559 30.7239 511.431C26.6933 533.303 35.9891 559.442 56.6386 588.131C77.2747 616.801 109.125 647.834 149.831 679.353C231.233 742.382 347.852 807.202 480.389 858.838C612.926 910.474 736.211 939.12 828.381 943.715C874.472 946.013 912.727 942.293 940.458 932.466C968.206 922.633 985.245 906.754 989.276 884.882Z" stroke="#2B2C3B" stroke-width="2"/>
<path opacity="0.931035" d="M998.625 829.203C1001.33 806.886 990.496 782.018 968.21 756.061C945.937 730.118 912.35 703.242 869.912 677.003C785.047 624.533 664.991 574.74 529.867 540.097C394.743 505.453 270.215 492.54 178.125 499.643C132.075 503.194 94.1918 511.747 67.1586 525.05C40.1116 538.358 24.0793 556.338 21.373 578.655C18.6666 600.971 29.5028 625.839 51.788 651.796C74.0619 677.74 107.648 704.616 150.086 730.854C234.952 783.325 355.007 833.118 490.131 867.761C625.255 902.404 749.783 915.317 841.873 908.215C887.924 904.663 925.807 896.11 952.84 882.808C979.887 869.499 995.919 851.52 998.625 829.203Z" stroke="#2B2C3B" stroke-width="2"/>
<path opacity="0.965517" d="M1004.26 772.573C1005.62 749.987 993.331 726.584 969.578 703.553C945.835 680.533 910.767 658.016 866.92 637.256C779.236 595.742 656.655 561.353 519.971 543.965C383.288 526.578 258.462 529.495 167.152 548.24C121.492 557.613 84.2677 570.934 58.1363 587.61C31.9936 604.293 17.0943 624.238 15.7353 646.823C14.3763 669.409 26.6674 692.812 50.4204 715.842C74.1632 738.863 109.231 761.38 153.078 782.139C240.763 823.654 363.343 858.043 500.027 875.431C636.711 892.818 761.536 889.901 852.846 871.156C898.507 861.783 935.731 848.462 961.862 831.786C988.005 815.102 1002.9 795.158 1004.26 772.573Z" stroke="#2B2C3B" stroke-width="2"/>
<path d="M1006.15 715.471C1006.15 692.795 992.5 671.038 967.458 651.106C942.426 631.182 906.143 613.195 861.219 598.071C771.38 567.827 647.206 549.103 510.001 549.103C372.796 549.103 248.622 567.827 158.784 598.071C113.86 613.195 77.5764 631.182 52.5446 651.106C27.5026 671.038 13.8535 692.795 13.8535 715.471C13.8535 738.146 27.5026 759.903 52.5446 779.835C77.5764 799.759 113.86 817.746 158.784 832.87C248.622 863.114 372.796 881.838 510.001 881.838C647.206 881.838 771.38 863.114 861.219 832.87C906.143 817.746 942.426 799.759 967.458 779.835C992.5 759.903 1006.15 738.146 1006.15 715.471Z" stroke="#2B2C3B" stroke-width="2"/>
</g>
</svg>
