<svg width="13" height="12" viewBox="0 0 13 12" fill="none" xmlns="http://www.w3.org/2000/svg">
<g clip-path="url(#clip0_216_7776)">
<path d="M10.6332 4.9088C10.6332 8.28622 6.29083 11.1812 6.29083 11.1812C6.29083 11.1812 1.94843 8.28622 1.94843 4.9088C1.94843 3.75713 2.40593 2.65262 3.22029 1.83827C4.03465 1.02391 5.13916 0.566406 6.29083 0.566406C7.44251 0.566406 8.54701 1.02391 9.36137 1.83827C10.1757 2.65262 10.6332 3.75713 10.6332 4.9088Z" stroke="white" stroke-width="0.964977" stroke-linecap="round" stroke-linejoin="round"/>
<path d="M6.29006 6.35587C7.08947 6.35587 7.73752 5.70782 7.73752 4.9084C7.73752 4.10899 7.08947 3.46094 6.29006 3.46094C5.49064 3.46094 4.84259 4.10899 4.84259 4.9084C4.84259 5.70782 5.49064 6.35587 6.29006 6.35587Z" stroke="white" stroke-width="0.964977" stroke-linecap="round" stroke-linejoin="round"/>
</g>
<defs>
<clipPath id="clip0_216_7776">
<rect width="11.5797" height="11.5797" fill="white" transform="translate(0.500557 0.0839844)"/>
</clipPath>
</defs>
</svg>
