<svg width="37" height="37" viewBox="0 0 37 37" fill="none" xmlns="http://www.w3.org/2000/svg">
<path fill-rule="evenodd" clip-rule="evenodd" d="M34.6138 0.43084C33.8634 1.14785 33.1167 1.8654 32.3738 2.58348C32.3131 2.65201 32.2389 2.70734 32.1559 2.74606C32.0729 2.78477 31.9829 2.80604 31.8913 2.80855H23.0823C23.6036 2.29632 24.0752 1.83629 24.5239 1.3986C24.8821 1.04915 25.2257 0.713946 25.5684 0.377788C25.6409 0.319269 25.7249 0.276472 25.8148 0.252117C25.9048 0.227762 25.9989 0.222381 26.091 0.236315H34.4996L34.6138 0.43084ZM7.71881 10.4802C7.71881 10.165 7.71629 9.8495 7.71377 9.53375C7.70775 8.77866 7.70172 8.0222 7.73007 7.26494C7.74936 6.7505 7.56926 6.63314 7.08683 6.64761C6.0448 6.68137 4.99634 6.66851 3.95752 6.64761C3.02162 6.63475 2.58744 6.20229 2.57618 5.26664C2.56171 4.08984 2.56653 2.91305 2.57618 1.72982C2.57297 0.633407 2.99428 0.218635 4.14888 0.236319C9.40086 0.340816 14.0997 1.98544 18.1858 5.31648C18.5544 5.61205 18.9175 5.9203 19.2808 6.22865C19.5102 6.42344 19.7398 6.61828 19.9707 6.80998C20.5673 7.30514 20.7571 7.88228 20.4162 8.57839C20.1203 9.18769 19.5221 9.34363 18.6875 9.07515C18.0369 8.86606 17.386 8.65791 16.7352 8.44977C15.3043 7.99217 13.8735 7.53463 12.4466 7.0672C11.7454 6.83731 11.5316 7.01897 11.5525 7.781C11.5832 8.89225 11.5794 10.0045 11.5756 11.117C11.5726 11.984 11.5696 12.8512 11.583 13.718C11.583 14.2534 11.4222 14.4045 10.9076 14.3804C10.0537 14.3418 9.19502 14.345 8.3347 14.3804C7.85228 14.3997 7.67861 14.2743 7.69147 13.763C7.72949 12.933 7.72542 12.0974 7.72134 11.2612V11.2611V11.2611V11.2611V11.2611V11.2611V11.2611V11.2611V11.2611V11.2611V11.2611V11.2611V11.2611V11.261V11.2609V11.2608V11.2607V11.2606V11.2605V11.2604V11.2602V11.2601V11.26V11.2599V11.2598V11.2597V11.2596C7.72008 10.9998 7.71881 10.74 7.71881 10.4802ZM20.7812 32.3764C19.684 32.3764 18.5869 32.3771 17.4898 32.3779C14.0618 32.3802 10.6342 32.3826 7.20739 32.3619C6.57702 32.3619 6.35511 32.5227 6.41621 33.1545C6.45515 33.7432 6.45783 34.3338 6.42426 34.9229C6.39692 35.7589 5.90967 36.2395 5.12975 36.2331C4.34984 36.2267 3.85937 35.7396 3.85937 34.8955C3.85187 32.5929 3.85437 30.2874 3.85687 27.9843V27.9843V27.9842V27.9842V27.9842V27.9842V27.9841V27.9841V27.9841V27.9841V27.9841V27.984V27.984V27.984L3.85687 27.9835C3.85812 26.833 3.85937 25.683 3.85937 24.5343C3.85937 23.7022 3.85702 22.8701 3.85467 22.038V22.038C3.84833 19.7915 3.84199 17.5453 3.88189 15.3C3.89636 14.4961 3.64872 14.2791 2.90096 14.3659C2.36569 14.4063 1.82815 14.4063 1.29288 14.3659C0.466332 14.3354 -0.0144825 13.8354 0.00642252 13.0525C0.0144629 12.313 0.482413 11.8275 1.27519 11.8114C2.56166 11.7889 3.84812 11.7889 5.13458 11.8114C5.97078 11.8242 6.40496 12.276 6.42908 13.1184C6.44838 13.8129 6.44677 14.5106 6.42908 15.2083C6.41943 15.5588 6.54647 15.6987 6.89221 15.6649C7.0165 15.6542 7.14152 15.6578 7.26677 15.6613H7.26679H7.26681H7.26683H7.26685H7.26687H7.2669H7.26692H7.26694H7.26696H7.26698H7.267H7.26702H7.26705C7.32967 15.6631 7.39235 15.6649 7.45503 15.6649H34.2761C35.6398 15.6649 35.9984 16.017 35.9984 17.3561V30.6883C35.9984 32.0259 35.6382 32.378 34.2745 32.378C29.7773 32.379 25.2795 32.3785 20.7812 32.3764ZM13.5239 29.8041C14.6676 29.801 15.7848 29.4592 16.7344 28.8219C17.684 28.1845 18.4235 27.2803 18.8596 26.2233C19.2957 25.1662 19.4088 24.0037 19.1846 22.8824C18.9605 21.7612 18.4091 20.7314 17.6002 19.9231C16.7912 19.1148 15.7609 18.5642 14.6392 18.3407C13.5175 18.1173 12.3547 18.231 11.2976 18.6675C10.2405 19.1041 9.33648 19.8439 8.69953 20.7936C8.06258 21.7433 7.7213 22.8603 7.71876 24.0038C7.71706 24.7662 7.86608 25.5215 8.15725 26.2262C8.44843 26.9309 8.87602 27.5712 9.41546 28.1102C9.9549 28.6492 10.5956 29.0763 11.3006 29.367C12.0057 29.6577 12.7612 29.8063 13.5239 29.8041ZM27.6332 18.2291C26.4894 18.2291 25.3712 18.5679 24.4198 19.2026C23.4684 19.8373 22.7264 20.7396 22.2874 21.7956C21.8485 22.8515 21.7322 24.0138 21.9534 25.1357C22.1746 26.2576 22.7232 27.2889 23.5301 28.0994C24.337 28.9098 25.366 29.4632 26.4871 29.6896C27.6083 29.916 28.7714 29.8053 29.8297 29.3714C30.888 28.9375 31.794 28.2 32.4333 27.2518C33.0727 26.3037 33.4168 25.1874 33.4222 24.0439C33.4241 23.2827 33.2758 22.5286 32.9857 21.8247C32.6957 21.1209 32.2695 20.4811 31.7318 19.9422C31.194 19.4032 30.5552 18.9756 29.8519 18.6839C29.1486 18.3921 28.3946 18.242 27.6332 18.242V18.2291ZM28.5495 4.09713L28.5494 4.09713C28.1631 4.09589 27.7767 4.09465 27.3903 4.09465C27.0349 4.09465 26.6796 4.09399 26.3242 4.09333H26.3241H26.324H26.3239H26.3238H26.3238H26.3237H26.3236H26.3235H26.3234H26.3233H26.3232H26.3232C25.3151 4.09147 24.3069 4.08961 23.2977 4.10269C22.3056 4.11072 21.8585 4.54157 21.8585 5.50616C21.8499 7.99265 21.8499 10.4791 21.8585 12.9656C21.8633 13.9447 22.2991 14.3836 23.2833 14.3836C25.7715 14.3836 28.2581 14.3809 30.7431 14.3755C31.6839 14.3723 32.1373 13.935 32.1373 13.009C32.1441 11.7111 32.1435 10.4135 32.1429 9.1159C32.1422 7.63305 32.1415 6.15024 32.1518 4.66697C32.155 4.20718 32.0119 4.07696 31.5616 4.085C30.5583 4.10358 29.554 4.10035 28.5496 4.09713H28.5495ZM36 4.96279V1.49188C35.7468 1.74759 35.5103 1.98906 35.2842 2.22001L35.2831 2.22114L35.2831 2.22117L35.2829 2.22137L35.2824 2.22181L35.2819 2.22233L35.2816 2.22264C34.7923 2.72243 34.351 3.17303 33.8918 3.61237C33.7335 3.75032 33.6087 3.92246 33.5268 4.11575C33.4449 4.30905 33.4081 4.51844 33.419 4.72807C33.4282 6.1777 33.429 7.62786 33.4298 9.07794C33.4304 10.1655 33.431 11.253 33.4351 12.3403C33.4351 12.3776 33.431 12.4165 33.4267 12.4569C33.4097 12.6181 33.3904 12.8007 33.6233 12.9833C33.8118 12.7877 33.9999 12.5914 34.188 12.395C34.7173 11.8426 35.2472 11.2895 35.7893 10.7487C36.0078 10.5289 36.0044 10.2811 36.0009 10.0269C36.0004 9.99483 36 9.96265 36 9.93041V4.96279ZM18.636 33.6625C18.9996 33.6625 19.3632 33.6637 19.7269 33.665C20.6722 33.6682 21.6176 33.6714 22.5629 33.6529C23.0132 33.6432 23.1466 33.775 23.1547 34.2332C23.182 35.8891 22.8765 36.2331 21.2523 36.2331H15.6417C15.3596 36.2341 15.082 36.163 14.8351 36.0266C14.5882 35.8901 14.3802 35.693 14.2309 35.4537C14.0816 35.2144 13.9959 34.941 13.9819 34.6593C13.9679 34.3776 14.0262 34.097 14.1511 33.8442C14.2513 33.6272 14.4177 33.6436 14.5775 33.6593C14.6202 33.6635 14.6623 33.6677 14.7026 33.6673C15.6893 33.6601 16.6724 33.661 17.6546 33.6619H17.6549H17.6553H17.6556H17.6559C17.9826 33.6622 18.3093 33.6625 18.636 33.6625ZM30.0107 33.665H30.0106H30.0105H30.0105H30.0104H30.0104H30.0103H30.0102H30.0102C29.6466 33.6637 29.2831 33.6625 28.9196 33.6625C28.5924 33.6625 28.2651 33.6622 27.9379 33.6619C26.9562 33.661 25.9744 33.6601 24.9927 33.6673C24.953 33.6677 24.9113 33.6636 24.869 33.6594H24.869H24.869H24.8689C24.7094 33.6437 24.5419 33.6272 24.4427 33.8458C24.3179 34.0982 24.2596 34.3782 24.2734 34.6595C24.2871 34.9407 24.3724 35.2138 24.5212 35.4528C24.6699 35.6919 24.8773 35.889 25.1236 36.0256C25.3699 36.1621 25.647 36.2336 25.9286 36.2331H31.5392C33.1617 36.2331 33.4689 35.8875 33.4399 34.2316C33.4319 33.7702 33.2952 33.6432 32.8465 33.6529C31.9023 33.6714 30.9564 33.6682 30.0107 33.665ZM11.5347 19.9943C13.2666 19.1905 15.2944 19.5233 16.5197 20.6985C16.7899 20.9589 16.8156 21.1357 16.5326 21.401C16.1331 21.7773 15.7464 22.1672 15.3601 22.5566L15.36 22.5568L15.3598 22.5569L15.3597 22.5571C15.1833 22.7349 15.007 22.9127 14.8296 23.089C14.8102 23.1084 14.791 23.1287 14.7716 23.149C14.642 23.2852 14.5083 23.4256 14.2942 23.3543C14.1048 23.2912 14.124 23.1348 14.1415 22.9928C14.1467 22.9503 14.1518 22.909 14.151 22.872C14.1414 22.4845 13.9098 22.237 13.6558 21.9958C13.0689 21.4444 12.4843 20.8919 11.874 20.315L11.8722 20.3133L11.5347 19.9943ZM10.0521 21.1534C8.96828 22.5778 8.68847 24.1147 9.40889 25.9763C10.1647 25.2079 10.8336 24.5278 11.4962 23.8607C11.7374 23.6018 11.9931 23.3784 12.3806 23.3784C12.4153 23.378 12.4534 23.3828 12.4926 23.3876C12.6351 23.4053 12.7906 23.4246 12.8373 23.2064C12.8813 23.0026 12.7568 22.879 12.6358 22.7589L12.6357 22.7588C12.624 22.7472 12.6124 22.7357 12.6009 22.7241C12.4393 22.563 12.2751 22.404 12.1108 22.245L12.1108 22.245L12.1108 22.245L12.1107 22.245L12.1107 22.245L12.1107 22.245L12.1107 22.245C11.7191 21.866 11.3272 21.4867 10.9703 21.0778C10.5812 20.6341 10.3464 20.7676 10.0521 21.1534ZM15.4552 28.0486C13.7201 28.8524 11.7068 28.51 10.483 27.3348C10.2097 27.0711 10.1936 26.8943 10.4734 26.6307C10.8811 26.2456 11.2769 25.8464 11.6719 25.4478C11.8394 25.2789 12.0067 25.1101 12.1747 24.9426C12.1929 24.9244 12.211 24.9056 12.2292 24.8866C12.3603 24.7499 12.4957 24.6086 12.7118 24.6806C12.8991 24.743 12.8796 24.8967 12.8617 25.0374C12.856 25.0816 12.8506 25.1245 12.8517 25.1629C12.863 25.5503 13.0994 25.7947 13.3502 26.0358L15.4552 28.0486ZM16.8366 27.0036C18.0185 25.5615 18.3337 23.9812 17.5972 22.1003C17.4085 22.2992 17.2259 22.4911 17.048 22.678L17.047 22.679C16.5539 23.1972 16.0975 23.6767 15.6498 24.1597C15.3684 24.4683 15.0838 24.7095 14.6239 24.6597C14.5988 24.6573 14.5715 24.6529 14.543 24.6483L14.543 24.6483H14.5429H14.5429C14.3957 24.6244 14.2171 24.5955 14.1592 24.8204C14.107 25.0244 14.2355 25.1511 14.3595 25.2734L14.3891 25.3027C14.5875 25.5032 14.7875 25.7015 14.9873 25.8995L14.9873 25.8995C15.3771 26.2859 15.7661 26.6715 16.1403 27.0711C16.4378 27.391 16.6227 27.264 16.8366 27.0036ZM25.6295 19.9541C27.5689 19.1985 29.1223 19.4975 30.5599 20.6196C30.9491 20.9235 30.9684 21.1437 30.5889 21.4846C30.1901 21.8419 29.8154 22.2264 29.4404 22.6111L29.4404 22.6112L29.4403 22.6113L29.4402 22.6114L29.4401 22.6115C29.2754 22.7805 29.1106 22.9495 28.9438 23.1163C28.9307 23.1294 28.9176 23.1428 28.9045 23.1562L28.9044 23.1563L28.9043 23.1564C28.7875 23.2761 28.6679 23.3987 28.4742 23.3655C28.2423 23.3266 28.263 23.1647 28.2815 23.0199V23.0199C28.286 22.985 28.2903 22.9511 28.2909 22.9202C28.2909 22.4958 28.0417 22.2321 27.7699 21.9733C27.1353 21.3707 26.4994 20.7724 25.7666 20.083L25.6295 19.9541ZM24.364 20.9653C23.1515 22.118 22.7816 24.3156 23.6082 25.912C23.7847 25.7331 23.9601 25.5556 24.1344 25.3792L24.1457 25.3678L24.1474 25.366C24.65 24.8574 25.1444 24.3571 25.6344 23.8542C25.9029 23.5777 26.1811 23.3623 26.5992 23.3719C27.1846 23.3832 27.08 23.0793 26.8067 22.7948C26.489 22.4639 26.1636 22.1412 25.8382 21.8187C25.5392 21.5223 25.2403 21.226 24.9477 20.9235C24.7097 20.6759 24.565 20.7756 24.364 20.9653ZM29.5532 28.0775C27.8519 28.8508 25.8418 28.5116 24.6245 27.338C24.3495 27.0727 24.3398 26.8959 24.6245 26.6339C25.0322 26.2488 25.428 25.8496 25.823 25.451C25.9905 25.2821 26.1578 25.1133 26.3258 24.9458C26.3435 24.9282 26.361 24.9099 26.3787 24.8915L26.3788 24.8914C26.5106 24.7542 26.6474 24.6119 26.8629 24.687C27.0487 24.7518 27.0292 24.9038 27.0112 25.0436C27.0055 25.0878 27 25.1307 27.0012 25.1693C27.0124 25.5567 27.2537 25.7979 27.5013 26.0422C28.1574 26.6966 28.8183 27.3509 29.5532 28.0775ZM31.0246 26.9538C32.1647 25.5197 32.4622 23.9619 31.7402 22.0906C31.5235 22.3221 31.3143 22.5439 31.111 22.7594C30.6735 23.2234 30.2633 23.6584 29.8636 24.0986C29.5484 24.4474 29.23 24.7416 28.7058 24.6645C28.6894 24.6627 28.6721 24.6603 28.6542 24.6578C28.5241 24.6397 28.3623 24.6172 28.3086 24.8108C28.2922 24.8892 28.2986 24.9708 28.3271 25.0457C28.3556 25.1206 28.405 25.1858 28.4694 25.2336C28.6454 25.41 28.8227 25.5845 28.9998 25.7587C29.4148 26.1669 29.8283 26.5738 30.2206 27.002C30.5422 27.3621 30.748 27.2994 31.0246 26.9538Z" fill="#F8F8F8"/>
</svg>
