<svg width="40" height="38" viewBox="0 0 40 38" fill="none" xmlns="http://www.w3.org/2000/svg">
<path d="M19.9749 29.2034H1.59111C0.297438 29.1998 0 28.914 0 27.6097C0 18.9463 0 10.2816 0 1.6157C0 0.293097 0.290271 0 1.56961 0H38.4232C39.6703 0 39.9964 0.337061 39.9964 1.63768C39.9964 10.2743 39.9964 18.9084 39.9964 27.5401C39.9964 28.881 39.6739 29.1998 38.3587 29.1998L19.9749 29.2034ZM20.0573 27.7379H37.2872C38.3623 27.7379 38.5451 27.5658 38.5486 26.4813C38.5486 18.575 38.5486 10.6675 38.5486 2.75877C38.5486 1.65966 38.3838 1.47281 37.3195 1.47281H2.68411C1.56244 1.46548 1.43343 1.58639 1.43343 2.72214V26.4447C1.43343 27.628 1.54453 27.7343 2.73069 27.7343L20.0573 27.7379Z" fill="#F8F8F8"/>
<path d="M19.9677 37.9597C17.6778 37.9597 15.3915 37.9597 13.1016 37.9597C12.8579 37.9597 12.3025 38.2162 12.4315 37.6117C12.5211 37.1903 12.3562 36.5125 13.1733 36.5125C17.7208 36.5125 22.2684 36.5125 26.8124 36.5125C27.6187 36.5125 27.4574 37.216 27.5291 37.6336C27.6187 38.2015 27.0883 37.967 26.8339 37.9707C24.544 37.9707 22.2541 37.9597 19.9677 37.9597Z" fill="#F8F8F8"/>
<path d="M19.9893 35.0397C19.0396 35.0397 18.0864 35.0031 17.1224 35.0397C16.4988 35.0764 16.3734 34.8126 16.4057 34.252C16.4415 33.3105 16.4057 32.3689 16.4057 31.431C16.4057 30.9913 16.3483 30.592 17.0185 30.6213C17.5739 30.6213 17.8714 30.6909 17.8749 31.3907C17.8588 31.8971 18.0233 32.3923 18.3378 32.7839C18.6522 33.1755 19.0953 33.4369 19.5843 33.5193C20.0246 33.598 20.478 33.5344 20.8814 33.3374C21.2847 33.1404 21.618 32.8198 21.8348 32.4202C22.0334 32.0777 22.1258 31.6817 22.1 31.2844C22.0319 30.5224 22.53 30.6836 22.96 30.6433C23.5298 30.5883 23.5764 30.9181 23.5693 31.376C23.5693 32.3799 23.5442 33.3801 23.5693 34.3803C23.5693 34.8895 23.4259 35.0764 22.9099 35.0581C21.9459 35.0141 20.9676 35.0397 19.9893 35.0397Z" fill="#F8F8F8"/>
<path d="M20.0394 2.93096C25.4435 2.93096 30.8188 2.93096 36.1942 2.90531C36.9109 2.90531 37.1654 3.0372 37.1618 3.83589C37.1283 11.0143 37.1283 18.1915 37.1618 25.3675C37.1618 26.0453 37.04 26.3018 36.291 26.3018C25.4327 26.2749 14.5733 26.2749 3.71259 26.3018C2.96721 26.3018 2.84895 26.038 2.85253 25.3675C2.87165 18.1915 2.87165 11.0143 2.85253 3.83589C2.85253 3.04819 3.09622 2.89798 3.80935 2.90165C9.20982 2.93096 14.6246 2.93096 20.0394 2.93096ZM24.5762 15.5011C24.9346 15.7906 25.2284 16.0507 25.5402 16.2779C26.8039 17.1959 28.3499 17.6153 29.8926 17.4586C31.4352 17.3019 32.8702 16.5797 33.9325 15.4253C34.9948 14.271 35.6125 12.7626 35.6715 11.1789C35.7305 9.5951 35.2269 8.04303 34.2536 6.80942C33.2803 5.57581 31.9031 4.74404 30.3766 4.4678C28.8501 4.19156 27.2774 4.48953 25.949 5.30663C24.6207 6.12374 23.6265 7.40476 23.1502 8.913C22.6739 10.4212 22.7476 12.0548 23.3578 13.5118C23.5047 13.8781 23.7448 14.1712 23.4546 14.6109C22.9851 15.2996 22.5766 16.047 22.1215 16.8531C21.8259 16.3801 21.4837 15.9393 21.1002 15.5378C20.4408 14.9699 20.1577 15.7869 19.7384 16.0727C19.6003 15.8999 19.5244 15.6839 19.5234 15.4608C19.22 13.5411 18.9118 11.6225 18.5988 9.70515C18.5271 9.26551 18.3945 8.84418 17.8821 8.80388C17.3696 8.76358 17.2263 9.15193 17.0758 9.53662C16.8429 10.0715 16.6243 10.6247 16.4164 11.2036C16.2695 11.6139 16.1584 11.8411 15.6997 11.4198C14.9149 10.687 14.5243 10.8226 14.1767 11.8448C13.8685 12.757 13.5746 13.6766 13.2664 14.6182C11.9584 13.5997 11.9226 13.6033 11.0948 14.871C11.0948 14.8966 11.0589 14.9186 11.0446 14.9479C10.7185 15.7393 10.2526 15.7869 9.66135 15.219C9.57141 15.14 9.4742 15.0701 9.37108 15.0102C8.46085 14.402 8.26733 14.446 7.67962 15.3949C7.09192 16.3438 6.48987 17.3257 5.88783 18.2892L5.6979 18.2453V5.5212C5.6979 4.97164 5.62265 4.4001 4.93818 4.42208C4.25372 4.44407 4.3003 4.99729 4.3003 5.49555C4.3003 11.548 4.3003 17.6004 4.3003 23.6529C4.3003 24.3856 4.47948 24.807 5.29296 24.807C12.4601 24.807 19.6273 24.807 26.7945 24.807C27.3213 24.807 27.8015 24.6934 27.78 24.0486C27.7585 23.4038 27.2496 23.3451 26.7407 23.3488C25.6656 23.3488 24.5906 23.3232 23.5155 23.3488C22.9529 23.3708 22.7988 23.1583 22.8203 22.6161C22.8565 22.1283 22.8565 21.6384 22.8203 21.1506C22.7844 20.7036 22.5443 20.3922 22.0677 20.4178C21.9791 20.4224 21.8924 20.4452 21.8126 20.4849C21.7329 20.5245 21.6617 20.5802 21.6035 20.6486C21.5453 20.717 21.5012 20.7968 21.4738 20.883C21.4464 20.9693 21.4364 21.0603 21.4442 21.1506C21.4442 21.6085 21.4083 22.0665 21.4442 22.5208C21.4836 23.0814 21.3403 23.3488 20.7275 23.3122C19.7726 23.2568 18.8155 23.2568 17.8606 23.3122C17.2335 23.3488 17.1188 23.0777 17.1439 22.5171C17.1725 21.2129 17.1439 19.9049 17.1439 18.597C17.1439 18.0511 17.0901 17.4722 16.3949 17.4979C15.6997 17.5235 15.7319 18.0657 15.7319 18.575C15.7319 19.9452 15.7319 21.3155 15.7319 22.682C15.7319 23.151 15.5922 23.3378 15.1156 23.3158C14.4634 23.2829 13.8076 23.3158 13.1553 23.3158C11.4675 23.3158 11.4675 23.3158 11.4209 21.5646C11.4245 21.4128 11.4173 21.261 11.3994 21.1103C11.3349 20.7109 11.1342 20.4105 10.7042 20.4178C10.2741 20.4252 10.0663 20.7439 10.009 21.1945C9.92295 21.8907 10.3673 22.8432 9.75452 23.2206C9.22415 23.543 8.36767 23.3048 7.65454 23.3158H7.20659C5.65131 23.3158 5.4148 23.0044 5.7409 21.4217C5.82838 21.1328 5.96154 20.8606 6.1351 20.6157C6.85182 19.4506 7.58645 18.3149 8.24583 17.1278C8.60419 16.4647 8.88729 16.2925 9.56459 16.8054C10.8547 17.78 10.9156 17.7507 11.747 16.4097C12.1054 15.8309 12.3275 15.71 12.8221 16.2705C13.5173 17.0289 13.9867 16.8677 14.3379 15.8492C14.6461 14.9406 14.9436 14.0173 15.2553 13.0977C16.5598 14.0613 16.5598 14.0613 17.5739 12.365C17.8713 14.1382 18.1437 15.8052 18.4268 17.4722C18.52 18.0218 18.4268 18.7399 19.1435 18.8864C19.8602 19.033 19.9677 18.3149 20.2903 17.9119C20.3261 17.8642 20.3584 17.8129 20.3906 17.7617C20.5698 17.4539 20.749 17.366 20.9568 17.7397C21.0142 17.8423 21.0894 17.9412 21.1539 18.0401C21.9817 19.2711 22.3078 19.2564 23.0819 17.9485C23.5836 17.1681 24.0745 16.3475 24.5762 15.5011ZM32.134 20.4435C31.4818 20.4435 30.826 20.4435 30.1738 20.4435C30.0557 20.4226 29.9344 20.4306 29.8199 20.4668C29.7054 20.503 29.6008 20.5663 29.5149 20.6517C29.4289 20.7371 29.3639 20.8421 29.3252 20.9581C29.2865 21.0741 29.2752 21.1978 29.2922 21.3191C29.2922 22.1691 29.2922 23.0191 29.2922 23.8837C29.2922 24.5212 29.5718 24.8363 30.2061 24.8326C31.4818 24.8326 32.7576 24.8326 34.0333 24.8326C34.1601 24.8534 34.2899 24.8434 34.4123 24.8036C34.5347 24.7637 34.6462 24.6951 34.7378 24.6031C34.8295 24.5112 34.8988 24.3985 34.9401 24.2742C34.9815 24.1499 34.9937 24.0174 34.9758 23.8874C34.9758 23.0667 34.9758 22.2497 34.9758 21.429C34.9758 20.7622 34.682 20.4178 33.9975 20.4398C33.3811 20.4618 32.7576 20.4435 32.134 20.4435ZM8.51818 10.2181H9.14173C9.6291 10.2181 9.95879 9.98726 9.94804 9.48533C9.93728 8.9834 9.6291 8.79655 9.18115 8.78556C8.7332 8.77457 8.35334 8.78556 7.93764 8.78556C7.52195 8.78556 7.19226 9.00539 7.17792 9.489C7.16359 9.97261 7.45028 10.1961 7.89464 10.2217C8.10607 10.2254 8.31392 10.2144 8.51818 10.2181ZM12.8507 8.75259H12.3204C11.8509 8.75259 11.4782 8.91379 11.4675 9.45236C11.4496 10.0459 11.8473 10.2107 12.3526 10.2034C12.711 10.2034 13.0693 10.2034 13.4277 10.2034C13.9151 10.2034 14.2555 9.97993 14.2412 9.47068C14.2268 8.96142 13.8828 8.75625 13.3954 8.75992C13.2055 8.77091 13.0299 8.76724 12.8507 8.76724V8.75259ZM32.8973 17.5382H32.2774C31.8007 17.5382 31.4531 17.7287 31.4567 18.2709C31.4603 18.8131 31.8151 19.0037 32.2881 19.0037C32.7301 19.022 33.1728 19.0147 33.614 18.9817C33.7822 18.9602 33.9368 18.8766 34.049 18.7468C34.1611 18.6169 34.223 18.4496 34.223 18.2764C34.223 18.1032 34.1611 17.9359 34.049 17.806C33.9368 17.6762 33.7822 17.5926 33.614 17.5711C33.376 17.545 33.1367 17.534 32.8973 17.5382Z" fill="#F8F8F8"/>
<path d="M24.2824 10.9105C24.2852 10.2405 24.4173 9.57766 24.6711 8.95994C24.925 8.34223 25.2955 7.78179 25.7616 7.31075C26.2277 6.83971 26.7801 6.46733 27.3871 6.21494C27.9942 5.96255 28.6441 5.83512 29.2994 5.83995C30.2941 5.84001 31.2663 6.14237 32.0926 6.70861C32.9188 7.27485 33.5618 8.0794 33.9398 9.02006C34.3177 9.96072 34.4137 10.995 34.2154 11.9916C34.0171 12.9881 33.5336 13.9019 32.8262 14.6168C32.1188 15.3318 31.2195 15.8156 30.2426 16.0068C29.2656 16.1981 28.2551 16.0881 27.3394 15.6909C26.4237 15.2936 25.6442 14.6271 25.0999 13.7759C24.5556 12.9248 24.271 11.9274 24.2824 10.9105ZM28.7905 13.8671C29.088 13.8671 29.3854 13.8671 29.6793 13.8671C29.9474 13.8644 30.2112 13.7974 30.4495 13.6716C30.6877 13.5459 30.8939 13.3648 31.0513 13.1429C31.2088 12.921 31.3132 12.6644 31.3562 12.3938C31.3993 12.1232 31.3797 11.8461 31.299 11.5846C31.1722 11.1633 31.1722 10.7127 31.299 10.2914C31.3667 10.0497 31.3821 9.79593 31.3443 9.54759C31.3064 9.29924 31.2162 9.06229 31.0798 8.85316C30.9435 8.64403 30.7642 8.46774 30.5546 8.33649C30.3449 8.20525 30.1098 8.12221 29.8656 8.09313C29.1981 8.01626 28.5248 8.00521 27.8552 8.06015C27.2532 8.10412 26.8841 8.71229 27.2639 9.05302C28.1634 9.85171 27.7549 10.8116 27.8552 11.7092C27.8946 12.0426 27.8839 12.3577 27.4969 12.5445C27.4224 12.581 27.3557 12.6321 27.3006 12.6949C27.2455 12.7578 27.2031 12.8312 27.1758 12.9108C27.1485 12.9905 27.1369 13.0748 27.1415 13.1591C27.1462 13.2434 27.1671 13.3259 27.203 13.4018C27.2605 13.56 27.3696 13.6931 27.512 13.7785C27.6543 13.864 27.8211 13.8966 27.9842 13.8708L28.7905 13.8671Z" fill="#F8F8F8"/>
<path d="M32.1412 23.3635C31.9025 23.3484 31.6632 23.3484 31.4245 23.3635C30.8404 23.4441 30.6755 23.1986 30.6683 22.6088C30.6612 22.0189 30.9192 21.8394 31.4531 21.876C31.8115 21.9053 32.1699 21.876 32.5282 21.876C32.9977 21.9053 33.6033 21.6159 33.6033 22.5758C33.6033 23.5357 33.012 23.3085 32.496 23.3378L32.1412 23.3635Z" fill="#F8F8F8"/>
</svg>
