<svg width="24" height="40" viewBox="0 0 24 40" fill="none" xmlns="http://www.w3.org/2000/svg">
<path d="M23.9887 28.4624C23.9887 31.0054 23.9887 33.5483 23.9887 36.0621C23.9887 36.6978 23.8271 36.8613 23.1806 36.6397C22.2446 36.3164 21.2824 36.0439 20.3201 35.8006C19.6586 35.6298 19.4405 35.5281 20.0006 34.8669C21.6129 32.9935 22.4505 30.6095 22.352 28.1746C22.2534 25.7396 21.2257 23.4262 19.4669 21.6801C17.9356 20.1052 15.8956 19.0804 13.682 18.7739C12.9679 18.6759 12.7085 18.447 12.7386 17.7059C12.8062 16.1765 12.7386 16.1765 14.3361 16.1765C16.7981 16.1765 19.2639 16.2129 21.7297 16.1547C22.5679 16.133 22.94 16.4272 23.2069 17.1574C23.7085 18.5595 23.9626 20.0331 23.9586 21.5167C23.9962 23.8198 23.9887 26.1557 23.9887 28.4624Z" fill="#F8F8F8"/>
<path d="M0.0187772 28.1391C0.0187772 25.8505 0.0187772 23.5583 0.0187772 21.266C0.00674185 19.7576 0.301768 18.2616 0.887062 16.8631C0.941338 16.646 1.07525 16.4553 1.26395 16.3264C1.45266 16.1975 1.68334 16.1391 1.91322 16.162C4.78244 16.1911 7.65041 16.1911 10.5171 16.162C11.1411 16.162 11.3027 16.3655 11.3027 16.9467C11.3027 18.516 11.3253 18.516 9.74658 18.8539C2.39059 20.4305 -0.751779 28.9529 3.87156 34.7035C4.53311 35.5245 4.53311 35.5245 3.49568 35.8296C2.66498 36.0767 1.80421 36.2619 1.00359 36.5816C0.101471 36.9449 -0.0112932 36.6216 -1.68113e-05 35.826C0.0450889 33.2649 0.0187772 30.7002 0.0187772 28.1391Z" fill="#F8F8F8"/>
<path d="M11.9718 39.9964C9.0099 39.9964 6.05171 39.9964 3.08977 39.9964C2.58946 40.0095 2.09367 39.9018 1.64734 39.683C1.201 39.4641 0.818249 39.141 0.53378 38.7431C0.34584 38.4924 0.240593 38.2781 0.69165 38.1546C4.5106 37.112 8.20927 35.5426 12.2913 35.648C14.6268 35.7486 16.9349 36.1756 19.1436 36.9158C20.4442 37.3227 21.7485 37.7259 23.0678 38.0746C23.7332 38.2527 23.6768 38.4997 23.3084 38.9138C23.0121 39.265 22.6364 39.5458 22.2103 39.7347C21.7841 39.9236 21.3188 40.0156 20.8501 40.0036C17.892 39.9891 14.93 39.9964 11.9718 39.9964Z" fill="#F8F8F8"/>
<path d="M11.859 34.2203C8.35582 34.2385 5.8938 31.968 5.8938 28.6986C5.8938 27.1628 6.52505 25.69 7.64868 24.604C8.77231 23.5181 10.2963 22.908 11.8853 22.908C13.4744 22.908 14.9984 23.5181 16.122 24.604C17.2456 25.69 17.8769 27.1628 17.8769 28.6986C17.8882 31.9898 15.49 34.1985 11.859 34.2203ZM9.89693 28.7349V30.3624C9.89693 30.6421 9.89693 30.8855 9.4985 30.9618C9.32898 30.9911 9.17825 31.0838 9.07902 31.2198C8.9798 31.3558 8.94009 31.5242 8.96851 31.6883C8.97511 31.7805 9.00072 31.8705 9.04381 31.953C9.0869 32.0355 9.14662 32.1089 9.21945 32.1688C9.29228 32.2287 9.37676 32.2739 9.46792 32.3018C9.55909 32.3297 9.65511 32.3398 9.75034 32.3313C9.83875 32.3146 9.92983 32.3163 10.0175 32.3364C10.1051 32.3565 10.1873 32.3945 10.2585 32.4478C10.3297 32.5012 10.3883 32.5686 10.4303 32.6456C10.4723 32.7227 10.4968 32.8075 10.5021 32.8944C10.5406 33.0281 10.6273 33.1441 10.7466 33.2213C10.8658 33.2986 11.0098 33.3321 11.1524 33.3158C11.3095 33.3242 11.4648 33.28 11.5922 33.1907C11.7195 33.1014 11.8111 32.9723 11.8515 32.8254C11.9154 32.6437 11.8515 32.3531 12.1748 32.3822C12.4304 32.404 12.3815 32.6365 12.4304 32.7999C12.4654 32.9686 12.5629 33.119 12.7048 33.223C12.8466 33.3269 13.0228 33.3771 13.2003 33.3642C13.3777 33.3512 13.5442 33.276 13.6682 33.1526C13.7923 33.0293 13.8654 32.8664 13.8738 32.6946C13.8798 32.5337 13.9219 32.3759 13.9971 32.2323C14.0724 32.0887 14.1791 31.9626 14.3098 31.8627C15.2194 31.0998 15.3961 30.2425 14.8736 29.1854C14.7914 29.0479 14.7482 28.8919 14.7482 28.7331C14.7482 28.5743 14.7914 28.4183 14.8736 28.2808C15.1301 27.8588 15.2196 27.3613 15.1257 26.8804C15.0317 26.3994 14.7605 25.9677 14.3624 25.6652C14.2163 25.5593 14.0958 25.4238 14.0095 25.2682C13.9231 25.1126 13.873 24.9406 13.8625 24.7643C13.8531 24.5962 13.7811 24.437 13.6599 24.3162C13.5386 24.1953 13.3761 24.121 13.2025 24.1068C13.029 24.0926 12.8559 24.1396 12.7154 24.2391C12.5748 24.3386 12.4763 24.4839 12.4379 24.6481C12.3777 24.837 12.4379 25.124 12.1146 25.0985C11.8665 25.0804 11.9079 24.8406 11.8665 24.6735C11.8383 24.5235 11.759 24.3869 11.6411 24.2855C11.5233 24.1841 11.3737 24.1238 11.2163 24.1141C11.065 24.0905 10.9101 24.1225 10.782 24.2039C10.654 24.2853 10.5622 24.41 10.5247 24.5536C10.4269 25.0622 10.13 25.1567 9.67516 25.1312C9.51602 25.1229 9.35931 25.1718 9.23513 25.2683C9.11095 25.3649 9.02805 25.5023 9.00233 25.6543C8.95045 25.7965 8.95888 25.9527 9.02579 26.0888C9.0927 26.225 9.21265 26.33 9.35942 26.3809C9.92324 26.5444 9.93076 26.9222 9.91948 27.3617C9.90821 27.8013 9.90069 28.2844 9.89693 28.7349Z" fill="#F8F8F8"/>
<path d="M16.3659 34.6236C16.3659 34.362 16.6177 34.3003 16.768 34.1658C19.0008 32.1787 19.8803 29.7375 19.1135 26.9004C18.3618 24.1504 16.4561 22.414 13.5881 21.691C13.2686 21.6111 12.8363 21.691 12.7687 21.1498C12.6597 20.1871 12.7912 20.0382 13.776 20.2307C15.2636 20.5154 16.6499 21.1664 17.8009 22.1207C18.9519 23.075 19.8285 24.3002 20.346 25.6778C20.8635 27.0554 21.0043 28.5388 20.7548 29.9844C20.5053 31.4301 19.8739 32.789 18.9218 33.9297C17.9408 35.1213 17.9408 35.1212 16.3659 34.6236Z" fill="#F8F8F8"/>
<path d="M7.5176 34.6018C6.49896 35.2121 5.85621 34.8415 5.23225 34.0823C3.14986 31.5394 2.57101 28.7058 3.72872 25.6725C4.88643 22.6392 7.262 20.7901 10.581 20.1617C10.8554 20.1108 11.2877 19.9328 11.2802 20.4341C11.2802 20.8628 11.6297 21.4585 10.7239 21.5966C9.73231 21.7363 8.78148 22.0732 7.93139 22.5859C7.0813 23.0986 6.35039 23.776 5.78479 24.5754C4.73853 26.0049 4.27054 27.7554 4.46932 29.4959C4.66811 31.2363 5.51988 32.846 6.86357 34.0205C7.05527 34.2058 7.26576 34.3802 7.5176 34.6018Z" fill="#F8F8F8"/>
<path d="M2.93567 3.60367C7.26206 3.996 9.13771 4.90782 10.5435 8.74398C6.73583 8.8348 4.20239 7.77041 2.93567 3.60367Z" fill="#F8F8F8"/>
<path d="M21.0042 0C20.2976 3.4293 17.3845 5.4164 13.4302 5.15848C14.8398 1.21696 16.8019 0.395968 21.0042 0Z" fill="#F8F8F8"/>
<path d="M5.78858 13.314C7.37855 13.314 8.96853 13.3358 10.5623 13.314C11.1486 13.314 11.314 13.521 11.314 14.0587C11.314 14.5963 11.1599 14.7852 10.5623 14.7852C7.41238 14.7634 4.2625 14.7852 1.10886 14.7852C0.578865 14.7852 0.0563909 14.7089 0.052632 14.0587C0.0488732 13.4084 0.582624 13.3321 1.10886 13.3321L5.78858 13.314Z" fill="#F8F8F8"/>
<path d="M18.2528 13.314C19.8089 13.314 21.3688 13.314 22.925 13.314C23.4399 13.314 23.921 13.4157 23.9398 13.9933C23.9586 14.5709 23.47 14.7743 22.9287 14.7743C19.7826 14.7743 16.6365 14.7743 13.4904 14.7743C12.8777 14.7743 12.7724 14.5382 12.7649 14.0223C12.7574 13.5065 12.9153 13.2958 13.4979 13.2958C15.0728 13.3358 16.6628 13.314 18.2528 13.314Z" fill="#F8F8F8"/>
<path d="M12.7799 8.40614C12.7799 9.42694 12.7499 10.4477 12.7799 11.4685C12.81 12.0897 12.4792 12.1261 11.9793 12.1297C11.4794 12.1333 11.2276 12.0498 11.2501 11.4976C11.2802 9.42694 11.2501 7.35628 11.2501 5.28562C11.2501 4.79521 11.4456 4.4283 11.9718 4.42103C12.498 4.41377 12.7424 4.78431 12.7499 5.25656C12.7499 6.30642 12.7499 7.35628 12.7499 8.40614H12.7799Z" fill="#F8F8F8"/>
<path d="M12.3477 29.4651C13.0167 29.4397 13.6783 29.4324 13.6407 30.1916C13.6031 30.9509 12.8889 30.8855 12.2913 30.9182C11.6936 30.9509 11.3478 30.831 11.3516 30.1008C11.3516 29.2144 11.9718 29.5159 12.3477 29.4651Z" fill="#F8F8F8"/>
<path d="M11.8307 27.0335C12.5825 27.0335 13.3342 26.9427 13.2854 27.7782C13.2365 28.6137 12.5336 28.5047 11.9359 28.5047C11.3909 28.5047 11 28.5265 11 27.7782C11 27.0299 11.3608 26.9318 11.8307 27.0335Z" fill="#F8F8F8"/>
</svg>
