<svg width="36" height="41" viewBox="0 0 36 41" fill="none" xmlns="http://www.w3.org/2000/svg">
<path d="M0.0252718 13.2488C1.1117 13.9383 2.16564 13.9014 3.20875 13.9014C10.4612 13.9014 17.7125 13.9014 24.9625 13.9014C28.7163 13.9236 31.4017 16.5195 31.6724 20.2806C31.7193 20.9628 31.593 21.2725 30.8242 21.2393C29.4165 21.1766 28.0052 21.1766 26.6012 21.2393C23.8833 21.361 21.8187 23.3153 21.6347 25.8559C21.4434 28.5477 23.064 30.8744 25.6266 31.3427C27.2761 31.6451 28.9761 31.4571 30.6509 31.4239C31.4738 31.4239 31.7698 31.6341 31.6904 32.4895C31.6074 33.4003 31.7121 34.3332 31.5929 35.2366C31.4026 36.8168 30.6552 38.2721 29.4906 39.3301C28.3261 40.3882 26.8241 40.9766 25.2657 40.9853C18.9709 41.0025 12.6786 41.0025 6.38862 40.9853C4.73407 40.9774 3.14709 40.3138 1.96209 39.1341C0.777084 37.9545 0.0865891 36.3509 0.0361 34.6614C-0.00360327 33.5552 0.0361 32.449 0.0144437 31.3427C0.0144437 30.8081 0.202132 30.668 0.696617 30.6753C2.40386 30.7011 4.1147 30.7085 5.82194 30.6753C6.39944 30.6753 6.54382 30.8966 6.51495 31.4128C6.48607 31.929 6.54021 32.578 6.51495 33.1569C6.4608 34.0124 6.78204 34.3775 7.65551 34.3517C9.21476 34.3037 10.774 34.3516 12.3297 34.3295C12.5307 34.2962 12.7368 34.3354 12.9126 34.4403C13.0885 34.5453 13.2231 34.7095 13.2934 34.9048C13.5641 35.5099 14.032 36.0002 14.6172 36.2921C15.2024 36.5839 15.8686 36.6592 16.5021 36.5051C17.1193 36.3502 17.6693 35.9916 18.0667 35.485C18.4641 34.9783 18.6868 34.3518 18.7002 33.7027C18.7077 33.0549 18.5033 32.4232 18.1195 31.9075C17.7357 31.3919 17.1945 31.0218 16.5815 30.856C15.9433 30.661 15.2576 30.7076 14.6503 30.9874C14.043 31.2671 13.5548 31.7611 13.2753 32.3789C13.2086 32.5592 13.0843 32.7111 12.9225 32.8102C12.7607 32.9092 12.5709 32.9495 12.3838 32.9246C11.153 32.9025 9.92581 32.8804 8.69862 32.9246C8.03089 32.9541 7.87929 32.6813 7.92261 32.0728C7.96592 31.4644 7.92261 30.9113 7.92261 30.3287C7.92261 29.5544 7.56167 29.2225 6.81813 29.2225C4.81132 29.2225 2.8045 29.2225 0.79768 29.2225C0.267101 29.2225 -0.0180408 29.1524 -0.010822 28.485C-0.00360327 27.8176 0.202132 27.718 0.772415 27.718C4.63686 27.7402 8.50251 27.7402 12.3694 27.718C12.5566 27.6956 12.7458 27.7384 12.9062 27.8394C13.0667 27.9405 13.1891 28.0939 13.2537 28.2748C13.5337 28.8924 14.0183 29.3891 14.6219 29.6772C15.2255 29.9653 15.9093 30.0263 16.5526 29.8494C17.1393 29.6724 17.6548 29.3078 18.0232 28.809C18.3917 28.3102 18.5936 27.7038 18.5992 27.079C18.6049 26.4541 18.414 25.844 18.0546 25.3383C17.6953 24.8327 17.1865 24.4583 16.6032 24.2703C15.9655 24.0721 15.2793 24.1146 14.6698 24.3901C14.0602 24.6656 13.5679 25.1557 13.2825 25.7711C13.2054 25.9639 13.0669 26.1244 12.8894 26.2268C12.7119 26.3291 12.5058 26.3674 12.3044 26.3353C8.47123 26.3353 4.63566 26.3353 0.79768 26.3353C0.267101 26.3353 -0.010822 26.2578 -0.00721266 25.5978C-0.00360327 24.9378 0.21296 24.8271 0.783243 24.8345C2.79006 24.8603 4.79688 24.8345 6.8037 24.8566C7.62664 24.8566 7.95148 24.5322 7.92982 23.7172C7.90817 22.9023 7.9587 22.1243 7.92982 21.3315C7.89012 20.6715 8.06698 20.3986 8.77081 20.4355C9.93664 20.4945 11.1061 20.4687 12.2755 20.4355C12.4907 20.401 12.7109 20.4434 12.899 20.5556C13.0871 20.6678 13.2315 20.8429 13.3078 21.0513C13.5914 21.6513 14.0711 22.1313 14.6642 22.4087C15.2572 22.686 15.9264 22.7432 16.5563 22.5705C17.1549 22.4039 17.6841 22.0428 18.0639 21.5416C18.4436 21.0403 18.6532 20.4264 18.661 19.7926C18.6687 19.1589 18.4742 18.5398 18.1068 18.029C17.7394 17.5183 17.2192 17.1437 16.6248 16.962C15.9885 16.7651 15.3044 16.8053 14.6944 17.0754C14.0843 17.3455 13.5879 17.8279 13.2934 18.4369C13.2192 18.6316 13.0831 18.7952 12.9071 18.9015C12.731 19.0078 12.5252 19.0507 12.3224 19.0232C10.7632 19.0232 9.20394 19.0416 7.64829 19.0232C6.79648 19.0232 6.44998 19.3477 6.50051 20.2216C6.55104 21.0955 6.50051 21.8736 6.50051 22.6995C6.51855 23.1899 6.39584 23.437 5.85804 23.4149C4.12192 23.3891 2.3822 23.4149 0.646086 23.4149C0.285147 23.4149 0.0036155 23.4149 0.0036155 22.9023C0.0324906 19.7422 0.0252718 16.5932 0.0252718 13.2488Z" fill="#F8F8F8"/>
<path d="M30.3188 22.7216C32.322 22.5188 33.9787 22.8876 35.603 22.4525C35.9856 22.3529 35.9639 22.6479 35.9639 22.8913C35.9639 24.3662 36.0217 25.8412 35.9206 27.294C35.9062 27.6629 35.8207 28.0253 35.669 28.3604C35.5172 28.6955 35.3022 28.9967 35.0363 29.2468C34.7704 29.4969 34.4589 29.6908 34.1194 29.8177C33.78 29.9445 33.4194 30.0016 33.0584 29.9858C30.8927 30.0079 28.7367 30.0079 26.5903 29.9858C25.6979 30 24.8335 29.6669 24.1726 29.054C23.5117 28.4412 23.1038 27.5944 23.0315 26.6856C22.8763 24.6686 24.1143 22.965 26.1031 22.7511C27.5067 22.6626 28.9141 22.6527 30.3188 22.7216ZM26.612 27.9467C26.9201 27.9487 27.2219 27.8578 27.4797 27.6855C27.7375 27.5132 27.9399 27.267 28.0614 26.9778C28.183 26.6885 28.2183 26.3691 28.1631 26.0595C28.1079 25.7498 27.9645 25.4637 27.7509 25.2369C27.5373 25.01 27.2629 24.8526 26.9622 24.7842C26.6615 24.7159 26.3477 24.7397 26.0601 24.8526C25.7725 24.9655 25.5239 25.1625 25.3454 25.419C25.1668 25.6755 25.0663 25.9801 25.0563 26.2947C25.046 26.5092 25.0787 26.7235 25.1524 26.9245C25.2261 27.1256 25.3393 27.3091 25.485 27.4639C25.6307 27.6186 25.8059 27.7412 25.9997 27.8243C26.1935 27.9073 26.4018 27.9489 26.612 27.9467Z" fill="#F8F8F8"/>
<path d="M10.5575 12.4634C10.1094 12.4283 9.65928 12.4283 9.21117 12.4634C8.31604 12.6072 8.08865 12.1167 7.9912 11.3571C7.45701 7.15352 10.3445 3.31864 14.3184 2.94991C18.5956 2.58117 22.0858 5.64907 22.3132 10.0002C22.4287 12.2126 22.1941 12.4117 20.0935 12.4744C19.1803 12.5002 18.7327 12.3933 18.4945 11.2871C18.3213 10.4906 18.2094 9.92274 18.5486 9.14839C19.007 8.10487 18.5234 6.91384 17.5525 6.27592C17.1915 6.04731 16.9389 5.86662 16.9533 5.37989C16.9442 5.20596 16.8727 5.04155 16.7524 4.91812C16.6321 4.79469 16.4714 4.7209 16.3012 4.71086C16.131 4.70082 15.9632 4.75523 15.8297 4.8637C15.6963 4.97216 15.6068 5.12706 15.5781 5.29877C15.5348 5.63063 15.5095 5.88875 15.0728 5.86662C14.6361 5.8445 14.6722 5.60482 14.6469 5.3172C14.6376 5.14539 14.5629 4.98408 14.4389 4.86768C14.3148 4.75127 14.1511 4.68897 13.9828 4.69404C13.8996 4.68383 13.8152 4.69083 13.7347 4.71463C13.6542 4.73842 13.5793 4.77852 13.5143 4.83254C13.4493 4.88656 13.3956 4.95339 13.3564 5.02906C13.3172 5.10472 13.2933 5.18767 13.2862 5.27296C13.2537 5.8445 12.9541 5.89612 12.5174 5.86662C12.0806 5.83713 11.5825 5.933 11.5681 6.55985C11.5681 7.11296 11.929 7.31577 12.3983 7.29733C12.8675 7.27889 12.9938 7.53701 12.9938 7.97949C12.9938 9.2627 12.9721 10.5607 12.9938 11.8328C12.9938 12.3195 12.8206 12.4855 12.3622 12.467C11.7558 12.4412 11.1566 12.4634 10.5575 12.4634Z" fill="#F8F8F8"/>
<path d="M5.02426 10.1956C5.02809 7.46321 6.09425 4.84427 7.98819 2.91493C9.88213 0.985597 12.4487 -0.0960948 15.1233 -0.092183C17.7979 -0.0882712 20.3615 1.00092 22.25 2.93579C24.1385 4.87066 25.1973 7.49271 25.1935 10.2251C25.1935 10.745 25.1033 11.2613 25.078 11.7812C25.0527 12.3011 24.8542 12.4634 24.3561 12.4781C23.7209 12.5002 23.5007 12.4154 23.6054 11.6448C24.2478 6.85116 21.4037 2.63279 16.9785 1.68882C14.8549 1.20533 12.6309 1.56092 10.7534 2.68412C8.87593 3.80732 7.48416 5.61487 6.85783 7.7435C6.50689 9.04566 6.42576 10.4083 6.61961 11.7443C6.65209 12.0061 6.93363 12.4191 6.39944 12.4228C5.98436 12.4228 5.35993 12.7473 5.21556 12.0024C5.1214 11.4039 5.05755 10.8008 5.02426 10.1956Z" fill="#F8F8F8"/>
<path d="M31.6507 15.7967C30.2647 14.1042 28.7632 13.0275 26.825 12.633C26.464 12.5592 26.4388 12.3417 26.4821 12.0209C26.6391 10.8982 26.6391 9.75848 26.4821 8.63584C26.399 8.07168 26.6842 8.02743 27.0993 8.07536C28.0017 8.15058 28.8659 8.48081 29.5951 9.02913C30.3243 9.57745 30.8898 10.3222 31.2284 11.1801C31.86 12.5961 31.6651 14.0895 31.6507 15.7967Z" fill="#F8F8F8"/>
<path d="M2.62402 8.05324C3.73571 8.05324 3.70684 8.05324 3.67796 9.19633C3.65269 10.0813 3.69601 10.9626 3.71045 11.8476C3.71045 12.0725 3.87287 12.3122 3.52637 12.4523C1.76138 13.1639 -0.194908 11.7296 0.054139 9.89324C0.216561 8.69115 1.08281 8.06061 2.62402 8.05324Z" fill="#F8F8F8"/>
<path d="M33.0872 19.7201C33.2208 19.1486 32.6577 18.1493 34.0329 18.2452C35.2637 18.341 35.9928 18.8241 35.9747 19.7644C35.9567 20.7047 35.2745 21.1066 34.0762 21.2172C32.7552 21.3536 33.1522 20.4392 33.0872 19.7201Z" fill="#F8F8F8"/>
<path d="M15.8596 32.1872C16.2332 32.2089 16.5855 32.372 16.8478 32.6447C17.1101 32.9174 17.2635 33.2801 17.2781 33.6621C17.275 33.86 17.2329 34.0552 17.1544 34.2361C17.0758 34.417 16.9625 34.5799 16.821 34.7151C16.6796 34.8504 16.5129 34.9551 16.331 35.0232C16.1491 35.0912 15.9557 35.1212 15.7622 35.1113C15.5763 35.1047 15.3936 35.0603 15.2247 34.9808C15.0558 34.9013 14.9041 34.7882 14.7785 34.6482C14.6528 34.5081 14.5557 34.3439 14.4928 34.1651C14.43 33.9863 14.4026 33.7965 14.4123 33.6068C14.4263 33.2246 14.5851 32.863 14.8551 32.5981C15.1251 32.3333 15.4853 32.1859 15.8596 32.1872Z" fill="#F8F8F8"/>
<path d="M17.2817 19.7644C17.2714 20.1485 17.1147 20.5133 16.8451 20.7812C16.5754 21.0491 16.2141 21.1989 15.838 21.1988C15.6492 21.2014 15.4618 21.1648 15.2873 21.0912C15.1128 21.0175 14.9547 20.9084 14.8227 20.7705C14.6907 20.6325 14.5875 20.4686 14.5195 20.2887C14.4514 20.1088 14.4198 19.9166 14.4267 19.7238C14.4324 19.3365 14.587 18.967 14.8571 18.6951C15.1273 18.4233 15.4913 18.2709 15.8705 18.271C16.2469 18.2914 16.6019 18.4569 16.8637 18.734C17.1256 19.0111 17.275 19.3793 17.2817 19.7644Z" fill="#F8F8F8"/>
<path d="M17.2817 27.0764C17.2742 27.4625 17.1187 27.8301 16.8488 28.1004C16.5789 28.3706 16.2159 28.522 15.838 28.5219C15.6519 28.5293 15.4663 28.4984 15.2921 28.4311C15.1179 28.3638 14.9588 28.2614 14.8241 28.13C14.6894 27.9986 14.582 27.8409 14.5081 27.6662C14.4343 27.4916 14.3955 27.3036 14.3942 27.1133C14.3884 26.9159 14.4215 26.7194 14.4914 26.5353C14.5614 26.3512 14.6668 26.1833 14.8015 26.0416C14.9361 25.9 15.0972 25.7873 15.2753 25.7105C15.4533 25.6336 15.6447 25.594 15.838 25.5941C16.2167 25.6114 16.5753 25.7733 16.8426 26.0478C17.11 26.3224 17.2667 26.6895 17.2817 27.0764Z" fill="#F8F8F8"/>
<path d="M15.607 7.33789C15.8452 7.33789 16.087 7.33789 16.3289 7.33789C16.5726 7.34981 16.8031 7.45508 16.9743 7.63274C17.1455 7.8104 17.245 8.04742 17.2529 8.29661C17.2931 8.54336 17.2412 8.79655 17.1076 9.00614C16.9739 9.21573 16.7682 9.3665 16.531 9.42864C15.9499 9.62776 15.3435 9.50607 14.7516 9.51713C14.5314 9.51713 14.4267 9.3807 14.4123 9.17421C14.3978 8.96771 14.4123 8.74647 14.4123 8.5326C14.3942 7.31577 14.3942 7.31577 15.607 7.33789Z" fill="#F8F8F8"/>
<path d="M15.8596 12.4634C15.6192 12.4485 15.3782 12.4485 15.1377 12.4634C14.535 12.5408 14.387 12.2569 14.3798 11.6779C14.3726 11.099 14.5927 10.9405 15.1017 10.9737C15.4879 11.0068 15.8813 10.9737 16.2675 10.9958C16.3963 10.9942 16.5241 11.0193 16.6432 11.0697C16.7622 11.12 16.87 11.1944 16.9601 11.2885C17.0502 11.3826 17.1207 11.4944 17.1672 11.6171C17.2138 11.7398 17.2356 11.8709 17.2312 12.0024C17.2312 12.7399 16.6356 12.3712 16.2855 12.4523C16.1443 12.4713 16.0016 12.475 15.8596 12.4634Z" fill="#F8F8F8"/>
</svg>
