<svg width="40" height="39" viewBox="0 0 40 39" fill="none" xmlns="http://www.w3.org/2000/svg">
<path d="M7.0721 31.1892C6.44182 31.2122 5.8172 31.0614 5.26504 30.7528C4.71288 30.4442 4.25395 29.9895 3.9373 29.4373C2.75549 27.425 1.5674 25.4065 0.460816 23.353C-0.00119805 22.5115 -0.115464 21.5191 0.142984 20.5925C0.401432 19.666 1.01158 18.8807 1.84013 18.4082C3.58307 17.3513 5.36364 16.3611 7.10972 15.3169C7.73668 14.9456 8.10345 15.1169 8.43887 15.7136C9.71787 17.9734 11.0125 20.2268 12.3041 22.4834C12.4138 22.6934 12.5418 22.8931 12.6865 23.0801C12.7843 23.2074 12.928 23.2903 13.0861 23.3105C13.2442 23.3307 13.4037 23.2867 13.5298 23.188C13.6574 23.116 13.7532 22.9975 13.7974 22.8565C13.8417 22.7156 13.8312 22.5628 13.768 22.4294C13.6781 22.2108 13.5733 21.9987 13.4545 21.7947C12.1787 19.573 10.9185 17.3132 9.61129 15.0947C9.21317 14.4187 9.26019 13.9871 9.92477 13.5078C14.2538 10.4202 17.9492 6.51066 20.8056 1.99634C22.1317 -0.0793468 24.5862 -0.0285655 25.8056 2.0979C28.8318 7.36011 31.8412 12.6287 34.8339 17.9036C36.047 20.0396 34.8558 22.2009 32.4263 22.3469C25.7053 22.7119 19.4013 24.4385 13.605 27.9646C12.1129 28.8818 10.5862 29.7292 9.09091 30.6116C8.48833 31 7.78638 31.2009 7.0721 31.1892Z" fill="white"/>
<path d="M18.7085 35.9753C18.7429 37.2734 17.79 37.7844 16.8527 38.3462C15.9154 38.908 15.0439 39.2983 14.0063 38.708C13.6511 38.4897 13.3608 38.1783 13.1661 37.8066C12.1787 36.0737 11.1975 34.3376 10.1912 32.6174C9.8558 32.043 9.94044 31.6431 10.5047 31.3162C11.7241 30.6147 12.9467 29.9133 14.1505 29.1865C14.7398 28.8311 15.0909 28.9993 15.4232 29.561C16.4138 31.3193 17.4127 33.0745 18.4201 34.8264C18.6228 35.1736 18.7229 35.5723 18.7085 35.9753Z" fill="white"/>
<path d="M33.8746 10.3816C33.8746 10.4863 33.8746 10.7244 33.837 10.956C33.8355 11.1044 33.7846 11.2478 33.6924 11.3631C33.6002 11.4783 33.4721 11.5586 33.3292 11.5908C33.1909 11.6345 33.0419 11.6283 32.9076 11.5733C32.7733 11.5183 32.662 11.418 32.5925 11.2893C31.8464 9.99755 31.1129 8.70263 30.373 7.40771C30.2938 7.286 30.2583 7.14038 30.2725 6.99531C30.2868 6.85023 30.35 6.71456 30.4514 6.61108C30.5562 6.49364 30.6968 6.41514 30.8508 6.3881C31.0047 6.36106 31.1632 6.38704 31.3009 6.46191C32.7398 6.98241 33.8558 8.56933 33.8746 10.3816Z" fill="white"/>
<path d="M39.0063 5.39551C38.9812 5.99536 36.7712 7.26489 36.2978 6.92847C35.8746 6.63013 35.8339 6.16675 36.232 5.86841C36.822 5.43931 37.452 5.0694 38.1128 4.76392C38.2128 4.71581 38.3236 4.69537 38.4339 4.70465C38.5442 4.71394 38.6501 4.75263 38.7409 4.81679C38.8316 4.88094 38.904 4.96829 38.9506 5.06993C38.9972 5.17158 39.0164 5.28391 39.0063 5.39551Z" fill="white"/>
<path d="M39.163 13.6094C38.6897 13.4697 38.0815 13.3237 37.5016 13.1111C37.4263 13.0856 37.357 13.0445 37.2982 12.9905C37.2394 12.9365 37.1922 12.8708 37.1598 12.7974C37.1274 12.724 37.1104 12.6446 37.1099 12.5642C37.1093 12.4838 37.1253 12.4042 37.1567 12.3303C37.1738 12.2522 37.2059 12.1782 37.2512 12.1126C37.2966 12.047 37.3542 11.9911 37.4209 11.9481C37.4875 11.905 37.5619 11.8757 37.6398 11.8618C37.7176 11.8479 37.7974 11.8496 37.8746 11.8669C38.4563 11.9929 39.0308 12.1508 39.5956 12.3398C39.6709 12.3632 39.7409 12.4017 39.8012 12.453C39.8615 12.5043 39.911 12.5673 39.9467 12.6384C39.9824 12.7095 40.0035 12.7872 40.0089 12.8668C40.0143 12.9463 40.0038 13.0262 39.9781 13.1016C39.8997 13.4634 39.6489 13.6157 39.163 13.6094Z" fill="white"/>
<path d="M33.0063 0.818847C32.8558 1.36157 32.721 1.9519 32.5235 2.51684C32.499 2.59286 32.46 2.66321 32.4085 2.72387C32.3571 2.78453 32.2943 2.83428 32.2238 2.87027C32.1533 2.90626 32.0764 2.92777 31.9977 2.93357C31.9189 2.93937 31.8398 2.92934 31.7649 2.90405C31.6866 2.89289 31.6115 2.86538 31.5442 2.82327C31.477 2.78115 31.4192 2.72535 31.3743 2.6594C31.3295 2.59344 31.2988 2.51879 31.284 2.44016C31.2692 2.36153 31.2707 2.28064 31.2884 2.20264C31.4084 1.58813 31.5697 0.982634 31.7712 0.39038C31.7951 0.314053 31.8348 0.243722 31.8875 0.184001C31.9402 0.12428 32.0048 0.0765181 32.077 0.04385C32.1493 0.011182 32.2275 -0.00565416 32.3066 -0.00555375C32.3857 -0.00545335 32.4639 0.0115813 32.536 0.0444326C32.6907 0.0986508 32.8221 0.205419 32.9078 0.346594C32.9935 0.487769 33.0283 0.654639 33.0063 0.818847Z" fill="white"/>
</svg>
