<svg width="39" height="39" viewBox="0 0 39 39" fill="none" xmlns="http://www.w3.org/2000/svg">
<path d="M22.9468 23.6626C26.6402 20.3136 27.2125 16.0937 27.1434 11.6676C27.1231 11.2845 27.0144 10.9113 26.8256 10.5768C26.6367 10.2424 26.373 9.95584 26.0548 9.73939C23.7526 7.91592 21.0787 7.49689 18.2502 7.7326C16.3572 7.85155 14.5426 8.52847 13.0373 9.67719C12.6519 9.95917 12.3414 10.3305 12.1328 10.7589C11.9242 11.1873 11.8237 11.6599 11.8401 12.1358C11.8162 13.9314 12.0049 15.7236 12.4025 17.4752C12.9715 19.8421 14.0437 21.9341 16.1157 23.6626H10.3601C8.23544 23.6626 7.42637 24.6447 7.78486 26.6973C8.30122 29.6961 8.79127 32.6981 9.29447 35.7001C9.33394 35.9325 9.46221 36.1879 9.15305 36.3549C8.38015 36.7444 8.31109 37.4385 8.37686 38.1718C8.43278 38.7741 8.28149 39.036 7.58752 39.0131C6.06147 38.9575 4.52883 39.0131 2.99948 38.9935C0.697238 38.9738 -0.598596 37.0685 0.272968 34.9635C1.51399 31.9691 2.77145 28.9857 4.04536 26.0131C4.97709 23.8121 6.63649 21.994 8.74851 20.8603C9.73519 20.3005 9.76808 20.1859 9.26158 19.1285C8.2995 17.2106 8.08962 15.0047 8.67287 12.9411C9.24514 10.8721 9.81083 8.79983 10.439 6.75047C11.014 4.80372 12.2063 3.09437 13.8378 1.87775C15.4693 0.661126 17.4524 0.00252075 19.491 0.000310756C21.5295 -0.00189924 23.5141 0.652404 25.1482 1.86549C26.7824 3.07857 27.9784 4.78533 28.5577 6.73083C29.2681 9.06828 30.0245 11.3992 30.531 13.7923C30.9082 15.6518 30.6074 17.5843 29.6825 19.243C29.3141 19.9404 29.3536 20.3758 30.0936 20.7555C32.5998 22.065 34.2475 24.1111 35.2901 26.7137C36.3689 29.4145 37.5463 32.0761 38.6744 34.754C39.6611 37.098 38.3915 38.9771 35.8262 38.9804C34.3495 38.9804 32.8662 38.9575 31.3993 38.9804C30.8402 38.9804 30.6034 38.8527 30.6593 38.2602C30.7316 37.4777 30.6593 36.7313 29.8371 36.2959C29.5476 36.1421 29.6923 35.854 29.7318 35.6412C30.2295 32.6141 30.7338 29.587 31.2447 26.5598C31.5736 24.7036 30.7251 23.6691 28.8438 23.6626C26.9625 23.656 25.0352 23.6626 22.9468 23.6626Z" fill="white"/>
<path d="M19.4902 25.067C22.6059 25.067 25.7194 25.067 28.8307 25.067C29.87 25.067 30.0443 25.2634 29.8799 26.2717C29.3832 29.2999 28.8735 32.3281 28.3801 35.3563C28.3764 35.4782 28.3472 35.5981 28.2945 35.7082C28.2418 35.8183 28.1667 35.9163 28.074 35.9961C27.9812 36.0758 27.8728 36.1354 27.7557 36.1713C27.6385 36.2071 27.5152 36.2183 27.3934 36.2042C22.1509 36.2042 16.9073 36.2042 11.6625 36.2042C11.0311 36.2042 10.7318 35.939 10.6298 35.3137C10.1299 32.2299 9.5971 29.1526 9.08732 26.0687C8.96563 25.3419 9.23203 25.0866 10.074 25.0866C13.2083 25.0637 16.3493 25.0702 19.4902 25.067ZM22.7199 30.7731C22.7052 30.6597 22.673 30.5493 22.6245 30.4457C21.8385 29.241 21.082 28.0199 20.24 26.8446C19.8125 26.2553 19.0659 26.3732 18.5956 27.0443C17.8918 28.0722 17.2274 29.1297 16.5269 30.1609C16.3592 30.3773 16.2753 30.6464 16.2904 30.9192C16.3055 31.1921 16.4186 31.4504 16.6091 31.6472C17.2669 32.4983 17.9246 33.3757 18.6022 34.2236C19.2073 34.9798 19.796 34.9766 20.3979 34.2236C21.0557 33.3724 21.7135 32.5016 22.3713 31.6439C22.5888 31.4048 22.7126 31.0956 22.7199 30.7731Z" fill="white"/>
<path d="M19.1514 9.06493C21.5293 9.06493 23.3579 9.47087 24.9794 10.6363C25.2822 10.8221 25.5191 11.0974 25.6571 11.4237C25.7951 11.75 25.8272 12.1111 25.749 12.4565C25.6996 13.0282 25.5049 13.578 25.1833 14.0541C23.7894 15.7863 21.8254 16.9724 19.6382 17.4031C19.228 17.4444 18.8145 17.3707 18.4443 17.1903C16.9481 16.6644 15.5767 15.8375 14.4154 14.7612C14.246 14.6237 14.0985 14.4614 13.9779 14.28C12.863 12.2896 12.8268 11.1929 14.7706 10.1485C16.1184 9.43232 17.6236 9.06 19.1514 9.06493Z" fill="white"/>
<path d="M19.5033 38.9803C16.5005 38.9803 13.4977 38.9803 10.4916 38.9803C9.98186 38.9803 9.70559 38.928 9.7023 38.2961C9.69902 37.6643 9.93253 37.5333 10.5147 37.5366C16.4939 37.5563 22.4732 37.5563 28.4524 37.5366C29.0148 37.5366 29.2812 37.6217 29.2911 38.2798C29.2911 38.9902 28.9425 38.9803 28.4327 38.9771C25.4562 38.9738 22.4798 38.9803 19.5033 38.9803Z" fill="white"/>
<path d="M19.5198 23.6625C18.729 23.521 17.9777 23.2129 17.3162 22.759C16.1816 21.9978 15.2729 20.9475 14.6851 19.7177C14.593 19.5311 14.1555 19.2299 14.7147 19.0335C15.1126 18.8927 15.3724 18.8862 15.5698 19.4001C16.3591 21.4888 18.1417 22.5429 20.2433 22.1828C20.9771 22.0743 21.6653 21.7621 22.229 21.2821C22.7926 20.8021 23.209 20.1737 23.4303 19.4689C23.5947 19.0204 23.7592 18.8436 24.2361 18.9975C24.5387 19.0957 24.6373 19.1742 24.4827 19.4885C23.5322 21.4167 22.1805 22.8998 20.0493 23.5447C19.8651 23.5971 19.6743 23.6298 19.5198 23.6625Z" fill="white"/>
<path d="M16.8163 18.0972C17.3589 18.2707 17.9016 18.4475 18.4443 18.6111C19.6151 18.9876 20.7202 18.6603 21.7858 18.2183C22.0489 18.1135 22.3153 17.9302 22.2857 18.4573C22.2167 19.8061 20.7728 20.9748 19.283 20.8766C17.7931 20.7784 16.6617 19.4852 16.8163 18.0972Z" fill="white"/>
<path d="M13.5734 15.9267C14.093 16.3097 14.5962 16.6633 15.083 17.0365C15.3921 17.2722 15.3724 17.4621 14.9745 17.5865C14.0437 17.8811 13.8464 17.7862 13.6589 16.8335C13.5407 16.5464 13.5109 16.2307 13.5734 15.9267Z" fill="white"/>
<path d="M25.4201 15.9398C25.5253 16.4964 25.3115 16.9219 25.2293 17.3737C25.1898 17.6029 25.0681 17.7993 24.782 17.7011C24.4301 17.5701 23.9729 17.7469 23.7197 17.3737C23.6177 17.2297 23.8381 17.0987 23.9664 17.0038C24.4202 16.6699 24.8807 16.3359 25.4201 15.9398Z" fill="white"/>
<path d="M19.5592 28.3472C19.7533 28.3701 21.2695 30.7992 21.1379 30.9662C20.6643 31.6209 20.1512 32.2757 19.6546 32.9108C19.556 33.0319 19.4145 33.0025 19.3257 32.865C19.2797 32.7962 19.2238 32.7373 19.1744 32.6718C18.7271 32.0596 17.8983 31.4376 17.9181 30.8418C17.951 29.9841 18.8127 29.2835 19.2994 28.5011C19.3422 28.4323 19.4047 28.3178 19.5592 28.3472Z" fill="white"/>
</svg>
