<svg width="43" height="41" viewBox="0 0 43 41" fill="none" xmlns="http://www.w3.org/2000/svg">
<g clip-path="url(#clip0_216_8320)">
<path d="M1.27768 14.52C1.51724 14.52 1.75361 14.52 1.99317 14.52H38.7581C39.0787 14.5338 39.3998 14.5143 39.7164 14.4618C39.9405 14.4186 40.1465 14.3079 40.3073 14.144C40.468 13.9802 40.5761 13.7709 40.6172 13.5438C40.6677 13.3338 40.6573 13.1134 40.587 12.9093C40.5167 12.7051 40.3897 12.5259 40.2211 12.3931C40.0596 12.2546 39.8852 12.1323 39.7004 12.0278C33.6315 8.14892 27.5338 4.28941 21.4745 0.391113C20.628 -0.151933 19.9732 -0.116377 19.1651 0.41374C14.278 3.55565 9.37811 6.65877 4.48783 9.77483L0.638843 12.2218C0.389201 12.3534 0.194512 12.5713 0.0901746 12.8358C-0.0141634 13.1004 -0.0212228 13.394 0.0702797 13.6634C0.146302 13.9232 0.307036 14.1494 0.526291 14.3049C0.745545 14.4605 1.01039 14.5363 1.27768 14.52ZM20.3501 4.82276C21.2866 4.83129 22.1816 5.21441 22.8399 5.88846C23.4982 6.56251 23.8663 7.47274 23.8637 8.42044C23.8733 8.90107 23.7875 9.37876 23.6115 9.82525C23.4354 10.2717 23.1726 10.678 22.8387 11.0199C22.5047 11.3617 22.1064 11.6324 21.6673 11.8157C21.2282 11.9991 20.7572 12.0915 20.2821 12.0874C19.8071 12.0833 19.3377 11.9828 18.9018 11.7918C18.4658 11.6009 18.0721 11.3234 17.744 10.9758C17.4159 10.6282 17.16 10.2175 16.9915 9.76799C16.823 9.31852 16.7453 8.83942 16.763 8.35903C16.7663 7.88767 16.8622 7.42168 17.045 6.98815C17.2279 6.55463 17.4941 6.16222 17.8282 5.83376C18.1623 5.5053 18.5576 5.24735 18.9911 5.07489C19.4246 4.90244 19.8876 4.81893 20.3533 4.82922L20.3501 4.82276Z" fill="#F8F8F8"/>
<path d="M22.602 36.1675H4.25465C4.01637 36.153 3.77744 36.153 3.53916 36.1675C2.87477 36.2419 2.3637 36.6233 2.40523 37.2892C2.46592 38.3236 2.12095 38.6662 1.09881 38.608C0.942646 38.6064 0.787939 38.6385 0.645059 38.7023C0.50218 38.7661 0.37443 38.8601 0.270375 38.978C0.16632 39.0958 0.0883652 39.2348 0.0417359 39.3856C-0.00489347 39.5365 -0.0191192 39.6957 1.23465e-05 39.8525C0.0124933 40.1649 0.146334 40.4597 0.372433 40.6727C0.598532 40.8858 0.898606 40.9999 1.20741 40.9903C1.44378 40.9903 1.68334 40.9903 1.92291 40.9903H26.6937C24.9279 39.7823 23.5148 38.1168 22.602 36.1675Z" fill="#F8F8F8"/>
<path d="M38.279 20.1574C38.279 19.3751 38.2439 18.5896 38.2982 17.8106C38.3461 17.1189 38.1608 16.9056 37.4357 16.9088C31.7373 16.9411 26.0357 16.9282 20.3341 16.9282H18.737C13.5369 16.9282 8.33998 16.9282 3.14306 16.9282C2.53297 16.9282 2.28702 17.0736 2.33813 17.7266C2.39243 18.4442 2.33813 19.1715 2.33813 19.8955C2.33813 21.4406 2.65754 21.7703 4.22269 21.7703H25.8153C27.5334 20.3465 29.6123 19.4401 31.8149 19.1543C34.0175 18.8685 36.2552 19.215 38.2726 20.1541L38.279 20.1574Z" fill="#F8F8F8"/>
<path d="M5.33747 33.8014C6.5289 33.782 7.72033 33.7691 8.91176 33.8014C9.45477 33.8014 9.64961 33.6624 9.63364 33.0871C9.59531 31.723 9.63364 30.3557 9.63364 28.9883C9.63364 27.621 9.61767 26.2052 9.63364 24.8121C9.63364 24.3563 9.56337 24.1268 9.03633 24.1429C7.79379 24.1753 6.54807 24.1623 5.30553 24.1429C4.91265 24.1429 4.73377 24.2528 4.73697 24.6892C4.74974 27.5273 4.74974 30.3654 4.73697 33.2034C4.72738 33.6786 4.90626 33.8079 5.33747 33.8014Z" fill="#F8F8F8"/>
<path d="M22.7074 25.7203C22.7074 25.3971 22.7074 25.0738 22.7074 24.7506C22.7074 24.2302 22.5158 24.1235 22.0686 24.1332C20.9027 24.1591 19.7336 24.1688 18.555 24.1332C18.0024 24.1138 17.9161 24.3433 17.9161 24.8411C17.9417 26.2343 17.9161 27.6307 17.9161 29.0433C17.9161 30.4558 17.9321 31.7779 17.9161 33.1484C17.9161 33.6204 18.0215 33.824 18.5294 33.7949C19.6154 33.7658 20.7015 33.7723 21.7875 33.7949C21.1517 31.0752 21.4772 28.216 22.7074 25.7139V25.7203Z" fill="#F8F8F8"/>
<path d="M20.3629 9.60677C20.6704 9.59137 20.9608 9.45888 21.1759 9.23587C21.3909 9.01286 21.5147 8.71581 21.5224 8.40431C21.5203 8.24374 21.4867 8.08518 21.4236 7.93785C21.3605 7.79051 21.2691 7.65734 21.1546 7.54606C21.0402 7.43479 20.9051 7.34763 20.7571 7.28965C20.6091 7.23167 20.4512 7.20402 20.2926 7.20832C19.98 7.21775 19.6839 7.35246 19.4695 7.58281C19.255 7.81317 19.1398 8.1203 19.1491 8.43664C19.1584 8.75298 19.2915 9.05262 19.5191 9.26964C19.7468 9.48665 20.0503 9.60328 20.3629 9.59385V9.60677Z" fill="#F8F8F8"/>
<path d="M33.5005 40.2565C27.9778 40.2921 24.0905 36.5263 24.0905 31.1508C24.0875 29.8943 24.3292 28.6495 24.8016 27.4876C25.2741 26.3256 25.968 25.2692 26.8439 24.3786C27.7198 23.488 28.7604 22.7808 29.9064 22.2972C31.0524 21.8136 32.2813 21.5632 33.5229 21.5602C36.0304 21.5542 38.4377 22.5565 40.215 24.3466C41.9923 26.1367 42.9941 28.568 43 31.1055C43.0128 36.578 39.2309 40.2242 33.5005 40.2565ZM30.4086 31.2057V33.8984C30.4086 34.3606 30.3894 34.7614 29.7697 34.8875C29.6343 34.9107 29.5049 34.9612 29.3891 35.036C29.2734 35.1109 29.1737 35.2085 29.0959 35.323C29.0182 35.4376 28.9639 35.5668 28.9365 35.703C28.909 35.8392 28.9089 35.9796 28.936 36.1158C28.9464 36.2685 28.987 36.4175 29.0554 36.5539C29.1238 36.6904 29.2187 36.8115 29.3343 36.9101C29.4499 37.0088 29.584 37.0828 29.7285 37.128C29.873 37.1731 30.025 37.1883 30.1754 37.1728C30.8845 37.1437 31.2327 37.3861 31.3828 38.1037C31.4818 38.5757 31.9098 38.7987 32.4049 38.7987C32.6532 38.8124 32.8985 38.7393 33.0998 38.5915C33.3011 38.4438 33.4459 38.2304 33.5101 37.9874C33.6091 37.69 33.4814 37.2083 34.018 37.2568C34.4204 37.2924 34.3374 37.6738 34.4236 37.9453C34.4975 38.2082 34.6602 38.4365 34.8834 38.5904C35.1065 38.7443 35.376 38.814 35.6448 38.7875C35.9135 38.761 36.1646 38.6398 36.3541 38.4451C36.5437 38.2505 36.6597 37.9947 36.6819 37.7223C36.69 37.4538 36.756 37.1903 36.8751 36.9502C36.9943 36.7101 37.1638 36.4993 37.3719 36.3324C38.8061 35.0782 39.0903 33.6592 38.263 31.9136C38.1329 31.6862 38.0644 31.4281 38.0644 31.1653C38.0644 30.9026 38.1329 30.6444 38.263 30.417C39.0573 28.7426 38.789 27.3021 37.4581 26.0953C37.2278 25.9203 37.038 25.6966 36.9017 25.4398C36.7655 25.183 36.6861 24.8993 36.6691 24.6084C36.6436 24.3394 36.5256 24.088 36.3357 23.898C36.1457 23.708 35.8959 23.5915 35.6298 23.5688C35.3637 23.5461 35.0982 23.6187 34.8795 23.7738C34.6608 23.9289 34.5029 24.1568 34.4332 24.4177C34.3406 24.7247 34.4332 25.1999 33.9254 25.1579C33.5357 25.1256 33.6059 24.7312 33.5325 24.4565C33.4891 24.2082 33.3644 23.9819 33.1783 23.8142C32.9923 23.6464 32.7558 23.547 32.5071 23.532C32.3838 23.5065 32.2567 23.5058 32.1332 23.53C32.0096 23.5543 31.8919 23.6029 31.7869 23.6731C31.6819 23.7434 31.5916 23.8339 31.5212 23.9394C31.4507 24.045 31.4015 24.1636 31.3764 24.2884C31.2295 25.1288 30.7599 25.284 30.038 25.2581C29.787 25.2427 29.5393 25.3222 29.3428 25.481C29.1463 25.6398 29.015 25.8668 28.9744 26.1179C28.9302 26.2362 28.9099 26.3623 28.9145 26.4887C28.9191 26.6151 28.9486 26.7392 29.0013 26.8539C29.0539 26.9686 29.1287 27.0716 29.2211 27.1566C29.3136 27.2417 29.4219 27.3073 29.5397 27.3495C30.4309 27.6178 30.4469 28.2416 30.4213 28.9657C30.3958 29.6897 30.4118 30.4494 30.4086 31.196V31.2057Z" fill="#F8F8F8"/>
<path d="M34.2735 32.405C35.3276 32.3597 36.3753 32.35 36.3114 33.6171C36.2475 34.8842 35.12 34.7614 34.1841 34.8325C33.1619 34.9069 32.6988 34.6871 32.6988 33.4846C32.7052 32.0009 33.6794 32.489 34.2735 32.405Z" fill="#F8F8F8"/>
<path d="M34.0116 27.5757C35.1807 27.5757 36.3529 27.4271 36.3082 28.8105C36.2635 30.1035 35.1296 30.0033 34.1809 30.0356C33.3216 30.0647 32.6988 30.0679 32.702 28.8396C32.7052 27.6113 33.2705 27.4109 34.0116 27.5757Z" fill="#F8F8F8"/>
</g>
<defs>
<clipPath id="clip0_216_8320">
<rect width="43" height="41" fill="white"/>
</clipPath>
</defs>
</svg>
