<svg width="39" height="37" viewBox="0 0 39 37" fill="none" xmlns="http://www.w3.org/2000/svg">
<path d="M20.0168 28.6435H37.2149C37.4449 28.6435 37.6749 28.6435 37.9019 28.6435C38.0488 28.6459 38.1938 28.6771 38.3285 28.7353C38.4633 28.7936 38.5851 28.8777 38.6872 28.9829C38.7892 29.0881 38.8693 29.2122 38.923 29.3483C38.9767 29.4844 39.0028 29.6297 39 29.7758C39.0034 30.0712 38.8903 30.3561 38.685 30.5695C38.4797 30.7829 38.1986 30.9077 37.9019 30.9173C37.6473 30.9417 37.3897 30.9173 37.1382 30.9325C37.0216 30.9325 36.81 30.9966 36.8069 31.0394C36.7456 32.0191 35.9972 31.6742 35.5033 31.6742C25.7945 31.6905 16.0877 31.6905 6.38293 31.6742C5.18364 31.6742 4.62847 32.016 4.60393 32.7607C4.57939 33.5054 5.18364 33.9388 6.386 33.9388H35.8101C36.2364 33.9388 36.767 33.7618 36.7824 34.5126C36.7824 34.7201 37.0554 34.6866 37.2302 34.6927C37.4848 34.6927 37.7424 34.6927 37.9939 34.6927C38.2582 34.7043 38.508 34.8161 38.6922 35.005C38.8764 35.1939 38.981 35.4458 38.9847 35.709C39.036 35.9764 38.9808 36.2533 38.8309 36.4811C38.6809 36.7088 38.4479 36.8697 38.181 36.9298C37.909 36.9943 37.629 37.019 37.3498 37.0031H2.80346C0.871097 37.0031 0.00920128 36.1424 0.00613403 34.2135C0.00613403 33.1758 0.00613403 32.135 0.00613403 31.0973C0.0337392 29.5713 0.953912 28.6557 2.51207 28.6557C8.34801 28.6435 14.1829 28.6394 20.0168 28.6435Z" fill="white"/>
<path d="M20.0107 26.3911H5.79402C4.03036 26.3911 3.1562 25.5304 3.15006 23.7938C3.15006 22.6523 3.15006 21.5109 3.15006 20.3724C3.14191 20.0734 3.19331 19.7756 3.30132 19.4964C3.40932 19.2172 3.57178 18.962 3.77934 18.7455C3.9869 18.5291 4.23546 18.3556 4.5107 18.2352C4.78593 18.1147 5.0824 18.0497 5.38301 18.0437C5.56091 18.0437 5.74188 18.0437 5.91978 18.0437H34.1967C34.5059 18.0116 34.8184 18.0396 35.1169 18.1261C35.3648 18.1983 35.5786 18.3566 35.7193 18.5722C35.86 18.7878 35.9183 19.0464 35.8837 19.3012C35.8718 19.5588 35.7659 19.8033 35.5857 19.9887C35.4056 20.1742 35.1636 20.2878 34.9052 20.3084C34.6292 20.345 34.347 20.3084 34.0648 20.3328C33.8961 20.3328 33.6323 20.2961 33.6415 20.5342C33.6753 21.2759 33.1446 21.0805 32.7582 21.0836H9.50846C8.28156 21.0836 7.72025 21.4559 7.73866 22.2525C7.75706 23.0491 8.28156 23.3451 9.50846 23.3451H32.8195C33.1998 23.3451 33.6906 23.1986 33.6354 23.8823C33.6354 24.0349 33.7612 24.0868 33.8961 24.0929C34.0311 24.099 34.2028 24.0929 34.3531 24.0929C35.3715 24.0929 35.9144 24.5202 35.8867 25.2618C35.8591 26.0035 35.3377 26.3789 34.301 26.3789L20.0107 26.3911Z" fill="white"/>
<path d="M1.62564 7.74917C1.62564 6.63517 1.62564 5.52118 1.62564 4.39192C1.62564 3.33591 1.87102 3.0185 2.88321 2.83537C7.73559 1.96859 12.6125 1.18727 17.4373 0.177037C19.5936 -0.271615 21.575 0.231973 23.6178 0.582959C27.7279 1.29409 31.8257 2.06015 35.9297 2.8079C36.2069 2.8423 36.4794 2.90677 36.7425 3.00018C36.9605 3.08186 37.1453 3.23304 37.2679 3.43013C37.3905 3.62723 37.4441 3.85917 37.4204 4.08976C37.415 4.36029 37.3104 4.61952 37.1262 4.81855C36.942 5.01758 36.691 5.14266 36.4204 5.17019C34.9236 5.45098 33.4207 5.72261 31.9177 5.99424C28.1297 6.67485 24.3447 7.32494 20.5751 8.05438C18.9954 8.35958 17.5477 7.83158 16.0601 7.58131C12.2751 6.94648 8.49933 6.24146 4.71129 5.53644C4.09784 5.42351 3.87086 5.4815 3.89847 6.18652C3.95368 7.80716 3.91687 9.4278 3.9138 11.0484C3.9138 12.196 3.5304 12.7454 2.74212 12.7332C1.95384 12.721 1.62564 12.2082 1.62564 11.0912C1.62564 9.97412 1.62564 8.85096 1.62564 7.74917Z" fill="white"/>
<path d="M19.4494 15.773C16.0386 15.773 12.6278 15.773 9.21707 15.773C8.6711 15.773 8.46252 15.657 8.47173 15.0649C8.50853 13.1177 8.49933 11.1675 8.47173 9.21722C8.47173 8.68921 8.57601 8.50914 9.15879 8.60681C12.3119 9.22943 15.4681 9.76659 18.6151 10.377C19.8635 10.609 21.0444 10.2488 22.2375 10.0413C24.8201 9.59567 27.3966 9.12566 29.967 8.63123C30.4792 8.53356 30.5804 8.70753 30.562 9.16228C30.5436 11.137 30.5313 13.1299 30.562 15.0863C30.562 15.6754 30.381 15.8005 29.8289 15.7944C26.3783 15.7639 22.9123 15.773 19.4494 15.773Z" fill="white"/>
</svg>
