<svg width="12" height="13" viewBox="0 0 12 13" fill="none" xmlns="http://www.w3.org/2000/svg">
<g opacity="0.6">
<path d="M9.57214 12.2935H2.01688C0.972842 12.2935 0.119904 11.4406 0.119904 10.3966V2.84131C0.119904 1.79727 0.972842 0.944336 2.01688 0.944336H9.57214C10.6162 0.944336 11.4691 1.79727 11.4691 2.84131V10.3966C11.4691 11.4453 10.6208 12.2935 9.57214 12.2935Z" fill="white"/>
<path d="M5.79662 9.53458C5.01825 9.53458 4.28649 9.23162 3.73651 8.68164C3.18653 8.13166 2.88358 7.3999 2.88358 6.62154C2.88358 5.84317 3.18653 5.11142 3.73651 4.56143C4.28649 4.01145 5.01825 3.7085 5.79662 3.7085C6.57498 3.7085 7.30674 4.01145 7.85672 4.56143C8.4067 5.11142 8.70966 5.84317 8.70966 6.62154C8.70966 7.3999 8.4067 8.13166 7.85672 8.68164C7.30208 9.23162 6.57498 9.53458 5.79662 9.53458ZM5.79662 4.32839C4.53352 4.32839 3.50347 5.35378 3.50347 6.62154C3.50347 7.88463 4.52886 8.91468 5.79662 8.91468C7.05971 8.91468 8.08976 7.88929 8.08976 6.62154C8.0851 5.35844 7.05971 4.32839 5.79662 4.32839Z" fill="#0D1219"/>
<path d="M9.27688 3.61229C9.58578 3.61229 9.8362 3.36187 9.8362 3.05297C9.8362 2.74407 9.58578 2.49365 9.27688 2.49365C8.96797 2.49365 8.71756 2.74407 8.71756 3.05297C8.71756 3.36187 8.96797 3.61229 9.27688 3.61229Z" fill="#0D1219"/>
</g>
</svg>
