<svg width="143" height="45" viewBox="0 0 143 45" fill="none" xmlns="http://www.w3.org/2000/svg">
<path fill-rule="evenodd" clip-rule="evenodd" d="M117.537 11.2425C117.473 5.86618 121.711 1.07586 127.993 0.182048C131.913 -0.377822 135.53 0.323251 138.64 2.65946C140.901 4.35389 142.265 6.5496 142.773 9.17668C143.333 12.0763 142.807 14.7952 141.062 17.2853C139.328 19.7563 136.87 21.3717 133.75 22.0749C129.685 22.9927 125.843 22.5048 122.41 20.223C119.683 18.4107 118.158 15.9163 117.649 12.8953C117.565 12.3477 117.528 11.7952 117.537 11.2425ZM130.3 18.0492C132.41 18.0456 134.328 17.3079 135.59 15.9121C137.618 13.6641 137.988 11.1331 136.826 8.46714C134.97 4.21128 128.764 3.04988 125.235 6.27849C123.377 7.97928 122.807 10.086 123.168 12.4152C123.683 15.6996 126.677 18.0548 130.3 18.0492ZM47.0321 22.1233H46.5755C46.145 22.1233 45.7144 22.123 45.2838 22.1226C43.9385 22.1216 42.5932 22.1205 41.2478 22.1296C40.9593 22.1296 40.7811 22.0626 40.6147 21.8373C39.8525 20.8075 39.0858 19.7806 38.319 18.7537L38.3185 18.753L38.3182 18.7526C37.5161 17.6783 36.7139 16.6039 35.9171 15.5263C35.7234 15.2658 35.5235 15.1514 35.1672 15.1599C34.1178 15.1832 33.0669 15.1796 32.0176 15.1599C31.6963 15.1549 31.6022 15.2361 31.6037 15.5319C31.6106 16.539 31.6107 17.5462 31.6109 18.5536V18.5537V18.5537V18.5537V18.5537V18.5537V18.5538V18.5538C31.6111 19.6172 31.6113 20.6808 31.6193 21.7449C31.6193 22.0619 31.5236 22.1346 31.186 22.131C29.6821 22.1141 28.1782 22.1141 26.6743 22.131C26.3756 22.131 26.3119 22.052 26.3126 21.7943C26.322 18.2882 26.322 14.7817 26.3126 11.2747C26.3126 10.9831 26.3904 10.9019 26.7187 10.9033C28.8323 10.9098 30.9458 10.9099 33.0594 10.91H33.0603C34.3816 10.9101 35.7028 10.9101 37.024 10.9118C37.8275 10.9118 38.5992 10.7889 39.3055 10.4331C40.5081 9.82732 41.1086 8.6624 40.9149 7.35133C40.7274 6.08403 39.8803 5.23328 38.4771 4.90357C37.9484 4.7847 37.4052 4.72799 36.8606 4.73483C33.4901 4.73483 30.1203 4.73483 26.7482 4.74189C26.4231 4.74189 26.3017 4.68965 26.3087 4.36135C26.3329 3.13853 26.3259 1.9143 26.3087 0.690071C26.3087 0.442259 26.3865 0.375894 26.6549 0.3766C27.998 0.379901 29.3411 0.378635 30.6842 0.377369C33.0749 0.375115 35.4656 0.372861 37.8563 0.396368C39.8453 0.415431 41.7317 0.843276 43.3831 1.91713C45.0781 3.0178 45.9454 4.55621 46.2192 6.39679C46.4308 7.81871 46.3103 9.21732 45.7183 10.5566C44.9708 12.2511 43.5931 13.3913 41.7908 14.139L41.7704 14.1474C41.4847 14.2657 41.3446 14.3237 41.3213 14.4124C41.2989 14.4977 41.3845 14.6114 41.5523 14.8344L41.5528 14.8351L46.7708 21.7625C46.828 21.838 46.882 21.9134 46.9587 22.0207L47.0321 22.1233ZM21.5768 3.34133C19.0837 1.10538 16.1161 -0.0581303 12.6631 0.0230614C11.4582 -0.0220988 10.2529 0.1044 9.09108 0.397956C4.56851 1.57206 1.6577 4.22456 0.433327 8.34274C-0.215422 10.5243 -0.130633 12.7243 0.653466 14.8762C1.9214 18.3475 4.4508 20.69 8.24164 21.9039C10.1365 22.5104 12.096 22.5633 14.0757 22.4221C17.1857 22.2018 19.7993 21.0574 21.9385 19C22.1081 18.8391 22.1221 18.7445 21.9455 18.5764C21.3238 17.9827 20.7093 17.3828 20.0947 16.7826L20.0945 16.7825L20.0943 16.7823L20.0941 16.7821L20.0939 16.7819L20.0938 16.7817L20.0936 16.7815L20.093 16.781L20.0924 16.7804L20.0918 16.7798C19.8077 16.5024 19.5235 16.2249 19.2385 15.9479C18.785 15.5074 18.7795 15.5046 18.2762 15.9077C16.6528 17.2061 14.8388 18.0533 12.6079 18.0533C10.3536 18.0497 8.52168 17.276 7.15806 15.6578C5.87146 14.1314 5.41562 12.3748 5.62098 10.4756C5.81934 8.64774 6.59799 7.05497 8.1763 5.87522C10.4563 4.1709 13.0124 4.08124 15.675 5.00541C16.7166 5.36548 17.5738 6.00795 18.3953 6.68008C18.6092 6.85235 18.7002 6.82693 18.8744 6.64054C19.7716 5.68271 20.6807 4.73312 21.6017 3.79177C21.7852 3.60397 21.7642 3.50936 21.5768 3.34133ZM74.6314 16.7042C74.6314 16.2863 74.6319 15.8684 74.6324 15.4506V15.4505V15.4505V15.4504V15.4503V15.4503C74.6338 14.1973 74.6353 12.9446 74.6236 11.6915C74.6236 11.3999 74.7014 11.3173 75.0305 11.3187C77.9323 11.3302 80.8342 11.3275 83.7361 11.3247L84.1316 11.3244C84.9733 11.3244 85.7815 11.1754 86.5173 10.7899C87.79 10.1234 88.4185 8.85544 88.1906 7.4427C87.9766 6.1161 87.0728 5.23287 85.601 4.90105C85.0846 4.78775 84.5547 4.73273 84.0235 4.73725C83.4066 4.73725 82.7898 4.73707 82.1729 4.73689C79.8081 4.73619 77.4433 4.7355 75.0779 4.74502C74.7248 4.74502 74.6174 4.66453 74.6236 4.33624C74.6454 3.12471 74.6384 1.91248 74.6236 0.700256C74.6236 0.459505 74.6874 0.379019 74.9667 0.379725C76.1452 0.383208 77.3237 0.380731 78.5022 0.378253C80.6685 0.3737 82.8349 0.369146 85.0013 0.401612C87.317 0.436206 89.4531 1.03703 91.1885 2.50977C92.5801 3.68953 93.3137 5.17498 93.5221 6.88707C93.687 8.21579 93.5945 9.51909 93.0733 10.7772C92.192 12.9044 90.4581 14.2275 88.154 14.9865C86.7391 15.4532 85.2665 15.6219 83.7668 15.6219C83.447 15.6219 83.1271 15.6228 82.8072 15.6237H82.807H82.8069H82.8068H82.8066H82.8065H82.8063C81.9858 15.626 81.1649 15.6282 80.3441 15.6155C80.0151 15.6106 79.9046 15.6734 79.9077 15.9975C79.9171 16.9563 79.9171 17.915 79.9171 18.8738C79.9171 19.8326 79.9171 20.7913 79.9264 21.7501C79.9264 22.0742 79.8222 22.1349 79.4916 22.1306C78.0136 22.1144 76.5357 22.1109 75.0577 22.1306C74.6835 22.1363 74.6151 22.0226 74.6182 21.7141C74.6347 20.4003 74.6334 19.0856 74.6321 17.7707C74.6318 17.4152 74.6314 17.0597 74.6314 16.7042ZM49.5575 0.383366H47.7085C47.7395 0.43233 47.7646 0.47303 47.7864 0.508304L47.7867 0.50863L47.787 0.509233L47.7871 0.509328C47.8241 0.569154 47.8514 0.613355 47.8812 0.655888C50.8091 4.85574 53.7425 9.05488 56.6813 13.2533C56.8243 13.4474 56.8992 13.6764 56.896 13.9099C56.8929 15.0616 56.8925 16.2134 56.8922 17.3651C56.8917 18.8369 56.8912 20.3087 56.8851 21.7806C56.8843 22.0489 56.9528 22.1371 57.2678 22.1336C58.7722 22.1166 60.2759 22.1145 61.7795 22.1336C62.1287 22.1378 62.2065 22.0453 62.2065 21.7396C62.2 20.152 62.1993 18.5636 62.1987 16.9753C62.1983 15.9162 62.1978 14.8572 62.1956 13.7984C62.1888 13.5877 62.2519 13.3801 62.3769 13.2025C65.0274 9.44131 67.6789 5.67942 70.3315 1.91683C70.6768 1.42615 71.0199 0.93194 71.3979 0.383366H70.9872C70.565 0.383366 70.1426 0.383654 69.7203 0.383942C68.3926 0.384847 67.0645 0.385752 65.7373 0.377718C65.4736 0.373482 65.3227 0.444084 65.1827 0.655888C63.7141 2.87089 62.2428 5.08449 60.769 7.29667C60.5156 7.67651 60.2594 8.05514 59.9977 8.44196L59.9955 8.44529L59.9947 8.44645L59.9943 8.44702L59.9928 8.44926C59.8577 8.6489 59.7212 8.85073 59.5828 9.05606C59.5503 9.00887 59.5213 8.96742 59.4949 8.92955C59.4465 8.86035 59.4066 8.80312 59.3688 8.74471C57.6025 6.06232 55.8445 3.37546 54.0948 0.684129C53.9408 0.447614 53.7775 0.377012 53.485 0.377012C52.5249 0.387885 51.5649 0.386228 50.6048 0.384571C50.2557 0.383969 49.9066 0.383366 49.5575 0.383366ZM105.693 0.383584C106.374 0.383584 107.054 0.383779 107.735 0.383973C110.231 0.384686 112.726 0.3854 115.222 0.376524C115.551 0.376524 115.627 0.461952 115.622 0.7493C115.604 1.99706 115.604 3.24436 115.622 4.49118C115.622 4.75452 115.544 4.82724 115.255 4.82583C114.221 4.82044 113.187 4.8202 112.153 4.81995H112.153C111.022 4.81969 109.891 4.81943 108.76 4.81242C108.408 4.81242 108.309 4.89079 108.31 5.21767C108.316 7.96569 108.317 10.7137 108.318 13.4617C108.319 16.2086 108.321 18.9555 108.326 21.7024C108.326 22.0328 108.254 22.1387 107.867 22.1331C106.415 22.1091 104.963 22.1112 103.511 22.1331C103.129 22.1387 103.015 22.0625 103.016 21.6954C103.031 16.2247 103.034 10.7535 103.025 5.28192C103.025 5.22023 103.026 5.1667 103.027 5.12025V5.12019C103.03 4.97397 103.032 4.89804 102.994 4.85914C102.954 4.81711 102.869 4.81832 102.691 4.82083C102.637 4.82159 102.575 4.82247 102.502 4.8223C101.936 4.8223 101.369 4.82174 100.802 4.82118H100.802H100.802H100.802C99.2558 4.81966 97.7094 4.81813 96.1635 4.82795C95.8361 4.82795 95.7481 4.74182 95.752 4.45094C95.7686 3.20411 95.7686 1.95682 95.752 0.709057C95.752 0.439359 95.8423 0.377936 96.127 0.378642C99.3158 0.386643 102.505 0.388291 105.693 0.383584ZM142.374 29.9699H71.5524C47.8671 29.9732 24.1828 29.9716 0.499639 29.965C0.131704 29.965 0.0243573 30.0398 0.0243573 30.3886C0.0368033 35.1194 0.0368033 39.8497 0.0243573 44.5795C0.0243573 44.917 0.114591 45.0031 0.491083 45.0031C47.8357 44.9951 95.1801 44.9951 142.524 45.0031C142.893 45.0031 142.999 44.9276 142.999 44.5795C142.993 39.8483 142.99 35.118 142.99 30.3886C142.99 30.3651 142.99 30.3415 142.989 30.318C142.988 30.2709 142.987 30.2239 142.99 30.1768C143.003 30.0257 142.93 29.9608 142.763 29.9699C142.677 29.9737 142.591 29.9725 142.504 29.9712L142.504 29.9712C142.461 29.9706 142.417 29.9699 142.374 29.9699ZM127.127 37.1554C127.173 37.1552 127.219 37.1551 127.265 37.1551C127.379 37.1551 127.492 37.1554 127.605 37.1558C127.946 37.1568 128.287 37.1579 128.632 37.1494C128.817 37.1466 128.869 37.2101 128.883 37.3739C129.012 38.9893 127.965 40.2919 126.316 40.5425C124.425 40.8306 122.66 39.8803 122.209 38.3327C121.788 36.8861 122.443 35.4585 123.851 34.7525C125.237 34.0592 127.042 34.3162 128.096 35.3568C128.267 35.5273 128.352 35.6126 128.341 35.6832C128.331 35.7538 128.224 35.8097 128.01 35.9217C127.953 35.9494 127.897 35.98 127.844 36.0134C127.461 36.2612 127.156 36.3777 126.7 36.0085C126.076 35.5016 125.011 35.5658 124.341 36.0085C123.653 36.4632 123.389 37.256 123.647 38.0962C123.848 38.7521 124.576 39.2371 125.447 39.2802C126.136 39.3141 126.771 39.2053 127.198 38.6448C127.21 38.629 127.224 38.6129 127.238 38.5965C127.298 38.5283 127.364 38.4538 127.314 38.3673C127.272 38.2958 127.184 38.3045 127.101 38.3128C127.075 38.3153 127.049 38.3179 127.026 38.3179C126.896 38.3162 126.765 38.3212 126.634 38.3263C126.371 38.3363 126.109 38.3463 125.859 38.303C125.485 38.2372 125.536 38.0287 125.588 37.8168C125.615 37.7038 125.643 37.5899 125.607 37.4961C125.549 37.3464 125.541 37.1381 125.865 37.1508C126.192 37.1627 126.519 37.16 126.845 37.1574C126.939 37.1566 127.033 37.1558 127.127 37.1554ZM105.258 37.2913L105.159 37.3125L105.163 39.8782C105.163 40.1638 105.163 40.3119 105.089 40.3886C105.009 40.4712 104.844 40.4712 104.501 40.4712C103.69 40.4712 103.69 40.4712 103.69 39.7299C103.69 39.3097 103.691 38.8895 103.691 38.4693V38.4692C103.693 37.2555 103.694 36.0416 103.684 34.828C103.679 34.5548 103.765 34.492 104.068 34.4694C104.589 34.4306 104.912 34.5774 105.202 34.9897C105.625 35.5903 106.089 36.1698 106.553 36.7492L106.553 36.7494L106.555 36.751L106.556 36.7525C106.715 36.9519 106.875 37.1512 107.033 37.3513C107.051 37.3745 107.068 37.3988 107.086 37.4235C107.15 37.5156 107.22 37.6142 107.372 37.686C107.372 37.4214 107.371 37.1601 107.37 36.901C107.367 36.3891 107.365 35.8857 107.372 35.3823C107.373 35.2958 107.361 35.2014 107.35 35.1068C107.322 34.8834 107.294 34.6591 107.436 34.535C107.563 34.4238 107.775 34.4444 107.993 34.4656C108.121 34.478 108.252 34.4907 108.369 34.4771C108.746 34.4334 108.869 34.5329 108.863 34.9043C108.841 36.6439 108.849 38.3842 108.863 40.1239C108.863 40.4027 108.772 40.4585 108.474 40.4825C107.95 40.5263 107.629 40.3688 107.335 39.9615C106.848 39.2843 106.325 38.6293 105.801 37.9734L105.8 37.9725L105.8 37.9724C105.619 37.7458 105.438 37.5191 105.258 37.2913ZM36.1614 34.3621C38.0843 34.384 39.5622 35.7501 39.556 37.4996C39.5521 38.1175 39.3461 38.7205 38.9641 39.232C38.5822 39.7436 38.0414 40.1406 37.4105 40.3729C36.7796 40.6051 36.0869 40.6621 35.4202 40.5365C34.7536 40.411 34.1431 40.1086 33.666 39.6677C33.189 39.2268 32.8669 38.6672 32.7408 38.06C32.6146 37.4527 32.6899 36.8252 32.9572 36.2569C33.2245 35.6885 33.6717 35.205 34.2421 34.8677C34.8126 34.5304 35.4806 34.3544 36.1614 34.3621ZM69.6529 38.1703L69.6524 37.8561C69.6522 37.7193 69.652 37.5826 69.652 37.4459C69.652 37.2108 69.6526 36.9757 69.6531 36.7405V36.7404L69.6531 36.7309C69.6547 36.0872 69.6562 35.4433 69.6466 34.7998C69.6435 34.5661 69.6932 34.4623 69.9826 34.4757C70.3513 34.4929 70.7209 34.4858 71.0905 34.4787C71.6792 34.4674 72.2677 34.4561 72.8522 34.5428C74.5168 34.792 75.6098 36.1363 75.4814 37.7516C75.3624 39.2562 74.0478 40.4296 72.4142 40.4663C71.9809 40.476 71.547 40.474 71.1129 40.472C70.7304 40.4702 70.3478 40.4685 69.9655 40.4747C69.6948 40.4797 69.6473 40.3801 69.6473 40.1627C69.6553 39.4985 69.6541 38.8342 69.6529 38.1703ZM19.4904 36.7991V36.7992V36.7993C19.4897 37.0149 19.4891 37.2305 19.4891 37.4459V37.4467C19.4891 37.6832 19.4879 37.9199 19.4867 38.1565V38.1567C19.4833 38.802 19.48 39.4472 19.5016 40.0914C19.5117 40.4147 19.395 40.5072 19.0621 40.474C18.8292 40.4542 18.5949 40.4542 18.362 40.474C18.096 40.4931 17.9972 40.4119 18.005 40.1599C18.0139 39.8654 18.0123 39.5712 18.0108 39.2771C18.0092 38.9829 18.0077 38.6889 18.0166 38.3948C18.0236 38.1491 17.9419 38.0679 17.6681 38.0785C17.189 38.0983 16.7082 38.1004 16.2298 38.0785C15.9405 38.0658 15.8891 38.1703 15.8954 38.4033C15.9038 38.7074 15.9025 39.0116 15.9012 39.3155C15.8999 39.6 15.8987 39.8843 15.9055 40.1683C15.9109 40.3879 15.858 40.4973 15.5873 40.4755C15.4568 40.4645 15.3135 40.4787 15.1719 40.4927C14.9124 40.5185 14.6583 40.5437 14.4983 40.4126C14.3221 40.2683 14.3575 40.0028 14.3924 39.7408C14.4065 39.635 14.4205 39.5298 14.4205 39.4334C14.4153 38.6987 14.4156 37.9639 14.4159 37.2292C14.4162 36.4234 14.4165 35.6176 14.4096 34.8118C14.4073 34.5548 14.468 34.4524 14.7698 34.4779C14.8974 34.4887 15.0407 34.4787 15.1818 34.4688H15.1818H15.1819C15.4363 34.451 15.6838 34.4337 15.8199 34.54C15.9882 34.6715 15.9559 34.9226 15.9233 35.1757C15.9083 35.2922 15.8933 35.4091 15.8977 35.515C15.9117 35.868 15.9062 36.221 15.8977 36.574C15.8938 36.7385 15.956 36.8035 16.1427 36.8035C16.674 36.795 17.2061 36.7915 17.7366 36.8035C17.9746 36.8077 18.012 36.7075 18.012 36.5253C18.0093 36.2726 18.01 36.0201 18.0108 35.7679V35.7678V35.7676C18.0118 35.4315 18.0128 35.0958 18.0057 34.7603C17.998 34.5485 18.0633 34.456 18.3091 34.4779C18.4433 34.49 18.5908 34.4758 18.7365 34.4618C19.0053 34.436 19.2681 34.4107 19.43 34.5527C19.5795 34.683 19.5476 34.9352 19.5157 35.1867C19.5018 35.2964 19.488 35.4059 19.4891 35.5051C19.4928 35.9361 19.4916 36.3675 19.4904 36.7987V36.7991ZM52.778 38.1995V38.1994V38.1993C52.7766 37.954 52.7752 37.7088 52.7752 37.4636C52.7752 37.2279 52.7761 36.9923 52.7771 36.7566V36.7565V36.7564V36.7561C52.7795 36.1217 52.782 35.4871 52.7667 34.8506C52.7604 34.5696 52.8211 34.4411 53.1642 34.4736C53.288 34.4853 53.4272 34.4761 53.5642 34.467C53.807 34.4509 54.0432 34.4352 54.1754 34.5372C54.3481 34.6702 54.3139 34.928 54.2802 35.1823C54.2666 35.2843 54.2532 35.3857 54.2532 35.4783C54.2641 36.5853 54.2726 37.6916 54.2477 38.7966C54.2477 39.1354 54.3691 39.2159 54.7145 39.2004C55.0184 39.1866 55.3234 39.1891 55.6283 39.1916C55.8549 39.1935 56.0814 39.1953 56.3076 39.1905C56.5339 39.1856 56.6241 39.2364 56.6319 39.4623L56.6327 39.4852C56.6488 39.9585 56.6572 40.2041 56.5386 40.3316C56.4106 40.4691 56.1348 40.4691 55.5616 40.4691C55.336 40.4691 55.1104 40.4674 54.8849 40.4657C54.3326 40.4614 53.7803 40.4572 53.2279 40.4783C52.8351 40.4931 52.7573 40.3681 52.7667 40.0398C52.785 39.4267 52.7815 38.8131 52.778 38.1997V38.1995ZM90.1763 36.742C90.1775 36.9885 90.1786 37.2349 90.1786 37.4812V37.482C90.1786 37.7338 90.1772 37.9857 90.1757 38.2376V38.2383C90.1722 38.8563 90.1687 39.4744 90.1864 40.0907C90.1965 40.4161 90.0767 40.503 89.7453 40.4733C89.4864 40.4567 89.2264 40.4567 88.9674 40.4733C88.7675 40.4818 88.6952 40.4169 88.6952 40.2312C88.703 38.3955 88.703 36.5599 88.6952 34.7243C88.6936 34.5103 88.7862 34.4659 88.9931 34.4757C89.252 34.4935 89.5121 34.4935 89.771 34.4757C90.0845 34.4475 90.1957 34.5301 90.1872 34.8351C90.1703 35.4698 90.1733 36.1056 90.1763 36.7412V36.7419V36.742ZM36.1712 35.6828C37.3006 35.6878 38.0987 36.4382 38.0925 37.4888C38.0863 38.5542 37.2695 39.2955 36.1144 39.2863C35.0005 39.2778 34.1736 38.5019 34.1798 37.4733C34.1845 36.422 35.0129 35.6772 36.1712 35.6828ZM71.1363 37.0597C71.1348 37.1948 71.1332 37.3299 71.1332 37.4648C71.1332 37.6216 71.1338 37.7784 71.1343 37.9352C71.1355 38.2712 71.1367 38.6072 71.1325 38.9432C71.1293 39.1183 71.1853 39.2051 71.3946 39.1973C71.5343 39.1919 71.6748 39.1928 71.8151 39.1936C72.0373 39.195 72.2594 39.1964 72.4782 39.1726C73.3922 39.0724 73.9102 38.6361 74.0479 37.8121C74.2253 36.7489 73.6294 35.7647 72.2083 35.7696C72.1405 35.7698 72.0728 35.7711 72.005 35.7724C71.8394 35.7755 71.6738 35.7786 71.5082 35.7661C71.2312 35.7449 71.1107 35.8134 71.1262 36.0916C71.1438 36.4127 71.1401 36.7363 71.1363 37.0597Z" fill="white"/>
</svg>
