<svg width="14" height="13" viewBox="0 0 14 13" fill="none" xmlns="http://www.w3.org/2000/svg">
<path d="M12.833 9.36989V11.1199C12.8337 11.2824 12.8004 11.4432 12.7353 11.592C12.6702 11.7409 12.5748 11.8745 12.4551 11.9843C12.3353 12.0941 12.194 12.1778 12.0401 12.2298C11.8862 12.2819 11.7231 12.3012 11.5613 12.2866C9.76633 12.0915 8.0421 11.4781 6.52718 10.4957C5.11775 9.60011 3.92279 8.40516 3.02718 6.99573C2.04134 5.47393 1.42782 3.74131 1.23635 1.93823C1.22177 1.77692 1.24094 1.61434 1.29264 1.46084C1.34434 1.30735 1.42743 1.1663 1.53663 1.04667C1.64583 0.92705 1.77873 0.831474 1.92689 0.766032C2.07505 0.700589 2.23521 0.666713 2.39718 0.66656H4.14718C4.43028 0.663774 4.70473 0.764023 4.91938 0.948621C5.13402 1.13322 5.27423 1.38957 5.31385 1.66989C5.38771 2.22993 5.52469 2.77982 5.72218 3.30906C5.80066 3.51785 5.81765 3.74476 5.77113 3.96291C5.7246 4.18105 5.61652 4.38129 5.45968 4.53989L4.71885 5.28073C5.54926 6.74113 6.75845 7.95032 8.21885 8.78073L8.95968 8.03989C9.11828 7.88306 9.31852 7.77497 9.53667 7.72845C9.75481 7.68192 9.98172 7.69891 10.1905 7.77739C10.7198 7.97488 11.2696 8.11186 11.8297 8.18573C12.113 8.2257 12.3718 8.36843 12.5568 8.58677C12.7418 8.8051 12.8401 9.08381 12.833 9.36989Z" stroke="white" stroke-width="1.16667" stroke-linecap="round" stroke-linejoin="round"/>
</svg>
