<svg width="14" height="11" viewBox="0 0 14 11" fill="none" xmlns="http://www.w3.org/2000/svg">
<path d="M0.532608 8.82938C1.87643 8.90029 3.05154 8.60576 4.19757 7.82581C3.03991 7.64037 2.23711 7.14403 1.8008 6.11864C2.13821 6.07501 2.4349 6.15682 2.78394 6.02592C1.64373 5.55686 0.904923 4.85327 0.875836 3.63698C1.23651 3.66425 1.50993 3.88788 1.94042 3.85515C0.893291 2.89521 0.57333 1.848 1.2307 0.577175C2.32437 1.75528 3.6042 2.55705 5.16908 2.93339C5.25634 2.95521 5.33777 2.97702 5.42504 2.99339C5.82644 3.08065 6.30346 3.2661 6.5478 3.23883C6.96665 3.18974 6.5478 2.73704 6.65251 2.14799C6.9841 0.315374 9.13654 -0.519119 10.7305 0.555359C11.1959 0.871702 11.5624 0.866248 12.022 0.675351C12.2605 0.577176 12.5048 0.479 12.7899 0.364462C12.7259 0.888065 12.2954 1.17714 11.9522 1.56439C12.3419 1.6462 12.6561 1.54257 13.0167 1.43349C12.8946 1.80983 12.5921 2.02254 12.3186 2.2298C12.0336 2.44251 11.9231 2.66613 11.9114 3.0152C11.7369 8.30033 5.33196 12.3855 0.951465 9.13482C0.526795 8.81847 0.939826 9.13482 0.532608 8.82938Z" fill="white"/>
</svg>
