<svg width="14" height="14" viewBox="0 0 14 14" fill="none" xmlns="http://www.w3.org/2000/svg">
<path d="M12.7646 4.40132C12.4474 3.70036 11.9921 3.07104 11.4139 2.5287C10.8357 1.99147 10.1655 1.5668 9.41849 1.27005C8.64591 0.963064 7.82727 0.80957 6.98306 0.80957C6.13884 0.80957 5.32021 0.963064 4.54762 1.27005C3.80062 1.5668 3.13037 1.98635 2.55221 2.5287C1.97405 3.07104 1.51869 3.70036 1.20147 4.40132C0.874022 5.12785 0.70517 5.90555 0.70517 6.70372C0.70517 8.10051 1.22704 9.44101 2.18382 10.5052L1.67217 13.2937L4.39413 12.0811C5.20765 12.429 6.07233 12.603 6.97794 12.603C7.82215 12.603 8.64079 12.4495 9.41337 12.1425C10.1604 11.8457 10.8306 11.4262 11.4088 10.8839C11.9869 10.3415 12.4423 9.71218 12.7595 9.01123C13.087 8.2847 13.2558 7.507 13.2558 6.70883C13.2609 5.90555 13.0921 5.13297 12.7646 4.40132Z" fill="white"/>
<path d="M9.53113 7.88011C9.26508 7.74708 9.07067 7.66522 8.93252 7.61405C8.84554 7.58335 8.64088 7.49126 8.56925 7.54754C8.34413 7.73173 8.10365 8.25361 7.84783 8.35082C7.21339 8.22803 6.625 7.79313 6.16452 7.348C5.95986 7.15357 5.58125 6.601 5.49938 6.45262C5.48403 6.29913 5.76031 6.09447 5.82171 5.97679C6.13893 5.61864 5.89847 5.39351 5.85754 5.24514C5.7859 5.09164 5.66312 4.81536 5.55567 4.59023C5.46357 4.44186 5.44309 4.22185 5.27936 4.13999C4.58353 3.78183 4.18446 4.49814 4.02074 4.87164C3.03326 7.25078 8.96833 11.7788 10.1758 8.65781C10.2372 8.38663 10.2116 8.28431 10.1195 8.16151C9.93533 8.0336 9.72044 7.97732 9.53113 7.88011Z" fill="#1A1C21"/>
</svg>
