<svg width="23" height="23" viewBox="0 0 23 23" fill="none" xmlns="http://www.w3.org/2000/svg">
<path d="M6.10352e-05 3.22C6.10352e-05 1.44164 1.4417 0 3.22006 0H19.7801C21.5584 0 23.0001 1.44164 23.0001 3.22V19.78C23.0001 21.5584 21.5584 23 19.7801 23H3.22006C1.4417 23 6.10352e-05 21.5584 6.10352e-05 19.78V3.22Z" fill="#7C8BFF"/>
<path d="M8.28006 6.21C8.28006 7.35323 7.35329 8.28 6.21006 8.28C5.06683 8.28 4.14006 7.35323 4.14006 6.21C4.14006 5.06677 5.06683 4.14 6.21006 4.14C7.35329 4.14 8.28006 5.06677 8.28006 6.21Z" fill="white"/>
<path d="M4.60006 9.66C4.60006 9.40595 4.80601 9.2 5.06006 9.2H7.36006C7.61411 9.2 7.82006 9.40595 7.82006 9.66V18.4C7.82006 18.6541 7.61411 18.86 7.36006 18.86H5.06006C4.80601 18.86 4.60006 18.6541 4.60006 18.4V9.66Z" fill="white"/>
<path d="M9.66006 9.2L11.7301 9.20001C11.9841 9.20001 12.1901 9.40596 12.1901 9.66001V10.12C13.1101 8.97001 14.7967 8.89333 15.6401 8.96999C18.2691 9.20898 18.7067 11.8833 18.6301 13.34L18.6301 18.4C18.6301 18.6541 18.4241 18.86 18.1701 18.86L16.1001 18.86C15.846 18.86 15.6401 18.6541 15.6401 18.4V13.34C15.5634 12.7267 15.1341 11.5 14.0301 11.5C12.9261 11.5 12.2667 12.88 12.1901 13.34V18.4C12.1901 18.6541 11.9841 18.86 11.7301 18.86L9.66006 18.86C9.40601 18.86 9.20006 18.6541 9.20006 18.4V9.66C9.20006 9.40595 9.40601 9.2 9.66006 9.2Z" fill="white"/>
</svg>
