<svg width="27" height="27" viewBox="0 0 27 27" fill="none" xmlns="http://www.w3.org/2000/svg">
<g clip-path="url(#clip0_216_8492)">
<path d="M13.5001 27C20.956 27 27.0001 20.9558 27.0001 13.5C27.0001 6.04416 20.956 0 13.5001 0C6.04428 0 0.000120163 6.04416 0.000120163 13.5C0.000120163 20.9558 6.04428 27 13.5001 27Z" fill="#7C8BFF"/>
<path fill-rule="evenodd" clip-rule="evenodd" d="M6.111 13.3575C10.0465 11.6428 12.6708 10.5124 13.9839 9.96629C17.733 8.40692 18.512 8.13604 19.0198 8.12709C19.1315 8.12513 19.3812 8.1528 19.5429 8.28405C19.6795 8.39487 19.7171 8.54458 19.735 8.64965C19.753 8.75472 19.7754 8.99407 19.7576 9.1811C19.5545 11.3158 18.6754 16.496 18.2281 18.8869C18.0389 19.8986 17.6663 20.2378 17.3055 20.271C16.5216 20.3431 15.9262 19.7529 15.1669 19.2551C13.9788 18.4763 13.3075 17.9914 12.1542 17.2314C10.8213 16.353 11.6854 15.8703 12.445 15.0813C12.6437 14.8749 16.0979 11.733 16.1648 11.448C16.1732 11.4124 16.1809 11.2795 16.102 11.2093C16.023 11.1392 15.9065 11.1632 15.8225 11.1822C15.7033 11.2093 13.8052 12.4639 10.1281 14.946C9.58931 15.316 9.10131 15.4962 8.66407 15.4868C8.18205 15.4764 7.25484 15.2142 6.56555 14.9902C5.72011 14.7154 5.04817 14.5701 5.10668 14.1033C5.13716 13.8602 5.47193 13.6116 6.111 13.3575Z" fill="white"/>
</g>
<defs>
<clipPath id="clip0_216_8492">
<rect width="27" height="27" fill="white"/>
</clipPath>
</defs>
</svg>
