<svg width="11" height="19" viewBox="0 0 11 19" fill="none" xmlns="http://www.w3.org/2000/svg">
<path d="M4.50544 15.0787C4.55582 12.4841 4.67403 9.96087 4.5436 7.42419C4.43747 5.40946 4.49949 3.38607 4.51491 1.36711C4.52042 0.720018 4.94895 0.342816 5.53214 0.364542C6.11532 0.386269 6.47746 0.788516 6.49207 1.43932C6.50872 2.17055 6.49613 2.90171 6.49816 3.63291C6.54014 7.3426 6.58182 11.0532 6.6232 14.7647C6.6244 14.8698 6.63566 14.9741 6.65101 15.2355C7.44853 14.438 8.17777 13.7344 8.87311 13.0006C9.19845 12.6587 9.54097 12.5747 9.97005 12.7267C10.3991 12.8787 10.5756 13.221 10.649 13.6572C10.7029 13.9699 10.5516 14.1523 10.3748 14.3309C9.06144 15.6535 7.74989 16.9779 6.42092 18.2848C5.91412 18.7825 5.39865 18.7865 4.88542 18.2842C3.54614 16.9753 2.22114 15.6503 0.910416 14.3092C0.451208 13.8409 0.463083 13.1801 0.869696 12.8102C1.27631 12.4402 1.89245 12.4822 2.37635 12.9533C3.09028 13.6508 3.79421 14.3675 4.50544 15.0787Z" fill="white"/>
</svg>
