<svg width="1920" height="730" viewBox="0 0 1920 730" fill="none" xmlns="http://www.w3.org/2000/svg">
<mask id="mask0_216_7828" style="mask-type:alpha" maskUnits="userSpaceOnUse" x="0" y="0" width="1923" height="730">
<rect width="1923" height="730" fill="url(#paint0_linear_216_7828)"/>
</mask>
<g mask="url(#mask0_216_7828)">
<path d="M951 -40.7478C965.689 -53.383 987.385 -52.654 1003.98 -43.3801C1020.57 -34.1062 1033.11 -17.725 1043.31 -0.614899C1069.53 43.345 1084.22 94.1287 1104.92 141.43C1125.62 188.731 1155.03 234.958 1198.9 256.24C1267.42 289.448 1345.4 252.757 1415.57 224.004C1433.94 216.471 1453.45 209.364 1472.8 212.766C1497.61 217.119 1517.67 238.36 1529.21 262.719C1540.75 287.078 1545.22 314.576 1550.09 341.487C1565.74 428.151 1588.38 516.941 1641.28 583.722C1694.19 650.502 1810.76 711.288 1938.8 657.407" stroke="#DFDFE0" stroke-width="0.71" stroke-miterlimit="10"/>
<path opacity="0.98" d="M1936.75 662.408C1864.89 690.756 1796.92 680.834 1741.93 654.207C1702.7 635.194 1670.18 607.737 1648.2 579.287C1628.21 553.059 1611.46 523.847 1598.41 492.461C1593.28 480.312 1588.59 468.163 1584.18 455.689C1574.17 426.607 1565.74 396.853 1558.93 366.595C1556.92 357.848 1555.01 349.121 1553.18 340.414C1549.34 322.089 1545.71 303.541 1539.68 286.026C1537.25 278.792 1534.31 271.79 1530.9 265.088C1524.96 253.605 1517.38 243.338 1508.46 234.715C1498.48 225.118 1487.12 217.869 1474.56 215.155C1469.78 214.158 1464.92 213.751 1460.07 213.94C1446.25 214.447 1432.54 219.164 1419.43 224.065C1406.33 228.965 1393.04 234.189 1379.54 239.19C1345.2 251.805 1309.83 262.679 1274.73 262.821C1251.99 263.306 1229.42 258.324 1208.49 248.201C1194.6 241.195 1181.68 231.926 1170.14 220.683C1145.76 197.296 1127.14 166.68 1112.46 135.659C1097.52 104.314 1085.44 71.4301 1070.61 39.8219C1063.82 25.1638 1056.24 11.0026 1047.9 -2.57883C1037.39 -19.446 1024.78 -35.7057 1007.98 -45.1011C991.172 -54.4965 969.53 -55.5494 954.627 -43.5824" stroke="#DFDFE0" stroke-width="0.71" stroke-miterlimit="10"/>
<path opacity="0.95" d="M1936.33 666.701C1867.22 692.012 1802.04 679.701 1748.57 651.413C1710.53 631.266 1678.61 603.181 1656.72 574.084C1636.88 547.418 1620.01 518.056 1606.51 486.67C1601.18 474.642 1596.32 462.372 1591.72 450.222C1581.19 422.07 1572.07 393.257 1564.42 363.922C1562.22 355.526 1560.11 347.163 1558.11 338.834C1553.88 321.279 1549.87 303.561 1543.58 286.896C1541.02 279.971 1537.97 273.3 1534.44 266.952C1528.14 255.856 1520.39 245.921 1511.46 237.49C1501.38 227.872 1490.26 220.238 1478.15 217.099C1473.57 215.937 1468.89 215.366 1464.19 215.398C1450.91 215.398 1437.73 219.448 1425.07 223.822C1412.41 228.196 1399.71 232.711 1386.75 237.044C1353.76 248.08 1319.77 257.293 1285.38 256.078C1247.08 255.513 1210.13 239.897 1180.78 211.875C1156.08 188.771 1136.89 159.229 1121.45 129.22C1105.95 98.8875 1093.14 67.178 1077.64 36.3393C1070.5 21.9894 1062.64 8.12282 1054.09 -5.19079C1043.26 -21.8352 1030.4 -37.9734 1013.51 -47.4498C996.615 -56.9262 974.955 -58.3436 959.999 -47.0448" stroke="#DFDFE0" stroke-width="0.7" stroke-miterlimit="10"/>
<path opacity="0.93" d="M1937.41 670.326C1871.06 692.599 1808.68 677.919 1756.71 648.052C1719.85 626.811 1688.6 597.977 1666.73 568.313C1647.07 541.191 1630.09 511.694 1616.08 480.353C1610.6 468.345 1605.5 456.155 1600.63 444.107C1589.58 416.8 1579.78 388.86 1571.27 360.399C1568.9 352.3 1566.61 344.295 1564.4 336.384C1559.76 319.639 1555.35 302.751 1548.81 286.917C1546.12 280.309 1542.95 273.969 1539.33 267.964C1532.67 257.265 1524.76 247.647 1515.82 239.373C1505.61 229.714 1494.78 221.716 1483.1 218.173C1478.71 216.847 1474.19 216.106 1469.65 215.965C1456.92 215.459 1444.28 218.922 1432.22 222.627C1420.16 226.333 1407.91 230.261 1395.48 233.967C1363.84 243.402 1331.23 250.894 1297.44 248.384C1274.83 246.888 1252.67 240.655 1232.05 229.998C1218.06 222.617 1204.92 213.315 1192.93 202.298C1167.8 179.498 1148.04 150.886 1131.93 122.012C1115.76 92.8129 1102.23 62.2779 1086.06 32.1884C1078.61 18.1092 1070.51 4.48971 1061.79 -8.61273C1050.66 -25.0344 1037.55 -41.0106 1020.55 -50.6288C1003.55 -60.2469 981.89 -61.887 966.792 -51.3375" stroke="#DFDFE0" stroke-width="0.69" stroke-miterlimit="10"/>
<path opacity="0.9" d="M1939.9 673.403C1876.31 692.619 1816.75 675.61 1766.26 643.982C1730.7 621.708 1699.97 592.125 1678.18 561.853C1658.66 534.302 1641.53 504.653 1627.05 473.326C1621.42 461.318 1616.08 449.21 1610.96 437.324C1598.85 409.198 1588.41 382.652 1579.61 356.329C1577.02 348.634 1574.54 340.994 1572.16 333.407C1567.14 317.431 1562.34 301.394 1555.51 286.39C1552.7 280.09 1549.42 274.074 1545.71 268.409C1538.67 258.145 1530.6 248.849 1521.67 240.709C1511.32 231.03 1500.79 222.667 1489.53 218.678C1485.34 217.206 1481.01 216.296 1476.62 215.965C1464.41 214.973 1452.31 217.808 1440.77 220.885C1429.23 223.963 1417.51 227.243 1405.6 230.321C1375.37 238.157 1344.08 243.989 1310.95 240.142C1288.48 237.625 1266.55 230.778 1246.1 219.893C1232.11 212.357 1218.9 203.088 1206.71 192.254C1181.17 169.717 1160.79 142.138 1144.06 114.296C1127.32 86.4543 1112.99 56.8305 1096.15 27.5104C1088.38 14.045 1080.14 0.579656 1070.9 -12.501C1059.46 -28.6999 1046.12 -44.5952 1029 -54.2538C1011.87 -63.9124 990.247 -66.0588 975.007 -56.0964" stroke="#DFDFE0" stroke-width="0.69" stroke-miterlimit="10"/>
<path opacity="0.88" d="M1943.71 676.036C1882.89 692.234 1826.14 672.856 1777.13 639.588C1744.29 617.351 1715.12 588.748 1690.93 555.07C1671.57 527.08 1654.31 497.276 1639.36 465.976C1633.56 454.009 1628.01 441.941 1622.64 430.237C1609.89 402.516 1598.71 376.983 1589.25 351.996C1586.47 344.652 1583.8 337.37 1581.24 330.148C1575.82 314.961 1570.57 299.774 1563.46 285.6C1560.5 279.625 1557.1 273.942 1553.31 268.612C1545.89 258.792 1537.66 249.813 1528.73 241.802C1518.26 232.083 1508.01 223.356 1497.18 218.942C1493.16 217.321 1488.98 216.241 1484.73 215.722C1473.05 214.244 1461.49 216.431 1450.46 218.901C1439.44 221.372 1428.25 224.004 1416.87 226.434C1387.92 232.691 1358.19 236.842 1325.63 231.658C1303.31 228.16 1281.61 220.749 1261.28 209.688C1247.26 201.922 1233.96 192.589 1221.56 181.826C1195.59 159.552 1174.63 133.006 1157.23 106.238C1139.84 79.4688 1124.9 50.9384 1107.44 22.3675C1099.35 9.26661 1090.81 -3.95578 1081.33 -16.8542C1069.58 -32.8304 1056.01 -48.6041 1038.78 -58.364C1021.55 -68.1239 999.922 -70.5132 984.557 -61.3203" stroke="#DFDFE0" stroke-width="0.68" stroke-miterlimit="10"/>
<path opacity="0.85" d="M1948.76 678.303C1890.71 691.445 1836.72 669.779 1789.24 634.728C1757.19 611.152 1728.71 581.8 1704.93 547.821C1685.7 519.397 1668.3 489.425 1652.88 458.139C1646.9 446.193 1641.16 434.205 1635.5 422.664C1622.15 395.368 1610.21 370.908 1600.09 347.116C1597.13 340.123 1594.27 333.205 1591.51 326.361C1585.69 311.944 1580.12 297.588 1572.76 284.244C1569.67 278.583 1566.16 273.231 1562.27 268.247C1554.49 258.884 1546.1 250.212 1537.16 242.309C1526.49 232.549 1516.62 223.457 1506.22 218.618C1502.4 216.858 1498.42 215.615 1494.35 214.912C1483.2 212.887 1472.18 214.487 1461.67 216.309C1451.16 218.132 1440.51 220.157 1429.66 221.979C1402.08 226.616 1373.64 229.127 1341.81 222.586C1319.68 218.078 1298.21 210.084 1278.02 198.835C1263.96 190.902 1250.53 181.579 1237.9 170.973C1213.16 150.001 1190.97 125.379 1171.92 97.7533C1153.75 71.7539 1138.12 44.6815 1119.96 16.88C1111.55 4.12334 1102.73 -8.83582 1093 -21.5925C1080.94 -37.346 1067.14 -52.9982 1049.79 -62.8391C1032.43 -72.6799 1010.84 -75.535 995.316 -66.8888" stroke="#DFDFE0" stroke-width="0.68" stroke-miterlimit="10"/>
<path opacity="0.83" d="M1954.94 680.308C1899.66 690.432 1848.56 666.438 1802.49 629.686C1771.25 604.775 1743.47 574.675 1720.06 540.39C1700.98 511.53 1683.44 481.393 1667.53 450.141C1661.39 438.215 1655.44 426.288 1649.53 414.929C1635.55 388.039 1622.86 364.651 1612.08 342.033C1608.91 335.392 1605.87 328.831 1602.94 322.352C1596.73 308.724 1590.78 295.218 1583.13 282.705C1579.89 277.362 1576.27 272.336 1572.3 267.68C1565.35 259.581 1556.38 251.481 1546.66 242.653C1535.99 232.853 1526.29 223.396 1516.3 218.132C1512.68 216.216 1508.88 214.796 1504.97 213.9C1494.3 211.429 1483.86 212.341 1473.87 213.556C1463.87 214.77 1453.75 216.147 1443.42 217.322C1417.17 220.379 1390.07 221.21 1358.97 213.272C1337.02 207.775 1315.74 199.219 1295.62 187.799C1281.54 179.634 1268.02 170.251 1255.18 159.735C1230.24 139.288 1207.55 115.493 1187.61 88.8642C1168.78 64.0798 1152.47 38.121 1133.6 11.1295C1124.9 -1.32348 1115.82 -13.9789 1105.79 -26.5128C1093.34 -42.0436 1079.38 -57.5743 1061.91 -67.5164C1044.45 -77.4585 1022.79 -80.6578 1007.21 -72.7203" stroke="#DFDFE0" stroke-width="0.67" stroke-miterlimit="10"/>
<path opacity="0.8" d="M1962.17 682.151C1909.65 689.197 1861.4 662.975 1816.79 624.442C1786.39 598.199 1759.28 567.345 1736.23 532.736C1717.09 503.537 1699.66 472.678 1683.3 441.92C1676.99 430.034 1670.85 418.148 1664.65 406.971C1650.07 380.486 1636.6 358.192 1625.17 336.789C1621.83 330.499 1618.59 324.302 1615.46 318.201C1608.86 305.343 1602.51 292.687 1594.6 281.004C1591.23 275.977 1587.49 271.283 1583.43 266.972C1576.32 259.378 1567.09 251.745 1557.25 242.815C1546.42 232.974 1537.05 223.154 1527.49 217.464C1524.06 215.411 1520.44 213.828 1516.69 212.746C1506.61 209.749 1496.65 210.073 1487.17 210.721C1477.69 211.369 1468.11 212.037 1458.31 212.604C1433.41 214.062 1407.77 213.232 1377.25 203.998C1355.54 197.451 1334.51 188.288 1314.51 176.663C1300.38 168.324 1286.75 158.921 1273.72 148.517C1248.51 128.58 1225.25 105.615 1204.36 80.0155C1184.8 56.3043 1167.87 31.4187 1148.31 5.27765C1139.31 -6.87156 1129.88 -19.2233 1119.66 -31.575C1106.98 -46.8627 1092.7 -62.272 1075.2 -72.3153C1057.7 -82.3587 1036.08 -85.9022 1020.25 -78.6329" stroke="#DFDFE0" stroke-width="0.67" stroke-miterlimit="10"/>
<path opacity="0.78" d="M1970.36 683.933C1920.57 687.982 1875.19 659.452 1832.03 619.137C1802.51 591.569 1776.08 559.966 1753.35 525.041C1734.32 495.438 1716.79 464.396 1699.91 433.659C1693.44 421.793 1687.06 409.968 1680.62 398.973C1665.41 372.913 1651.19 351.672 1639.11 331.464C1635.56 325.538 1632.13 319.699 1628.83 313.949C1622.18 301.861 1614.86 290.263 1606.92 279.222C1603.4 274.533 1599.55 270.172 1595.42 266.182C1588.02 259.095 1578.65 251.866 1568.74 242.896C1557.77 233.035 1548.7 222.85 1539.56 216.715C1536.32 214.545 1532.87 212.8 1529.28 211.511C1519.73 208.008 1510.32 207.704 1501.36 207.643C1492.4 207.582 1483.33 207.643 1474.06 207.643C1447.73 207.88 1421.53 203.425 1396.4 194.441C1374.93 186.883 1354.1 177.138 1334.16 165.323C1320 156.785 1306.26 147.361 1293.01 137.097C1267.59 117.626 1243.83 95.478 1222.06 70.9442C1201.91 48.3062 1184.19 24.676 1164.03 -0.796844C1154.69 -12.5411 1144.98 -24.6903 1134.53 -36.8597C1121.53 -51.9248 1107.01 -67.2328 1089.32 -77.3571C1071.63 -87.4814 1050.07 -91.3894 1034.19 -84.7884" stroke="#DFDFE0" stroke-width="0.66" stroke-miterlimit="10"/>
<path opacity="0.76" d="M1979.4 685.715C1932.41 686.666 1889.86 655.969 1848.12 613.872C1819.52 584.98 1793.78 552.62 1771.35 517.367C1752.48 487.359 1734.77 456.115 1717.45 425.418C1710.8 413.572 1704.2 401.828 1697.51 390.995C1681.68 365.36 1666.69 345.213 1653.96 326.199C1650.23 320.638 1646.61 315.164 1643.11 309.778C1636.07 298.482 1628.4 287.708 1620.15 277.521C1616.5 273.12 1612.54 269.057 1608.31 265.372C1600.7 258.791 1591.11 251.968 1581.07 242.977C1569.97 233.055 1561.2 222.526 1552.47 215.965C1549.42 213.656 1546.15 211.741 1542.73 210.255C1533.69 206.206 1524.83 205.335 1516.39 204.646C1507.94 203.958 1499.4 203.432 1490.67 202.622C1465.28 200.833 1440.26 194.837 1416.39 184.823C1395.21 176.224 1374.59 165.891 1354.72 153.903C1340.39 145.217 1326.5 135.457 1313.23 125.555C1287.56 106.529 1263.28 85.1925 1240.6 61.7515C1219.81 40.4093 1201.37 17.9333 1180.48 -6.7701C1170.84 -18.1701 1160.92 -30.0561 1150.14 -42.0231C1136.84 -56.8653 1122.08 -72.0114 1104.27 -82.2774C1086.47 -92.5435 1064.92 -96.7553 1048.86 -90.8224" stroke="#DFDFE0" stroke-width="0.65" stroke-miterlimit="10"/>
<path opacity="0.73" d="M1989.18 687.679C1944.95 685.654 1905.24 652.689 1864.96 608.709C1837.3 578.536 1812.22 545.428 1790.08 509.835C1771.37 479.462 1753.48 447.955 1735.71 417.298C1728.88 405.473 1722.07 393.789 1715.12 383.139C1698.67 357.888 1682.95 338.814 1669.56 320.995C1665.62 315.771 1661.82 310.662 1658.14 305.667C1650.7 295.164 1642.68 285.209 1634.13 275.861C1630.31 271.824 1626.24 268.115 1621.93 264.765C1614.11 258.69 1604.31 252.292 1594.16 243.261C1582.95 233.319 1574.47 222.425 1566.16 215.419C1563.32 213.009 1560.26 210.939 1557.04 209.243C1549.17 205.392 1540.83 202.907 1532.3 201.872C1524.43 200.576 1516.3 199.402 1508.15 198.066C1487.29 194.745 1465.85 188.954 1437.27 175.671C1416.38 166.046 1395.97 155.122 1376.13 142.949C1361.76 134.1 1347.68 124.3 1334.29 114.601C1308.35 95.9786 1283.51 75.443 1259.93 53.1255C1238.49 32.6946 1219.32 11.3525 1197.69 -12.5814C1187.75 -23.6372 1177.45 -35.26 1166.5 -47.0042C1152.9 -61.6237 1137.9 -76.6685 1119.98 -86.9953C1102.05 -97.3222 1080.61 -101.959 1064.44 -96.7147" stroke="#DFDFE0" stroke-width="0.65" stroke-miterlimit="10"/>
<path opacity="0.71" d="M1999.71 690.068C1958.24 684.925 1921.46 649.854 1882.55 604.072C1855.88 572.621 1831.5 538.762 1809.64 502.828C1791.09 472.01 1773.04 440.341 1754.79 409.684C1747.82 397.9 1740.8 386.277 1733.58 375.788C1716.52 350.963 1700.02 332.962 1685.99 316.338L1673.99 302.164C1666.15 292.448 1657.78 283.311 1648.93 274.808C1644.95 271.115 1640.77 267.733 1636.39 264.684C1628.34 259.115 1618.36 253.122 1608.1 244.07C1596.75 234.088 1588.54 222.83 1580.69 215.398C1577.99 212.849 1575.08 210.598 1572 208.676C1564.71 204.398 1556.93 201.329 1548.88 199.564C1541.53 197.539 1533.99 195.818 1526.31 193.874C1506.75 188.933 1486.74 181.502 1458.82 166.842C1441.16 157.588 1420.29 146.269 1398.22 132.419C1383.81 123.368 1369.68 113.527 1356.02 103.929C1329.84 85.7258 1304.49 66.0046 1280.08 44.8436C1257.98 25.5062 1238.1 5.33846 1215.88 -17.826C1205.61 -28.5376 1195.02 -39.8971 1183.87 -51.4996C1169.97 -65.8964 1154.74 -80.8399 1136.69 -91.2478C1118.64 -101.656 1096.97 -106.758 1080.62 -102.162" stroke="#DFDFE0" stroke-width="0.64" stroke-miterlimit="10"/>
<path opacity="0.68" d="M2010.78 693.004C1972.09 684.803 1938.03 647.586 1900.69 599.86C1874.97 567.153 1851.2 532.517 1829.55 496.187C1811.15 464.983 1792.94 433.092 1774.25 402.516C1767.13 390.752 1759.86 379.19 1752.39 368.863C1734.7 344.564 1717.45 327.535 1702.76 312.167L1690.2 299.005C1681.97 290.091 1673.25 281.779 1664.1 274.119C1659.98 270.774 1655.68 267.724 1651.22 264.987C1642.93 259.905 1632.74 254.336 1622.38 245.245C1610.91 235.242 1603.01 223.639 1595.56 215.763C1593.03 213.085 1590.3 210.666 1587.4 208.534C1580.7 203.833 1573.48 200.176 1565.93 197.66C1559.09 195.109 1552.08 192.659 1544.93 190.067C1526.77 183.547 1508.12 174.475 1480.91 158.459C1463.7 148.334 1442.94 136.367 1420.82 122.173C1406.42 112.94 1392.14 103.058 1378.28 93.582C1348.99 73.5763 1323.44 55.1095 1300.67 36.8857C1277.91 18.6618 1257.32 -0.371926 1234.43 -22.767C1223.85 -33.1343 1212.98 -44.2306 1201.53 -55.6508C1187.31 -69.8249 1171.85 -84.6267 1153.7 -95.156C1135.54 -105.685 1113.9 -110.99 1097.41 -107.082" stroke="#DFDFE0" stroke-width="0.64" stroke-miterlimit="10"/>
<path opacity="0.66" d="M2022.34 696.568C1986.42 685.33 1955.19 645.946 1919.33 596.418C1894.62 562.475 1871.51 527.071 1850.08 490.355C1831.85 458.747 1813.46 426.633 1794.33 396.118C1787 384.353 1779.55 372.852 1771.81 362.728C1753.51 338.733 1735.5 322.878 1720.24 308.644C1715.73 304.472 1711.36 300.423 1707.12 296.494C1698.46 288.424 1689.36 280.992 1679.87 274.241C1675.59 271.268 1671.18 268.564 1666.64 266.142C1658.14 261.586 1647.75 256.422 1637.28 247.31C1625.69 237.186 1618.09 225.3 1611.05 216.937C1608.68 214.143 1606.13 211.557 1603.42 209.202C1597.24 204.08 1590.52 199.843 1583.43 196.587C1577.1 193.408 1570.63 190.33 1564.01 187.111C1547.19 179.011 1529.94 168.259 1503.3 150.886C1486.53 139.931 1465.95 127.296 1443.74 112.798C1429.32 103.383 1414.92 93.481 1400.87 84.1464C1371.15 64.4039 1345.03 46.99 1321.59 29.7786C1297.94 12.308 1275.15 -6.61887 1253.32 -26.9177C1242.42 -36.9205 1231.27 -47.7738 1219.53 -59.0118C1205.04 -73.0239 1189.33 -87.7042 1171.14 -98.3348C1152.95 -108.965 1131.32 -114.534 1114.71 -111.355" stroke="#DFDFE0" stroke-width="0.63" stroke-miterlimit="10"/>
<path opacity="0.63" d="M2034.31 700.881C2001.15 686.585 1972.75 645.116 1938.28 593.664C1915.93 560.234 1891.87 522.267 1870.92 485.192C1852.83 453.179 1834.3 420.882 1814.69 390.388C1807.52 378.87 1799.8 367.811 1791.57 357.261C1772.65 333.671 1753.89 318.91 1737.88 305.87C1733.14 302.036 1728.57 298.371 1724.19 294.875C1715.16 287.54 1705.73 280.865 1695.96 274.889C1691.98 272.54 1687.52 270.11 1682.41 267.741C1673.66 263.692 1663.1 258.913 1652.5 249.781C1640.8 239.656 1633.49 227.386 1626.88 218.618C1624.67 215.702 1622.29 212.955 1619.76 210.397C1614.11 204.854 1607.93 200.033 1601.36 196.02C1595.56 192.193 1589.6 188.488 1583.57 184.641C1568.1 174.921 1552.24 162.57 1526.26 143.819C1509.93 132.014 1489.45 118.731 1467.23 103.95C1452.78 94.3316 1438.25 84.3895 1424 75.1966C1393.86 55.7376 1367.18 39.3564 1343.07 23.1575C1318.71 6.89236 1295.23 -11.0193 1272.76 -30.4813C1261.53 -40.1602 1250.1 -50.73 1238.15 -61.7857C1223.32 -75.4941 1207.38 -90.1339 1189 -100.785C1170.61 -111.436 1149.16 -117.49 1132.39 -114.959" stroke="#DFDFE0" stroke-width="0.63" stroke-miterlimit="10"/>
<path opacity="0.61" d="M2046.58 706.044C2016.19 688.711 1990.58 645.136 1957.67 591.761C1936.5 557.338 1913.05 518.582 1892.19 480.879C1874.26 448.481 1855.55 415.962 1835.51 385.508C1828.18 374.005 1820.24 363.03 1811.72 352.644C1792.16 329.479 1772.59 315.791 1756 303.946C1751.12 300.463 1746.38 297.156 1741.78 294.024C1732.36 287.481 1722.58 281.63 1712.5 276.509C1708.41 274.484 1703.83 272.459 1698.6 270.333C1689.71 266.769 1678.88 262.416 1668.17 253.263C1656.33 243.139 1649.32 230.484 1643.13 221.27C1641.08 218.224 1638.87 215.31 1636.53 212.543C1631.38 206.565 1625.76 201.142 1619.73 196.344C1614.39 191.91 1609.06 187.556 1603.46 183.081C1589.34 171.783 1574.88 157.771 1549.55 137.643C1533.66 125.028 1513.31 111.057 1491.05 95.9919C1476.57 86.2118 1461.9 76.2292 1447.46 67.1578C1416.91 47.962 1389.66 32.5932 1364.87 17.508C1339.8 2.45857 1315.63 -14.4518 1292.51 -33.1137C1280.99 -42.4281 1269.25 -52.755 1257.07 -63.6285C1241.92 -77.0939 1225.75 -91.5514 1207.28 -102.364C1188.8 -113.177 1167.3 -119.454 1150.41 -117.551" stroke="#DFDFE0" stroke-width="0.62" stroke-miterlimit="10"/>
<path opacity="0.59" d="M2059.08 712.16C2031.43 691.769 2008.62 646.129 1977.28 590.789C1957.29 555.536 1934.48 515.869 1913.71 477.538C1896.07 444.468 1876.97 412.434 1856.5 381.559C1849 370.079 1840.84 359.187 1832.06 348.959C1811.91 326.199 1791.62 313.584 1774.32 302.954C1769.23 299.809 1764.29 296.859 1759.49 294.105C1749.71 288.344 1739.61 283.318 1729.26 279.06C1725.06 277.38 1720.36 275.618 1715.03 273.857C1705.82 270.819 1694.86 266.871 1684.07 257.658C1672.1 247.533 1665.38 234.493 1659.6 224.834C1657.45 221.21 1655.38 218.173 1653.55 215.601C1648.88 209.216 1643.79 203.24 1638.33 197.722C1633.55 192.639 1628.65 187.597 1623.64 182.555C1610.75 169.697 1597.69 154.065 1573.05 132.5C1557.59 119.035 1537.37 104.416 1515.07 89.0468C1500.56 79.0844 1485.78 69.0614 1471.13 60.1317C1440.13 41.3814 1412.32 26.9036 1386.85 12.9117C1361.1 -0.936845 1336.24 -16.8519 1312.47 -34.7132C1300.6 -43.6631 1288.6 -53.7874 1276.17 -64.418C1260.7 -77.6809 1244.3 -92.0169 1225.68 -102.89C1207.06 -113.764 1185.63 -120.608 1168.62 -119.292" stroke="#DFDFE0" stroke-width="0.61" stroke-miterlimit="10"/>
<path opacity="0.56" d="M2071.69 719.328C2046.8 695.9 2026.75 648.194 1996.9 590.89C1978.06 554.746 1955.89 514.188 1935.21 475.23C1917.74 441.758 1898.5 409.53 1877.59 378.724C1869.95 367.23 1861.57 356.401 1852.51 346.327C1831.74 324.053 1810.7 312.451 1792.74 302.994C1787.46 300.295 1782.32 297.709 1777.34 295.239C1767.13 290.263 1756.65 286.055 1745.95 282.644C1741.67 281.308 1736.81 279.891 1731.39 278.433C1721.95 275.922 1710.8 272.358 1699.88 263.145C1687.8 253.021 1681.37 239.596 1676.01 229.492C1674.02 225.705 1672.14 222.506 1670.48 219.752C1666.28 212.92 1661.73 206.369 1656.86 200.131C1652.59 194.421 1648.23 188.792 1643.74 183.082C1632.3 168.563 1620.62 151.312 1596.61 128.41C1581.6 114.115 1561.52 98.8067 1539.17 83.1747C1524.64 73.0503 1509.72 62.926 1494.89 54.1583C1463.5 35.5295 1435.12 22.1654 1408.98 9.22648C1382.83 -3.71243 1358.76 -16.7931 1332.51 -35.3206C1320.38 -43.9263 1308.07 -53.7874 1295.39 -64.2357C1279.62 -77.2557 1262.99 -91.4702 1244.25 -102.384C1225.5 -113.298 1204.11 -120.608 1186.95 -119.96" stroke="#DFDFE0" stroke-width="0.61" stroke-miterlimit="10"/>
<path opacity="0.54" d="M2084.34 727.649C2062.21 701.184 2044.91 651.413 2016.6 592.145C1998.92 555.11 1977.48 513.682 1956.79 474.095C1939.47 440.214 1920.06 407.769 1898.71 377.003C1890.92 365.538 1882.32 354.812 1873 344.929C1851.66 323 1829.8 312.531 1811.18 304.29C1805.72 301.86 1800.38 299.633 1795.18 297.608C1784.58 293.407 1773.75 290.024 1762.76 287.484C1758.37 286.471 1753.37 285.459 1747.84 284.244C1738.16 282.219 1726.84 279.08 1715.83 269.827C1703.61 259.581 1697.46 245.913 1692.55 235.404C1690.77 231.476 1688.99 228.094 1687.55 225.28C1683.21 216.654 1679.23 210.194 1675.5 203.897C1671.76 197.6 1667.92 191.302 1663.95 184.944C1653.87 168.847 1643.59 149.955 1620.23 125.697C1605.64 110.571 1585.71 94.5946 1563.32 78.6792C1548.75 68.3321 1533.71 58.2483 1518.68 49.5616C1486.87 31.2163 1457.93 18.8646 1431.1 7.03934C1404.26 -4.78589 1379.53 -16.7326 1352.64 -34.5515C1340.19 -42.8332 1327.56 -52.3703 1314.63 -62.6769C1298.63 -75.474 1281.68 -89.5671 1262.83 -100.663C1243.98 -111.76 1222.71 -119.373 1205.32 -119.474" stroke="#DFDFE0" stroke-width="0.6" stroke-miterlimit="10"/>
<path opacity="0.51" d="M2096.91 737.207C2077.56 707.705 2062.98 655.888 2036.25 594.636C2019.69 556.71 1998.82 514.411 1978.31 474.197C1961.16 439.903 1941.6 407.244 1919.82 376.538C1911.87 365.073 1903.05 354.423 1893.47 344.707C1871.45 323.203 1848.9 313.807 1829.62 306.761C1823.97 304.736 1818.46 302.812 1813.09 301.172C1802.1 297.745 1790.92 295.181 1779.62 293.498L1764.36 291.25C1754.45 289.752 1742.93 286.998 1731.8 277.704C1719.46 267.438 1713.59 253.405 1709.11 242.41C1707.43 238.361 1705.91 234.736 1704.63 231.678C1700.84 222.526 1697.39 215.48 1694.17 208.534C1690.95 201.589 1687.64 194.684 1684.21 187.698C1675.46 170.001 1666.59 149.489 1643.86 123.834C1629.63 107.878 1609.91 91.2336 1587.49 75.0144C1572.95 64.385 1557.94 54.645 1542.49 45.8361C1510.27 27.754 1480.79 16.4147 1453.26 5.62219C1426.03 -5.04887 1400.3 -15.9022 1372.77 -32.9516C1359.95 -40.889 1347.09 -50.1629 1333.91 -60.2873C1317.53 -72.8617 1300.41 -86.8333 1281.45 -98.0106C1262.49 -109.188 1241.06 -116.963 1223.62 -117.753" stroke="#DFDFE0" stroke-width="0.6" stroke-miterlimit="10"/>
<path opacity="0.49" d="M2109.34 748.06C2092.75 715.501 2080.89 661.659 2055.72 598.402C2040.31 559.606 2020.16 516.415 1999.69 475.574C1982.67 440.869 1962.92 407.993 1940.68 377.348C1932.56 365.893 1923.53 355.325 1913.69 345.78C1891.05 324.681 1867.74 316.379 1847.89 310.507C1842.04 308.792 1836.34 307.287 1830.78 305.991C1819.39 303.346 1807.85 301.607 1796.25 300.787C1791.66 300.463 1786.39 300.079 1780.65 299.532C1770.51 298.56 1758.79 296.191 1747.55 286.876C1735.11 276.55 1729.5 262.214 1725.45 250.733C1723.96 246.501 1722.6 242.734 1721.5 239.494C1718.25 229.836 1715.33 222.141 1712.61 214.609C1709.89 207.076 1707.12 199.503 1704.22 191.87C1696.82 172.593 1689.33 150.441 1667.26 123.429C1653.55 106.623 1633.88 89.3303 1611.42 72.8073C1596.85 61.9914 1581.71 52.2128 1566.07 43.5277C1533.41 25.7899 1503.35 15.4226 1475.24 5.72346C1447.37 -3.87441 1420.89 -13.5533 1392.69 -29.8332C1379.05 -37.8696 1365.8 -46.731 1352.99 -56.3792C1336.3 -68.7107 1318.96 -82.581 1299.87 -93.8596C1280.79 -105.138 1259.35 -113.258 1241.78 -114.716" stroke="#DFDFE0" stroke-width="0.59" stroke-miterlimit="10"/>
<path opacity="0.46" d="M2121.52 760.392C2107.7 724.795 2098.51 668.908 2074.96 603.687C2060.74 564 2041.18 519.918 2020.81 478.449C2003.78 443.682 1984.13 409.847 1961.35 379.656C1953.06 368.209 1943.79 357.724 1933.69 348.351C1910.45 327.657 1886.37 320.428 1865.8 315.771C1859.75 314.394 1853.86 313.26 1848.12 312.329C1836.34 310.46 1824.45 309.54 1812.55 309.575C1807.84 309.575 1802.47 309.575 1796.55 309.312C1786.18 308.866 1774.27 306.882 1762.92 297.527C1750.35 287.18 1745.05 272.5 1741.42 260.573C1740.09 256.179 1738.91 252.231 1738 248.829C1735.27 238.705 1732.88 230.342 1730.71 222.182C1728.54 214.022 1726.27 205.801 1723.9 197.559C1717.86 176.683 1711.74 153.012 1690.35 124.502C1677.06 106.886 1657.55 88.905 1635.02 72.0986C1620.43 61.0866 1605.16 51.2748 1589.34 42.738C1556.33 25.1824 1525.72 15.868 1496.83 7.24203C1468.37 -1.26242 1441.11 -9.76687 1412.25 -25.2976C1398.3 -32.966 1384.76 -41.5664 1371.7 -51.0539C1354.7 -63.2032 1337.11 -76.8913 1317.92 -88.271C1298.74 -99.6508 1277.4 -108.115 1259.67 -110.241" stroke="#DFDFE0" stroke-width="0.58" stroke-miterlimit="10"/>
<path opacity="0.44" d="M2133.35 774.221C2122.3 735.566 2115.78 677.675 2093.87 610.429C2080.66 569.932 2061.86 524.899 2041.6 482.863C2024.71 447.711 2004.9 413.653 1981.66 383.503C1973.22 372.049 1963.74 361.643 1953.38 352.461C1929.51 332.213 1904.69 326.138 1883.46 322.554C1877.22 321.542 1871.14 320.759 1865.21 320.205C1853.02 319.12 1840.78 319.025 1828.58 319.922C1823.77 320.266 1818.26 320.57 1812.29 320.63C1801.62 320.63 1789.59 319.112 1778.12 309.737C1765.43 299.349 1760.34 284.324 1757.21 271.952C1756.04 267.397 1755.06 263.286 1754.33 259.702C1752.14 248.99 1750.29 240.081 1748.62 231.354C1746.95 222.627 1745.22 213.717 1743.39 204.828C1738.68 182.352 1733.97 156.96 1713.16 127.174C1700.37 108.627 1681.01 89.9776 1658.41 72.8877C1643.79 61.6692 1628.41 51.8099 1612.4 43.4056C1578.93 26.174 1547.74 17.8315 1518.15 10.2787C1489.04 2.90822 1461.01 -4.46229 1431.56 -19.2438C1417.31 -26.54 1403.49 -34.8726 1390.18 -44.1902C1372.86 -56.0762 1355.04 -69.7036 1335.73 -81.1846C1316.41 -92.6656 1295.09 -101.433 1277.24 -104.268" stroke="#DFDFE0" stroke-width="0.58" stroke-miterlimit="10"/>
<path opacity="0.41" d="M2144.77 789.671C2136.48 747.979 2132.6 688.043 2112.35 618.813C2100.2 577.364 2082.11 531.521 2061.95 488.776C2045.21 453.24 2025.24 418.959 2001.48 388.849C1992.87 377.4 1983.17 367.077 1972.55 358.071C1948.08 338.207 1922.49 333.124 1900.6 330.857C1894.16 330.188 1887.9 329.763 1881.78 329.601C1869.19 329.262 1856.6 329.986 1844.1 331.768C1839.19 332.436 1833.56 333.104 1827.47 333.448C1816.64 334.076 1804.36 332.861 1792.78 323.446C1779.96 313.017 1775.21 297.649 1772.45 284.831C1771.46 280.113 1770.67 275.821 1770.09 272.095C1768.45 260.837 1767.13 251.32 1765.98 241.924C1764.82 232.529 1763.63 223.032 1762.32 213.576C1758.97 189.521 1755.63 162.489 1735.55 131.326C1723.1 112.049 1703.9 92.7118 1681.29 75.3384C1666.63 63.9452 1651.11 54.0587 1634.91 45.7956C1601.02 28.8474 1569.28 21.4971 1539.03 15.0176C1509.31 8.57848 1480.57 2.44312 1450.45 -11.5487C1435.88 -18.4742 1421.77 -26.553 1408.19 -35.7257C1390.57 -47.3889 1372.52 -60.8745 1353.07 -72.4568C1333.61 -84.039 1312.34 -93.1914 1294.38 -96.7552" stroke="#DFDFE0" stroke-width="0.57" stroke-miterlimit="10"/>
<path opacity="0.39" d="M2155.65 806.781C2150.14 762.032 2148.89 700.071 2130.29 628.836C2119.23 586.516 2101.84 539.742 2081.78 496.43C2065.18 460.529 2045.07 426.106 2020.92 395.976C2012.13 384.536 2002.21 374.296 1991.35 365.461C1966.26 346.002 1939.9 342.013 1917.35 340.94C1910.74 340.616 1904.28 340.555 1897.99 340.758C1884.99 341.205 1872.05 342.748 1859.25 345.374C1854.24 346.387 1848.46 347.399 1842.29 348.047C1831.21 349.201 1818.72 348.371 1807.06 338.935C1794.09 328.487 1789.63 312.754 1787.32 299.491C1786.47 294.631 1785.84 290.136 1785.54 286.248C1784.44 274.463 1783.64 264.359 1783.02 254.336C1782.39 244.313 1781.7 234.088 1780.93 223.963C1778.93 198.288 1776.97 169.656 1757.55 137.076C1745.56 116.969 1726.48 96.9837 1703.83 79.3066C1689.13 67.7293 1673.48 57.8079 1657.09 49.6828C1622.79 33.0181 1590.47 26.66 1559.55 21.3346C1529.12 16.0497 1499.69 11.0888 1468.85 -2.15388C1453.98 -8.67753 1439.56 -16.4613 1425.71 -25.4399C1407.77 -36.8601 1389.49 -50.2445 1369.94 -61.8875C1350.4 -73.5305 1329.04 -83.0676 1310.97 -87.1984" stroke="#DFDFE0" stroke-width="0.57" stroke-miterlimit="10"/>
<path opacity="0.37" d="M2165.91 825.835C2163.15 778.028 2164.52 714.042 2147.61 640.823C2137.63 597.632 2120.93 550.008 2101 506.007C2084.53 469.681 2064.28 434.955 2039.66 404.926C2030.71 393.476 2020.56 383.317 2009.43 374.674C1983.72 355.64 1956.62 352.725 1933.43 352.826C1926.62 352.826 1919.97 353.13 1913.47 353.737C1900.08 354.961 1886.78 357.33 1873.69 360.824C1868.57 362.16 1862.67 363.537 1856.39 364.469C1845.08 366.17 1832.4 365.704 1820.63 356.248C1807.54 345.759 1803.36 329.682 1801.47 315.973C1800.84 311.418 1800.41 306.829 1800.18 302.224C1799.61 289.933 1799.34 279.202 1799.23 268.571C1799.13 257.94 1798.97 247.128 1798.72 236.376C1798.06 209.101 1797.49 178.849 1778.75 144.892C1767.19 123.955 1748.23 103.281 1725.54 85.3407C1710.82 73.5456 1695.04 63.5612 1678.47 55.5549C1643.75 39.1535 1610.89 33.8078 1579.27 29.4948C1548.2 25.2629 1518.04 21.3954 1486.55 9.00317C1471.39 2.82938 1456.7 -4.72067 1442.6 -13.5741C1424.36 -24.7109 1405.88 -37.9738 1386.16 -49.7383C1366.44 -61.5027 1345.26 -71.3841 1326.98 -76.183" stroke="#DFDFE0" stroke-width="0.56" stroke-miterlimit="10"/>
<path opacity="0.34" d="M2175.25 846.752C2175.25 795.908 2179.21 729.857 2164.01 654.673C2155.12 610.572 2139.11 562.096 2119.26 517.448C2102.99 480.778 2082.54 445.788 2057.48 415.82C2047.97 404.379 2037.76 393.688 2026.63 385.811C2000.29 367.182 1972.43 365.34 1948.58 366.656C1941.57 367.047 1934.73 367.722 1928.06 368.681C1914.23 370.677 1900.56 373.872 1887.15 378.238C1881.34 380.132 1875.45 381.679 1869.5 382.875C1857.97 385.082 1845.1 385.022 1833.22 375.525C1820 364.996 1816.09 348.594 1814.65 334.42C1814.16 329.715 1813.9 324.983 1813.87 320.246C1813.87 307.429 1814.12 296.089 1814.53 284.831C1814.94 273.573 1815.31 262.132 1815.59 250.753C1816.27 221.898 1817.07 190.006 1799 154.673C1787.87 132.905 1769.07 111.563 1746.35 93.319C1731.58 81.3563 1715.66 71.356 1698.9 63.513C1663.76 47.314 1630.33 43.0213 1598.03 39.8018C1566.32 36.643 1535.42 34.0714 1503.26 22.3474C1487.82 16.5382 1472.83 9.24259 1458.47 0.539563C1439.92 -10.4352 1421.12 -23.5766 1401.38 -35.4221C1381.64 -47.2676 1360.43 -57.6349 1342.02 -63.1021" stroke="#DFDFE0" stroke-width="0.56" stroke-miterlimit="10"/>
<path opacity="0.32" d="M2182.22 869.674C2184.99 815.792 2191.54 747.716 2178.04 670.528C2170.16 625.556 2154.92 576.19 2135.18 530.934C2119.02 493.818 2098.46 458.646 2072.94 428.718C2063.25 417.298 2052.84 406.668 2041.44 398.973C2014.48 380.749 1985.85 380 1961.42 382.511C1954.31 383.24 1947.19 384.272 1940.35 385.568C1926.13 388.35 1912.12 392.365 1898.45 397.576C1892.55 399.841 1886.55 401.721 1880.47 403.205C1868.71 405.959 1855.57 406.263 1843.64 396.746C1830.32 386.176 1826.67 369.43 1825.68 354.811C1825.34 349.907 1825.25 344.985 1825.43 340.07C1825.96 326.726 1826.74 314.779 1827.67 302.893C1828.59 291.007 1829.45 278.939 1830.3 266.911C1832.33 236.538 1834.52 202.946 1817.11 166.235C1806.44 143.637 1787.75 121.688 1764.98 103.079C1750.15 90.9218 1734.07 80.8843 1717.09 73.1919C1681.53 57.3575 1647.54 53.9759 1614.57 51.8498C1582.22 49.825 1550.55 48.3671 1517.76 37.3923C1502.03 31.9551 1486.76 24.9278 1472.13 16.3944C1453.28 5.64234 1434.34 -7.37757 1414.38 -19.3648C1394.43 -31.352 1373.27 -41.9016 1354.72 -48.0369" stroke="#DFDFE0" stroke-width="0.55" stroke-miterlimit="10"/>
<path opacity="0.29" d="M2187.8 894.741C2193.33 837.822 2202.44 767.681 2190.68 688.529C2183.85 642.645 2169.34 592.429 2149.78 546.525C2133.78 509.024 2113.04 473.629 2087.08 443.742C2077.22 432.342 2066.59 421.793 2054.92 414.26C2027.36 396.462 1998.02 396.786 1972.82 400.491C1965.44 401.558 1958.23 402.908 1951.18 404.541C1936.55 408.07 1922.19 412.904 1908.23 418.998C1902.24 421.623 1896.12 423.827 1889.89 425.6C1877.93 428.9 1864.64 429.649 1852.55 420.031C1839.09 409.421 1835.73 392.331 1835.16 377.266C1834.97 372.182 1835.06 367.089 1835.44 362.019C1836.53 348.148 1837.84 335.594 1839.26 323.08C1840.69 310.567 1842.15 297.871 1843.48 285.215C1846.86 253.162 1850.4 218.03 1833.68 179.922C1823.4 156.515 1804.89 133.816 1782.11 114.985C1767.28 102.647 1751.09 92.572 1733.97 85.0167C1697.99 69.4657 1663.44 67.0764 1629.78 66.0235C1596.79 65.011 1564.42 64.8085 1530.94 54.5829C1514.92 49.5113 1499.35 42.7318 1484.45 34.3343C1465.28 23.8049 1446.04 10.9268 1426.03 -1.14143C1406.02 -13.2096 1384.81 -24.1034 1366.14 -30.9272" stroke="#DFDFE0" stroke-width="0.54" stroke-miterlimit="10"/>
<path opacity="0.27" d="M2192.09 922.037C2200.37 862.06 2212.04 789.853 2202.01 708.737C2196.23 661.963 2182.45 610.895 2162.89 564.344C2146.99 526.458 2126.13 490.841 2099.7 461.075C2089.69 449.716 2078.86 439.207 2066.93 431.857C2038.74 414.463 2008.6 415.86 1982.78 420.76C1975.2 422.191 1967.8 423.939 1960.57 426.005C1945.53 430.318 1930.82 435.971 1916.57 442.912C1910.51 445.865 1904.29 448.368 1897.95 450.404C1885.75 454.231 1872.29 455.284 1860.07 445.707C1846.48 435.076 1843.39 417.622 1843.28 402.111C1843.24 396.852 1843.51 391.596 1844.08 386.378C1845.7 372.001 1847.64 358.82 1849.42 345.698C1851.2 332.577 1853.33 319.213 1855.2 305.93C1859.93 272.277 1864.84 235.525 1848.8 196.04C1838.94 171.742 1820.57 148.416 1797.72 129.321C1782.86 116.783 1766.54 106.657 1749.23 99.2314C1712.82 83.9639 1677.7 82.5668 1643.38 82.6073C1609.75 82.6073 1576.64 83.6602 1542.49 74.1838C1526.19 69.4942 1510.34 62.99 1495.16 54.7653C1475.77 44.4993 1456.3 31.7223 1436.11 19.5731C1416.77 7.64538 1396.69 -2.66149 1376.02 -11.2656" stroke="#DFDFE0" stroke-width="0.54" stroke-miterlimit="10"/>
<path opacity="0.24" d="M2195.06 951.641C2206.12 888.627 2220.33 814.355 2212.04 731.295C2207.29 683.589 2194.26 631.671 2174.85 584.492C2159.1 546.222 2138.1 510.381 2111.21 480.575C2101.04 469.236 2089.97 458.788 2077.79 451.599C2048.98 434.631 2018.08 437.101 1991.61 443.196C1983.85 444.992 1976.25 447.098 1968.83 449.514C1953.39 454.611 1938.33 461.097 1923.79 468.912C1917.63 472.25 1911.28 475.112 1904.78 477.477C1892.33 481.831 1878.67 483.268 1866.37 473.671C1852.65 462.979 1849.83 445.201 1850.16 429.245C1850.27 423.817 1850.71 418.404 1851.48 413.046C1853.67 398.163 1856.05 384.374 1858.49 370.625C1860.92 356.876 1863.45 342.864 1865.85 328.973C1871.93 293.72 1878.3 255.349 1862.84 214.467C1853.42 189.379 1835.21 165.344 1812.3 145.946C1797.4 133.234 1780.94 123.076 1763.45 115.795C1726.64 100.811 1690.95 100.406 1655.93 101.621C1621.67 102.735 1587.82 105.003 1553.02 96.2148C1536.44 91.9116 1520.29 85.6689 1504.83 77.586C1485.05 67.4617 1465.35 54.867 1445.11 42.6368C1425.55 30.5616 1405.36 19.8637 1384.65 10.6034" stroke="#DFDFE0" stroke-width="0.53" stroke-miterlimit="10"/>
<path opacity="0.22" d="M2196.68 983.694C2210.49 917.622 2227.23 841.265 2220.72 756.261C2216.4 704.625 2204.46 654.188 2185.42 607.068C2169.79 568.414 2148.64 532.33 2121.31 502.565C2110.96 491.246 2099.7 480.878 2087.24 473.872C2057.82 457.309 2026.17 460.873 1999.05 468.142C1991.08 470.288 1983.29 472.759 1975.68 475.553C1959.83 481.427 1944.42 488.733 1929.59 497.401C1923.34 501.096 1916.88 504.283 1910.24 506.939C1897.59 511.859 1883.72 513.661 1871.29 504.023C1857.46 493.311 1854.91 475.168 1855.68 458.767C1855.95 453.141 1856.57 447.545 1857.55 442.021C1860.27 426.612 1863.17 412.215 1866.13 397.839C1869.1 383.462 1872.13 368.822 1875.03 354.284C1882.44 317.451 1890.11 277.46 1875.42 235.181C1866.4 209.283 1848.35 184.559 1825.39 164.877C1810.46 151.972 1793.87 141.768 1776.2 134.626C1738.97 119.925 1702.72 120.452 1667.03 122.72C1632.12 124.907 1597.53 128.349 1562.11 120.33C1545.25 116.394 1528.82 110.414 1513.08 102.491C1492.97 92.6504 1473.03 80.1165 1452.62 67.785C1432.91 55.59 1412.67 44.5271 1391.99 34.6379" stroke="#DFDFE0" stroke-width="0.53" stroke-miterlimit="10"/>
<path opacity="0.2" d="M2196.87 1018.26C2213.46 949.129 2232.72 870.686 2227.99 783.738C2224.82 731.356 2213.5 680.032 2194.56 632.157C2179.07 593.117 2157.78 556.831 2129.99 527.106C2119.48 515.808 2108.01 505.481 2095.29 498.657C2065.24 482.458 2032.82 487.135 2005.06 495.62C1996.9 498.13 1988.92 500.959 1981.12 504.104C1964.86 510.749 1949.1 518.875 1933.98 528.402C1927.65 532.447 1921.07 535.965 1914.29 538.932C1901.44 544.378 1887.35 546.565 1874.81 536.907C1860.85 526.155 1858.58 507.668 1859.79 490.821C1860.22 485.013 1861.01 479.247 1862.17 473.569C1865.44 457.674 1868.87 442.649 1872.36 427.645C1875.84 412.641 1879.47 397.272 1882.87 382.207C1891.62 343.734 1900.65 302.143 1886.64 258.487C1878.05 231.739 1860.14 206.367 1837.15 186.402C1822.19 173.281 1805.46 163.022 1787.6 156.029C1749.96 141.612 1713.14 143.191 1676.78 146.492C1641.21 149.732 1605.91 154.369 1569.79 147.099C1552.66 143.536 1535.92 137.825 1519.89 130.07C1499.49 120.452 1479.31 108.04 1458.84 95.6474C1438.37 83.2552 1417.23 70.8832 1397.99 61.3866" stroke="#DFDFE0" stroke-width="0.52" stroke-miterlimit="10"/>
<path opacity="0.17" d="M2195.57 1055.44C2214.94 983.289 2236.72 902.74 2233.75 813.868C2231.73 760.788 2221.03 708.601 2202.22 659.978C2186.88 620.493 2165.43 584.046 2137.19 554.26C2126.52 542.981 2114.82 532.736 2101.84 526.074C2071.18 510.341 2038.01 516.051 2009.58 525.73C2001.28 528.591 1993.11 531.784 1985.09 535.307C1968.41 542.728 1952.29 551.673 1936.88 562.056C1930.47 566.467 1923.77 570.318 1916.85 573.577C1903.76 579.551 1889.48 582.122 1876.84 572.423C1862.76 561.63 1860.83 542.799 1862.4 525.507C1862.99 519.521 1863.97 513.593 1865.32 507.769C1869.14 491.327 1873.09 475.695 1877.09 460.063C1881.09 444.431 1885.18 428.536 1889.18 412.742C1899.28 372.71 1909.67 329.459 1896.29 284.426C1888.13 256.847 1870.37 230.787 1847.34 210.538C1832.34 197.266 1815.46 186.995 1797.44 180.165C1759.38 165.991 1721.98 168.583 1684.94 172.977C1648.73 177.29 1612.7 183.102 1575.93 176.622C1558.52 173.436 1541.5 168.001 1525.17 160.423C1504.51 150.926 1484.13 138.575 1463.52 126.101C1442.91 113.628 1421.89 100.872 1402.43 90.7068" stroke="#DFDFE0" stroke-width="0.52" stroke-miterlimit="10"/>
<path opacity="0.15" d="M2192.73 1095.37C2214.87 1020.16 2239.14 937.426 2237.97 846.712C2237.09 792.895 2227.02 739.788 2208.32 690.352C2193.1 650.523 2171.53 613.771 2142.83 584.147C2131.96 572.889 2120.06 562.704 2106.83 556.224C2075.55 540.896 2041.62 547.679 2012.58 558.553C2004.03 561.752 1995.68 565.303 1987.52 569.204C1970.44 577.415 1953.96 587.193 1938.26 598.443C1931.76 603.184 1924.94 607.36 1917.88 610.936C1904.6 617.456 1890.09 620.392 1877.34 610.673C1863.11 599.84 1861.33 580.644 1863.5 562.927C1864.26 556.765 1865.4 550.674 1866.94 544.703C1871.31 527.775 1875.83 511.515 1880.29 495.276C1884.75 479.036 1889.43 462.453 1893.97 446.031C1905.42 404.42 1917.08 359.529 1904.53 313.119C1896.78 284.771 1879.17 258.002 1856.11 237.449C1841.07 223.968 1824.06 213.636 1805.85 206.935C1767.37 193.064 1729.38 196.527 1691.7 202.115C1654.83 207.38 1618.09 214.487 1580.64 208.737C1562.97 205.921 1545.66 200.735 1529.07 193.287C1508.03 184.135 1487.38 171.965 1466.68 159.33C1445.98 146.695 1424.88 133.675 1405.37 122.882" stroke="#DFDFE0" stroke-width="0.51" stroke-miterlimit="10"/>
<path opacity="0.12" d="M2188.25 1138.11C2213.14 1059.87 2239.92 975.068 2240.55 882.39C2240.81 827.875 2231.37 773.865 2212.79 723.62C2197.69 683.406 2175.98 646.452 2146.83 616.849C2135.8 605.631 2123.71 595.507 2110.18 589.189C2078.29 574.286 2043.6 582.143 2013.86 594.231C2005.14 597.781 1996.59 601.689 1988.24 605.955C1970.74 614.947 1953.91 625.545 1937.93 637.644C1931.33 642.729 1924.41 647.231 1917.21 651.11C1903.69 658.176 1889 661.497 1876.15 651.737C1861.81 640.884 1860.35 621.364 1862.88 603.141C1863.8 596.788 1865.12 590.522 1866.85 584.39C1871.75 566.936 1876.77 550.069 1881.8 533.202C1886.83 516.334 1891.97 499.123 1897.04 482.074C1909.85 438.843 1922.95 392.331 1910.98 344.545C1903.68 315.305 1886.21 287.848 1863.09 267.093C1848.03 253.422 1830.88 243.042 1812.5 236.477C1773.61 222.89 1735.07 227.365 1696.68 234.007C1659.17 240.365 1621.7 248.647 1583.59 243.666C1565.66 241.194 1548.05 236.272 1531.15 229.006C1509.81 220.076 1488.93 208.028 1468.11 195.291C1447.28 182.555 1426.19 169.191 1406.54 157.669" stroke="#DFDFE0" stroke-width="0.5" stroke-miterlimit="10"/>
<path opacity="0.07" d="M2174.13 1232.49C2204.55 1148.15 2236.37 1059.1 2240.55 962.636C2243.03 906.777 2234.84 850.972 2216.54 799.067C2201.67 758.124 2179.73 720.684 2149.66 691.161C2138.29 679.984 2125.77 669.981 2111.74 664.028C2078.61 649.955 2042.39 659.979 2011.35 674.436C2002.25 678.675 1993.36 683.305 1984.68 688.327C1966.35 698.864 1948.82 711.109 1932.27 724.936C1925.52 730.693 1918.38 735.852 1910.93 740.366C1896.99 748.465 1881.87 752.515 1868.78 742.755C1854.2 731.821 1853.26 711.572 1856.73 692.538C1857.95 685.815 1859.63 679.208 1861.74 672.776C1867.75 654.329 1873.78 636.186 1879.86 618.104C1885.95 600.022 1892.13 581.515 1898.25 563.21C1913.74 516.8 1929.53 467.029 1918.99 416.468C1912.48 385.568 1895.37 356.835 1872.16 335.473C1856.98 321.366 1839.46 310.873 1820.65 304.614C1780.92 291.574 1741.24 298.053 1701.5 306.862C1662.69 315.366 1623.76 326.017 1584.32 322.534C1565.86 320.788 1547.67 316.393 1530.17 309.453C1508.23 300.99 1486.87 289.205 1465.81 276.266C1444.76 263.327 1423.67 249.254 1403.8 236.396" stroke="#DFDFE0" stroke-width="0.49" stroke-miterlimit="10"/>
<path opacity="0.05" d="M2164.18 1284.33C2197.37 1196.95 2231.62 1105.73 2237.67 1007.4C2241.04 952.227 2234.11 893.729 2215.54 841.366C2200.82 800.018 2178.71 762.396 2148.2 732.873C2136.66 721.736 2123.92 711.794 2109.63 706.003C2075.84 692.335 2038.92 703.432 2007.23 719.084C1997.91 723.701 1988.8 728.695 1979.9 734.068C1961.16 745.394 1943.27 758.458 1926.42 773.128C1919.57 779.254 1912.3 784.752 1904.69 789.57C1890.46 798.256 1875.2 802.67 1862.01 792.83C1847.32 781.875 1846.64 761.262 1850.54 741.783C1851.94 734.884 1853.79 728.115 1856.09 721.534C1862.63 702.581 1869.19 683.831 1875.79 665.081C1882.39 646.33 1889.11 627.216 1895.76 608.283C1912.6 560.274 1929.76 508.882 1919.89 456.944C1913.79 425.215 1896.78 395.814 1873.66 374.107C1858.52 359.885 1840.96 349.379 1822.09 343.248C1781.93 330.491 1741.69 337.983 1701.28 347.845C1661.82 357.442 1622.18 369.247 1582.13 366.554C1563.42 365.163 1544.94 361.032 1527.15 354.263C1504.88 346.022 1483.29 334.318 1462.13 321.319C1440.97 308.319 1419.93 293.862 1399.89 280.335" stroke="#DFDFE0" stroke-width="0.49" stroke-miterlimit="10"/>
<path opacity="0.02" d="M2152.32 1339.32C2188.35 1248.97 2225.04 1155.61 2232.81 1055.39C2237.2 999.266 2231.03 939.977 2212.59 887.047C2198.01 845.295 2175.76 807.43 2144.78 777.988C2133.08 766.871 2120.12 756.99 2105.66 751.381C2071.28 738.118 2033.57 750.308 2001.22 767.155C1991.73 772.096 1982.43 777.448 1973.32 783.212C1954.17 795.335 1935.94 809.225 1918.79 824.742C1911.85 831.205 1904.47 837.028 1896.72 842.156C1882.35 851.369 1866.81 856.168 1853.53 846.206C1838.7 835.19 1838.32 814.233 1842.63 794.329C1844.2 787.277 1846.22 780.367 1848.69 773.655C1855.8 754.175 1862.92 734.818 1870.03 715.44L1891.58 656.719C1909.76 607.109 1928.32 554.078 1919.11 500.804C1913.46 468.224 1896.63 438.154 1873.34 416.164C1858.14 401.747 1840.41 391.198 1821.34 385.224C1780.76 372.751 1739.96 381.174 1698.86 392.19C1658.78 402.841 1618.39 415.84 1577.62 413.896C1558.64 412.86 1539.87 408.993 1521.78 402.395C1499.21 394.296 1477.32 382.794 1456.1 369.693C1434.89 356.593 1413.8 341.811 1393.59 327.596" stroke="#DFDFE0" stroke-width="0.48" stroke-miterlimit="10"/>
<g opacity="0.2">
<path d="M-580 12.1554C-562.915 -2.53688 -537.68 -1.68925 -518.382 9.09448C-499.084 19.8782 -484.501 38.9263 -472.629 58.8221C-442.14 109.939 -425.055 168.99 -400.979 223.992C-376.902 278.994 -342.691 332.748 -291.663 357.494C-211.967 396.108 -121.267 353.444 -39.6472 320.01C-18.2805 311.251 4.40998 302.986 26.9143 306.942C55.7687 312.004 79.1004 336.703 92.5245 365.028C105.948 393.353 111.14 425.328 116.808 456.619C135.01 557.393 161.341 660.639 222.876 738.291C284.411 815.944 419.996 886.627 568.922 823.973" stroke="#737373" stroke-width="0.71" stroke-miterlimit="10"/>
<path opacity="0.98" d="M566.543 829.788C482.959 862.752 403.904 851.215 339.948 820.253C294.319 798.144 256.488 766.216 230.922 733.135C207.672 702.637 188.187 668.669 173.007 632.173C167.049 618.046 161.589 603.919 156.459 589.415C144.818 555.597 135.009 520.999 127.088 485.816C124.757 475.644 122.53 465.496 120.407 455.371C115.939 434.063 111.719 412.496 104.707 392.129C101.876 383.717 98.4589 375.576 94.4894 367.783C87.5869 354.43 78.7631 342.491 68.386 332.465C56.7822 321.305 43.5651 312.876 28.9621 309.721C23.4038 308.561 17.752 308.088 12.1045 308.308C-3.96709 308.896 -19.9146 314.382 -35.1588 320.08C-50.403 325.778 -65.8541 331.853 -81.5533 337.669C-121.494 352.337 -162.635 364.981 -203.466 365.146C-229.913 365.71 -256.167 359.917 -280.514 348.146C-296.664 340 -311.687 329.221 -325.109 316.148C-353.467 288.954 -375.123 253.353 -392.209 217.282C-409.583 180.834 -423.628 142.596 -440.878 105.842C-448.773 88.7975 -457.594 72.3308 -467.292 56.5382C-479.516 36.925 -494.181 18.0182 -513.728 7.09317C-533.274 -3.83184 -558.447 -5.05619 -575.78 8.85906" stroke="#737373" stroke-width="0.71" stroke-miterlimit="10"/>
<path opacity="0.97" d="M566.047 834.78C485.668 864.211 409.861 849.896 347.663 817.003C303.42 793.576 266.292 760.918 240.83 727.084C217.754 696.077 198.141 661.935 182.438 625.439C176.233 611.453 170.586 597.185 165.229 583.057C152.977 550.322 142.377 516.818 133.479 482.708C130.914 472.944 128.467 463.22 126.136 453.535C121.213 433.121 116.559 412.519 109.237 393.141C106.264 385.089 102.707 377.332 98.6056 369.949C91.2816 357.048 82.2697 345.495 71.8817 335.691C60.1538 324.507 47.2262 315.63 33.1403 311.981C27.8104 310.629 22.3637 309.965 16.9032 310.003C1.45217 310.003 -13.8748 314.712 -28.6019 319.798C-43.329 324.884 -58.0975 330.134 -73.1763 335.173C-111.545 348.005 -151.073 358.718 -191.076 357.305C-235.623 356.648 -278.602 338.491 -312.74 305.906C-341.47 279.041 -363.789 244.688 -381.742 209.794C-399.779 174.524 -414.672 137.652 -432.708 101.792C-441.009 85.1062 -450.153 68.982 -460.094 53.5009C-472.691 34.1467 -487.645 15.3811 -507.295 4.36191C-526.945 -6.65727 -552.138 -8.30544 -569.534 4.83282" stroke="#737373" stroke-width="0.7" stroke-miterlimit="10"/>
<path opacity="0.95" d="M567.308 838.994C490.136 864.894 417.576 847.824 357.137 813.095C314.259 788.396 277.916 754.867 252.475 720.373C229.61 688.836 209.856 654.537 193.567 618.093C187.196 604.13 181.259 589.956 175.592 575.947C162.743 544.193 151.344 511.704 141.442 478.611C138.685 469.193 136.023 459.884 133.458 450.686C128.06 431.214 122.93 411.577 115.318 393.165C112.191 385.481 108.503 378.109 104.294 371.127C96.5439 358.686 87.345 347.502 76.9493 337.881C65.0766 326.65 52.48 317.349 38.8905 313.229C33.7829 311.687 28.5353 310.826 23.2532 310.662C8.44337 310.074 -6.26304 314.1 -20.2869 318.409C-34.3107 322.717 -48.5621 327.285 -63.0203 331.594C-99.8175 342.566 -137.752 351.278 -177.052 348.358C-203.343 346.619 -229.127 339.371 -253.108 326.979C-269.374 318.397 -284.656 307.58 -298.613 294.769C-327.839 268.257 -350.82 234.988 -369.559 201.412C-388.361 167.46 -404.102 131.954 -422.904 96.9655C-431.572 80.5941 -440.997 64.7574 -451.138 49.5218C-464.086 30.4266 -479.33 11.8493 -499.104 0.665347C-518.878 -10.5187 -544.072 -12.4258 -561.632 -0.158743" stroke="#737373" stroke-width="0.69" stroke-miterlimit="10"/>
<path opacity="0.93" d="M570.204 842.573C496.237 864.918 426.966 845.14 368.244 808.362C326.876 782.462 291.134 748.063 265.795 712.863C243.088 680.826 223.171 646.35 206.329 609.923C199.772 595.96 193.566 581.88 187.609 568.059C173.523 535.355 161.382 504.487 151.143 473.878C148.137 464.931 145.255 456.046 142.497 447.225C136.644 428.648 131.059 410 123.116 392.553C119.846 385.227 116.034 378.232 111.719 371.645C103.527 359.709 94.1422 348.9 83.7542 339.435C71.7161 328.18 59.4711 318.456 46.378 313.817C41.497 312.106 36.4575 311.047 31.3613 310.662C17.1513 309.509 3.08609 312.805 -10.3379 316.384C-23.7619 319.963 -37.3928 323.777 -51.2512 327.356C-86.4142 336.468 -122.798 343.249 -161.332 338.775C-187.468 335.849 -212.976 327.887 -236.767 315.23C-253.031 306.467 -268.396 295.689 -282.583 283.091C-312.285 256.885 -335.989 224.816 -355.453 192.442C-374.917 160.067 -391.588 125.62 -411.176 91.5265C-420.215 75.8689 -429.792 60.2113 -440.547 45.0011C-453.847 26.1649 -469.361 7.68184 -489.279 -3.54925C-509.198 -14.7803 -534.35 -17.2761 -552.076 -5.69187" stroke="#737373" stroke-width="0.69" stroke-miterlimit="10"/>
<path opacity="0.91" d="M574.631 845.634C503.891 864.47 437.888 841.938 380.882 803.253C342.687 777.396 308.757 744.136 280.626 704.975C258.102 672.428 238.035 637.772 220.642 601.376C213.899 587.46 207.446 573.427 201.199 559.818C186.368 527.585 173.358 497.894 162.354 468.839C159.127 460.3 156.025 451.832 153.046 443.434C146.738 425.775 140.636 408.116 132.362 391.634C128.917 384.686 124.966 378.078 120.551 371.88C111.931 360.461 102.357 350.021 91.966 340.706C79.783 329.404 67.869 319.256 55.2723 314.123C50.5903 312.239 45.7312 310.982 40.7934 310.38C27.2039 308.661 13.7592 311.204 0.935075 314.076C-11.8891 316.949 -24.8995 320.01 -38.1373 322.835C-71.8111 330.111 -106.395 334.937 -144.268 328.91C-170.222 324.843 -195.466 316.225 -219.103 303.363C-235.41 294.333 -250.889 283.48 -265.311 270.965C-295.51 245.065 -319.897 214.197 -340.126 183.07C-360.355 151.944 -377.73 118.768 -398.042 85.546C-407.453 70.3122 -417.381 54.9372 -428.406 39.9388C-442.078 21.3616 -457.86 3.01984 -477.903 -8.32898C-497.946 -19.6778 -523.098 -22.4561 -540.969 -11.7666" stroke="#737373" stroke-width="0.68" stroke-miterlimit="10"/>
<path opacity="0.9" d="M580.505 848.271C512.992 863.552 450.195 838.359 394.968 797.602C357.686 770.188 324.566 736.057 296.905 696.546C274.538 663.494 254.304 628.643 236.362 592.264C229.412 578.372 222.731 564.433 216.154 551.012C200.62 519.273 186.741 490.831 174.971 463.165C171.524 455.034 168.194 446.989 164.981 439.031C158.217 422.267 151.743 405.573 143.18 390.057C139.582 383.474 135.5 377.252 130.976 371.456C121.931 360.569 112.168 350.485 101.77 341.295C89.3598 329.946 77.8801 319.374 65.7799 313.747C61.345 311.701 56.7145 310.255 51.9835 309.438C39.0145 307.083 26.1904 308.943 13.966 311.063C1.7417 313.182 -10.6481 315.536 -23.2654 317.655C-55.3466 323.047 -88.4205 325.967 -125.445 318.362C-151.182 313.119 -176.153 303.823 -199.639 290.743C-215.997 281.519 -231.611 270.678 -246.303 258.345C-275.081 233.958 -300.886 205.328 -323.041 173.205C-344.18 142.973 -362.361 111.493 -383.48 79.1652C-393.263 64.3317 -403.523 49.2627 -414.837 34.4292C-428.861 16.111 -444.912 -2.08951 -465.1 -13.5325C-485.287 -24.9755 -510.398 -28.2954 -528.455 -18.2416" stroke="#737373" stroke-width="0.68" stroke-miterlimit="10"/>
<path opacity="0.88" d="M587.703 850.602C523.396 862.375 463.97 834.474 410.378 791.739C374.045 762.772 341.729 727.772 314.507 687.905C292.314 654.347 271.911 619.303 253.406 582.963C246.27 569.095 239.34 555.227 232.473 542.018C216.216 510.75 201.447 483.555 188.913 457.255C185.231 449.532 181.687 441.904 178.281 434.369C171.062 418.523 164.133 402.818 155.239 388.267C151.475 382.054 147.262 376.21 142.642 370.797C134.555 361.379 124.13 351.961 112.816 341.695C100.405 330.299 89.1322 319.303 77.5077 313.182C73.302 310.954 68.8792 309.303 64.3319 308.261C51.9214 305.388 39.7798 306.448 28.1553 307.86C16.5308 309.273 4.76151 310.874 -7.25598 312.24C-37.7858 315.795 -69.3084 316.761 -105.485 307.531C-131.019 301.139 -155.764 291.19 -179.162 277.911C-195.549 268.416 -211.274 257.506 -226.198 245.277C-255.21 221.501 -281.601 193.832 -304.797 162.869C-326.702 134.049 -345.669 103.864 -367.615 72.4784C-377.73 57.998 -388.299 43.2823 -399.965 28.7077C-414.444 10.6485 -430.681 -7.4107 -450.993 -18.9714C-471.305 -30.5321 -496.498 -34.2523 -514.617 -25.0226" stroke="#737373" stroke-width="0.67" stroke-miterlimit="10"/>
<path opacity="0.86" d="M596.101 852.745C535.02 860.939 478.904 830.448 427.008 785.641C391.649 755.126 360.123 719.248 333.309 679.004C311.052 645.052 290.782 609.169 271.752 573.404C264.41 559.583 257.274 545.762 250.055 532.765C233.094 501.967 217.436 476.044 204.136 451.157C200.247 443.842 196.483 436.637 192.842 429.542C185.169 414.591 177.784 399.875 168.58 386.29C164.661 380.444 160.316 374.986 155.59 369.973C147.317 361.143 136.582 352.267 125.143 341.883C112.547 330.44 101.646 319.021 90.518 312.405C86.5378 310.018 82.3234 308.177 77.9627 306.919C66.2348 303.434 54.6517 303.811 43.627 304.564C32.6024 305.317 21.4537 306.094 10.0567 306.754C-18.9011 308.449 -48.7277 307.484 -84.2217 296.747C-109.47 289.134 -133.932 278.479 -157.195 264.961C-173.634 255.265 -189.485 244.331 -204.645 232.233C-233.965 209.051 -261.01 182.346 -285.313 152.579C-308.066 125.008 -327.757 96.0707 -350.509 65.6738C-360.976 51.5466 -371.938 37.184 -383.832 22.8214C-398.579 5.04471 -415.189 -12.8732 -435.542 -24.5517C-455.895 -36.2301 -481.047 -40.3506 -499.456 -31.8978" stroke="#737373" stroke-width="0.67" stroke-miterlimit="10"/>
<path opacity="0.85" d="M605.636 854.817C547.721 859.526 494.935 826.351 444.734 779.472C410.401 747.416 379.667 710.668 353.228 670.057C331.096 635.634 310.701 599.539 291.072 563.797C283.543 550 276.117 536.25 268.629 523.464C250.944 493.162 234.397 468.463 220.353 444.964C216.216 438.074 212.231 431.285 208.397 424.598C200.655 410.543 192.144 397.056 182.914 384.218C178.816 378.765 174.341 373.694 169.532 369.055C160.927 360.814 150.026 352.408 138.505 341.978C125.743 330.511 115.194 318.668 104.563 311.533C100.79 309.011 96.7797 306.981 92.6073 305.482C81.4999 301.409 70.5579 301.056 60.1331 300.985C49.7083 300.915 39.1594 300.985 28.3829 300.985C-2.24531 301.261 -32.7229 296.081 -61.9448 285.634C-86.9205 276.845 -111.15 265.513 -134.339 251.776C-150.813 241.847 -166.791 230.889 -182.202 218.953C-211.769 196.313 -239.401 170.559 -264.732 142.031C-288.167 115.708 -308.769 88.2302 -332.225 58.6102C-343.084 44.954 -354.377 30.8268 -366.54 16.6761C-381.66 -0.841559 -398.538 -18.6418 -419.119 -30.4144C-439.699 -42.187 -464.769 -46.7313 -483.24 -39.0555" stroke="#737373" stroke-width="0.66" stroke-miterlimit="10"/>
<path opacity="0.83" d="M616.144 856.889C561.496 857.995 511.999 822.301 463.453 773.35C430.191 739.754 400.249 702.125 374.16 661.134C352.214 626.239 331.612 589.909 311.466 554.214C303.73 540.44 296.056 526.784 288.279 514.188C269.87 484.379 252.433 460.952 237.624 438.843C233.28 432.376 229.074 426.011 225.006 419.747C216.814 406.612 207.895 394.084 198.303 382.24C194.048 377.122 189.442 372.398 184.527 368.113C175.675 360.46 164.526 352.526 152.839 342.072C139.932 330.534 129.735 318.291 119.6 310.662C116.04 307.981 112.232 305.754 108.244 304.022C97.7368 299.313 87.4361 298.301 77.6111 297.5C67.7861 296.7 57.8577 296.088 47.7017 295.146C18.1716 293.066 -10.934 286.094 -38.6959 274.45C-63.3376 264.451 -87.3111 252.435 -110.429 238.496C-127.1 228.395 -143.254 217.046 -158.685 205.533C-188.537 183.409 -216.785 158.599 -243.159 131.342C-267.338 106.525 -288.788 80.3896 -313.092 51.6643C-324.303 38.4084 -335.844 24.5873 -348.379 10.672C-363.851 -6.58664 -381.019 -24.1985 -401.723 -36.1359C-422.428 -48.0734 -447.497 -52.9708 -466.175 -46.0721" stroke="#737373" stroke-width="0.65" stroke-miterlimit="10"/>
<path opacity="0.81" d="M627.52 859.173C576.078 856.818 529.891 818.487 483.041 767.346C450.863 732.261 421.697 693.763 395.94 652.375C374.18 617.057 353.372 580.42 332.709 544.773C324.766 531.022 316.844 517.437 308.756 505.052C289.624 475.691 271.339 453.511 255.764 432.792C251.186 426.717 246.759 420.776 242.484 414.968C233.829 402.755 224.503 391.179 214.561 380.309C210.118 375.615 205.375 371.302 200.372 367.406C191.27 360.343 179.874 352.903 168.063 342.401C155.032 330.841 145.166 318.173 135.506 310.027C132.195 307.224 128.639 304.818 124.895 302.845C115.735 298.367 106.036 295.478 96.1234 294.275C86.9603 292.768 77.5077 291.402 68.0344 289.848C43.7719 285.987 18.8268 279.253 -14.4127 263.807C-38.7108 252.616 -62.4505 239.914 -85.5247 225.758C-102.238 215.469 -118.619 204.073 -134.195 192.795C-164.361 171.141 -193.25 147.262 -220.675 121.311C-245.62 97.5541 -267.918 72.7374 -293.069 44.9069C-304.632 32.0512 -316.608 18.5362 -329.349 4.87994C-345.173 -12.1197 -362.61 -29.6139 -383.459 -41.622C-404.309 -53.63 -429.254 -59.0219 -448.056 -52.9237" stroke="#737373" stroke-width="0.65" stroke-miterlimit="10"/>
<path opacity="0.8" d="M639.765 861.951C591.53 855.971 548.755 815.19 503.498 761.954C472.484 725.383 444.123 686.012 418.693 644.228C397.119 608.392 376.125 571.567 354.903 535.92C346.795 522.217 338.624 508.701 330.227 496.505C310.39 467.639 291.196 446.707 274.876 427.376L260.914 410.894C251.803 399.597 242.069 388.972 231.77 379.085C227.148 374.791 222.276 370.858 217.188 367.312C207.818 360.837 196.214 353.868 184.279 343.343C171.083 331.735 161.527 318.644 152.405 310.003C149.259 307.038 145.872 304.421 142.29 302.186C133.818 297.211 124.763 293.643 115.401 291.591C106.858 289.236 98.0884 287.235 89.1529 284.974C66.4003 279.229 43.1306 270.588 10.6565 253.541C-9.88287 242.781 -34.166 229.619 -59.8351 213.514C-76.5892 202.99 -93.0331 191.547 -108.919 180.386C-139.372 159.219 -168.851 136.287 -197.24 111.681C-222.95 89.1955 -246.075 65.7444 -271.91 38.8086C-283.865 26.3532 -296.172 13.1443 -309.141 -0.347141C-325.316 -17.0878 -343.022 -34.4642 -364.016 -46.5665C-385.011 -58.6688 -410.225 -64.6022 -429.233 -59.2574" stroke="#737373" stroke-width="0.64" stroke-miterlimit="10"/>
<path opacity="0.78" d="M652.651 865.365C607.643 855.829 568.032 812.553 524.596 757.057C494.679 719.025 467.038 678.751 441.859 636.505C420.451 600.222 399.27 563.138 377.531 527.585C369.258 513.905 360.798 500.461 352.11 488.453C331.53 460.198 311.466 440.397 294.381 422.526L279.778 407.221C270.203 396.856 260.061 387.191 249.414 378.284C244.62 374.394 239.619 370.848 234.438 367.665C224.8 361.755 212.948 355.281 200.889 344.709C187.547 333.077 178.364 319.586 169.697 310.427C166.755 307.313 163.578 304.5 160.203 302.021C152.415 296.555 144.018 292.302 135.237 289.377C127.274 286.411 119.124 283.562 110.809 280.548C89.6907 272.966 67.993 262.418 36.3463 243.794C16.324 232.021 -7.81441 218.106 -33.5455 201.601C-50.2997 190.864 -66.909 179.374 -83.0219 168.355C-117.089 145.092 -146.812 123.619 -173.288 102.428C-199.763 81.2372 -223.716 59.1047 -250.336 33.0636C-262.643 21.0084 -275.281 8.10562 -288.602 -5.17391C-305.149 -21.6556 -323.124 -38.8672 -344.242 -51.1107C-365.361 -63.3543 -390.533 -69.5231 -409.707 -64.9789" stroke="#737373" stroke-width="0.64" stroke-miterlimit="10"/>
<path opacity="0.76" d="M666.096 869.509C624.314 856.442 587.992 810.646 546.272 753.054C517.538 713.585 490.653 672.418 465.728 629.724C444.527 592.97 423.14 555.627 400.884 520.145C392.362 506.465 383.695 493.091 374.697 481.318C353.413 453.417 332.46 434.981 314.713 418.429C309.473 413.579 304.385 408.87 299.449 404.302C289.38 394.918 278.796 386.275 267.76 378.426C262.786 374.969 257.648 371.825 252.371 369.007C242.484 363.71 230.405 357.706 218.222 347.11C204.736 335.338 195.904 321.517 187.713 311.792C184.959 308.543 181.993 305.537 178.839 302.798C171.648 296.842 163.839 291.915 155.59 288.129C148.227 284.433 140.698 280.854 133.003 277.11C113.436 267.692 93.3724 255.19 62.3875 234.988C42.8824 222.25 18.9508 207.558 -6.88366 190.699C-23.6585 179.751 -40.4127 168.237 -56.7532 157.383C-91.3164 134.426 -121.701 114.177 -148.963 94.1636C-176.466 73.8487 -202.974 51.8404 -228.37 28.2368C-241.049 16.6055 -254.018 3.98522 -267.669 -9.08241C-284.527 -25.3757 -302.791 -42.446 -323.951 -54.8073C-345.111 -67.1686 -370.263 -73.6435 -389.582 -69.9469" stroke="#737373" stroke-width="0.63" stroke-miterlimit="10"/>
<path opacity="0.74" d="M680.016 874.524C641.44 857.901 608.408 809.681 568.322 749.852C542.322 710.979 514.336 666.831 489.97 623.72C468.934 586.495 447.382 548.94 424.567 513.481C416.233 500.088 407.256 487.229 397.678 474.961C375.67 447.531 353.848 430.366 335.232 415.203C329.716 410.745 324.407 406.484 319.305 402.418C308.809 393.885 297.845 386.122 286.48 379.179C281.846 376.448 276.655 373.622 270.718 370.867C260.542 366.158 248.255 360.602 235.928 349.983C222.317 338.21 213.816 323.942 206.122 313.747C203.547 310.361 200.783 307.168 197.848 304.187C191.269 297.742 184.091 292.136 176.44 287.47C169.697 283.02 162.768 278.711 155.756 274.238C137.761 262.936 119.31 248.573 89.0908 226.77C70.1027 213.044 46.2746 197.598 20.4401 180.41C3.62388 169.226 -13.2751 157.665 -29.8431 146.976C-64.9027 124.349 -95.9289 105.3 -123.977 86.4642C-152.308 67.5511 -179.618 46.7233 -205.762 24.0928C-218.813 12.8382 -232.113 0.547571 -246.013 -12.3081C-263.264 -28.2483 -281.797 -45.2715 -303.184 -57.6563C-324.572 -70.0411 -349.517 -77.0812 -369.022 -74.138" stroke="#737373" stroke-width="0.63" stroke-miterlimit="10"/>
<path opacity="0.73" d="M694.288 880.528C658.939 860.374 629.154 809.704 590.868 747.639C566.254 707.612 538.971 662.546 514.709 618.705C493.859 581.033 472.099 543.219 448.788 507.807C440.264 494.432 431.021 481.669 421.113 469.593C398.36 442.657 375.608 426.74 356.309 412.966C350.628 408.917 345.112 405.071 339.762 401.429C328.807 393.821 317.435 387.018 305.716 381.063C300.959 378.708 295.622 376.354 289.541 373.881C279.199 369.737 266.602 364.675 254.15 354.033C240.375 342.26 232.225 327.544 225.027 316.831C222.637 313.289 220.075 309.901 217.353 306.683C211.363 299.731 204.819 293.425 197.807 287.847C191.602 282.691 185.396 277.628 178.881 272.425C162.458 259.287 145.641 242.993 116.187 219.589C97.6955 204.921 74.0329 188.674 48.1363 171.157C31.2994 159.784 14.235 148.176 -2.56056 137.628C-38.0959 115.307 -69.784 97.4364 -98.6178 79.8952C-127.776 62.3956 -155.891 42.7322 -182.782 21.032C-196.185 10.2012 -209.836 -1.80691 -224.005 -14.4507C-241.628 -30.1083 -260.43 -46.9196 -281.921 -59.4928C-303.412 -72.066 -328.419 -79.365 -348.069 -77.1518" stroke="#737373" stroke-width="0.62" stroke-miterlimit="10"/>
<path opacity="0.71" d="M708.829 887.639C676.665 863.929 650.128 810.858 613.682 746.509C590.433 705.516 563.895 659.391 539.736 614.82C519.222 576.366 497.013 539.117 473.195 503.215C464.482 489.866 454.987 477.201 444.775 465.308C421.34 438.843 397.74 424.174 377.614 411.813C371.698 408.155 365.948 404.726 360.363 401.523C348.991 394.824 337.244 388.98 325.2 384.029C320.319 382.075 314.858 380.027 308.653 377.978C297.939 374.446 285.197 369.855 272.642 359.142C258.721 347.369 250.903 332.206 244.201 320.975C241.678 316.761 239.278 313.229 237.148 310.238C231.711 302.814 225.792 295.865 219.442 289.448C213.878 283.538 208.19 277.675 202.357 271.813C187.361 256.861 172.179 238.684 143.511 213.609C125.536 197.951 102.018 180.951 76.0805 163.081C59.2022 151.496 42.0137 139.841 24.97 129.458C-11.0825 107.655 -43.4325 90.8202 -73.0522 74.5504C-103.009 58.4472 -131.922 39.9411 -159.574 19.1719C-173.37 8.76492 -187.332 -3.00771 -201.79 -15.369C-219.786 -30.7911 -238.856 -47.4612 -260.513 -60.105C-282.169 -72.7488 -307.093 -80.7071 -326.888 -79.1766" stroke="#737373" stroke-width="0.61" stroke-miterlimit="10"/>
<path opacity="0.69" d="M723.494 895.974C694.536 868.732 671.225 813.26 636.497 746.626C614.592 704.598 588.799 657.437 564.743 612.136C544.428 573.215 522.048 535.74 497.727 499.919C488.842 486.554 479.093 473.961 468.562 462.247C444.403 436.347 419.934 422.855 399.043 411.86C392.893 408.72 386.922 405.715 381.13 402.842C369.256 397.055 357.061 392.163 344.623 388.197C339.638 386.643 333.991 384.995 327.682 383.299C316.699 380.38 303.73 376.236 291.03 365.523C276.986 353.75 269.498 338.14 263.272 326.391C260.955 321.988 258.763 318.267 256.839 315.065C251.946 307.121 246.656 299.503 240.995 292.25C236.031 285.61 230.963 279.065 225.73 272.425C212.43 255.543 198.841 235.482 170.917 208.853C153.46 192.23 130.107 174.429 104.107 156.252C87.2085 144.48 69.8545 132.707 52.6039 122.512C16.0964 100.85 -16.9155 85.3106 -47.3212 70.2652C-77.7269 55.2197 -105.733 40.0095 -136.263 18.4656C-150.37 8.45882 -164.683 -3.00771 -179.431 -15.1571C-197.778 -30.2967 -217.117 -46.8255 -238.918 -59.5163C-260.72 -72.2072 -285.603 -80.7071 -305.563 -79.9536" stroke="#737373" stroke-width="0.61" stroke-miterlimit="10"/>
<path opacity="0.68" d="M738.201 905.651C712.47 874.878 692.344 817.003 659.415 748.086C638.855 705.022 613.91 656.848 589.854 610.817C569.7 571.42 547.126 533.693 522.3 497.918C513.231 484.587 503.228 472.114 492.39 460.622C467.569 435.123 442.148 422.95 420.492 413.367C414.135 410.541 407.93 407.951 401.876 405.597C389.554 400.711 376.957 396.778 364.169 393.824C359.06 392.647 353.248 391.47 346.815 390.057C335.563 387.702 322.387 384.053 309.584 373.293C295.374 361.379 288.217 345.486 282.508 333.266C280.44 328.698 278.371 324.766 276.696 321.493C271.649 311.463 267.016 303.952 262.672 296.629C258.328 289.307 253.861 281.984 249.248 274.591C237.52 255.872 225.565 233.905 198.386 205.698C181.425 188.109 158.238 169.532 132.197 151.025C115.256 138.994 97.7574 127.268 80.2793 117.167C43.2754 95.8353 9.62224 81.4727 -21.5901 67.7223C-52.8025 53.9718 -81.5741 40.0801 -112.849 19.3603C-127.327 9.73028 -142.013 -1.35954 -157.051 -13.3441C-175.666 -28.2247 -195.378 -44.6122 -217.304 -57.515C-239.229 -70.4178 -263.967 -79.2708 -284.196 -79.3885" stroke="#737373" stroke-width="0.6" stroke-miterlimit="10"/>
<path opacity="0.66" d="M752.824 916.765C730.32 882.459 713.359 822.207 682.271 750.982C663.014 706.882 638.731 657.696 614.882 610.935C594.929 571.058 572.178 533.082 546.852 497.376C537.6 484.046 527.343 471.661 516.198 460.363C490.591 435.358 464.363 424.433 441.942 416.239C435.364 413.885 428.952 411.648 422.705 409.741C409.924 405.756 396.918 402.774 383.778 400.817L366.031 398.204C354.51 396.461 341.106 393.259 328.158 382.452C313.803 370.514 306.978 354.197 301.765 341.412C299.821 336.703 298.042 332.489 296.553 328.933C292.147 318.291 288.134 310.097 284.39 302.021C280.647 293.945 276.799 285.916 272.807 277.793C262.631 257.215 252.309 233.363 225.875 203.531C209.328 184.978 186.389 165.623 160.306 146.764C143.405 134.404 125.936 123.078 107.975 112.835C70.4957 91.8091 36.2014 78.6237 4.18232 66.0741C-27.4851 53.6657 -57.4151 41.0455 -89.4341 21.2204C-104.347 11.9906 -119.302 1.20689 -134.629 -10.5657C-153.679 -25.1874 -173.598 -41.4336 -195.647 -54.4306C-217.697 -67.4276 -242.621 -76.4689 -262.912 -77.3872" stroke="#737373" stroke-width="0.6" stroke-miterlimit="10"/>
<path opacity="0.64" d="M767.283 929.385C747.984 891.524 734.188 828.917 704.92 755.362C686.987 710.249 663.552 660.027 639.744 612.536C619.946 572.181 596.975 533.952 571.114 498.318C561.672 484.999 551.16 472.71 539.716 461.611C513.385 437.077 486.268 427.423 463.184 420.595C456.386 418.602 449.753 416.851 443.286 415.344C430.036 412.268 416.614 410.247 403.118 409.293C397.781 408.917 391.659 408.469 384.978 407.834C373.188 406.703 359.557 403.949 346.484 393.118C332.005 381.11 325.49 364.44 320.774 351.089C319.037 346.169 317.465 341.789 316.182 338.022C312.397 326.791 309.005 317.844 305.84 309.085C302.675 300.326 299.449 291.52 296.077 282.643C287.473 260.228 278.764 234.47 253.095 203.06C237.148 183.518 214.271 163.41 188.147 144.197C171.2 131.62 153.584 120.25 135.403 110.151C97.4058 89.5251 62.4497 77.4935 29.748 66.1918C-2.66404 55.0313 -33.4627 43.7767 -66.2678 24.8463C-82.1293 15.5015 -97.5404 5.19749 -112.435 -6.02156C-131.857 -20.3606 -152.024 -36.4891 -174.218 -49.6038C-196.412 -62.7186 -221.358 -72.1602 -241.793 -73.8555" stroke="#737373" stroke-width="0.59" stroke-miterlimit="10"/>
<path opacity="0.62" d="M781.451 943.724C765.38 902.331 754.686 837.346 727.3 761.507C710.753 715.358 688 664.1 664.317 615.88C644.501 575.452 621.645 536.108 595.149 501.002C585.507 487.692 574.734 475.499 562.985 464.601C535.951 440.538 507.945 432.132 484.013 426.717C476.981 425.116 470.134 423.797 463.453 422.714C449.747 420.541 435.923 419.471 422.085 419.512C416.604 419.512 410.357 419.512 403.469 419.206C391.41 418.688 377.552 416.38 364.355 405.503C349.732 393.471 343.568 376.401 339.348 362.532C337.797 357.423 336.432 352.832 335.377 348.876C332.192 337.104 329.42 327.379 326.896 317.891C324.373 308.402 321.725 298.843 318.974 289.26C311.942 264.984 304.826 237.46 279.943 204.308C264.492 183.824 241.802 162.916 215.595 143.373C198.619 130.568 180.861 119.159 162.457 109.232C124.068 88.8187 88.4703 77.9879 54.8586 67.9577C21.764 58.0686 -9.94491 48.1796 -43.5153 30.1204C-59.7398 21.2036 -75.4872 11.2029 -90.6751 0.170832C-110.449 -13.9563 -130.906 -29.8729 -153.224 -43.1054C-175.542 -56.3378 -200.363 -66.1797 -220.985 -68.652" stroke="#737373" stroke-width="0.58" stroke-miterlimit="10"/>
<path opacity="0.61" d="M795.206 959.805C782.361 914.857 774.77 847.541 749.287 769.348C733.919 722.257 712.056 669.892 688.497 621.012C668.847 580.138 645.805 540.535 618.77 505.476C608.957 492.157 597.933 480.058 585.883 469.381C558.124 445.836 529.249 438.772 504.553 434.605C497.299 433.427 490.225 432.517 483.331 431.873C469.152 430.611 454.913 430.501 440.721 431.544C435.137 431.944 428.724 432.297 421.775 432.368C409.364 432.368 395.382 430.602 382.04 419.7C367.272 407.622 361.356 390.151 357.716 375.765C356.351 370.467 355.213 365.688 354.365 361.52C351.821 349.065 349.67 338.705 347.725 328.557C345.781 318.409 343.775 308.049 341.644 297.712C336.163 271.577 330.682 242.051 306.481 207.416C291.609 185.849 269.084 164.164 242.795 144.291C225.796 131.247 207.901 119.782 189.285 110.01C150.357 89.9725 114.077 80.2719 79.6588 71.4895C45.7989 62.919 13.2007 54.3486 -21.0523 37.1605C-37.6263 28.6766 -53.7035 18.9873 -69.1843 8.15275C-89.3307 -5.66832 -110.056 -21.5143 -132.519 -34.8645C-154.982 -48.2146 -179.782 -58.4097 -200.549 -61.7061" stroke="#737373" stroke-width="0.58" stroke-miterlimit="10"/>
<path opacity="0.59" d="M808.485 977.77C798.847 929.291 794.337 859.597 770.778 779.095C756.651 730.898 735.615 677.592 712.159 627.888C692.695 586.566 669.467 546.704 641.833 511.692C631.816 498.378 620.529 486.375 608.18 475.903C579.719 452.805 549.954 446.895 524.492 444.258C517.004 443.481 509.724 442.987 502.608 442.798C487.964 442.404 473.314 443.246 458.778 445.318C453.07 446.095 446.513 446.872 439.439 447.272C426.842 448.002 412.549 446.589 399.084 435.641C384.171 423.515 378.648 405.644 375.442 390.74C374.284 385.254 373.374 380.262 372.691 375.93C370.788 362.839 369.258 351.772 367.913 340.847C366.569 329.922 365.183 318.88 363.652 307.884C359.763 279.912 355.875 248.479 332.522 212.243C318.044 189.828 295.705 167.342 269.415 147.14C252.364 133.892 234.311 122.396 215.471 112.788C176.047 93.0805 139.126 84.5335 103.942 76.999C69.3787 69.5117 35.9531 62.3774 0.914198 46.1077C-16.0243 38.0547 -32.4464 28.6606 -48.2314 17.9946C-68.7293 4.43253 -89.7237 -11.2486 -112.352 -24.7165C-134.981 -38.1844 -159.719 -48.8269 -180.61 -52.9708" stroke="#737373" stroke-width="0.57" stroke-miterlimit="10"/>
<path opacity="0.57" d="M821.144 997.666C814.732 945.631 813.284 873.582 791.649 790.75C778.783 741.541 758.554 687.151 735.222 636.788C715.924 595.042 692.53 555.015 664.441 519.98C654.22 506.677 642.677 494.77 630.043 484.497C600.858 461.87 570.204 457.232 543.977 455.984C536.282 455.607 528.774 455.536 521.451 455.772C506.339 456.292 491.281 458.087 476.401 461.14C470.569 462.317 463.867 463.495 456.669 464.248C443.783 465.59 429.262 464.625 415.693 453.653C400.615 441.503 395.423 423.209 392.734 407.787C391.741 402.136 391.017 396.909 390.666 392.388C389.383 378.685 388.452 366.935 387.729 355.281C387.005 343.626 386.198 331.735 385.308 319.963C382.971 290.107 380.696 256.814 358.109 218.93C344.168 195.549 321.974 172.31 295.622 151.755C278.527 138.293 260.322 126.757 241.264 117.309C201.364 97.9308 163.781 90.5376 127.812 84.3452C92.4209 78.1999 58.1887 72.4313 22.3224 57.0327C5.02491 49.447 -11.7487 40.3959 -27.8574 29.9556C-48.7277 16.6761 -69.991 1.11269 -92.7229 -12.4258C-115.455 -25.9644 -140.296 -37.0542 -161.312 -41.8574" stroke="#737373" stroke-width="0.57" stroke-miterlimit="10"/>
<path opacity="0.56" d="M833.079 1019.82C829.873 964.232 831.466 889.829 811.795 804.689C800.191 754.467 780.769 699.088 757.582 647.925C738.428 605.684 714.869 565.304 686.242 530.387C675.825 517.073 664.016 505.26 651.079 495.21C621.17 473.078 589.647 469.687 562.675 469.805C554.76 469.805 547.024 470.158 539.467 470.864C523.884 472.287 508.417 475.042 493.197 479.105C487.24 480.659 480.373 482.26 473.071 483.343C459.916 485.321 445.168 484.779 431.475 473.784C416.252 461.587 411.391 442.892 409.199 426.952C408.46 421.655 407.956 416.32 407.689 410.965C407.027 396.673 406.717 384.194 406.592 371.833C406.468 359.472 406.282 346.898 405.993 334.396C405.227 302.68 404.565 267.504 382.764 228.018C369.32 203.673 347.27 179.633 320.877 158.772C303.754 145.056 285.401 133.446 266.126 124.137C225.751 105.065 187.527 98.849 150.75 93.8339C114.615 88.9129 79.5346 84.4158 42.903 70.0061C25.2761 62.8272 8.18428 54.048 -8.2075 43.7531C-29.4294 30.8032 -50.9202 15.3811 -73.859 1.70129C-96.7977 -11.9785 -121.432 -23.4451 -142.696 -29.0488" stroke="#737373" stroke-width="0.56" stroke-miterlimit="10"/>
<path opacity="0.54" d="M843.938 1044.14C843.938 985.022 848.551 908.218 830.866 820.794C820.524 769.512 801.908 713.145 778.824 661.228C759.898 618.587 736.111 577.901 706.968 543.054C695.902 529.751 684.029 517.319 671.081 508.16C640.447 486.498 608.035 484.356 580.298 485.886C572.148 486.341 564.192 487.126 556.428 488.241C540.345 490.562 524.441 494.277 508.855 499.354C502.095 501.556 495.239 503.355 488.315 504.746C474.912 507.312 459.937 507.242 446.12 496.199C430.751 483.955 426.201 464.884 424.526 448.402C423.956 442.931 423.652 437.429 423.615 431.92C423.615 417.016 423.905 403.831 424.381 390.74C424.857 377.649 425.291 364.345 425.622 351.113C426.408 317.561 427.339 280.477 406.324 239.391C393.375 214.08 371.512 189.263 345.078 168.049C327.904 154.138 309.388 142.51 289.892 133.39C249.021 114.554 210.134 109.562 172.572 105.818C135.692 102.145 99.7431 99.1551 62.3462 85.5224C44.3779 78.7674 26.9472 70.2841 10.2428 60.1642C-11.3308 47.4026 -33.1939 32.1217 -56.1533 18.3478C-79.1127 4.57377 -103.789 -7.4814 -125.197 -13.8386" stroke="#737373" stroke-width="0.56" stroke-miterlimit="10"/>
<path opacity="0.52" d="M852.046 1070.8C855.273 1008.14 862.885 928.984 847.186 839.23C838.022 786.936 820.296 729.532 797.337 676.909C778.535 633.75 754.624 592.852 724.942 558.052C713.669 544.773 701.569 532.412 688.311 523.464C656.953 502.274 623.652 501.402 595.232 504.322C586.958 505.17 578.685 506.37 570.721 507.877C554.189 511.112 537.897 515.78 521.989 521.84C515.134 524.474 508.152 526.659 501.078 528.385C487.405 531.587 472.12 531.941 458.241 520.874C442.748 508.584 438.508 489.112 437.35 472.112C436.952 466.41 436.855 460.686 437.06 454.971C437.681 439.455 438.591 425.563 439.666 411.742C440.742 397.921 441.735 383.888 442.728 369.902C445.086 334.584 447.63 295.523 427.38 252.835C414.97 226.559 393.231 201.036 366.755 179.397C349.507 165.261 330.8 153.589 311.052 144.645C269.684 126.232 230.157 122.3 191.808 119.828C154.184 117.473 117.345 115.778 79.2038 103.017C60.9082 96.6942 43.1457 88.5228 26.1283 78.6001C4.20308 66.0976 -17.8255 50.958 -41.0331 37.0192C-64.2408 23.0804 -88.8549 10.8133 -110.428 3.67908" stroke="#737373" stroke-width="0.55" stroke-miterlimit="10"/>
<path opacity="0.5" d="M858.541 1099.95C864.974 1033.76 875.564 952.2 861.892 860.162C853.949 806.808 837.071 748.416 814.318 695.039C795.703 651.433 771.585 610.276 741.386 575.523C729.927 562.267 717.558 550 703.989 541.241C671.929 520.545 637.8 520.921 608.49 525.23C599.913 526.47 591.523 528.04 583.318 529.939C566.305 534.043 549.603 539.664 533.366 546.751C526.401 549.802 519.279 552.365 512.04 554.426C498.12 558.264 482.669 559.135 468.604 547.951C452.946 535.614 449.036 515.741 448.374 498.224C448.153 492.312 448.264 486.39 448.705 480.494C449.967 464.366 451.498 449.768 453.152 435.217C454.807 420.666 456.503 405.903 458.055 391.187C461.985 353.915 466.101 313.064 446.658 268.752C434.702 241.533 413.17 215.139 386.674 193.242C369.425 178.896 350.601 167.18 330.682 158.395C288.838 140.312 248.648 137.534 209.493 136.31C171.124 135.132 133.479 134.897 94.5307 123.006C75.8981 117.109 57.7952 109.226 40.4623 99.4612C18.1648 87.2177 -4.21544 72.2429 -27.4851 58.2099C-50.7548 44.1769 -75.4309 31.5096 -97.1493 23.5748" stroke="#737373" stroke-width="0.54" stroke-miterlimit="10"/>
<path opacity="0.49" d="M863.526 1131.69C873.165 1061.94 886.734 977.982 875.068 883.66C868.345 829.27 852.315 769.889 829.563 715.758C811.071 671.705 786.808 630.289 756.072 595.678C744.427 582.469 731.83 570.249 717.951 561.702C685.166 541.476 650.107 543.101 620.074 548.799C611.262 550.463 602.651 552.496 594.239 554.897C576.755 559.913 559.644 566.486 543.066 574.558C536.021 577.991 528.787 580.901 521.41 583.269C507.221 587.719 491.563 588.944 477.353 577.807C461.55 565.446 457.951 545.15 457.827 527.114C457.78 520.999 458.091 514.887 458.758 508.819C460.64 492.102 462.895 476.774 464.963 461.517C467.032 446.259 469.514 430.72 471.686 415.274C477.187 376.142 482.896 333.407 464.239 287.494C452.78 259.239 431.413 232.115 404.834 209.912C387.546 195.333 368.563 183.558 348.429 174.924C306.088 157.171 265.237 155.546 225.317 155.593C186.203 155.593 147.689 156.817 107.975 145.798C89.0156 140.345 70.5731 132.782 52.9142 123.218C30.3685 111.281 7.71931 96.4239 -15.7572 82.2967C-38.2584 68.4271 -61.6175 56.4422 -85.6489 46.4373" stroke="#737373" stroke-width="0.54" stroke-miterlimit="10"/>
<path opacity="0.47" d="M866.98 1166.11C879.846 1092.84 896.372 1006.47 886.734 909.889C881.211 854.417 866.049 794.046 843.483 739.186C825.157 694.685 800.729 653.01 769.454 618.352C757.623 605.166 744.758 593.017 730.589 584.658C697.081 564.928 661.132 567.8 630.354 574.887C621.321 576.975 612.489 579.424 603.857 582.233C585.895 588.16 568.376 595.702 551.464 604.79C544.299 608.672 536.912 611.999 529.353 614.749C514.874 619.812 498.989 621.483 484.675 610.323C468.728 597.891 465.439 577.218 465.832 558.664C465.953 552.353 466.465 546.058 467.362 539.828C469.907 522.523 472.678 506.488 475.512 490.501C478.346 474.514 481.283 458.22 484.075 442.068C491.149 401.076 498.554 356.458 480.58 308.92C469.617 279.747 448.437 251.799 421.795 229.243C404.463 214.457 385.32 202.645 364.976 194.184C322.16 176.76 280.647 176.289 239.92 177.702C200.061 178.997 160.699 181.634 120.22 171.416C100.93 166.412 82.1459 159.153 64.1664 149.754C41.1657 137.981 18.2476 123.336 -5.29097 109.115C-28.042 95.0737 -51.5281 82.6341 -75.6171 71.8662" stroke="#737373" stroke-width="0.53" stroke-miterlimit="10"/>
<path opacity="0.45" d="M868.862 1203.38C884.934 1126.55 904.398 1037.76 896.827 938.921C891.8 878.878 877.919 820.23 855.769 765.439C837.588 720.491 812.995 678.533 781.203 643.922C769.165 630.76 756.072 618.705 741.572 610.558C707.361 591.298 670.543 595.442 639 603.895C629.733 606.391 620.673 609.263 611.821 612.513C593.384 619.343 575.456 627.839 558.207 637.918C550.945 642.214 543.425 645.92 535.703 649.008C520.996 654.729 504.863 656.825 490.405 645.617C474.312 633.162 471.355 612.065 472.244 592.994C472.555 586.452 473.281 579.944 474.416 573.522C477.581 555.604 480.952 538.863 484.406 522.146C487.861 505.429 491.377 488.405 494.748 471.5C503.374 428.671 512.289 382.169 495.203 333.007C484.717 302.892 463.722 274.144 437.019 251.258C419.651 236.251 400.354 224.386 379.807 216.081C336.494 198.987 294.34 199.599 252.827 202.236C212.224 204.779 171.993 208.782 130.79 199.458C111.185 194.881 92.0675 187.927 73.7639 178.715C50.3701 167.272 27.1832 152.697 3.43779 138.358C-19.486 124.178 -43.0196 111.314 -67.0745 99.8145" stroke="#737373" stroke-width="0.53" stroke-miterlimit="10"/>
<path opacity="0.44" d="M869.09 1243.57C888.388 1163.19 910.789 1071.97 905.287 970.872C901.594 909.961 888.428 850.281 866.401 794.612C848.385 749.216 823.626 707.023 791.297 672.459C779.073 659.321 765.731 647.312 750.942 639.378C715.986 620.541 678.279 625.98 645.991 635.846C636.504 638.766 627.223 642.054 618.15 645.711C599.235 653.439 580.898 662.888 563.316 673.966C555.952 678.668 548.3 682.76 540.419 686.209C525.464 692.543 509.082 695.086 494.5 683.855C478.263 671.352 475.615 649.855 477.022 630.266C477.523 623.512 478.449 616.808 479.794 610.205C483.6 591.722 487.592 574.252 491.646 556.805C495.7 539.357 499.919 521.487 503.87 503.969C514.046 459.233 524.554 410.871 508.255 360.107C498.265 329.004 477.436 299.502 450.691 276.286C433.301 261.019 413.836 249.089 393.065 240.968C349.277 224.18 306.46 226.017 264.161 229.855C222.793 233.622 181.735 239.014 139.726 230.561C119.797 226.418 100.331 219.777 81.6858 210.76C57.9611 199.576 34.4846 185.142 10.6771 170.733C-13.1303 156.323 -37.7238 141.937 -60.104 130.894" stroke="#737373" stroke-width="0.52" stroke-miterlimit="10"/>
<path opacity="0.42" d="M867.58 1286.8C890.105 1202.91 915.443 1109.25 911.989 1005.91C909.631 944.184 897.194 883.502 875.316 826.963C857.466 781.05 832.52 738.668 799.674 704.033C787.264 690.918 773.653 679.004 758.554 671.258C722.894 652.963 684.318 659.603 651.245 670.858C641.592 674.185 632.098 677.898 622.763 681.995C603.365 690.624 584.612 701.025 566.688 713.098C559.233 718.227 551.447 722.706 543.397 726.495C528.174 733.441 511.565 736.431 496.858 725.153C480.476 712.603 478.242 690.706 480.063 670.599C480.751 663.639 481.885 656.745 483.455 649.973C487.902 630.854 492.494 612.677 497.148 594.5C501.802 576.323 506.559 557.84 511.213 539.475C522.962 492.926 535.041 442.633 519.487 390.269C509.993 358.2 489.329 327.897 462.543 304.352C445.096 288.919 425.469 276.976 404.503 269.034C360.239 252.553 316.741 255.566 273.656 260.676C231.543 265.691 189.636 272.448 146.862 264.914C126.619 261.209 106.814 254.889 87.8291 246.078C63.7941 235.035 40.0901 220.672 16.1172 206.168C-7.85573 191.664 -32.3044 176.831 -54.9329 165.011" stroke="#737373" stroke-width="0.52" stroke-miterlimit="10"/>
<path opacity="0.4" d="M864.271 1333.23C890.022 1245.79 918.256 1149.58 916.891 1044.1C915.871 981.519 904.16 919.765 882.41 862.281C864.705 815.967 839.615 773.232 806.231 738.786C793.593 725.695 779.755 713.851 764.366 706.317C727.983 688.493 688.517 696.381 654.74 709.024C644.798 712.745 635.083 716.873 625.596 721.409C605.72 730.957 586.559 742.327 568.301 755.409C560.731 760.921 552.807 765.778 544.597 769.936C529.146 777.518 512.268 780.932 497.437 769.63C480.89 757.033 478.821 734.712 481.345 714.11C482.221 706.946 483.555 699.863 485.337 692.92C490.425 673.236 495.679 654.329 500.871 635.446C506.063 616.562 511.502 597.279 516.777 578.183C530.098 529.798 543.666 477.598 529.063 423.632C520.045 390.669 499.568 359.542 472.74 335.644C455.257 319.967 435.464 307.953 414.287 300.161C369.526 284.032 325.345 288.059 281.515 294.557C238.637 300.679 195.904 308.943 152.343 302.256C131.796 298.983 111.661 292.952 92.3589 284.291C67.8895 273.649 43.8753 259.498 19.7989 244.806C-4.27744 230.114 -28.8295 214.974 -51.52 202.425" stroke="#737373" stroke-width="0.51" stroke-miterlimit="10"/>
<path opacity="0.39" d="M859.058 1382.94C888.016 1291.96 919.166 1193.35 919.89 1085.58C920.195 1022.19 909.211 959.39 887.602 900.966C870.042 854.205 844.786 811.235 810.885 776.812C798.061 763.767 783.995 751.995 768.255 744.649C731.168 727.319 690.813 736.455 656.23 750.511C646.081 754.64 636.145 759.184 626.424 764.144C606.073 774.6 586.503 786.923 567.908 800.992C560.239 806.905 552.184 812.14 543.811 816.65C528.091 824.867 511.006 828.729 496.051 817.38C479.38 804.76 477.684 782.062 480.621 760.871C481.688 753.485 483.23 746.198 485.234 739.068C490.943 718.772 496.775 699.159 502.629 679.546C508.483 659.933 514.46 639.919 520.355 620.094C535.248 569.825 550.492 515.742 536.572 460.175C528.071 426.175 507.759 394.248 480.869 370.114C463.351 354.218 443.399 342.148 422.023 334.514C376.787 318.715 331.964 323.918 287.307 331.641C243.684 339.034 200.103 348.664 155.777 342.872C134.917 339.998 114.437 334.275 94.779 325.825C69.9581 315.442 45.6749 301.433 21.4537 286.623C-2.76741 271.813 -27.2988 256.273 -50.1548 242.875" stroke="#737373" stroke-width="0.5" stroke-miterlimit="10"/>
<path opacity="0.37" d="M851.86 1436.06C884.024 1341.52 918.049 1240.46 920.904 1130.48C922.457 1066.31 912.199 1002.48 890.788 943.088C873.31 895.998 847.971 852.627 813.532 818.298C800.501 805.278 786.188 793.576 770.096 786.441C732.264 769.607 691.041 779.99 655.692 795.412C645.308 799.964 635.152 804.932 625.224 810.316C604.4 821.685 584.422 834.961 565.488 850.014C557.721 856.341 549.533 861.969 540.998 866.849C525.03 875.654 507.697 879.963 492.597 868.591C475.802 855.923 474.416 832.778 477.87 811.14C479.122 803.539 480.872 796.054 483.103 788.749C489.453 767.864 495.865 747.521 502.339 727.178C508.814 706.835 515.391 686.092 521.886 665.536C538.433 613.431 555.105 557.464 542.074 500.272C533.986 465.331 513.923 432.674 486.992 408.116C469.433 392.001 449.314 379.883 427.732 372.421C381.999 356.952 336.515 363.309 291.092 372.304C246.704 380.945 202.274 391.94 157.162 387.02C135.973 384.576 115.131 379.158 95.1099 370.891C69.9373 360.767 45.468 346.898 21.04 331.994C-3.38797 317.09 -27.8366 301.126 -50.8374 286.952" stroke="#737373" stroke-width="0.5" stroke-miterlimit="10"/>
<path opacity="0.35" d="M842.635 1492.68C878.025 1394.62 915.029 1291.06 919.89 1178.89C922.773 1113.94 913.246 1049.05 891.966 988.695C874.675 941.087 849.15 897.552 814.173 863.223C800.956 850.226 786.395 838.594 770.075 831.672C731.54 815.308 689.407 826.963 653.313 843.774C642.722 848.703 632.38 854.087 622.287 859.926C600.972 872.179 580.583 886.417 561.33 902.496C553.472 909.19 545.174 915.188 536.509 920.438C520.293 929.856 502.712 934.565 487.488 923.216C470.527 910.501 469.431 886.956 473.464 864.824C474.891 857.006 476.841 849.323 479.297 841.843C486.288 820.394 493.3 799.297 500.374 778.271C507.448 757.245 514.646 735.725 521.762 714.44C539.778 660.474 558.145 602.6 545.879 543.807C538.309 507.877 518.411 474.467 491.418 449.626C473.754 433.223 453.378 421.021 431.496 413.743C385.288 398.58 339.141 406.115 292.912 416.357C247.779 426.246 202.502 438.631 156.624 434.581C135.151 432.551 113.989 427.44 93.6412 419.371C68.117 409.529 43.2753 395.825 18.7853 380.78C-5.70472 365.735 -30.2361 349.371 -53.3403 334.419" stroke="#737373" stroke-width="0.49" stroke-miterlimit="10"/>
<path opacity="0.33" d="M831.072 1552.96C869.669 1451.36 909.507 1345.29 916.539 1230.95C920.469 1166.79 912.403 1098.77 890.808 1037.88C873.682 989.802 847.971 946.055 812.477 911.726C799.053 898.776 784.244 887.215 767.614 880.481C728.314 864.588 685.373 877.491 648.514 895.691C637.676 901.06 627.079 906.868 616.723 913.115C594.93 926.284 574.127 941.475 554.526 958.534C546.558 965.658 538.106 972.051 529.249 977.653C512.702 987.753 494.955 992.886 479.607 981.443C462.522 968.705 461.736 944.736 466.266 922.086C467.895 914.064 470.052 906.193 472.72 898.54C480.331 876.502 487.964 854.699 495.638 832.896C503.311 811.093 511.13 788.867 518.866 766.852C538.454 711.026 558.414 651.268 546.934 590.875C539.84 553.979 520.045 519.791 493.156 494.551C475.546 478.013 455.125 465.796 433.172 458.668C386.467 443.834 339.659 452.546 292.664 464.013C246.766 475.173 200.661 488.9 154.08 485.768C132.311 484.151 110.816 479.347 90.125 471.476C64.2285 461.894 39.1179 448.284 14.5038 433.168C-10.1104 418.052 -34.5797 401.241 -57.8907 385.513" stroke="#737373" stroke-width="0.49" stroke-miterlimit="10"/>
<path opacity="0.32" d="M817.276 1616.91C859.182 1511.85 901.854 1403.28 910.893 1286.75C916.002 1221.49 908.824 1152.55 887.375 1091C870.414 1042.45 844.538 998.419 808.506 964.185C794.896 951.258 779.817 939.768 763.001 933.246C723.019 917.824 679.148 931.998 641.523 951.588C630.492 957.333 619.674 963.557 609.07 970.259C586.806 984.356 565.596 1000.51 545.652 1018.55C537.582 1026.07 528.998 1032.84 519.983 1038.8C503.27 1049.51 485.192 1055.09 469.741 1043.51C452.491 1030.7 452.056 1006.33 457.062 983.186C458.89 974.986 461.248 966.951 464.115 959.146C472.389 936.495 480.662 913.986 488.936 891.453L514.005 823.172C535.144 765.486 556.739 703.821 546.024 641.873C539.447 603.989 519.88 569.024 492.783 543.454C475.107 526.69 454.486 514.423 432.303 507.477C385.102 492.973 337.652 502.768 289.851 515.577C243.229 527.961 196.255 543.078 148.827 540.817C126.757 539.612 104.921 535.116 83.8785 527.443C57.6303 518.025 32.1681 504.652 7.49187 489.418C-17.1843 474.184 -41.7157 456.996 -65.2129 440.467" stroke="#737373" stroke-width="0.48" stroke-miterlimit="10"/>
<path opacity="0.3" d="M801.122 1684.91C846.151 1576.2 891.78 1465.13 903.012 1346.44C914.243 1227.75 885.265 1097.99 802.259 1020.43C788.442 1007.53 773.136 996.112 755.906 989.825C715.221 974.898 670.46 990.296 632.07 1011.3C597.077 1030.42 564.253 1054.3 534.317 1082.43C512.226 1103.2 481.531 1127.49 457.372 1109.67C433.668 1092.18 442.066 1052.5 453.09 1023.66L506.58 883.471C529.332 823.949 552.498 760.377 542.549 696.805C532.538 632.809 486.392 577.289 429.035 560.242C334.839 532.223 238.865 602.624 141.277 599.822C61.9118 597.467 -8.828 547.622 -74.8104 499.401" stroke="#737373" stroke-width="0.47" stroke-miterlimit="10"/>
</g>
</g>
<defs>
<linearGradient id="paint0_linear_216_7828" x1="0" y1="0" x2="1506.02" y2="1237.47" gradientUnits="userSpaceOnUse">
<stop stop-color="#E8E8E8"/>
<stop offset="1" stop-color="#EFEFEF"/>
</linearGradient>
</defs>
</svg>
