<svg width="19" height="11" viewBox="0 0 19 11" fill="none" xmlns="http://www.w3.org/2000/svg">
<path d="M4.00183 4.83537C6.54283 4.88511 9.01384 5.00181 11.498 4.87304C13.4711 4.76827 15.4526 4.8295 17.4298 4.84472C18.0635 4.85016 18.4329 5.27321 18.4117 5.84894C18.3904 6.42466 17.9965 6.78218 17.3591 6.79659C16.643 6.81303 15.927 6.8006 15.2109 6.8026C11.578 6.84405 7.9441 6.8852 4.30935 6.92605C4.20641 6.92724 4.10434 6.93835 3.84831 6.9535C4.62934 7.74083 5.31836 8.46074 6.03701 9.14719C6.37178 9.46837 6.4541 9.80651 6.30524 10.2301C6.15639 10.6537 5.82115 10.8279 5.39399 10.9004C5.08773 10.9535 4.90912 10.8043 4.73416 10.6297C3.43897 9.33312 2.14198 8.03833 0.86204 6.72636C0.374702 6.22604 0.370733 5.71716 0.862634 5.21049C2.14445 3.88834 3.44205 2.58028 4.75542 1.28631C5.21405 0.832977 5.86116 0.844701 6.22346 1.24611C6.58576 1.64753 6.5447 2.25579 6.08331 2.7335C5.40022 3.4383 4.69835 4.13324 4.00183 4.83537Z" fill="white"/>
</svg>
