<svg width="19" height="11" viewBox="0 0 19 11" fill="none" xmlns="http://www.w3.org/2000/svg">
<path d="M14.9977 6.16512C12.4567 6.11538 9.98567 5.99868 7.50146 6.12744C5.52841 6.23222 3.54686 6.17099 1.56967 6.15577C0.935962 6.15033 0.566561 5.72728 0.587838 5.15155C0.609115 4.57582 1.00304 4.21831 1.64038 4.20389C2.35649 4.18745 3.07253 4.19989 3.7886 4.19788C7.42156 4.15644 11.0554 4.11529 14.6902 4.07444C14.7931 4.07325 14.8952 4.06214 15.1512 4.04699C14.3702 3.25966 13.6812 2.53974 12.9625 1.8533C12.6277 1.53211 12.5454 1.19398 12.6943 0.770385C12.8431 0.346789 13.1784 0.172608 13.6055 0.100131C13.9118 0.0469411 14.0904 0.196224 14.2653 0.370781C15.5605 1.66737 16.8575 2.96216 18.1375 4.27413C18.6248 4.77445 18.6288 5.28333 18.1369 5.79C16.8551 7.11215 15.5575 8.42021 14.2441 9.71418C13.7855 10.1675 13.1383 10.1558 12.776 9.75438C12.4137 9.35296 12.4548 8.7447 12.9162 8.26699C13.5993 7.56219 14.3012 6.86725 14.9977 6.16512Z" fill="white"/>
</svg>
