<svg width="14" height="24" viewBox="0 0 14 24" fill="none" xmlns="http://www.w3.org/2000/svg">
<path d="M8.49848 5.07413C8.43453 8.34114 8.28449 11.5181 8.45004 14.7121C8.58475 17.2489 8.50603 19.7966 8.48646 22.3387C8.47946 23.1535 7.93554 23.6284 7.19532 23.6011C6.4551 23.5737 5.99544 23.0672 5.9769 22.2478C5.95577 21.3271 5.97175 20.4065 5.96917 19.4858C5.91589 14.8149 5.86298 10.1428 5.81047 5.46952C5.80893 5.33717 5.79465 5.20593 5.77516 4.87675C4.76288 5.88093 3.83728 6.76681 2.95471 7.69079C2.54176 8.12121 2.10701 8.22704 1.56239 8.03566C1.01777 7.84427 0.79382 7.41325 0.700635 6.86405C0.632248 6.47028 0.824182 6.24065 1.04861 6.0157C2.71566 4.35045 4.38038 2.68289 6.06721 1.03726C6.71047 0.410681 7.36475 0.405578 8.01618 1.03802C9.71609 2.68608 11.3979 4.35441 13.0615 6.04303C13.6444 6.6327 13.6293 7.4647 13.1132 7.93052C12.5971 8.39633 11.8151 8.34354 11.2009 7.75033C10.2947 6.87206 9.40122 5.96965 8.49848 5.07413Z" fill="white"/>
</svg>
