<svg width="1920" height="790" viewBox="0 0 1920 790" fill="none" xmlns="http://www.w3.org/2000/svg">
<mask id="mask0_216_7358" style="mask-type:alpha" maskUnits="userSpaceOnUse" x="-1" y="0" width="1922" height="790">
<rect x="-1" width="1922" height="790" fill="#312F30"/>
<rect x="-1" width="1922" height="790" fill="url(#paint0_linear_216_7358)" fill-opacity="0.2"/>
</mask>
<g mask="url(#mask0_216_7358)">
<g opacity="0.3">
<path d="M950 -40.7478C964.689 -53.383 986.385 -52.654 1002.98 -43.3801C1019.57 -34.1062 1032.11 -17.725 1042.31 -0.614899C1068.53 43.345 1083.22 94.1287 1103.92 141.43C1124.62 188.731 1154.03 234.958 1197.9 256.24C1266.42 289.448 1344.4 252.757 1414.57 224.004C1432.94 216.471 1452.45 209.364 1471.8 212.766C1496.61 217.119 1516.67 238.36 1528.21 262.719C1539.75 287.078 1544.22 314.576 1549.09 341.487C1564.74 428.151 1587.38 516.941 1640.28 583.722C1693.19 650.502 1809.76 711.288 1937.8 657.407" stroke="#DFDFE0" stroke-width="0.71" stroke-miterlimit="10"/>
<path opacity="0.98" d="M1935.75 662.408C1863.89 690.756 1795.92 680.834 1740.93 654.207C1701.7 635.194 1669.18 607.737 1647.2 579.287C1627.21 553.059 1610.46 523.848 1597.41 492.461C1592.28 480.312 1587.59 468.163 1583.18 455.689C1573.17 426.607 1564.74 396.853 1557.93 366.595C1555.92 357.848 1554.01 349.121 1552.18 340.414C1548.34 322.089 1544.71 303.541 1538.68 286.026C1536.25 278.792 1533.31 271.79 1529.9 265.089C1523.96 253.605 1516.38 243.338 1507.46 234.716C1497.48 225.118 1486.12 217.869 1473.56 215.155C1468.78 214.158 1463.92 213.751 1459.07 213.94C1445.25 214.447 1431.54 219.165 1418.43 224.065C1405.33 228.965 1392.04 234.189 1378.54 239.19C1344.2 251.805 1308.83 262.679 1273.73 262.821C1250.99 263.306 1228.42 258.324 1207.49 248.201C1193.6 241.195 1180.68 231.926 1169.14 220.683C1144.76 197.296 1126.14 166.68 1111.46 135.659C1096.52 104.314 1084.44 71.4302 1069.61 39.822C1062.82 25.1638 1055.24 11.0027 1046.9 -2.57877C1036.39 -19.4459 1023.78 -35.7056 1006.98 -45.101C990.172 -54.4964 968.53 -55.5493 953.627 -43.5824" stroke="#DFDFE0" stroke-width="0.71" stroke-miterlimit="10"/>
<path opacity="0.95" d="M1935.33 666.701C1866.22 692.012 1801.04 679.701 1747.57 651.413C1709.53 631.266 1677.61 603.181 1655.72 574.084C1635.88 547.418 1619.01 518.057 1605.51 486.67C1600.18 474.642 1595.32 462.372 1590.72 450.223C1580.19 422.071 1571.07 393.257 1563.42 363.923C1561.22 355.526 1559.11 347.163 1557.11 338.834C1552.88 321.279 1548.87 303.561 1542.58 286.897C1540.02 279.972 1536.97 273.3 1533.44 266.952C1527.14 255.857 1519.39 245.921 1510.46 237.49C1500.38 227.872 1489.26 220.238 1477.15 217.099C1472.57 215.937 1467.89 215.366 1463.19 215.399C1449.91 215.399 1436.73 219.448 1424.07 223.822C1411.41 228.196 1398.71 232.711 1385.75 237.044C1352.76 248.08 1318.77 257.293 1284.38 256.078C1246.08 255.513 1209.13 239.898 1179.78 211.875C1155.08 188.771 1135.89 159.229 1120.45 129.22C1104.95 98.8876 1092.14 67.1781 1076.64 36.3394C1069.5 21.9896 1061.64 8.12294 1053.09 -5.19066C1042.26 -21.8351 1029.4 -37.9733 1012.51 -47.4497C995.615 -56.9261 973.955 -58.3435 958.999 -47.0447" stroke="#DFDFE0" stroke-width="0.7" stroke-miterlimit="10"/>
<path opacity="0.93" d="M1936.41 670.326C1870.06 692.599 1807.68 677.919 1755.71 648.052C1718.85 626.811 1687.6 597.977 1665.73 568.313C1646.07 541.191 1629.09 511.694 1615.08 480.353C1609.6 468.345 1604.5 456.155 1599.63 444.107C1588.58 416.8 1578.78 388.86 1570.27 360.399C1567.9 352.3 1565.61 344.295 1563.4 336.384C1558.76 319.639 1554.35 302.751 1547.81 286.917C1545.12 280.309 1541.95 273.969 1538.33 267.964C1531.67 257.265 1523.76 247.647 1514.82 239.373C1504.61 229.714 1493.78 221.716 1482.1 218.173C1477.71 216.847 1473.19 216.106 1468.65 215.965C1455.92 215.459 1443.28 218.922 1431.22 222.627C1419.16 226.333 1406.91 230.261 1394.48 233.967C1362.84 243.402 1330.23 250.894 1296.44 248.384C1273.83 246.888 1251.67 240.655 1231.05 229.998C1217.06 222.617 1203.92 213.315 1191.93 202.298C1166.8 179.498 1147.04 150.886 1130.93 122.012C1114.76 92.8129 1101.23 62.2779 1085.06 32.1884C1077.61 18.1092 1069.51 4.48971 1060.79 -8.61273C1049.66 -25.0344 1036.55 -41.0106 1019.55 -50.6288C1002.55 -60.2469 980.89 -61.887 965.792 -51.3375" stroke="#DFDFE0" stroke-width="0.69" stroke-miterlimit="10"/>
<path opacity="0.9" d="M1938.9 673.403C1875.31 692.619 1815.75 675.61 1765.26 643.982C1729.7 621.708 1698.97 592.125 1677.18 561.853C1657.66 534.302 1640.53 504.653 1626.05 473.326C1620.42 461.318 1615.08 449.21 1609.96 437.324C1597.85 409.198 1587.41 382.652 1578.61 356.329C1576.02 348.634 1573.54 340.994 1571.16 333.407C1566.14 317.431 1561.34 301.394 1554.51 286.39C1551.7 280.09 1548.42 274.074 1544.71 268.409C1537.67 258.145 1529.6 248.849 1520.67 240.709C1510.32 231.03 1499.79 222.667 1488.53 218.678C1484.34 217.206 1480.01 216.296 1475.62 215.965C1463.41 214.973 1451.31 217.808 1439.77 220.885C1428.23 223.963 1416.51 227.243 1404.6 230.321C1374.37 238.157 1343.08 243.989 1309.95 240.142C1287.48 237.625 1265.55 230.778 1245.1 219.893C1231.11 212.357 1217.9 203.088 1205.71 192.254C1180.17 169.717 1159.79 142.138 1143.06 114.296C1126.32 86.4543 1111.99 56.8305 1095.15 27.5104C1087.38 14.045 1079.14 0.579656 1069.9 -12.501C1058.46 -28.6999 1045.12 -44.5952 1028 -54.2538C1010.87 -63.9124 989.247 -66.0588 974.007 -56.0964" stroke="#DFDFE0" stroke-width="0.69" stroke-miterlimit="10"/>
<path opacity="0.88" d="M1942.71 676.036C1881.89 692.234 1825.14 672.856 1776.13 639.588C1743.29 617.351 1714.12 588.748 1689.93 555.07C1670.57 527.08 1653.31 497.276 1638.36 465.976C1632.56 454.009 1627.01 441.941 1621.64 430.237C1608.89 402.516 1597.71 376.983 1588.25 351.996C1585.47 344.652 1582.8 337.37 1580.24 330.148C1574.82 314.961 1569.57 299.774 1562.46 285.6C1559.5 279.625 1556.1 273.942 1552.31 268.612C1544.89 258.792 1536.66 249.813 1527.73 241.802C1517.26 232.083 1507.01 223.356 1496.18 218.942C1492.16 217.321 1487.98 216.241 1483.73 215.722C1472.05 214.244 1460.49 216.431 1449.46 218.901C1438.44 221.372 1427.25 224.004 1415.87 226.434C1386.92 232.691 1357.19 236.842 1324.63 231.658C1302.31 228.16 1280.61 220.749 1260.28 209.688C1246.26 201.922 1232.96 192.589 1220.56 181.826C1194.59 159.552 1173.63 133.006 1156.23 106.238C1138.84 79.4688 1123.9 50.9384 1106.44 22.3675C1098.35 9.26661 1089.81 -3.95578 1080.33 -16.8542C1068.58 -32.8304 1055.01 -48.6041 1037.78 -58.364C1020.55 -68.1239 998.922 -70.5132 983.557 -61.3203" stroke="#DFDFE0" stroke-width="0.68" stroke-miterlimit="10"/>
<path opacity="0.85" d="M1947.76 678.303C1889.71 691.445 1835.72 669.779 1788.24 634.728C1756.19 611.152 1727.71 581.8 1703.93 547.821C1684.7 519.397 1667.3 489.425 1651.88 458.139C1645.9 446.193 1640.16 434.206 1634.5 422.664C1621.15 395.369 1609.21 370.908 1599.09 347.116C1596.13 340.123 1593.27 333.205 1590.51 326.361C1584.69 311.944 1579.12 297.588 1571.76 284.244C1568.67 278.583 1565.16 273.231 1561.27 268.247C1553.49 258.884 1545.1 250.213 1536.16 242.309C1525.49 232.549 1515.62 223.457 1505.22 218.618C1501.4 216.859 1497.42 215.615 1493.35 214.912C1482.2 212.887 1471.18 214.487 1460.67 216.309C1450.16 218.132 1439.51 220.157 1428.66 221.979C1401.08 226.616 1372.64 229.127 1340.81 222.587C1318.68 218.078 1297.21 210.084 1277.02 198.835C1262.96 190.902 1249.53 181.579 1236.9 170.973C1212.16 150.001 1189.97 125.379 1170.92 97.7534C1152.75 71.7541 1137.12 44.6816 1118.96 16.8801C1110.55 4.12346 1101.73 -8.8357 1092 -21.5924C1079.94 -37.3458 1066.14 -52.9981 1048.79 -62.8389C1031.43 -72.6798 1009.84 -75.5349 994.316 -66.8887" stroke="#DFDFE0" stroke-width="0.68" stroke-miterlimit="10"/>
<path opacity="0.83" d="M1953.94 680.308C1898.66 690.432 1847.56 666.438 1801.49 629.686C1770.25 604.774 1742.47 574.675 1719.06 540.389C1699.98 511.53 1682.44 481.393 1666.53 450.141C1660.39 438.215 1654.44 426.288 1648.53 414.929C1634.55 388.038 1621.86 364.651 1611.08 342.033C1607.91 335.392 1604.87 328.831 1601.94 322.352C1595.73 308.724 1589.78 295.218 1582.13 282.705C1578.89 277.361 1575.27 272.336 1571.3 267.68C1564.35 259.581 1555.38 251.481 1545.66 242.653C1534.99 232.852 1525.29 223.396 1515.3 218.132C1511.68 216.216 1507.88 214.796 1503.97 213.9C1493.3 211.429 1482.86 212.341 1472.87 213.555C1462.87 214.77 1452.75 216.147 1442.42 217.322C1416.17 220.379 1389.07 221.209 1357.97 213.272C1336.02 207.775 1314.74 199.219 1294.62 187.799C1280.54 179.634 1267.02 170.251 1254.18 159.734C1229.24 139.288 1206.55 115.493 1186.61 88.8641C1167.78 64.0797 1151.47 38.1208 1132.6 11.1293C1123.9 -1.3236 1114.82 -13.979 1104.79 -26.513C1092.34 -42.0437 1078.38 -57.5744 1060.91 -67.5165C1043.45 -77.4586 1021.79 -80.6579 1006.21 -72.7205" stroke="#DFDFE0" stroke-width="0.67" stroke-miterlimit="10"/>
<path opacity="0.8" d="M1961.17 682.151C1908.65 689.197 1860.4 662.975 1815.79 624.442C1785.39 598.199 1758.28 567.344 1735.23 532.736C1716.09 503.537 1698.66 472.678 1682.3 441.92C1675.99 430.034 1669.85 418.148 1663.65 406.971C1649.07 380.486 1635.6 358.192 1624.17 336.789C1620.83 330.498 1617.59 324.302 1614.46 318.201C1607.86 305.343 1601.51 292.687 1593.6 281.004C1590.23 275.977 1586.49 271.283 1582.43 266.972C1575.32 259.378 1566.09 251.745 1556.25 242.815C1545.42 232.974 1536.05 223.153 1526.49 217.464C1523.06 215.411 1519.44 213.828 1515.69 212.746C1505.61 209.749 1495.65 210.073 1486.17 210.721C1476.69 211.369 1467.11 212.037 1457.31 212.604C1432.41 214.062 1406.77 213.232 1376.25 203.998C1354.54 197.451 1333.51 188.288 1313.51 176.662C1299.38 168.324 1285.75 158.921 1272.72 148.517C1247.51 128.58 1224.25 105.614 1203.36 80.0154C1183.8 56.3042 1166.87 31.4186 1147.31 5.27753C1138.31 -6.87168 1128.88 -19.2234 1118.66 -31.5751C1105.98 -46.8628 1091.7 -62.2721 1074.2 -72.3154C1056.7 -82.3588 1035.08 -85.9023 1019.25 -78.633" stroke="#DFDFE0" stroke-width="0.67" stroke-miterlimit="10"/>
<path opacity="0.78" d="M1969.36 683.933C1919.57 687.982 1874.19 659.452 1831.03 619.137C1801.51 591.569 1775.08 559.966 1752.35 525.041C1733.32 495.438 1715.79 464.396 1698.91 433.659C1692.44 421.793 1686.06 409.968 1679.62 398.973C1664.41 372.913 1650.19 351.672 1638.11 331.464C1634.56 325.538 1631.13 319.699 1627.83 313.949C1621.18 301.861 1613.86 290.263 1605.92 279.222C1602.4 274.533 1598.55 270.172 1594.42 266.182C1587.02 259.095 1577.65 251.866 1567.74 242.896C1556.77 233.035 1547.7 222.85 1538.56 216.714C1535.32 214.545 1531.87 212.799 1528.28 211.511C1518.73 208.008 1509.32 207.704 1500.36 207.643C1491.4 207.582 1482.33 207.643 1473.06 207.643C1446.73 207.88 1420.53 203.425 1395.4 194.441C1373.93 186.883 1353.1 177.138 1333.16 165.323C1319 156.785 1305.26 147.361 1292.01 137.097C1266.59 117.626 1242.83 95.4779 1221.06 70.9442C1200.91 48.3062 1183.19 24.6759 1163.03 -0.796905C1153.69 -12.5411 1143.98 -24.6903 1133.53 -36.8598C1120.53 -51.9248 1106.01 -67.2328 1088.32 -77.3572C1070.63 -87.4815 1049.07 -91.3895 1033.19 -84.7884" stroke="#DFDFE0" stroke-width="0.66" stroke-miterlimit="10"/>
<path opacity="0.76" d="M1978.4 685.715C1931.41 686.666 1888.86 655.969 1847.12 613.872C1818.52 584.98 1792.78 552.62 1770.35 517.367C1751.48 487.359 1733.77 456.115 1716.45 425.418C1709.8 413.572 1703.2 401.828 1696.51 390.995C1680.68 365.36 1665.69 345.213 1652.96 326.199C1649.23 320.638 1645.61 315.164 1642.11 309.778C1635.07 298.482 1627.4 287.708 1619.15 277.522C1615.5 273.12 1611.54 269.057 1607.31 265.372C1599.7 258.792 1590.11 251.968 1580.07 242.977C1568.97 233.055 1560.2 222.526 1551.47 215.966C1548.42 213.656 1545.15 211.741 1541.73 210.255C1532.69 206.206 1523.83 205.335 1515.39 204.647C1506.94 203.958 1498.4 203.432 1489.67 202.622C1464.28 200.833 1439.26 194.837 1415.39 184.823C1394.21 176.224 1373.59 165.891 1353.72 153.903C1339.39 145.217 1325.5 135.457 1312.23 125.555C1286.56 106.529 1262.28 85.1926 1239.6 61.7516C1218.81 40.4095 1200.37 17.9334 1179.48 -6.76998C1169.84 -18.17 1159.92 -30.056 1149.14 -42.0229C1135.84 -56.8652 1121.08 -72.0112 1103.27 -82.2773C1085.47 -92.5434 1063.92 -96.7551 1047.86 -90.8223" stroke="#DFDFE0" stroke-width="0.65" stroke-miterlimit="10"/>
<path opacity="0.73" d="M1988.18 687.679C1943.95 685.654 1904.24 652.689 1863.96 608.709C1836.3 578.536 1811.22 545.428 1789.08 509.835C1770.37 479.462 1752.48 447.955 1734.71 417.298C1727.88 405.473 1721.07 393.789 1714.12 383.139C1697.67 357.889 1681.95 338.814 1668.56 320.995C1664.62 315.771 1660.82 310.662 1657.14 305.667C1649.7 295.164 1641.68 285.209 1633.13 275.861C1629.31 271.824 1625.24 268.115 1620.93 264.765C1613.11 258.69 1603.31 252.292 1593.16 243.261C1581.95 233.319 1573.47 222.425 1565.16 215.419C1562.32 213.009 1559.26 210.94 1556.04 209.243C1548.17 205.392 1539.83 202.908 1531.3 201.872C1523.43 200.577 1515.3 199.402 1507.15 198.066C1486.29 194.745 1464.85 188.954 1436.27 175.671C1415.38 166.046 1394.97 155.122 1375.13 142.949C1360.76 134.1 1346.68 124.3 1333.29 114.601C1307.35 95.9787 1282.51 75.4431 1258.93 53.1257C1237.49 32.6947 1218.32 11.3526 1196.69 -12.5813C1186.75 -23.6371 1176.45 -35.2598 1165.5 -47.0041C1151.9 -61.6236 1136.9 -76.6684 1118.98 -86.9952C1101.05 -97.322 1079.61 -101.959 1063.44 -96.7146" stroke="#DFDFE0" stroke-width="0.65" stroke-miterlimit="10"/>
<path opacity="0.71" d="M1998.71 690.068C1957.24 684.925 1920.46 649.854 1881.55 604.072C1854.88 572.62 1830.5 538.762 1808.64 502.828C1790.09 472.01 1772.04 440.341 1753.79 409.684C1746.82 397.9 1739.8 386.277 1732.58 375.788C1715.52 350.963 1699.02 332.962 1684.99 316.338L1672.99 302.164C1665.15 292.448 1656.78 283.311 1647.93 274.808C1643.95 271.115 1639.77 267.733 1635.39 264.683C1627.34 259.115 1617.36 253.122 1607.1 244.07C1595.75 234.088 1587.54 222.829 1579.69 215.398C1576.99 212.848 1574.08 210.597 1571 208.676C1563.71 204.397 1555.93 201.329 1547.88 199.564C1540.53 197.539 1532.99 195.818 1525.31 193.874C1505.75 188.933 1485.74 181.502 1457.82 166.842C1440.16 157.588 1419.29 146.269 1397.22 132.419C1382.81 123.368 1368.68 113.527 1355.02 103.929C1328.84 85.7257 1303.49 66.0045 1279.08 44.8435C1256.98 25.506 1237.1 5.33834 1214.88 -17.8262C1204.61 -28.5377 1194.02 -39.8972 1182.87 -51.4997C1168.97 -65.8965 1153.74 -80.8401 1135.69 -91.2479C1117.64 -101.656 1095.97 -106.758 1079.62 -102.162" stroke="#DFDFE0" stroke-width="0.64" stroke-miterlimit="10"/>
<path opacity="0.68" d="M2009.78 693.004C1971.09 684.803 1937.03 647.586 1899.69 599.86C1873.97 567.153 1850.2 532.517 1828.55 496.187C1810.15 464.983 1791.94 433.092 1773.25 402.516C1766.13 390.752 1758.86 379.19 1751.39 368.863C1733.7 344.564 1716.45 327.535 1701.76 312.167L1689.2 299.005C1680.97 290.091 1672.25 281.779 1663.1 274.119C1658.98 270.774 1654.68 267.724 1650.22 264.987C1641.93 259.905 1631.74 254.336 1621.38 245.245C1609.91 235.242 1602.01 223.639 1594.56 215.763C1592.03 213.085 1589.3 210.666 1586.4 208.534C1579.7 203.833 1572.48 200.176 1564.93 197.66C1558.09 195.109 1551.08 192.659 1543.93 190.067C1525.77 183.547 1507.12 174.475 1479.91 158.459C1462.7 148.334 1441.94 136.367 1419.82 122.173C1405.42 112.94 1391.14 103.058 1377.28 93.582C1347.99 73.5763 1322.44 55.1095 1299.67 36.8857C1276.91 18.6618 1256.32 -0.371926 1233.43 -22.767C1222.85 -33.1343 1211.98 -44.2306 1200.53 -55.6508C1186.31 -69.8249 1170.85 -84.6267 1152.7 -95.156C1134.54 -105.685 1112.9 -110.99 1096.41 -107.082" stroke="#DFDFE0" stroke-width="0.64" stroke-miterlimit="10"/>
<path opacity="0.66" d="M2021.34 696.568C1985.42 685.33 1954.19 645.946 1918.33 596.418C1893.62 562.475 1870.51 527.071 1849.08 490.355C1830.85 458.747 1812.46 426.633 1793.33 396.118C1786 384.353 1778.55 372.852 1770.81 362.728C1752.51 338.733 1734.5 322.878 1719.24 308.644C1714.73 304.472 1710.36 300.423 1706.12 296.494C1697.46 288.425 1688.36 280.992 1678.87 274.241C1674.59 271.268 1670.18 268.564 1665.64 266.142C1657.14 261.586 1646.75 256.422 1636.28 247.31C1624.69 237.186 1617.09 225.3 1610.05 216.937C1607.68 214.143 1605.13 211.557 1602.42 209.202C1596.24 204.08 1589.52 199.843 1582.43 196.587C1576.1 193.408 1569.63 190.331 1563.01 187.111C1546.19 179.012 1528.94 168.259 1502.3 150.886C1485.53 139.932 1464.95 127.296 1442.74 112.798C1428.32 103.383 1413.92 93.4811 1399.87 84.1464C1370.15 64.404 1344.03 46.9901 1320.59 29.7787C1296.94 12.3081 1274.15 -6.61881 1252.32 -26.9176C1241.42 -36.9205 1230.27 -47.7738 1218.53 -59.0118C1204.04 -73.0239 1188.33 -87.7042 1170.14 -98.3347C1151.95 -108.965 1130.32 -114.534 1113.71 -111.355" stroke="#DFDFE0" stroke-width="0.63" stroke-miterlimit="10"/>
<path opacity="0.63" d="M2033.31 700.881C2000.15 686.585 1971.75 645.116 1937.28 593.664C1914.93 560.234 1890.87 522.267 1869.92 485.192C1851.83 453.179 1833.3 420.882 1813.69 390.388C1806.52 378.87 1798.8 367.811 1790.57 357.261C1771.65 333.671 1752.89 318.91 1736.88 305.87C1732.14 302.036 1727.57 298.371 1723.19 294.875C1714.16 287.54 1704.73 280.865 1694.96 274.889C1690.98 272.54 1686.52 270.11 1681.41 267.741C1672.66 263.692 1662.1 258.913 1651.5 249.781C1639.8 239.656 1632.49 227.386 1625.88 218.618C1623.67 215.702 1621.29 212.955 1618.76 210.397C1613.11 204.854 1606.93 200.033 1600.36 196.02C1594.56 192.193 1588.6 188.488 1582.57 184.641C1567.1 174.921 1551.24 162.57 1525.26 143.819C1508.93 132.014 1488.45 118.731 1466.23 103.95C1451.78 94.3316 1437.25 84.3894 1423 75.1965C1392.86 55.7375 1366.18 39.3564 1342.07 23.1574C1317.71 6.8923 1294.23 -11.0194 1271.76 -30.4813C1260.53 -40.1602 1249.1 -50.73 1237.15 -61.7858C1222.32 -75.4942 1206.38 -90.134 1188 -100.785C1169.61 -111.436 1148.16 -117.49 1131.39 -114.959" stroke="#DFDFE0" stroke-width="0.63" stroke-miterlimit="10"/>
<path opacity="0.61" d="M2045.58 706.044C2015.19 688.711 1989.58 645.136 1956.67 591.761C1935.5 557.338 1912.05 518.582 1891.19 480.879C1873.26 448.481 1854.55 415.961 1834.51 385.507C1827.18 374.005 1819.24 363.03 1810.72 352.644C1791.16 329.479 1771.59 315.791 1755 303.946C1750.12 300.463 1745.38 297.156 1740.78 294.024C1731.36 287.481 1721.58 281.63 1711.5 276.509C1707.41 274.484 1702.83 272.459 1697.6 270.333C1688.71 266.769 1677.88 262.416 1667.17 253.263C1655.33 243.139 1648.32 230.484 1642.13 221.27C1640.08 218.224 1637.87 215.31 1635.53 212.543C1630.38 206.565 1624.76 201.142 1618.73 196.344C1613.39 191.91 1608.06 187.556 1602.46 183.081C1588.34 171.783 1573.88 157.771 1548.55 137.643C1532.66 125.028 1512.31 111.057 1490.05 95.9918C1475.57 86.2117 1460.9 76.2291 1446.46 67.1577C1415.91 47.9619 1388.66 32.5932 1363.87 17.5079C1338.8 2.45851 1314.63 -14.4519 1291.51 -33.1138C1279.99 -42.4282 1268.25 -52.755 1256.07 -63.6286C1240.92 -77.0939 1224.75 -91.5515 1206.28 -102.364C1187.8 -113.177 1166.3 -119.454 1149.41 -117.551" stroke="#DFDFE0" stroke-width="0.62" stroke-miterlimit="10"/>
<path opacity="0.59" d="M2058.08 712.16C2030.43 691.769 2007.62 646.129 1976.28 590.789C1956.29 555.536 1933.48 515.869 1912.71 477.538C1895.07 444.468 1875.97 412.434 1855.5 381.559C1848 370.079 1839.84 359.187 1831.06 348.959C1810.91 326.199 1790.62 313.584 1773.32 302.954C1768.23 299.809 1763.29 296.859 1758.49 294.105C1748.71 288.344 1738.61 283.318 1728.26 279.06C1724.06 277.38 1719.36 275.618 1714.03 273.857C1704.82 270.819 1693.86 266.871 1683.07 257.658C1671.1 247.533 1664.38 234.493 1658.6 224.834C1656.45 221.21 1654.38 218.173 1652.55 215.601C1647.88 209.216 1642.79 203.24 1637.33 197.722C1632.55 192.639 1627.65 187.597 1622.64 182.555C1609.75 169.697 1596.69 154.065 1572.05 132.5C1556.59 119.035 1536.37 104.416 1514.07 89.0468C1499.56 79.0844 1484.78 69.0614 1470.13 60.1317C1439.13 41.3814 1411.32 26.9036 1385.85 12.9117C1360.1 -0.936845 1335.24 -16.8519 1311.47 -34.7132C1299.6 -43.6631 1287.6 -53.7874 1275.17 -64.418C1259.7 -77.6809 1243.3 -92.0169 1224.68 -102.89C1206.06 -113.764 1184.63 -120.608 1167.62 -119.292" stroke="#DFDFE0" stroke-width="0.61" stroke-miterlimit="10"/>
<path opacity="0.56" d="M2070.69 719.328C2045.8 695.9 2025.75 648.194 1995.9 590.89C1977.06 554.746 1954.89 514.188 1934.21 475.23C1916.74 441.758 1897.5 409.53 1876.59 378.724C1868.95 367.23 1860.57 356.401 1851.51 346.327C1830.74 324.053 1809.7 312.451 1791.74 302.994C1786.46 300.295 1781.32 297.709 1776.34 295.239C1766.13 290.263 1755.65 286.055 1744.95 282.644C1740.67 281.308 1735.81 279.891 1730.39 278.433C1720.95 275.922 1709.8 272.358 1698.88 263.145C1686.8 253.021 1680.37 239.596 1675.01 229.492C1673.02 225.705 1671.14 222.506 1669.48 219.752C1665.28 212.92 1660.73 206.369 1655.86 200.131C1651.59 194.421 1647.23 188.792 1642.74 183.082C1631.3 168.563 1619.62 151.312 1595.61 128.41C1580.6 114.115 1560.52 98.8067 1538.17 83.1747C1523.64 73.0503 1508.72 62.926 1493.89 54.1583C1462.5 35.5295 1434.12 22.1654 1407.98 9.22648C1381.83 -3.71243 1357.76 -16.7931 1331.51 -35.3206C1319.38 -43.9263 1307.07 -53.7874 1294.39 -64.2357C1278.62 -77.2557 1261.99 -91.4702 1243.25 -102.384C1224.5 -113.298 1203.11 -120.608 1185.95 -119.96" stroke="#DFDFE0" stroke-width="0.61" stroke-miterlimit="10"/>
<path opacity="0.54" d="M2083.34 727.65C2061.21 701.185 2043.91 651.413 2015.6 592.145C1997.92 555.11 1976.48 513.682 1955.79 474.096C1938.47 440.214 1919.06 407.769 1897.71 377.003C1889.92 365.539 1881.32 354.812 1872 344.929C1850.66 323 1828.8 312.531 1810.18 304.29C1804.72 301.86 1799.38 299.633 1794.18 297.608C1783.58 293.407 1772.75 290.024 1761.76 287.484C1757.37 286.471 1752.37 285.459 1746.84 284.244C1737.16 282.219 1725.84 279.08 1714.83 269.827C1702.61 259.581 1696.46 245.913 1691.55 235.404C1689.77 231.476 1687.99 228.094 1686.55 225.28C1682.21 216.654 1678.23 210.194 1674.5 203.897C1670.76 197.6 1666.92 191.302 1662.95 184.944C1652.87 168.847 1642.59 149.955 1619.23 125.697C1604.64 110.571 1584.71 94.5947 1562.32 78.6792C1547.75 68.3322 1532.71 58.2483 1517.68 49.5616C1485.87 31.2163 1456.93 18.8646 1430.1 7.0394C1403.26 -4.78583 1378.53 -16.7326 1351.64 -34.5514C1339.19 -42.8331 1326.56 -52.3702 1313.63 -62.6768C1297.63 -75.474 1280.68 -89.5671 1261.83 -100.663C1242.98 -111.76 1221.71 -119.373 1204.32 -119.474" stroke="#DFDFE0" stroke-width="0.6" stroke-miterlimit="10"/>
<path opacity="0.51" d="M2095.91 737.207C2076.56 707.705 2061.98 655.889 2035.25 594.636C2018.69 556.711 1997.82 514.411 1977.31 474.197C1960.16 439.904 1940.6 407.244 1918.82 376.538C1910.87 365.074 1902.05 354.423 1892.47 344.707C1870.45 323.203 1847.9 313.807 1828.62 306.761C1822.97 304.736 1817.46 302.812 1812.09 301.172C1801.1 297.745 1789.92 295.181 1778.62 293.498L1763.36 291.25C1753.45 289.752 1741.93 286.998 1730.8 277.704C1718.46 267.438 1712.59 253.405 1708.11 242.41C1706.43 238.361 1704.91 234.736 1703.63 231.679C1699.84 222.526 1696.39 215.48 1693.17 208.534C1689.95 201.589 1686.64 194.684 1683.21 187.698C1674.46 170.001 1665.59 149.489 1642.86 123.834C1628.63 107.878 1608.91 91.2337 1586.49 75.0145C1571.95 64.3851 1556.94 54.6451 1541.49 45.8362C1509.27 27.7541 1479.79 16.4149 1452.26 5.62231C1425.03 -5.04875 1399.3 -15.902 1371.77 -32.9514C1358.95 -40.8889 1346.09 -50.1628 1332.91 -60.2872C1316.53 -72.8616 1299.41 -86.8332 1280.45 -98.0105C1261.49 -109.188 1240.06 -116.963 1222.62 -117.753" stroke="#DFDFE0" stroke-width="0.6" stroke-miterlimit="10"/>
<path opacity="0.49" d="M2108.34 748.06C2091.75 715.5 2079.89 661.659 2054.72 598.402C2039.31 559.606 2019.16 516.415 1998.69 475.574C1981.67 440.869 1961.92 407.993 1939.68 377.347C1931.56 365.893 1922.53 355.325 1912.69 345.78C1890.05 324.681 1866.74 316.379 1846.89 310.507C1841.04 308.792 1835.34 307.287 1829.78 305.991C1818.39 303.346 1806.85 301.607 1795.25 300.787C1790.66 300.463 1785.39 300.078 1779.65 299.532C1769.51 298.56 1757.79 296.191 1746.55 286.876C1734.11 276.549 1728.5 262.213 1724.45 250.732C1722.96 246.5 1721.6 242.734 1720.5 239.494C1717.25 229.836 1714.33 222.141 1711.61 214.609C1708.89 207.076 1706.12 199.503 1703.22 191.869C1695.82 172.593 1688.33 150.441 1666.26 123.429C1652.55 106.623 1632.88 89.3301 1610.42 72.8072C1595.85 61.9912 1580.71 52.2127 1565.07 43.5276C1532.41 25.7898 1502.35 15.4225 1474.24 5.72334C1446.37 -3.87453 1419.89 -13.5534 1391.69 -29.8333C1378.05 -37.8698 1364.8 -46.7311 1351.99 -56.3794C1335.3 -68.7108 1317.96 -82.5812 1298.87 -93.8597C1279.79 -105.138 1258.35 -113.258 1240.78 -114.716" stroke="#DFDFE0" stroke-width="0.59" stroke-miterlimit="10"/>
<path opacity="0.46" d="M2120.52 760.392C2106.7 724.795 2097.51 668.908 2073.96 603.687C2059.74 564 2040.18 519.918 2019.81 478.449C2002.78 443.682 1983.13 409.847 1960.35 379.656C1952.06 368.209 1942.79 357.724 1932.69 348.351C1909.45 327.657 1885.37 320.428 1864.8 315.771C1858.75 314.394 1852.86 313.26 1847.12 312.329C1835.34 310.46 1823.45 309.54 1811.55 309.575C1806.84 309.575 1801.47 309.575 1795.55 309.312C1785.18 308.866 1773.27 306.882 1761.92 297.527C1749.35 287.18 1744.05 272.5 1740.42 260.573C1739.09 256.179 1737.91 252.231 1737 248.829C1734.27 238.705 1731.88 230.342 1729.71 222.182C1727.54 214.021 1725.27 205.801 1722.9 197.559C1716.86 176.683 1710.74 153.012 1689.35 124.502C1676.06 106.886 1656.55 88.9048 1634.02 72.0984C1619.43 61.0865 1604.16 51.2747 1588.34 42.7378C1555.33 25.1822 1524.72 15.8678 1495.83 7.2419C1467.37 -1.26254 1440.11 -9.76699 1411.25 -25.2977C1397.3 -32.9661 1383.76 -41.5666 1370.7 -51.0541C1353.7 -63.2033 1336.11 -76.8914 1316.92 -88.2711C1297.74 -99.6509 1276.4 -108.115 1258.67 -110.241" stroke="#DFDFE0" stroke-width="0.58" stroke-miterlimit="10"/>
<path opacity="0.44" d="M2132.35 774.221C2121.3 735.566 2114.78 677.675 2092.87 610.429C2079.66 569.932 2060.86 524.899 2040.6 482.863C2023.71 447.711 2003.9 413.653 1980.66 383.503C1972.22 372.049 1962.74 361.643 1952.38 352.461C1928.51 332.213 1903.69 326.138 1882.46 322.554C1876.22 321.542 1870.14 320.759 1864.21 320.205C1852.02 319.12 1839.78 319.025 1827.58 319.922C1822.77 320.266 1817.26 320.57 1811.29 320.63C1800.62 320.63 1788.59 319.112 1777.12 309.737C1764.43 299.349 1759.34 284.324 1756.21 271.952C1755.04 267.397 1754.06 263.286 1753.33 259.702C1751.14 248.99 1749.29 240.081 1747.62 231.354C1745.95 222.627 1744.22 213.717 1742.39 204.828C1737.68 182.352 1732.97 156.96 1712.16 127.174C1699.37 108.627 1680.01 89.9776 1657.41 72.8877C1642.79 61.6692 1627.41 51.8099 1611.4 43.4056C1577.93 26.174 1546.74 17.8315 1517.15 10.2787C1488.04 2.90822 1460.01 -4.46229 1430.56 -19.2438C1416.31 -26.54 1402.49 -34.8726 1389.18 -44.1902C1371.86 -56.0762 1354.04 -69.7036 1334.73 -81.1846C1315.41 -92.6656 1294.09 -101.433 1276.24 -104.268" stroke="#DFDFE0" stroke-width="0.58" stroke-miterlimit="10"/>
<path opacity="0.41" d="M2143.77 789.672C2135.48 747.979 2131.6 688.043 2111.35 618.813C2099.2 577.364 2081.11 531.521 2060.95 488.776C2044.21 453.24 2024.24 418.959 2000.48 388.849C1991.87 377.4 1982.17 367.077 1971.55 358.071C1947.08 338.207 1921.49 333.124 1899.6 330.857C1893.16 330.188 1886.9 329.763 1880.78 329.601C1868.19 329.262 1855.6 329.986 1843.1 331.768C1838.19 332.436 1832.56 333.104 1826.47 333.448C1815.64 334.076 1803.36 332.861 1791.78 323.446C1778.96 313.018 1774.21 297.649 1771.45 284.831C1770.46 280.113 1769.67 275.821 1769.09 272.095C1767.45 260.837 1766.13 251.32 1764.98 241.924C1763.82 232.529 1762.63 223.032 1761.32 213.576C1757.97 189.521 1754.63 162.489 1734.55 131.326C1722.1 112.049 1702.9 92.7118 1680.29 75.3384C1665.63 63.9452 1650.11 54.0587 1633.91 45.7956C1600.02 28.8475 1568.28 21.4972 1538.03 15.0176C1508.31 8.57854 1479.57 2.44318 1449.45 -11.5487C1434.88 -18.4741 1420.77 -26.5529 1407.19 -35.7256C1389.57 -47.3888 1371.52 -60.8745 1352.07 -72.4567C1332.61 -84.039 1311.34 -93.1914 1293.38 -96.7551" stroke="#DFDFE0" stroke-width="0.57" stroke-miterlimit="10"/>
<path opacity="0.39" d="M2154.65 806.781C2149.14 762.031 2147.89 700.07 2129.29 628.836C2118.23 586.516 2100.84 539.741 2080.78 496.429C2064.18 460.529 2044.07 426.106 2019.92 395.976C2011.13 384.535 2001.21 374.295 1990.35 365.461C1965.26 346.002 1938.9 342.013 1916.35 340.94C1909.74 340.616 1903.28 340.555 1896.99 340.758C1883.99 341.205 1871.05 342.748 1858.25 345.374C1853.24 346.387 1847.46 347.399 1841.29 348.047C1830.21 349.201 1817.72 348.371 1806.06 338.935C1793.09 328.487 1788.63 312.754 1786.32 299.491C1785.47 294.631 1784.84 290.136 1784.54 286.248C1783.44 274.463 1782.64 264.359 1782.02 254.336C1781.39 244.313 1780.7 234.087 1779.93 223.963C1777.93 198.288 1775.97 169.656 1756.55 137.076C1744.56 116.969 1725.48 96.9836 1702.83 79.3065C1688.13 67.7291 1672.48 57.8078 1656.09 49.6826C1621.79 33.018 1589.47 26.6599 1558.55 21.3345C1528.12 16.0496 1498.69 11.0886 1467.85 -2.154C1452.98 -8.67765 1438.56 -16.4615 1424.71 -25.44C1406.77 -36.8602 1388.49 -50.2446 1368.94 -61.8876C1349.4 -73.5306 1328.04 -83.0678 1309.97 -87.1985" stroke="#DFDFE0" stroke-width="0.57" stroke-miterlimit="10"/>
<path opacity="0.37" d="M2164.91 825.835C2162.15 778.028 2163.52 714.042 2146.61 640.823C2136.63 597.632 2119.93 550.007 2100 506.007C2083.53 469.681 2063.28 434.954 2038.66 404.926C2029.71 393.476 2019.56 383.317 2008.43 374.674C1982.72 355.64 1955.62 352.725 1932.43 352.826C1925.62 352.826 1918.97 353.129 1912.47 353.737C1899.08 354.961 1885.78 357.33 1872.69 360.824C1867.57 362.16 1861.67 363.537 1855.39 364.469C1844.08 366.17 1831.4 365.704 1819.63 356.248C1806.54 345.759 1802.36 329.682 1800.47 315.973C1799.84 311.418 1799.41 306.829 1799.18 302.224C1798.61 289.933 1798.34 279.202 1798.23 268.571C1798.13 257.94 1797.97 247.128 1797.72 236.376C1797.06 209.101 1796.49 178.849 1777.75 144.892C1766.19 123.955 1747.23 103.281 1724.54 85.3406C1709.82 73.5456 1694.04 63.5611 1677.47 55.5548C1642.75 39.1534 1609.89 33.8077 1578.27 29.4948C1547.2 25.2628 1517.04 21.3953 1485.55 9.00311C1470.39 2.82932 1455.7 -4.72073 1441.6 -13.5742C1423.36 -24.7109 1404.88 -37.9738 1385.16 -49.7383C1365.44 -61.5028 1344.26 -71.3842 1325.98 -76.1831" stroke="#DFDFE0" stroke-width="0.56" stroke-miterlimit="10"/>
<path opacity="0.34" d="M2174.25 846.752C2174.25 795.908 2178.21 729.857 2163.01 654.673C2154.12 610.572 2138.11 562.096 2118.26 517.448C2101.99 480.778 2081.54 445.788 2056.48 415.82C2046.97 404.379 2036.76 393.688 2025.63 385.811C1999.29 367.182 1971.43 365.34 1947.58 366.656C1940.57 367.047 1933.73 367.722 1927.06 368.681C1913.23 370.677 1899.56 373.872 1886.15 378.238C1880.34 380.132 1874.45 381.679 1868.5 382.875C1856.97 385.082 1844.1 385.022 1832.22 375.525C1819 364.996 1815.09 348.594 1813.65 334.42C1813.16 329.715 1812.9 324.983 1812.87 320.246C1812.87 307.429 1813.12 296.089 1813.53 284.831C1813.94 273.573 1814.31 262.132 1814.59 250.753C1815.27 221.898 1816.07 190.006 1798 154.673C1786.87 132.905 1768.07 111.563 1745.35 93.319C1730.58 81.3563 1714.66 71.356 1697.9 63.513C1662.76 47.314 1629.33 43.0213 1597.03 39.8018C1565.32 36.643 1534.42 34.0714 1502.26 22.3474C1486.82 16.5382 1471.83 9.24259 1457.47 0.539563C1438.92 -10.4352 1420.12 -23.5766 1400.38 -35.4221C1380.64 -47.2676 1359.43 -57.6349 1341.02 -63.1021" stroke="#DFDFE0" stroke-width="0.56" stroke-miterlimit="10"/>
<path opacity="0.32" d="M2181.22 869.674C2183.99 815.792 2190.54 747.716 2177.04 670.528C2169.16 625.556 2153.92 576.19 2134.18 530.934C2118.02 493.818 2097.46 458.646 2071.94 428.718C2062.25 417.298 2051.84 406.668 2040.44 398.973C2013.48 380.749 1984.85 380 1960.42 382.511C1953.31 383.24 1946.19 384.273 1939.35 385.568C1925.13 388.35 1911.12 392.365 1897.45 397.576C1891.55 399.841 1885.55 401.721 1879.47 403.205C1867.71 405.959 1854.57 406.263 1842.64 396.746C1829.32 386.176 1825.67 369.43 1824.68 354.811C1824.34 349.907 1824.25 344.985 1824.43 340.07C1824.96 326.726 1825.74 314.779 1826.67 302.893C1827.59 291.007 1828.45 278.939 1829.3 266.911C1831.33 236.538 1833.52 202.946 1816.11 166.235C1805.44 143.637 1786.75 121.688 1763.98 103.079C1749.15 90.9218 1733.07 80.8843 1716.09 73.192C1680.53 57.3575 1646.54 53.976 1613.57 51.8499C1581.22 49.825 1549.55 48.3671 1516.76 37.3923C1501.03 31.9551 1485.76 24.9279 1471.13 16.3945C1452.28 5.64241 1433.34 -7.37751 1413.38 -19.3647C1393.43 -31.3519 1372.27 -41.9015 1353.72 -48.0369" stroke="#DFDFE0" stroke-width="0.55" stroke-miterlimit="10"/>
<path opacity="0.29" d="M2186.8 894.741C2192.33 837.822 2201.44 767.681 2189.68 688.529C2182.85 642.645 2168.34 592.429 2148.78 546.525C2132.78 509.024 2112.04 473.629 2086.08 443.742C2076.22 432.342 2065.59 421.793 2053.92 414.26C2026.36 396.462 1997.02 396.786 1971.82 400.491C1964.44 401.558 1957.23 402.908 1950.18 404.541C1935.55 408.07 1921.19 412.904 1907.23 418.998C1901.24 421.623 1895.12 423.827 1888.89 425.6C1876.93 428.9 1863.64 429.649 1851.55 420.031C1838.09 409.421 1834.73 392.331 1834.16 377.266C1833.97 372.182 1834.06 367.089 1834.44 362.019C1835.53 348.148 1836.84 335.594 1838.26 323.08C1839.69 310.567 1841.15 297.871 1842.48 285.215C1845.86 253.162 1849.4 218.03 1832.68 179.922C1822.4 156.515 1803.89 133.816 1781.11 114.985C1766.28 102.647 1750.09 92.572 1732.97 85.0167C1696.99 69.4657 1662.44 67.0764 1628.78 66.0235C1595.79 65.011 1563.42 64.8085 1529.94 54.5829C1513.92 49.5113 1498.35 42.7318 1483.45 34.3343C1464.28 23.8049 1445.04 10.9268 1425.03 -1.14143C1405.02 -13.2096 1383.81 -24.1034 1365.14 -30.9272" stroke="#DFDFE0" stroke-width="0.54" stroke-miterlimit="10"/>
<path opacity="0.27" d="M2191.09 922.037C2199.37 862.06 2211.04 789.853 2201.01 708.737C2195.23 661.963 2181.45 610.895 2161.89 564.344C2145.99 526.458 2125.13 490.841 2098.7 461.075C2088.69 449.716 2077.86 439.207 2065.93 431.857C2037.74 414.463 2007.6 415.86 1981.78 420.76C1974.2 422.191 1966.8 423.939 1959.57 426.005C1944.53 430.318 1929.82 435.971 1915.57 442.912C1909.51 445.865 1903.29 448.368 1896.95 450.404C1884.75 454.231 1871.29 455.284 1859.07 445.707C1845.48 435.076 1842.39 417.622 1842.28 402.111C1842.24 396.852 1842.51 391.596 1843.08 386.378C1844.7 372.001 1846.64 358.82 1848.42 345.698C1850.2 332.577 1852.33 319.213 1854.2 305.93C1858.93 272.277 1863.84 235.525 1847.8 196.04C1837.94 171.742 1819.57 148.416 1796.72 129.321C1781.86 116.783 1765.54 106.657 1748.23 99.2314C1711.82 83.9639 1676.7 82.5668 1642.38 82.6073C1608.75 82.6073 1575.64 83.6602 1541.49 74.1838C1525.19 69.4942 1509.34 62.99 1494.16 54.7653C1474.77 44.4993 1455.3 31.7223 1435.11 19.5731C1415.77 7.64538 1395.69 -2.66149 1375.02 -11.2656" stroke="#DFDFE0" stroke-width="0.54" stroke-miterlimit="10"/>
<path opacity="0.24" d="M2194.06 951.641C2205.12 888.627 2219.33 814.355 2211.04 731.295C2206.29 683.589 2193.26 631.671 2173.85 584.492C2158.1 546.222 2137.1 510.382 2110.21 480.575C2100.04 469.236 2088.97 458.788 2076.79 451.6C2047.98 434.631 2017.08 437.102 1990.61 443.196C1982.85 444.992 1975.25 447.098 1967.83 449.514C1952.39 454.611 1937.33 461.097 1922.79 468.912C1916.63 472.251 1910.28 475.112 1903.78 477.477C1891.33 481.831 1877.67 483.269 1865.37 473.671C1851.65 462.979 1848.83 445.201 1849.16 429.245C1849.27 423.817 1849.71 418.404 1850.48 413.046C1852.67 398.163 1855.05 384.374 1857.49 370.625C1859.92 356.876 1862.45 342.864 1864.85 328.974C1870.93 293.721 1877.3 255.349 1861.84 214.467C1852.42 189.379 1834.21 165.344 1811.3 145.946C1796.4 133.234 1779.94 123.077 1762.45 115.795C1725.64 100.811 1689.95 100.406 1654.93 101.621C1620.67 102.735 1586.82 105.003 1552.02 96.215C1535.44 91.9117 1519.29 85.669 1503.83 77.5862C1484.05 67.4618 1464.35 54.8671 1444.11 42.6369C1424.55 30.5617 1404.36 19.8638 1383.65 10.6035" stroke="#DFDFE0" stroke-width="0.53" stroke-miterlimit="10"/>
<path opacity="0.22" d="M2195.68 983.694C2209.49 917.622 2226.23 841.265 2219.72 756.261C2215.4 704.625 2203.46 654.188 2184.42 607.068C2168.79 568.414 2147.64 532.33 2120.31 502.565C2109.96 491.246 2098.7 480.878 2086.24 473.872C2056.82 457.309 2025.17 460.873 1998.05 468.142C1990.08 470.288 1982.29 472.759 1974.68 475.553C1958.83 481.427 1943.42 488.733 1928.59 497.401C1922.34 501.096 1915.88 504.283 1909.24 506.939C1896.59 511.859 1882.72 513.661 1870.29 504.023C1856.46 493.311 1853.91 475.168 1854.68 458.767C1854.95 453.141 1855.57 447.545 1856.55 442.021C1859.27 426.612 1862.17 412.215 1865.13 397.839C1868.1 383.462 1871.13 368.822 1874.03 354.284C1881.44 317.451 1889.11 277.46 1874.42 235.181C1865.4 209.283 1847.35 184.559 1824.39 164.877C1809.46 151.972 1792.87 141.768 1775.2 134.626C1737.97 119.925 1701.72 120.452 1666.03 122.72C1631.12 124.907 1596.53 128.349 1561.11 120.33C1544.25 116.394 1527.82 110.414 1512.08 102.491C1491.97 92.6504 1472.03 80.1165 1451.62 67.785C1431.91 55.59 1411.67 44.5271 1390.99 34.6379" stroke="#DFDFE0" stroke-width="0.53" stroke-miterlimit="10"/>
<path opacity="0.2" d="M2195.87 1018.26C2212.46 949.13 2231.72 870.686 2226.99 783.738C2223.82 731.356 2212.5 680.032 2193.56 632.157C2178.07 593.117 2156.78 556.832 2128.99 527.106C2118.48 515.808 2107.01 505.481 2094.29 498.657C2064.24 482.458 2031.82 487.136 2004.06 495.62C1995.9 498.131 1987.92 500.959 1980.12 504.104C1963.86 510.75 1948.1 518.875 1932.98 528.402C1926.65 532.447 1920.07 535.966 1913.29 538.932C1900.44 544.379 1886.35 546.565 1873.81 536.907C1859.85 526.155 1857.58 507.668 1858.79 490.821C1859.22 485.013 1860.01 479.247 1861.17 473.569C1864.44 457.674 1867.87 442.649 1871.36 427.645C1874.84 412.641 1878.47 397.272 1881.87 382.207C1890.62 343.734 1899.65 302.144 1885.64 258.487C1877.05 231.739 1859.14 206.367 1836.15 186.402C1821.19 173.281 1804.46 163.022 1786.6 156.029C1748.96 141.612 1712.14 143.191 1675.78 146.492C1640.21 149.732 1604.91 154.369 1568.79 147.099C1551.66 143.536 1534.92 137.825 1518.89 130.07C1498.49 120.452 1478.31 108.04 1457.84 95.6475C1437.37 83.2553 1416.23 70.8834 1396.99 61.3867" stroke="#DFDFE0" stroke-width="0.52" stroke-miterlimit="10"/>
<path opacity="0.17" d="M2194.57 1055.44C2213.94 983.289 2235.72 902.74 2232.75 813.868C2230.73 760.788 2220.03 708.601 2201.22 659.978C2185.88 620.493 2164.43 584.046 2136.19 554.26C2125.52 542.981 2113.82 532.736 2100.84 526.074C2070.18 510.341 2037.01 516.051 2008.58 525.73C2000.28 528.591 1992.11 531.784 1984.09 535.307C1967.41 542.728 1951.29 551.673 1935.88 562.056C1929.47 566.467 1922.77 570.318 1915.85 573.577C1902.76 579.551 1888.48 582.122 1875.84 572.423C1861.76 561.63 1859.83 542.799 1861.4 525.507C1861.99 519.521 1862.97 513.593 1864.32 507.769C1868.14 491.327 1872.09 475.695 1876.09 460.063C1880.09 444.431 1884.18 428.536 1888.18 412.742C1898.28 372.71 1908.67 329.459 1895.29 284.426C1887.13 256.847 1869.37 230.787 1846.34 210.538C1831.34 197.266 1814.46 186.995 1796.44 180.165C1758.38 165.991 1720.98 168.583 1683.94 172.977C1647.73 177.29 1611.7 183.102 1574.93 176.622C1557.52 173.436 1540.5 168.001 1524.17 160.423C1503.51 150.926 1483.13 138.575 1462.52 126.101C1441.91 113.628 1420.89 100.872 1401.43 90.7068" stroke="#DFDFE0" stroke-width="0.52" stroke-miterlimit="10"/>
<path opacity="0.15" d="M2191.73 1095.37C2213.87 1020.16 2238.14 937.426 2236.97 846.712C2236.09 792.895 2226.02 739.788 2207.32 690.352C2192.1 650.523 2170.53 613.771 2141.83 584.147C2130.96 572.889 2119.06 562.704 2105.83 556.224C2074.55 540.896 2040.62 547.679 2011.58 558.553C2003.03 561.752 1994.68 565.303 1986.52 569.204C1969.44 577.415 1952.96 587.193 1937.26 598.443C1930.76 603.184 1923.94 607.36 1916.88 610.936C1903.6 617.456 1889.09 620.392 1876.34 610.673C1862.11 599.84 1860.33 580.644 1862.5 562.927C1863.26 556.765 1864.4 550.674 1865.94 544.703C1870.31 527.775 1874.83 511.515 1879.29 495.276C1883.75 479.036 1888.43 462.453 1892.97 446.031C1904.42 404.42 1916.08 359.529 1903.53 313.119C1895.78 284.771 1878.17 258.002 1855.11 237.449C1840.07 223.968 1823.06 213.636 1804.85 206.935C1766.37 193.064 1728.38 196.527 1690.7 202.115C1653.83 207.38 1617.09 214.487 1579.64 208.737C1561.97 205.921 1544.66 200.735 1528.07 193.287C1507.03 184.135 1486.38 171.965 1465.68 159.33C1444.98 146.695 1423.88 133.675 1404.37 122.882" stroke="#DFDFE0" stroke-width="0.51" stroke-miterlimit="10"/>
<path opacity="0.12" d="M2187.25 1138.11C2212.14 1059.87 2238.92 975.068 2239.55 882.39C2239.81 827.875 2230.37 773.865 2211.79 723.62C2196.69 683.406 2174.98 646.452 2145.83 616.849C2134.8 605.631 2122.71 595.507 2109.18 589.189C2077.29 574.286 2042.6 582.143 2012.86 594.231C2004.14 597.781 1995.59 601.689 1987.24 605.955C1969.74 614.947 1952.91 625.545 1936.93 637.644C1930.33 642.729 1923.41 647.231 1916.21 651.11C1902.69 658.176 1888 661.497 1875.15 651.737C1860.81 640.884 1859.35 621.364 1861.88 603.141C1862.8 596.788 1864.12 590.522 1865.85 584.39C1870.75 566.936 1875.77 550.069 1880.8 533.202C1885.83 516.334 1890.97 499.123 1896.04 482.074C1908.85 438.843 1921.95 392.331 1909.98 344.545C1902.68 315.305 1885.21 287.848 1862.09 267.093C1847.03 253.422 1829.88 243.042 1811.5 236.477C1772.61 222.89 1734.07 227.365 1695.68 234.007C1658.17 240.365 1620.7 248.647 1582.59 243.666C1564.66 241.194 1547.05 236.272 1530.15 229.006C1508.81 220.076 1487.93 208.028 1467.11 195.291C1446.28 182.555 1425.19 169.191 1405.54 157.669" stroke="#DFDFE0" stroke-width="0.5" stroke-miterlimit="10"/>
<path opacity="0.07" d="M2173.13 1232.49C2203.55 1148.15 2235.37 1059.1 2239.55 962.636C2242.03 906.777 2233.84 850.972 2215.54 799.067C2200.67 758.124 2178.73 720.684 2148.66 691.161C2137.29 679.984 2124.77 669.981 2110.74 664.028C2077.61 649.955 2041.39 659.979 2010.35 674.436C2001.25 678.675 1992.36 683.305 1983.68 688.327C1965.35 698.864 1947.82 711.109 1931.27 724.936C1924.52 730.693 1917.38 735.852 1909.93 740.366C1895.99 748.465 1880.87 752.515 1867.78 742.755C1853.2 731.821 1852.26 711.572 1855.73 692.538C1856.95 685.815 1858.63 679.208 1860.74 672.776C1866.75 654.329 1872.78 636.186 1878.86 618.104C1884.95 600.022 1891.13 581.515 1897.25 563.21C1912.74 516.8 1928.53 467.029 1917.99 416.468C1911.48 385.568 1894.37 356.835 1871.16 335.473C1855.98 321.366 1838.46 310.873 1819.65 304.614C1779.92 291.574 1740.24 298.053 1700.5 306.862C1661.69 315.366 1622.76 326.017 1583.32 322.534C1564.86 320.788 1546.67 316.393 1529.17 309.453C1507.23 300.99 1485.87 289.205 1464.81 276.266C1443.76 263.327 1422.67 249.254 1402.8 236.396" stroke="#DFDFE0" stroke-width="0.49" stroke-miterlimit="10"/>
<path opacity="0.05" d="M2163.18 1284.33C2196.37 1196.95 2230.62 1105.73 2236.67 1007.4C2240.04 952.227 2233.11 893.729 2214.54 841.366C2199.82 800.018 2177.71 762.396 2147.2 732.873C2135.66 721.736 2122.92 711.794 2108.63 706.003C2074.84 692.335 2037.92 703.432 2006.23 719.084C1996.91 723.701 1987.8 728.695 1978.9 734.068C1960.16 745.394 1942.27 758.458 1925.42 773.128C1918.57 779.254 1911.3 784.752 1903.69 789.57C1889.46 798.256 1874.2 802.67 1861.01 792.83C1846.32 781.875 1845.64 761.262 1849.54 741.783C1850.94 734.884 1852.79 728.115 1855.09 721.534C1861.63 702.581 1868.19 683.831 1874.79 665.081C1881.39 646.33 1888.11 627.216 1894.76 608.283C1911.6 560.274 1928.76 508.882 1918.89 456.944C1912.79 425.215 1895.78 395.814 1872.66 374.107C1857.52 359.885 1839.96 349.379 1821.09 343.248C1780.93 330.491 1740.69 337.983 1700.28 347.845C1660.82 357.442 1621.18 369.247 1581.13 366.554C1562.42 365.163 1543.94 361.032 1526.15 354.263C1503.88 346.022 1482.29 334.318 1461.13 321.319C1439.97 308.319 1418.93 293.862 1398.89 280.335" stroke="#DFDFE0" stroke-width="0.49" stroke-miterlimit="10"/>
<path opacity="0.02" d="M2151.32 1339.32C2187.35 1248.97 2224.04 1155.61 2231.81 1055.39C2236.2 999.266 2230.03 939.977 2211.59 887.047C2197.01 845.295 2174.76 807.43 2143.78 777.988C2132.08 766.871 2119.12 756.99 2104.66 751.381C2070.28 738.118 2032.57 750.308 2000.22 767.155C1990.73 772.096 1981.43 777.448 1972.32 783.212C1953.17 795.335 1934.94 809.225 1917.79 824.742C1910.85 831.205 1903.47 837.028 1895.72 842.156C1881.35 851.369 1865.81 856.168 1852.53 846.206C1837.7 835.19 1837.32 814.233 1841.63 794.329C1843.2 787.277 1845.22 780.367 1847.69 773.655C1854.8 754.175 1861.92 734.818 1869.03 715.44L1890.58 656.719C1908.76 607.109 1927.32 554.078 1918.11 500.804C1912.46 468.224 1895.63 438.154 1872.34 416.164C1857.14 401.747 1839.41 391.198 1820.34 385.224C1779.76 372.751 1738.96 381.174 1697.86 392.19C1657.78 402.841 1617.39 415.84 1576.62 413.896C1557.64 412.86 1538.87 408.993 1520.78 402.395C1498.21 394.296 1476.32 382.794 1455.1 369.693C1433.89 356.593 1412.8 341.811 1392.59 327.596" stroke="#DFDFE0" stroke-width="0.48" stroke-miterlimit="10"/>
</g>
<g opacity="0.3">
<path d="M-581 12.1552C-563.915 -2.53701 -538.68 -1.68938 -519.382 9.09436C-500.084 19.8781 -485.501 38.9262 -473.629 58.822C-443.14 109.939 -426.055 168.99 -401.979 223.992C-377.902 278.994 -343.691 332.748 -292.663 357.494C-212.967 396.108 -122.267 353.444 -40.6472 320.01C-19.2805 311.251 3.40998 302.986 25.9143 306.942C54.7687 312.004 78.1004 336.703 91.5245 365.028C104.948 393.353 110.14 425.328 115.808 456.619C134.01 557.393 160.341 660.639 221.876 738.291C283.411 815.943 418.996 886.626 567.922 823.972" stroke="#737373" stroke-width="0.71" stroke-miterlimit="10"/>
<path opacity="0.98" d="M565.543 829.788C481.959 862.752 402.904 851.215 338.948 820.253C293.319 798.144 255.488 766.216 229.922 733.135C206.672 702.637 187.187 668.669 172.007 632.173C166.049 618.046 160.589 603.919 155.459 589.415C143.818 555.597 134.009 520.999 126.088 485.816C123.757 475.644 121.53 465.496 119.407 455.371C114.939 434.063 110.719 412.496 103.707 392.129C100.876 383.717 97.4589 375.576 93.4894 367.783C86.5869 354.43 77.7631 342.491 67.386 332.465C55.7822 321.305 42.5651 312.876 27.9621 309.721C22.4038 308.561 16.752 308.088 11.1045 308.308C-4.96709 308.896 -20.9146 314.382 -36.1588 320.08C-51.403 325.778 -66.8541 331.853 -82.5533 337.669C-122.494 352.337 -163.635 364.981 -204.466 365.146C-230.913 365.71 -257.167 359.917 -281.514 348.146C-297.664 340 -312.687 329.221 -326.109 316.148C-354.467 288.954 -376.123 253.353 -393.209 217.282C-410.583 180.834 -424.628 142.596 -441.878 105.842C-449.773 88.7975 -458.594 72.3308 -468.292 56.5382C-480.516 36.925 -495.181 18.0182 -514.728 7.09317C-534.274 -3.83184 -559.447 -5.05619 -576.78 8.85906" stroke="#737373" stroke-width="0.71" stroke-miterlimit="10"/>
<path opacity="0.97" d="M565.047 834.78C484.668 864.211 408.861 849.896 346.663 817.003C302.42 793.576 265.292 760.918 239.83 727.084C216.754 696.077 197.141 661.935 181.438 625.439C175.233 611.453 169.586 597.185 164.229 583.057C151.977 550.322 141.377 516.818 132.479 482.708C129.914 472.944 127.467 463.22 125.136 453.535C120.213 433.121 115.559 412.519 108.237 393.141C105.264 385.089 101.707 377.332 97.6056 369.949C90.2816 357.048 81.2697 345.495 70.8817 335.691C59.1538 324.507 46.2262 315.63 32.1403 311.981C26.8104 310.629 21.3637 309.965 15.9032 310.003C0.452168 310.003 -14.8748 314.712 -29.6019 319.798C-44.329 324.884 -59.0975 330.134 -74.1763 335.173C-112.545 348.005 -152.073 358.718 -192.076 357.305C-236.623 356.648 -279.602 338.491 -313.74 305.906C-342.47 279.041 -364.789 244.688 -382.742 209.794C-400.779 174.524 -415.672 137.652 -433.708 101.792C-442.009 85.1062 -451.153 68.982 -461.094 53.5009C-473.691 34.1467 -488.645 15.3811 -508.295 4.36191C-527.945 -6.65727 -553.138 -8.30544 -570.534 4.83282" stroke="#737373" stroke-width="0.7" stroke-miterlimit="10"/>
<path opacity="0.95" d="M566.308 838.994C489.136 864.894 416.576 847.824 356.137 813.095C313.259 788.396 276.916 754.867 251.475 720.373C228.61 688.836 208.856 654.537 192.567 618.093C186.196 604.13 180.259 589.956 174.592 575.947C161.743 544.193 150.344 511.704 140.442 478.611C137.685 469.193 135.023 459.884 132.458 450.686C127.06 431.214 121.93 411.577 114.318 393.165C111.191 385.481 107.503 378.109 103.294 371.127C95.5439 358.686 86.345 347.502 75.9493 337.881C64.0766 326.65 51.48 317.349 37.8905 313.229C32.7829 311.687 27.5353 310.826 22.2532 310.662C7.44337 310.074 -7.26304 314.1 -21.2869 318.409C-35.3107 322.717 -49.5621 327.285 -64.0203 331.594C-100.817 342.566 -138.752 351.278 -178.052 348.358C-204.343 346.619 -230.127 339.371 -254.108 326.979C-270.374 318.397 -285.656 307.58 -299.613 294.769C-328.839 268.257 -351.82 234.988 -370.559 201.412C-389.361 167.46 -405.102 131.954 -423.904 96.9655C-432.572 80.5941 -441.997 64.7574 -452.138 49.5218C-465.086 30.4266 -480.33 11.8493 -500.104 0.665347C-519.878 -10.5187 -545.072 -12.4258 -562.632 -0.158743" stroke="#737373" stroke-width="0.69" stroke-miterlimit="10"/>
<path opacity="0.93" d="M569.204 842.573C495.237 864.918 425.966 845.14 367.244 808.362C325.876 782.462 290.134 748.063 264.795 712.862C242.088 680.825 222.171 646.35 205.329 609.923C198.772 595.96 192.566 581.88 186.609 568.059C172.523 535.355 160.382 504.487 150.143 473.878C147.137 464.931 144.255 456.046 141.497 447.225C135.644 428.648 130.059 410 122.116 392.553C118.846 385.227 115.034 378.232 110.719 371.644C102.527 359.709 93.1422 348.9 82.7542 339.435C70.7161 328.18 58.4711 318.456 45.378 313.817C40.497 312.106 35.4575 311.047 30.3613 310.662C16.1513 309.508 2.08609 312.805 -11.3379 316.384C-24.7619 319.963 -38.3928 323.777 -52.2512 327.356C-87.4142 336.468 -123.798 343.249 -162.332 338.775C-188.468 335.848 -213.976 327.887 -237.767 315.23C-254.031 306.467 -269.396 295.689 -283.583 283.091C-313.285 256.885 -336.989 224.816 -356.453 192.441C-375.917 160.067 -392.588 125.62 -412.176 91.5264C-421.215 75.8688 -430.792 60.2112 -441.547 45.001C-454.847 26.1648 -470.361 7.68172 -490.279 -3.54937C-510.198 -14.7805 -535.35 -17.2763 -553.076 -5.69199" stroke="#737373" stroke-width="0.69" stroke-miterlimit="10"/>
<path opacity="0.91" d="M573.631 845.634C502.891 864.47 436.888 841.938 379.882 803.253C341.687 777.396 307.757 744.136 279.626 704.975C257.102 672.428 237.035 637.772 219.642 601.376C212.899 587.46 206.446 573.427 200.199 559.818C185.368 527.585 172.358 497.894 161.354 468.839C158.127 460.3 155.025 451.832 152.046 443.434C145.738 425.775 139.636 408.116 131.362 391.634C127.917 384.686 123.966 378.078 119.551 371.88C110.931 360.461 101.357 350.021 90.966 340.706C78.783 329.404 66.869 319.256 54.2723 314.123C49.5903 312.239 44.7312 310.982 39.7934 310.38C26.2039 308.661 12.7592 311.204 -0.0649246 314.076C-12.8891 316.949 -25.8995 320.01 -39.1373 322.835C-72.8111 330.111 -107.395 334.937 -145.268 328.91C-171.222 324.843 -196.466 316.225 -220.103 303.363C-236.41 294.333 -251.889 283.48 -266.311 270.965C-296.51 245.065 -320.897 214.197 -341.126 183.07C-361.355 151.944 -378.73 118.768 -399.042 85.546C-408.453 70.3122 -418.381 54.9372 -429.406 39.9388C-443.078 21.3616 -458.86 3.01984 -478.903 -8.32898C-498.946 -19.6778 -524.098 -22.4561 -541.969 -11.7666" stroke="#737373" stroke-width="0.68" stroke-miterlimit="10"/>
<path opacity="0.9" d="M579.505 848.271C511.992 863.552 449.195 838.359 393.968 797.602C356.686 770.188 323.566 736.057 295.905 696.546C273.538 663.494 253.304 628.643 235.362 592.264C228.412 578.372 221.731 564.433 215.154 551.012C199.62 519.273 185.741 490.831 173.971 463.165C170.524 455.034 167.194 446.989 163.981 439.031C157.217 422.267 150.743 405.573 142.18 390.057C138.582 383.474 134.5 377.252 129.976 371.456C120.931 360.569 111.168 350.485 100.77 341.295C88.3598 329.946 76.8801 319.374 64.7799 313.747C60.345 311.701 55.7145 310.255 50.9835 309.438C38.0145 307.083 25.1904 308.943 12.966 311.063C0.7417 313.182 -11.6481 315.536 -24.2654 317.655C-56.3466 323.047 -89.4205 325.967 -126.445 318.362C-152.182 313.119 -177.153 303.823 -200.639 290.743C-216.997 281.519 -232.611 270.678 -247.303 258.345C-276.081 233.958 -301.886 205.328 -324.041 173.205C-345.18 142.973 -363.361 111.493 -384.48 79.1652C-394.263 64.3317 -404.523 49.2627 -415.837 34.4292C-429.861 16.111 -445.912 -2.08951 -466.1 -13.5325C-486.287 -24.9755 -511.398 -28.2954 -529.455 -18.2416" stroke="#737373" stroke-width="0.68" stroke-miterlimit="10"/>
<path opacity="0.88" d="M586.703 850.602C522.396 862.375 462.97 834.474 409.378 791.739C373.045 762.772 340.729 727.772 313.507 687.904C291.314 654.347 270.911 619.303 252.406 582.963C245.27 569.095 238.34 555.227 231.473 542.018C215.216 510.75 200.447 483.555 187.913 457.255C184.231 449.532 180.687 441.904 177.281 434.369C170.062 418.523 163.133 402.818 154.239 388.267C150.475 382.054 146.262 376.21 141.642 370.797C133.555 361.379 123.13 351.961 111.816 341.695C99.4051 330.299 88.1322 319.303 76.5077 313.182C72.302 310.954 67.8792 309.303 63.3319 308.261C50.9214 305.388 38.7798 306.448 27.1553 307.86C15.5308 309.273 3.76151 310.874 -8.25598 312.24C-38.7858 315.795 -70.3084 316.76 -106.485 307.531C-132.019 301.138 -156.764 291.19 -180.162 277.911C-196.549 268.416 -212.274 257.506 -227.198 245.277C-256.21 221.501 -282.601 193.832 -305.797 162.869C-327.702 134.049 -346.669 103.864 -368.615 72.4783C-378.73 57.998 -389.299 43.2822 -400.965 28.7077C-415.444 10.6485 -431.681 -7.41076 -451.993 -18.9715C-472.305 -30.5322 -497.498 -34.2524 -515.617 -25.0226" stroke="#737373" stroke-width="0.67" stroke-miterlimit="10"/>
<path opacity="0.86" d="M595.101 852.745C534.02 860.939 477.904 830.448 426.008 785.641C390.649 755.126 359.123 719.248 332.309 679.004C310.052 645.052 289.782 609.169 270.752 573.404C263.41 559.583 256.274 545.762 249.055 532.765C232.094 501.967 216.436 476.044 203.136 451.157C199.247 443.842 195.483 436.637 191.842 429.542C184.169 414.591 176.784 399.875 167.58 386.29C163.661 380.444 159.316 374.986 154.59 369.973C146.317 361.143 135.582 352.267 124.143 341.883C111.547 330.44 100.646 319.021 89.518 312.405C85.5378 310.018 81.3234 308.177 76.9627 306.918C65.2348 303.434 53.6517 303.811 42.627 304.564C31.6024 305.317 20.4537 306.094 9.05669 306.754C-19.9011 308.449 -49.7277 307.484 -85.2217 296.747C-110.47 289.134 -134.932 278.479 -158.195 264.961C-174.634 255.265 -190.485 244.331 -205.645 232.233C-234.965 209.051 -262.01 182.346 -286.313 152.579C-309.066 125.008 -328.757 96.0706 -351.509 65.6737C-361.976 51.5465 -372.938 37.1839 -384.832 22.8213C-399.579 5.04465 -416.189 -12.8733 -436.542 -24.5518C-456.895 -36.2302 -482.047 -40.3506 -500.456 -31.8979" stroke="#737373" stroke-width="0.67" stroke-miterlimit="10"/>
<path opacity="0.85" d="M604.636 854.817C546.721 859.526 493.935 826.351 443.734 779.472C409.401 747.416 378.667 710.668 352.228 670.057C330.096 635.634 309.701 599.539 290.072 563.798C282.543 550 275.117 536.25 267.629 523.464C249.944 493.162 233.397 468.463 219.353 444.965C215.216 438.074 211.231 431.285 207.397 424.598C199.655 410.543 191.144 397.056 181.914 384.218C177.816 378.765 173.341 373.694 168.532 369.055C159.927 360.814 149.026 352.408 137.505 341.978C124.743 330.511 114.194 318.668 103.563 311.534C99.7902 309.011 95.7797 306.981 91.6073 305.482C80.4999 301.409 69.5579 301.056 59.1331 300.985C48.7083 300.915 38.1594 300.985 27.3829 300.985C-3.24531 301.261 -33.7229 296.081 -62.9448 285.634C-87.9205 276.845 -112.15 265.514 -135.339 251.776C-151.813 241.847 -167.791 230.889 -183.202 218.954C-212.769 196.313 -240.401 170.559 -265.732 142.031C-289.167 115.708 -309.769 88.2302 -333.225 58.6103C-344.084 44.954 -355.377 30.8269 -367.54 16.6762C-382.66 -0.841498 -399.538 -18.6417 -420.119 -30.4144C-440.699 -42.187 -465.769 -46.7312 -484.24 -39.0555" stroke="#737373" stroke-width="0.66" stroke-miterlimit="10"/>
<path opacity="0.83" d="M615.144 856.889C560.496 857.995 510.999 822.301 462.453 773.35C429.191 739.754 399.249 702.125 373.16 661.133C351.214 626.239 330.612 589.909 310.466 554.214C302.73 540.44 295.056 526.784 287.279 514.187C268.87 484.379 251.433 460.952 236.624 438.843C232.28 432.375 228.074 426.01 224.006 419.747C215.814 406.612 206.895 394.084 197.303 382.24C193.048 377.121 188.442 372.397 183.527 368.113C174.675 360.46 163.526 352.526 151.839 342.072C138.932 330.534 128.735 318.291 118.6 310.662C115.04 307.981 111.232 305.754 107.244 304.022C96.7368 299.313 86.4361 298.301 76.6111 297.5C66.7861 296.7 56.8577 296.088 46.7017 295.146C17.1716 293.066 -11.934 286.094 -39.6959 274.45C-64.3376 264.451 -88.3111 252.435 -111.429 238.496C-128.1 228.395 -144.254 217.046 -159.685 205.533C-189.537 183.408 -217.785 158.599 -244.159 131.341C-268.338 106.525 -289.788 80.3894 -314.092 51.6642C-325.303 38.4082 -336.844 24.5872 -349.379 10.6719C-364.851 -6.58676 -382.019 -24.1986 -402.723 -36.1361C-423.428 -48.0735 -448.497 -52.9709 -467.175 -46.0722" stroke="#737373" stroke-width="0.65" stroke-miterlimit="10"/>
<path opacity="0.81" d="M626.52 859.173C575.078 856.818 528.891 818.486 482.041 767.346C449.863 732.261 420.697 693.763 394.94 652.375C373.18 617.057 352.372 580.42 331.709 544.773C323.766 531.022 315.844 517.437 307.756 505.052C288.624 475.691 270.339 453.511 254.764 432.792C250.186 426.717 245.759 420.776 241.484 414.968C232.829 402.755 223.503 391.179 213.561 380.309C209.118 375.615 204.375 371.302 199.372 367.406C190.27 360.343 178.874 352.902 167.063 342.401C154.032 330.841 144.166 318.173 134.506 310.027C131.195 307.224 127.639 304.818 123.895 302.845C114.735 298.367 105.036 295.478 95.1234 294.275C85.9603 292.768 76.5077 291.402 67.0344 289.848C42.7719 285.987 17.8268 279.253 -15.4127 263.807C-39.7108 252.616 -63.4505 239.913 -86.5247 225.758C-103.238 215.469 -119.619 204.073 -135.195 192.795C-165.361 171.141 -194.25 147.262 -221.675 121.311C-246.62 97.5541 -268.918 72.7373 -294.069 44.9068C-305.632 32.0511 -317.608 18.5361 -330.349 4.87988C-346.173 -12.1198 -363.61 -29.6139 -384.459 -41.622C-405.309 -53.6301 -430.254 -59.022 -449.056 -52.9237" stroke="#737373" stroke-width="0.65" stroke-miterlimit="10"/>
<path opacity="0.8" d="M638.765 861.951C590.53 855.971 547.755 815.19 502.498 761.954C471.484 725.383 443.123 686.012 417.693 644.228C396.119 608.392 375.125 571.567 353.903 535.92C345.795 522.217 337.624 508.701 329.227 496.505C309.39 467.639 290.196 446.707 273.876 427.376L259.914 410.894C250.803 399.597 241.069 388.972 230.77 379.085C226.148 374.791 221.276 370.858 216.188 367.312C206.818 360.837 195.214 353.868 183.279 343.343C170.083 331.735 160.527 318.644 151.405 310.003C148.259 307.038 144.872 304.421 141.29 302.186C132.818 297.211 123.763 293.643 114.401 291.591C105.858 289.236 97.0884 287.235 88.1529 284.974C65.4003 279.229 42.1306 270.588 9.65649 253.541C-10.8829 242.781 -35.166 229.619 -60.8351 213.514C-77.5892 202.99 -94.0331 191.547 -109.919 180.386C-140.372 159.219 -169.851 136.287 -198.24 111.681C-223.95 89.1955 -247.075 65.7444 -272.91 38.8086C-284.865 26.3532 -297.172 13.1443 -310.141 -0.347141C-326.316 -17.0878 -344.022 -34.4642 -365.016 -46.5665C-386.011 -58.6688 -411.225 -64.6022 -430.233 -59.2574" stroke="#737373" stroke-width="0.64" stroke-miterlimit="10"/>
<path opacity="0.78" d="M651.651 865.365C606.643 855.829 567.032 812.553 523.596 757.057C493.679 719.025 466.038 678.751 440.859 636.505C419.451 600.222 398.27 563.138 376.531 527.585C368.258 513.905 359.798 500.461 351.11 488.453C330.53 460.198 310.466 440.397 293.381 422.526L278.778 407.221C269.203 396.856 259.061 387.191 248.414 378.284C243.62 374.394 238.619 370.848 233.438 367.665C223.8 361.755 211.948 355.281 199.889 344.709C186.547 333.077 177.364 319.586 168.697 310.427C165.755 307.313 162.578 304.5 159.203 302.021C151.415 296.555 143.018 292.302 134.237 289.377C126.274 286.411 118.124 283.562 109.809 280.548C88.6907 272.966 66.993 262.418 35.3463 243.794C15.324 232.021 -8.81441 218.106 -34.5455 201.601C-51.2997 190.864 -67.909 179.374 -84.0219 168.355C-118.089 145.092 -147.812 123.619 -174.288 102.428C-200.763 81.2372 -224.716 59.1047 -251.336 33.0636C-263.643 21.0084 -276.281 8.10562 -289.602 -5.17391C-306.149 -21.6556 -324.124 -38.8672 -345.242 -51.1107C-366.361 -63.3543 -391.533 -69.5231 -410.707 -64.9789" stroke="#737373" stroke-width="0.64" stroke-miterlimit="10"/>
<path opacity="0.76" d="M665.096 869.509C623.314 856.441 586.992 810.646 545.272 753.054C516.538 713.585 489.653 672.418 464.728 629.724C443.527 592.97 422.14 555.627 399.884 520.144C391.362 506.465 382.695 493.091 373.697 481.318C352.413 453.417 331.46 434.981 313.713 418.429C308.473 413.579 303.385 408.869 298.449 404.302C288.38 394.918 277.796 386.275 266.76 378.425C261.786 374.968 256.648 371.824 251.371 369.007C241.484 363.71 229.405 357.706 217.222 347.11C203.736 335.338 194.904 321.517 186.713 311.792C183.959 308.543 180.993 305.536 177.839 302.798C170.648 296.841 162.839 291.915 154.59 288.129C147.227 284.433 139.698 280.854 132.003 277.11C112.436 267.692 92.3724 255.19 61.3875 234.988C41.8824 222.25 17.9508 207.557 -7.88366 190.699C-24.6585 179.75 -41.4127 168.237 -57.7532 157.383C-92.3164 134.426 -122.701 114.177 -149.963 94.1635C-177.466 73.8486 -203.974 51.8403 -229.37 28.2367C-242.049 16.6054 -255.018 3.98509 -268.669 -9.08253C-285.527 -25.3759 -303.791 -42.4462 -324.951 -54.8074C-346.111 -67.1687 -371.263 -73.6436 -390.582 -69.947" stroke="#737373" stroke-width="0.63" stroke-miterlimit="10"/>
<path opacity="0.74" d="M679.016 874.524C640.44 857.901 607.408 809.681 567.322 749.852C541.322 710.979 513.336 666.831 488.97 623.72C467.934 586.495 446.382 548.94 423.567 513.481C415.233 500.088 406.256 487.229 396.678 474.961C374.67 447.531 352.848 430.366 334.232 415.203C328.716 410.745 323.407 406.484 318.305 402.418C307.809 393.885 296.845 386.122 285.48 379.179C280.846 376.448 275.655 373.622 269.718 370.867C259.542 366.158 247.255 360.602 234.928 349.983C221.317 338.21 212.816 323.942 205.122 313.747C202.547 310.361 199.783 307.168 196.848 304.187C190.269 297.742 183.091 292.136 175.44 287.47C168.697 283.02 161.768 278.711 154.756 274.238C136.761 262.936 118.31 248.573 88.0908 226.77C69.1027 213.044 45.2746 197.598 19.4401 180.41C2.62388 169.226 -14.2751 157.665 -30.8431 146.976C-65.9027 124.349 -96.9289 105.3 -124.977 86.4642C-153.308 67.5511 -180.618 46.7233 -206.762 24.0928C-219.813 12.8382 -233.113 0.547571 -247.013 -12.3081C-264.264 -28.2483 -282.797 -45.2715 -304.184 -57.6563C-325.572 -70.0411 -350.517 -77.0812 -370.022 -74.138" stroke="#737373" stroke-width="0.63" stroke-miterlimit="10"/>
<path opacity="0.73" d="M693.288 880.528C657.939 860.374 628.154 809.704 589.868 747.639C565.254 707.612 537.971 662.546 513.709 618.705C492.859 581.033 471.099 543.219 447.788 507.807C439.264 494.432 430.021 481.669 420.113 469.593C397.36 442.657 374.608 426.74 355.309 412.966C349.628 408.917 344.112 405.071 338.762 401.429C327.807 393.821 316.435 387.018 304.716 381.063C299.959 378.708 294.622 376.354 288.541 373.881C278.199 369.737 265.602 364.675 253.15 354.033C239.375 342.26 231.225 327.544 224.027 316.831C221.637 313.289 219.075 309.901 216.353 306.683C210.363 299.731 203.819 293.425 196.807 287.847C190.602 282.691 184.396 277.628 177.881 272.425C161.458 259.287 144.641 242.993 115.187 219.589C96.6955 204.921 73.0329 188.674 47.1363 171.157C30.2994 159.784 13.235 148.176 -3.56056 137.628C-39.0959 115.307 -70.784 97.4364 -99.6178 79.8952C-128.776 62.3956 -156.891 42.7322 -183.782 21.032C-197.185 10.2012 -210.836 -1.80691 -225.005 -14.4507C-242.628 -30.1083 -261.43 -46.9196 -282.921 -59.4928C-304.412 -72.066 -329.419 -79.365 -349.069 -77.1518" stroke="#737373" stroke-width="0.62" stroke-miterlimit="10"/>
<path opacity="0.71" d="M707.829 887.639C675.665 863.929 649.128 810.858 612.682 746.509C589.433 705.516 562.895 659.391 538.736 614.82C518.222 576.366 496.013 539.117 472.195 503.216C463.482 489.866 453.987 477.201 443.775 465.308C420.34 438.843 396.74 424.174 376.614 411.813C370.698 408.156 364.948 404.726 359.363 401.524C347.991 394.824 336.244 388.98 324.2 384.029C319.319 382.075 313.858 380.027 307.653 377.978C296.939 374.447 284.197 369.855 271.642 359.142C257.721 347.369 249.903 332.206 243.201 320.975C240.678 316.761 238.278 313.229 236.148 310.239C230.711 302.814 224.792 295.865 218.442 289.448C212.878 283.538 207.19 277.676 201.357 271.813C186.361 256.862 171.179 238.685 142.511 213.609C124.536 197.951 101.018 180.952 75.0805 163.081C58.2022 151.496 41.0137 139.842 23.97 129.458C-12.0825 107.655 -44.4325 90.8203 -74.0522 74.5505C-104.009 58.4473 -132.922 39.9412 -160.574 19.172C-174.37 8.76504 -188.332 -3.00759 -202.79 -15.3689C-220.786 -30.791 -239.856 -47.4611 -261.513 -60.1049C-283.169 -72.7487 -308.093 -80.707 -327.888 -79.1765" stroke="#737373" stroke-width="0.61" stroke-miterlimit="10"/>
<path opacity="0.69" d="M722.494 895.974C693.536 868.732 670.225 813.26 635.497 746.626C613.592 704.598 587.799 657.437 563.743 612.136C543.428 573.215 521.048 535.74 496.727 499.919C487.842 486.554 478.093 473.961 467.562 462.247C443.403 436.347 418.934 422.855 398.043 411.86C391.893 408.72 385.922 405.715 380.13 402.842C368.256 397.055 356.061 392.163 343.623 388.197C338.638 386.643 332.991 384.995 326.682 383.299C315.699 380.38 302.73 376.236 290.03 365.523C275.986 353.75 268.498 338.14 262.272 326.391C259.955 321.988 257.763 318.267 255.839 315.065C250.946 307.121 245.656 299.503 239.995 292.25C235.031 285.61 229.963 279.065 224.73 272.425C211.43 255.543 197.841 235.482 169.917 208.853C152.46 192.23 129.107 174.429 103.107 156.252C86.2085 144.48 68.8545 132.707 51.6039 122.512C15.0964 100.85 -17.9155 85.3106 -48.3212 70.2652C-78.7269 55.2197 -106.733 40.0095 -137.263 18.4656C-151.37 8.45882 -165.683 -3.00771 -180.431 -15.1571C-198.778 -30.2967 -218.117 -46.8255 -239.918 -59.5163C-261.72 -72.2072 -286.603 -80.7071 -306.563 -79.9536" stroke="#737373" stroke-width="0.61" stroke-miterlimit="10"/>
<path opacity="0.68" d="M737.201 905.651C711.47 874.877 691.344 817.003 658.415 748.086C637.855 705.022 612.91 656.848 588.854 610.817C568.7 571.42 546.126 533.693 521.3 497.918C512.231 484.587 502.228 472.114 491.39 460.622C466.569 435.122 441.148 422.95 419.492 413.367C413.135 410.541 406.93 407.951 400.876 405.597C388.554 400.711 375.957 396.778 363.169 393.824C358.06 392.647 352.248 391.47 345.815 390.057C334.563 387.702 321.387 384.053 308.584 373.293C294.374 361.379 287.217 345.486 281.508 333.266C279.44 328.698 277.371 324.766 275.696 321.493C270.649 311.463 266.016 303.952 261.672 296.629C257.328 289.307 252.861 281.984 248.248 274.591C236.52 255.872 224.565 233.905 197.386 205.697C180.425 188.109 157.238 169.532 131.197 151.025C114.256 138.994 96.7574 127.268 79.2793 117.167C42.2754 95.8352 8.62224 81.4726 -22.5901 67.7221C-53.8025 53.9717 -82.5741 40.08 -113.849 19.3602C-128.327 9.73015 -143.013 -1.35966 -158.051 -13.3442C-176.666 -28.2248 -196.378 -44.6123 -218.304 -57.5151C-240.229 -70.4179 -264.967 -79.2709 -285.196 -79.3887" stroke="#737373" stroke-width="0.6" stroke-miterlimit="10"/>
<path opacity="0.66" d="M751.824 916.765C729.32 882.459 712.359 822.207 681.271 750.982C662.014 706.882 637.731 657.696 613.882 610.935C593.929 571.058 571.178 533.082 545.852 497.376C536.6 484.046 526.343 471.661 515.198 460.363C489.591 435.358 463.363 424.433 440.942 416.239C434.364 413.885 427.952 411.648 421.705 409.741C408.924 405.756 395.918 402.774 382.778 400.817L365.031 398.204C353.51 396.461 340.106 393.259 327.158 382.452C312.803 370.514 305.978 354.197 300.765 341.412C298.821 336.703 297.042 332.489 295.553 328.933C291.147 318.291 287.134 310.097 283.39 302.021C279.647 293.945 275.799 285.916 271.807 277.793C261.631 257.215 251.309 233.363 224.875 203.531C208.328 184.978 185.389 165.623 159.306 146.764C142.405 134.404 124.936 123.078 106.975 112.835C69.4957 91.8091 35.2014 78.6237 3.18232 66.0741C-28.4851 53.6657 -58.4151 41.0455 -90.4341 21.2204C-105.347 11.9906 -120.302 1.20689 -135.629 -10.5657C-154.679 -25.1874 -174.598 -41.4336 -196.647 -54.4306C-218.697 -67.4276 -243.621 -76.4689 -263.912 -77.3872" stroke="#737373" stroke-width="0.6" stroke-miterlimit="10"/>
<path opacity="0.64" d="M766.283 929.385C746.984 891.524 733.188 828.917 703.92 755.362C685.987 710.249 662.552 660.027 638.744 612.536C618.946 572.181 595.975 533.952 570.114 498.318C560.672 484.999 550.16 472.71 538.716 461.611C512.385 437.077 485.268 427.423 462.184 420.595C455.386 418.602 448.753 416.851 442.286 415.344C429.036 412.268 415.614 410.247 402.118 409.293C396.781 408.917 390.659 408.469 383.978 407.834C372.188 406.703 358.557 403.949 345.484 393.118C331.005 381.11 324.49 364.44 319.774 351.089C318.037 346.169 316.465 341.789 315.182 338.022C311.397 326.791 308.005 317.844 304.84 309.085C301.675 300.326 298.449 291.52 295.077 282.643C286.473 260.228 277.764 234.47 252.095 203.06C236.148 183.518 213.271 163.41 187.147 144.197C170.2 131.62 152.584 120.25 134.403 110.151C96.4058 89.5251 61.4497 77.4935 28.748 66.1918C-3.66404 55.0313 -34.4627 43.7767 -67.2678 24.8463C-83.1293 15.5015 -98.5404 5.19749 -113.435 -6.02156C-132.857 -20.3606 -153.024 -36.4891 -175.218 -49.6038C-197.412 -62.7186 -222.358 -72.1602 -242.793 -73.8555" stroke="#737373" stroke-width="0.59" stroke-miterlimit="10"/>
<path opacity="0.62" d="M780.451 943.724C764.38 902.331 753.686 837.346 726.3 761.507C709.753 715.358 687 664.1 663.317 615.88C643.501 575.452 620.645 536.108 594.149 501.002C584.507 487.692 573.734 475.499 561.985 464.601C534.951 440.538 506.945 432.132 483.013 426.717C475.981 425.116 469.134 423.797 462.453 422.714C448.747 420.541 434.923 419.471 421.085 419.512C415.604 419.512 409.357 419.512 402.469 419.206C390.41 418.688 376.552 416.381 363.355 405.503C348.732 393.471 342.568 376.401 338.348 362.533C336.797 357.423 335.432 352.832 334.377 348.876C331.192 337.104 328.42 327.38 325.896 317.891C323.373 308.402 320.725 298.843 317.974 289.26C310.942 264.985 303.826 237.46 278.943 204.308C263.492 183.824 240.802 162.916 214.595 143.373C197.619 130.569 179.861 119.159 161.457 109.233C123.068 88.8189 87.4703 77.9881 53.8586 67.9578C20.764 58.0688 -10.9449 48.1798 -44.5153 30.1205C-60.7398 21.2037 -76.4872 11.2031 -91.6751 0.170954C-111.449 -13.9562 -131.906 -29.8728 -154.224 -43.1052C-176.542 -56.3377 -201.363 -66.1796 -221.985 -68.6519" stroke="#737373" stroke-width="0.58" stroke-miterlimit="10"/>
<path opacity="0.61" d="M794.206 959.805C781.361 914.857 773.77 847.541 748.287 769.348C732.919 722.257 711.056 669.892 687.497 621.012C667.847 580.138 644.805 540.535 617.77 505.476C607.957 492.157 596.933 480.058 584.883 469.381C557.124 445.836 528.249 438.772 503.553 434.605C496.299 433.427 489.225 432.517 482.331 431.873C468.152 430.611 453.913 430.501 439.721 431.544C434.137 431.944 427.724 432.297 420.775 432.368C408.364 432.368 394.382 430.602 381.04 419.7C366.272 407.622 360.356 390.151 356.716 375.765C355.351 370.467 354.213 365.688 353.365 361.52C350.821 349.065 348.67 338.705 346.725 328.557C344.781 318.409 342.775 308.049 340.644 297.712C335.163 271.577 329.682 242.051 305.481 207.416C290.609 185.849 268.084 164.164 241.795 144.291C224.796 131.247 206.901 119.782 188.285 110.01C149.357 89.9725 113.077 80.2719 78.6588 71.4895C44.7989 62.919 12.2007 54.3486 -22.0523 37.1605C-38.6263 28.6766 -54.7035 18.9873 -70.1843 8.15275C-90.3307 -5.66832 -111.056 -21.5143 -133.519 -34.8645C-155.982 -48.2146 -180.782 -58.4097 -201.549 -61.7061" stroke="#737373" stroke-width="0.58" stroke-miterlimit="10"/>
<path opacity="0.59" d="M807.485 977.77C797.847 929.291 793.337 859.597 769.778 779.095C755.651 730.898 734.615 677.592 711.159 627.888C691.695 586.566 668.467 546.704 640.833 511.692C630.816 498.379 619.529 486.375 607.18 475.903C578.719 452.805 548.954 446.895 523.492 444.258C516.004 443.481 508.724 442.987 501.608 442.798C486.964 442.404 472.314 443.246 457.778 445.318C452.07 446.095 445.513 446.872 438.439 447.272C425.842 448.002 411.549 446.589 398.084 435.641C383.171 423.515 377.648 405.644 374.442 390.74C373.284 385.254 372.374 380.262 371.691 375.93C369.788 362.839 368.258 351.772 366.913 340.847C365.569 329.922 364.183 318.88 362.652 307.884C358.763 279.912 354.875 248.479 331.522 212.243C317.044 189.828 294.705 167.342 268.415 147.141C251.364 133.892 233.311 122.396 214.471 112.788C175.047 93.0806 138.126 84.5337 102.942 76.9992C68.3787 69.5118 34.9531 62.3776 -0.0858016 46.1078C-17.0243 38.0548 -33.4464 28.6608 -49.2314 17.9947C-69.7293 4.43265 -90.7237 -11.2485 -113.352 -24.7164C-135.981 -38.1843 -160.719 -48.8267 -181.61 -52.9707" stroke="#737373" stroke-width="0.57" stroke-miterlimit="10"/>
<path opacity="0.57" d="M820.144 997.666C813.732 945.631 812.284 873.582 790.649 790.75C777.783 741.541 757.554 687.151 734.222 636.788C714.924 595.042 691.53 555.015 663.441 519.98C653.22 506.677 641.677 494.77 629.043 484.497C599.858 461.87 569.204 457.232 542.977 455.984C535.282 455.607 527.774 455.536 520.451 455.772C505.339 456.292 490.281 458.087 475.401 461.14C469.569 462.317 462.867 463.495 455.669 464.248C442.783 465.59 428.262 464.625 414.693 453.653C399.615 441.503 394.423 423.209 391.734 407.787C390.741 402.136 390.017 396.909 389.666 392.388C388.383 378.685 387.452 366.935 386.729 355.281C386.005 343.626 385.198 331.735 384.308 319.963C381.971 290.107 379.696 256.814 357.109 218.93C343.168 195.549 320.974 172.31 294.622 151.755C277.527 138.293 259.322 126.757 240.264 117.309C200.364 97.9308 162.781 90.5376 126.812 84.3452C91.4209 78.1999 57.1887 72.4313 21.3224 57.0327C4.02491 49.447 -12.7487 40.3959 -28.8574 29.9556C-49.7277 16.6761 -70.991 1.11269 -93.7229 -12.4258C-116.455 -25.9644 -141.296 -37.0542 -162.312 -41.8574" stroke="#737373" stroke-width="0.57" stroke-miterlimit="10"/>
<path opacity="0.56" d="M832.079 1019.82C828.873 964.232 830.466 889.829 810.795 804.689C799.191 754.467 779.769 699.088 756.582 647.925C737.428 605.684 713.869 565.304 685.242 530.387C674.825 517.073 663.016 505.26 650.079 495.21C620.17 473.078 588.647 469.687 561.675 469.805C553.76 469.805 546.024 470.158 538.467 470.864C522.884 472.287 507.417 475.042 492.197 479.105C486.24 480.659 479.373 482.26 472.071 483.343C458.916 485.321 444.168 484.779 430.475 473.784C415.252 461.587 410.391 442.892 408.199 426.952C407.46 421.655 406.956 416.32 406.689 410.965C406.027 396.673 405.717 384.194 405.592 371.833C405.468 359.472 405.282 346.898 404.993 334.396C404.227 302.68 403.565 267.504 381.764 228.018C368.32 203.673 346.27 179.633 319.877 158.772C302.754 145.056 284.401 133.446 265.126 124.137C224.751 105.065 186.527 98.849 149.75 93.8339C113.615 88.9129 78.5346 84.4158 41.903 70.0061C24.2761 62.8272 7.18428 54.048 -9.2075 43.7531C-30.4294 30.8032 -51.9202 15.3811 -74.859 1.70129C-97.7977 -11.9785 -122.432 -23.4451 -143.696 -29.0488" stroke="#737373" stroke-width="0.56" stroke-miterlimit="10"/>
<path opacity="0.54" d="M842.938 1044.14C842.938 985.022 847.551 908.218 829.866 820.794C819.524 769.512 800.908 713.145 777.824 661.228C758.898 618.587 735.111 577.901 705.968 543.054C694.902 529.751 683.029 517.319 670.081 508.16C639.447 486.498 607.035 484.356 579.298 485.886C571.148 486.341 563.192 487.126 555.428 488.241C539.345 490.562 523.441 494.277 507.855 499.354C501.095 501.556 494.239 503.355 487.315 504.746C473.912 507.312 458.937 507.242 445.12 496.199C429.751 483.955 425.201 464.884 423.526 448.402C422.956 442.931 422.652 437.429 422.615 431.92C422.615 417.016 422.905 403.831 423.381 390.74C423.857 377.649 424.291 364.345 424.622 351.113C425.408 317.561 426.339 280.477 405.324 239.391C392.375 214.08 370.512 189.263 344.078 168.049C326.904 154.138 308.388 142.51 288.892 133.39C248.021 114.554 209.134 109.562 171.572 105.818C134.692 102.145 98.7431 99.1551 61.3462 85.5224C43.3779 78.7674 25.9472 70.2841 9.2428 60.1642C-12.3308 47.4026 -34.1939 32.1217 -57.1533 18.3478C-80.1127 4.57377 -104.789 -7.4814 -126.197 -13.8386" stroke="#737373" stroke-width="0.56" stroke-miterlimit="10"/>
<path opacity="0.52" d="M851.046 1070.8C854.273 1008.14 861.885 928.985 846.186 839.23C837.022 786.936 819.296 729.533 796.337 676.909C777.535 633.75 753.624 592.852 723.942 558.052C712.669 544.773 700.569 532.412 687.311 523.464C655.953 502.274 622.652 501.403 594.232 504.322C585.958 505.17 577.685 506.371 569.721 507.878C553.189 511.112 536.897 515.78 520.989 521.84C514.134 524.474 507.152 526.66 500.078 528.385C486.405 531.588 471.12 531.941 457.241 520.875C441.748 508.584 437.508 489.112 436.35 472.112C435.952 466.41 435.855 460.686 436.06 454.971C436.681 439.455 437.591 425.563 438.666 411.742C439.742 397.921 440.735 383.888 441.728 369.902C444.086 334.584 446.63 295.523 426.38 252.835C413.97 226.559 392.231 201.036 365.755 179.398C348.507 165.261 329.8 153.589 310.052 144.645C268.684 126.232 229.157 122.3 190.808 119.828C153.184 117.473 116.345 115.778 78.2038 103.017C59.9082 96.6943 42.1457 88.523 25.1283 78.6002C3.20308 66.0977 -18.8255 50.9581 -42.0331 37.0193C-65.2408 23.0805 -89.8549 10.8134 -111.428 3.6792" stroke="#737373" stroke-width="0.55" stroke-miterlimit="10"/>
<path opacity="0.5" d="M857.541 1099.95C863.974 1033.76 874.564 952.2 860.892 860.162C852.949 806.808 836.071 748.416 813.318 695.039C794.703 651.433 770.585 610.276 740.386 575.523C728.927 562.267 716.558 550 702.989 541.241C670.929 520.545 636.8 520.922 607.49 525.23C598.913 526.47 590.523 528.04 582.318 529.939C565.305 534.043 548.603 539.664 532.366 546.751C525.401 549.802 518.279 552.365 511.04 554.426C497.12 558.264 481.669 559.136 467.604 547.952C451.946 535.614 448.036 515.742 447.374 498.224C447.153 492.312 447.264 486.39 447.705 480.494C448.967 464.366 450.498 449.768 452.152 435.217C453.807 420.666 455.503 405.903 457.055 391.187C460.985 353.915 465.101 313.064 445.658 268.752C433.702 241.533 412.17 215.139 385.674 193.242C368.425 178.896 349.601 167.181 329.682 158.395C287.838 140.312 247.648 137.534 208.493 136.31C170.124 135.132 132.479 134.897 93.5307 123.007C74.8981 117.109 56.7952 109.226 39.4623 99.4613C17.1648 87.2178 -5.21544 72.243 -28.4851 58.21C-51.7548 44.1771 -76.4309 31.5097 -98.1493 23.575" stroke="#737373" stroke-width="0.54" stroke-miterlimit="10"/>
<path opacity="0.49" d="M862.526 1131.69C872.165 1061.94 885.734 977.982 874.068 883.66C867.345 829.27 851.315 769.889 828.563 715.758C810.071 671.705 785.808 630.289 755.072 595.678C743.427 582.469 730.83 570.249 716.951 561.702C684.166 541.476 649.107 543.101 619.074 548.799C610.262 550.463 601.651 552.496 593.239 554.897C575.755 559.913 558.644 566.486 542.066 574.558C535.021 577.991 527.787 580.901 520.41 583.269C506.221 587.719 490.563 588.944 476.353 577.807C460.55 565.446 456.951 545.15 456.827 527.114C456.78 520.999 457.091 514.887 457.758 508.819C459.64 492.102 461.895 476.774 463.963 461.517C466.032 446.259 468.514 430.72 470.686 415.274C476.187 376.142 481.896 333.407 463.239 287.494C451.78 259.239 430.413 232.115 403.834 209.912C386.546 195.333 367.563 183.558 347.429 174.924C305.088 157.171 264.237 155.546 224.317 155.593C185.203 155.593 146.689 156.817 106.975 145.798C88.0156 140.345 69.5731 132.782 51.9142 123.218C29.3685 111.281 6.71931 96.4239 -16.7572 82.2967C-39.2584 68.4271 -62.6175 56.4422 -86.6489 46.4373" stroke="#737373" stroke-width="0.54" stroke-miterlimit="10"/>
<path opacity="0.47" d="M865.98 1166.11C878.846 1092.84 895.372 1006.47 885.734 909.889C880.211 854.417 865.049 794.046 842.483 739.186C824.157 694.685 799.729 653.01 768.454 618.352C756.623 605.166 743.758 593.017 729.589 584.658C696.081 564.928 660.132 567.8 629.354 574.887C620.321 576.975 611.489 579.424 602.857 582.233C584.895 588.16 567.376 595.702 550.464 604.79C543.299 608.672 535.912 611.999 528.353 614.749C513.874 619.812 497.989 621.483 483.675 610.323C467.728 597.891 464.439 577.218 464.832 558.664C464.953 552.353 465.465 546.058 466.362 539.828C468.907 522.523 471.678 506.488 474.512 490.501C477.346 474.514 480.283 458.22 483.075 442.068C490.149 401.076 497.554 356.458 479.58 308.92C468.617 279.747 447.437 251.799 420.795 229.243C403.463 214.457 384.32 202.645 363.976 194.184C321.16 176.76 279.647 176.289 238.92 177.702C199.061 178.997 159.699 181.634 119.22 171.416C99.9302 166.412 81.1459 159.153 63.1664 149.754C40.1657 137.981 17.2476 123.336 -6.29097 109.115C-29.042 95.0737 -52.5281 82.6341 -76.6171 71.8662" stroke="#737373" stroke-width="0.53" stroke-miterlimit="10"/>
<path opacity="0.45" d="M867.862 1203.38C883.934 1126.55 903.398 1037.76 895.827 938.921C890.8 878.878 876.919 820.23 854.769 765.439C836.588 720.491 811.995 678.533 780.203 643.922C768.165 630.76 755.072 618.705 740.572 610.558C706.361 591.298 669.543 595.442 638 603.895C628.733 606.391 619.673 609.263 610.821 612.513C592.384 619.343 574.456 627.839 557.207 637.918C549.945 642.214 542.425 645.92 534.703 649.008C519.996 654.729 503.863 656.825 489.405 645.617C473.312 633.162 470.355 612.065 471.244 592.994C471.555 586.452 472.281 579.944 473.416 573.522C476.581 555.604 479.952 538.863 483.406 522.146C486.861 505.429 490.377 488.405 493.748 471.5C502.374 428.671 511.289 382.169 494.203 333.007C483.717 302.892 462.722 274.144 436.019 251.258C418.651 236.251 399.354 224.386 378.807 216.081C335.494 198.987 293.34 199.599 251.827 202.236C211.224 204.779 170.993 208.782 129.79 199.458C110.185 194.881 91.0675 187.927 72.7639 178.715C49.3701 167.272 26.1832 152.697 2.43779 138.358C-20.486 124.178 -44.0196 111.314 -68.0745 99.8145" stroke="#737373" stroke-width="0.53" stroke-miterlimit="10"/>
<path opacity="0.44" d="M868.09 1243.57C887.388 1163.19 909.789 1071.97 904.287 970.871C900.594 909.961 887.428 850.281 865.401 794.612C847.385 749.216 822.626 707.023 790.297 672.459C778.073 659.32 764.731 647.312 749.942 639.378C714.986 620.541 677.279 625.98 644.991 635.846C635.504 638.765 626.223 642.054 617.15 645.711C598.235 653.439 579.898 662.888 562.316 673.966C554.952 678.668 547.3 682.76 539.419 686.209C524.464 692.543 508.082 695.086 493.5 683.855C477.263 671.352 474.615 649.855 476.022 630.266C476.523 623.512 477.449 616.808 478.794 610.205C482.6 591.722 486.592 574.251 490.646 556.804C494.7 539.357 498.919 521.486 502.87 503.969C513.046 459.233 523.554 410.871 507.255 360.107C497.265 329.004 476.436 299.502 449.691 276.286C432.301 261.018 412.836 249.089 392.065 240.968C348.277 224.18 305.46 226.017 263.161 229.855C221.793 233.622 180.735 239.014 138.726 230.561C118.797 226.418 99.3315 219.777 80.6858 210.76C56.9611 199.576 33.4846 185.142 9.67715 170.733C-14.1303 156.323 -38.7238 141.937 -61.104 130.894" stroke="#737373" stroke-width="0.52" stroke-miterlimit="10"/>
<path opacity="0.42" d="M866.58 1286.8C889.105 1202.91 914.443 1109.25 910.989 1005.91C908.631 944.184 896.194 883.502 874.316 826.963C856.466 781.05 831.52 738.668 798.674 704.033C786.264 690.918 772.653 679.004 757.554 671.258C721.894 652.963 683.318 659.603 650.245 670.858C640.592 674.185 631.098 677.898 621.763 681.995C602.365 690.624 583.612 701.025 565.688 713.098C558.233 718.227 550.447 722.706 542.397 726.495C527.174 733.441 510.565 736.431 495.858 725.153C479.476 712.603 477.242 690.706 479.063 670.599C479.751 663.639 480.885 656.745 482.455 649.973C486.902 630.854 491.494 612.677 496.148 594.5C500.802 576.323 505.559 557.84 510.213 539.475C521.962 492.926 534.041 442.633 518.487 390.269C508.993 358.2 488.329 327.897 461.543 304.352C444.096 288.919 424.469 276.976 403.503 269.034C359.239 252.553 315.741 255.566 272.656 260.676C230.543 265.691 188.636 272.448 145.862 264.914C125.619 261.209 105.814 254.889 86.8291 246.078C62.7941 235.035 39.0901 220.672 15.1172 206.168C-8.85573 191.664 -33.3044 176.831 -55.9329 165.011" stroke="#737373" stroke-width="0.52" stroke-miterlimit="10"/>
<path opacity="0.4" d="M863.271 1333.23C889.022 1245.79 917.256 1149.58 915.891 1044.1C914.871 981.519 903.16 919.765 881.41 862.281C863.705 815.967 838.615 773.233 805.231 738.786C792.593 725.695 778.755 713.852 763.366 706.317C726.983 688.493 687.517 696.381 653.74 709.025C643.798 712.745 634.083 716.873 624.596 721.41C604.72 730.957 585.559 742.328 567.301 755.409C559.731 760.922 551.807 765.778 543.597 769.936C528.146 777.518 511.268 780.932 496.437 769.63C479.89 757.034 477.821 734.713 480.345 714.111C481.221 706.946 482.555 699.863 484.337 692.92C489.425 673.236 494.679 654.329 499.871 635.446C505.063 616.562 510.502 597.279 515.777 578.184C529.098 529.798 542.666 477.598 528.063 423.633C519.045 390.669 498.568 359.542 471.74 335.644C454.257 319.968 434.464 307.953 413.287 300.161C368.526 284.033 324.345 288.059 280.515 294.557C237.637 300.679 194.904 308.944 151.343 302.257C130.796 298.983 110.661 292.953 91.3589 284.292C66.8895 273.649 42.8753 259.499 18.7989 244.806C-5.27744 230.114 -29.8295 214.974 -52.52 202.425" stroke="#737373" stroke-width="0.51" stroke-miterlimit="10"/>
<path opacity="0.39" d="M858.058 1382.94C887.016 1291.96 918.166 1193.35 918.89 1085.58C919.195 1022.19 908.211 959.39 886.602 900.966C869.042 854.205 843.786 811.235 809.885 776.812C797.061 763.767 782.995 751.995 767.255 744.649C730.168 727.319 689.813 736.455 655.23 750.511C645.081 754.64 635.145 759.184 625.424 764.144C605.073 774.6 585.503 786.923 566.908 800.992C559.239 806.905 551.184 812.14 542.811 816.65C527.091 824.867 510.006 828.729 495.051 817.38C478.38 804.76 476.684 782.062 479.621 760.871C480.688 753.485 482.23 746.198 484.234 739.068C489.943 718.772 495.775 699.159 501.629 679.546C507.483 659.933 513.46 639.919 519.355 620.094C534.248 569.825 549.492 515.742 535.572 460.175C527.071 426.175 506.759 394.248 479.869 370.114C462.351 354.218 442.399 342.148 421.023 334.514C375.787 318.715 330.964 323.918 286.307 331.641C242.684 339.034 199.103 348.664 154.777 342.872C133.917 339.998 113.437 334.275 93.779 325.825C68.9581 315.442 44.6749 301.433 20.4537 286.623C-3.76741 271.813 -28.2988 256.273 -51.1548 242.875" stroke="#737373" stroke-width="0.5" stroke-miterlimit="10"/>
<path opacity="0.37" d="M850.86 1436.06C883.024 1341.52 917.049 1240.46 919.904 1130.48C921.457 1066.31 911.199 1002.48 889.788 943.088C872.31 895.998 846.971 852.627 812.532 818.298C799.501 805.278 785.188 793.576 769.096 786.441C731.264 769.607 690.041 779.99 654.692 795.412C644.308 799.964 634.152 804.932 624.224 810.316C603.4 821.685 583.422 834.961 564.488 850.014C556.721 856.341 548.533 861.969 539.998 866.849C524.03 875.654 506.697 879.963 491.597 868.591C474.802 855.923 473.416 832.778 476.87 811.14C478.122 803.539 479.872 796.054 482.103 788.749C488.453 767.864 494.865 747.521 501.339 727.178C507.814 706.835 514.391 686.092 520.886 665.536C537.433 613.431 554.105 557.464 541.074 500.272C532.986 465.331 512.923 432.674 485.992 408.116C468.433 392.001 448.314 379.883 426.732 372.421C380.999 356.952 335.515 363.309 290.092 372.304C245.704 380.945 201.274 391.94 156.162 387.02C134.973 384.576 114.131 379.158 94.1099 370.891C68.9373 360.767 44.468 346.898 20.04 331.994C-4.38797 317.09 -28.8366 301.126 -51.8374 286.952" stroke="#737373" stroke-width="0.5" stroke-miterlimit="10"/>
<path opacity="0.35" d="M841.635 1492.68C877.025 1394.62 914.029 1291.06 918.89 1178.89C921.773 1113.94 912.246 1049.05 890.966 988.695C873.675 941.087 848.15 897.552 813.173 863.223C799.956 850.226 785.395 838.594 769.075 831.672C730.54 815.308 688.407 826.963 652.313 843.774C641.722 848.703 631.38 854.087 621.287 859.926C599.972 872.179 579.583 886.417 560.33 902.496C552.472 909.19 544.174 915.188 535.509 920.438C519.293 929.856 501.712 934.565 486.488 923.216C469.527 910.501 468.431 886.956 472.464 864.824C473.891 857.006 475.841 849.323 478.297 841.843C485.288 820.394 492.3 799.297 499.374 778.271C506.448 757.245 513.646 735.725 520.762 714.44C538.778 660.474 557.145 602.6 544.879 543.807C537.309 507.877 517.411 474.467 490.418 449.626C472.754 433.223 452.378 421.021 430.496 413.743C384.288 398.58 338.141 406.115 291.912 416.357C246.779 426.246 201.502 438.631 155.624 434.581C134.151 432.551 112.989 427.44 92.6412 419.371C67.117 409.529 42.2753 395.825 17.7853 380.78C-6.70472 365.735 -31.2361 349.371 -54.3403 334.419" stroke="#737373" stroke-width="0.49" stroke-miterlimit="10"/>
<path opacity="0.33" d="M830.072 1552.96C868.669 1451.36 908.507 1345.29 915.539 1230.95C919.469 1166.79 911.403 1098.77 889.808 1037.88C872.682 989.802 846.971 946.055 811.477 911.726C798.053 898.776 783.244 887.215 766.614 880.481C727.314 864.588 684.373 877.491 647.514 895.691C636.676 901.06 626.079 906.868 615.723 913.115C593.93 926.284 573.127 941.475 553.526 958.534C545.558 965.658 537.106 972.051 528.249 977.653C511.702 987.753 493.955 992.886 478.607 981.443C461.522 968.705 460.736 944.736 465.266 922.086C466.895 914.064 469.052 906.193 471.72 898.54C479.331 876.502 486.964 854.699 494.638 832.896C502.311 811.093 510.13 788.867 517.866 766.852C537.454 711.026 557.414 651.268 545.934 590.875C538.84 553.979 519.045 519.791 492.156 494.551C474.546 478.013 454.125 465.796 432.172 458.668C385.467 443.834 338.659 452.546 291.664 464.013C245.766 475.173 199.661 488.9 153.08 485.768C131.311 484.151 109.816 479.347 89.125 471.476C63.2285 461.894 38.1179 448.284 13.5038 433.168C-11.1104 418.052 -35.5797 401.241 -58.8907 385.513" stroke="#737373" stroke-width="0.49" stroke-miterlimit="10"/>
<path opacity="0.32" d="M816.276 1616.91C858.182 1511.85 900.854 1403.28 909.893 1286.75C915.002 1221.49 907.824 1152.55 886.375 1091C869.414 1042.45 843.538 998.419 807.506 964.185C793.896 951.258 778.817 939.768 762.001 933.246C722.019 917.824 678.148 931.998 640.523 951.588C629.492 957.333 618.674 963.557 608.07 970.259C585.806 984.356 564.596 1000.51 544.652 1018.55C536.582 1026.07 527.998 1032.84 518.983 1038.8C502.27 1049.51 484.192 1055.09 468.741 1043.51C451.491 1030.7 451.056 1006.33 456.062 983.186C457.89 974.986 460.248 966.951 463.115 959.146C471.389 936.495 479.662 913.986 487.936 891.453L513.005 823.172C534.144 765.486 555.739 703.821 545.024 641.873C538.447 603.989 518.88 569.024 491.783 543.454C474.107 526.69 453.486 514.423 431.303 507.477C384.102 492.973 336.652 502.768 288.851 515.577C242.229 527.961 195.255 543.078 147.827 540.817C125.757 539.612 103.921 535.116 82.8785 527.443C56.6303 518.025 31.1681 504.652 6.49187 489.418C-18.1843 474.184 -42.7157 456.996 -66.2129 440.467" stroke="#737373" stroke-width="0.48" stroke-miterlimit="10"/>
<path opacity="0.3" d="M800.122 1684.91C845.151 1576.2 890.78 1465.13 902.012 1346.44C913.243 1227.75 884.265 1097.99 801.259 1020.43C787.442 1007.53 772.136 996.112 754.906 989.825C714.221 974.898 669.46 990.296 631.07 1011.3C596.077 1030.42 563.253 1054.3 533.317 1082.43C511.226 1103.2 480.531 1127.49 456.372 1109.67C432.668 1092.18 441.066 1052.5 452.09 1023.66L505.58 883.471C528.332 823.949 551.498 760.377 541.549 696.805C531.538 632.809 485.392 577.289 428.035 560.242C333.839 532.223 237.865 602.624 140.277 599.822C60.9118 597.467 -9.828 547.622 -75.8104 499.401" stroke="#737373" stroke-width="0.47" stroke-miterlimit="10"/>
</g>
</g>
<defs>
<linearGradient id="paint0_linear_216_7358" x1="960" y1="0" x2="960" y2="790" gradientUnits="userSpaceOnUse">
<stop/>
<stop offset="1" stop-opacity="0"/>
</linearGradient>
</defs>
</svg>
