<svg width="13" height="13" viewBox="0 0 13 13" fill="none" xmlns="http://www.w3.org/2000/svg">
<path fill-rule="evenodd" clip-rule="evenodd" d="M2.29514 12.8222H10.4488C11.5805 12.8222 12.496 11.9067 12.496 10.7749V2.62131C12.496 1.49459 11.5755 0.574097 10.4488 0.574097H2.29514C1.16842 0.574097 0.247925 1.49459 0.247925 2.62131V10.7749C0.247925 11.9017 1.16842 12.8222 2.29514 12.8222ZM4.1515 8.92429C4.74504 9.51783 5.53475 9.84478 6.37477 9.84478C7.21478 9.84478 7.99946 9.51783 8.59803 8.92429C9.19157 8.33075 9.51852 7.54104 9.51852 6.70103C9.51852 5.86102 9.19157 5.07131 8.59803 4.47777C8.00449 3.88423 7.21478 3.55728 6.37477 3.55728C5.53475 3.55728 4.74504 3.88423 4.1515 4.47777C3.55796 5.07131 3.23101 5.86102 3.23101 6.70103C3.23101 7.54104 3.55796 8.33075 4.1515 8.92429ZM3.9 6.70103C3.9 5.33287 5.01163 4.22627 6.37477 4.22627C7.7379 4.22627 8.8445 5.3379 8.84953 6.70103C8.84953 8.06919 7.7379 9.17579 6.37477 9.17579C5.0066 9.17579 3.9 8.06416 3.9 6.70103Z" fill="white"/>
<path d="M10.131 3.45357C10.4643 3.45357 10.7346 3.18332 10.7346 2.84995C10.7346 2.51659 10.4643 2.24634 10.131 2.24634C9.79759 2.24634 9.52734 2.51659 9.52734 2.84995C9.52734 3.18332 9.79759 3.45357 10.131 3.45357Z" fill="#131A25"/>
</svg>
