<svg width="86" height="27" viewBox="0 0 86 27" fill="none" xmlns="http://www.w3.org/2000/svg">
<g clip-path="url(#clip0_216_7328)">
<path d="M43.0319 17.9822H85.624C85.7021 17.9822 85.7802 17.9856 85.8579 17.9822C85.9585 17.9767 86.002 18.0157 85.9945 18.1063C85.9912 18.1487 85.9945 18.1911 85.9945 18.2334C85.9945 21.071 85.9964 23.9092 86.0001 26.748C86.0001 26.9568 85.936 27.0021 85.7143 27.0021C57.2416 26.9973 28.7688 26.9973 0.295764 27.0021C0.069342 27.0021 0.0150757 26.9504 0.0150757 26.748C0.0225607 23.9101 0.0225607 21.0719 0.0150757 18.2334C0.0150757 18.0242 0.0796339 17.9792 0.30091 17.9792C14.544 17.9832 28.7876 17.9842 43.0319 17.9822ZM76.5376 22.2933C76.257 22.2933 75.9763 22.3009 75.6956 22.2907C75.5005 22.2831 75.5057 22.4081 75.5403 22.4979C75.603 22.6597 75.3466 22.9215 75.6918 22.9821C75.9173 23.021 76.1597 22.988 76.3936 22.991C76.453 22.991 76.5339 22.9643 76.5667 23.0206C76.6041 23.085 76.5344 23.1384 76.4969 23.1871C76.2401 23.5234 75.8584 23.5887 75.4444 23.5683C74.9204 23.5425 74.4825 23.2515 74.3614 22.858C74.2065 22.3539 74.3651 21.8781 74.7787 21.6053C75.1819 21.3397 75.8224 21.3012 76.1975 21.6053C76.4722 21.8269 76.6555 21.757 76.8857 21.6083C76.9177 21.5883 76.951 21.5699 76.9853 21.5532C77.2426 21.419 77.2426 21.419 77.0373 21.2144C76.4034 20.59 75.3176 20.4358 74.4844 20.8517C73.6377 21.2754 73.2433 22.1319 73.4969 22.9999C73.7677 23.9284 74.8292 24.4986 75.9664 24.3258C76.9582 24.1754 77.5884 23.3938 77.5102 22.4246C77.5018 22.3263 77.4709 22.2882 77.3596 22.2899C77.0831 22.2967 76.8104 22.2933 76.5376 22.2933ZM63.2429 22.3877L63.3027 22.375C63.7238 22.9075 64.157 23.4303 64.5518 23.9771C64.7286 24.2216 64.9214 24.316 65.2367 24.2898C65.4159 24.2754 65.4706 24.2419 65.4706 24.0746C65.4622 23.0308 65.4575 21.9866 65.4706 20.9428C65.4739 20.72 65.4004 20.6603 65.1735 20.6865C64.9827 20.7086 64.7338 20.6154 64.6122 20.7213C64.4905 20.8272 64.5761 21.0551 64.5738 21.2296C64.5677 21.6846 64.5738 22.1395 64.5738 22.6118C64.4578 22.5572 64.4217 22.4767 64.3698 22.411C63.9984 21.9413 63.6115 21.4791 63.2686 20.9941C63.0946 20.7467 62.9 20.6586 62.5865 20.6819C62.4045 20.6954 62.3526 20.7331 62.3559 20.8971C62.3638 21.8773 62.3596 22.858 62.3596 23.8382C62.3596 24.283 62.3596 24.283 62.8471 24.283C63.2452 24.283 63.2452 24.283 63.2452 23.9271L63.2429 22.3877ZM23.7893 22.5C23.7931 21.4503 22.9042 20.6306 21.7478 20.6175C21.3384 20.6129 20.9367 20.7185 20.5936 20.9209C20.2505 21.1233 19.9816 21.4134 19.8208 21.7544C19.6601 22.0954 19.6148 22.4719 19.6907 22.8362C19.7666 23.2006 19.9602 23.5363 20.2471 23.8008C20.534 24.0654 20.9012 24.2468 21.3021 24.3222C21.703 24.3975 22.1196 24.3633 22.4991 24.224C22.8785 24.0846 23.2037 23.8464 23.4334 23.5395C23.6631 23.2325 23.787 22.8708 23.7893 22.5ZM41.889 22.4678C41.889 23.0109 41.8928 23.5544 41.8862 24.0979C41.8862 24.2283 41.9148 24.2881 42.0776 24.2851C42.5683 24.277 43.06 24.291 43.5503 24.28C44.5327 24.258 45.3233 23.5539 45.3948 22.6512C45.472 21.682 44.8148 20.8755 43.8136 20.7259C43.2415 20.6412 42.6628 20.7124 42.0879 20.6857C41.9138 20.6776 41.8839 20.7399 41.8858 20.8801C41.8937 21.4092 41.889 21.9387 41.889 22.4678ZM11.7212 22.4678C11.7212 22.0798 11.7244 21.6913 11.7212 21.3033C11.7188 21.1072 11.8147 20.8441 11.6856 20.7319C11.5354 20.6005 11.2412 20.7077 11.0115 20.687C10.8637 20.6738 10.8244 20.7293 10.829 20.8564C10.8365 21.2088 10.829 21.5617 10.8328 21.9154C10.8328 22.0247 10.8103 22.0849 10.6672 22.0823C10.3481 22.0751 10.0282 22.0772 9.70864 22.0823C9.59636 22.0823 9.55894 22.0434 9.56127 21.9447C9.56642 21.7328 9.5697 21.521 9.56127 21.3092C9.55285 21.1076 9.66232 20.8395 9.51449 20.7242C9.38725 20.6251 9.09814 20.7052 8.88295 20.687C8.70143 20.6717 8.66494 20.7331 8.66635 20.8873C8.6743 21.8116 8.66635 22.736 8.6729 23.6603C8.6729 23.8615 8.57091 24.1262 8.71968 24.2478C8.86844 24.3694 9.15241 24.2669 9.37462 24.2855C9.53742 24.2986 9.56923 24.233 9.56595 24.1012C9.55753 23.7488 9.5697 23.3955 9.55987 23.0422C9.55613 22.9024 9.587 22.8397 9.76103 22.8474C10.0487 22.8605 10.3378 22.8592 10.626 22.8474C10.7907 22.841 10.8398 22.8897 10.8356 23.0371C10.8248 23.39 10.8393 23.7429 10.8286 24.0962C10.8239 24.2474 10.8833 24.2961 11.0433 24.2847C11.1833 24.2728 11.3243 24.2728 11.4643 24.2847C11.6646 24.3046 11.7347 24.2491 11.7287 24.0551C11.7109 23.5268 11.7212 22.9973 11.7212 22.4682V22.4678ZM31.7394 22.4784C31.7394 22.9935 31.7497 23.509 31.7342 24.0242C31.7286 24.2211 31.7754 24.2961 32.0116 24.2872C32.4795 24.2694 32.9473 24.2817 33.4151 24.2817C34.0845 24.2817 34.0794 24.2817 34.0588 23.6776C34.0541 23.5421 33.9998 23.5116 33.8637 23.5145C33.5447 23.5213 33.2242 23.5061 32.9056 23.5205C32.6979 23.5298 32.6249 23.4815 32.6249 23.2782C32.6399 22.6152 32.6348 21.9514 32.6282 21.2872C32.6282 21.0932 32.7269 20.8344 32.5814 20.7225C32.457 20.6268 32.1796 20.7039 31.9733 20.6844C31.767 20.6649 31.7305 20.742 31.7342 20.9106C31.7469 21.4346 31.7394 21.9565 31.7394 22.4788V22.4784ZM54.2337 22.489C54.2337 21.9599 54.2248 21.43 54.2389 20.9013C54.244 20.7183 54.1771 20.6687 53.9886 20.6857C53.8329 20.6963 53.6765 20.6963 53.5208 20.6857C53.3963 20.6798 53.3407 20.7064 53.3416 20.8348C53.3463 21.9362 53.3463 23.0376 53.3416 24.1389C53.3416 24.2504 53.3851 24.2893 53.5053 24.2842C53.6611 24.2743 53.8174 24.2743 53.9731 24.2842C54.1724 24.302 54.2445 24.2499 54.2384 24.0546C54.2234 23.534 54.2337 23.0113 54.2337 22.4894V22.489Z" fill="white"/>
<path fill-rule="evenodd" clip-rule="evenodd" d="M76.9747 0.109033C73.1966 0.645323 70.648 3.51951 70.6868 6.7453C70.6812 7.07691 70.7036 7.40843 70.7537 7.73696C71.0601 9.54959 71.977 11.0462 73.6172 12.1336C75.6816 13.5027 77.9922 13.7954 80.437 13.2447C82.3134 12.8228 83.7917 11.8536 84.8344 10.371C85.8842 8.8769 86.2004 7.24558 85.8636 5.50581C85.5581 3.92956 84.7376 2.61214 83.3776 1.59548C81.5073 0.193755 79.3325 -0.226889 76.9747 0.109033ZM81.5434 9.54705C80.7846 10.3845 79.6309 10.8272 78.3622 10.8293C76.1836 10.8327 74.3825 9.41954 74.0733 7.44891C73.8562 6.05142 74.1987 4.78737 75.3163 3.7669C77.4388 1.82973 81.171 2.52657 82.2867 5.08009C82.9861 6.67964 82.7634 8.19827 81.5434 9.54705ZM28.0105 13.2738H28.2851L28.2409 13.2122C28.1947 13.1478 28.1623 13.1026 28.1279 13.0573L24.9898 8.90086L24.9895 8.90046C24.8886 8.7667 24.8371 8.69849 24.8506 8.64732C24.8646 8.59407 24.9488 8.55927 25.1206 8.48826L25.1206 8.48826L25.1329 8.48318C26.2169 8.03458 27.0453 7.35045 27.4949 6.33379C27.8509 5.5302 27.9234 4.69103 27.7962 3.83788C27.6315 2.73353 27.1099 1.81049 26.0905 1.15008C25.0974 0.50577 23.9629 0.249063 22.7667 0.237626C21.329 0.223522 19.8912 0.224874 18.4534 0.226226C17.6457 0.226986 16.838 0.227745 16.0302 0.225765C15.8688 0.225341 15.822 0.26516 15.822 0.413847C15.8323 1.14839 15.8365 1.88292 15.822 2.61661C15.8178 2.81359 15.8908 2.84494 16.0864 2.84494C18.1143 2.8407 20.1409 2.8407 22.1679 2.8407C22.4954 2.8366 22.8221 2.87062 23.14 2.94195C23.984 3.13977 24.4934 3.65022 24.6062 4.4106C24.7227 5.19724 24.3615 5.8962 23.6383 6.25965C23.2135 6.47315 22.7494 6.54686 22.2662 6.54686C21.4716 6.54588 20.677 6.54585 19.8824 6.54581H19.882C18.6108 6.54575 17.3397 6.54569 16.0686 6.54178C15.8712 6.54093 15.8244 6.58965 15.8244 6.7646C15.83 8.8688 15.83 10.9727 15.8244 13.0764C15.8239 13.231 15.8623 13.2784 16.0419 13.2784C16.9464 13.2683 17.8508 13.2683 18.7552 13.2784C18.9583 13.2806 19.0158 13.2369 19.0158 13.0467C19.011 12.4085 19.0109 11.7705 19.0108 11.1327V11.1319C19.0107 10.5275 19.0105 9.92317 19.0064 9.31896C19.0055 9.14147 19.0621 9.09275 19.2553 9.09572C19.8864 9.10758 20.5184 9.1097 21.1495 9.09572C21.3638 9.09063 21.484 9.15926 21.6005 9.31557C22.0797 9.96222 22.5622 10.6069 23.0446 11.2515L23.045 11.2519L23.0453 11.2524L23.0456 11.2528L23.0459 11.2532C23.5067 11.869 23.9676 12.4847 24.4256 13.1022C24.5257 13.2373 24.6328 13.2776 24.8064 13.2776C25.6154 13.2721 26.4244 13.2728 27.2334 13.2734H27.2338C27.4927 13.2736 27.7516 13.2738 28.0105 13.2738ZM7.61556 0.0136415C9.69219 -0.0350735 11.4769 0.663034 12.9762 2.0046C13.089 2.10542 13.1016 2.16219 12.9912 2.27487C12.4373 2.83968 11.8906 3.40943 11.3511 3.98413C11.2463 4.09596 11.1915 4.11121 11.0629 4.00785C10.5689 3.60458 10.0533 3.21909 9.42694 3.00305C7.82561 2.44855 6.28838 2.50235 4.91722 3.52494C3.96802 4.23279 3.49974 5.18845 3.38045 6.28517C3.25695 7.42468 3.53109 8.47862 4.30485 9.39447C5.12493 10.3654 6.22663 10.8297 7.58235 10.8318C8.92404 10.8318 10.015 10.3234 10.9913 9.54442C11.294 9.30254 11.2973 9.30424 11.57 9.56857C11.7416 9.73494 11.9127 9.90165 12.0838 10.0683L12.0842 10.0687C12.4541 10.429 12.8238 10.7892 13.198 11.1457C13.3042 11.2465 13.2958 11.3032 13.1938 11.3998C11.9073 12.6342 10.3354 13.3209 8.46511 13.4531C7.27453 13.5378 6.09611 13.506 4.95651 13.1421C2.6767 12.4138 1.15553 11.0083 0.392993 8.92553C-0.0785626 7.63437 -0.129554 6.3144 0.260602 5.00545C0.99694 2.53454 2.7475 0.94304 5.46737 0.238578C6.16606 0.062445 6.89092 -0.0134546 7.61556 0.0136415ZM44.8838 9.27019C44.8835 9.52089 44.8832 9.7716 44.8832 10.0223C44.8832 10.2357 44.8834 10.449 44.8837 10.6623C44.8844 11.4512 44.8852 12.24 44.8753 13.0283C44.8734 13.2134 44.9146 13.2816 45.1396 13.2782C46.0284 13.2663 46.9173 13.2684 47.8061 13.2782C48.0049 13.2807 48.0676 13.2443 48.0676 13.0499C48.062 12.4746 48.062 11.8993 48.062 11.3241C48.062 10.7488 48.062 10.1736 48.0564 9.5983C48.0545 9.40386 48.121 9.36616 48.3188 9.36913C48.8124 9.37674 49.306 9.37537 49.7994 9.37401H49.7995H49.7997H49.7998H49.7999C49.9923 9.37347 50.1848 9.37294 50.3772 9.37294C51.2792 9.37294 52.1647 9.2717 53.0157 8.99169C54.4014 8.53631 55.4441 7.74247 55.9741 6.46613C56.2876 5.71126 56.3433 4.92928 56.2441 4.13205C56.1187 3.10479 55.6776 2.21352 54.8406 1.50567C53.7969 0.62202 52.5123 0.261529 51.1196 0.240772C49.8168 0.221292 48.5139 0.224024 47.2111 0.226757C46.5023 0.228243 45.7936 0.229729 45.0849 0.22764C44.9169 0.227216 44.8785 0.275508 44.8785 0.419958C44.8874 1.1473 44.8916 1.87463 44.8785 2.60155C44.8748 2.79852 44.9394 2.84682 45.1517 2.84682C46.5742 2.8411 47.9964 2.84152 49.4185 2.84194H49.4187L50.5316 2.84216C50.8511 2.83944 51.1698 2.87245 51.4803 2.94043C52.3654 3.13953 52.909 3.66946 53.0377 4.46543C53.1748 5.31307 52.7968 6.07387 52.0314 6.47376C51.5889 6.70505 51.1028 6.79443 50.5966 6.79443L50.3585 6.79465H50.3582C48.6132 6.79629 46.8682 6.79793 45.1232 6.79104C44.9253 6.79019 44.8785 6.83976 44.8785 7.01471C44.8856 7.76663 44.8847 8.51831 44.8838 9.27011V9.27015V9.27019ZM28.6918 0.229824H29.8038C30.0138 0.229824 30.2237 0.230186 30.4337 0.230547C31.0111 0.231542 31.5884 0.232536 32.1658 0.226012C32.3417 0.226012 32.4399 0.268373 32.5326 0.410282C33.5848 2.02508 34.6421 3.6372 35.7043 5.24663C35.727 5.28167 35.7511 5.31601 35.7801 5.35754L35.7803 5.3577C35.7961 5.38037 35.8135 5.40519 35.833 5.43344C35.9163 5.31008 35.9986 5.18882 36.0799 5.06887L36.0808 5.06758C36.2388 4.83459 36.3934 4.60656 36.5464 4.3778C37.4328 3.0505 38.3175 1.72234 39.2008 0.393338C39.285 0.266255 39.3757 0.223894 39.5343 0.226436C40.3325 0.231256 41.1312 0.230713 41.9297 0.23017C42.1837 0.229997 42.4377 0.229824 42.6916 0.229824H42.9386C42.7113 0.558969 42.5049 0.855495 42.2972 1.1499C40.702 3.40746 39.1074 5.66459 37.5134 7.9213C37.4382 8.02785 37.4002 8.15244 37.4044 8.27882C37.4057 8.91192 37.4059 9.54515 37.4062 10.1784V10.1853C37.4066 11.1382 37.407 12.0911 37.4109 13.0436C37.4109 13.227 37.3641 13.2825 37.1541 13.28C36.2498 13.2685 35.3455 13.2698 34.4408 13.28C34.2513 13.2821 34.2101 13.2291 34.2106 13.0681C34.2143 12.1852 34.2146 11.3023 34.2149 10.4194C34.2151 9.72821 34.2153 9.03698 34.2172 8.34575C34.2191 8.20563 34.1741 8.06827 34.088 7.9518C32.3206 5.43273 30.5565 2.91325 28.7957 0.393338C28.7778 0.367842 28.7614 0.341347 28.7392 0.305502L28.7391 0.305401L28.7391 0.305381C28.7259 0.28408 28.7106 0.259478 28.6918 0.229824ZM64.7917 0.230189C64.3824 0.230072 63.9731 0.229955 63.5638 0.229955C61.6461 0.232779 59.7284 0.231791 57.8106 0.22699C57.6394 0.226566 57.5851 0.26342 57.5851 0.425239C57.5951 1.1739 57.5951 1.92227 57.5851 2.67037C57.5828 2.84489 57.6357 2.89657 57.8326 2.89657C58.7623 2.89069 59.6923 2.8916 60.6221 2.89251C60.963 2.89285 61.3039 2.89319 61.6448 2.89319C61.8315 2.89362 61.9092 2.8824 61.9407 2.91534C61.9701 2.94613 61.9592 3.01548 61.9592 3.16896C61.9645 6.45193 61.9626 9.73462 61.9536 13.017C61.9531 13.2373 62.0214 13.283 62.2511 13.2797C63.1245 13.2665 63.9979 13.2653 64.8709 13.2797C65.1038 13.283 65.1473 13.2195 65.1473 13.0213C65.1438 11.3728 65.1431 9.72431 65.1424 8.07583C65.1417 6.42736 65.141 4.77888 65.1375 3.13041C65.1371 2.93428 65.1965 2.88726 65.4084 2.88726C66.0885 2.89146 66.7686 2.89162 67.4487 2.89178C68.0705 2.89192 68.6923 2.89207 69.3142 2.8953C69.4882 2.89615 69.535 2.85252 69.535 2.69451C69.5241 1.94642 69.5241 1.19804 69.535 0.449385C69.5378 0.276976 69.4924 0.225719 69.2945 0.225719C67.7934 0.231044 66.2925 0.230616 64.7917 0.230189Z" fill="white"/>
<path fill-rule="evenodd" clip-rule="evenodd" d="M76.9747 0.109033C73.1966 0.645323 70.648 3.51951 70.6868 6.7453C70.6812 7.07691 70.7036 7.40843 70.7537 7.73696C71.0601 9.54959 71.977 11.0462 73.6172 12.1336C75.6816 13.5027 77.9922 13.7954 80.437 13.2447C82.3134 12.8228 83.7917 11.8536 84.8344 10.371C85.8842 8.8769 86.2004 7.24558 85.8636 5.50581C85.5581 3.92956 84.7376 2.61214 83.3776 1.59548C81.5073 0.193755 79.3325 -0.226889 76.9747 0.109033ZM81.5434 9.54705C80.7846 10.3845 79.6309 10.8272 78.3622 10.8293C76.1836 10.8327 74.3825 9.41954 74.0733 7.44891C73.8562 6.05142 74.1987 4.78737 75.3163 3.7669C77.4388 1.82973 81.171 2.52657 82.2867 5.08009C82.9861 6.67964 82.7634 8.19827 81.5434 9.54705ZM28.0105 13.2738H28.2851L28.2409 13.2122C28.1947 13.1478 28.1623 13.1026 28.1279 13.0573L24.9898 8.90086L24.9895 8.90046C24.8886 8.7667 24.8371 8.69849 24.8506 8.64732C24.8646 8.59407 24.9488 8.55927 25.1206 8.48826L25.1206 8.48826L25.1329 8.48318C26.2169 8.03458 27.0453 7.35045 27.4949 6.33379C27.8509 5.5302 27.9234 4.69103 27.7962 3.83788C27.6315 2.73353 27.1099 1.81049 26.0905 1.15008C25.0974 0.50577 23.9629 0.249063 22.7667 0.237626C21.329 0.223522 19.8912 0.224874 18.4534 0.226226C17.6457 0.226986 16.838 0.227745 16.0302 0.225765C15.8688 0.225341 15.822 0.26516 15.822 0.413847C15.8323 1.14839 15.8365 1.88292 15.822 2.61661C15.8178 2.81359 15.8908 2.84494 16.0864 2.84494C18.1143 2.8407 20.1409 2.8407 22.1679 2.8407C22.4954 2.8366 22.8221 2.87062 23.14 2.94195C23.984 3.13977 24.4934 3.65022 24.6062 4.4106C24.7227 5.19724 24.3615 5.8962 23.6383 6.25965C23.2135 6.47315 22.7494 6.54686 22.2662 6.54686C21.4716 6.54588 20.677 6.54585 19.8824 6.54581H19.882C18.6108 6.54575 17.3397 6.54569 16.0686 6.54178C15.8712 6.54093 15.8244 6.58965 15.8244 6.7646C15.83 8.8688 15.83 10.9727 15.8244 13.0764C15.8239 13.231 15.8623 13.2784 16.0419 13.2784C16.9464 13.2683 17.8508 13.2683 18.7552 13.2784C18.9583 13.2806 19.0158 13.2369 19.0158 13.0467C19.011 12.4085 19.0109 11.7705 19.0108 11.1327V11.1319C19.0107 10.5275 19.0105 9.92317 19.0064 9.31896C19.0055 9.14147 19.0621 9.09275 19.2553 9.09572C19.8864 9.10758 20.5184 9.1097 21.1495 9.09572C21.3638 9.09063 21.484 9.15926 21.6005 9.31557C22.0797 9.96222 22.5622 10.6069 23.0446 11.2515L23.045 11.2519L23.0453 11.2524L23.0456 11.2528L23.0459 11.2532C23.5067 11.869 23.9676 12.4847 24.4256 13.1022C24.5257 13.2373 24.6328 13.2776 24.8064 13.2776C25.6154 13.2721 26.4244 13.2728 27.2334 13.2734H27.2338C27.4927 13.2736 27.7516 13.2738 28.0105 13.2738ZM7.61556 0.0136415C9.69219 -0.0350735 11.4769 0.663034 12.9762 2.0046C13.089 2.10542 13.1016 2.16219 12.9912 2.27487C12.4373 2.83968 11.8906 3.40943 11.3511 3.98413C11.2463 4.09596 11.1915 4.11121 11.0629 4.00785C10.5689 3.60458 10.0533 3.21909 9.42694 3.00305C7.82561 2.44855 6.28838 2.50235 4.91722 3.52494C3.96802 4.23279 3.49974 5.18845 3.38045 6.28517C3.25695 7.42468 3.53109 8.47862 4.30485 9.39447C5.12493 10.3654 6.22663 10.8297 7.58235 10.8318C8.92404 10.8318 10.015 10.3234 10.9913 9.54442C11.294 9.30254 11.2973 9.30424 11.57 9.56857C11.7416 9.73494 11.9127 9.90165 12.0838 10.0683L12.0842 10.0687C12.4541 10.429 12.8238 10.7892 13.198 11.1457C13.3042 11.2465 13.2958 11.3032 13.1938 11.3998C11.9073 12.6342 10.3354 13.3209 8.46511 13.4531C7.27453 13.5378 6.09611 13.506 4.95651 13.1421C2.6767 12.4138 1.15553 11.0083 0.392993 8.92553C-0.0785626 7.63437 -0.129554 6.3144 0.260602 5.00545C0.99694 2.53454 2.7475 0.94304 5.46737 0.238578C6.16606 0.062445 6.89092 -0.0134546 7.61556 0.0136415ZM44.8838 9.27019C44.8835 9.52089 44.8832 9.7716 44.8832 10.0223C44.8832 10.2357 44.8834 10.449 44.8837 10.6623C44.8844 11.4512 44.8852 12.24 44.8753 13.0283C44.8734 13.2134 44.9146 13.2816 45.1396 13.2782C46.0284 13.2663 46.9173 13.2684 47.8061 13.2782C48.0049 13.2807 48.0676 13.2443 48.0676 13.0499C48.062 12.4746 48.062 11.8993 48.062 11.3241C48.062 10.7488 48.062 10.1736 48.0564 9.5983C48.0545 9.40386 48.121 9.36616 48.3188 9.36913C48.8124 9.37674 49.306 9.37537 49.7994 9.37401H49.7995H49.7997H49.7998H49.7999C49.9923 9.37347 50.1848 9.37294 50.3772 9.37294C51.2792 9.37294 52.1647 9.2717 53.0157 8.99169C54.4014 8.53631 55.4441 7.74247 55.9741 6.46613C56.2876 5.71126 56.3433 4.92928 56.2441 4.13205C56.1187 3.10479 55.6776 2.21352 54.8406 1.50567C53.7969 0.62202 52.5123 0.261529 51.1196 0.240772C49.8168 0.221292 48.5139 0.224024 47.2111 0.226757C46.5023 0.228243 45.7936 0.229729 45.0849 0.22764C44.9169 0.227216 44.8785 0.275508 44.8785 0.419958C44.8874 1.1473 44.8916 1.87463 44.8785 2.60155C44.8748 2.79852 44.9394 2.84682 45.1517 2.84682C46.5742 2.8411 47.9964 2.84152 49.4185 2.84194H49.4187L50.5316 2.84216C50.8511 2.83944 51.1698 2.87245 51.4803 2.94043C52.3654 3.13953 52.909 3.66946 53.0377 4.46543C53.1748 5.31307 52.7968 6.07387 52.0314 6.47376C51.5889 6.70505 51.1028 6.79443 50.5966 6.79443L50.3585 6.79465H50.3582C48.6132 6.79629 46.8682 6.79793 45.1232 6.79104C44.9253 6.79019 44.8785 6.83976 44.8785 7.01471C44.8856 7.76663 44.8847 8.51831 44.8838 9.27011V9.27015V9.27019ZM28.6918 0.229824H29.8038C30.0138 0.229824 30.2237 0.230186 30.4337 0.230547C31.0111 0.231542 31.5884 0.232536 32.1658 0.226012C32.3417 0.226012 32.4399 0.268373 32.5326 0.410282C33.5848 2.02508 34.6421 3.6372 35.7043 5.24663C35.727 5.28167 35.7511 5.31601 35.7801 5.35754L35.7803 5.3577C35.7961 5.38037 35.8135 5.40519 35.833 5.43344C35.9163 5.31008 35.9986 5.18882 36.0799 5.06887L36.0808 5.06758C36.2388 4.83459 36.3934 4.60656 36.5464 4.3778C37.4328 3.0505 38.3175 1.72234 39.2008 0.393338C39.285 0.266255 39.3757 0.223894 39.5343 0.226436C40.3325 0.231256 41.1312 0.230713 41.9297 0.23017C42.1837 0.229997 42.4377 0.229824 42.6916 0.229824H42.9386C42.7113 0.558969 42.5049 0.855495 42.2972 1.1499C40.702 3.40746 39.1074 5.66459 37.5134 7.9213C37.4382 8.02785 37.4002 8.15244 37.4044 8.27882C37.4057 8.91192 37.4059 9.54515 37.4062 10.1784V10.1853C37.4066 11.1382 37.407 12.0911 37.4109 13.0436C37.4109 13.227 37.3641 13.2825 37.1541 13.28C36.2498 13.2685 35.3455 13.2698 34.4408 13.28C34.2513 13.2821 34.2101 13.2291 34.2106 13.0681C34.2143 12.1852 34.2146 11.3023 34.2149 10.4194C34.2151 9.72821 34.2153 9.03698 34.2172 8.34575C34.2191 8.20563 34.1741 8.06827 34.088 7.9518C32.3206 5.43273 30.5565 2.91325 28.7957 0.393338C28.7778 0.367842 28.7614 0.341347 28.7392 0.305502L28.7391 0.305401L28.7391 0.305381C28.7259 0.28408 28.7106 0.259478 28.6918 0.229824ZM64.7917 0.230189C64.3824 0.230072 63.9731 0.229955 63.5638 0.229955C61.6461 0.232779 59.7284 0.231791 57.8106 0.22699C57.6394 0.226566 57.5851 0.26342 57.5851 0.425239C57.5951 1.1739 57.5951 1.92227 57.5851 2.67037C57.5828 2.84489 57.6357 2.89657 57.8326 2.89657C58.7623 2.89069 59.6923 2.8916 60.6221 2.89251C60.963 2.89285 61.3039 2.89319 61.6448 2.89319C61.8315 2.89362 61.9092 2.8824 61.9407 2.91534C61.9701 2.94613 61.9592 3.01548 61.9592 3.16896C61.9645 6.45193 61.9626 9.73462 61.9536 13.017C61.9531 13.2373 62.0214 13.283 62.2511 13.2797C63.1245 13.2665 63.9979 13.2653 64.8709 13.2797C65.1038 13.283 65.1473 13.2195 65.1473 13.0213C65.1438 11.3728 65.1431 9.72431 65.1424 8.07583C65.1417 6.42736 65.141 4.77888 65.1375 3.13041C65.1371 2.93428 65.1965 2.88726 65.4084 2.88726C66.0885 2.89146 66.7686 2.89162 67.4487 2.89178C68.0705 2.89192 68.6923 2.89207 69.3142 2.8953C69.4882 2.89615 69.535 2.85252 69.535 2.69451C69.5241 1.94642 69.5241 1.19804 69.535 0.449385C69.5378 0.276976 69.4924 0.225719 69.2945 0.225719C67.7934 0.231044 66.2925 0.230616 64.7917 0.230189Z" fill="url(#paint0_linear_216_7328)" fill-opacity="0.3"/>
<path d="M21.7533 21.4097C22.4326 21.4127 22.9126 21.8629 22.9088 22.4933C22.9051 23.1325 22.4139 23.5773 21.7192 23.5718C21.0493 23.5667 20.552 23.1012 20.5557 22.484C20.5586 21.8532 21.0568 21.4063 21.7533 21.4097Z" fill="white"/>
<path d="M42.7792 22.4789C42.7792 22.2044 42.7899 21.9282 42.775 21.6549C42.7656 21.488 42.8381 21.447 43.0047 21.4597C43.145 21.4703 43.2854 21.4622 43.4257 21.4618C44.2804 21.4588 44.6387 22.0493 44.5321 22.6873C44.4493 23.1816 44.1377 23.4434 43.588 23.5036C43.3733 23.5269 43.1534 23.5099 42.9364 23.5184C42.8105 23.5231 42.7768 23.471 42.7787 23.3659C42.7825 23.0702 42.7792 22.7745 42.7792 22.4789Z" fill="white"/>
</g>
<defs>
<linearGradient id="paint0_linear_216_7328" x1="4.32624e-07" y1="6.5998" x2="86" y2="6.59981" gradientUnits="userSpaceOnUse">
<stop stop-color="white"/>
<stop offset="1" stop-color="white" stop-opacity="0"/>
</linearGradient>
<clipPath id="clip0_216_7328">
<rect width="86" height="27" fill="white"/>
</clipPath>
</defs>
</svg>
