<svg width="15" height="12" viewBox="0 0 15 12" fill="none" xmlns="http://www.w3.org/2000/svg">
<path d="M0.604492 10.2423C2.05474 10.3188 3.32292 10.0009 4.55971 9.1592C3.31037 8.95907 2.44399 8.42342 1.97313 7.31682C2.33726 7.26973 2.65745 7.35803 3.03413 7.21676C1.80362 6.71055 1.00629 5.95123 0.974903 4.63861C1.36415 4.66805 1.65922 4.90938 2.1238 4.87406C0.993741 3.8381 0.648439 2.70795 1.35787 1.33647C2.53816 2.60789 3.91935 3.47315 5.60817 3.8793C5.70234 3.90284 5.79023 3.92639 5.8844 3.94405C6.31759 4.03823 6.8324 4.23836 7.09608 4.20892C7.54811 4.15595 7.09608 3.6674 7.20909 3.03169C7.56694 1.05394 9.88985 0.153351 11.6101 1.31293C12.1123 1.65432 12.5078 1.64844 13.0038 1.44242C13.2612 1.33647 13.5249 1.23052 13.8325 1.10691C13.7635 1.67198 13.2989 1.98395 12.9285 2.40187C13.3491 2.49016 13.6881 2.37832 14.0774 2.2606C13.9455 2.66675 13.6191 2.89631 13.324 3.11998C13.0164 3.34954 12.8971 3.59088 12.8845 3.96759C12.6962 9.67129 5.78396 14.08 1.05652 10.5719C0.598219 10.2305 1.04396 10.5719 0.604492 10.2423Z" fill="white"/>
</svg>
