<svg width="15" height="14" viewBox="0 0 15 14" fill="none" xmlns="http://www.w3.org/2000/svg">
<path d="M13.9059 4.22545C13.5636 3.46899 13.0722 2.78982 12.4482 2.20452C11.8243 1.62475 11.1009 1.16645 10.2948 0.846193C9.461 0.514893 8.57753 0.349243 7.66645 0.349243C6.75538 0.349243 5.87191 0.514893 5.03814 0.846193C4.23197 1.16645 3.50863 1.61923 2.88468 2.20452C2.26074 2.78982 1.76931 3.46899 1.42697 4.22545C1.07358 5.00953 0.891357 5.84882 0.891357 6.7102C0.891357 8.21762 1.45456 9.6643 2.48711 10.8128L1.93495 13.8221L4.87248 12.5135C5.75043 12.8889 6.68359 13.0767 7.66093 13.0767C8.572 13.0767 9.45547 12.911 10.2892 12.5797C11.0954 12.2595 11.8187 11.8067 12.4427 11.2214C13.0666 10.6361 13.5581 9.95694 13.9004 9.20047C14.2538 8.4164 14.436 7.57711 14.436 6.71572C14.4415 5.84882 14.2593 5.01505 13.9059 4.22545Z" fill="white"/>
<path d="M10.4163 7.9797C10.1292 7.83614 9.91939 7.74779 9.77031 7.69257C9.67644 7.65944 9.45557 7.56005 9.37826 7.62079C9.13531 7.81957 8.87578 8.38278 8.5997 8.48769C7.91501 8.35517 7.28003 7.88583 6.78308 7.40545C6.56221 7.19562 6.15361 6.59928 6.06526 6.43916C6.0487 6.27351 6.34686 6.05264 6.41312 5.92564C6.75546 5.53912 6.49595 5.29617 6.45178 5.13604C6.37448 4.97039 6.24196 4.67222 6.12601 4.42927C6.02662 4.26914 6.00451 4.03171 5.82781 3.94336C5.07687 3.55685 4.6462 4.32988 4.46951 4.73296C3.40382 7.30054 9.80895 12.1872 11.1121 8.81899C11.1783 8.52635 11.1507 8.41591 11.0513 8.28339C10.8525 8.14535 10.6206 8.08461 10.4163 7.9797Z" fill="#131A25"/>
</svg>
