<svg width="1920" height="1530" viewBox="0 0 1920 1530" fill="none" xmlns="http://www.w3.org/2000/svg">
<rect width="1922" height="1530" fill="#F0F1F4"/>
<mask id="mask0_216_8021" style="mask-type:alpha" maskUnits="userSpaceOnUse" x="0" y="0" width="1922" height="1530">
<rect width="1922" height="1530" fill="#F0F1F4"/>
</mask>
<g mask="url(#mask0_216_8021)">
<path d="M968 -212.748C982.689 -225.383 1004.38 -224.654 1020.98 -215.38C1037.57 -206.106 1050.11 -189.725 1060.31 -172.615C1086.53 -128.655 1101.22 -77.8713 1121.92 -30.5704C1142.62 16.7306 1172.03 62.9583 1215.9 84.2397C1284.42 117.448 1362.4 80.7569 1432.57 52.0038C1450.94 44.4713 1470.45 37.364 1489.8 40.7657C1514.61 45.1192 1534.67 66.3601 1546.21 90.7192C1557.75 115.078 1562.22 142.576 1567.09 169.487C1582.74 256.151 1605.38 344.941 1658.28 411.722C1711.19 478.502 1827.76 539.288 1955.8 485.407" stroke="#DFDFE0" stroke-width="0.71" stroke-miterlimit="10"/>
<path opacity="0.98" d="M1953.75 490.408C1881.89 518.756 1813.92 508.834 1758.93 482.207C1719.7 463.194 1687.18 435.737 1665.2 407.287C1645.21 381.059 1628.46 351.847 1615.41 320.461C1610.28 308.312 1605.59 296.163 1601.18 283.689C1591.17 254.607 1582.74 224.853 1575.93 194.595C1573.92 185.848 1572.01 177.121 1570.18 168.414C1566.34 150.089 1562.71 131.541 1556.68 114.026C1554.25 106.792 1551.31 99.7904 1547.9 93.0885C1541.96 81.6047 1534.38 71.3375 1525.46 62.7155C1515.48 53.1176 1504.12 45.8686 1491.56 43.1553C1486.78 42.1582 1481.92 41.7509 1477.07 41.9403C1463.25 42.4465 1449.54 47.1645 1436.43 52.0647C1423.33 56.9648 1410.04 62.189 1396.54 67.1904C1362.2 79.8054 1326.83 90.6789 1291.73 90.8206C1268.99 91.3057 1246.42 86.3241 1225.49 76.2011C1211.6 69.1954 1198.68 59.9256 1187.14 48.6831C1162.76 25.2959 1144.14 -5.32011 1129.46 -36.3411C1114.52 -67.686 1102.44 -100.57 1087.61 -132.178C1080.82 -146.836 1073.24 -160.997 1064.9 -174.579C1054.39 -191.446 1041.78 -207.706 1024.98 -217.101C1008.17 -226.496 986.53 -227.549 971.627 -215.582" stroke="#DFDFE0" stroke-width="0.71" stroke-miterlimit="10"/>
<path opacity="0.95" d="M1953.33 494.701C1884.22 520.012 1819.04 507.701 1765.57 479.413C1727.53 459.266 1695.61 431.181 1673.72 402.084C1653.88 375.418 1637.01 346.056 1623.51 314.67C1618.18 302.642 1613.32 290.372 1608.72 278.222C1598.19 250.07 1589.07 221.257 1581.42 191.922C1579.22 183.526 1577.11 175.163 1575.11 166.834C1570.88 149.279 1566.87 131.561 1560.58 114.896C1558.02 107.971 1554.97 101.3 1551.44 94.9515C1545.14 83.8564 1537.39 73.9213 1528.46 65.4897C1518.38 55.8716 1507.26 48.2378 1495.15 45.0993C1490.57 43.9367 1485.89 43.3661 1481.19 43.3984C1467.91 43.3984 1454.73 47.4481 1442.07 51.8219C1429.41 56.1956 1416.71 60.711 1403.75 65.0442C1370.76 76.0798 1336.77 85.2929 1302.38 84.078C1264.08 83.5127 1227.13 67.8974 1197.78 39.8751C1173.08 16.7714 1153.89 -12.7715 1138.45 -42.78C1122.95 -73.1125 1110.14 -104.822 1094.64 -135.661C1087.5 -150.011 1079.64 -163.877 1071.09 -177.191C1060.26 -193.835 1047.4 -209.973 1030.51 -219.45C1013.61 -228.926 991.955 -230.344 976.999 -219.045" stroke="#DFDFE0" stroke-width="0.7" stroke-miterlimit="10"/>
<path opacity="0.93" d="M1954.41 498.326C1888.06 520.599 1825.68 505.919 1773.71 476.052C1736.85 454.811 1705.6 425.977 1683.73 396.313C1664.07 369.191 1647.09 339.694 1633.08 308.353C1627.6 296.345 1622.5 284.155 1617.63 272.107C1606.58 244.8 1596.78 216.86 1588.27 188.399C1585.9 180.3 1583.61 172.295 1581.4 164.384C1576.76 147.639 1572.35 130.751 1565.81 114.917C1563.12 108.309 1559.95 101.969 1556.33 95.964C1549.67 85.2651 1541.76 75.6468 1532.82 67.3729C1522.61 57.7143 1511.78 49.716 1500.1 46.1725C1495.71 44.8468 1491.19 44.1061 1486.65 43.9654C1473.92 43.4592 1461.28 46.9217 1449.22 50.6272C1437.16 54.3327 1424.91 58.261 1412.48 61.9665C1380.84 71.4024 1348.23 78.8944 1314.44 76.3836C1291.83 74.8876 1269.67 68.6547 1249.05 57.9977C1235.06 50.6174 1221.92 41.3148 1209.93 30.2976C1184.8 7.49754 1165.04 -21.1138 1148.93 -49.9885C1132.76 -79.1871 1119.23 -109.722 1103.06 -139.812C1095.61 -153.891 1087.51 -167.51 1078.79 -180.613C1067.66 -197.034 1054.55 -213.011 1037.55 -222.629C1020.55 -232.247 998.89 -233.887 983.792 -223.337" stroke="#DFDFE0" stroke-width="0.69" stroke-miterlimit="10"/>
<path opacity="0.9" d="M1956.9 501.403C1893.31 520.619 1833.75 503.61 1783.26 471.982C1747.7 449.708 1716.97 420.125 1695.18 389.853C1675.66 362.302 1658.53 332.653 1644.05 301.326C1638.42 289.318 1633.08 277.21 1627.96 265.324C1615.85 237.198 1605.41 210.652 1596.61 184.329C1594.02 176.634 1591.54 168.994 1589.16 161.407C1584.14 145.431 1579.34 129.394 1572.51 114.39C1569.7 108.09 1566.42 102.074 1562.71 96.409C1555.67 86.1447 1547.6 76.8488 1538.67 68.7088C1528.32 59.0299 1517.79 50.6672 1506.53 46.6782C1502.34 45.2063 1498.01 44.2957 1493.62 43.9649C1481.41 42.9727 1469.31 45.8075 1457.77 48.8853C1446.23 51.9631 1434.51 55.2434 1422.6 58.3212C1392.37 66.1575 1361.08 71.9891 1327.95 68.1419C1305.48 65.6248 1283.55 58.7778 1263.1 47.8932C1249.11 40.3572 1235.9 31.088 1223.71 20.2537C1198.17 -2.28309 1177.79 -29.8618 1161.06 -57.7037C1144.32 -85.5457 1129.99 -115.169 1113.15 -144.49C1105.38 -157.955 1097.14 -171.42 1087.9 -184.501C1076.46 -200.7 1063.12 -216.595 1046 -226.254C1028.87 -235.912 1007.25 -238.059 992.007 -228.096" stroke="#DFDFE0" stroke-width="0.69" stroke-miterlimit="10"/>
<path opacity="0.88" d="M1960.71 504.036C1899.89 520.234 1843.14 500.856 1794.13 467.588C1761.29 445.351 1732.12 416.748 1707.93 383.07C1688.57 355.08 1671.31 325.276 1656.36 293.976C1650.56 282.009 1645.01 269.941 1639.64 258.237C1626.89 230.516 1615.71 204.983 1606.25 179.996C1603.47 172.652 1600.8 165.37 1598.24 158.148C1592.82 142.961 1587.57 127.774 1580.46 113.6C1577.5 107.625 1574.1 101.942 1570.31 96.6118C1562.89 86.7918 1554.66 77.8133 1545.73 69.8025C1535.26 60.0831 1525.01 51.3559 1514.18 46.9417C1510.16 45.321 1505.98 44.2405 1501.73 43.7222C1490.05 42.244 1478.49 44.4309 1467.46 46.9012C1456.44 49.3716 1445.25 52.0039 1433.87 54.4337C1404.92 60.6906 1375.19 64.8416 1342.63 59.6579C1320.31 56.1601 1298.61 48.749 1278.28 37.6881C1264.26 29.922 1250.96 20.5888 1238.56 9.82589C1212.59 -12.4477 1191.63 -38.9937 1174.23 -65.7625C1156.84 -92.5312 1141.9 -121.062 1124.44 -149.632C1116.35 -162.733 1107.81 -175.956 1098.33 -188.854C1086.58 -204.83 1073.01 -220.604 1055.78 -230.364C1038.55 -240.124 1016.92 -242.513 1001.56 -233.32" stroke="#DFDFE0" stroke-width="0.68" stroke-miterlimit="10"/>
<path opacity="0.85" d="M1965.76 506.303C1907.71 519.445 1853.72 497.779 1806.24 462.728C1774.19 439.152 1745.71 409.8 1721.93 375.821C1702.7 347.397 1685.3 317.425 1669.88 286.139C1663.9 274.193 1658.16 262.205 1652.5 250.664C1639.15 223.368 1627.21 198.908 1617.09 175.116C1614.13 168.123 1611.27 161.205 1608.51 154.361C1602.69 139.944 1597.12 125.588 1589.76 112.244C1586.67 106.583 1583.16 101.231 1579.27 96.2472C1571.49 86.8839 1563.1 78.2124 1554.16 70.3086C1543.49 60.5488 1533.62 51.4571 1523.22 46.6177C1519.4 44.8584 1515.42 43.6147 1511.35 42.9121C1500.2 40.8873 1489.18 42.4869 1478.67 44.3093C1468.16 46.1317 1457.51 48.1566 1446.66 49.979C1419.08 54.6159 1390.64 57.1267 1358.81 50.5864C1336.68 46.0778 1315.21 38.0838 1295.02 26.8347C1280.96 18.9023 1267.53 9.57907 1254.9 -1.02749C1230.16 -21.9995 1207.97 -46.6213 1188.92 -74.2467C1170.75 -100.246 1155.12 -127.319 1136.96 -155.12C1128.55 -167.877 1119.73 -180.836 1110 -193.592C1097.94 -209.346 1084.14 -224.998 1066.79 -234.839C1049.43 -244.68 1027.84 -247.535 1012.32 -238.889" stroke="#DFDFE0" stroke-width="0.68" stroke-miterlimit="10"/>
<path opacity="0.83" d="M1971.94 508.308C1916.66 518.432 1865.56 494.438 1819.49 457.686C1788.25 432.775 1760.47 402.675 1737.06 368.39C1717.98 339.53 1700.44 309.393 1684.53 278.141C1678.39 266.215 1672.44 254.288 1666.53 242.929C1652.55 216.039 1639.86 192.651 1629.08 170.033C1625.91 163.392 1622.87 156.831 1619.94 150.352C1613.73 136.724 1607.78 123.218 1600.13 110.705C1596.89 105.362 1593.27 100.336 1589.3 95.6803C1582.35 87.5808 1573.38 79.4813 1563.66 70.6529C1552.99 60.8525 1543.29 51.3964 1533.3 46.1318C1529.68 44.2164 1525.88 42.7959 1521.97 41.8998C1511.3 39.4294 1500.86 40.3406 1490.87 41.5556C1480.87 42.7705 1470.75 44.1474 1460.42 45.3218C1434.17 48.3794 1407.07 49.2096 1375.97 41.2721C1354.02 35.7748 1332.74 27.2194 1312.62 15.7992C1298.54 7.63366 1285.02 -1.74866 1272.18 -12.2654C1247.24 -32.7123 1224.55 -56.5073 1204.61 -83.1358C1185.78 -107.92 1169.47 -133.879 1150.6 -160.871C1141.9 -173.323 1132.82 -185.979 1122.79 -198.513C1110.34 -214.044 1096.38 -229.574 1078.91 -239.516C1061.45 -249.459 1039.79 -252.658 1024.21 -244.72" stroke="#DFDFE0" stroke-width="0.67" stroke-miterlimit="10"/>
<path opacity="0.8" d="M1979.17 510.151C1926.65 517.197 1878.4 490.975 1833.79 452.442C1803.39 426.199 1776.28 395.345 1753.23 360.736C1734.09 331.537 1716.66 300.678 1700.3 269.92C1693.99 258.034 1687.85 246.148 1681.65 234.971C1667.07 208.486 1653.6 186.192 1642.17 164.789C1638.83 158.499 1635.59 152.302 1632.46 146.201C1625.86 133.343 1619.51 120.687 1611.6 109.004C1608.23 103.977 1604.49 99.283 1600.43 94.9717C1593.32 87.3784 1584.09 79.7446 1574.25 70.815C1563.42 60.9741 1554.05 51.1535 1544.49 45.4636C1541.06 43.4114 1537.44 41.8277 1533.69 40.7457C1523.61 37.7489 1513.65 38.0729 1504.17 38.7208C1494.69 39.3688 1485.11 40.037 1475.31 40.6039C1450.41 42.0618 1424.77 41.2316 1394.25 31.9982C1372.54 25.4514 1351.51 16.2877 1331.51 4.66251C1317.38 -3.67603 1303.75 -13.0788 1290.72 -23.4832C1265.51 -43.4197 1242.25 -66.3855 1221.36 -91.9845C1201.8 -115.696 1184.87 -140.581 1165.31 -166.722C1156.31 -178.872 1146.88 -191.223 1136.66 -203.575C1123.98 -218.863 1109.7 -234.272 1092.2 -244.315C1074.7 -254.359 1053.08 -257.902 1037.25 -250.633" stroke="#DFDFE0" stroke-width="0.67" stroke-miterlimit="10"/>
<path opacity="0.78" d="M1987.36 511.933C1937.57 515.982 1892.19 487.452 1849.03 447.137C1819.51 419.569 1793.08 387.966 1770.35 353.041C1751.32 323.438 1733.79 292.396 1716.91 261.659C1710.44 249.793 1704.06 237.968 1697.62 226.973C1682.41 200.913 1668.19 179.672 1656.11 159.464C1652.56 153.538 1649.13 147.699 1645.83 141.949C1639.18 129.861 1631.86 118.263 1623.92 107.222C1620.4 102.533 1616.55 98.172 1612.42 94.1821C1605.02 87.095 1595.65 79.8662 1585.74 70.8961C1574.77 61.035 1565.7 50.8499 1556.56 44.7145C1553.32 42.5452 1549.87 40.7995 1546.28 39.5106C1536.73 36.0076 1527.32 35.7039 1518.36 35.6431C1509.4 35.5824 1500.33 35.6431 1491.06 35.6431C1464.73 35.8799 1438.53 31.4254 1413.4 22.441C1391.93 14.883 1371.1 5.13781 1351.16 -6.67663C1337 -15.2153 1323.26 -24.6386 1310.01 -34.9033C1284.59 -54.3738 1260.83 -76.522 1239.06 -101.056C1218.91 -123.694 1201.19 -147.324 1181.03 -172.797C1171.69 -184.541 1161.98 -196.69 1151.53 -208.86C1138.53 -223.925 1124.01 -239.233 1106.32 -249.357C1088.63 -259.481 1067.07 -263.389 1051.19 -256.788" stroke="#DFDFE0" stroke-width="0.66" stroke-miterlimit="10"/>
<path opacity="0.76" d="M1996.4 513.715C1949.41 514.666 1906.86 483.969 1865.12 441.872C1836.52 412.98 1810.78 380.62 1788.35 345.367C1769.48 315.359 1751.77 284.115 1734.45 253.418C1727.8 241.572 1721.2 229.828 1714.51 218.995C1698.68 193.36 1683.69 173.213 1670.96 154.199C1667.23 148.638 1663.61 143.164 1660.11 137.778C1653.07 126.482 1645.4 115.708 1637.15 105.521C1633.5 101.12 1629.54 97.0572 1625.31 93.3722C1617.7 86.7914 1608.11 79.9676 1598.07 70.9772C1586.97 61.0553 1578.2 50.526 1569.47 43.9654C1566.42 41.6561 1563.15 39.7409 1559.73 38.2553C1550.69 34.2056 1541.83 33.3349 1533.39 32.6464C1524.94 31.958 1516.4 31.4315 1507.67 30.6216C1482.28 28.833 1457.26 22.837 1433.39 12.823C1412.21 4.22435 1391.59 -6.10921 1371.72 -18.0968C1357.39 -26.7834 1343.5 -36.5433 1330.23 -46.4449C1304.56 -65.4715 1280.28 -86.8075 1257.6 -110.249C1236.81 -131.591 1218.37 -154.067 1197.48 -178.77C1187.84 -190.17 1177.92 -202.056 1167.14 -214.023C1153.84 -228.865 1139.08 -244.011 1121.27 -254.277C1103.47 -264.544 1081.92 -268.755 1065.86 -262.822" stroke="#DFDFE0" stroke-width="0.65" stroke-miterlimit="10"/>
<path opacity="0.73" d="M2006.18 515.679C1961.95 513.654 1922.24 480.689 1881.96 436.709C1854.3 406.536 1829.22 373.428 1807.08 337.835C1788.37 307.462 1770.48 275.955 1752.71 245.298C1745.88 233.473 1739.07 221.789 1732.12 211.139C1715.67 185.888 1699.95 166.814 1686.56 148.995C1682.62 143.771 1678.82 138.662 1675.14 133.667C1667.7 123.164 1659.68 113.209 1651.13 103.861C1647.31 99.8237 1643.24 96.1148 1638.93 92.7648C1631.11 86.6902 1621.31 80.2916 1611.16 71.2607C1599.95 61.3186 1591.47 50.4248 1583.16 43.4187C1580.32 41.0089 1577.26 38.9394 1574.04 37.2429C1566.17 33.3919 1557.83 30.9075 1549.3 29.8724C1541.43 28.5764 1533.3 27.402 1525.15 26.0656C1504.29 22.7448 1482.85 16.9537 1454.27 3.67058C1433.38 -5.95401 1412.97 -16.8778 1393.13 -29.0513C1378.76 -37.9 1364.68 -47.7003 1351.29 -57.3995C1325.35 -76.0214 1300.51 -96.557 1276.93 -118.874C1255.49 -139.305 1236.32 -160.647 1214.69 -184.581C1204.75 -195.637 1194.45 -207.26 1183.5 -219.004C1169.9 -233.624 1154.9 -248.669 1136.98 -258.995C1119.05 -269.322 1097.61 -273.959 1081.44 -268.715" stroke="#DFDFE0" stroke-width="0.65" stroke-miterlimit="10"/>
<path opacity="0.71" d="M2016.71 518.068C1975.24 512.925 1938.46 477.854 1899.55 432.072C1872.88 400.621 1848.5 366.762 1826.64 330.828C1808.09 300.01 1790.04 268.341 1771.79 237.684C1764.82 225.9 1757.8 214.277 1750.58 203.788C1733.52 178.963 1717.02 160.962 1702.99 144.338L1690.99 130.164C1683.15 120.448 1674.78 111.311 1665.93 102.808C1661.95 99.1154 1657.77 95.7329 1653.39 92.6836C1645.34 87.1152 1635.36 81.1216 1625.1 72.0705C1613.75 62.0879 1605.54 50.8296 1597.69 43.3983C1594.99 40.8486 1592.08 38.5976 1589 36.6758C1581.71 32.3975 1573.93 29.3291 1565.88 27.5638C1558.53 25.539 1550.99 23.8178 1543.31 21.874C1523.75 16.9333 1503.74 9.50204 1475.82 -5.15801C1458.16 -14.4117 1437.29 -25.7307 1415.22 -39.5808C1400.81 -48.632 1386.68 -58.4728 1373.02 -68.0707C1346.84 -86.2742 1321.49 -105.995 1297.08 -127.156C1274.98 -146.494 1255.1 -166.662 1232.88 -189.826C1222.61 -200.538 1212.02 -211.897 1200.87 -223.5C1186.97 -237.896 1171.74 -252.84 1153.69 -263.248C1135.64 -273.656 1113.97 -278.758 1097.62 -274.162" stroke="#DFDFE0" stroke-width="0.64" stroke-miterlimit="10"/>
<path opacity="0.68" d="M2027.78 521.004C1989.09 512.803 1955.03 475.586 1917.69 427.86C1891.97 395.153 1868.2 360.517 1846.55 324.187C1828.15 292.983 1809.94 261.092 1791.25 230.516C1784.13 218.752 1776.86 207.19 1769.39 196.863C1751.7 172.564 1734.45 155.535 1719.76 140.167L1707.2 127.005C1698.97 118.091 1690.25 109.779 1681.1 102.119C1676.98 98.774 1672.68 95.724 1668.22 92.9871C1659.93 87.9047 1649.74 82.3363 1639.38 73.2446C1627.91 63.2418 1620.01 51.6393 1612.56 43.7625C1610.03 41.0848 1607.3 38.6659 1604.4 36.5338C1597.7 31.8327 1590.48 28.1755 1582.93 25.6602C1576.09 23.1089 1569.08 20.6588 1561.93 18.067C1543.77 11.5469 1525.12 2.4755 1497.91 -13.5412C1480.7 -23.6656 1459.94 -35.6326 1437.82 -49.8269C1423.42 -59.0603 1409.14 -68.9416 1395.28 -78.418C1365.99 -98.4237 1340.44 -116.891 1317.67 -135.114C1294.91 -153.338 1274.32 -172.372 1251.43 -194.767C1240.85 -205.134 1229.98 -216.231 1218.53 -227.651C1204.31 -241.825 1188.85 -256.627 1170.7 -267.156C1152.54 -277.685 1130.9 -282.99 1114.41 -279.082" stroke="#DFDFE0" stroke-width="0.64" stroke-miterlimit="10"/>
<path opacity="0.66" d="M2039.34 524.568C2003.42 513.33 1972.19 473.946 1936.33 424.418C1911.62 390.475 1888.51 355.071 1867.08 318.355C1848.85 286.747 1830.46 254.633 1811.33 224.118C1804 212.353 1796.55 200.852 1788.81 190.728C1770.51 166.733 1752.5 150.878 1737.24 136.644C1732.73 132.472 1728.36 128.423 1724.12 124.494C1715.46 116.424 1706.36 108.992 1696.87 102.241C1692.59 99.2681 1688.18 96.5642 1683.64 94.1415C1675.14 89.5856 1664.75 84.4222 1654.28 75.3103C1642.69 65.1859 1635.09 53.2999 1628.05 44.9372C1625.68 42.1429 1623.13 39.5572 1620.42 37.2023C1614.24 32.0796 1607.52 27.8427 1600.43 24.5873C1594.1 21.4083 1587.63 18.3305 1581.01 15.1109C1564.19 7.01146 1546.94 -3.74059 1520.3 -21.114C1503.53 -32.0685 1482.95 -44.7037 1460.74 -59.2017C1446.32 -68.6174 1431.92 -78.519 1417.87 -87.8536C1388.15 -107.596 1362.03 -125.01 1338.59 -142.221C1314.94 -159.692 1292.15 -178.619 1270.32 -198.918C1259.42 -208.921 1248.27 -219.774 1236.53 -231.012C1222.04 -245.024 1206.33 -259.704 1188.14 -270.335C1169.95 -280.965 1148.32 -286.534 1131.71 -283.355" stroke="#DFDFE0" stroke-width="0.63" stroke-miterlimit="10"/>
<path opacity="0.63" d="M2051.31 528.881C2018.15 514.585 1989.75 473.116 1955.28 421.664C1932.93 388.234 1908.87 350.267 1887.92 313.192C1869.83 281.179 1851.3 248.882 1831.69 218.388C1824.52 206.87 1816.8 195.811 1808.57 185.261C1789.65 161.671 1770.89 146.91 1754.88 133.87C1750.14 130.036 1745.57 126.371 1741.19 122.875C1732.16 115.54 1722.73 108.865 1712.96 102.889C1708.98 100.54 1704.52 98.1104 1699.41 95.7413C1690.66 91.6916 1680.1 86.9129 1669.5 77.7808C1657.8 67.6564 1650.49 55.3857 1643.88 46.618C1641.67 43.7016 1639.29 40.9553 1636.76 38.3971C1631.11 32.8544 1624.93 28.0335 1618.36 24.0205C1612.56 20.1935 1606.6 16.488 1600.57 12.6407C1585.1 2.92137 1569.24 -9.43033 1543.26 -28.1806C1526.93 -39.9856 1506.45 -53.2687 1484.23 -68.0503C1469.78 -77.6684 1455.25 -87.6105 1441 -96.8034C1410.86 -116.262 1384.18 -132.644 1360.07 -148.843C1335.71 -165.108 1312.23 -183.019 1289.76 -202.481C1278.53 -212.16 1267.1 -222.73 1255.15 -233.786C1240.32 -247.494 1224.38 -262.134 1206 -272.785C1187.61 -283.436 1166.16 -289.49 1149.39 -286.959" stroke="#DFDFE0" stroke-width="0.63" stroke-miterlimit="10"/>
<path opacity="0.61" d="M2063.58 534.044C2033.19 516.711 2007.58 473.136 1974.67 419.761C1953.5 385.338 1930.05 346.582 1909.19 308.879C1891.26 276.481 1872.55 243.962 1852.51 213.508C1845.18 202.005 1837.24 191.03 1828.72 180.644C1809.16 157.479 1789.59 143.791 1773 131.946C1768.12 128.463 1763.38 125.156 1758.78 122.024C1749.36 115.481 1739.58 109.63 1729.5 104.509C1725.41 102.484 1720.83 100.459 1715.6 98.333C1706.71 94.7693 1695.88 90.4158 1685.17 81.2634C1673.33 71.139 1666.32 58.4836 1660.13 49.2705C1658.08 46.2239 1655.87 43.3104 1653.53 40.5433C1648.38 34.5646 1642.76 29.1418 1636.73 24.3443C1631.39 19.9099 1626.06 15.5564 1620.46 11.0814C1606.34 -0.217322 1591.88 -14.2294 1566.55 -34.3566C1550.66 -46.9715 1530.31 -60.9431 1508.05 -76.0081C1493.57 -85.7882 1478.9 -95.7708 1464.46 -104.842C1433.91 -124.038 1406.66 -139.407 1381.87 -154.492C1356.8 -169.541 1332.63 -186.452 1309.51 -205.114C1297.99 -214.428 1286.25 -224.755 1274.07 -235.628C1258.92 -249.094 1242.75 -263.551 1224.28 -274.364C1205.8 -285.177 1184.3 -291.454 1167.41 -289.551" stroke="#DFDFE0" stroke-width="0.62" stroke-miterlimit="10"/>
<path opacity="0.59" d="M2076.08 540.16C2048.43 519.769 2025.62 474.129 1994.28 418.789C1974.29 383.536 1951.48 343.869 1930.71 305.538C1913.07 272.468 1893.97 240.434 1873.5 209.559C1866 198.079 1857.84 187.187 1849.06 176.959C1828.91 154.199 1808.62 141.584 1791.32 130.954C1786.23 127.809 1781.29 124.859 1776.49 122.105C1766.71 116.344 1756.61 111.318 1746.26 107.06C1742.06 105.38 1737.36 103.618 1732.03 101.857C1722.82 98.8192 1711.86 94.8707 1701.07 85.6576C1689.1 75.5333 1682.38 62.4931 1676.6 52.8345C1674.45 49.21 1672.38 46.1726 1670.55 43.6011C1665.88 37.2164 1660.79 31.2398 1655.33 25.7215C1650.55 20.6391 1645.65 15.5972 1640.64 10.5552C1627.75 -2.30269 1614.69 -17.9347 1590.05 -39.4995C1574.59 -52.9649 1554.37 -67.5844 1532.07 -82.9532C1517.56 -92.9156 1502.78 -102.939 1488.13 -111.868C1457.13 -130.619 1429.32 -145.096 1403.85 -159.088C1378.1 -172.937 1353.24 -188.852 1329.47 -206.713C1317.6 -215.663 1305.6 -225.787 1293.17 -236.418C1277.7 -249.681 1261.3 -264.017 1242.68 -274.89C1224.06 -285.764 1202.63 -292.608 1185.62 -291.292" stroke="#DFDFE0" stroke-width="0.61" stroke-miterlimit="10"/>
<path opacity="0.56" d="M2088.69 547.328C2063.8 523.9 2043.75 476.194 2013.9 418.89C1995.06 382.746 1972.89 342.188 1952.21 303.23C1934.74 269.758 1915.5 237.53 1894.59 206.724C1886.95 195.23 1878.57 184.401 1869.51 174.327C1848.74 152.053 1827.7 140.451 1809.74 130.994C1804.46 128.295 1799.32 125.709 1794.34 123.239C1784.13 118.263 1773.65 114.055 1762.95 110.644C1758.67 109.308 1753.81 107.891 1748.39 106.433C1738.95 103.922 1727.8 100.358 1716.88 91.145C1704.8 81.0207 1698.37 67.5958 1693.01 57.4917C1691.02 53.7052 1689.14 50.5059 1687.48 47.7521C1683.28 40.9198 1678.73 34.3687 1673.86 28.1311C1669.59 22.4209 1665.23 16.7918 1660.74 11.0817C1649.3 -3.43662 1637.62 -20.6885 1613.61 -43.5898C1598.6 -57.8853 1578.52 -73.1933 1556.17 -88.8253C1541.64 -98.9497 1526.72 -109.074 1511.89 -117.842C1480.5 -136.47 1452.12 -149.835 1425.98 -162.774C1399.83 -175.712 1375.76 -188.793 1349.51 -207.321C1337.38 -215.926 1325.07 -225.787 1312.39 -236.236C1296.62 -249.256 1279.99 -263.47 1261.25 -274.384C1242.5 -285.298 1221.11 -292.608 1203.95 -291.96" stroke="#DFDFE0" stroke-width="0.61" stroke-miterlimit="10"/>
<path opacity="0.54" d="M2101.34 555.649C2079.21 529.184 2061.91 479.413 2033.6 420.145C2015.92 383.11 1994.48 341.682 1973.79 302.095C1956.47 268.214 1937.06 235.769 1915.71 205.003C1907.92 193.538 1899.32 182.812 1890 172.929C1868.66 151 1846.8 140.531 1828.18 132.29C1822.72 129.86 1817.38 127.633 1812.18 125.608C1801.58 121.407 1790.75 118.024 1779.76 115.484C1775.37 114.471 1770.37 113.459 1764.84 112.244C1755.16 110.219 1743.84 107.08 1732.83 97.8268C1720.61 87.5809 1714.46 73.9131 1709.55 63.404C1707.77 59.4758 1705.99 56.0942 1704.55 53.2797C1700.21 44.6537 1696.23 38.1944 1692.5 31.897C1688.76 25.5997 1684.92 19.3023 1680.95 12.9443C1670.87 -3.15344 1660.59 -22.0455 1637.23 -46.3034C1622.64 -61.4291 1602.71 -77.4054 1580.32 -93.3208C1565.75 -103.668 1550.71 -113.752 1535.68 -122.438C1503.87 -140.784 1474.93 -153.135 1448.1 -164.961C1421.26 -176.786 1396.53 -188.733 1369.64 -206.551C1357.19 -214.833 1344.56 -224.37 1331.63 -234.677C1315.63 -247.474 1298.68 -261.567 1279.83 -272.663C1260.98 -283.76 1239.71 -291.373 1222.32 -291.474" stroke="#DFDFE0" stroke-width="0.6" stroke-miterlimit="10"/>
<path opacity="0.51" d="M2113.91 565.207C2094.56 535.705 2079.98 483.888 2053.25 422.636C2036.69 384.71 2015.82 342.411 1995.31 302.197C1978.16 267.903 1958.6 235.244 1936.82 204.538C1928.87 193.073 1920.05 182.423 1910.47 172.707C1888.45 151.203 1865.9 141.807 1846.62 134.761C1840.97 132.736 1835.46 130.812 1830.09 129.172C1819.1 125.745 1807.92 123.181 1796.62 121.498L1781.36 119.25C1771.45 117.752 1759.93 114.998 1748.8 105.704C1736.46 95.4377 1730.59 81.4053 1726.11 70.4103C1724.43 66.3606 1722.91 62.736 1721.63 59.6785C1717.84 50.5261 1714.39 43.4796 1711.17 36.5343C1707.95 29.589 1704.64 22.6841 1701.21 15.6983C1692.46 -1.99901 1683.59 -22.5109 1660.86 -48.166C1646.63 -64.122 1626.91 -80.7664 1604.49 -96.9856C1589.95 -107.615 1574.94 -117.355 1559.49 -126.164C1527.27 -144.246 1497.79 -155.585 1470.26 -166.378C1443.03 -177.049 1417.3 -187.902 1389.77 -204.952C1376.95 -212.889 1364.09 -222.163 1350.91 -232.287C1334.53 -244.862 1317.41 -258.833 1298.45 -270.011C1279.49 -281.188 1258.06 -288.963 1240.62 -289.753" stroke="#DFDFE0" stroke-width="0.6" stroke-miterlimit="10"/>
<path opacity="0.49" d="M2126.34 576.06C2109.75 543.501 2097.89 489.659 2072.72 426.402C2057.31 387.606 2037.16 344.415 2016.69 303.574C1999.67 268.869 1979.92 235.993 1957.68 205.348C1949.56 193.893 1940.53 183.325 1930.69 173.78C1908.05 152.681 1884.74 144.379 1864.89 138.507C1859.04 136.792 1853.34 135.287 1847.78 133.991C1836.39 131.346 1824.85 129.607 1813.25 128.787C1808.66 128.463 1803.39 128.079 1797.65 127.532C1787.51 126.56 1775.79 124.191 1764.55 114.876C1752.11 104.55 1746.5 90.2135 1742.45 78.7325C1740.96 74.5005 1739.6 70.7343 1738.5 67.4945C1735.25 57.8359 1732.33 50.1414 1729.61 42.6089C1726.89 35.0764 1724.12 27.5034 1721.22 19.8696C1713.82 0.592864 1706.33 -21.5592 1684.26 -48.571C1670.55 -65.3774 1650.88 -82.6697 1628.42 -99.1927C1613.85 -110.009 1598.71 -119.787 1583.07 -128.472C1550.41 -146.21 1520.35 -156.577 1492.24 -166.277C1464.37 -175.874 1437.89 -185.553 1409.69 -201.833C1396.05 -209.87 1382.8 -218.731 1369.99 -228.379C1353.3 -240.711 1335.96 -254.581 1316.87 -265.86C1297.79 -277.138 1276.35 -285.258 1258.78 -286.716" stroke="#DFDFE0" stroke-width="0.59" stroke-miterlimit="10"/>
<path opacity="0.46" d="M2138.52 588.392C2124.7 552.795 2115.51 496.908 2091.96 431.687C2077.74 392 2058.18 347.918 2037.81 306.449C2020.78 271.682 2001.13 237.847 1978.35 207.656C1970.06 196.209 1960.79 185.724 1950.69 176.351C1927.45 155.657 1903.37 148.428 1882.8 143.771C1876.75 142.394 1870.86 141.26 1865.12 140.329C1853.34 138.46 1841.45 137.54 1829.55 137.575C1824.84 137.575 1819.47 137.575 1813.55 137.312C1803.18 136.866 1791.27 134.882 1779.92 125.527C1767.35 115.18 1762.05 100.5 1758.42 88.5733C1757.09 84.1794 1755.91 80.2309 1755 76.8291C1752.27 66.7047 1749.88 58.342 1747.71 50.1818C1745.54 42.0216 1743.27 33.8006 1740.9 25.5594C1734.86 4.68304 1728.74 -18.9877 1707.35 -47.4978C1694.06 -65.1142 1674.55 -83.095 1652.02 -99.9014C1637.43 -110.913 1622.16 -120.725 1606.34 -129.262C1573.33 -146.818 1542.72 -156.132 1513.83 -164.758C1485.37 -173.262 1458.11 -181.767 1429.25 -197.298C1415.3 -204.966 1401.76 -213.566 1388.7 -223.054C1371.7 -235.203 1354.11 -248.891 1334.92 -260.271C1315.74 -271.651 1294.4 -280.115 1276.67 -282.241" stroke="#DFDFE0" stroke-width="0.58" stroke-miterlimit="10"/>
<path opacity="0.44" d="M2150.35 602.221C2139.3 563.566 2132.78 505.675 2110.87 438.429C2097.66 397.932 2078.86 352.899 2058.6 310.863C2041.71 275.711 2021.9 241.653 1998.66 211.503C1990.22 200.049 1980.74 189.643 1970.38 180.461C1946.51 160.213 1921.69 154.138 1900.46 150.554C1894.22 149.542 1888.14 148.759 1882.21 148.205C1870.02 147.12 1857.78 147.025 1845.58 147.922C1840.77 148.266 1835.26 148.57 1829.29 148.63C1818.62 148.63 1806.59 147.112 1795.12 137.737C1782.43 127.349 1777.34 112.324 1774.21 99.9525C1773.04 95.3965 1772.06 91.2861 1771.33 87.702C1769.14 76.9905 1767.29 68.0811 1765.62 59.3539C1763.95 50.6267 1762.22 41.7173 1760.39 32.8281C1755.68 10.3521 1750.97 -15.0398 1730.16 -44.8256C1717.37 -63.3734 1698.01 -82.0224 1675.41 -99.1123C1660.79 -110.331 1645.41 -120.19 1629.4 -128.594C1595.93 -145.826 1564.74 -154.168 1535.15 -161.721C1506.04 -169.092 1478.01 -176.462 1448.56 -191.244C1434.31 -198.54 1420.49 -206.873 1407.18 -216.19C1389.86 -228.076 1372.04 -241.704 1352.73 -253.185C1333.41 -264.666 1312.09 -273.433 1294.24 -276.268" stroke="#DFDFE0" stroke-width="0.58" stroke-miterlimit="10"/>
<path opacity="0.41" d="M2161.77 617.671C2153.48 575.979 2149.6 516.043 2129.35 446.813C2117.2 405.364 2099.11 359.521 2078.95 316.776C2062.21 281.24 2042.24 246.959 2018.48 216.849C2009.87 205.4 2000.17 195.077 1989.55 186.071C1965.08 166.207 1939.49 161.124 1917.6 158.857C1911.16 158.188 1904.9 157.763 1898.78 157.601C1886.19 157.262 1873.6 157.986 1861.1 159.768C1856.19 160.436 1850.56 161.104 1844.47 161.448C1833.64 162.076 1821.36 160.861 1809.78 151.446C1796.96 141.017 1792.21 125.649 1789.45 112.831C1788.46 108.113 1787.67 103.821 1787.09 100.095C1785.45 88.8366 1784.13 79.3197 1782.98 69.9243C1781.82 60.5289 1780.63 51.0323 1779.32 41.5761C1775.97 17.5207 1772.63 -9.51128 1752.55 -40.674C1740.1 -59.9508 1720.9 -79.2882 1698.29 -96.6616C1683.63 -108.055 1668.11 -117.941 1651.91 -126.204C1618.02 -143.153 1586.28 -150.503 1556.03 -156.982C1526.31 -163.422 1497.57 -169.557 1467.45 -183.549C1452.88 -190.474 1438.77 -198.553 1425.19 -207.726C1407.57 -219.389 1389.52 -232.875 1370.07 -244.457C1350.61 -256.039 1329.34 -265.191 1311.38 -268.755" stroke="#DFDFE0" stroke-width="0.57" stroke-miterlimit="10"/>
<path opacity="0.39" d="M2172.65 634.781C2167.14 590.032 2165.89 528.071 2147.29 456.836C2136.23 414.516 2118.84 367.742 2098.78 324.43C2082.18 288.529 2062.07 254.106 2037.92 223.976C2029.13 212.536 2019.21 202.296 2008.35 193.461C1983.26 174.002 1956.9 170.013 1934.35 168.94C1927.74 168.616 1921.28 168.555 1914.99 168.758C1901.99 169.205 1889.05 170.748 1876.25 173.374C1871.24 174.387 1865.46 175.399 1859.29 176.047C1848.21 177.201 1835.72 176.371 1824.06 166.935C1811.09 156.487 1806.63 140.754 1804.32 127.491C1803.47 122.631 1802.84 118.136 1802.54 114.248C1801.44 102.463 1800.64 92.3593 1800.02 82.3362C1799.39 72.3131 1798.7 62.0876 1797.93 51.9632C1795.93 26.2879 1793.97 -2.34376 1774.55 -34.9239C1762.56 -55.0308 1743.48 -75.0163 1720.83 -92.6934C1706.13 -104.271 1690.48 -114.192 1674.09 -122.317C1639.79 -138.982 1607.47 -145.34 1576.55 -150.665C1546.12 -155.95 1516.69 -160.911 1485.85 -174.154C1470.98 -180.678 1456.56 -188.461 1442.71 -197.44C1424.77 -208.86 1406.49 -222.245 1386.94 -233.888C1367.4 -245.531 1346.04 -255.068 1327.97 -259.198" stroke="#DFDFE0" stroke-width="0.57" stroke-miterlimit="10"/>
<path opacity="0.37" d="M2182.91 653.835C2180.15 606.028 2181.52 542.042 2164.61 468.823C2154.63 425.632 2137.93 378.008 2118 334.007C2101.53 297.681 2081.28 262.955 2056.66 232.926C2047.71 221.476 2037.56 211.317 2026.43 202.674C2000.72 183.64 1973.62 180.725 1950.43 180.826C1943.62 180.826 1936.97 181.13 1930.47 181.737C1917.08 182.961 1903.78 185.33 1890.69 188.824C1885.57 190.16 1879.67 191.537 1873.39 192.469C1862.08 194.17 1849.4 193.704 1837.63 184.248C1824.54 173.759 1820.36 157.682 1818.47 143.973C1817.84 139.418 1817.41 134.829 1817.18 130.224C1816.61 117.933 1816.34 107.202 1816.23 96.5711C1816.13 85.9405 1815.97 75.1277 1815.72 64.3757C1815.06 37.1007 1814.49 6.84913 1795.75 -27.1079C1784.19 -48.0451 1765.23 -68.719 1742.54 -86.6593C1727.82 -98.4544 1712.04 -108.439 1695.47 -116.445C1660.75 -132.847 1627.89 -138.192 1596.27 -142.505C1565.2 -146.737 1535.04 -150.605 1503.55 -162.997C1488.39 -169.171 1473.7 -176.721 1459.6 -185.574C1441.36 -196.711 1422.88 -209.974 1403.16 -221.738C1383.44 -233.503 1362.26 -243.384 1343.98 -248.183" stroke="#DFDFE0" stroke-width="0.56" stroke-miterlimit="10"/>
<path opacity="0.34" d="M2192.25 674.752C2192.25 623.908 2196.21 557.857 2181.01 482.673C2172.12 438.572 2156.11 390.096 2136.26 345.448C2119.99 308.778 2099.54 273.788 2074.48 243.82C2064.97 232.379 2054.76 221.688 2043.63 213.811C2017.29 195.182 1989.43 193.34 1965.58 194.656C1958.57 195.047 1951.73 195.722 1945.06 196.681C1931.23 198.677 1917.56 201.872 1904.15 206.238C1898.34 208.132 1892.45 209.679 1886.5 210.875C1874.97 213.082 1862.1 213.022 1850.22 203.525C1837 192.996 1833.09 176.594 1831.65 162.42C1831.16 157.715 1830.9 152.983 1830.87 148.246C1830.87 135.429 1831.12 124.089 1831.53 112.831C1831.94 101.573 1832.31 90.1323 1832.59 78.7525C1833.27 49.8982 1834.07 18.0065 1816 -17.3275C1804.87 -39.0948 1786.07 -60.4369 1763.35 -78.681C1748.58 -90.6437 1732.66 -100.644 1715.9 -108.487C1680.76 -124.686 1647.33 -128.979 1615.03 -132.198C1583.32 -135.357 1552.42 -137.929 1520.26 -149.653C1504.82 -155.462 1489.83 -162.757 1475.47 -171.46C1456.92 -182.435 1438.12 -195.577 1418.38 -207.422C1398.64 -219.268 1377.43 -229.635 1359.02 -235.102" stroke="#DFDFE0" stroke-width="0.56" stroke-miterlimit="10"/>
<path opacity="0.32" d="M2199.22 697.674C2201.99 643.792 2208.54 575.716 2195.04 498.528C2187.16 453.556 2171.92 404.19 2152.18 358.934C2136.02 321.818 2115.46 286.646 2089.94 256.718C2080.25 245.298 2069.84 234.668 2058.44 226.973C2031.48 208.749 2002.85 208 1978.42 210.511C1971.31 211.24 1964.19 212.272 1957.35 213.568C1943.13 216.35 1929.12 220.365 1915.45 225.576C1909.55 227.841 1903.55 229.721 1897.47 231.205C1885.71 233.959 1872.57 234.263 1860.64 224.746C1847.32 214.176 1843.67 197.43 1842.68 182.811C1842.34 177.907 1842.25 172.985 1842.43 168.07C1842.96 154.726 1843.74 142.779 1844.67 130.893C1845.59 119.007 1846.45 106.939 1847.3 94.9111C1849.33 64.5381 1851.52 30.9455 1834.11 -5.76533C1823.44 -28.3629 1804.75 -50.3124 1781.98 -68.921C1767.15 -81.0782 1751.07 -91.1157 1734.09 -98.8081C1698.53 -114.643 1664.54 -118.024 1631.57 -120.15C1599.22 -122.175 1567.55 -123.633 1534.76 -134.608C1519.03 -140.045 1503.76 -147.072 1489.13 -155.606C1470.28 -166.358 1451.34 -179.378 1431.38 -191.365C1411.43 -203.352 1390.27 -213.902 1371.72 -220.037" stroke="#DFDFE0" stroke-width="0.55" stroke-miterlimit="10"/>
<path opacity="0.29" d="M2204.8 722.741C2210.33 665.822 2219.44 595.681 2207.68 516.529C2200.85 470.645 2186.34 420.429 2166.78 374.525C2150.78 337.024 2130.04 301.629 2104.08 271.742C2094.22 260.342 2083.59 249.793 2071.92 242.26C2044.36 224.462 2015.02 224.786 1989.82 228.491C1982.44 229.558 1975.23 230.908 1968.18 232.541C1953.55 236.07 1939.19 240.904 1925.23 246.998C1919.24 249.623 1913.12 251.827 1906.89 253.6C1894.93 256.9 1881.64 257.649 1869.55 248.031C1856.09 237.421 1852.73 220.331 1852.16 205.266C1851.97 200.182 1852.06 195.089 1852.44 190.019C1853.53 176.148 1854.84 163.594 1856.26 151.08C1857.69 138.567 1859.15 125.871 1860.48 113.215C1863.86 81.1618 1867.4 46.0303 1850.68 7.9223C1840.4 -15.4852 1821.89 -38.184 1799.11 -57.0152C1784.28 -69.3531 1768.09 -79.428 1750.97 -86.9833C1714.99 -102.534 1680.44 -104.924 1646.78 -105.977C1613.79 -106.989 1581.42 -107.191 1547.94 -117.417C1531.92 -122.489 1516.35 -129.268 1501.45 -137.666C1482.28 -148.195 1463.04 -161.073 1443.03 -173.141C1423.02 -185.21 1401.81 -196.103 1383.14 -202.927" stroke="#DFDFE0" stroke-width="0.54" stroke-miterlimit="10"/>
<path opacity="0.27" d="M2209.09 750.037C2217.37 690.06 2229.04 617.853 2219.01 536.737C2213.23 489.963 2199.45 438.895 2179.89 392.344C2163.99 354.458 2143.13 318.841 2116.7 289.075C2106.69 277.716 2095.86 267.207 2083.93 259.857C2055.74 242.463 2025.6 243.86 1999.78 248.76C1992.2 250.191 1984.8 251.939 1977.57 254.005C1962.53 258.318 1947.82 263.971 1933.57 270.912C1927.51 273.865 1921.29 276.368 1914.95 278.404C1902.75 282.231 1889.29 283.284 1877.07 273.707C1863.48 263.076 1860.39 245.622 1860.28 230.111C1860.24 224.852 1860.51 219.596 1861.08 214.378C1862.7 200.001 1864.64 186.82 1866.42 173.698C1868.2 160.577 1870.33 147.213 1872.2 133.93C1876.93 100.277 1881.84 63.5253 1865.8 24.0404C1855.94 -0.258062 1837.57 -23.5846 1814.72 -42.6791C1799.86 -55.217 1783.54 -65.3435 1766.23 -72.7686C1729.82 -88.0361 1694.7 -89.4333 1660.38 -89.3928C1626.75 -89.3928 1593.64 -88.3399 1559.49 -97.8162C1543.19 -102.506 1527.34 -109.01 1512.16 -117.235C1492.77 -127.501 1473.3 -140.278 1453.11 -152.427C1433.77 -164.355 1413.69 -174.662 1393.02 -183.266" stroke="#DFDFE0" stroke-width="0.54" stroke-miterlimit="10"/>
<path opacity="0.24" d="M2212.06 779.641C2223.12 716.627 2237.33 642.355 2229.04 559.295C2224.29 511.589 2211.26 459.671 2191.85 412.492C2176.1 374.222 2155.1 338.381 2128.21 308.575C2118.04 297.236 2106.97 286.788 2094.79 279.599C2065.98 262.631 2035.08 265.101 2008.61 271.196C2000.85 272.992 1993.25 275.098 1985.83 277.514C1970.39 282.611 1955.33 289.097 1940.79 296.912C1934.63 300.25 1928.28 303.112 1921.78 305.477C1909.33 309.831 1895.67 311.268 1883.37 301.671C1869.65 290.979 1866.83 273.201 1867.16 257.245C1867.27 251.817 1867.71 246.404 1868.48 241.046C1870.67 226.163 1873.05 212.374 1875.49 198.625C1877.92 184.876 1880.45 170.864 1882.85 156.973C1888.93 121.72 1895.3 83.3492 1879.84 42.4671C1870.42 17.379 1852.21 -6.65616 1829.3 -26.0544C1814.4 -38.7657 1797.94 -48.9236 1780.45 -56.2047C1743.64 -71.1887 1707.95 -71.5937 1672.93 -70.3788C1638.67 -69.2651 1604.82 -66.9972 1570.02 -75.7852C1553.44 -80.0884 1537.29 -86.3311 1521.83 -94.414C1502.05 -104.538 1482.35 -117.133 1462.11 -129.363C1442.55 -141.438 1422.36 -152.136 1401.65 -161.397" stroke="#DFDFE0" stroke-width="0.53" stroke-miterlimit="10"/>
<path opacity="0.22" d="M2213.68 811.694C2227.49 745.622 2244.23 669.265 2237.72 584.261C2233.4 532.625 2221.46 482.188 2202.42 435.068C2186.79 396.414 2165.64 360.33 2138.31 330.565C2127.96 319.246 2116.7 308.878 2104.24 301.872C2074.82 285.309 2043.17 288.873 2016.05 296.142C2008.08 298.288 2000.29 300.759 1992.68 303.553C1976.83 309.427 1961.42 316.733 1946.59 325.401C1940.34 329.096 1933.88 332.283 1927.24 334.939C1914.59 339.859 1900.72 341.661 1888.29 332.023C1874.46 321.311 1871.91 303.168 1872.68 286.767C1872.95 281.141 1873.57 275.545 1874.55 270.021C1877.27 254.612 1880.17 240.215 1883.13 225.839C1886.1 211.462 1889.13 196.822 1892.03 182.284C1899.44 145.451 1907.11 105.46 1892.42 63.1809C1883.4 37.2829 1865.35 12.5592 1842.39 -7.1225C1827.46 -20.0277 1810.87 -30.2317 1793.2 -37.374C1755.97 -52.0746 1719.72 -51.5481 1684.03 -49.2803C1649.12 -47.0934 1614.53 -43.6511 1579.11 -51.6696C1562.25 -55.6058 1545.82 -61.5863 1530.08 -69.5087C1509.97 -79.3496 1490.03 -91.8835 1469.62 -104.215C1449.91 -116.41 1429.67 -127.473 1408.99 -137.362" stroke="#DFDFE0" stroke-width="0.53" stroke-miterlimit="10"/>
<path opacity="0.2" d="M2213.87 846.258C2230.46 777.129 2249.72 698.686 2244.99 611.738C2241.82 559.356 2230.5 508.032 2211.56 460.157C2196.07 421.117 2174.78 384.831 2146.99 355.106C2136.48 343.808 2125.01 333.481 2112.29 326.657C2082.24 310.458 2049.82 315.135 2022.06 323.62C2013.9 326.13 2005.92 328.959 1998.12 332.104C1981.86 338.749 1966.1 346.875 1950.98 356.402C1944.65 360.447 1938.07 363.965 1931.29 366.932C1918.44 372.378 1904.35 374.565 1891.81 364.907C1877.85 354.155 1875.58 335.668 1876.79 318.821C1877.22 313.013 1878.01 307.247 1879.17 301.569C1882.44 285.674 1885.87 270.649 1889.36 255.645C1892.84 240.641 1896.47 225.272 1899.87 210.207C1908.62 171.734 1917.65 130.143 1903.64 86.4873C1895.05 59.7388 1877.14 34.3672 1854.15 14.402C1839.19 1.28056 1822.46 -8.9782 1804.6 -15.9711C1766.96 -30.3881 1730.14 -28.8087 1693.78 -25.5082C1658.21 -22.2684 1622.91 -17.6314 1586.79 -24.9007C1569.66 -28.4639 1552.92 -34.175 1536.89 -41.9299C1516.49 -51.548 1496.31 -63.9604 1475.84 -76.3526C1455.37 -88.7448 1434.23 -101.117 1414.99 -110.613" stroke="#DFDFE0" stroke-width="0.52" stroke-miterlimit="10"/>
<path opacity="0.17" d="M2212.57 883.435C2231.94 811.289 2253.72 730.74 2250.75 641.868C2248.73 588.788 2238.03 536.601 2219.22 487.978C2203.88 448.493 2182.43 412.046 2154.19 382.26C2143.52 370.981 2131.82 360.736 2118.84 354.074C2088.18 338.341 2055.01 344.051 2026.58 353.73C2018.28 356.591 2010.11 359.784 2002.09 363.307C1985.41 370.728 1969.29 379.673 1953.88 390.056C1947.47 394.467 1940.77 398.318 1933.85 401.577C1920.76 407.551 1906.48 410.122 1893.84 400.423C1879.76 389.63 1877.83 370.799 1879.4 353.507C1879.99 347.521 1880.97 341.593 1882.32 335.769C1886.14 319.327 1890.09 303.695 1894.09 288.063C1898.09 272.431 1902.18 256.536 1906.18 240.742C1916.28 200.71 1926.67 157.459 1913.29 112.426C1905.13 84.8472 1887.37 58.7872 1864.34 38.5385C1849.34 25.266 1832.46 14.9953 1814.44 8.16546C1776.38 -6.00862 1738.98 -3.41676 1701.94 0.977204C1665.73 5.29017 1629.7 11.1015 1592.93 4.62194C1575.52 1.43589 1558.5 -3.99885 1542.17 -11.577C1521.51 -21.0736 1501.13 -33.4253 1480.52 -45.8985C1459.91 -58.3717 1438.89 -71.1284 1419.43 -81.2932" stroke="#DFDFE0" stroke-width="0.52" stroke-miterlimit="10"/>
<path opacity="0.15" d="M2209.73 923.366C2231.87 848.162 2256.14 765.426 2254.97 674.712C2254.09 620.895 2244.02 567.788 2225.32 518.352C2210.1 478.523 2188.53 441.771 2159.83 412.147C2148.96 400.889 2137.06 390.704 2123.83 384.224C2092.55 368.896 2058.62 375.679 2029.58 386.553C2021.03 389.752 2012.68 393.303 2004.52 397.204C1987.44 405.415 1970.96 415.193 1955.26 426.443C1948.76 431.184 1941.94 435.36 1934.88 438.936C1921.6 445.456 1907.09 448.392 1894.34 438.673C1880.11 427.84 1878.33 408.644 1880.5 390.927C1881.26 384.765 1882.4 378.674 1883.94 372.703C1888.31 355.775 1892.83 339.515 1897.29 323.276C1901.75 307.036 1906.43 290.453 1910.97 274.031C1922.42 232.42 1934.08 187.529 1921.53 141.119C1913.78 112.771 1896.17 86.0018 1873.11 65.4494C1858.07 51.968 1841.06 41.6357 1822.85 34.9346C1784.37 21.0643 1746.38 24.5268 1708.7 30.1154C1671.83 35.3801 1635.09 42.4874 1597.64 36.7367C1579.97 33.9212 1562.66 28.7353 1546.07 21.287C1525.03 12.1346 1504.38 -0.0348641 1483.68 -12.67C1462.98 -25.3052 1441.88 -38.3251 1422.37 -49.1177" stroke="#DFDFE0" stroke-width="0.51" stroke-miterlimit="10"/>
<path opacity="0.12" d="M2205.25 966.111C2230.14 887.87 2256.92 803.068 2257.55 710.39C2257.81 655.875 2248.37 601.865 2229.79 551.62C2214.69 511.406 2192.98 474.452 2163.83 444.849C2152.8 433.631 2140.71 423.507 2127.18 417.189C2095.29 402.286 2060.6 410.143 2030.86 422.231C2022.14 425.781 2013.59 429.689 2005.24 433.955C1987.74 442.947 1970.91 453.545 1954.93 465.644C1948.33 470.729 1941.41 475.231 1934.21 479.11C1920.69 486.176 1906 489.497 1893.15 479.737C1878.81 468.884 1877.35 449.364 1879.88 431.14C1880.8 424.788 1882.12 418.521 1883.85 412.39C1888.75 394.936 1893.77 378.069 1898.8 361.202C1903.83 344.334 1908.97 327.123 1914.04 310.074C1926.85 266.843 1939.95 220.331 1927.98 172.545C1920.68 143.305 1903.21 115.848 1880.09 95.0933C1865.03 81.4224 1847.88 71.0423 1829.5 64.4773C1790.61 50.8904 1752.07 55.3654 1713.68 62.0069C1676.17 68.365 1638.7 76.6467 1600.59 71.6655C1582.66 69.1938 1565.05 64.2717 1548.15 57.0055C1526.81 48.0758 1505.93 36.0279 1485.11 23.2914C1464.28 10.555 1443.19 -2.80913 1423.54 -14.3306" stroke="#DFDFE0" stroke-width="0.5" stroke-miterlimit="10"/>
<path opacity="0.07" d="M2191.13 1060.49C2221.55 976.154 2253.37 887.1 2257.55 790.636C2260.03 734.777 2251.84 678.972 2233.54 627.067C2218.67 586.124 2196.73 548.684 2166.66 519.162C2155.29 507.984 2142.77 497.981 2128.74 492.028C2095.61 477.955 2059.39 487.979 2028.35 502.436C2019.25 506.675 2010.36 511.305 2001.68 516.327C1983.35 526.864 1965.82 539.109 1949.27 552.936C1942.52 558.693 1935.38 563.852 1927.93 568.366C1913.99 576.465 1898.87 580.515 1885.78 570.755C1871.2 559.821 1870.26 539.572 1873.73 520.538C1874.95 513.815 1876.63 507.208 1878.74 500.776C1884.75 482.329 1890.78 464.186 1896.86 446.104C1902.95 428.022 1909.13 409.515 1915.25 391.21C1930.74 344.8 1946.53 295.029 1935.99 244.468C1929.48 213.568 1912.37 184.835 1889.16 163.473C1873.98 149.366 1856.46 138.873 1837.65 132.614C1797.92 119.574 1758.24 126.054 1718.5 134.862C1679.69 143.366 1640.76 154.017 1601.32 150.534C1582.86 148.788 1564.67 144.393 1547.17 137.454C1525.23 128.99 1503.87 117.205 1482.81 104.266C1461.76 91.3271 1440.67 77.2542 1420.8 64.3963" stroke="#DFDFE0" stroke-width="0.49" stroke-miterlimit="10"/>
<path opacity="0.05" d="M2181.18 1112.33C2214.37 1024.95 2248.62 933.733 2254.67 835.405C2258.04 780.227 2251.11 721.729 2232.54 669.366C2217.82 628.018 2195.71 590.396 2165.2 560.873C2153.66 549.737 2140.92 539.794 2126.63 534.003C2092.84 520.335 2055.92 531.432 2024.23 547.084C2014.91 551.701 2005.8 556.695 1996.9 562.068C1978.16 573.394 1960.27 586.458 1943.42 601.128C1936.57 607.254 1929.3 612.752 1921.69 617.57C1907.46 626.256 1892.2 630.671 1879.01 620.83C1864.32 609.875 1863.64 589.262 1867.54 569.783C1868.94 562.884 1870.79 556.116 1873.09 549.534C1879.63 530.581 1886.19 511.831 1892.79 493.081C1899.39 474.33 1906.11 455.216 1912.76 436.283C1929.6 388.274 1946.76 336.882 1936.89 284.945C1930.79 253.215 1913.78 223.814 1890.66 202.107C1875.52 187.885 1857.96 177.379 1839.09 171.248C1798.93 158.492 1758.69 165.984 1718.28 175.845C1678.82 185.443 1639.18 197.247 1599.13 194.554C1580.42 193.163 1561.94 189.032 1544.15 182.263C1521.88 174.022 1500.29 162.319 1479.13 149.319C1457.97 136.319 1436.93 121.862 1416.89 108.336" stroke="#DFDFE0" stroke-width="0.49" stroke-miterlimit="10"/>
<path opacity="0.02" d="M2169.32 1167.32C2205.35 1076.97 2242.04 983.606 2249.81 883.395C2254.2 827.266 2248.03 767.977 2229.59 715.047C2215.01 673.295 2192.76 635.43 2161.78 605.988C2150.08 594.871 2137.12 584.99 2122.66 579.381C2088.28 566.118 2050.57 578.308 2018.22 595.155C2008.73 600.096 1999.43 605.448 1990.32 611.212C1971.17 623.335 1952.94 637.225 1935.79 652.742C1928.85 659.205 1921.47 665.028 1913.72 670.156C1899.35 679.369 1883.81 684.168 1870.53 674.206C1855.7 663.191 1855.32 642.233 1859.63 622.329C1861.2 615.277 1863.22 608.367 1865.69 601.655C1872.8 582.176 1879.92 562.818 1887.03 543.44L1908.58 484.719C1926.76 435.109 1945.32 382.078 1936.11 328.804C1930.46 296.224 1913.63 266.154 1890.34 244.164C1875.14 229.747 1857.41 219.198 1838.34 213.224C1797.76 200.751 1756.96 209.175 1715.86 220.19C1675.78 230.841 1635.39 243.84 1594.62 241.896C1575.64 240.86 1556.87 236.993 1538.78 230.395C1516.21 222.296 1494.32 210.794 1473.1 197.693C1451.89 184.593 1430.8 169.811 1410.59 155.596" stroke="#DFDFE0" stroke-width="0.48" stroke-miterlimit="10"/>
<path d="M810.98 1623.55C796.291 1636.18 774.596 1635.45 758.004 1626.18C741.412 1616.91 728.874 1600.52 718.667 1583.41C692.454 1539.45 677.765 1488.67 657.065 1441.37C636.365 1394.07 606.951 1347.84 563.08 1326.56C494.56 1293.35 416.58 1330.04 346.406 1358.8C328.036 1366.33 308.528 1373.44 289.179 1370.03C264.372 1365.68 244.312 1344.44 232.77 1320.08C221.229 1295.72 216.765 1268.22 211.893 1241.31C196.243 1154.65 173.605 1065.86 120.699 999.078C67.7937 932.298 -48.7765 871.511 -176.817 925.393" stroke="#DFDFE0" stroke-width="0.71" stroke-miterlimit="10"/>
<path opacity="0.98" d="M-174.772 920.391C-102.909 892.043 -34.9408 901.965 20.0456 928.592C59.2758 947.606 91.8016 975.063 113.782 1003.51C133.771 1029.74 150.524 1058.95 163.576 1090.34C168.697 1102.49 173.392 1114.64 177.802 1127.11C187.811 1156.19 196.244 1185.95 203.055 1216.2C205.058 1224.95 206.973 1233.68 208.799 1242.39C212.64 1260.71 216.268 1279.26 222.296 1296.77C224.731 1304.01 227.669 1311.01 231.081 1317.71C237.016 1329.19 244.602 1339.46 253.524 1348.08C263.501 1357.68 274.864 1364.93 287.419 1367.64C292.198 1368.64 297.057 1369.05 301.913 1368.86C315.73 1368.35 329.441 1363.64 342.548 1358.74C355.654 1353.83 368.938 1348.61 382.436 1343.61C416.776 1330.99 452.147 1320.12 487.252 1319.98C509.99 1319.49 532.562 1324.48 553.495 1334.6C567.38 1341.6 580.296 1350.87 591.836 1362.12C616.217 1385.5 634.836 1416.12 649.525 1447.14C664.463 1478.49 676.538 1511.37 691.37 1542.98C698.157 1557.64 705.741 1571.8 714.079 1585.38C724.589 1602.25 737.197 1618.51 754.003 1627.9C770.808 1637.3 792.451 1638.35 807.353 1626.38" stroke="#DFDFE0" stroke-width="0.71" stroke-miterlimit="10"/>
<path opacity="0.95" d="M-174.346 916.099C-105.239 890.788 -40.063 903.099 13.4117 931.386C51.4505 951.534 83.3717 979.619 105.263 1008.72C125.103 1035.38 141.966 1064.74 155.466 1096.13C160.801 1108.16 165.656 1120.43 170.261 1132.58C180.795 1160.73 189.909 1189.54 197.559 1218.88C199.764 1227.27 201.869 1235.64 203.872 1243.97C208.105 1261.52 212.106 1279.24 218.401 1295.9C220.958 1302.83 224.015 1309.5 227.542 1315.85C233.839 1326.94 241.587 1336.88 250.518 1345.31C260.601 1354.93 271.716 1362.56 283.826 1365.7C288.409 1366.86 293.092 1367.43 297.786 1367.4C311.071 1367.4 324.248 1363.35 336.91 1358.98C349.572 1354.6 362.269 1350.09 375.233 1345.76C408.221 1334.72 442.206 1325.51 476.599 1326.72C514.898 1327.29 551.85 1342.9 581.201 1370.92C605.902 1394.03 625.09 1423.57 640.526 1453.58C656.033 1483.91 668.837 1515.62 684.345 1546.46C691.481 1560.81 699.343 1574.68 707.89 1587.99C718.72 1604.64 731.577 1620.77 748.472 1630.25C765.366 1639.73 787.026 1641.14 801.982 1629.84" stroke="#DFDFE0" stroke-width="0.7" stroke-miterlimit="10"/>
<path opacity="0.93" d="M-175.43 912.474C-109.08 890.201 -46.6958 904.881 5.26734 934.748C42.1324 955.989 73.3778 984.823 95.2514 1014.49C114.91 1041.61 131.894 1071.11 145.899 1102.45C151.376 1114.45 156.48 1126.64 161.352 1138.69C172.4 1166 182.2 1193.94 190.713 1222.4C193.084 1230.5 195.372 1238.5 197.577 1246.42C202.219 1263.16 206.629 1280.05 213.173 1295.88C215.862 1302.49 219.033 1308.83 222.652 1314.84C229.315 1325.53 237.224 1335.15 246.161 1343.43C256.369 1353.09 267.199 1361.08 278.883 1364.63C283.274 1365.95 287.786 1366.69 292.327 1366.83C305.06 1367.34 317.704 1363.88 329.761 1360.17C341.819 1356.47 354.071 1352.54 366.502 1348.83C398.139 1339.4 430.753 1331.91 464.542 1334.42C487.146 1335.91 509.314 1342.15 529.932 1352.8C543.917 1360.18 557.056 1369.49 569.055 1380.5C594.183 1403.3 613.94 1431.91 630.052 1460.79C646.217 1489.99 659.75 1520.52 675.916 1550.61C683.368 1564.69 691.471 1578.31 700.19 1591.41C711.322 1607.83 724.429 1623.81 741.43 1633.43C758.431 1643.05 780.091 1644.69 795.189 1634.14" stroke="#DFDFE0" stroke-width="0.69" stroke-miterlimit="10"/>
<path opacity="0.9" d="M-177.919 909.397C-114.326 890.181 -54.7692 907.19 -4.28205 938.818C31.2848 961.092 62.0145 990.675 83.7992 1020.95C103.323 1048.5 120.446 1078.15 134.927 1109.47C140.564 1121.48 145.899 1133.59 151.021 1145.48C163.131 1173.6 173.57 1200.15 182.373 1226.47C184.957 1234.17 187.441 1241.81 189.824 1249.39C194.839 1265.37 199.64 1281.41 206.469 1296.41C209.28 1302.71 212.559 1308.73 216.268 1314.39C223.311 1324.66 231.38 1333.95 240.311 1342.09C250.661 1351.77 261.189 1360.13 272.446 1364.12C276.642 1365.59 280.975 1366.5 285.356 1366.83C297.574 1367.83 309.666 1364.99 321.208 1361.91C332.749 1358.84 344.469 1355.56 356.383 1352.48C386.615 1344.64 417.896 1338.81 451.027 1342.66C473.497 1345.17 495.428 1352.02 515.883 1362.91C529.866 1370.44 543.076 1379.71 555.273 1390.55C580.81 1413.08 601.19 1440.66 617.924 1468.5C634.658 1496.35 648.992 1525.97 665.833 1555.29C673.604 1568.75 681.838 1582.22 691.085 1595.3C702.52 1611.5 715.857 1627.39 732.983 1637.05C750.108 1646.71 771.733 1648.86 786.973 1638.9" stroke="#DFDFE0" stroke-width="0.69" stroke-miterlimit="10"/>
<path opacity="0.88" d="M-181.725 906.764C-120.906 890.565 -64.1592 909.943 -15.1481 943.212C17.691 965.449 46.8623 994.052 71.0482 1027.73C90.4138 1055.72 107.666 1085.52 122.62 1116.82C128.417 1128.79 133.966 1140.86 139.336 1152.56C152.087 1180.28 163.273 1205.82 172.734 1230.8C175.508 1238.15 178.176 1245.43 180.736 1252.65C186.16 1267.84 191.406 1283.03 198.52 1297.2C201.482 1303.18 204.879 1308.86 208.674 1314.19C216.086 1324.01 224.317 1332.99 233.251 1341C243.725 1350.72 253.968 1359.44 264.799 1363.86C268.824 1365.48 273.002 1366.56 277.247 1367.08C288.931 1368.56 300.49 1366.37 311.516 1363.9C322.541 1361.43 333.727 1358.8 345.108 1356.37C374.06 1350.11 403.794 1345.96 436.355 1351.14C458.669 1354.64 480.373 1362.05 500.696 1373.11C514.716 1380.88 528.024 1390.21 540.424 1400.97C566.388 1423.25 587.354 1449.79 604.746 1476.56C622.139 1503.33 637.077 1531.86 654.54 1560.43C662.631 1573.53 671.167 1586.76 680.646 1599.65C692.401 1615.63 705.97 1631.4 723.202 1641.16C740.434 1650.92 762.058 1653.31 777.423 1644.12" stroke="#DFDFE0" stroke-width="0.68" stroke-miterlimit="10"/>
<path opacity="0.85" d="M-186.776 904.496C-128.731 891.355 -74.7406 913.021 -27.2588 948.072C4.79514 971.647 33.2702 1001 57.0524 1034.98C76.282 1063.4 93.6782 1093.37 109.104 1124.66C115.08 1136.61 120.824 1148.59 126.479 1160.14C139.834 1187.43 151.767 1211.89 161.886 1235.68C164.85 1242.68 167.713 1249.59 170.475 1256.44C176.29 1270.86 181.856 1285.21 189.219 1298.56C192.312 1304.22 195.822 1309.57 199.711 1314.55C207.487 1323.92 215.882 1332.59 224.821 1340.49C235.491 1350.25 245.361 1359.34 255.764 1364.18C259.577 1365.94 263.558 1367.19 267.626 1367.89C278.776 1369.91 289.802 1368.31 300.312 1366.49C310.822 1364.67 321.474 1362.64 332.322 1360.82C359.904 1356.18 388.34 1353.67 420.172 1360.21C442.3 1364.72 463.769 1372.72 483.961 1383.97C498.025 1391.9 511.449 1401.22 524.08 1411.83C548.823 1432.8 571.009 1457.42 590.057 1485.05C608.232 1511.05 623.863 1538.12 642.02 1565.92C650.432 1578.68 659.252 1591.64 668.98 1604.39C681.037 1620.15 694.837 1635.8 712.193 1645.64C729.55 1655.48 751.139 1658.33 766.664 1649.69" stroke="#DFDFE0" stroke-width="0.68" stroke-miterlimit="10"/>
<path opacity="0.83" d="M-192.964 902.492C-137.675 892.367 -86.5837 916.362 -40.5069 953.113C-9.26927 978.025 18.5144 1008.12 41.9192 1042.41C60.9994 1071.27 78.5416 1101.41 94.4514 1132.66C100.587 1144.59 106.544 1156.51 112.448 1167.87C126.426 1194.76 139.123 1218.15 149.9 1240.77C153.066 1247.41 156.112 1253.97 159.041 1260.45C165.247 1274.08 171.205 1287.58 178.851 1300.09C182.087 1305.44 185.71 1310.46 189.682 1315.12C196.635 1323.22 205.598 1331.32 215.325 1340.15C225.995 1349.95 235.687 1359.4 245.682 1364.67C249.298 1366.58 253.1 1368 257.01 1368.9C267.68 1371.37 278.119 1370.46 288.113 1369.24C298.107 1368.03 308.226 1366.65 318.558 1365.48C344.806 1362.42 371.908 1361.59 403.012 1369.53C424.965 1375.02 446.24 1383.58 466.356 1395C480.445 1403.17 493.965 1412.55 506.795 1423.07C531.74 1443.51 554.429 1467.31 574.372 1493.94C593.205 1518.72 609.513 1544.68 628.381 1571.67C637.077 1584.12 646.164 1596.78 656.194 1609.31C668.642 1624.84 682.602 1640.37 700.066 1650.32C717.529 1660.26 739.189 1663.46 754.767 1655.52" stroke="#DFDFE0" stroke-width="0.67" stroke-miterlimit="10"/>
<path opacity="0.8" d="M-200.185 900.649C-147.67 893.602 -99.4237 919.824 -54.8051 958.358C-24.4048 984.6 2.69943 1015.46 25.7537 1050.06C44.8887 1079.26 62.3165 1110.12 78.6772 1140.88C84.9903 1152.77 91.1256 1164.65 97.332 1175.83C111.914 1202.31 125.376 1224.61 136.811 1246.01C140.154 1252.3 143.391 1258.5 146.521 1264.6C153.119 1277.46 159.467 1290.11 167.381 1301.8C170.75 1306.82 174.486 1311.52 178.549 1315.83C185.662 1323.42 194.892 1331.06 204.726 1339.98C215.556 1349.83 224.928 1359.65 234.495 1365.34C237.917 1367.39 241.541 1368.97 245.29 1370.05C255.373 1373.05 265.332 1372.73 274.811 1372.08C284.289 1371.43 293.874 1370.76 303.673 1370.2C328.57 1368.74 354.213 1369.57 384.73 1378.8C406.437 1385.35 427.469 1394.51 447.47 1406.14C461.603 1414.48 475.231 1423.88 488.265 1434.28C513.473 1454.22 536.726 1477.19 557.62 1502.78C577.182 1526.5 594.112 1551.38 613.674 1577.52C622.672 1589.67 632.097 1602.02 642.323 1614.37C655.002 1629.66 669.282 1645.07 686.781 1655.12C704.28 1665.16 725.905 1668.7 741.732 1661.43" stroke="#DFDFE0" stroke-width="0.67" stroke-miterlimit="10"/>
<path opacity="0.78" d="M-208.383 898.867C-158.589 894.817 -113.206 923.348 -70.0458 963.663C-40.5272 991.231 -14.1036 1022.83 8.62798 1057.76C27.6562 1087.36 45.1907 1118.4 62.0672 1149.14C68.5403 1161.01 74.9246 1172.83 81.3622 1183.83C96.567 1209.89 110.794 1231.13 122.869 1251.34C126.425 1257.26 129.852 1263.1 133.147 1268.85C139.803 1280.94 147.121 1292.54 155.057 1303.58C158.58 1308.27 162.428 1312.63 166.563 1316.62C173.96 1323.7 183.332 1330.93 193.238 1339.9C204.21 1349.76 213.28 1359.95 222.42 1366.09C225.664 1368.25 229.112 1370 232.699 1371.29C242.249 1374.79 251.656 1375.1 260.619 1375.16C269.582 1375.22 278.651 1375.16 287.917 1375.16C314.25 1374.92 340.453 1379.37 365.577 1388.36C387.05 1395.92 407.881 1405.66 427.819 1417.48C441.982 1426.02 455.72 1435.44 468.97 1445.7C494.39 1465.17 518.146 1487.32 539.925 1511.86C560.074 1534.49 577.786 1558.12 597.953 1583.6C607.289 1595.34 616.999 1607.49 627.455 1619.66C640.455 1634.72 654.966 1650.03 672.661 1660.16C690.355 1670.28 711.909 1674.19 727.789 1667.59" stroke="#DFDFE0" stroke-width="0.66" stroke-miterlimit="10"/>
<path opacity="0.76" d="M-217.416 897.085C-170.432 896.133 -127.877 926.83 -86.1391 968.927C-57.5417 997.82 -31.799 1030.18 -9.36812 1065.43C9.50009 1095.44 27.2124 1126.68 44.5334 1157.38C51.1844 1169.23 57.7821 1180.97 64.4687 1191.8C80.2959 1217.44 95.2873 1237.59 108.02 1256.6C111.755 1262.16 115.371 1267.64 118.868 1273.02C125.912 1284.32 133.58 1295.09 141.827 1305.28C145.485 1309.68 149.445 1313.74 153.67 1317.43C161.282 1324.01 170.867 1330.83 180.914 1339.82C192.011 1349.74 200.779 1360.27 209.51 1366.83C212.562 1369.14 215.831 1371.06 219.255 1372.54C228.289 1376.59 237.146 1377.46 245.593 1378.15C254.04 1378.84 262.576 1379.37 271.308 1380.18C296.696 1381.97 321.72 1387.96 345.589 1397.98C366.775 1406.58 387.386 1416.91 407.262 1428.9C421.595 1437.58 435.484 1447.34 448.751 1457.24C474.417 1476.27 498.703 1497.61 521.378 1521.05C542.167 1542.39 560.608 1564.87 581.504 1589.57C591.142 1600.97 601.065 1612.86 611.842 1624.82C625.144 1639.67 639.904 1654.81 657.706 1665.08C675.507 1675.34 697.06 1679.56 713.119 1673.62" stroke="#DFDFE0" stroke-width="0.65" stroke-miterlimit="10"/>
<path opacity="0.73" d="M-227.198 895.121C-182.971 897.146 -143.26 930.111 -102.981 974.091C-75.3154 1004.26 -50.2398 1037.37 -28.0948 1072.97C-9.38664 1103.34 8.50349 1134.85 26.2691 1165.5C33.098 1177.33 39.909 1189.01 46.8623 1199.66C63.312 1224.91 79.0325 1243.99 92.4235 1261.8C96.3595 1267.03 100.165 1272.14 103.84 1277.13C111.282 1287.64 119.3 1297.59 127.848 1306.94C131.668 1310.98 135.745 1314.68 140.047 1318.03C147.872 1324.11 157.671 1330.51 167.825 1339.54C179.029 1349.48 187.511 1360.37 195.816 1367.38C198.663 1369.79 201.72 1371.86 204.939 1373.56C212.815 1377.41 221.153 1379.89 229.676 1380.93C237.554 1382.22 245.681 1383.4 253.826 1384.73C274.686 1388.05 296.133 1393.85 324.71 1407.13C345.601 1416.75 366.012 1427.68 385.85 1439.85C400.219 1448.7 414.303 1458.5 427.694 1468.2C453.63 1486.82 478.467 1507.36 502.047 1529.67C523.493 1550.11 542.664 1571.45 564.289 1595.38C574.23 1606.44 584.526 1618.06 595.481 1629.8C609.085 1644.42 624.076 1659.47 642.002 1669.8C659.928 1680.12 681.375 1684.76 697.54 1679.51" stroke="#DFDFE0" stroke-width="0.65" stroke-miterlimit="10"/>
<path opacity="0.71" d="M-237.726 892.732C-196.255 897.875 -159.479 932.946 -120.569 978.728C-93.904 1010.18 -69.5204 1044.04 -47.6567 1079.97C-29.1086 1110.79 -11.0584 1142.46 7.18739 1173.12C14.1585 1184.9 21.183 1196.52 28.403 1207.01C45.4573 1231.84 61.9603 1249.84 75.9914 1266.46L87.9952 1280.64C95.8283 1290.35 104.198 1299.49 113.052 1307.99C117.026 1311.68 121.215 1315.07 125.589 1318.12C133.645 1323.68 143.622 1329.68 153.883 1338.73C165.229 1348.71 173.445 1359.97 181.287 1367.4C183.992 1369.95 186.904 1372.2 189.983 1374.12C197.268 1378.4 205.053 1381.47 213.102 1383.24C220.446 1385.26 227.986 1386.98 235.669 1388.93C255.231 1393.87 275.237 1401.3 303.157 1415.96C320.816 1425.21 341.694 1436.53 363.763 1450.38C378.167 1459.43 392.305 1469.27 405.963 1478.87C432.145 1497.07 457.49 1516.8 481.898 1537.96C504.003 1557.29 523.885 1577.46 546.096 1600.63C556.375 1611.34 566.956 1622.7 578.106 1634.3C592.013 1648.7 607.236 1663.64 625.286 1674.05C643.336 1684.46 665.014 1689.56 681.357 1684.96" stroke="#DFDFE0" stroke-width="0.64" stroke-miterlimit="10"/>
<path opacity="0.68" d="M-248.804 889.796C-210.108 897.997 -176.052 935.214 -138.707 982.94C-112.985 1015.65 -89.2209 1050.28 -67.5733 1086.61C-49.1675 1117.82 -30.9573 1149.71 -12.2669 1180.28C-5.15358 1192.05 2.11986 1203.61 9.58889 1213.94C27.2834 1238.24 44.5333 1255.26 59.2224 1270.63L71.7775 1283.79C80.0098 1292.71 88.7293 1301.02 97.8835 1308.68C102.005 1312.03 106.305 1315.08 110.759 1317.81C119.046 1322.9 129.236 1328.46 139.603 1337.56C151.074 1347.56 158.97 1359.16 166.421 1367.04C168.95 1369.71 171.681 1372.13 174.583 1374.27C181.279 1378.97 188.498 1382.62 196.048 1385.14C202.895 1387.69 209.901 1390.14 217.05 1392.73C235.207 1399.25 253.862 1408.32 281.071 1424.34C298.285 1434.47 319.038 1446.43 341.161 1460.63C355.565 1469.86 369.845 1479.74 383.699 1489.22C412.988 1509.22 438.543 1527.69 461.305 1545.91C484.068 1564.14 504.661 1583.17 527.549 1605.57C538.13 1615.93 548.996 1627.03 560.448 1638.45C574.675 1652.62 590.129 1667.43 608.285 1677.96C626.442 1688.49 648.085 1693.79 664.57 1689.88" stroke="#DFDFE0" stroke-width="0.64" stroke-miterlimit="10"/>
<path opacity="0.66" d="M-260.364 886.232C-224.442 897.47 -193.214 936.854 -157.345 986.382C-132.64 1020.33 -109.525 1055.73 -88.096 1092.44C-69.868 1124.05 -51.4799 1156.17 -32.345 1186.68C-25.0182 1198.45 -17.567 1209.95 -9.83117 1220.07C8.46796 1244.07 26.4826 1259.92 41.7407 1274.16C46.2459 1278.33 50.6205 1282.38 54.8649 1286.31C63.5214 1294.38 72.6213 1301.81 82.1091 1308.56C86.3861 1311.53 90.803 1314.24 95.3399 1316.66C103.84 1321.21 114.226 1326.38 124.7 1335.49C136.295 1345.61 143.889 1357.5 150.931 1365.86C153.298 1368.66 155.849 1371.24 158.56 1373.6C164.743 1378.72 171.456 1382.96 178.549 1386.21C184.879 1389.39 191.353 1392.47 197.968 1395.69C214.791 1403.79 232.041 1414.54 258.681 1431.91C275.45 1442.87 296.026 1455.5 318.237 1470C332.66 1479.42 347.064 1489.32 361.113 1498.65C390.829 1518.4 416.953 1535.81 440.392 1553.02C464.037 1570.49 486.828 1589.42 508.662 1609.72C519.563 1619.72 530.714 1630.57 542.451 1641.81C556.944 1655.82 572.647 1670.5 590.839 1681.13C609.032 1691.77 630.656 1697.33 647.266 1694.15" stroke="#DFDFE0" stroke-width="0.63" stroke-miterlimit="10"/>
<path opacity="0.63" d="M-272.332 881.919C-239.166 896.214 -210.765 937.684 -176.301 989.135C-153.947 1022.57 -129.886 1060.53 -108.938 1097.61C-90.8518 1129.62 -72.3215 1161.92 -52.7064 1192.41C-45.5409 1203.93 -37.8231 1214.99 -29.588 1225.54C-10.6664 1249.13 8.0951 1263.89 24.1002 1276.93C28.8424 1280.76 33.4069 1284.43 37.7934 1287.93C46.8204 1295.26 56.2467 1301.93 66.0157 1307.91C69.9992 1310.26 74.4628 1312.69 79.5667 1315.06C88.3161 1319.11 98.8795 1323.89 109.478 1333.02C121.18 1343.14 128.489 1355.41 135.104 1364.18C137.313 1367.1 139.689 1369.84 142.218 1372.4C147.874 1377.95 154.046 1382.77 160.623 1386.78C166.421 1390.61 172.378 1394.31 178.407 1398.16C193.878 1407.88 209.741 1420.23 235.723 1438.98C252.048 1450.79 272.535 1464.07 294.746 1478.85C309.204 1488.47 323.733 1498.41 337.977 1507.6C368.12 1527.06 394.796 1543.44 418.91 1559.64C443.268 1575.91 466.748 1593.82 489.225 1613.28C500.447 1622.96 511.882 1633.53 523.832 1644.59C538.663 1658.29 554.597 1672.93 572.985 1683.58C591.373 1694.24 612.82 1700.29 629.59 1697.76" stroke="#DFDFE0" stroke-width="0.63" stroke-miterlimit="10"/>
<path opacity="0.61" d="M-284.603 876.755C-254.211 894.088 -228.603 937.664 -195.686 991.039C-174.523 1025.46 -151.067 1064.22 -130.207 1101.92C-112.281 1134.32 -93.5733 1166.84 -73.5313 1197.29C-66.2023 1208.79 -58.2557 1219.77 -49.7371 1230.16C-30.1754 1253.32 -10.6136 1267.01 5.9783 1278.85C10.8628 1282.34 15.6051 1285.64 20.205 1288.78C29.6241 1295.32 39.4012 1301.17 49.4765 1306.29C53.5667 1308.32 58.1548 1310.34 63.3832 1312.47C72.2749 1316.03 83.105 1320.38 93.8106 1329.54C105.654 1339.66 112.661 1352.32 118.85 1361.53C120.905 1364.58 123.107 1367.49 125.447 1370.26C130.598 1376.24 136.224 1381.66 142.253 1386.46C147.588 1390.89 152.923 1395.24 158.524 1399.72C172.644 1411.02 187.102 1425.03 212.426 1445.16C228.324 1457.77 248.669 1471.74 270.933 1486.81C285.409 1496.59 300.08 1506.57 314.521 1515.64C345.073 1534.84 372.317 1550.21 397.107 1565.29C422.176 1580.34 446.348 1597.25 469.468 1615.91C480.991 1625.23 492.728 1635.55 504.91 1646.43C520.061 1659.89 536.226 1674.35 554.703 1685.16C573.18 1695.98 594.681 1702.25 611.575 1700.35" stroke="#DFDFE0" stroke-width="0.62" stroke-miterlimit="10"/>
<path opacity="0.59" d="M-297.104 870.64C-269.451 891.031 -246.635 936.671 -215.3 992.011C-195.312 1027.26 -172.496 1066.93 -151.724 1105.26C-134.087 1138.33 -114.993 1170.37 -94.5153 1201.24C-87.024 1212.72 -78.8607 1223.61 -70.0809 1233.84C-49.9323 1256.6 -29.6413 1269.22 -12.3381 1279.85C-7.252 1282.99 -2.30827 1285.94 2.49325 1288.69C12.2711 1294.46 22.37 1299.48 32.7251 1303.74C36.922 1305.42 41.6168 1307.18 46.9518 1308.94C56.1636 1311.98 67.1183 1315.93 77.9128 1325.14C89.881 1335.27 96.6031 1348.31 102.383 1357.97C104.534 1361.59 106.597 1364.63 108.429 1367.2C113.104 1373.58 118.192 1379.56 123.652 1385.08C128.435 1390.16 133.326 1395.2 138.341 1400.24C151.234 1413.1 164.287 1428.73 188.935 1450.3C204.388 1463.76 224.608 1478.38 246.909 1493.75C261.42 1503.72 276.198 1513.74 290.851 1522.67C321.848 1541.42 349.661 1555.9 375.127 1569.89C400.882 1583.74 425.741 1599.65 449.515 1617.51C461.377 1626.46 473.38 1636.59 485.811 1647.22C501.283 1660.48 517.679 1674.82 536.298 1685.69C554.917 1696.56 576.346 1703.41 593.365 1702.09" stroke="#DFDFE0" stroke-width="0.61" stroke-miterlimit="10"/>
<path opacity="0.56" d="M-309.713 863.472C-284.816 886.9 -264.774 934.606 -234.916 991.91C-216.083 1028.05 -193.907 1068.61 -173.225 1107.57C-155.759 1141.04 -136.517 1173.27 -115.607 1204.08C-107.968 1215.57 -99.5862 1226.4 -90.5322 1236.47C-69.7612 1258.75 -48.7234 1270.35 -30.7621 1279.81C-25.4745 1282.51 -20.341 1285.09 -15.3616 1287.56C-5.15268 1292.54 5.33243 1296.74 16.026 1300.16C20.3118 1301.49 25.1667 1302.91 30.5907 1304.37C40.0336 1306.88 51.1839 1310.44 62.1029 1319.65C74.1779 1329.78 80.6154 1343.2 85.9682 1353.31C87.96 1357.09 89.845 1360.29 91.4989 1363.05C95.7055 1369.88 100.254 1376.43 105.121 1382.67C109.389 1388.38 113.746 1394.01 118.245 1399.72C129.68 1414.24 141.364 1431.49 165.371 1454.39C180.38 1468.69 200.458 1483.99 222.812 1499.63C237.341 1509.75 252.261 1519.87 267.092 1528.64C298.48 1547.27 326.862 1560.63 353.004 1573.57C379.146 1586.51 403.224 1599.59 429.473 1618.12C441.601 1626.73 453.907 1636.59 466.587 1647.04C482.361 1660.06 498.988 1674.27 517.732 1685.18C536.476 1696.1 557.869 1703.41 575.03 1702.76" stroke="#DFDFE0" stroke-width="0.61" stroke-miterlimit="10"/>
<path opacity="0.54" d="M-322.356 855.15C-300.234 881.615 -282.93 931.386 -254.619 990.654C-236.942 1027.69 -215.496 1069.12 -194.813 1108.7C-177.486 1142.59 -158.077 1175.03 -136.733 1205.8C-128.936 1217.26 -120.336 1227.99 -111.018 1237.87C-89.6779 1259.8 -67.8221 1270.27 -49.2029 1278.51C-43.7375 1280.94 -38.4024 1283.17 -33.1978 1285.19C-22.6038 1289.39 -11.7728 1292.78 -0.778635 1295.32C3.61387 1296.33 8.61098 1297.34 14.1416 1298.56C23.8158 1300.58 35.1438 1303.72 46.1518 1312.97C58.369 1323.22 64.522 1336.89 69.4303 1347.4C71.2086 1351.32 72.9869 1354.71 74.4274 1357.52C78.7666 1366.15 82.7501 1372.61 86.4846 1378.9C90.2191 1385.2 94.0603 1391.5 98.026 1397.86C108.109 1413.95 118.388 1432.85 141.755 1457.1C156.338 1472.23 176.273 1488.21 198.662 1504.12C213.227 1514.47 228.272 1524.55 243.299 1533.24C275.113 1551.58 304.047 1563.94 330.882 1575.76C357.717 1587.59 382.454 1599.53 409.343 1617.35C421.791 1625.63 434.417 1635.17 447.346 1645.48C463.351 1658.27 480.298 1672.37 499.149 1683.46C517.999 1694.56 539.268 1702.17 556.66 1702.27" stroke="#DFDFE0" stroke-width="0.6" stroke-miterlimit="10"/>
<path opacity="0.51" d="M-334.929 845.593C-315.581 875.095 -300.998 926.911 -274.27 988.164C-257.713 1026.09 -236.836 1068.39 -216.332 1108.6C-199.177 1142.9 -179.616 1175.56 -157.842 1206.26C-149.888 1217.73 -141.069 1228.38 -131.487 1238.09C-109.471 1259.6 -86.9216 1268.99 -67.6444 1276.04C-61.9893 1278.06 -56.4764 1279.99 -51.1058 1281.63C-40.1171 1285.05 -28.9346 1287.62 -17.6374 1289.3L-2.37923 1291.55C7.52614 1293.05 19.0498 1295.8 30.1822 1305.1C42.5239 1315.36 48.3924 1329.39 52.8739 1340.39C54.5455 1344.44 56.0749 1348.06 57.3553 1351.12C61.1432 1360.27 64.5932 1367.32 67.812 1374.27C71.0308 1381.21 74.3385 1388.12 77.7707 1395.1C86.5201 1412.8 95.394 1433.31 118.121 1458.97C132.348 1474.92 152.07 1491.57 174.495 1507.79C189.026 1518.41 204.045 1528.15 219.487 1536.96C251.71 1555.05 281.195 1566.39 308.724 1577.18C335.95 1587.85 361.683 1598.7 389.212 1615.75C402.033 1623.69 414.891 1632.96 428.068 1643.09C444.447 1655.66 461.572 1669.63 480.53 1680.81C499.487 1691.99 520.916 1699.76 538.361 1700.55" stroke="#DFDFE0" stroke-width="0.6" stroke-miterlimit="10"/>
<path opacity="0.49" d="M-347.36 834.739C-330.768 867.299 -318.907 921.14 -293.743 984.397C-278.325 1023.19 -258.176 1066.38 -237.707 1107.23C-220.685 1141.93 -200.936 1174.81 -178.702 1205.45C-170.584 1216.91 -161.547 1227.47 -151.707 1237.02C-129.069 1258.12 -105.755 1266.42 -85.9082 1272.29C-80.0634 1274.01 -74.3609 1275.51 -68.8006 1276.81C-57.4088 1279.45 -45.8692 1281.19 -34.2652 1282.01C-29.6771 1282.34 -24.4132 1282.72 -18.6691 1283.27C-8.53258 1284.24 3.18667 1286.61 14.4258 1295.92C26.8742 1306.25 32.4759 1320.59 36.5306 1332.07C38.0244 1336.3 39.3759 1340.07 40.4785 1343.31C43.7328 1352.96 46.6493 1360.66 49.3702 1368.19C52.0911 1375.72 54.8653 1383.3 57.764 1390.93C65.1619 1410.21 72.6487 1432.36 94.7179 1459.37C108.429 1476.18 128.097 1493.47 150.558 1509.99C165.129 1520.81 180.274 1530.59 195.906 1539.27C228.574 1557.01 258.628 1567.38 286.743 1577.08C314.61 1586.67 341.089 1596.35 369.294 1612.63C382.931 1620.67 396.181 1629.53 408.986 1639.18C425.685 1651.51 443.024 1665.38 462.106 1676.66C481.187 1687.94 502.634 1696.06 520.204 1697.52" stroke="#DFDFE0" stroke-width="0.59" stroke-miterlimit="10"/>
<path opacity="0.46" d="M-359.541 822.408C-345.724 858.005 -336.53 913.891 -312.984 979.112C-298.758 1018.8 -279.196 1062.88 -258.834 1104.35C-241.797 1139.12 -222.147 1172.95 -199.366 1203.14C-191.076 1214.59 -181.814 1225.08 -171.713 1234.45C-148.47 1255.14 -124.391 1262.37 -103.816 1267.03C-97.7694 1268.41 -91.8831 1269.54 -86.1391 1270.47C-74.3551 1272.34 -62.47 1273.26 -50.5722 1273.22C-45.8596 1273.22 -40.489 1273.22 -34.5672 1273.49C-24.1994 1273.93 -12.2845 1275.92 -0.938709 1285.27C11.6342 1295.62 16.9336 1310.3 20.5614 1322.23C21.8952 1326.62 23.0689 1330.57 23.9758 1333.97C26.7145 1344.1 29.0975 1352.46 31.267 1360.62C33.4366 1368.78 35.7129 1377 38.0781 1385.24C44.1245 1406.12 50.242 1429.79 71.6354 1458.3C84.9196 1475.91 104.428 1493.89 126.96 1510.7C141.555 1521.71 156.823 1531.52 172.645 1540.06C205.651 1557.62 236.256 1566.93 265.155 1575.56C293.608 1584.06 320.87 1592.57 349.733 1608.1C363.682 1615.77 377.221 1624.37 390.279 1633.85C407.28 1646 424.867 1659.69 444.056 1671.07C463.244 1682.45 484.584 1690.91 502.314 1693.04" stroke="#DFDFE0" stroke-width="0.58" stroke-miterlimit="10"/>
<path opacity="0.44" d="M-371.367 808.579C-360.324 847.233 -353.797 905.124 -331.888 972.37C-318.675 1012.87 -299.878 1057.9 -279.623 1099.94C-262.728 1135.09 -242.918 1169.15 -219.675 1199.3C-211.238 1210.75 -201.76 1221.16 -191.399 1230.34C-167.534 1250.59 -142.708 1256.66 -121.475 1260.25C-115.239 1261.26 -109.157 1262.04 -103.229 1262.59C-91.039 1263.68 -78.7967 1263.77 -66.595 1262.88C-61.7935 1262.53 -56.2806 1262.23 -50.3054 1262.17C-39.6354 1262.17 -27.6138 1263.69 -16.1435 1273.06C-3.44612 1283.45 1.63995 1298.48 4.76983 1310.85C5.94354 1315.4 6.92161 1319.51 7.65073 1323.1C9.83809 1333.81 11.6876 1342.72 13.3592 1351.45C15.0308 1360.17 16.7558 1369.08 18.5875 1377.97C23.3001 1400.45 28.0127 1425.84 48.8193 1455.63C61.6056 1474.17 80.9718 1492.82 103.574 1509.91C118.189 1521.13 133.574 1530.99 149.58 1539.39C183.049 1556.63 214.241 1564.97 243.832 1572.52C272.944 1579.89 300.97 1587.26 330.42 1602.04C344.669 1609.34 358.492 1617.67 371.802 1626.99C389.123 1638.88 406.942 1652.5 426.255 1663.98C445.567 1675.47 466.89 1684.23 484.744 1687.07" stroke="#DFDFE0" stroke-width="0.58" stroke-miterlimit="10"/>
<path opacity="0.41" d="M-382.785 793.128C-374.498 834.82 -370.621 894.756 -350.366 963.987C-338.22 1005.44 -320.134 1051.28 -299.967 1094.02C-283.233 1129.56 -263.262 1163.84 -239.504 1193.95C-230.891 1205.4 -221.187 1215.72 -210.57 1224.73C-186.1 1244.59 -160.51 1249.68 -138.618 1251.94C-132.181 1252.61 -125.921 1253.04 -119.804 1253.2C-107.213 1253.54 -94.6173 1252.81 -82.1205 1251.03C-77.2123 1250.36 -71.575 1249.7 -65.4931 1249.35C-54.663 1248.72 -42.3746 1249.94 -30.7976 1259.35C-17.9758 1269.78 -13.2276 1285.15 -10.4712 1297.97C-9.47531 1302.69 -8.69281 1306.98 -8.10596 1310.7C-6.46989 1321.96 -5.15392 1331.48 -3.998 1340.88C-2.84208 1350.27 -1.65059 1359.77 -0.334619 1369.22C3.00866 1393.28 6.35195 1420.31 26.4294 1451.47C38.8778 1470.75 58.0839 1490.09 80.6866 1507.46C95.3469 1518.85 110.868 1528.74 127.066 1537C160.961 1553.95 192.704 1561.3 222.954 1567.78C252.67 1574.22 281.408 1580.36 311.533 1594.35C326.096 1601.27 340.215 1609.35 353.787 1618.53C371.41 1630.19 389.46 1643.67 408.915 1655.26C428.37 1666.84 449.639 1675.99 467.6 1679.55" stroke="#DFDFE0" stroke-width="0.57" stroke-miterlimit="10"/>
<path opacity="0.39" d="M-393.669 776.019C-388.156 820.768 -386.911 882.729 -368.31 953.964C-357.248 996.284 -339.856 1043.06 -319.796 1086.37C-303.204 1122.27 -283.091 1156.69 -258.941 1186.82C-250.154 1198.26 -240.229 1208.5 -229.368 1217.34C-204.275 1236.8 -177.92 1240.79 -155.371 1241.86C-148.755 1242.18 -142.3 1242.24 -136.005 1242.04C-123.012 1241.59 -110.065 1240.05 -97.2725 1237.43C-92.2576 1236.41 -86.4779 1235.4 -80.3071 1234.75C-69.228 1233.6 -56.7441 1234.43 -45.0781 1243.86C-32.114 1254.31 -27.6504 1270.05 -25.3385 1283.31C-24.4849 1288.17 -23.8625 1292.66 -23.5602 1296.55C-22.4576 1308.34 -21.6574 1318.44 -21.035 1328.46C-20.4126 1338.49 -19.719 1348.71 -18.9543 1358.84C-16.9448 1384.51 -14.9886 1413.14 4.43087 1445.72C16.4169 1465.83 35.4985 1485.82 58.1546 1503.49C72.852 1515.07 88.5041 1524.99 104.889 1533.12C139.194 1549.78 171.506 1556.14 202.431 1561.47C232.859 1566.75 262.29 1571.71 293.127 1584.95C307.999 1591.48 322.42 1599.26 336.269 1608.24C354.213 1619.66 372.494 1633.04 392.038 1644.69C411.582 1656.33 432.94 1665.87 451.008 1670" stroke="#DFDFE0" stroke-width="0.57" stroke-miterlimit="10"/>
<path opacity="0.37" d="M-403.929 756.965C-401.172 804.772 -402.541 868.758 -385.629 941.977C-375.653 985.167 -358.954 1032.79 -339.019 1076.79C-322.552 1113.12 -302.296 1147.85 -277.684 1177.87C-268.728 1189.32 -258.575 1199.48 -247.452 1208.13C-221.737 1227.16 -194.636 1230.08 -171.446 1229.97C-164.641 1229.97 -157.99 1229.67 -151.493 1229.06C-138.095 1227.84 -124.797 1225.47 -111.711 1221.98C-106.59 1220.64 -100.686 1219.26 -94.4082 1218.33C-83.0979 1216.63 -70.4184 1217.1 -58.6457 1226.55C-45.5571 1237.04 -41.3781 1253.12 -39.493 1266.83C-38.8583 1271.38 -38.425 1275.97 -38.1948 1280.58C-37.6257 1292.87 -37.359 1303.6 -37.2523 1314.23C-37.1456 1324.86 -36.9855 1335.67 -36.7366 1346.42C-36.0786 1373.7 -35.5095 1403.95 -16.7658 1437.91C-5.2066 1458.84 13.7505 1479.52 36.4422 1497.46C51.1644 1509.25 66.9435 1519.24 83.5149 1527.24C118.228 1543.65 151.092 1548.99 182.711 1553.3C213.778 1557.54 243.939 1561.4 275.434 1573.8C290.589 1579.97 305.283 1587.52 319.376 1596.37C337.622 1607.51 356.099 1620.77 375.821 1632.54C395.543 1644.3 416.723 1654.18 435.004 1658.98" stroke="#DFDFE0" stroke-width="0.56" stroke-miterlimit="10"/>
<path opacity="0.34" d="M-413.266 736.047C-413.266 786.892 -417.231 852.943 -402.026 928.126C-393.135 972.228 -377.13 1020.7 -357.283 1065.35C-341.012 1102.02 -320.561 1137.01 -295.504 1166.98C-285.99 1178.42 -275.782 1189.11 -264.649 1196.99C-238.312 1215.62 -210.446 1217.46 -186.598 1216.14C-179.591 1215.75 -172.751 1215.08 -166.076 1214.12C-152.248 1212.12 -138.575 1208.93 -125.174 1204.56C-119.362 1202.67 -113.468 1201.12 -107.515 1199.92C-95.9916 1197.72 -83.1163 1197.78 -71.237 1207.27C-58.0239 1217.8 -54.1116 1234.21 -52.6711 1248.38C-52.1817 1253.08 -51.9205 1257.82 -51.8887 1262.55C-51.8887 1275.37 -52.1377 1286.71 -52.5467 1297.97C-52.9557 1309.23 -53.3292 1320.67 -53.6137 1332.05C-54.2895 1360.9 -55.0897 1392.79 -37.0218 1428.13C-25.8893 1449.89 -7.09229 1471.24 15.6349 1489.48C30.4005 1501.44 46.3194 1511.44 63.0811 1519.29C98.2211 1535.49 131.654 1539.78 163.949 1543C195.657 1546.16 226.564 1548.73 258.716 1560.45C274.165 1566.26 289.151 1573.56 303.513 1582.26C322.061 1593.24 340.858 1606.38 360.598 1618.22C380.337 1630.07 401.553 1640.43 419.959 1645.9" stroke="#DFDFE0" stroke-width="0.56" stroke-miterlimit="10"/>
<path opacity="0.32" d="M-420.237 713.126C-423.011 767.007 -429.555 835.084 -416.058 912.272C-408.18 957.244 -392.939 1006.61 -373.2 1051.87C-357.035 1088.98 -336.477 1124.15 -310.958 1154.08C-301.266 1165.5 -290.863 1176.13 -279.463 1183.83C-252.504 1202.05 -223.872 1202.8 -199.438 1200.29C-192.325 1199.56 -185.211 1198.53 -178.365 1197.23C-164.151 1194.45 -150.144 1190.44 -136.467 1185.22C-130.573 1182.96 -124.57 1181.08 -118.488 1179.59C-106.733 1176.84 -93.591 1176.54 -81.6583 1186.05C-68.3386 1196.62 -64.693 1213.37 -63.6971 1227.99C-63.355 1232.89 -63.2718 1237.82 -63.4481 1242.73C-63.9816 1256.07 -64.7641 1268.02 -65.6889 1279.91C-66.6136 1291.79 -67.4672 1303.86 -68.3208 1315.89C-70.3481 1346.26 -72.5355 1379.85 -55.1255 1416.57C-44.4555 1439.16 -25.7651 1461.11 -3.00232 1479.72C11.8264 1491.88 27.9104 1501.92 44.8884 1509.61C80.4552 1525.44 114.439 1528.82 147.41 1530.95C179.758 1532.97 211.43 1534.43 244.223 1545.41C259.953 1550.84 275.224 1557.87 289.855 1566.41C308.705 1577.16 327.645 1590.18 347.598 1602.16C367.551 1614.15 388.713 1624.7 407.261 1630.84" stroke="#DFDFE0" stroke-width="0.55" stroke-miterlimit="10"/>
<path opacity="0.29" d="M-425.821 688.058C-431.351 744.977 -440.457 815.119 -428.702 894.271C-421.873 940.154 -407.362 990.371 -387.8 1036.27C-371.795 1073.78 -351.059 1109.17 -325.096 1139.06C-315.243 1150.46 -304.609 1161.01 -292.943 1168.54C-265.379 1186.34 -236.036 1186.01 -210.837 1182.31C-203.463 1181.24 -196.249 1179.89 -189.195 1178.26C-174.568 1174.73 -160.208 1169.9 -146.248 1163.8C-140.26 1161.18 -134.137 1158.97 -127.913 1157.2C-115.945 1153.9 -102.661 1153.15 -90.5678 1162.77C-77.1058 1173.38 -73.7447 1190.47 -73.1757 1205.53C-72.9856 1210.62 -73.0806 1215.71 -73.4601 1220.78C-74.5449 1234.65 -75.8609 1247.21 -77.2836 1259.72C-78.7063 1272.23 -80.1645 1284.93 -81.4983 1297.58C-84.8771 1329.64 -88.416 1364.77 -71.6996 1402.88C-61.4208 1426.28 -42.9083 1448.98 -20.1277 1467.81C-5.29805 1480.15 10.886 1490.23 28.012 1497.78C63.9879 1513.33 98.541 1515.72 132.205 1516.78C165.193 1517.79 197.559 1517.99 231.045 1528.22C247.065 1533.29 262.629 1540.07 277.531 1548.47C296.702 1558.99 315.943 1571.87 335.95 1583.94C355.956 1596.01 377.172 1606.9 395.844 1613.73" stroke="#DFDFE0" stroke-width="0.54" stroke-miterlimit="10"/>
<path opacity="0.27" d="M-430.107 660.763C-438.394 720.74 -450.06 792.946 -440.03 874.063C-434.25 920.837 -420.468 971.904 -400.907 1018.46C-385.008 1056.34 -364.148 1091.96 -337.722 1121.72C-327.71 1133.08 -316.88 1143.59 -304.947 1150.94C-276.76 1168.34 -246.618 1166.94 -220.796 1162.04C-213.22 1160.61 -205.816 1158.86 -198.585 1156.8C-183.552 1152.48 -168.842 1146.83 -154.588 1139.89C-148.531 1136.93 -142.311 1134.43 -135.969 1132.4C-123.77 1128.57 -110.308 1127.52 -98.0905 1137.09C-84.504 1147.72 -81.4097 1165.18 -81.303 1180.69C-81.2622 1185.95 -81.5296 1191.2 -82.1033 1196.42C-83.7216 1210.8 -85.66 1223.98 -87.4383 1237.1C-89.2166 1250.22 -91.3507 1263.59 -93.2179 1276.87C-97.9483 1310.52 -102.856 1347.27 -86.8158 1386.76C-76.9638 1411.06 -58.5936 1434.38 -35.7419 1453.48C-20.8782 1466.02 -4.55713 1476.14 12.7535 1483.57C49.1561 1498.84 84.2784 1500.23 118.6 1500.19C152.229 1500.19 185.342 1499.14 219.486 1508.62C235.787 1513.31 251.643 1519.81 266.825 1528.03C286.209 1538.3 305.682 1551.08 325.866 1563.23C345.212 1575.15 365.295 1585.46 385.956 1594.07" stroke="#DFDFE0" stroke-width="0.54" stroke-miterlimit="10"/>
<path opacity="0.24" d="M-433.076 631.159C-444.137 694.173 -458.346 768.445 -450.059 851.505C-445.311 899.211 -432.275 951.129 -412.874 998.308C-397.118 1036.58 -376.115 1072.42 -349.227 1102.22C-339.055 1113.56 -327.993 1124.01 -315.812 1131.2C-287.003 1148.17 -256.095 1145.7 -229.633 1139.6C-221.868 1137.81 -214.274 1135.7 -206.853 1133.29C-191.41 1128.19 -176.347 1121.7 -161.807 1113.89C-155.647 1110.55 -149.296 1107.69 -142.797 1105.32C-130.348 1100.97 -116.691 1099.53 -104.385 1109.13C-90.6737 1119.82 -87.8461 1137.6 -88.184 1153.55C-88.2886 1158.98 -88.7284 1164.4 -89.5 1169.75C-91.6874 1184.64 -94.0704 1198.43 -96.5067 1212.17C-98.943 1225.92 -101.468 1239.94 -103.869 1253.83C-109.951 1289.08 -116.317 1327.45 -100.864 1368.33C-91.4385 1393.42 -73.2282 1417.46 -50.3232 1436.85C-35.4193 1449.57 -18.961 1459.72 -1.47212 1467C35.3396 1481.99 71.0309 1482.39 106.046 1481.18C140.315 1480.06 174.157 1477.8 208.959 1486.58C225.544 1490.89 241.694 1497.13 257.152 1505.21C276.927 1515.34 296.631 1527.93 316.869 1540.16C336.429 1552.24 356.622 1562.94 377.333 1572.2" stroke="#DFDFE0" stroke-width="0.53" stroke-miterlimit="10"/>
<path opacity="0.22" d="M-434.695 599.106C-448.513 665.177 -465.247 741.535 -458.738 826.539C-454.416 878.175 -442.482 928.612 -423.438 975.731C-407.806 1014.39 -386.662 1050.47 -359.329 1080.23C-348.979 1091.55 -337.722 1101.92 -325.256 1108.93C-295.842 1125.49 -264.187 1121.93 -237.068 1114.66C-229.101 1112.51 -221.312 1110.04 -213.7 1107.25C-197.849 1101.37 -182.435 1094.07 -167.606 1085.4C-161.362 1081.7 -154.896 1078.52 -148.257 1075.86C-135.613 1070.94 -121.742 1069.14 -109.312 1078.78C-95.4762 1089.49 -92.9331 1107.63 -93.6978 1124.03C-93.9649 1129.66 -94.589 1135.26 -95.5651 1140.78C-98.2859 1156.19 -101.185 1170.58 -104.154 1184.96C-107.124 1199.34 -110.147 1213.98 -113.046 1228.52C-120.462 1265.35 -128.127 1305.34 -113.437 1347.62C-104.421 1373.52 -86.371 1398.24 -63.4126 1417.92C-48.4808 1430.83 -31.8892 1441.03 -14.2237 1448.17C23.0148 1462.87 59.2574 1462.35 94.9487 1460.08C129.858 1457.89 164.446 1454.45 199.871 1462.47C216.726 1466.41 233.163 1472.39 248.9 1480.31C269.013 1490.15 288.948 1502.68 309.363 1515.01C329.072 1527.21 349.306 1538.27 369.987 1548.16" stroke="#DFDFE0" stroke-width="0.53" stroke-miterlimit="10"/>
<path opacity="0.2" d="M-434.891 564.541C-451.482 633.67 -470.742 712.114 -466.012 799.062C-462.837 851.444 -451.517 902.768 -432.579 950.643C-417.089 989.683 -395.803 1025.97 -368.007 1055.69C-357.497 1066.99 -346.027 1077.32 -333.312 1084.14C-303.258 1100.34 -270.839 1095.66 -243.079 1087.18C-234.922 1084.67 -226.943 1081.84 -219.142 1078.7C-202.88 1072.05 -187.115 1063.92 -171.998 1054.4C-165.667 1050.35 -159.088 1046.83 -152.312 1043.87C-139.455 1038.42 -125.37 1036.23 -112.833 1045.89C-98.8729 1056.65 -96.5966 1075.13 -97.8059 1091.98C-98.2364 1097.79 -99.0329 1103.55 -100.189 1109.23C-103.461 1125.13 -106.893 1140.15 -110.379 1155.15C-113.864 1170.16 -117.492 1185.53 -120.889 1200.59C-129.638 1239.07 -138.672 1280.66 -124.659 1324.31C-116.07 1351.06 -98.1616 1376.43 -75.1676 1396.4C-60.2114 1409.52 -43.4772 1419.78 -25.623 1426.77C12.0245 1441.19 48.8362 1439.61 85.2033 1436.31C120.77 1433.07 156.07 1428.43 192.188 1435.7C209.322 1439.26 226.058 1444.97 242.089 1452.73C262.486 1462.35 282.67 1474.76 303.139 1487.15C323.608 1499.54 344.752 1511.92 363.994 1521.41" stroke="#DFDFE0" stroke-width="0.52" stroke-miterlimit="10"/>
<path opacity="0.17" d="M-433.591 527.365C-452.958 599.511 -474.742 680.06 -471.773 768.931C-469.745 822.012 -459.053 874.199 -440.242 922.821C-424.895 962.306 -403.449 998.754 -375.208 1028.54C-364.538 1039.82 -352.837 1050.06 -339.855 1056.73C-309.196 1072.46 -276.03 1066.75 -247.595 1057.07C-239.296 1054.21 -231.133 1051.02 -223.107 1047.49C-206.429 1040.07 -190.306 1031.13 -174.896 1020.74C-168.487 1016.33 -161.793 1012.48 -154.872 1009.22C-141.783 1003.25 -127.503 1000.68 -114.859 1010.38C-100.775 1021.17 -98.8542 1040 -100.419 1057.29C-101.011 1063.28 -101.986 1069.21 -103.336 1075.03C-107.159 1091.47 -111.107 1107.1 -115.108 1122.74C-119.109 1138.37 -123.2 1154.26 -127.201 1170.06C-137.302 1210.09 -147.688 1253.34 -134.314 1298.37C-126.152 1325.95 -108.386 1352.01 -85.3566 1372.26C-70.3558 1385.53 -53.4818 1395.8 -35.4563 1402.63C2.60018 1416.81 39.9987 1414.22 77.0415 1409.82C113.249 1405.51 149.278 1399.7 186.054 1406.18C203.458 1409.36 220.485 1414.8 236.808 1422.38C257.472 1431.87 277.852 1444.23 298.463 1456.7C319.074 1469.17 340.094 1481.93 359.549 1492.09" stroke="#DFDFE0" stroke-width="0.52" stroke-miterlimit="10"/>
<path opacity="0.15" d="M-430.747 487.434C-452.887 562.637 -477.162 645.373 -475.988 736.088C-475.111 789.904 -465.042 843.012 -446.343 892.448C-431.12 932.277 -409.549 969.029 -380.847 998.652C-369.981 1009.91 -358.084 1020.1 -344.853 1026.58C-313.572 1041.9 -279.641 1035.12 -250.601 1024.25C-242.053 1021.05 -233.701 1017.5 -225.544 1013.6C-208.456 1005.39 -191.981 995.607 -176.284 984.357C-169.776 979.616 -162.963 975.44 -155.904 971.863C-142.62 965.343 -128.109 962.407 -115.358 972.127C-101.131 982.96 -99.353 1002.16 -101.523 1019.87C-102.276 1026.03 -103.423 1032.13 -104.955 1038.1C-109.33 1055.02 -113.847 1071.28 -118.31 1087.52C-122.774 1103.76 -127.451 1120.35 -131.986 1136.77C-143.438 1178.38 -155.104 1223.27 -142.549 1269.68C-134.795 1298.03 -117.19 1324.8 -94.1248 1345.35C-79.0928 1358.83 -62.0762 1369.16 -43.8688 1375.87C-5.38549 1389.74 32.5999 1386.27 70.283 1380.68C107.148 1375.42 143.889 1368.31 181.34 1374.06C199.006 1376.88 216.317 1382.06 232.912 1389.51C253.95 1398.67 274.597 1410.83 295.297 1423.47C315.996 1436.1 337.105 1449.12 356.614 1459.92" stroke="#DFDFE0" stroke-width="0.51" stroke-miterlimit="10"/>
<path opacity="0.12" d="M-426.265 444.689C-451.162 522.93 -477.944 607.731 -478.566 700.41C-478.828 754.925 -469.385 808.935 -450.806 859.18C-435.708 899.393 -413.995 936.347 -384.848 965.951C-373.822 977.169 -361.729 987.293 -348.196 993.611C-316.31 1008.51 -281.615 1000.66 -251.881 988.569C-243.155 985.018 -234.613 981.11 -226.255 976.845C-208.758 967.853 -191.933 957.255 -175.946 945.155C-169.352 940.07 -162.426 935.569 -155.228 931.69C-141.713 924.623 -127.024 921.303 -114.166 931.062C-99.8327 941.916 -98.3744 961.435 -100.9 979.659C-101.817 986.011 -103.143 992.278 -104.865 998.41C-109.774 1015.86 -114.789 1032.73 -119.821 1049.6C-124.854 1066.47 -129.993 1083.68 -135.062 1100.73C-147.866 1143.96 -160.972 1190.47 -149.004 1238.26C-141.695 1267.49 -124.232 1294.95 -101.113 1315.71C-86.0512 1329.38 -68.8979 1339.76 -50.5193 1346.32C-11.627 1359.91 26.9097 1355.43 65.3041 1348.79C102.809 1342.43 140.279 1334.15 178.389 1339.13C196.323 1341.61 213.931 1346.53 230.832 1353.79C252.172 1362.72 273.05 1374.77 293.874 1387.51C314.699 1400.24 335.79 1413.61 355.441 1425.13" stroke="#DFDFE0" stroke-width="0.5" stroke-miterlimit="10"/>
<path opacity="0.07" d="M-412.145 350.31C-442.573 434.646 -474.387 523.699 -478.567 620.164C-481.045 676.022 -472.855 731.828 -454.559 783.733C-439.692 824.676 -417.747 862.116 -387.676 891.638C-376.312 902.815 -363.792 912.818 -349.761 918.771C-316.631 932.844 -280.406 922.821 -249.374 908.364C-240.269 904.125 -231.377 899.495 -222.699 894.473C-204.373 883.936 -186.844 871.691 -170.291 857.863C-163.535 852.106 -156.4 846.948 -148.951 842.434C-135.009 834.334 -119.893 830.285 -106.804 840.045C-92.2218 850.979 -91.2793 871.228 -94.7471 890.261C-95.9742 896.985 -97.6507 903.591 -99.762 910.024C-105.773 928.471 -111.801 946.613 -117.883 964.695C-123.965 982.777 -130.154 1001.28 -136.271 1019.59C-151.761 1066 -167.552 1115.77 -157.007 1166.33C-150.498 1197.23 -133.39 1225.96 -110.183 1247.33C-94.9961 1261.43 -77.4775 1271.93 -58.6646 1278.19C-18.9364 1291.23 20.7384 1284.75 60.4843 1275.94C99.2877 1267.43 138.216 1256.78 177.659 1260.27C196.121 1262.01 214.316 1266.41 231.81 1273.35C253.755 1281.81 275.112 1293.59 296.168 1306.53C317.224 1319.47 338.315 1333.55 358.179 1346.4" stroke="#DFDFE0" stroke-width="0.49" stroke-miterlimit="10"/>
<path opacity="0.05" d="M-402.204 298.474C-435.388 385.847 -469.639 477.067 -475.685 575.395C-479.064 630.572 -472.129 689.071 -453.563 741.434C-438.838 782.782 -416.733 820.404 -386.217 849.926C-374.676 861.063 -361.943 871.005 -347.645 876.796C-313.856 890.464 -276.938 879.368 -245.248 863.716C-235.929 859.099 -226.818 854.104 -217.915 848.732C-199.178 837.406 -181.293 824.342 -164.44 809.672C-157.59 803.545 -150.323 798.047 -142.709 793.23C-128.482 784.543 -113.224 780.129 -100.028 789.97C-85.3394 800.925 -84.6636 821.538 -88.5582 841.017C-89.9588 847.916 -91.8135 854.684 -94.1066 861.266C-100.651 880.218 -107.213 898.969 -113.811 917.719C-120.408 936.469 -127.13 955.584 -133.781 974.517C-150.622 1022.53 -167.783 1073.92 -157.914 1125.86C-151.814 1157.58 -134.795 1186.99 -111.677 1208.69C-96.537 1222.92 -78.9792 1233.42 -60.1048 1239.55C-19.9498 1252.31 20.2941 1244.82 60.698 1234.96C100.159 1225.36 139.799 1213.55 179.847 1216.25C198.563 1217.64 217.044 1221.77 234.833 1228.54C257.098 1236.78 278.687 1248.48 299.849 1261.48C321.012 1274.48 342.049 1288.94 362.091 1302.46" stroke="#DFDFE0" stroke-width="0.49" stroke-miterlimit="10"/>
<path opacity="0.02" d="M-390.343 243.478C-426.372 333.827 -463.059 427.194 -470.831 527.405C-475.223 583.534 -469.052 642.822 -450.611 695.752C-436.029 737.505 -413.782 775.37 -382.803 804.812C-371.101 815.928 -358.137 825.81 -343.679 831.418C-309.304 844.681 -271.585 832.492 -239.237 815.645C-229.753 810.704 -220.452 805.352 -211.335 799.588C-192.194 787.464 -173.958 773.574 -156.811 758.058C-149.873 751.594 -142.493 745.771 -134.742 740.644C-120.373 731.43 -104.83 726.632 -91.546 736.594C-76.7146 747.609 -76.3412 768.567 -80.6448 788.471C-82.2165 795.523 -84.2434 802.433 -86.7089 809.145C-93.8223 828.624 -100.936 847.982 -108.049 867.36L-129.603 926.081C-147.777 975.69 -166.343 1028.72 -157.131 1082C-151.476 1114.58 -134.653 1144.65 -111.357 1166.64C-96.1596 1181.05 -78.4302 1191.6 -59.358 1197.58C-18.7763 1210.05 22.0189 1201.63 63.1164 1190.61C103.2 1179.96 143.586 1166.96 184.364 1168.9C203.339 1169.94 222.112 1173.81 240.204 1180.4C262.771 1188.5 284.662 1200.01 305.878 1213.11C327.093 1226.21 348.185 1240.99 368.387 1255.2" stroke="#DFDFE0" stroke-width="0.48" stroke-miterlimit="10"/>
</g>
</svg>
